<?xml version="1.0" encoding="utf-8"?>
<!-- Generator: Adobe Illustrator 18.0.0, SVG Export Plug-In . SVG Version: 6.00 Build 0)  -->
<!DOCTYPE svg PUBLIC "-//W3C//DTD SVG 1.1//EN" "http://www.w3.org/Graphics/SVG/1.1/DTD/svg11.dtd">
<svg version="1.1" id="圖層_1" xmlns="http://www.w3.org/2000/svg" xmlns:xlink="http://www.w3.org/1999/xlink" x="0px" y="0px"
	 viewBox="70 0 65 68" style="enable-background:new 70 0 65 68;" xml:space="preserve">
<g>
	<path style="fill:#292C77;" d="M104,0.4c0.4,0.2,1,0.2,1.5,0.4c3.6,1,5.9,4.6,5.7,8.4c-0.4,3.8-2.7,6.5-6.3,7.1
		c-5.5,1.3-10.3-3.1-9.9-8.6c0.4-4,3.6-6.9,6.9-7.3c0,0,0,0,0.2,0C102.7,0.4,103.3,0.4,104,0.4z"/>
	<path style="fill:#292C77;" d="M103.5,61.6c-5,0-10.1,0-15.1,0C88,61.6,88,61.4,88,61c0-2.3,0-4.4,0-6.7c0-0.4,0-0.6,0.4-0.6
		c1.7,0,3.1,0,4.8,0c0.4,0,0.4,0,0.4-0.4c0-8.2,0-16.6,0-24.7c0-0.4-0.2-0.4-0.4-0.4c-1.7,0-3.1,0-4.8,0c-0.4,0-0.4,0-0.4-0.4
		c0-2.1,0-4.4,0-6.5c0-0.4,0.2-0.4,0.4-0.4c2.5-0.2,5-0.4,7.5-0.6c3.4-0.2,6.9-0.4,10.3-0.8c2.3-0.2,4.6-0.4,6.9-0.4
		c0.2,0,0.2,0,0.2,0.2s0,0.2,0,0.4c0,11.3,0,22.4,0,33.8c0,0.4,0,0.6,0.6,0.6c1.5,0,3.1,0,4.6,0c0.4,0,0.4,0,0.4,0.4
		c0,2.3,0,4.4,0,6.7c0,0.4,0,0.4-0.4,0.4C113.6,61.6,108.6,61.6,103.5,61.6z"/>
</g>
</svg>
