<?xml version="1.0" encoding="utf-8"?>
<!-- Generator: Adobe Illustrator 16.0.0, SVG Export Plug-In . SVG Version: 6.00 Build 0)  -->
<!DOCTYPE svg PUBLIC "-//W3C//DTD SVG 1.1//EN" "http://www.w3.org/Graphics/SVG/1.1/DTD/svg11.dtd">
<svg version="1.1" id="圖層_1" xmlns="http://www.w3.org/2000/svg" xmlns:xlink="http://www.w3.org/1999/xlink" x="0px" y="0px"
	 width="48.667px" height="43.393px" viewBox="0 0 48.667 43.393" style="enable-background:new 0 0 48.667 43.393;"
	 xml:space="preserve">
<path style="fill-rule:evenodd;clip-rule:evenodd;fill:#FFFFFF;" d="M9.982,14.731c0-4.085,0-8.168,0-12.251
	c0-1.528,0.923-2.48,2.404-2.48c7.978,0,15.952,0,23.93,0c1.402,0,2.355,0.974,2.355,2.406c0,8.216,0,16.433,0,24.647
	c0,1.433-0.954,2.406-2.355,2.406c-7.993,0-15.986,0-23.978,0c-1.413,0-2.356-0.974-2.356-2.43
	C9.982,22.931,9.982,18.831,9.982,14.731z M30.207,27.974c0.103,0,0.174,0,0.245,0c1.964,0,3.928,0,5.892-0.002
	c0.569,0,0.879-0.318,0.879-0.905c0.001-8.224,0.001-16.446,0-24.673c0-0.587-0.308-0.905-0.876-0.905c-8.009,0-16.018,0-24.026,0
	c-0.586,0-0.89,0.312-0.89,0.919c0,8.216,0,16.432,0,24.648c0,0.604,0.304,0.918,0.893,0.918c3.982,0,7.967,0,11.951,0
	c0.086,0,0.169,0,0.255,0c0-3.143,0-6.247,0-9.381c-1.184,0-2.354,0-3.522,0c0-1.895,0-3.759,0-5.653c1.182,0,2.352,0,3.537,0
	c0-0.277-0.008-0.524,0.002-0.771c0.036-1.03-0.002-2.073,0.136-3.088c0.372-2.72,2.448-4.662,5.117-4.804
	c1.13-0.062,2.266,0.02,3.398,0.061c0.423,0.013,0.841,0.093,1.259,0.142c0,1.74,0,3.448,0,5.18c-0.262,0-0.51,0-0.757,0
	c-0.837,0.005-1.675-0.005-2.511,0.017c-0.614,0.02-0.919,0.242-0.947,0.771c-0.043,0.82-0.012,1.647-0.012,2.496
	c1.371,0,2.752,0,4.166,0c-0.241,1.899-0.478,3.77-0.718,5.66c-1.167,0-2.313,0-3.471,0C30.207,21.733,30.207,24.839,30.207,27.974z
	 M28.755,27.963c0-3.626,0-7.231,0-10.853c1.229,0,2.427,0,3.649,0c0.114-0.891,0.226-1.771,0.343-2.678c-1.346,0-2.661,0-3.98,0
	c-0.01-0.055-0.02-0.088-0.02-0.119c0.006-1.273-0.017-2.547,0.027-3.818c0.043-1.258,0.809-2.105,2.029-2.256
	c0.636-0.079,1.284-0.049,1.927-0.067c0.093-0.003,0.186,0,0.271,0c0-0.813,0-1.586,0-2.358C32.83,5.8,32.678,5.78,32.525,5.776
	c-1.005-0.038-2.011-0.154-3.012,0.026c-1.475,0.265-2.591,1.034-3.132,2.509c-0.194,0.533-0.328,1.117-0.352,1.683
	c-0.055,1.379-0.029,2.759-0.036,4.141c0,0.095,0,0.189,0,0.304c-1.202,0-2.367,0-3.534,0c0,0.9,0,1.78,0,2.678
	c1.182,0,2.345,0,3.54,0c0,3.626,0,7.231,0,10.847C26.923,27.963,27.813,27.963,28.755,27.963z"/>
<g>
	<path style="fill:#FFFFFF;" d="M11.462,34.766c-0.232,0-0.456,0.006-0.67,0.015c-0.212,0.012-0.383,0.024-0.51,0.045v-0.467
		c0.127,0.02,0.298,0.033,0.51,0.044c0.214,0.01,0.438,0.015,0.67,0.015v-1.429c0-0.177-0.004-0.341-0.014-0.495
		c-0.011-0.156-0.024-0.283-0.043-0.381c0.097,0.025,0.185,0.044,0.262,0.056c0.077,0.013,0.165,0.016,0.262,0.012
		c0.063-0.005,0.102,0.009,0.114,0.043c0.011,0.034-0.017,0.078-0.085,0.132c-0.029,0.023-0.05,0.06-0.064,0.108
		s-0.022,0.125-0.022,0.228v1.727c0.205,0,0.396-0.005,0.575-0.015c0.181-0.011,0.328-0.024,0.446-0.044v0.467
		c-0.118-0.021-0.266-0.033-0.446-0.045c-0.18-0.009-0.37-0.015-0.575-0.015v0.343c0.224,0.17,0.438,0.351,0.646,0.54
		c0.207,0.188,0.382,0.369,0.528,0.54l-0.394,0.327c-0.093-0.155-0.211-0.325-0.354-0.506c-0.145-0.184-0.286-0.344-0.427-0.486
		v1.903c0,0.18,0.008,0.371,0.022,0.575c0.015,0.205,0.034,0.416,0.058,0.634H11.39c0.025-0.218,0.042-0.429,0.056-0.634
		c0.012-0.204,0.017-0.396,0.017-0.575v-1.684c-0.111,0.307-0.242,0.607-0.396,0.907c-0.153,0.3-0.322,0.582-0.506,0.85
		c-0.142-0.137-0.297-0.234-0.467-0.292c0.281-0.292,0.541-0.646,0.78-1.067c0.237-0.421,0.435-0.864,0.589-1.33V34.766z
		 M10.836,34.038c-0.048-0.186-0.116-0.377-0.199-0.572c-0.086-0.197-0.197-0.407-0.332-0.631l0.362-0.204
		c0.127,0.218,0.234,0.425,0.322,0.62c0.088,0.194,0.168,0.398,0.24,0.611L10.836,34.038z M13.133,32.887
		c0.054,0.019,0.079,0.045,0.079,0.076c0,0.03-0.03,0.06-0.095,0.083c-0.054,0.02-0.132,0.11-0.237,0.271
		c-0.104,0.16-0.241,0.409-0.41,0.75c-0.049-0.042-0.11-0.076-0.184-0.099c-0.072-0.021-0.144-0.037-0.21-0.046
		c0.14-0.205,0.266-0.415,0.375-0.632s0.192-0.437,0.25-0.659C12.862,32.758,13.006,32.843,13.133,32.887z M17.024,35.014
		c-0.082,0.054-0.159,0.116-0.229,0.187c-0.071,0.07-0.129,0.148-0.173,0.236c-0.193-0.185-0.37-0.383-0.53-0.596
		c-0.016,0.111-0.027,0.233-0.036,0.367c-0.011,0.133-0.021,0.292-0.03,0.477l-0.058,1.611c-0.011,0.194-0.033,0.357-0.067,0.488
		c-0.033,0.131-0.098,0.238-0.195,0.32c-0.099,0.082-0.233,0.146-0.407,0.19c-0.176,0.043-0.405,0.076-0.687,0.101
		c-0.01-0.101-0.034-0.197-0.075-0.291c-0.042-0.093-0.111-0.191-0.209-0.299c0.262,0.034,0.474,0.047,0.631,0.043
		c0.157-0.005,0.278-0.029,0.364-0.071c0.084-0.044,0.142-0.108,0.168-0.193c0.025-0.085,0.042-0.194,0.048-0.325l0.064-2.048H14.56
		c-0.005,0.403-0.031,0.761-0.083,1.071c-0.051,0.312-0.136,0.594-0.256,0.849c-0.118,0.255-0.278,0.495-0.48,0.714
		c-0.201,0.222-0.456,0.444-0.761,0.668c-0.039-0.092-0.095-0.175-0.169-0.248c-0.073-0.073-0.167-0.136-0.284-0.189
		c0.297-0.131,0.545-0.275,0.749-0.434c0.2-0.158,0.364-0.348,0.49-0.567c0.127-0.223,0.22-0.482,0.277-0.784
		c0.059-0.302,0.092-0.661,0.103-1.079c-0.181,0-0.318,0.002-0.412,0.008c-0.095,0.005-0.189,0.013-0.281,0.028v-0.254
		c-0.043,0.067-0.089,0.135-0.134,0.199c-0.047,0.066-0.093,0.131-0.143,0.194c-0.107-0.108-0.258-0.192-0.452-0.256
		c0.102-0.108,0.192-0.217,0.271-0.328c0.076-0.111,0.149-0.233,0.218-0.365c0.067-0.13,0.135-0.273,0.197-0.429
		c0.062-0.156,0.131-0.331,0.204-0.525c0.072-0.205,0.133-0.41,0.182-0.615c0.049-0.207,0.077-0.415,0.088-0.624
		c0.112,0.056,0.203,0.09,0.278,0.11c0.072,0.019,0.148,0.034,0.232,0.043c0.067,0.01,0.104,0.029,0.112,0.058
		c0.008,0.03-0.028,0.065-0.104,0.109c-0.016,0.01-0.028,0.023-0.04,0.038c-0.014,0.013-0.027,0.041-0.042,0.08
		c-0.014,0.037-0.033,0.096-0.059,0.166c-0.023,0.074-0.056,0.176-0.095,0.308c-0.111,0.364-0.214,0.679-0.308,0.943
		c-0.096,0.265-0.199,0.51-0.312,0.731c0.059,0.006,0.126,0.011,0.201,0.015c0.074,0.006,0.162,0.009,0.263,0.013
		c0.099,0.002,0.216,0.002,0.351,0.002c0.133,0,0.289,0,0.469,0c0.325,0,0.584-0.002,0.775-0.011
		c0.192-0.007,0.348-0.019,0.464-0.032c-0.161-0.234-0.307-0.535-0.44-0.907c-0.135-0.371-0.263-0.839-0.383-1.403h-0.248
		c-0.079,0-0.206,0.014-0.387,0.044v-0.459c0.112,0.019,0.202,0.03,0.271,0.036c0.067,0.005,0.152,0.007,0.255,0.007
		c0.073,0,0.145-0.002,0.214-0.007c0.071-0.006,0.163-0.018,0.274-0.036c0.059,0.32,0.121,0.622,0.188,0.903
		c0.069,0.282,0.155,0.546,0.26,0.792c0.104,0.245,0.232,0.468,0.381,0.673C16.606,34.665,16.795,34.85,17.024,35.014z"/>
	<path style="fill:#FFFFFF;" d="M18.569,36.785c-0.049,0.243-0.109,0.48-0.184,0.715c-0.071,0.233-0.178,0.481-0.319,0.743
		l-0.481-0.161c0.073-0.106,0.138-0.207,0.198-0.303c0.058-0.095,0.108-0.195,0.155-0.305c0.047-0.11,0.088-0.229,0.124-0.358
		s0.072-0.277,0.105-0.448L18.569,36.785z M17.92,34.14c0.079-0.097,0.165-0.217,0.259-0.36c0.096-0.144,0.193-0.308,0.295-0.489
		c0.103-0.181,0.206-0.382,0.312-0.597c0.104-0.218,0.204-0.446,0.302-0.688c0.16,0.135,0.311,0.218,0.451,0.248
		c0.093,0.018,0.141,0.049,0.143,0.091c0.002,0.04-0.04,0.08-0.128,0.119c-0.067,0.024-0.126,0.065-0.175,0.125
		c-0.049,0.057-0.106,0.144-0.175,0.255c-0.093,0.16-0.175,0.303-0.248,0.426c-0.072,0.123-0.141,0.234-0.203,0.332
		c-0.063,0.098-0.121,0.188-0.176,0.274c-0.054,0.083-0.106,0.165-0.159,0.243l1.02-0.043c0.088-0.118,0.162-0.221,0.222-0.312
		c0.062-0.089,0.114-0.171,0.158-0.243c0.042-0.073,0.08-0.141,0.108-0.201c0.029-0.061,0.053-0.122,0.073-0.186
		c0.067,0.063,0.146,0.12,0.233,0.172c0.087,0.051,0.17,0.089,0.248,0.111c0.062,0.026,0.095,0.055,0.095,0.093
		c0,0.036-0.034,0.062-0.102,0.083c-0.055,0.016-0.105,0.039-0.154,0.072c-0.048,0.036-0.121,0.115-0.218,0.241
		c-0.187,0.229-0.344,0.425-0.478,0.589c-0.135,0.167-0.258,0.316-0.372,0.453s-0.227,0.269-0.336,0.393
		c-0.108,0.129-0.232,0.266-0.368,0.418c0.132-0.011,0.262-0.021,0.391-0.033c0.128-0.013,0.248-0.024,0.36-0.034
		c0.111-0.01,0.213-0.018,0.303-0.025c0.089-0.007,0.161-0.013,0.216-0.018c-0.03-0.073-0.065-0.151-0.106-0.233
		c-0.041-0.083-0.094-0.176-0.157-0.284l0.357-0.22c0.054,0.099,0.108,0.205,0.163,0.32c0.057,0.117,0.109,0.234,0.158,0.348
		s0.091,0.224,0.13,0.328c0.04,0.104,0.069,0.192,0.088,0.266l-0.429,0.154c-0.021-0.069-0.037-0.133-0.052-0.189
		c-0.015-0.061-0.028-0.115-0.044-0.168l-1.305,0.168c-0.16,0.023-0.297,0.045-0.411,0.064s-0.242,0.049-0.383,0.088
		c-0.015-0.166-0.069-0.32-0.161-0.467c0.103-0.005,0.211-0.012,0.329-0.021c0.077-0.073,0.163-0.16,0.258-0.263
		s0.192-0.214,0.295-0.335c0.104-0.121,0.207-0.249,0.312-0.384c0.108-0.134,0.213-0.265,0.315-0.396l-0.671,0.05
		c-0.151,0.01-0.273,0.025-0.368,0.044c-0.096,0.02-0.205,0.054-0.332,0.103c0.005-0.093-0.005-0.175-0.028-0.243
		c-0.026-0.071-0.06-0.146-0.103-0.224L17.92,34.14z M19.115,37.944c-0.024-0.219-0.059-0.425-0.102-0.615
		c-0.045-0.192-0.094-0.382-0.154-0.565l0.344-0.103c0.06,0.166,0.116,0.349,0.175,0.55s0.107,0.42,0.146,0.653L19.115,37.944z
		 M20.033,37.659c-0.027-0.111-0.059-0.213-0.091-0.309c-0.031-0.095-0.063-0.186-0.098-0.271c-0.034-0.084-0.07-0.168-0.113-0.251
		c-0.042-0.083-0.085-0.173-0.135-0.269l0.364-0.125c0.103,0.189,0.192,0.37,0.271,0.543c0.077,0.173,0.152,0.352,0.226,0.535
		L20.033,37.659z M21.58,36.656c-0.069,0.041-0.126,0.1-0.175,0.169c-0.049,0.071-0.103,0.171-0.16,0.303
		c-0.069,0.151-0.143,0.306-0.223,0.467c-0.081,0.16-0.167,0.314-0.26,0.459c-0.062-0.053-0.127-0.092-0.196-0.117
		c-0.069-0.023-0.156-0.041-0.263-0.051c0.106-0.11,0.199-0.22,0.277-0.324s0.148-0.216,0.215-0.336
		c0.066-0.118,0.128-0.252,0.187-0.402c0.058-0.151,0.123-0.33,0.196-0.533c0.067,0.058,0.131,0.102,0.189,0.131
		c0.059,0.028,0.126,0.048,0.204,0.059c0.067,0.01,0.104,0.029,0.108,0.061C21.687,36.573,21.652,36.61,21.58,36.656z
		 M20.771,34.066c0.171-0.189,0.369-0.466,0.598-0.831c0.229-0.364,0.46-0.777,0.692-1.238c0.16,0.111,0.326,0.183,0.496,0.211
		c0.072,0.015,0.105,0.043,0.101,0.08c-0.004,0.038-0.035,0.07-0.094,0.095c-0.044,0.015-0.081,0.03-0.112,0.048
		c-0.032,0.016-0.062,0.037-0.088,0.059c-0.027,0.021-0.055,0.051-0.084,0.086c-0.028,0.037-0.062,0.082-0.096,0.136
		c-0.149,0.233-0.298,0.455-0.443,0.663c-0.146,0.209-0.309,0.438-0.488,0.686h1.138c0.111-0.131,0.208-0.248,0.29-0.351
		c0.083-0.101,0.153-0.194,0.212-0.28c0.058-0.086,0.105-0.164,0.143-0.24c0.035-0.074,0.066-0.152,0.091-0.23
		c0.175,0.127,0.341,0.215,0.495,0.263c0.072,0.024,0.111,0.056,0.113,0.091c0.004,0.037-0.027,0.062-0.09,0.077
		c-0.049,0.01-0.101,0.033-0.154,0.069s-0.119,0.097-0.196,0.179c-0.143,0.16-0.29,0.325-0.445,0.495s-0.31,0.34-0.466,0.506
		c-0.156,0.168-0.31,0.328-0.459,0.483c-0.15,0.152-0.293,0.294-0.424,0.425c0.185-0.005,0.367-0.01,0.547-0.018
		c0.18-0.007,0.347-0.015,0.503-0.021c0.155-0.008,0.294-0.016,0.411-0.023c0.119-0.007,0.214-0.014,0.281-0.024
		c-0.067-0.136-0.14-0.27-0.215-0.398c-0.076-0.128-0.151-0.249-0.229-0.36l0.32-0.24c0.186,0.287,0.356,0.577,0.514,0.872
		c0.158,0.294,0.274,0.543,0.347,0.745l-0.408,0.213c-0.044-0.156-0.1-0.318-0.167-0.488l-0.956,0.045v1.915
		c0,0.126,0.002,0.258,0.008,0.394c0.005,0.137,0.015,0.279,0.029,0.431h-0.495c0.015-0.17,0.023-0.321,0.028-0.452
		c0.005-0.132,0.007-0.26,0.007-0.387v-1.881c-0.276,0.016-0.514,0.038-0.711,0.065c-0.195,0.03-0.364,0.064-0.506,0.104
		c-0.005-0.083-0.021-0.162-0.044-0.237s-0.061-0.154-0.108-0.236h0.306c0.131-0.113,0.296-0.27,0.496-0.475
		c0.198-0.203,0.407-0.43,0.627-0.677l-0.788,0.027c-0.097,0.006-0.202,0.017-0.317,0.034c-0.113,0.018-0.211,0.037-0.295,0.062
		c-0.005-0.093-0.019-0.173-0.041-0.243c-0.021-0.071-0.056-0.146-0.104-0.224H20.771z M23.678,37.967
		c-0.097-0.268-0.216-0.513-0.356-0.732c-0.141-0.223-0.321-0.464-0.539-0.727l0.306-0.232c0.184,0.223,0.356,0.446,0.515,0.667
		c0.156,0.221,0.329,0.479,0.514,0.776L23.678,37.967z"/>
	<path style="fill:#FFFFFF;" d="M29.786,35.947v0.568c0.429,0,0.767-0.008,1.018-0.022c0.25-0.014,0.432-0.034,0.543-0.058v0.444
		c-0.117-0.015-0.303-0.025-0.558-0.037c-0.256-0.009-0.59-0.014-1.003-0.014v1.006c0,0.156-0.013,0.28-0.04,0.375
		c-0.026,0.095-0.09,0.17-0.189,0.227c-0.1,0.055-0.245,0.098-0.438,0.123c-0.191,0.027-0.45,0.045-0.776,0.055
		c0.005-0.098-0.007-0.188-0.036-0.273c-0.028-0.084-0.085-0.176-0.168-0.271c0.272,0.043,0.487,0.07,0.646,0.083
		c0.157,0.013,0.278,0.005,0.359-0.022c0.083-0.026,0.136-0.075,0.157-0.146c0.021-0.071,0.033-0.169,0.033-0.295v-0.86h-2.82
		c-0.249,0-0.458,0-0.631,0.003c-0.172,0.003-0.32,0.004-0.441,0.008c-0.121,0.003-0.223,0.008-0.302,0.016
		c-0.081,0.007-0.152,0.012-0.216,0.018v-0.438c0.063,0.014,0.137,0.026,0.223,0.037c0.085,0.01,0.189,0.018,0.313,0.024
		c0.124,0.008,0.27,0.012,0.44,0.014c0.17,0.004,0.374,0.005,0.613,0.005h2.82V35.97l-1.662,0.094
		c-0.33,0.021-0.604,0.036-0.816,0.047c-0.214,0.013-0.397,0.023-0.55,0.034c-0.153,0.009-0.291,0.021-0.411,0.036
		c-0.123,0.014-0.256,0.031-0.402,0.052c-0.005-0.114-0.017-0.197-0.035-0.257c-0.021-0.059-0.062-0.132-0.125-0.225
		c0.078,0.014,0.172,0.023,0.284,0.031c0.111,0.008,0.261,0.013,0.448,0.013c0.187,0,0.426-0.005,0.714-0.013
		c0.289-0.008,0.655-0.021,1.099-0.039v-0.489c-0.303,0-0.559,0-0.771,0c-0.21,0-0.394,0.001-0.55,0.005
		c-0.156,0.001-0.293,0.007-0.412,0.011c-0.118,0.005-0.233,0.009-0.346,0.014c0.01-0.048,0.018-0.106,0.021-0.178
		c0.005-0.069,0.007-0.14,0.007-0.207v-1.159c0-0.074-0.002-0.144-0.007-0.212c-0.004-0.068-0.012-0.126-0.021-0.175
		c0.116,0.005,0.233,0.01,0.349,0.015c0.117,0.005,0.254,0.008,0.413,0.011c0.158,0.002,0.342,0.003,0.551,0.003
		c0.208,0,0.463,0,0.766,0v-0.386c-0.307,0-0.581,0-0.821,0s-0.465,0.002-0.675,0.008c-0.207,0.004-0.409,0.01-0.601,0.016
		c-0.192,0.004-0.39,0.011-0.594,0.02v-0.386c0.19,0.01,0.378,0.018,0.565,0.023c0.186,0.004,0.387,0.009,0.601,0.01
		c0.214,0.003,0.444,0.005,0.693,0.008c0.248,0.002,0.524,0.002,0.831,0.002c0-0.184-0.005-0.327-0.012-0.429
		c-0.008-0.103-0.019-0.188-0.033-0.254c0.103,0.009,0.201,0.016,0.298,0.021c0.099,0.004,0.188,0,0.271-0.008
		c0.058-0.01,0.092,0.006,0.1,0.046c0.006,0.042-0.02,0.073-0.078,0.1c-0.028,0.015-0.052,0.059-0.069,0.134
		c-0.017,0.076-0.032,0.206-0.047,0.39c0.331,0,0.63,0,0.9-0.002c0.269-0.003,0.52-0.005,0.751-0.008
		c0.231-0.001,0.443-0.006,0.639-0.01c0.193-0.006,0.383-0.014,0.567-0.023v0.386c-0.185-0.004-0.374-0.011-0.567-0.017
		c-0.195-0.008-0.407-0.013-0.639-0.016c-0.231-0.002-0.482-0.005-0.751-0.008c-0.271-0.002-0.569-0.003-0.9-0.003v0.386
		c0.306,0,0.569,0,0.787,0c0.219,0,0.41-0.001,0.572-0.003c0.163-0.003,0.306-0.005,0.427-0.008c0.122-0.003,0.24-0.008,0.356-0.018
		c-0.015,0.053-0.022,0.113-0.025,0.178c-0.002,0.066-0.003,0.135-0.003,0.209v1.159c0,0.067,0.002,0.138,0.008,0.207
		c0.004,0.071,0.011,0.13,0.021,0.178c-0.067-0.005-0.133-0.008-0.2-0.01c-0.065-0.003-0.135-0.004-0.208-0.004
		c0.187,0.146,0.354,0.291,0.508,0.435c0.152,0.143,0.282,0.28,0.39,0.41l-0.314,0.255c-0.057-0.077-0.119-0.153-0.183-0.229
		c-0.062-0.076-0.128-0.149-0.196-0.224L29.786,35.947z M27.878,33.673h-1.619v0.502h1.619V33.673z M27.878,34.438h-1.619v0.541
		h1.619V34.438z M27.578,38.091c-0.054-0.074-0.119-0.15-0.196-0.23c-0.078-0.081-0.16-0.158-0.248-0.236
		c-0.087-0.078-0.18-0.154-0.277-0.227c-0.096-0.074-0.191-0.139-0.284-0.196l0.24-0.292c0.171,0.121,0.357,0.266,0.562,0.43
		c0.204,0.165,0.389,0.318,0.554,0.459L27.578,38.091z M28.307,34.175h1.706v-0.502h-1.706V34.175z M28.307,34.979h1.706v-0.541
		h-1.706V34.979z M29.969,35.655c-0.049-0.044-0.097-0.085-0.143-0.124c-0.045-0.039-0.097-0.077-0.148-0.116l0.181-0.146
		l-1.552-0.016v0.475L29.969,35.655z"/>
	<path style="fill:#FFFFFF;" d="M35.137,32.827c-0.347,0-0.646,0.003-0.903,0.008c-0.259,0.005-0.493,0.01-0.705,0.014
		c-0.211,0.005-0.404,0.013-0.578,0.022c-0.176,0.009-0.351,0.021-0.525,0.029v-0.48c0.189,0.013,0.39,0.025,0.602,0.033
		c0.211,0.007,0.439,0.015,0.685,0.021s0.516,0.013,0.81,0.016c0.293,0.002,0.62,0.004,0.98,0.004c0.354,0,0.676-0.002,0.963-0.004
		c0.285-0.003,0.549-0.01,0.789-0.016c0.241-0.006,0.463-0.014,0.668-0.021c0.203-0.008,0.404-0.021,0.598-0.033v0.48
		c-0.189-0.014-0.385-0.025-0.588-0.032c-0.201-0.008-0.418-0.016-0.651-0.022c-0.232-0.007-0.489-0.013-0.769-0.015
		c-0.281-0.002-0.589-0.004-0.93-0.004c-0.029,0.078-0.057,0.146-0.08,0.2c-0.025,0.057-0.049,0.111-0.074,0.164
		c-0.022,0.054-0.051,0.114-0.084,0.179c-0.03,0.066-0.07,0.146-0.118,0.238c0.417,0,0.755,0,1.012,0
		c0.259,0,0.472-0.003,0.643-0.008c0.17-0.005,0.312-0.008,0.427-0.011c0.113-0.002,0.234-0.01,0.367-0.019
		c-0.015,0.053-0.026,0.127-0.037,0.223c-0.009,0.094-0.014,0.191-0.014,0.287v2.56c0,0.096,0.005,0.193,0.014,0.29
		c0.011,0.098,0.022,0.17,0.037,0.219c-0.082-0.004-0.161-0.008-0.237-0.016c-0.075-0.004-0.154-0.008-0.236-0.011
		c-0.083-0.001-0.175-0.005-0.276-0.007c-0.104-0.002-0.221-0.003-0.359-0.003c0.399,0.185,0.758,0.362,1.077,0.532
		c0.318,0.17,0.624,0.348,0.921,0.532l-0.327,0.43c-0.127-0.103-0.25-0.196-0.371-0.285c-0.121-0.087-0.26-0.177-0.413-0.269
		s-0.33-0.189-0.531-0.292c-0.202-0.103-0.446-0.22-0.733-0.356l0.196-0.292h-1.931c0.063,0.054,0.122,0.098,0.179,0.136
		c0.056,0.037,0.117,0.068,0.187,0.097c0.058,0.024,0.083,0.062,0.075,0.111c-0.007,0.047-0.037,0.074-0.091,0.078
		c-0.097,0.007-0.185,0.026-0.265,0.062c-0.082,0.038-0.163,0.093-0.245,0.165c-0.078,0.069-0.164,0.135-0.255,0.201
		c-0.092,0.065-0.2,0.135-0.32,0.206c-0.122,0.074-0.263,0.151-0.423,0.233c-0.161,0.084-0.349,0.176-0.562,0.278
		c-0.033-0.112-0.085-0.202-0.149-0.27c-0.065-0.068-0.163-0.132-0.295-0.191c0.165-0.018,0.348-0.062,0.545-0.133
		c0.199-0.071,0.395-0.158,0.585-0.263c0.188-0.104,0.365-0.218,0.531-0.339c0.166-0.122,0.297-0.242,0.394-0.364
		c-0.127,0-0.236,0-0.335,0c-0.098,0-0.187,0.001-0.267,0.002c-0.08,0.003-0.155,0.007-0.229,0.011
		c-0.072,0.008-0.148,0.012-0.226,0.016c0.015-0.043,0.026-0.116,0.036-0.215c0.01-0.1,0.016-0.198,0.016-0.294v-2.56
		c0-0.096-0.006-0.193-0.016-0.287c-0.01-0.096-0.021-0.17-0.036-0.223c0.097,0.004,0.19,0.009,0.277,0.014
		c0.087,0.006,0.183,0.01,0.288,0.012c0.104,0.004,0.226,0.004,0.363,0.008c0.14,0.002,0.307,0.004,0.5,0.004
		c0.103-0.142,0.19-0.279,0.263-0.41C35.05,33.068,35.103,32.944,35.137,32.827z M37.17,33.973h-3.383v0.736h3.383V33.973z
		 M37.17,35.043h-3.383v0.692h3.383V35.043z M37.17,36.071h-3.383v0.692h3.383V36.071z"/>
</g>
</svg>
