<svg xmlns="http://www.w3.org/2000/svg" xmlns:xlink="http://www.w3.org/1999/xlink" viewBox="0 0 100 125" version="1.1" x="0px" y="0px" ><g stroke="none" stroke-width="1" fill="none" fill-rule="evenodd"><g fill="#000000"><path d="M50,93 C73.7482442,93 93,73.7482442 93,50 C93,26.2517558 73.7482442,7 50,7 C26.2517558,7 7,26.2517558 7,50 C7,73.7482442 26.2517558,93 50,93 L50,93 Z M50,87 C29.5654643,87 13,70.4345357 13,50 C13,29.5654643 29.5654643,13 50,13 C70.4345357,13 87,29.5654643 87,50 C87,70.4345357 70.4345357,87 50,87 L50,87 Z"/><path d="M36,38 C36,36.3431458 37.3423094,35 39.0065012,35 L72.9934988,35 C74.6539436,35 76,36.3465171 76,38 C76,39.6568542 74.6576906,41 72.9934988,41 L39.0065012,41 C37.3460564,41 36,39.6534829 36,38 Z M24,38 C24,36.3431458 25.3390201,35 27.0016655,35 L28.9983345,35 C30.6561086,35 32,36.3465171 32,38 C32,39.6568542 30.6609799,41 28.9983345,41 L27.0016655,41 C25.3438914,41 24,39.6534829 24,38 Z M36,50 C36,48.3431458 37.3423094,47 39.0065012,47 L72.9934988,47 C74.6539436,47 76,48.3465171 76,50 C76,51.6568542 74.6576906,53 72.9934988,53 L39.0065012,53 C37.3460564,53 36,51.6534829 36,50 Z M24,50 C24,48.3431458 25.3390201,47 27.0016655,47 L28.9983345,47 C30.6561086,47 32,48.3465171 32,50 C32,51.6568542 30.6609799,53 28.9983345,53 L27.0016655,53 C25.3438914,53 24,51.6534829 24,50 Z M36,62 C36,60.3431458 37.3423094,59 39.0065012,59 L72.9934988,59 C74.6539436,59 76,60.3465171 76,62 C76,63.6568542 74.6576906,65 72.9934988,65 L39.0065012,65 C37.3460564,65 36,63.6534829 36,62 Z M24,62 C24,60.3431458 25.3390201,59 27.0016655,59 L28.9983345,59 C30.6561086,59 32,60.3465171 32,62 C32,63.6568542 30.6609799,65 28.9983345,65 L27.0016655,65 C25.3438914,65 24,63.6534829 24,62 Z"/></g></g></svg>