<?xml version="1.0" encoding="utf-8"?>
<!-- Generator: Adobe Illustrator 16.0.0, SVG Export Plug-In . SVG Version: 6.00 Build 0)  -->
<!DOCTYPE svg PUBLIC "-//W3C//DTD SVG 1.1//EN" "http://www.w3.org/Graphics/SVG/1.1/DTD/svg11.dtd">
<svg version="1.1" id="圖層_1" xmlns="http://www.w3.org/2000/svg" xmlns:xlink="http://www.w3.org/1999/xlink" x="0px" y="0px"
	 width="41.333px" height="43.393px" viewBox="0 0 41.333 43.393" style="enable-background:new 0 0 41.333 43.393;"
	 xml:space="preserve">
<g>
	<path style="fill-rule:evenodd;clip-rule:evenodd;fill:#FFFFFF;" d="M19.231,0.19c0.239,0.058,0.48,0.102,0.715,0.175
		c1.733,0.534,2.845,2.229,2.658,4.045c-0.185,1.774-1.328,3.077-3.026,3.445c-2.558,0.555-4.882-1.528-4.653-4.125
		c0.168-1.927,1.67-3.327,3.282-3.5c0.019-0.003,0.034-0.026,0.051-0.04C18.581,0.19,18.906,0.19,19.231,0.19z"/>
	<path style="fill-rule:evenodd;clip-rule:evenodd;fill:#FFFFFF;" d="M18.986,29.38c-2.399,0-4.799-0.003-7.198,0.006
		c-0.206,0.001-0.248-0.053-0.246-0.251c0.01-1.055,0.01-2.108,0-3.162c-0.002-0.195,0.033-0.26,0.244-0.256
		c0.762,0.013,1.524-0.005,2.287,0c0.177,0.001,0.246-0.028,0.245-0.233c-0.01-3.933-0.013-7.863-0.011-11.795
		c0-0.199-0.063-0.244-0.244-0.244c-0.77,0.004-1.54-0.007-2.311,0c-0.171,0.002-0.213-0.045-0.211-0.214
		c0.008-1.036,0.008-2.075,0-3.112c-0.002-0.172,0.053-0.212,0.212-0.223c1.196-0.085,2.393-0.176,3.587-0.268
		c1.641-0.122,3.281-0.246,4.921-0.369c1.091-0.083,2.182-0.164,3.272-0.249c0.092-0.007,0.139,0.007,0.131,0.11
		c-0.004,0.064,0,0.129,0,0.194c0.003,5.364,0.007,10.732,0.003,16.099c-0.001,0.229,0.044,0.302,0.286,0.299
		c0.745-0.013,1.491,0.01,2.236,0.006c0.18-0.001,0.245,0.031,0.244,0.231c-0.013,1.071-0.012,2.142-0.001,3.211
		c0.002,0.183-0.042,0.226-0.225,0.224C23.802,29.377,21.394,29.38,18.986,29.38z"/>
</g>
<g>
	<path style="fill:#FFFFFF;" d="M7.955,35.399c-0.032-0.061-0.065-0.115-0.098-0.162c-0.033-0.047-0.073-0.098-0.12-0.153
		l0.239-0.134c0.061,0.085,0.112,0.156,0.154,0.214c0.042,0.06,0.08,0.116,0.116,0.169c0.034,0.054,0.066,0.105,0.098,0.158
		c0.03,0.051,0.066,0.111,0.109,0.182l-0.309,0.12c-0.01-0.028-0.022-0.055-0.037-0.077c-0.013-0.024-0.024-0.047-0.033-0.071
		l-1.137,0.091c-0.178,0.016-0.34,0.045-0.484,0.092c-0.01-0.051-0.025-0.115-0.049-0.195s-0.047-0.141-0.07-0.183
		c0.066,0.009,0.13,0.017,0.193,0.024c0.062,0.006,0.123,0.01,0.179,0.01c0.088-0.07,0.181-0.152,0.277-0.249
		c0.096-0.095,0.192-0.197,0.29-0.304l-0.434,0.02c-0.179,0.005-0.305,0.029-0.38,0.071c-0.009-0.066-0.022-0.128-0.038-0.186
		c-0.017-0.059-0.043-0.124-0.081-0.193c0.038,0.005,0.077,0.007,0.119,0.007c0.041,0,0.087,0.002,0.134,0.008
		c0.146-0.156,0.258-0.299,0.339-0.432c0.083-0.134,0.157-0.264,0.223-0.39H5.983v3.029c0,0.121,0.003,0.237,0.005,0.344
		c0.001,0.108,0.006,0.215,0.01,0.319c0.006,0.105,0.012,0.21,0.017,0.318c0.008,0.108,0.016,0.221,0.026,0.338H5.508
		c0.014-0.121,0.024-0.23,0.031-0.326s0.011-0.192,0.015-0.288c0.002-0.096,0.004-0.199,0.006-0.31
		c0.003-0.108,0.004-0.241,0.004-0.396V32.81c0-0.115-0.001-0.226-0.004-0.332c-0.002-0.104-0.005-0.201-0.01-0.29
		c0.107,0.01,0.212,0.017,0.312,0.021c0.101,0.005,0.214,0.008,0.341,0.008h1.186c0.135,0,0.256-0.003,0.36-0.008
		c0.104-0.004,0.197-0.011,0.277-0.021c-0.01,0.089-0.016,0.185-0.021,0.286c-0.003,0.104-0.007,0.217-0.007,0.336v0.443
		c0,0.122,0.004,0.231,0.007,0.329c0.006,0.101,0.012,0.189,0.021,0.274c-0.108-0.01-0.216-0.016-0.326-0.019
		c-0.11-0.001-0.247-0.002-0.41-0.002c0.042,0.032,0.079,0.058,0.112,0.075c0.032,0.021,0.074,0.041,0.125,0.064
		c0.053,0.023,0.075,0.047,0.07,0.07c-0.004,0.023-0.032,0.044-0.083,0.062c-0.033,0.015-0.063,0.03-0.093,0.046
		c-0.026,0.018-0.062,0.043-0.104,0.081c-0.042,0.037-0.096,0.09-0.16,0.158c-0.065,0.067-0.152,0.158-0.26,0.276
		c0.225,0.009,0.423,0.009,0.596,0c0.079-0.093,0.151-0.187,0.214-0.276c0.063-0.093,0.115-0.172,0.158-0.243
		c0.061,0.053,0.117,0.096,0.171,0.134c0.055,0.038,0.114,0.07,0.181,0.098c0.037,0.02,0.055,0.041,0.051,0.063
		c-0.002,0.023-0.025,0.04-0.073,0.049C8.176,34.5,8.16,34.505,8.146,34.51s-0.033,0.016-0.057,0.034
		c-0.023,0.02-0.052,0.044-0.085,0.072c-0.032,0.031-0.076,0.073-0.132,0.125c-0.142,0.135-0.271,0.261-0.387,0.374
		c-0.117,0.116-0.235,0.23-0.357,0.347L7.955,35.399z M7.618,32.532H5.983v0.362h1.635V32.532z M7.618,33.177H5.983v0.356h1.635
		V33.177z M8.16,35.996c-0.048,0.033-0.071,0.099-0.071,0.196c0.004,0.146,0.004,0.269,0,0.375
		c-0.005,0.105-0.014,0.196-0.028,0.272c-0.015,0.077-0.034,0.146-0.06,0.204c-0.025,0.06-0.057,0.113-0.095,0.165
		c-0.047,0.071-0.104,0.136-0.169,0.196c-0.064,0.061-0.145,0.122-0.24,0.182C7.4,37.648,7.286,37.713,7.159,37.78
		C7.03,37.849,6.878,37.924,6.7,38.009c-0.038-0.089-0.075-0.16-0.113-0.215c-0.037-0.053-0.089-0.106-0.153-0.158
		c0.369-0.078,0.671-0.181,0.905-0.307c0.232-0.127,0.356-0.27,0.37-0.43H7.121c-0.07,0-0.141,0.002-0.21,0.005
		c-0.07,0.002-0.16,0.009-0.268,0.018c0.009-0.057,0.017-0.104,0.021-0.147c0.004-0.042,0.006-0.088,0.006-0.141v-0.314
		c0-0.113-0.002-0.196-0.006-0.247c-0.005-0.052-0.013-0.114-0.021-0.189c0.065,0.021,0.133,0.032,0.203,0.039
		c0.07,0.008,0.137,0.008,0.197,0.003c0.047-0.004,0.076,0.002,0.087,0.021c0.013,0.019-0.006,0.045-0.052,0.076
		c-0.047,0.034-0.07,0.08-0.07,0.141v0.449H7.73c0-0.047,0-0.102,0-0.171c0-0.067,0-0.137,0-0.207c0-0.071,0-0.14,0-0.212
		c0-0.068,0-0.132,0-0.188c0.075,0.019,0.138,0.032,0.189,0.039s0.11,0.008,0.176,0.003c0.052-0.004,0.087,0.007,0.105,0.032
		C8.22,35.935,8.206,35.963,8.16,35.996z M9.526,34.628c0.061-0.079,0.114-0.156,0.161-0.229c0.047-0.071,0.084-0.136,0.112-0.19
		c0.057,0.046,0.109,0.085,0.158,0.118c0.049,0.034,0.105,0.062,0.172,0.085c0.052,0.023,0.078,0.053,0.08,0.088
		c0.002,0.033-0.023,0.057-0.074,0.066c-0.064,0.009-0.123,0.031-0.175,0.066s-0.116,0.094-0.195,0.179
		c-0.07,0.08-0.155,0.165-0.253,0.253s-0.225,0.194-0.379,0.314l0.764-0.043c-0.027-0.035-0.056-0.07-0.084-0.104
		c-0.027-0.034-0.061-0.067-0.099-0.105l0.261-0.14c0.06,0.074,0.111,0.138,0.151,0.188c0.039,0.052,0.076,0.102,0.111,0.152
		c0.035,0.049,0.069,0.096,0.104,0.146c0.035,0.049,0.074,0.107,0.116,0.179l-0.302,0.155c-0.019-0.039-0.035-0.074-0.053-0.106
		c-0.016-0.032-0.031-0.065-0.045-0.099l-1.037,0.078c-0.076,0.009-0.155,0.021-0.239,0.035c-0.085,0.014-0.159,0.032-0.226,0.056
		c-0.013-0.14-0.053-0.276-0.118-0.407c0.104,0.014,0.21,0.022,0.322,0.022c0.098-0.075,0.193-0.155,0.288-0.243
		c0.094-0.086,0.182-0.178,0.266-0.271l-0.413,0.023c-0.188,0.004-0.318,0.026-0.394,0.069c-0.009-0.065-0.023-0.126-0.042-0.181
		c-0.018-0.059-0.049-0.118-0.091-0.184c0.042,0.005,0.083,0.008,0.122,0.01c0.04,0.002,0.081,0.004,0.124,0.004
		c0.089-0.084,0.174-0.191,0.259-0.32c0.085-0.127,0.166-0.273,0.246-0.438c-0.094,0.004-0.184,0.011-0.271,0.019
		c-0.086,0.007-0.177,0.017-0.271,0.031c0.01-0.079,0.017-0.173,0.021-0.282c0.004-0.106,0.007-0.237,0.007-0.393v-0.385
		c0-0.132-0.003-0.246-0.007-0.344c-0.005-0.098-0.012-0.191-0.021-0.281c0.094,0.01,0.193,0.016,0.298,0.019
		c0.105,0.003,0.213,0.004,0.319,0.004h1.271c0.22,0,0.432-0.008,0.637-0.022c-0.009,0.08-0.014,0.17-0.014,0.271s0,0.218,0,0.354
		v4.496c0,0.178-0.011,0.318-0.034,0.425c-0.023,0.104-0.075,0.186-0.155,0.241s-0.199,0.092-0.361,0.105
		c-0.161,0.014-0.377,0.018-0.648,0.014c0-0.047-0.002-0.088-0.01-0.123c-0.007-0.035-0.018-0.072-0.031-0.113
		c-0.015-0.04-0.033-0.078-0.057-0.121c-0.023-0.042-0.056-0.095-0.098-0.154c0.233,0.037,0.416,0.062,0.547,0.078
		c0.13,0.013,0.229,0.009,0.295-0.016c0.065-0.022,0.104-0.067,0.119-0.129c0.014-0.064,0.02-0.152,0.02-0.263v-3.431H9.315
		C9.349,33.88,9.379,33.9,9.41,33.921c0.03,0.018,0.071,0.038,0.122,0.062c0.038,0.02,0.056,0.039,0.054,0.06
		c-0.003,0.021-0.035,0.044-0.103,0.066c-0.026,0.01-0.056,0.023-0.083,0.039c-0.028,0.017-0.063,0.043-0.103,0.08
		c-0.039,0.039-0.09,0.089-0.15,0.151c-0.06,0.062-0.14,0.146-0.238,0.249C9.139,34.637,9.344,34.637,9.526,34.628z M10.073,36.557
		c0,0.056,0.005,0.117,0.012,0.183c0.006,0.065,0.014,0.126,0.022,0.183c-0.106-0.009-0.196-0.016-0.269-0.018
		c-0.073-0.003-0.144-0.005-0.215-0.005H9v0.548c0,0.08,0.003,0.17,0.011,0.271s0.015,0.194,0.025,0.284h-0.45
		c0.019-0.093,0.032-0.184,0.039-0.269c0.008-0.083,0.011-0.179,0.011-0.286v-0.981c0-0.08-0.002-0.146-0.003-0.203
		c-0.003-0.057-0.007-0.106-0.011-0.15c-0.006-0.045-0.012-0.086-0.018-0.123c-0.008-0.037-0.016-0.08-0.025-0.127
		c0.057,0.01,0.103,0.016,0.137,0.018c0.036,0.003,0.069,0.005,0.102,0.008c0.033,0.002,0.064,0.002,0.096,0
		c0.03-0.003,0.068-0.005,0.114-0.005c0.062-0.005,0.094,0.007,0.1,0.028c0.004,0.025-0.02,0.054-0.07,0.092
		c-0.015,0.009-0.024,0.023-0.031,0.042s-0.013,0.05-0.015,0.092s-0.006,0.101-0.008,0.178C9.001,36.393,9,36.491,9,36.612h0.729
		c0-0.411-0.019-0.654-0.057-0.729c0.104,0.016,0.18,0.023,0.231,0.025c0.051,0.003,0.104,0.001,0.155-0.003
		c0.052-0.005,0.08,0.006,0.087,0.031c0.007,0.026-0.002,0.049-0.024,0.066c-0.019,0.014-0.031,0.033-0.037,0.061
		c-0.007,0.025-0.012,0.07-0.012,0.135V36.557z M10.683,32.552H8.994v0.365h1.688V32.552z M10.683,33.204H8.994v0.352h1.688V33.204z
		"/>
	<path style="fill:#FFFFFF;" d="M13.097,33.505c-0.352,0.011-0.645,0.023-0.884,0.043v-0.421c0.178,0.02,0.394,0.034,0.648,0.046
		c0.255,0.011,0.538,0.018,0.853,0.018c0.14,0,0.283-0.002,0.432-0.004c0.146-0.003,0.289-0.007,0.428-0.014
		c0.137-0.007,0.268-0.014,0.389-0.022c0.122-0.007,0.227-0.015,0.315-0.023v0.421c-0.098-0.009-0.217-0.017-0.354-0.024
		c-0.138-0.007-0.285-0.011-0.441-0.015c-0.157-0.002-0.319-0.004-0.485-0.007C13.831,33.5,13.669,33.5,13.51,33.5
		c0.005,0.176,0.007,0.349,0.007,0.519c0,0.166-0.002,0.342-0.007,0.525c0.342,0,0.639-0.004,0.892-0.012
		c0.252-0.007,0.433-0.021,0.54-0.045l-0.203,2.666c-0.009,0.084-0.028,0.159-0.054,0.225c-0.025,0.064-0.078,0.125-0.158,0.178
		c-0.079,0.054-0.193,0.098-0.344,0.134c-0.148,0.036-0.353,0.062-0.609,0.081c-0.009-0.104-0.031-0.194-0.066-0.277
		c-0.035-0.082-0.093-0.164-0.172-0.249c0.211,0.023,0.38,0.036,0.509,0.036c0.128,0,0.228-0.018,0.302-0.049
		c0.072-0.033,0.121-0.085,0.146-0.156c0.025-0.068,0.043-0.161,0.053-0.273l0.133-1.956h-0.982
		c-0.014,0.336-0.044,0.646-0.09,0.929c-0.048,0.284-0.11,0.55-0.19,0.801c-0.079,0.249-0.176,0.486-0.29,0.715
		c-0.115,0.226-0.246,0.447-0.396,0.663c-0.065-0.047-0.141-0.082-0.226-0.106c-0.083-0.022-0.193-0.039-0.329-0.048
		c0.187-0.207,0.343-0.411,0.467-0.614c0.124-0.204,0.228-0.41,0.309-0.617c0.082-0.209,0.146-0.422,0.193-0.643
		c0.046-0.219,0.084-0.445,0.112-0.68c0.018-0.154,0.032-0.369,0.042-0.645C13.106,34.323,13.106,33.959,13.097,33.505z
		 M13.924,32.959c-0.122-0.178-0.251-0.34-0.386-0.488c-0.137-0.146-0.307-0.312-0.512-0.495l0.301-0.266
		c0.393,0.318,0.721,0.637,0.982,0.953L13.924,32.959z M16.659,32.987c-0.084,0.159-0.169,0.303-0.252,0.43
		c-0.084,0.13-0.177,0.256-0.273,0.38c-0.099,0.125-0.209,0.251-0.33,0.383c-0.122,0.13-0.265,0.278-0.429,0.441
		c-0.056-0.089-0.122-0.155-0.2-0.2c-0.076-0.045-0.173-0.075-0.29-0.095c0.117-0.057,0.225-0.116,0.326-0.183
		c0.1-0.065,0.195-0.14,0.284-0.223c0.088-0.085,0.175-0.179,0.259-0.282s0.169-0.222,0.253-0.356
		c0.127-0.197,0.235-0.4,0.326-0.612c0.092-0.209,0.144-0.411,0.157-0.609c0.08,0.052,0.163,0.092,0.25,0.12
		c0.086,0.027,0.172,0.041,0.255,0.041c0.085,0,0.134,0.029,0.145,0.084c0.012,0.058-0.022,0.1-0.103,0.126
		c-0.08,0.029-0.155,0.116-0.231,0.261c0.076,0.098,0.164,0.205,0.268,0.319c0.103,0.114,0.24,0.265,0.414,0.452
		c0.135,0.149,0.311,0.299,0.525,0.445s0.436,0.283,0.66,0.409c-0.118,0.038-0.206,0.089-0.268,0.151
		c-0.061,0.062-0.113,0.146-0.154,0.25c-0.083-0.07-0.161-0.137-0.234-0.196c-0.071-0.062-0.146-0.127-0.222-0.197
		c-0.074-0.069-0.154-0.149-0.238-0.237c-0.084-0.09-0.183-0.197-0.294-0.324c-0.113-0.126-0.219-0.252-0.32-0.382
		C16.843,33.255,16.748,33.123,16.659,32.987z M17.536,38.036c-0.112-0.102-0.247-0.213-0.403-0.333
		c-0.156-0.118-0.322-0.238-0.495-0.357c-0.172-0.119-0.346-0.232-0.518-0.337c-0.175-0.104-0.333-0.196-0.478-0.276l0.251-0.364
		c0.188,0.106,0.363,0.21,0.527,0.308c0.164,0.099,0.323,0.199,0.477,0.305c0.154,0.106,0.309,0.216,0.463,0.331
		c0.154,0.113,0.32,0.241,0.498,0.383L17.536,38.036z M17.276,35.974c-0.187-0.172-0.387-0.35-0.6-0.536
		c-0.212-0.185-0.438-0.36-0.676-0.528l0.244-0.33c0.127,0.094,0.247,0.184,0.361,0.271s0.226,0.172,0.333,0.259
		c0.108,0.087,0.216,0.174,0.323,0.264c0.106,0.089,0.22,0.185,0.337,0.288L17.276,35.974z"/>
	<path style="fill:#FFFFFF;" d="M20.854,32.819c-0.141,0.027-0.291,0.056-0.45,0.083c-0.157,0.029-0.348,0.062-0.566,0.099
		c-0.01-0.069-0.039-0.15-0.088-0.242c-0.051-0.091-0.108-0.171-0.18-0.242c0.36,0.024,0.746,0.003,1.158-0.059
		c0.41-0.064,0.851-0.178,1.318-0.341c0.051,0.074,0.094,0.136,0.129,0.184c0.035,0.046,0.079,0.096,0.13,0.146
		c0.053,0.052,0.069,0.092,0.053,0.118c-0.017,0.029-0.069,0.038-0.158,0.029c-0.051-0.005-0.147,0.003-0.291,0.024
		c-0.142,0.021-0.354,0.058-0.635,0.108v1.129h1.516c-0.01-0.328-0.019-0.602-0.028-0.824c-0.009-0.223-0.018-0.406-0.027-0.559
		c-0.01-0.148-0.02-0.267-0.029-0.356c-0.009-0.089-0.018-0.166-0.027-0.231c0.07,0.023,0.147,0.039,0.231,0.048
		c0.084,0.011,0.172,0.011,0.267,0c0.079-0.009,0.124,0.002,0.134,0.033c0.009,0.029-0.017,0.073-0.077,0.129
		c-0.02,0.015-0.035,0.053-0.047,0.112c-0.011,0.062-0.02,0.158-0.024,0.292c-0.004,0.134-0.004,0.31,0,0.529
		c0.005,0.22,0.015,0.495,0.029,0.827c0.519,0,0.95-0.006,1.294-0.019c0.343-0.01,0.634-0.028,0.872-0.051v0.44
		c-0.141-0.009-0.279-0.017-0.417-0.023c-0.139-0.008-0.288-0.012-0.452-0.015c-0.163-0.002-0.348-0.005-0.555-0.007
		c-0.205-0.002-0.448-0.003-0.729-0.003c0.014,0.194,0.028,0.368,0.042,0.515c0.015,0.147,0.032,0.285,0.056,0.41
		c0.024,0.127,0.051,0.251,0.085,0.372c0.033,0.121,0.072,0.255,0.118,0.399c0.032,0.109,0.07,0.214,0.112,0.316
		c0.099-0.123,0.191-0.256,0.282-0.407c0.088-0.149,0.169-0.303,0.244-0.463c0.076-0.158,0.138-0.319,0.189-0.48
		c0.051-0.16,0.09-0.312,0.112-0.452c0.08,0.038,0.154,0.066,0.225,0.084c0.069,0.019,0.145,0.033,0.224,0.042
		c0.047,0.01,0.074,0.023,0.081,0.042c0.007,0.02-0.009,0.04-0.047,0.063c-0.013,0.009-0.027,0.024-0.044,0.046
		s-0.039,0.061-0.067,0.119c-0.027,0.059-0.066,0.14-0.115,0.246c-0.049,0.105-0.113,0.248-0.192,0.43
		c-0.085,0.193-0.187,0.379-0.309,0.558c-0.122,0.181-0.258,0.36-0.407,0.537c0.111,0.211,0.231,0.386,0.357,0.525
		c0.127,0.142,0.244,0.254,0.351,0.337c0.08,0.062,0.145,0.102,0.196,0.124s0.098,0.013,0.138-0.022s0.073-0.104,0.101-0.207
		c0.029-0.103,0.06-0.249,0.092-0.44c0.056,0.093,0.121,0.161,0.196,0.207c0.075,0.044,0.159,0.073,0.253,0.087
		c-0.065,0.238-0.133,0.425-0.2,0.559c-0.068,0.133-0.141,0.227-0.218,0.279c-0.077,0.054-0.162,0.072-0.255,0.054
		c-0.094-0.02-0.201-0.064-0.324-0.135c-0.195-0.11-0.375-0.258-0.535-0.438c-0.162-0.18-0.309-0.383-0.439-0.612
		c-0.224,0.233-0.464,0.454-0.722,0.658c-0.258,0.206-0.516,0.393-0.778,0.562c-0.037-0.088-0.088-0.169-0.151-0.237
		c-0.062-0.071-0.14-0.122-0.229-0.148c0.371-0.159,0.688-0.333,0.953-0.522c0.268-0.189,0.519-0.41,0.751-0.663
		c-0.103-0.216-0.184-0.435-0.244-0.659c-0.065-0.214-0.123-0.452-0.168-0.711c-0.048-0.26-0.083-0.585-0.106-0.972h-1.536v1.17
		c0.212-0.088,0.406-0.177,0.587-0.263c0.18-0.085,0.337-0.169,0.473-0.248c0.015,0.145,0.047,0.287,0.098,0.428
		c-0.153,0.056-0.329,0.123-0.525,0.203c-0.196,0.079-0.407,0.168-0.632,0.266v1.734c0,0.083-0.012,0.157-0.039,0.22
		c-0.025,0.062-0.084,0.119-0.174,0.169c-0.092,0.049-0.224,0.087-0.396,0.118s-0.407,0.054-0.701,0.066
		c0.014-0.106,0.007-0.198-0.021-0.272c-0.027-0.075-0.082-0.159-0.162-0.252c0.216,0.036,0.394,0.058,0.533,0.06
		c0.142,0.001,0.25-0.011,0.33-0.039c0.079-0.028,0.135-0.069,0.164-0.123c0.031-0.054,0.047-0.118,0.047-0.192v-1.305
		c-0.263,0.107-0.516,0.219-0.761,0.333s-0.467,0.218-0.662,0.312c-0.033-0.107-0.068-0.197-0.103-0.271
		c-0.034-0.072-0.079-0.144-0.13-0.212c0.252-0.066,0.521-0.146,0.808-0.247c0.283-0.099,0.567-0.202,0.848-0.315V34.18
		c-0.191,0-0.362,0.001-0.512,0.003c-0.15,0.002-0.286,0.005-0.411,0.007c-0.124,0.003-0.239,0.007-0.347,0.015
		c-0.108,0.007-0.217,0.015-0.33,0.023v-0.44c0.201,0.013,0.427,0.025,0.674,0.035c0.247,0.009,0.556,0.019,0.926,0.026V32.819z
		 M24.557,33.478c-0.051-0.083-0.12-0.175-0.205-0.273c-0.082-0.098-0.176-0.195-0.275-0.291c-0.102-0.096-0.201-0.184-0.305-0.267
		c-0.104-0.081-0.199-0.147-0.288-0.199l0.28-0.288c0.074,0.051,0.163,0.119,0.267,0.207c0.104,0.087,0.207,0.177,0.312,0.273
		c0.104,0.096,0.205,0.191,0.302,0.287c0.096,0.097,0.174,0.18,0.234,0.25L24.557,33.478z"/>
	<path style="fill:#FFFFFF;" d="M27.277,33.813c-0.214,0.375-0.431,0.697-0.645,0.971c-0.047-0.076-0.101-0.141-0.161-0.196
		c-0.061-0.052-0.141-0.094-0.239-0.12c0.085-0.071,0.165-0.146,0.242-0.229c0.077-0.082,0.154-0.176,0.231-0.283
		c0.078-0.108,0.159-0.232,0.244-0.373c0.088-0.14,0.18-0.306,0.278-0.497c0.079-0.149,0.147-0.286,0.204-0.41
		c0.057-0.123,0.104-0.238,0.146-0.348c0.042-0.107,0.076-0.209,0.102-0.305s0.045-0.19,0.06-0.283
		c0.188,0.093,0.34,0.155,0.456,0.188c0.159,0.047,0.162,0.104,0.007,0.175c-0.041,0.02-0.103,0.097-0.181,0.231
		c-0.08,0.136-0.188,0.358-0.324,0.667v5.205h-0.497c0.023-0.201,0.042-0.432,0.056-0.692c0.015-0.259,0.021-0.515,0.021-0.768
		V33.813z M30.202,35.154c-0.148-0.015-0.301-0.021-0.456-0.021h-0.883v1.698c0,0.251,0.002,0.479,0.007,0.68
		c0.004,0.201,0.014,0.424,0.028,0.666h-0.449c0.01-0.126,0.018-0.242,0.024-0.351c0.007-0.107,0.011-0.215,0.015-0.319
		c0.002-0.105,0.002-0.213,0.002-0.322c0-0.11,0-0.227,0-0.354v-3.963c0-0.118,0-0.229,0-0.336c0-0.109-0.002-0.207-0.007-0.296
		c0.08,0.01,0.156,0.017,0.229,0.022c0.072,0.004,0.155,0.005,0.249,0.005h0.785c0.1,0,0.185-0.001,0.26-0.005
		c0.075-0.006,0.141-0.013,0.196-0.022c-0.009,0.089-0.013,0.186-0.013,0.291c0,0.106,0,0.218,0,0.341v1.655
		c0,0.121,0,0.235,0,0.343C30.189,34.976,30.193,35.071,30.202,35.154z M29.823,32.588h-0.96v0.953h0.96V32.588z M29.823,33.856
		h-0.96v0.947h0.96V33.856z M32.468,32.244c-0.005,0.079-0.007,0.17-0.007,0.272s0,0.223,0,0.358v4.522
		c0,0.142-0.012,0.259-0.034,0.354c-0.023,0.097-0.072,0.172-0.146,0.229c-0.072,0.055-0.176,0.096-0.312,0.122
		c-0.137,0.025-0.315,0.038-0.54,0.038c0.009-0.093,0-0.178-0.028-0.253c-0.027-0.075-0.076-0.155-0.146-0.245
		c0.178,0.028,0.318,0.046,0.424,0.053s0.186-0.001,0.241-0.024c0.057-0.023,0.094-0.062,0.109-0.116
		c0.017-0.053,0.024-0.124,0.024-0.213v-2.217h-0.926c-0.08,0-0.154,0.004-0.224,0.012c-0.07,0.006-0.146,0.021-0.225,0.044
		c0.009-0.08,0.016-0.18,0.017-0.306c0.004-0.123,0.004-0.29,0.004-0.502v-1.499c0-0.132,0-0.247-0.004-0.348
		c-0.001-0.101-0.008-0.195-0.017-0.283c0.064,0.009,0.137,0.015,0.214,0.017c0.076,0.003,0.154,0.003,0.234,0.003h0.834
		c0.079,0,0.165,0,0.256-0.003C32.31,32.259,32.393,32.253,32.468,32.244z M32.054,32.595h-0.988v0.926h0.988V32.595z
		 M32.054,33.836h-0.988v0.961h0.988V33.836z"/>
</g>
</svg>
