<?xml version="1.0" encoding="utf-8"?>
<!-- Generator: Adobe Illustrator 18.0.0, SVG Export Plug-In . SVG Version: 6.00 Build 0)  -->
<!DOCTYPE svg PUBLIC "-//W3C//DTD SVG 1.1//EN" "http://www.w3.org/Graphics/SVG/1.1/DTD/svg11.dtd">
<svg version="1.1" id="圖層_1" xmlns="http://www.w3.org/2000/svg" xmlns:xlink="http://www.w3.org/1999/xlink" x="0px" y="0px"
	 viewBox="0 0 48.7 43.4" style="enable-background:new 0 0 48.7 43.4;" xml:space="preserve">
<path style="fill:#CEEAE1;" d="M10,14.7c0-4.1,0-8.2,0-12.3C10,1,10.9,0,12.4,0c8,0,16,0,23.9,0c1.4,0,2.4,1,2.4,2.4
	c0,8.2,0,16.4,0,24.6c0,1.4-1,2.4-2.4,2.4c-8,0-16,0-24,0c-1.4,0-2.4-1-2.4-2.4C10,22.9,10,18.8,10,14.7z M30.2,28
	c0.1,0,0.2,0,0.2,0c2,0,3.9,0,5.9,0c0.6,0,0.9-0.3,0.9-0.9c0-8.2,0-16.4,0-24.7c0-0.6-0.3-0.9-0.9-0.9c-8,0-16,0-24,0
	c-0.6,0-0.9,0.3-0.9,0.9c0,8.2,0,16.4,0,24.6c0,0.6,0.3,0.9,0.9,0.9c4,0,8,0,12,0c0.1,0,0.2,0,0.3,0c0-3.1,0-6.2,0-9.4
	c-1.2,0-2.4,0-3.5,0c0-1.9,0-3.8,0-5.7c1.2,0,2.4,0,3.5,0c0-0.3,0-0.5,0-0.8c0-1,0-2.1,0.1-3.1c0.4-2.7,2.4-4.7,5.1-4.8
	c1.1-0.1,2.3,0,3.4,0.1c0.4,0,0.8,0.1,1.3,0.1c0,1.7,0,3.4,0,5.2c-0.3,0-0.5,0-0.8,0c-0.8,0-1.7,0-2.5,0c-0.6,0-0.9,0.2-0.9,0.8
	c0,0.8,0,1.6,0,2.5c1.4,0,2.8,0,4.2,0c-0.2,1.9-0.5,3.8-0.7,5.7c-1.2,0-2.3,0-3.5,0C30.2,21.7,30.2,24.8,30.2,28z M28.8,28
	c0-3.6,0-7.2,0-10.9c1.2,0,2.4,0,3.6,0c0.1-0.9,0.2-1.8,0.3-2.7c-1.3,0-2.7,0-4,0c0-0.1,0-0.1,0-0.1c0-1.3,0-2.5,0-3.8
	c0-1.3,0.8-2.1,2-2.3c0.6-0.1,1.3,0,1.9-0.1c0.1,0,0.2,0,0.3,0c0-0.8,0-1.6,0-2.4c-0.2,0-0.3,0-0.5,0c-1,0-2-0.2-3,0
	c-1.5,0.3-2.6,1-3.1,2.5C26.2,8.8,26.1,9.4,26,10c-0.1,1.4,0,2.8,0,4.1c0,0.1,0,0.2,0,0.3c-1.2,0-2.4,0-3.5,0c0,0.9,0,1.8,0,2.7
	c1.2,0,2.3,0,3.5,0c0,3.6,0,7.2,0,10.8C26.9,28,27.8,28,28.8,28z"/>
<g>
	<path style="fill:#FFFFFF;" d="M11.5,34.8c-0.2,0-0.5,0-0.7,0c-0.2,0-0.4,0-0.5,0v-0.5c0.1,0,0.3,0,0.5,0c0.2,0,0.4,0,0.7,0V33
		c0-0.2,0-0.3,0-0.5c0-0.2,0-0.3,0-0.4c0.1,0,0.2,0,0.3,0.1c0.1,0,0.2,0,0.3,0c0.1,0,0.1,0,0.1,0c0,0,0,0.1-0.1,0.1
		c0,0-0.1,0.1-0.1,0.1s0,0.1,0,0.2v1.7c0.2,0,0.4,0,0.6,0c0.2,0,0.3,0,0.4,0v0.5c-0.1,0-0.3,0-0.4,0c-0.2,0-0.4,0-0.6,0v0.3
		c0.2,0.2,0.4,0.4,0.6,0.5c0.2,0.2,0.4,0.4,0.5,0.5l-0.4,0.3c-0.1-0.2-0.2-0.3-0.4-0.5c-0.1-0.2-0.3-0.3-0.4-0.5v1.9
		c0,0.2,0,0.4,0,0.6c0,0.2,0,0.4,0.1,0.6h-0.6c0-0.2,0-0.4,0.1-0.6c0-0.2,0-0.4,0-0.6v-1.7c-0.1,0.3-0.2,0.6-0.4,0.9
		c-0.2,0.3-0.3,0.6-0.5,0.8c-0.1-0.1-0.3-0.2-0.5-0.3c0.3-0.3,0.5-0.6,0.8-1.1C11.1,35.7,11.3,35.3,11.5,34.8L11.5,34.8L11.5,34.8z
		 M10.8,34c0-0.2-0.1-0.4-0.2-0.6c-0.1-0.2-0.2-0.4-0.3-0.6l0.4-0.2c0.1,0.2,0.2,0.4,0.3,0.6c0.1,0.2,0.2,0.4,0.2,0.6L10.8,34z
		 M13.1,32.9C13.2,32.9,13.2,32.9,13.1,32.9c0.1,0.1,0,0.1,0,0.2c-0.1,0-0.1,0.1-0.2,0.3c-0.1,0.2-0.2,0.4-0.4,0.8
		c0,0-0.1-0.1-0.2-0.1c-0.1,0-0.1,0-0.2,0c0.1-0.2,0.3-0.4,0.4-0.6s0.2-0.4,0.2-0.7C12.9,32.8,13,32.8,13.1,32.9z M17,35
		c-0.1,0.1-0.2,0.1-0.2,0.2c-0.1,0.1-0.1,0.1-0.2,0.2c-0.2-0.2-0.4-0.4-0.5-0.6c0,0.1,0,0.2,0,0.4c0,0.1,0,0.3,0,0.5L16,37.3
		c0,0.2,0,0.4-0.1,0.5c0,0.1-0.1,0.2-0.2,0.3c-0.1,0.1-0.2,0.1-0.4,0.2c-0.2,0-0.4,0.1-0.7,0.1c0-0.1,0-0.2-0.1-0.3
		c0-0.1-0.1-0.2-0.2-0.3c0.3,0,0.5,0,0.6,0c0.2,0,0.3,0,0.4-0.1c0.1,0,0.1-0.1,0.2-0.2c0-0.1,0-0.2,0-0.3l0.1-2h-1
		c0,0.4,0,0.8-0.1,1.1c-0.1,0.3-0.1,0.6-0.3,0.8c-0.1,0.3-0.3,0.5-0.5,0.7c-0.2,0.2-0.5,0.4-0.8,0.7c0-0.1-0.1-0.2-0.2-0.2
		c-0.1-0.1-0.2-0.1-0.3-0.2c0.3-0.1,0.5-0.3,0.7-0.4c0.2-0.2,0.4-0.3,0.5-0.6c0.1-0.2,0.2-0.5,0.3-0.8c0.1-0.3,0.1-0.7,0.1-1.1
		c-0.2,0-0.3,0-0.4,0c-0.1,0-0.2,0-0.3,0V35c0,0.1-0.1,0.1-0.1,0.2c0,0.1-0.1,0.1-0.1,0.2c-0.1-0.1-0.3-0.2-0.5-0.3
		c0.1-0.1,0.2-0.2,0.3-0.3c0.1-0.1,0.1-0.2,0.2-0.4c0.1-0.1,0.1-0.3,0.2-0.4c0.1-0.2,0.1-0.3,0.2-0.5c0.1-0.2,0.1-0.4,0.2-0.6
		c0-0.2,0.1-0.4,0.1-0.6c0.1,0.1,0.2,0.1,0.3,0.1c0.1,0,0.1,0,0.2,0c0.1,0,0.1,0,0.1,0.1c0,0,0,0.1-0.1,0.1c0,0,0,0,0,0
		c0,0,0,0,0,0.1c0,0,0,0.1-0.1,0.2c0,0.1-0.1,0.2-0.1,0.3c-0.1,0.4-0.2,0.7-0.3,0.9c-0.1,0.3-0.2,0.5-0.3,0.7c0.1,0,0.1,0,0.2,0
		c0.1,0,0.2,0,0.3,0c0.1,0,0.2,0,0.4,0c0.1,0,0.3,0,0.5,0c0.3,0,0.6,0,0.8,0c0.2,0,0.3,0,0.5,0c-0.2-0.2-0.3-0.5-0.4-0.9
		c-0.1-0.4-0.3-0.8-0.4-1.4H15c-0.1,0-0.2,0-0.4,0v-0.5c0.1,0,0.2,0,0.3,0c0.1,0,0.2,0,0.3,0c0.1,0,0.1,0,0.2,0c0.1,0,0.2,0,0.3,0
		c0.1,0.3,0.1,0.6,0.2,0.9c0.1,0.3,0.2,0.5,0.3,0.8c0.1,0.2,0.2,0.5,0.4,0.7C16.6,34.7,16.8,34.8,17,35z"/>
	<path style="fill:#FFFFFF;" d="M18.6,36.8c0,0.2-0.1,0.5-0.2,0.7c-0.1,0.2-0.2,0.5-0.3,0.7l-0.5-0.2c0.1-0.1,0.1-0.2,0.2-0.3
		c0.1-0.1,0.1-0.2,0.2-0.3s0.1-0.2,0.1-0.4s0.1-0.3,0.1-0.4L18.6,36.8z M17.9,34.1c0.1-0.1,0.2-0.2,0.3-0.4c0.1-0.1,0.2-0.3,0.3-0.5
		c0.1-0.2,0.2-0.4,0.3-0.6c0.1-0.2,0.2-0.4,0.3-0.7c0.2,0.1,0.3,0.2,0.5,0.2c0.1,0,0.1,0,0.1,0.1c0,0,0,0.1-0.1,0.1
		c-0.1,0-0.1,0.1-0.2,0.1c0,0.1-0.1,0.1-0.2,0.3C19.1,33,19,33.1,19,33.3c-0.1,0.1-0.1,0.2-0.2,0.3c-0.1,0.1-0.1,0.2-0.2,0.3
		c-0.1,0.1-0.1,0.2-0.2,0.2l1,0c0.1-0.1,0.2-0.2,0.2-0.3c0.1-0.1,0.1-0.2,0.2-0.2c0-0.1,0.1-0.1,0.1-0.2c0-0.1,0.1-0.1,0.1-0.2
		c0.1,0.1,0.1,0.1,0.2,0.2c0.1,0.1,0.2,0.1,0.2,0.1c0.1,0,0.1,0.1,0.1,0.1c0,0,0,0.1-0.1,0.1c-0.1,0-0.1,0-0.2,0.1
		c0,0-0.1,0.1-0.2,0.2c-0.2,0.2-0.3,0.4-0.5,0.6c-0.1,0.2-0.3,0.3-0.4,0.5s-0.2,0.3-0.3,0.4c-0.1,0.1-0.2,0.3-0.4,0.4
		c0.1,0,0.3,0,0.4,0c0.1,0,0.2,0,0.4,0c0.1,0,0.2,0,0.3,0c0.1,0,0.2,0,0.2,0c0-0.1-0.1-0.2-0.1-0.2c0-0.1-0.1-0.2-0.2-0.3l0.4-0.2
		c0.1,0.1,0.1,0.2,0.2,0.3c0.1,0.1,0.1,0.2,0.2,0.3s0.1,0.2,0.1,0.3c0,0.1,0.1,0.2,0.1,0.3L20,36.3c0-0.1,0-0.1-0.1-0.2
		c0-0.1,0-0.1,0-0.2l-1.3,0.2c-0.2,0-0.3,0-0.4,0.1s-0.2,0-0.4,0.1c0-0.2-0.1-0.3-0.2-0.5c0.1,0,0.2,0,0.3,0
		c0.1-0.1,0.2-0.2,0.3-0.3s0.2-0.2,0.3-0.3c0.1-0.1,0.2-0.2,0.3-0.4c0.1-0.1,0.2-0.3,0.3-0.4l-0.7,0c-0.2,0-0.3,0-0.4,0
		c-0.1,0-0.2,0.1-0.3,0.1c0-0.1,0-0.2,0-0.2c0-0.1-0.1-0.1-0.1-0.2L17.9,34.1z M19.1,37.9c0-0.2-0.1-0.4-0.1-0.6
		c0-0.2-0.1-0.4-0.2-0.6l0.3-0.1c0.1,0.2,0.1,0.3,0.2,0.5s0.1,0.4,0.1,0.7L19.1,37.9z M20,37.7c0-0.1-0.1-0.2-0.1-0.3
		c0-0.1-0.1-0.2-0.1-0.3c0-0.1-0.1-0.2-0.1-0.3c0-0.1-0.1-0.2-0.1-0.3l0.4-0.1c0.1,0.2,0.2,0.4,0.3,0.5c0.1,0.2,0.2,0.4,0.2,0.5
		L20,37.7z M21.6,36.7c-0.1,0-0.1,0.1-0.2,0.2c0,0.1-0.1,0.2-0.2,0.3c-0.1,0.2-0.1,0.3-0.2,0.5c-0.1,0.2-0.2,0.3-0.3,0.5
		c-0.1-0.1-0.1-0.1-0.2-0.1c-0.1,0-0.2,0-0.3-0.1c0.1-0.1,0.2-0.2,0.3-0.3s0.1-0.2,0.2-0.3c0.1-0.1,0.1-0.3,0.2-0.4
		c0.1-0.2,0.1-0.3,0.2-0.5c0.1,0.1,0.1,0.1,0.2,0.1c0.1,0,0.1,0,0.2,0.1c0.1,0,0.1,0,0.1,0.1C21.7,36.6,21.7,36.6,21.6,36.7z
		 M20.8,34.1c0.2-0.2,0.4-0.5,0.6-0.8c0.2-0.4,0.5-0.8,0.7-1.2c0.2,0.1,0.3,0.2,0.5,0.2c0.1,0,0.1,0,0.1,0.1c0,0,0,0.1-0.1,0.1
		c0,0-0.1,0-0.1,0c0,0-0.1,0-0.1,0.1c0,0-0.1,0.1-0.1,0.1c0,0-0.1,0.1-0.1,0.1c-0.1,0.2-0.3,0.5-0.4,0.7c-0.1,0.2-0.3,0.4-0.5,0.7
		h1.1c0.1-0.1,0.2-0.2,0.3-0.4c0.1-0.1,0.2-0.2,0.2-0.3c0.1-0.1,0.1-0.2,0.1-0.2c0-0.1,0.1-0.2,0.1-0.2c0.2,0.1,0.3,0.2,0.5,0.3
		c0.1,0,0.1,0.1,0.1,0.1c0,0,0,0.1-0.1,0.1c0,0-0.1,0-0.2,0.1s-0.1,0.1-0.2,0.2c-0.1,0.2-0.3,0.3-0.4,0.5s-0.3,0.3-0.5,0.5
		c-0.2,0.2-0.3,0.3-0.5,0.5c-0.1,0.2-0.3,0.3-0.4,0.4c0.2,0,0.4,0,0.5,0c0.2,0,0.3,0,0.5,0c0.2,0,0.3,0,0.4,0c0.1,0,0.2,0,0.3,0
		c-0.1-0.1-0.1-0.3-0.2-0.4c-0.1-0.1-0.2-0.2-0.2-0.4l0.3-0.2c0.2,0.3,0.4,0.6,0.5,0.9c0.2,0.3,0.3,0.5,0.3,0.7l-0.4,0.2
		c0-0.2-0.1-0.3-0.2-0.5l-1,0v1.9c0,0.1,0,0.3,0,0.4c0,0.1,0,0.3,0,0.4H22c0-0.2,0-0.3,0-0.5c0-0.1,0-0.3,0-0.4v-1.9
		c-0.3,0-0.5,0-0.7,0.1C21.1,36,21,36,20.8,36c0-0.1,0-0.2,0-0.2s-0.1-0.2-0.1-0.2H21c0.1-0.1,0.3-0.3,0.5-0.5
		c0.2-0.2,0.4-0.4,0.6-0.7l-0.8,0c-0.1,0-0.2,0-0.3,0c-0.1,0-0.2,0-0.3,0.1c0-0.1,0-0.2,0-0.2c0-0.1-0.1-0.1-0.1-0.2L20.8,34.1
		L20.8,34.1z M23.7,38c-0.1-0.3-0.2-0.5-0.4-0.7c-0.1-0.2-0.3-0.5-0.5-0.7l0.3-0.2c0.2,0.2,0.4,0.4,0.5,0.7c0.2,0.2,0.3,0.5,0.5,0.8
		L23.7,38z"/>
	<path style="fill:#FFFFFF;" d="M29.8,35.9v0.6c0.4,0,0.8,0,1,0c0.2,0,0.4,0,0.5-0.1v0.4c-0.1,0-0.3,0-0.6,0c-0.3,0-0.6,0-1,0v1
		c0,0.2,0,0.3,0,0.4c0,0.1-0.1,0.2-0.2,0.2c-0.1,0.1-0.2,0.1-0.4,0.1c-0.2,0-0.5,0-0.8,0.1c0-0.1,0-0.2,0-0.3c0-0.1-0.1-0.2-0.2-0.3
		c0.3,0,0.5,0.1,0.6,0.1c0.2,0,0.3,0,0.4,0c0.1,0,0.1-0.1,0.2-0.1s0-0.2,0-0.3v-0.9h-2.8c-0.2,0-0.5,0-0.6,0c-0.2,0-0.3,0-0.4,0
		c-0.1,0-0.2,0-0.3,0c-0.1,0-0.2,0-0.2,0v-0.4c0.1,0,0.1,0,0.2,0c0.1,0,0.2,0,0.3,0c0.1,0,0.3,0,0.4,0c0.2,0,0.4,0,0.6,0h2.8V36
		l-1.7,0.1c-0.3,0-0.6,0-0.8,0c-0.2,0-0.4,0-0.5,0c-0.2,0-0.3,0-0.4,0c-0.1,0-0.3,0-0.4,0.1c0-0.1,0-0.2,0-0.3
		c0-0.1-0.1-0.1-0.1-0.2c0.1,0,0.2,0,0.3,0c0.1,0,0.3,0,0.4,0s0.4,0,0.7,0c0.3,0,0.7,0,1.1,0v-0.5c-0.3,0-0.6,0-0.8,0
		c-0.2,0-0.4,0-0.5,0c-0.2,0-0.3,0-0.4,0c-0.1,0-0.2,0-0.3,0c0,0,0-0.1,0-0.2c0-0.1,0-0.1,0-0.2v-1.2c0-0.1,0-0.1,0-0.2
		c0-0.1,0-0.1,0-0.2c0.1,0,0.2,0,0.3,0c0.1,0,0.3,0,0.4,0c0.2,0,0.3,0,0.6,0c0.2,0,0.5,0,0.8,0V33c-0.3,0-0.6,0-0.8,0s-0.5,0-0.7,0
		c-0.2,0-0.4,0-0.6,0c-0.2,0-0.4,0-0.6,0v-0.4c0.2,0,0.4,0,0.6,0c0.2,0,0.4,0,0.6,0c0.2,0,0.4,0,0.7,0c0.2,0,0.5,0,0.8,0
		c0-0.2,0-0.3,0-0.4c0-0.1,0-0.2,0-0.3c0.1,0,0.2,0,0.3,0c0.1,0,0.2,0,0.3,0c0.1,0,0.1,0,0.1,0c0,0,0,0.1-0.1,0.1
		c0,0-0.1,0.1-0.1,0.1c0,0.1,0,0.2,0,0.4c0.3,0,0.6,0,0.9,0c0.3,0,0.5,0,0.8,0c0.2,0,0.4,0,0.6,0c0.2,0,0.4,0,0.6,0V33
		c-0.2,0-0.4,0-0.6,0c-0.2,0-0.4,0-0.6,0c-0.2,0-0.5,0-0.8,0c-0.3,0-0.6,0-0.9,0v0.4c0.3,0,0.6,0,0.8,0c0.2,0,0.4,0,0.6,0
		c0.2,0,0.3,0,0.4,0c0.1,0,0.2,0,0.4,0c0,0.1,0,0.1,0,0.2c0,0.1,0,0.1,0,0.2v1.2c0,0.1,0,0.1,0,0.2c0,0.1,0,0.1,0,0.2
		c-0.1,0-0.1,0-0.2,0c-0.1,0-0.1,0-0.2,0c0.2,0.1,0.4,0.3,0.5,0.4c0.2,0.1,0.3,0.3,0.4,0.4l-0.3,0.3c-0.1-0.1-0.1-0.2-0.2-0.2
		c-0.1-0.1-0.1-0.1-0.2-0.2L29.8,35.9z M27.9,33.7h-1.6v0.5h1.6V33.7z M27.9,34.4h-1.6V35h1.6V34.4z M27.6,38.1
		c-0.1-0.1-0.1-0.2-0.2-0.2c-0.1-0.1-0.2-0.2-0.2-0.2c-0.1-0.1-0.2-0.2-0.3-0.2c-0.1-0.1-0.2-0.1-0.3-0.2l0.2-0.3
		c0.2,0.1,0.4,0.3,0.6,0.4c0.2,0.2,0.4,0.3,0.6,0.5L27.6,38.1z M28.3,34.2H30v-0.5h-1.7V34.2z M28.3,35H30v-0.5h-1.7V35z M30,35.7
		c0,0-0.1-0.1-0.1-0.1c0,0-0.1-0.1-0.1-0.1l0.2-0.1l-1.6,0v0.5L30,35.7z"/>
	<path style="fill:#FFFFFF;" d="M35.1,32.8c-0.3,0-0.6,0-0.9,0c-0.3,0-0.5,0-0.7,0c-0.2,0-0.4,0-0.6,0c-0.2,0-0.4,0-0.5,0v-0.5
		c0.2,0,0.4,0,0.6,0c0.2,0,0.4,0,0.7,0s0.5,0,0.8,0c0.3,0,0.6,0,1,0c0.4,0,0.7,0,1,0c0.3,0,0.5,0,0.8,0c0.2,0,0.5,0,0.7,0
		c0.2,0,0.4,0,0.6,0v0.5c-0.2,0-0.4,0-0.6,0c-0.2,0-0.4,0-0.7,0c-0.2,0-0.5,0-0.8,0c-0.3,0-0.6,0-0.9,0c0,0.1-0.1,0.1-0.1,0.2
		c0,0.1,0,0.1-0.1,0.2c0,0.1-0.1,0.1-0.1,0.2c0,0.1-0.1,0.1-0.1,0.2c0.4,0,0.8,0,1,0c0.3,0,0.5,0,0.6,0c0.2,0,0.3,0,0.4,0
		c0.1,0,0.2,0,0.4,0c0,0.1,0,0.1,0,0.2c0,0.1,0,0.2,0,0.3v2.6c0,0.1,0,0.2,0,0.3c0,0.1,0,0.2,0,0.2c-0.1,0-0.2,0-0.2,0
		c-0.1,0-0.2,0-0.2,0c-0.1,0-0.2,0-0.3,0c-0.1,0-0.2,0-0.4,0c0.4,0.2,0.8,0.4,1.1,0.5c0.3,0.2,0.6,0.3,0.9,0.5l-0.3,0.4
		c-0.1-0.1-0.2-0.2-0.4-0.3c-0.1-0.1-0.3-0.2-0.4-0.3s-0.3-0.2-0.5-0.3c-0.2-0.1-0.4-0.2-0.7-0.4l0.2-0.3h-1.9
		c0.1,0.1,0.1,0.1,0.2,0.1c0.1,0,0.1,0.1,0.2,0.1c0.1,0,0.1,0.1,0.1,0.1c0,0,0,0.1-0.1,0.1c-0.1,0-0.2,0-0.3,0.1
		c-0.1,0-0.2,0.1-0.2,0.2c-0.1,0.1-0.2,0.1-0.3,0.2c-0.1,0.1-0.2,0.1-0.3,0.2c-0.1,0.1-0.3,0.2-0.4,0.2c-0.2,0.1-0.3,0.2-0.6,0.3
		c0-0.1-0.1-0.2-0.1-0.3c-0.1-0.1-0.2-0.1-0.3-0.2c0.2,0,0.3-0.1,0.5-0.1c0.2-0.1,0.4-0.2,0.6-0.3c0.2-0.1,0.4-0.2,0.5-0.3
		c0.2-0.1,0.3-0.2,0.4-0.4c-0.1,0-0.2,0-0.3,0c-0.1,0-0.2,0-0.3,0c-0.1,0-0.2,0-0.2,0c-0.1,0-0.1,0-0.2,0c0,0,0-0.1,0-0.2
		c0-0.1,0-0.2,0-0.3v-2.6c0-0.1,0-0.2,0-0.3c0-0.1,0-0.2,0-0.2c0.1,0,0.2,0,0.3,0c0.1,0,0.2,0,0.3,0c0.1,0,0.2,0,0.4,0
		c0.1,0,0.3,0,0.5,0c0.1-0.1,0.2-0.3,0.3-0.4C35,33.1,35.1,32.9,35.1,32.8z M37.2,34h-3.4v0.7h3.4V34z M37.2,35h-3.4v0.7h3.4V35z
		 M37.2,36.1h-3.4v0.7h3.4V36.1z"/>
</g>
</svg>
