<?xml version="1.0" encoding="utf-8"?>
<!-- Generator: Adobe Illustrator 18.0.0, SVG Export Plug-In . SVG Version: 6.00 Build 0)  -->
<!DOCTYPE svg PUBLIC "-//W3C//DTD SVG 1.1//EN" "http://www.w3.org/Graphics/SVG/1.1/DTD/svg11.dtd">
<svg version="1.1" id="圖層_1" xmlns="http://www.w3.org/2000/svg" xmlns:xlink="http://www.w3.org/1999/xlink" x="0px" y="0px"
	 viewBox="128 0 96 91" style="enable-background:new 128 0 96 91;" xml:space="preserve">
<path style="fill:#292C77;" d="M135.6,42.5c0-11.9,0-23.7,0-35.6c0-4,2.6-6.9,6.9-6.9c23.2,0,46.2,0,69.1,0c4,0,6.9,2.9,6.9,6.9
	c0,23.7,0,47.4,0,71.1c0,4-2.9,6.9-6.9,6.9c-23.2,0-46.2,0-69.4,0c-4,0-6.9-2.9-6.9-6.9C135.6,66.2,135.6,54.3,135.6,42.5z
	 M194,80.9c0.3,0,0.6,0,0.6,0c5.8,0,11.3,0,17.1,0c1.8,0,2.6-0.8,2.6-2.6c0-23.7,0-47.4,0-71.4c0-1.8-0.8-2.6-2.6-2.6
	c-23.2,0-46.2,0-69.4,0c-1.8,0-2.6,0.8-2.6,2.6c0,23.7,0,47.4,0,71.1c0,1.8,0.8,2.6,2.6,2.6c11.6,0,23.2,0,34.7,0c0.3,0,0.6,0,0.8,0
	c0-9,0-17.9,0-27.2c-3.4,0-6.9,0-10.1,0c0-5.5,0-11,0-16.5c3.4,0,6.9,0,10.1,0c0-0.8,0-1.4,0-2.3c0-2.9,0-6.1,0.3-9
	c1.1-7.9,6.9-13.6,14.8-13.9c3.2-0.3,6.6,0,9.8,0.3c1.1,0,2.3,0.3,3.7,0.3c0,5,0,9.8,0,15c-0.8,0-1.4,0-2.3,0c-2.3,0-5,0-7.2,0
	c-1.8,0-2.6,0.6-2.6,2.3c0,2.3,0,4.7,0,7.2c4,0,8.1,0,12.1,0c-0.6,5.5-1.4,11-2.1,16.5c-3.4,0-6.6,0-10.1,0
	C194,62.7,194,71.7,194,80.9z M189.9,80.9c0-10.3,0-20.8,0-31.6c3.4,0,6.9,0,10.3,0c0.3-2.6,0.6-5.2,0.8-7.9c-3.7,0-7.9,0-11.6,0
	c0-0.3,0-0.3,0-0.3c0-3.7,0-7.2,0-11s2.3-6.1,5.8-6.6c1.8-0.3,3.7,0,5.5-0.3c0.3,0,0.6,0,0.8,0c0-2.3,0-4.7,0-6.9
	c-0.6,0-0.8,0-1.4,0c-2.9,0-5.8-0.6-8.7,0c-4.3,0.8-7.6,2.9-9,7.2c-0.3,1.8-0.6,3.4-0.8,5.2c-0.3,4,0,8.1,0,11.9c0,0.3,0,0.6,0,0.8
	c-3.4,0-6.9,0-10.1,0c0,2.6,0,5.2,0,7.9c3.4,0,6.6,0,10.1,0c0,10.3,0,20.8,0,31.2C184.4,80.9,187,80.9,189.9,80.9z"/>
</svg>
