<?xml version="1.0" encoding="utf-8"?>
<!-- Generator: Adobe Illustrator 18.0.0, SVG Export Plug-In . SVG Version: 6.00 Build 0)  -->
<!DOCTYPE svg PUBLIC "-//W3C//DTD SVG 1.1//EN" "http://www.w3.org/Graphics/SVG/1.1/DTD/svg11.dtd">
<svg version="1.1" id="圖層_1" xmlns="http://www.w3.org/2000/svg" xmlns:xlink="http://www.w3.org/1999/xlink" x="0px" y="0px"
	 viewBox="0 0 548.1 148" style="enable-background:new 0 0 548.1 148;" xml:space="preserve">
<g>
	<polygon style="fill-rule:evenodd;clip-rule:evenodd;fill:#FFFFFF;" points="20.1,46.1 11.5,64 16.7,92.3 38.5,105.9 67.1,86.8 
		79.3,61.4 53.7,40 20.1,40 	"/>
	<g>
		<path style="fill-rule:evenodd;clip-rule:evenodd;" d="M289.5,67.1c0.7,0,1.5,0.1,2.2,0c2.4-0.3,2.6-0.1,2.5,2.3
			c-0.1,2.1-0.8,4.1-1.5,6.1c0.4,0.5,0.9,0.2,1.4,0.3c1.1,0.2,1.8,0.8,1.8,1.8c0,1.3-1.1,1.1-2,1c-0.9,0-1.7-0.1-3-0.2
			c2.3,2.5,5.6,3.1,7.3,5.7c-4.1,0.7-5.1,0.3-8.8-3.2c-0.6-0.2-0.6-0.9-1.2-1.2c0.6,0.5,0.7,1,0.3,1.6c-0.4,0.3-0.8,0.7-1.2,0.8
			c-0.7,0.3-0.7,0.7-0.5,1.2c0.2,0.7,0.7,0.3,1.1,0.3c0.4,0,0.9-0.1,1.3-0.1c1.2-0.2,2.2,0.2,2.3,1.4c0,1.4-1.3,0.8-2,0.8
			c-1.9-0.1-3,0.3-2.7,2.5c0.1,1.4-0.8,2.5-1.6,3.8c-1.1-1.8-0.6-3.7-1-5.4c-1.1,0.2-2.1,0.5-3,0.6c-0.8,0.1-1.5-0.4-1.6-1.2
			c-0.1-0.9,0.7-1,1.3-1.1c0.8-0.2,1.7-0.3,2.6-0.5c0.4-0.1,0.9-0.1,0.9-0.7c0-0.7-0.5-0.6-0.9-0.6c-0.8,0-1.8,0.1-1.8-1
			c0-1.1,1-1.1,1.7-1.2c1-0.1,1-0.8,0.8-1.4c-0.3-0.9-1.1-0.4-1.4-0.2c-1.3,0.6-1.9,1.9-2.7,3c-1.7,2.3-3.3,4.5-6.5,5.8
			c1.2-3,3.1-5.1,4.9-7.6c-1.2,0-2.5,0.1-2.7-1.2c-0.2-1.4,1-1.7,2.2-1.9c1.4-0.2,0.6-1.1,0.4-1.6c-0.8-2.1-1.2-4.2-1.2-6.4
			c0-0.7-0.1-1.7,0.7-1.9c1.2-0.2,2.5-1,3.8-0.5c0.8,0.3,0.6,1.3-0.1,1.8c-0.3,0.2-0.8,0.3-1.2,0.3c-0.6,0-1,0.3-0.9,0.9
			c0.1,0.7,0.6,0.4,1,0.3c0.7-0.1,1.5-0.3,1.7,0.4c0.3,0.9-0.7,1.1-1.3,1.3c-0.5,0.1-1.1,0.1-0.9,0.9c0.2,0.7,0.7,0,1.1,0
			c0.7,0,1.4,0,1.5,0.9c0.1,0.6-0.5,0.8-1,0.8c-0.9,0-1.1,0.4-0.9,1.2c0.2,0.5,0.1,1.1,0.9,0.8c0.6-0.2,1.5,0,1.5-1.1
			c-0.1-1.1,0.2-2.1,0.8-3.1c2.3-0.7,1.6,1,1.6,2c0.2-1.2,0.6-2.7-1.6-2.4c-1.1-1.2-1.1-5.5,0-6.6c0.1-0.1,0.3-0.2,0.5-0.3
			c1,2,3.1,0.1,4.3,1.2c0.4,1.8-1.2,1.8-2.2,2.5c1,0.3,2.2,0.4,1.9,1.8c0.1,0.8-0.2,1.8,1.7,1.7c-1.1-0.5-1.9-0.7-1.7-1.7
			c0.2-1,1-1.1,1.8-1.2C288.4,68.9,288.4,68.5,289.5,67.1z"/>
		<path style="fill-rule:evenodd;clip-rule:evenodd;fill:#010101;" d="M43.1,57.2c2.6-0.6,4-2.4,4.7-4.8c0.3-1.2,0.9-1.8,2.2-1.7
			c1.2,0.1,1.8,1,1.7,1.9c-0.5,2.9,1.1,1.9,2.3,1.2c1.4-0.7,2.5-1,3.7,0.2c0.7,0.8,1.1,1.6,0.7,2.5c-0.6,1.5-2,1.9-3.4,2
			c-1.4,0.1-2.8,0.2-4.2,0c-2.4-0.3-4.3,0.4-5.5,2.9c1.7,0.4,3.2,0.8,5-0.1c1.7-0.9,3.2-0.1,3.4,2.1c0.6,4.7-3.9,10.6-8.6,11.3
			c-0.6,0.1-1.5-0.2-1.4,1c0.1,1,0.9,0.9,1.5,0.8c3.2-0.6,6.5,0.2,9.7-0.9c2.5-0.8,3.2,1.1,3.4,2.8c0.5,3.6-0.1,7.2-1.6,10.6
			c-1.2,2.6-3.8,1.7-5.8,2.6c-3.4,1.5-2.3-2.6-4.7-3.2c6.8-1,8.3-3.3,7.2-10.7C51.6,78.3,49.9,79,48,79c-0.7,0.7-2-0.2-2.6,0.8
			c-0.2,0.2-0.5,0.5-0.7,0.7c0.8,0,0.8-0.9,1.3-1.1c1.1-0.3,1.9,0.4,2.6,1c0.9,0.9,1.6,2,1.9,3.2c0.3,1.1,0.2,2.2-0.9,2.7
			c-1.1,0.5-1.9-0.3-2.1-1.2c-0.3-1.6-1.1-1.1-1.9-0.6c-2.4,1.4-5.2,1.1-7.7,1.9c-1.3,0.4-2.5-0.1-2.7-1.4c-0.2-1.5,1.2-1.7,2.3-1.9
			c0.7-0.1,1.5,0.1,2.1-0.2c1.3-0.6,1-2.3,0.4-2.5c-1.9-0.8-3.8,0.3-5.7,0.7c-1.6,0.3-0.9,1.6-0.8,2.6c0.2,2,0.5,3.9,0.6,5.9
			c0.1,1.1-0.3,2.2-1.5,2.4c-1.3,0.3-1.8-0.8-2.1-1.8c-0.4-1.3-0.7-2.7-1-4.1c-0.3-1.6-0.1-3.5-2.8-2.9c-0.8,0.2-1.7-0.8-1.6-1.9
			c0.2-1.4,6.1-4.1,7.3-3.4c0.6,0.3,1.1,0.3,1.6,0.1c1-0.7,2.2-0.9,3.3-1.2c-0.9,0.2-1.7,0.7-2.6,0c-1.8-3.3-2.6-6.9-3.1-10.6
			c-0.4-3.8,0.5-4.4,4-2.9c0.4,0.2,0.9,0.1,1.1-0.5c0.7-0.7,1.6-0.8,2.5-1C41.8,61.4,43.2,60,43.1,57.2z"/>
		<path style="fill-rule:evenodd;clip-rule:evenodd;fill:#010101;" d="M112.1,119.9c-2.6,3.8-7,4.2-10.5,6c-1.3,0.7-2.1-0.4-2.5-1.4
			c-0.5-1.3,0.6-1.4,1.4-1.6c1.2-0.2,1.4-0.8,1.4-2c0-4.5,0.1-9,0.1-13.5c0-0.9-0.2-2.2,1.1-2.2c1.4,0,1.6,1.2,1.4,2.4
			c0,0.3,0,0.6,0,0.9c-0.4,2.1,0.6,2.1,2.1,1.4c2.4-1.1,5.4-1.3,6.8-4.2c0.2-0.3,0.4-0.6,0.1-1.1c-1.8,0.6-3.6,1.2-5.4,1.9
			c-1.4,0.6-2.3,0.1-2.7-1.2c-0.4-1.3,0.7-1.6,1.7-1.8c2.2-0.4,4.4-0.8,6.7-0.7c1.3,0.1,2.3,0.7,2.9,1.9c0.6,1.2-0.4,1.9-1,2.6
			c-0.8,1-1.7,2-2.8,2.5c-1.6,0.7-1.1,1.7-0.9,2.9c0.9-0.3,1.8-0.7,2.7-0.9c0.8-0.3,1.3,0.1,1.6,0.8c0.3,0.6,0.1,1.2-0.6,1.7
			c-0.9,0.6-2.6,0.6-2.6,1.6c0.1,1.2,1.1,2.5,1.9,3.6c0.5,0.8,1.2,1.6,1.9,2.3c2.1,2.1,2.2,2.1,3.3-0.6c0.4,1.1,0.7,2.2,1.2,3.2
			c0.4,0.8,0.7,1.5,0,2.2c-0.7,0.8-1.6,0.6-2.4,0.2c-2.3-1.2-4.1-3-5.6-5C113.1,121.2,112.6,120.6,112.1,119.9z"/>
		<path style="fill-rule:evenodd;clip-rule:evenodd;fill:#010101;" d="M232.3,115.8c-2.4,0.8-4.1,2.4-6.6,2.5c1.5-1.3,3-2.6,4.5-3.8
			c1.7-1.4,3.1-3,4.5-4.7c0.5-0.7,0.5-1.1-0.4-1.2c-1.5-0.2-2.6-1.7-4.5-1c1.5-2.7,3.7-4.7,6-6.6c0.5-0.5,1.4-0.4,1.8,0.2
			c1,1.3,2,0.9,3,0.2c0.8-0.6,1.5-0.3,2.1,0.3c0.6,0.6,0.5,1.3,0.1,2c-0.7,1.2-1.4,2.3-2.4,3.4c-1.2,1.4-0.7,2,0.6,2.9
			c2.8,2,5.8,3.4,8.9,4.9c0.5,0.2,1.3,0.3,1.1,1.1c-0.2,0.8-0.9,0.4-1.5,0.4c-1.4,0-2.6,1.2-4.1,0.4c0,0-0.4,0.3-0.4,0.4
			c0,2.1-1.8,3.7-1.7,5.9c0.1,0.9-0.4,1.5-1.4,1.5c-1.7,0.1-3.3,0.1-5,0.4c-2.2,0.4-3.2-0.8-3.8-2.5
			C232.4,120.2,231.9,118.1,232.3,115.8z"/>
		<path style="fill-rule:evenodd;clip-rule:evenodd;" d="M84.6,80.3c1.2,0.1,2.5,0.3,3.6-0.2c1-0.5,1.8-0.1,2.6,0.5
			c0.9,0.7,0.7,1.6,0.5,2.6c-0.5,1.9-1.8,3.6-1.7,5.7c0,0.7-0.8,0.8-1.5,0.9c-1.9,0.1-3.8,0.1-5.6,0.7c-0.9,0.3-1.4-0.1-1.8-0.7
			c-1.4-1.9-2.5-4.1-2.8-6.5c-0.2-1.2-0.2-2.5,1.9-2.1c1.1,0.2,2.1-0.4,2.2-1.8c0.1-1,0.6-1.9,0.3-3.2c-1.7,0.4-3.3,0.7-4.9,1.1
			c-1.1,0.2-2,0.2-2.7-0.8c-1-1.4-0.7-2.2,1-2.5c1.8-0.3,3.7-0.7,5.6-0.9c1.4-0.1,2-0.5,1.9-1.9c0-0.6,0.1-1.3,0.1-1.9
			c0-1.1,0.2-2.4,1.5-2.1c1.2,0.2,2.4,1.1,2.1,2.8c-0.4,2.5-0.4,2.5,2.2,2.2c1.1-0.1,2.1-0.3,3.2-0.5c1.6-0.2,2.7,0.5,2.8,2
			c0.1,1.6-1.4,1.1-2.3,1.2c-0.9,0.1-1.7,0.2-2.6,0.3C85.5,75.6,85.5,75.6,84.6,80.3z"/>
		<path style="fill-rule:evenodd;clip-rule:evenodd;fill:#010101;" d="M460.1,115.2c1.3,0.2,2.1-0.2,2.9-0.4
			c1.6-0.4,2.3,0.4,2.2,2.1c-0.1,1.3-0.9,2.6-0.3,4c0.2,0.5-0.4,0.8-0.9,1c-1.4,0.6-3.1,0.2-4.2,1.7c-0.4,0.5-0.9-0.3-1.2-0.8
			c-0.6-1.1-0.8-2.3-1.1-3.7c-1.4,1.2-2.3,2.8-4.2,3.8c1.4-3.9,3.6-6.7,5.9-9.6c0.7-0.9,1.5-1.5,0.2-2.6c-0.8-0.7-0.8-1.5,0.6-1.7
			c1.9-0.3,3.9-0.3,4.9-2.5c0.3-0.5,1.2-1.1,1.5-0.1c0.7,1.8,1.8,0.9,2.8,0.6c1.1-0.4,2.1-0.4,2.6,0.7c0.6,1.3-0.7,1.5-1.6,2.1
			c2.3,1.6,4.6,3.2,6.8,4.9c0.6,0.5,1.7,1,1.5,1.9c-0.3,1-1.4-0.4-2.1,0.3c-0.5,0.6-1.4-0.9-1.8,0c-0.5,1.1-1.1,2.5-0.7,3.5
			c0.6,2-0.4,2.1-1.8,2.2c-1.1,0.1-2.2,0.1-3.2,0.3c-0.8,0.1-1-0.3-1.3-0.8c-1.2-2-1.4-4.2-1-6.5c0.2-1,0.8-1.7,1.8-1
			c1,0.6,1.9,0.1,3.2-0.2c-1.3-1.2-2.4-2.7-3.9-3.6c-1.5-0.8-3.2-0.1-4.5,0.9C462.1,112.7,461.3,113.9,460.1,115.2z"/>
		<path style="fill-rule:evenodd;clip-rule:evenodd;fill:#010101;" d="M263.5,117.8c-1.2-1.9-1.8-3.9-1.7-6.2c0.1-1.1,0-2.8,2.1-1.8
			c0.3,0.1,0.8-0.1,1.2-0.2c0.6-0.2,1.6,0,1.3-1c-0.2-1-1.1-0.2-1.6-0.2c-0.3,0-0.6,0.1-0.8,0.2c-1,0.2-2.3,0.9-2.7-0.7
			c-0.3-1.5,1.2-1.3,2-1.6c0.2-0.1,0.4-0.1,0.6-0.2c0.8-0.4,2.5,0.4,2.4-1c-0.1-1.3-1.7,0.3-2.8-0.7c1.9-1.5,3.7-2.9,6.1-3.2
			c0.8-0.1,1.4,0.2,1.6,1c0.2,0.9-0.3,1.3-1.1,1.6c-0.3,0.1-0.7,0.1-1.1,0.2c-0.5,0.2-0.6,0.6-0.5,1.1c0.1,0.7,0.6,0.5,1,0.4
			c1-0.1,2-0.2,3-0.3c1.1-0.1,2,0.3,2,1.5c0,1.5-1.2,1.2-2.1,1.1c-1.1-0.1-2.2,0-3.2,0.1c-0.6,0-0.8,0.3-0.7,0.8
			c0.1,0.6,0.5,0.3,0.8,0.3c0.6,0,1.3,0,1.9-0.1c2.5-0.3,3.1,0.3,2.5,2.8c-0.6,2.4-1.6,4.5-4.4,5.1c-0.5,0.1-1.1,0.2-0.9,0.9
			c0.2,0.9,0.8,0.3,1.2,0.3c0.8,0,2-0.5,2.2,0.6c0.3,1.2-0.9,1.4-1.9,1.5c-0.6,0.1-1.7-0.2-1.5,1c0.2,1,1.2,0.4,1.8,0.4
			c0.9,0,1.9-0.2,2.8-0.2c1,0,1.8,0.5,1.8,1.5c0,1.1-1,1.1-1.7,1.1c-3.6-0.3-7.2,0.2-10.8,0.6c-0.9,0.1-1.7,0.2-1.9-0.8
			c-0.2-1.2,0.9-1.3,1.7-1.4c0.9-0.2,1.9-0.2,2.8-0.3c0.5-0.1,1.3,0.2,1.3-0.7c-0.1-1-0.8-0.5-1.3-0.5c-0.3,0-0.6,0.1-0.9,0
			c-0.6-0.1-1.1-0.4-1.2-1c-0.1-1,0.6-1,1.3-1.1c0.2-0.2,0.5-0.2,0.6-0.4c-0.2-0.1-0.4,0-0.5-0.1C264.2,118,263.8,118,263.5,117.8z"
			/>
		<path style="fill-rule:evenodd;clip-rule:evenodd;fill:#010101;" d="M186.2,117.3c1.4-0.2,2.7-0.3,3.9-0.7
			c1.1-0.4,1.8,0.2,2.5,0.7c0.8,0.6,0.7,1.5,0.4,2.4c-0.7,1.7-1.8,3.2-1.6,5.2c0.1,0.9-0.8,1-1.6,1.1c-2,0.1-4-0.1-6,0.4
			c-0.7,0.2-1.1-0.3-1.4-0.7c-1.3-1.9-2.1-4-2.3-6.2c-0.1-1.1,0.1-2.2,1.9-1.6c1.2,0.4,1.4,0.1,1.7-2.4c-1.9,0.2-3.6,1-5.3,1.7
			c-1,0.4-2,0.5-2.7-0.5c-0.9-1.2-1-2.1,0.7-2.5c2.4-0.5,4.8-1,7.2-1.5c0.5-0.1,1.2,0.1,1.4-0.4c0.8-3.2,4.3-5.2,4.2-8.8
			c0-0.8,0.2-1.5,1.1-1.5c0.4,0,4.3,2.9,4.3,3.3c0.1,0.9-0.6,1.2-1.3,1.4c-0.8,0.2-1.6,0.5-2.5,0.7c-2.2,0.4-3.3,2.4-2.5,4.4
			c0.2,0.6,0.6,0.3,0.8,0.3c1.6-0.1,3.4-0.1,4.9-0.5c1.4-0.4,2,0.5,2.8,1.1c0.5,0.3,0.3,0.9,0.1,1.4c-0.3,0.6-0.7,0.8-1.4,0.7
			c-2.2-0.6-4.4-0.2-6.7-0.1C187.3,114.5,186.3,115.2,186.2,117.3z"/>
		<path style="fill-rule:evenodd;clip-rule:evenodd;" d="M139.4,107.9c0.9-0.3,1.7-0.9,2.6-0.3c0.6,0.4,1.1,0.7,1.1,1.4
			c0,0.7-0.4,1.1-0.9,1.3c-0.3,0.1-0.5,0.3-0.8,0.4c-2.1,0.5-2.6,1.8-2,3.8c0.5-0.1,0.9-0.3,1.4-0.3c0.9,0,1.5,0.5,1.7,1.4
			c0.1,0.8,0,1.8-1,1.8c-2.6,0.2-2.2,2-2.3,3.7c0,1,0.4,1.2,1.3,1.1c1-0.1,2-0.1,3,0c1.3,0.1,2.3,0.9,2.2,2.2c0,1.5-1.3,1.4-2.4,1.4
			c-3.3-0.1-6.7-0.2-9.9,0.4c-1,0.2-1.9,0.2-2.6-0.5c-0.6-0.5-0.9-1.2-0.8-1.9c0.2-0.7,0.9-0.6,1.5-0.7c0.5-0.1,1-0.2,1.5-0.3
			c3.3-0.5,3.3-0.5,3.1-3.8c-0.6,0-1.3,0.1-1.9-0.1c-0.9-0.3-1.5-1-1.5-1.9c0-1.1,0.9-1,1.6-1.1c1.2-0.2,2.2-0.5,2-2.2
			c-0.1-0.7-0.2-1-1-1c-0.3,0-0.8-0.1-1-0.4c-1.7-2.2-3.1-0.6-4.6,0.2c-1.1,0.6-2.2,1.3-3.9,1c1.3-2.5,3.7-3.9,5.5-5.8
			c0.5-0.6,1.2,0,1.4,0.5c0.7,1.5,1.7,0.9,2.7,0.7c1.4-0.3,0.9-1.3,0.9-2c0.1-1.1,0-2.2-0.1-3.3c0-0.6-0.1-1.1,0.5-1.5
			c0.7-0.4,1.3-0.1,1.8,0.3c1,0.8,1.6,1.8,1.2,3.2C139.4,106.5,139.2,107.1,139.4,107.9z"/>
		<path style="fill-rule:evenodd;clip-rule:evenodd;fill:#010101;" d="M301.7,85.5c1.7,0.9,2.8,0.5,3.7-0.7c1.2-1.5,1.8-3.3,1.4-5.1
			c-0.3-1.1-1.2-0.3-1.7,0.4c-1.3,2-2.9,3.7-4.9,5.2c-0.4,0.3-0.9,0.6-1.8,1.2c1.8-3.6,4.5-6,6-9.6c-1,0.4-1.6,0.8-2.3,1
			c-1.3,0.4-2.1-0.3-2.6-1.4c-0.6-1.3,0.7-1.3,1.4-1.6c1.8-0.7,3.7-1.4,5.4-2.1c0.9-0.4,1.6-0.2,2,0.6c0.3,0.7,0.1,1.5-0.7,1.7
			c-1.1,0.4-0.6,1.1-0.7,1.9c-0.1,1.6,0.9,0.3,1.2,0.5c0.8,0.3,1.2,0.7,1.2,1.6c0,1.4,0,2.7-0.6,4.5c1.8-1.2,4.2-0.5,4.8-2.9
			c0.1-0.4,0.4-0.9-0.1-1.2c-0.2-0.1-0.8,0-1,0.1c-0.8,0.9-1.8,0.1-2.9,0.3c0.8-1.7,1.5-3.2,2.3-4.7c0.5-1,1.3-0.6,1.5-0.1
			c0.9,2,2.1,0.9,3.3,0.4c0.5-0.2,0.9-0.6,1.3-0.7c0.8-0.1,1.4,0.4,1.7,1.1c0.3,0.7-0.2,1.1-0.7,1.3c-0.6,0.3-1.2,0.7-1.8,0.8
			c-1.8,0.2-1,1.5-0.9,2.3c0.2,1.6,1.2,0.3,1.8,0.3c1.1,0,2.3-0.4,3.4-0.5c1-0.1,2,0.5,2,1.5c0.1,1-0.9,1.2-1.7,1.3
			c-0.9,0.1-1.7,0.2-2.6,0.3c-2.4,0.3-4.7,0.6-5.7,3.6c-0.5,1.6-2.3,2.7-4,3.8c0.1-2.1,1.7-3.4,2.1-5.3c-1.1,0.1-2.2-0.1-2.9-1.2
			c-1,2.2-2.7,3.4-4.7,4.2c-1.4,0.5-2.5,0.9-2.2-1.3C302,86.7,301.8,86.3,301.7,85.5z"/>
		<path style="fill-rule:evenodd;clip-rule:evenodd;fill:#010101;" d="M100.7,72.7c1.4-2.3,3.6-3.4,5-5.2c0.3-0.3,0.7-0.4,1-0.1
			c1.8,2.1,3.8,0.7,5.7,0.3c1.3-0.3,2.4-0.2,2.9,1c0.6,1.5-0.6,1.9-1.7,2.1c-0.9,0.2-1.2,0.6-1.3,1.5c-0.1,1.3,0.9,0.6,1.4,0.8
			c0.7,0.3,1.3,0.6,1.3,1.5c0,0.9-0.5,1.4-1.3,1.5c-2,0.2-1.5,1.8-1.3,2.8c0.2,1.5,1.4,0.5,2.1,0.5c1.5,0,3-0.7,4.6,0.1
			c1,0.5,1.3,1.1,1.1,2c-0.2,1-1,1.1-1.9,0.9c-0.3-0.1-0.6-0.1-0.8-0.2c-4.4-0.6-5.1-0.1-5.1,4.2c0,2.3-0.8,4.1-2.5,5.7
			c-0.7-2.4-0.5-4.9-0.4-7.4c0.1-1.8-0.6-1.9-2-1.6c-1.5,0.4-3.1,0.7-4.6,1.2c-1.6,0.5-2.8,0.3-3.2-1.4c-0.5-1.9,1.3-1.5,2.2-1.8
			c1.1-0.3,2.4-0.2,1.7-2c-0.1-0.3,0.2-0.9,0.5-1.1c0.4-0.3,0.8,0.2,1,0.5c0.9,0.9,1.6,1.9,3.2,1.6c1.1-0.2,1.2-0.7,1.2-1.6
			c0.1-1.1-0.4-1.2-1.3-1.1c-0.9,0.1-1.4-0.6-1.9-1.2c-0.7-0.9-0.7-1.6,0.7-1.8c0.6-0.1,1.1-0.2,1.7-0.3c1.3-0.2,1.1-1.2,0.9-2
			c-0.3-0.9-3.1-1.7-3.9-1.3c-1.2,0.6-2.3,1.2-3.5,1.7C101.7,72.6,101.4,72.6,100.7,72.7z"/>
		<path style="fill-rule:evenodd;clip-rule:evenodd;fill:#010101;" d="M490,106.1c1.6-0.1,3-0.7,4.4-1.2c-0.3-1.1-1-0.4-1.4-0.6
			c-0.8-0.3-1.5-0.8-1.5-1.7c0-0.8,0.9-0.8,1.5-0.9c0.8-0.1,1.4-0.2,1.4-1.4c0-1.6,1.2-1.6,2-0.6c0.9,1.1,2,1.4,3.4,1.5
			c1.2,0.1,1.9,0.6,2,1.8c0,0.6,0.2,1,0.7,1.4c0.7,0.5,0.8,1.4-0.3,1.5c-1.4,0-1.7,1.1-1.7,1.8c0.2,1.9-0.8,2.4-2.3,2.6
			c-0.6,0.1-1.4,0.2-1.2,1.1c0.2,1,0.9,0.2,1.4,0.2c0.8,0,1.5,0,1.6,1c0.1,0.8-0.3,1.2-1.1,1.3c-0.4,0-0.8,0.2-1.3,0.3
			c-0.6,0.1-0.7,0.4-0.6,0.9c0.1,0.5,0.5,0.4,0.8,0.4c0.8-0.1,1.6-0.2,2.4-0.3c1.3-0.2,2.1,0.5,2.3,1.5c0.3,1.4-1.1,0.9-1.8,1.1
			c-0.4,0.1-0.9,0.1-1.3,0.1c-1.8-0.1-2.6,0.5-2.6,2.6c0,1.4-0.9,2.8-1.6,4.6c-1-1.9-1-3.6-0.9-5.2c0.1-1.1-0.2-1.7-1.4-1.2
			c-1,0.4-1.8,0.1-2.5-0.6c-0.9-2.2,1.1-2,2.3-2.6c-0.8-1-1.6-2.1,0-3.2c0.7-0.4,0.1-0.6-0.2-0.9c-1.4-1.4-1.4-1.7,0.4-2.9
			c-1.3,0-2.5,0-3.2-1.2C489.4,107,489.3,106.5,490,106.1z"/>
		<path style="fill-rule:evenodd;clip-rule:evenodd;fill:#010101;" d="M464.8,88.2c2.5,0.8,2.8-0.6,2.8-2.4
			c-0.1-5.1,0-10.1-0.1-15.2c0-0.7,0.5-1.9-0.6-2c-1.1-0.1-2.4,0.4-2.9,1.5c-0.4,0.7-0.5,1.7-0.3,2.5c0.2,1.2,1.2,0.4,1.9,0.4
			c0.7,0,1.1,0.2,1.2,0.9c0.1,1-0.5,1.5-1.4,1.6c-1.6,0.2-2.5,0.8-2.5,2.7c0,1.3,0.4,1.3,1.4,1.1c0.6-0.1,1.3-0.5,1.9-0.1
			c0.5,0.2,0.7,0.6,0.7,1.2c0,0.8-0.5,1.3-1.2,1.3c-3.6-0.2-4.2,2.5-5.1,5.1c-0.4,1-0.5,2.2-1.4,3.1c-0.9-0.7-0.4-1.4-0.2-2
			c1.2-6.1,2.7-12.1,2.6-18.4c0-1.3,0.5-2,2-1.8c1.1,0.1,2.3,0.1,3.4-0.4c1.6-0.7,3.5,0.3,3.6,2.1c0.3,5.9,0.8,11.7,0.4,17.6
			c-0.1,1.6-2.4,3.9-3.9,4.1C466,91.3,465.9,91.1,464.8,88.2z"/>
		<path style="fill-rule:evenodd;clip-rule:evenodd;fill:#010101;" d="M412.7,69c2.7-1.5,5.8-1.5,8.8-1.9c0.8-0.1,1.8,0.3,1.8,1.4
			c0,1.1-0.8,1.5-1.6,1.4c-2.3-0.2-3.2,1.7-4.5,3.1c0.6-0.1,1.4,0,1.9-0.3c2.1-1.4,3,0.3,3.1,1.7c0.2,3.8,1.5,7.8-0.8,11.4
			c-0.5,0.7,0.2,0.9,0.5,1.1c0.5,0.5,1.1,1,1.2,1.7c0.1,0.7,0.1,1.3-0.6,1.7c-0.8,0.4-1.2,0-1.6-0.6c-0.8-1.1-1.7-2.2-2.2-3.4
			c-0.6-1.4-1.2-1.1-2-0.2c-1.5,1.6-3.1,3.1-4.8,4.7c-0.1-0.5-0.3-0.7-0.2-0.7c3-4.1,0.8-8.8,1.4-13.2c0.1-0.9,0.1-1.7,0.3-2.6
			c0.2-0.8,0.2-1.9,1.7-1.6c0.9,0.2,0.9-1,1.5-1.7C415,70.8,412.8,71.7,412.7,69L412.7,69z"/>
		<path style="fill-rule:evenodd;clip-rule:evenodd;fill:#010101;" d="M434.2,117.8c-1.5,2.1-3.5,2.7-5.3,3.7
			c-0.2-0.9,0.3-1.3,0.7-1.8c2.3-3.2,4.8-6.1,7.5-9c1.5-1.6,3-1.6,4.6-0.6c3.5,2.4,7.1,4.6,10.8,6.8c0.4,0.2,0.8,0.5,0.7,1
			c-0.1,0.5-0.7,0.3-1.1,0.5c-1.6,0.6-3,0.4-4.4-0.7c-0.2-0.2-0.6-0.5-0.7-0.1c-0.4,1.6-2.8,2.5-1.8,4.7c0.4,0.9,0.1,1.4-0.9,1.5
			c-2.4,0.2-4.7-0.4-7.1,0.6c-0.7,0.3-1.2-0.7-1.5-1.3C434.9,121.5,434.6,119.9,434.2,117.8z"/>
		<path style="fill-rule:evenodd;clip-rule:evenodd;fill:#010101;" d="M189.6,86.9c-0.7-1-1.1-2.4-2.2-2.7c-1.1-0.3-1.4,1.5-2.4,1.9
			c-0.7,0.3-1.1,1.1-1.9,1.3c-0.7-1.5,0.9-2.4,1-3.9c-2.3,0.8-0.8,2.7-1.3,3.9c-0.3,0.7-0.1,1.9-1.1,1.8c-0.9,0-1-1.1-1.3-1.8
			c-0.5-1.3-0.5-2.7-0.5-4.1c0-1.5-0.4-3.6,2.5-2.6c0.8,0.3,2-0.3,2.9-0.6c0.8-0.2,0.7-1,0.8-1.6c0.1-0.8-0.4-0.7-0.9-0.8
			c-1.1-0.3-1.9-1-1.8-2.2c0.1-1.2,1.4-0.9,2.1-1c1.5-0.4,3-0.6,4.4-1.2c1.2-0.6,2.2-0.2,2.7,0.9c0.5,1.2-0.6,1.5-1.4,2
			c-1.1,0.6-3.1,0.3-2.8,2.5c0.1,0.5,0,0.9,0.7,0.8c1.6-0.4,3.3,0.1,4.9-0.5c1.8-0.6,3.1,0.4,3.1,2.3c0,2.5-0.6,4.9-1.6,7.1
			c-0.6,1.3-3.4,2.8-4.6,2.3c-1.2-0.5-0.9-2-1.6-2.9c2-0.5,3.4-1.5,3.6-3.8c0.2-2.4-0.2-2.9-2.6-2.3c-0.4,0.1-0.8,0.2-1.2,0.5
			c0.7,0.8,1.7,1.2,2.1,2.2C191.9,85.8,191.2,86.8,189.6,86.9z"/>
		<path style="fill-rule:evenodd;clip-rule:evenodd;fill:#010101;" d="M344.8,119.6c-0.7-1-1.1-2.4-2.2-2.7
			c-1.1-0.3-1.4,1.5-2.4,1.9c-0.7,0.3-1.1,1.1-1.9,1.3c-0.7-1.5,0.9-2.4,1-3.9c-2.3,0.8-0.8,2.7-1.3,3.9c-0.3,0.7-0.1,1.9-1.1,1.8
			c-0.9,0-1-1.1-1.3-1.8c-0.5-1.3-0.5-2.7-0.5-4.1c0-1.5-0.4-3.6,2.5-2.6c0.8,0.3,1.9-0.3,2.9-0.6c0.8-0.2,0.7-1,0.8-1.6
			c0.1-0.8-0.4-0.7-0.9-0.8c-1.1-0.3-1.9-1-1.8-2.2c0.1-1.2,1.4-0.9,2.1-1c1.5-0.4,3-0.6,4.4-1.2c1.2-0.6,2.2-0.2,2.7,0.9
			c0.5,1.2-0.6,1.5-1.4,2c-1.1,0.6-3.1,0.3-2.8,2.5c0.1,0.5,0,0.9,0.7,0.8c1.6-0.4,3.3,0.1,4.9-0.5c1.8-0.6,3.1,0.4,3.1,2.3
			c0,2.5-0.6,4.9-1.6,7.1c-0.6,1.3-3.4,2.8-4.6,2.3c-1.2-0.5-0.9-2-1.6-2.9c2-0.5,3.4-1.5,3.6-3.8c0.2-2.4-0.2-2.9-2.6-2.3
			c-0.4,0.1-0.8,0.2-1.2,0.5c0.7,0.8,1.7,1.2,2.1,2.2C347.1,118.6,346.5,119.6,344.8,119.6z"/>
		<path style="fill-rule:evenodd;clip-rule:evenodd;fill:#010101;" d="M522.2,107.8c0.3,1.3-0.2,2-1.5,2.3c-0.5,0.1-1.6,0-1.3,1
			c0.3,1,1.2,0.3,1.8,0.1c0.3-0.1,0.5-0.3,0.8-0.3c0.6,0.1,1,0.5,1.1,1.1c0.1,0.6-0.1,1-0.8,1c-1.9,0.1-4.2,2-5-1.4
			c-0.2-0.6-0.7,0-1.1-0.1c-0.9-0.1-1.6-0.5-1.8-1.4c-0.2-0.9,0.9-0.9,1.4-1c1.3-0.3,2-0.8,1.4-2.2c-2.5,0.4-4.2,1.7-5.2,4.2
			c-1.2,3.1-2.8,6.2-4.3,9.2c-0.7,1.6-1.7,3-3.3,4c0.9-2.4,1.7-4.8,2.6-7.1c1.4-3.3,2.8-6.6,4.2-10c0.4-0.9,0.7-1.4,2-1.4
			c3,0,3.4-0.6,3.5-3.6c0-0.6,0.1-1.3,0.3-1.9c0.3-1.4,0.9-2.2,2-0.7c0.7,1,1.5,0.6,2.3,0.4c0.9-0.3,1.5,0,1.7,0.8
			c0.3,0.9-0.3,1.3-1.1,1.5c-0.8,0.2-1.5,0.4-2.3,0.5c-0.7,0.1-0.7,0.6-0.7,1.1c0.1,0.7,0.5,0.5,0.9,0.4c1.2-0.3,2.5-0.1,3.6-0.7
			c1.4-0.8,2.1,0.2,2.5,1.2c0.6,1.2-0.6,1.4-1.3,1.7C524,107.1,523.1,107.5,522.2,107.8c-0.5-0.4,0.5-2.7-1.7-1.1
			C520.9,107.3,521.8,107.2,522.2,107.8z"/>
		<path style="fill-rule:evenodd;clip-rule:evenodd;fill:#010101;" d="M413.4,108.8c0-2.2,0-4.5-0.1-6.7c-0.1-1.1-0.6-2.5,1.1-2.4
			c1.2,0.1,2.2,1,2.1,2.5c-0.1,1.5-0.1,3-0.1,4.5c0,0.9,0.3,1.5,0.9,2.3c2.6,3.7,6.4,5.9,9.8,8.7c0.4,0.3,1.2,0.5,0.8,1.3
			c-0.4,0.8-1,0.1-1.5,0.1c-2.5,0.3-4.7-0.3-6.4-2.2c-1.1-1.2-2.1-2.5-3.6-4.2c0,2.2,0,4.1,0,5.9c0.1,2.2-0.8,3.8-2.6,5.1
			c-1.5,1-2.3,1-2.8-0.8c-0.1-0.5-0.4-0.9-0.7-1.5c2.8,0.5,3.1-1.2,3.1-3.2c0-2.8,0-5.6,0-8.5C413.1,109.4,413.1,109.1,413.4,108.8z
			"/>
		<path style="fill-rule:evenodd;clip-rule:evenodd;fill:#010101;" d="M373.6,85.2c-0.1-1.6,0.8-2.5,1.5-3.5
			c2.8-3.7,5.7-7.3,8.6-10.9c0.5-0.6,0.9-1.6,1.9-0.9c0.8,0.7,1.6,1.6,0.9,2.8c-0.5,0.8-1.1,1.5-1.7,2.3c3.6,3,7.3,5.9,11.9,7.3
			c0.4,0.1,0.9,0.3,1.1,0.6c0.6,0.7,2.2,0.5,1.9,1.7c-0.3,1.3-1.5,0-2.3,0.3c-5.2,1.9-8.1-1.9-11.2-4.7c-3.3-3-3.2-3.1-6.3,0
			c-1.1,1.1-1.9,2.6-3.4,3.4C375.7,84.2,374.7,84.7,373.6,85.2z"/>
		<path style="fill-rule:evenodd;clip-rule:evenodd;fill:#010101;" d="M233.9,75.1c2.9-1.1,6-1.6,8.8-2.8c1-0.4,1.9,0,2.3,1
			c0.4,1.1-0.5,1.6-1.4,1.8c-1.7,0.3-2.1,1.3-2.1,2.9c0,1.1,0,2.3-0.5,3.2c-1.1,2-0.1,3,1.5,4c1.6,1,3.3,2.1,4.9,3.2
			c0.3,0.2,0.8,0.6,0.6,1c-0.2,0.5-0.8,0.1-1.1,0.2c-3.3,0.9-5.5-0.9-7.6-2.9c-0.6-0.5-0.9-0.4-1.5,0c-3,2.1-6.4,2.4-10.1,1.9
			c0.8-1,1.9-0.9,2.8-1.2c1.4-0.5,2.9-0.8,4.3-1.5c0.9-0.4,2.2-0.9,2.2-2.1c-0.1-1.2-0.9-2.3-2.2-2.6c-0.8-0.2-1.6-0.7-1.2-1.7
			c0.3-0.9,1.1-1.1,2-0.6c0.3,0.2,0.7,0.3,1,0.5c0.7,0.4,1.3,0.9,2,1.4c0.5-0.6,0.5-1.3,0.6-2c0.2-1.5,0.2-2.4-1.8-1.6
			C235.4,77.9,234.5,76.7,233.9,75.1L233.9,75.1z"/>
		<path style="fill-rule:evenodd;clip-rule:evenodd;fill:#010101;" d="M316.7,108.9c1.5-0.2,3-0.4,4.5-0.7c1.7-0.4,2.2,0.4,2.1,1.8
			c-0.1,1-0.3,2.2-0.9,2.9c-1.7,1.9-1.5,4.5-2.5,6.6c-0.8,1.7,0,2.4,1.7,2.5c2.4,0.1,3.2-0.6,4.6-4.6c0.3,1.6,0.7,2.7,1.3,3.8
			c0.8,1.5-0.5,2.3-1.6,2.8c-1.9,0.9-4,0.9-6,0.4c-1.8-0.5-2.3-2.1-2.2-3.8c0.1-1.3,0.4-2.5,0.8-4.4c-2.9,2.9-5.2,5.6-8.6,7.5
			c0.7-2.2,2.3-3.2,3.4-4.7c0.4-0.6,0.2-1.1,0.3-1.7c0.1-2.6-2-5-0.8-7.7c0.1-0.1,0.2-0.1,0.2-0.2
			C314.1,108.9,315.4,109.1,316.7,108.9z"/>
		<path style="fill-rule:evenodd;clip-rule:evenodd;fill:#010101;" d="M234,75.1c-1,0.8-1.6,2.1-1.6,3.1c-0.1,1-0.7,1.3-1.2,1.8
			c-0.5,0.4-1,0.8-1.4,1.4c0.9-0.3,0.8-1.1,1.4-1.5c1.3,0.1,1.9,0.9,2.2,2.1c0.2,0.8-0.2,1.6-0.7,1.6c-2.8,0.2-4.8,2.3-7.3,3.1
			c-1.1,0.3-1.7,0-2.2-0.8c-0.6-1.2,0.7-1.2,1.3-1.5c0.6-0.3,1.2-0.5,1.8-0.7c1.1-0.3,1.1-1.1,0.8-1.9c-0.3-0.9-1-0.3-1.4,0
			c-0.8,0.6-1.2,0-1.5-0.6c-1.3-2.4-1.4-5-1-7.6c0.1-1,0.7-1.4,1.9-0.9c1.4,0.6,2.4,0.1,2.5-1.7c0.1-0.9-0.5-2.6,0.8-2.7
			c1.7-0.1,1.6,1.5,1.5,2.8c-0.1,0.9,0.2,1.1,1.1,1.1C234,72,234.1,72.1,234,75.1C233.9,75.1,234,75.1,234,75.1z"/>
		<path style="fill-rule:evenodd;clip-rule:evenodd;fill:#010101;" d="M366,76.8c1.3-0.1,2.7-0.1,4-0.7c1.4-0.6,2,0.8,2.4,1.8
			c0.5,1.3-0.5,1.4-1.4,1.4c-2.7-0.1-3,2.1-3.8,3.9c-0.8,1.8-0.6,2.8,1.4,3.5c1.6,0.5,3.1,1.5,4.6,2.4c0.3,0.2,0.7,0.3,0.6,0.8
			c-0.1,0.3-0.3,0.4-0.6,0.5c-2.7,1-5.1,0.3-7.2-1.5c-0.8-0.7-1.5-0.8-2.5-0.4c-2.2,0.8-4.6,0.8-7,0.6c1.7-0.5,3.3-1.1,5-1.6
			c1.2-0.4,1.6-0.8,0.8-2.3c-0.9-1.4-2.6-1.5-3.3-2.8c-0.3-1.3,0.6-1.4,1.5-1.6c2-0.5,4.1-0.9,5.9-2c0.5-0.2,0.9-0.3,1.5-0.2
			c-0.7-0.3-1.2-0.1-1.7,0.2c-1.7,0.4-3.4,0.7-5,1.2c-1.2,0.4-2.3,1-2.4,2.4c-0.5,0.5-0.7,1.5-1.5,1.3c-0.9-0.3-0.7-1.3-0.7-2.1
			c0.1-0.6,0.2-1.3,0.3-1.9c0.2-1-0.1-2.2,1.8-1.4c0.9,0.4,2.3-0.5,3.5-0.7C363.1,76.2,364.7,77.3,366,76.8z"/>
		<path style="fill-rule:evenodd;clip-rule:evenodd;fill:#010101;" d="M490,118.3c-0.6,0.4-0.9,1.3-1.9,0.5
			c-0.8-0.7-1.7,0.3-2.5,0.6c-1,0.3-2,0.8-3,1.3c-0.7,0.3-1.2,0.2-1.8-0.3c-0.7-0.7-0.2-1.1,0.2-1.7c0.5-0.8,0.8-1.6,1.3-2.6
			c-0.3,0-0.5-0.1-0.7-0.1c-1.1,0.4-2.4,0.9-2.9-0.7c-0.5-1.7,1.3-1.3,2-1.5c1.7-0.5,2.4-0.9,2.1-3c-0.4-3.1-0.2-6.2,0.6-9.3
			c0.2-0.9,0.4-2.4,1.9-0.7c0.7,0.8,1.8,0.3,2.7,0c1-0.4,1.6,0,1.9,0.8c0.4,1.1-0.7,1-1.3,1.2c-0.7,0.2-1.4,0.3-2.1,0.4
			c-0.9,0.1-1.6,0.5-1.3,1.5c0.3,1,1.1,0.3,1.6,0.1c1.2-0.4,2.2-0.8,2.8,0.8c-0.5,1.6-2,1.4-3.3,2.1c0,0,0.1,0.1,0.3,0
			c1.2-0.1,2.7-0.8,3.1,0.8c0.4,1.5-1.3,1.6-2.3,2c-0.5,0.2-1,0.3-1.5,0.6c0.8,0.3,1.5-0.1,2.2-0.2c0.9,0,1.6,0.2,1.8,1.2
			c0.2,0.9-0.4,1.3-1.1,1.6c-0.7,0.3-1.4,0.2-2.1,0.5c-0.7,0.7-1.5,1.4-1.9,2.4c1.8,0.1,1-2,2.1-2.5
			C489.4,114.2,490.5,115.6,490,118.3z"/>
		<path style="fill-rule:evenodd;clip-rule:evenodd;fill:#010101;" d="M382.8,104c-1.1,0.2-2.2,1.3-3.6,0.2c2-1.9,4.4-3.1,6.7-4.3
			c1.1-0.5,1.5,0.3,1.8,1c0.3,0.7,0.1,1.2-0.8,1.4c-0.7,0.1-1.6,0.2-1.2,1.3c0.3,0.8-0.8,2,1,2.3c1.4,0.3,1.4,1.5,0.5,2.5
			c-0.3,0.4-0.8,0.6-1.1,1c-1.2,1.2-0.9,2.6,0.6,3.3c0.7,0.3,1.3,0.7,1.2,1.6c-0.1,1-0.8,1.1-1.5,1c-1-0.1-1.1,0.3-1.1,1.1
			c0,1.5,0,3,0,4.6c0,0.6,0,1.3-0.2,1.9c-0.2,0.6-0.6,1.4-1.3,1.2c-0.5-0.1-0.7-0.9-0.7-1.5c0-2.4,0-4.7,0-7.4
			c-1.8,1.1-3,2.6-4.6,4.2c0.3-3.5,2.6-5.4,3.6-8c-0.2-0.6-0.7-0.2-1.1-0.3c-1-0.2-1.9-0.8-2-1.7c-0.2-1.1,0.9-1.4,1.7-1.6
			C382.7,107.2,383.6,106.2,382.8,104z"/>
		<path style="fill-rule:evenodd;clip-rule:evenodd;fill:#020202;" d="M292.5,115.7c1.3,1.5,2.3,2.9,3.8,0.5c0.3-0.5,0.9-1,1.6-0.8
			c0.4,0.1,0.6,0.5,0.7,1c0.2,1.1-0.8,1-1.4,1.4c-0.4,0.3-0.9,0.5-1.4,0.8c1.7,1.8,4,2.3,5.8,3.9c-4.6,0.8-4.6,0.8-8.5-2.3
			c-1.1,1.1-2.1,2.4-3.5,3.2c-1,0.6-1.8,0.9-2.6-0.3c-0.8-1.3-0.1-1.5,1-1.9c1.2-0.4,0.2-1.6,0.7-2.7c-1.6,0.9-2.9,1.6-4.1,2.2
			c-0.2,0.1-0.4,0-0.8,0.1c0.8-1.8,2.4-2.5,3.6-3.6c0.9-0.8,1.4-1.4,0.8-2.9c-1.1-2.6-0.4-3.5,2.3-3.9c2.1-0.3,4.1-0.1,6.2-0.7
			c1.4-0.4,1.8,0.8,1.7,1.9c-0.1,1.6-1.1,2.7-2.6,3.1C294.9,115.2,293.8,115.4,292.5,115.7z"/>
		<path style="fill-rule:evenodd;clip-rule:evenodd;fill:#010101;" d="M322.9,84.9c3.1-4.1,7-6.8,10.2-10.5
			c-0.9-0.4-1.7-0.9-2.6-1.1c-1-0.2-1.5-0.8-1.4-1.6c0.2-1,1.2-1.3,2.1-1c1.7,0.5,3.5,1.1,4.7,2.5c3.7,4,7.8,7.5,12.4,10.5
			c0.5,0.3,1.3,0.6,0.9,1.4c-0.4,0.7-1,0-1.5,0.1c-6,1-8.4-3.6-11.4-7.2c-1-1.2-1.7-1.5-3-0.3c-2.1,1.9-4.5,3.7-6.7,5.5
			C325.7,83.9,324.8,84.6,322.9,84.9z"/>
		<path style="fill-rule:evenodd;clip-rule:evenodd;fill:#010101;" d="M154.5,118.1c1.7-0.4,3.3-0.9,5-1.3c0.8-0.2,1.8-0.3,1.8-1.4
			c0-0.6,0.2-1.1-0.6-1.8c-1.1-1-1.6-0.2-2.3,0.2c-0.2,0.1-0.4,0.1-0.7,0.2c0-1.8,1-3.2,1.9-4.5c0.9-1.5,2.1,0,2.2,0.7
			c0.1,1.2,0.5,1.2,1.4,0.9c0.7-0.3,1.5-0.4,2.2-0.8c1.2-0.6,1.8,0.2,2.2,1.1c0.4,1-0.4,1.2-1.1,1.4c-0.5,0.2-1,0.2-1.4,0.5
			c-0.7,0.5-1,1.5-0.8,2.3c0.2,0.8,1,0.1,1.5,0.1c1.6-0.1,3.2-0.3,4.7-0.5c1.3-0.2,2.5,0.3,2.6,1.6c0.1,1.5-1.2,1.4-2.3,1.5
			c-1.3,0-2.6,0.2-3.9,0.3c-2.1,0.2-3.9,0.4-4.9,2.9c-1,2.4-3.5,3.6-5.9,4.6c1-2.2,3.3-3.6,4-6.1C158,119.6,155.1,122,154.5,118.1
			L154.5,118.1z"/>
		<path style="fill-rule:evenodd;clip-rule:evenodd;fill:#010101;" d="M458.1,76.8c-0.2,2.2,0.3,4.6-0.4,6.9c-0.6,2-1.2,2.2-2.8,0.9
			c-0.8-0.6-1.6,0.1-2.3,0.4c-2.2,0.8-2.7,0.6-3-1.7c-0.4-4.2-0.6-8.4,0.3-12.5c0.2-1,0.5-1.8,2-1.5c1.1,0.2,2.3-0.1,3.4-0.3
			c1.8-0.4,2.8,0.3,2.9,2.2C458.1,73,458.1,74.8,458.1,76.8z"/>
		<path style="fill-rule:evenodd;clip-rule:evenodd;fill:#010101;" d="M206.1,84.3c-0.8,1,0.3,1.2,0.7,1.6c0.7,0.8,1.7,1.4,1.4,2.7
			c-0.1,0.5-0.4,1-0.9,1.2c-0.7,0.3-0.7-0.4-1-0.8c-0.9-1.5-1.9-2.5-3.7-0.9c-0.7,0.6-1.6,0.8-2.7,0.9c0.7-0.9,1.5-1.8,2.4-2.9
			c-2.5-0.5-2.7-2-2-4c0.2-0.5,0.5-1.3-0.7-1.2c-1,0.1-1.7-0.6-1.7-1.6c0-0.9,0.9-1.1,1.6-1.2c1.4-0.1,1.8-1,2-2.3
			c0.4-2.3,0.6-4.6,1.5-6.8c0.2-0.6,0.4-1.5,1.2-1.3c0.7,0.2,1.1,0.9,1.1,1.7c0,1.9-0.6,3.7-1.1,5.5c-0.1,0.5-0.7,1.1,0.2,1.4
			c1,0.2,1.3-0.4,1.3-1.2c0-0.3,0-0.6,0-0.9c0-0.7-0.2-1.7,0.8-1.6c1,0.1,1.8,0.7,1.6,2.1c-0.5,2.2-0.8,4.5-1.2,6.7
			C206.6,82.5,206.9,83.6,206.1,84.3z"/>
		<path style="fill-rule:evenodd;clip-rule:evenodd;fill:#010101;" d="M256,105.4c-1.1,0.3-2.1,1-3.6,0.2c2.2-2,4.5-3.2,7-4.3
			c0.9-0.4,1.3,0.5,1.5,1.2c0.3,0.7,0,1.3-0.9,1.4c-0.8,0.1-1.5,0.2-1.2,1.3c0.2,0.7-0.5,1.6,1,1.9c1.4,0.3,1.4,1.5,0.5,2.5
			c-0.3,0.3-0.7,0.5-1,0.8c-1,1-1.6,1.8,0.4,2.4c0.8,0.2,1.6,0.6,1.4,1.6c-0.2,1-1,0.9-1.7,0.8c-1-0.1-1,0.5-1,1.2
			c0,1.6,0,3.2,0,4.8c0,0.6,0,1.3-0.2,1.9c-0.2,0.6-0.5,1.4-1.2,1.3c-0.7-0.1-0.8-0.9-0.8-1.5c0-2.3,0-4.6,0-7.2
			c-1.8,1-2.9,2.6-4.5,4c0.1-3,2.2-4.9,3.1-7.3c-0.4-0.2-0.9-0.3-1.3-0.5c-0.6-0.4-1.3-0.8-1.3-1.6c0-0.9,0.9-1.1,1.5-1.3
			C255.3,108.4,256.9,107.8,256,105.4z"/>
		<path style="fill-rule:evenodd;clip-rule:evenodd;fill:#010101;" d="M439.7,74.5c1.3,0.5,1.3,1.6,0.9,2.7c-0.4,1-0.6,2.1-1.2,3
			c-1.3,2-0.3,3,1.4,4c2.2,1.4,4.7,2.3,6.9,3.5c0.6,0.3,1.6,0.7,1.4,1.4c-0.2,0.9-1.1,0-1.6,0.3c-4.4,1.8-7.1-1.4-10.1-3.6
			c-0.7-0.5-1.1-0.8-1.9-0.2c-2.4,1.9-5.3,2.5-8.3,2.8c-0.6,0-1.3,0.6-1.7-0.4c2.6-1.1,5.4-2,7.9-3.5c0.7-0.4,1.8-0.8,1.5-1.8
			c-0.2-0.9-1-1.6-1.9-1.9c-0.6-0.2-1.3-0.3-1.9-0.5c-0.7-0.3-1.5-0.5-1.3-1.5c0.2-1,1-1.1,1.9-0.9c1.4,0.4,2.9,0.7,3.9,1.8
			c1.2,1.2,1.5,0.4,1.8-0.6c0.5-1.4,1-2.8,1.5-4.3C439.1,74.6,439.3,74.3,439.7,74.5z"/>
		<path style="fill-rule:evenodd;clip-rule:evenodd;fill:#010101;" d="M397.3,109.6c1.6,0.7,2.1,2.1,2,3.5c-0.2,2.2,1.2,4.7-1,6.7
			c-0.5,0.4,0.4,0.7,0.7,1.1c0.9,0.9,2.8,1.8,1.5,3.2c-1.5,1.5-2.5-0.3-3.3-1.4c-0.8-1.1-2.1-1.7-2.7-3.4c-1.1,2.9-3.9,3.3-5.5,5.3
			c-0.2-0.4-0.3-0.6-0.3-0.6c2.2-2.2,1.2-4.9,1.2-7.5c0-2,0-4,0.5-6c0.3-0.6,0.7-1,1.4-1.1C393.6,110.5,395.5,109.1,397.3,109.6z"/>
		<path style="fill-rule:evenodd;clip-rule:evenodd;fill:#010101;" d="M253,79c-0.6-0.3-1.1-0.8-0.8-1.6c0.2-0.6,0.8-0.7,1.4-0.8
			c0.9-0.1,1.9-0.1,2.8-0.2c0.5-0.1,1.3,0.2,1.3-0.7c0-0.6,0.1-1.4-0.2-1.6c-0.4-0.3-1.2-0.2-1.6,0.1c-0.7,0.5-1.3,1-1.9-0.1
			c-0.9-1.4-1.9-2.8-1.3-4.6c0.4-1.1,1.4-0.6,2.2-0.6c1.3,0,3,0.5,3.4-1.7c0.1-0.5,0.5-1,1-0.9c0.5,0,1,0.5,1.1,1
			c0.6,2.2,1.9,1.6,3.3,1c1.5-0.7,2,0.1,2,1.4c0.1,1.8-1.9,3.6-3.9,3.9c-0.6,0.1-1.6-0.4-1.7,0.8c0,0.6-0.1,1.4,0.2,1.6
			c0.7,0.5,1.5,0,2.3-0.1c1.1-0.1,0.2-0.7,0.1-1c-0.1-0.8,0.5-0.8,1-0.7c2,0.3,2.8,2.3,1.6,4.2C261,78,257,79.7,253,79z"/>
		<path style="fill-rule:evenodd;clip-rule:evenodd;fill:#020202;" d="M330.4,122.3c0.5-2.2,1-4.5,1.5-6.7c-0.7-0.1-0.7,0.3-0.9,0.6
			c-0.3,0.5-0.2,1.4-1.2,1.1c-0.8-0.2-0.8-1-0.9-1.6c-0.1-0.7,0.2-1.1,1-1.3c0.9-0.2,1.9-0.7,2.4-1.4c0.7-0.9,1.9-2.1,0.4-3.3
			c-0.8-0.7-1.9-1.2-1.1-2.3c0.7-1,1.7,0.2,2.6,0.5c0.8-2.8,0.8-6.4,5.1-5.6c0.5-0.7-0.1-0.9-0.3-1.2c-0.5-0.7-0.5-1.4,0.2-1.9
			c0.7-0.6,1.3,0,1.7,0.5c1.5,2.1,3.3,2.1,5.5,1.4c0.8-0.3,1.6-0.1,2.1,0.6c0.5,0.7,0.6,1.4-0.5,1.6c-1.9,0.4-3.9,0.2-5.7,1.6
			c-0.6,0.5-2.1-0.4-3.4-0.1c-1.3,0.3-1.9,1-2.3,2.2c-1.3,4.2-2.6,8.4-3.9,12.6c-0.4,1.4-1,2.5-1.8,3.6
			C330,123.2,330.2,122.7,330.4,122.3z"/>
		<path style="fill-rule:evenodd;clip-rule:evenodd;fill:#020202;" d="M175.2,89.5c0.5-2.2,1-4.5,1.5-6.7c-0.7-0.1-0.7,0.3-0.9,0.6
			c-0.3,0.5-0.2,1.4-1.2,1.1c-0.8-0.2-0.8-1-0.9-1.6c-0.1-0.7,0.2-1.1,1-1.3c0.9-0.2,1.9-0.7,2.4-1.4c0.7-0.9,1.9-2.1,0.4-3.3
			c-0.8-0.7-1.9-1.2-1.1-2.3c0.7-1,1.6,0.2,2.6,0.5c0.8-2.8,0.8-6.4,5.1-5.6c0.5-0.7-0.1-0.9-0.3-1.2c-0.5-0.7-0.5-1.4,0.2-1.9
			c0.7-0.6,1.3,0,1.7,0.5c1.5,2.1,3.3,2.1,5.5,1.4c0.8-0.3,1.6-0.1,2.1,0.6c0.5,0.7,0.6,1.4-0.5,1.6c-1.9,0.4-3.9,0.2-5.7,1.6
			c-0.6,0.5-2.1-0.4-3.4-0.1c-1.3,0.3-1.9,0.9-2.3,2.2c-1.3,4.2-2.6,8.4-3.9,12.6c-0.4,1.4-1,2.5-1.9,3.6
			C174.8,90.4,175,89.9,175.2,89.5z"/>
		<path style="fill-rule:evenodd;clip-rule:evenodd;fill:#020202;" d="M134.8,83.6c-0.1,1.4-0.3,2.9-0.3,4.3c0,1.8-1.2,2.4-2.6,3
			c-0.7,0.3-1-0.2-1-0.7c0.1-0.5-1.3-1-0.1-1.5c0.6-0.2,0.9-0.6,0.9-1.1c0-0.7,0.5-1.9-0.4-2c-0.9-0.1-2.5-0.1-2.5,1.6
			c0,0.4,0,0.7,0,1.1c0.1,1.1-0.7,1.7-1.5,1.8c-0.7,0.1-0.7-0.9-0.7-1.5c-0.1-3.8,0.4-7.5,1.2-11.2c0-0.1,0-0.2,0.1-0.2
			c1.4-1.6,3.4-0.2,5-1.2c0.7-0.4,1.4,0.9,1.5,1.7C134.5,79.7,134.9,81.6,134.8,83.6z"/>
		<path style="fill-rule:evenodd;clip-rule:evenodd;fill:#020202;" d="M523.5,124c-2,0.2-3.7,0.1-5.3,0.6c-1.7,0.5-2.3-0.2-2.6-1.6
			c-0.2-0.9-0.3-1.6-1.6-1.2c-0.9,0.3-1.5-0.6-1.6-1.4c-0.2-0.9,0.9-1,1.4-1c1.4,0,1.6-0.8,1.6-1.9c0-0.7,0.2-1.4,0.4-2.1
			c0.1-0.5,0.6-1.1,1.1-0.8c1.7,1,3.2,0.1,4.7-0.3c0.9-0.2,1.7-0.1,1.9,0.7c0.3,1-0.6,1.1-1.3,1.3c-1.3,0.3-2.5,0.6-3.8,0.8
			c-0.8,0.1-1,0.4-0.9,1.1c0.2,0.9,0.8,0.4,1.2,0.3c2.1-0.3,4.1-0.7,6.2-1c0.7-0.1,1.4-0.3,2.1,0.1c0.5,0.3,1,0.8,0.9,1.4
			c-0.1,0.6-0.7,0.6-1.2,0.7c-2.6,0.4-5.3,0.7-7.9,1.1c-0.4,0.1-1.4-0.3-1.1,0.8c0.2,0.8,0.9,0.7,1.4,0.6c1.4-0.1,2.7-0.3,4.1-0.4
			c1.1-0.1,2.8-0.4,2.8,1.2C525.9,124.9,524.1,123.7,523.5,124z"/>
		<path style="fill-rule:evenodd;clip-rule:evenodd;fill:#020202;" d="M151.4,116.8c1.2-0.9,1.9-2,2.2-3.5c0.2-0.3,0-0.7,0.4-0.9
			c0.3-2.1,1.7-4,1.7-6.2c0-0.8,0.8-0.7,1.3-0.8c0.9-0.2,1.8-0.4,2.8-0.5c0-0.8-2-1.3-0.7-2.4c1-0.8,2.1-0.2,2.7,0.7
			c1,1.4,2.1,1.4,3.5,1.1c0.7-0.1,1.5-0.2,2.1-0.1c0.7,0.2,1.3,0.8,1.3,1.5c0,0.9-0.8,1-1.4,0.9c-2.7-0.2-5.1,1.3-7.8,1.1
			c-1.2-0.1-2,0.5-2.4,1.8c-0.8,2.9-2.5,5.5-2.6,8.6c0,0,0.1-0.1,0.1-0.1c-0.9,0.5-0.9,1.6-1.2,2.3c-0.8,2.1-1.5,4.2-3.6,6.3
			c0.8-3.4,1.5-6.2,2.3-9C151.8,117.4,151.1,117.5,151.4,116.8z"/>
		<path style="fill-rule:evenodd;clip-rule:evenodd;fill:#020202;" d="M412.8,68.9c-1.3,0.8-2.7,1.5-4,3c1-0.2,1.7-0.3,2.4-0.4
			c0.7-0.1,1.4,0,1.6,0.8c0.2,0.8-0.4,1.1-1,1.4c-1,0.6-2.4,0.3-3.3,1.4c0.7,0.7,1.5,0.3,2.1,0.6c0.8,0.4,1.9,0.7,1.5,1.7
			c-0.5,1.3-1.5,0.7-2.4,0.3c-0.4-0.2-0.7-0.5-1.1-0.7c-0.4,0.8-0.1,2.3-1.5,2.3c-1.2,0-0.6-1.4-1-2.2c-1.8,1.7-3.1,3.7-5.5,5.2
			c0.7-2.6,2.3-4.3,3.7-6.4c-0.5,0-0.7,0-1,0c-0.8,0-1.7,0.2-1.9-0.9c-0.1-1.1,0.8-1.6,1.6-1.6c2.7,0,3.6-1.3,3.2-3.9
			c-0.1-1-0.4-2.6,1.1-2.6c1.8-0.1,1.4,1.6,1.5,2.9c0.9-0.3,1-1.1,1.6-1.6c0.5-0.4,0.9-1,1.7-0.8C412.9,67.6,412.8,68.3,412.8,68.9
			L412.8,68.9z"/>
		<path style="fill-rule:evenodd;clip-rule:evenodd;fill:#010101;" d="M213.4,79.5c-1.7,0.9-2.4,0.1-2.5-1.5
			c-0.1-0.9-0.1-1.7-0.1-2.6c0-1.2,0.3-2.3-1.2-3c-0.9-0.4-1.3-1.8,0.4-2c1.2-0.1,1.3-1,1.6-1.7c0.2-0.5,0.5-0.9,1.1-0.9
			c0.5,0,0.8,0.4,0.8,0.9c0,0.9,0.5,0.9,1.2,0.7c0.6-0.2,1.5,0,1.4-1.2c-0.1-0.7,0.2-1.4,0.9-1.5c0.8-0.1,1.5,0.4,1.6,1.2
			c0.1,0.6,0.6,0.8,0.9,1.1c0.6,0.5,0.7,1.5,0.3,1.7c-2.3,1.1-1.5,3.2-1.5,4.9c-0.1,3.2-0.2,3.3-3.4,3.6
			C214.4,79.4,213.9,79.6,213.4,79.5z"/>
		<path style="fill-rule:evenodd;clip-rule:evenodd;fill:#010101;" d="M283.3,115.2c0.9-0.1,1.4-1.1,2.4-1c0.6,1.2-0.1,2.1-0.8,2.9
			c-1.2,1.2-2.6,2.4-3.7,3.6c-0.8,0.8-1.3,0.6-1.9-0.1c-0.7-0.7-1.4-1.4-0.4-2.4c0.6-0.5,1.3-0.9,1.9-1.4c1.1-0.9,0.8-2.4-0.5-3
			c-0.8-0.4-1.7-0.8-1.7-1.8c0-0.8,0.8-1.1,1.4-1.5c2.1-1.3,2.1-2.7,0.1-4.2c-1.6-1.2-1.5-2.5,0.4-3.4c0.9-0.4,1.8-0.6,2.6-1
			c0.7-0.3,1.5-0.7,2.2,0.1c0.6,0.8,0.5,1.8,0,2.6c-0.3,0.5-1,0.9-1.4,1.4c-0.7,0.8-1.1,1.8,0.1,2.4c1.9,0.9,1.3,2.1,0.4,3.1
			C283.2,112.8,282.9,113.9,283.3,115.2z"/>
		<path style="fill-rule:evenodd;clip-rule:evenodd;fill:#020202;" d="M391.7,109.7c-0.4,0.3-0.6,0.9-1.3,0.9
			c-1.1-0.3-2.8,1.4-3.1-0.4c-0.3-1.6,1.8-1.3,2.9-1.7c0.9-0.3,1.9-0.4,3-0.7c-0.5-1-1.1-0.6-1.6-0.6c-0.8,0-1.3-0.3-1.4-1
			c-0.1-0.8,0.6-0.8,1.2-1c0.4-0.1,0.9-0.2,1.3-0.2c0.4-0.1,0.5-0.3,0.4-0.6c0-0.4-0.3-0.4-0.6-0.4c-0.5,0-1,0.1-1.5,0.1
			c-0.6,0-0.9-0.4-1.1-0.9c-0.2-0.6,0.4-1,0.8-1c1.6,0,2.7-0.6,3.2-2.2c0.2-0.5,0.8-0.7,1.3-0.2c0.9,0.8,1.8,1.4,3.2,1.1
			c0.2,0,0.6,0.5,0.6,0.8c0.1,0.7-0.4,1-0.9,1.3c-0.6,0.5-1.7-0.1-2,1c0.6,0.5,1.1,0,1.6-0.1c0.7-0.2,1.2,0,1.4,0.6
			c0.2,0.6-0.1,1.1-0.7,1.4c-0.8,0.6-2,0.2-2.9,1.2c1.6,0.3,2.9-0.2,4.3-0.3c0.7-0.1,1.5-0.2,2.2-0.1c0.7,0.1,1.1,0.6,1.1,1.4
			c-0.1,0.8-0.7,0.8-1.3,0.8c-1.4,0-2.9,0-4.3,0C395.5,109.7,393.7,110.3,391.7,109.7z"/>
		<path style="fill-rule:evenodd;clip-rule:evenodd;fill:#020202;" d="M265.1,78.8c0.4,1.1,1,1.8,2.2,1.1c0.7-0.4,1.2-0.5,1.7,0.1
			c0.5,0.6,0.5,1.3,0.2,2c-0.6,1.2-1.1,2.4-2.4,3c-0.3,0.4-0.7,0.6-1,1.1c0.6-0.5,1.2-0.7,1.9-0.4c2.1,1.2,3,2.9,2.2,4.3
			c-0.2,0.4-0.7,0.9-1.1,1c-0.7,0.2-0.8-0.5-0.9-1c-0.2-1.1-0.6-1.1-1.6-0.8c-1.6,0.5-3.4,0.6-5.1,1c-1,0.2-1.5-0.3-1.9-1
			c-0.3-2.1,1.4-1.9,2.5-2.2c-2-1-2.2-3-2.5-4.9c0-1.6,0.7-2.4,2.4-2.3c0.7,0.1,1.2-0.2,1.7-0.7C263.9,78.6,264.5,78.5,265.1,78.8z"
			/>
		<path style="fill-rule:evenodd;clip-rule:evenodd;fill:#010101;" d="M309.1,108.4c-1.9,1.5-0.7,3.8-1.4,5.5
			c0.6,0.4,0.9-0.1,1.3-0.2c0.3-0.1,0.6-0.7,1.1-0.1c0.3,0.4,0.2,0.8,0,1.2c-1.1,2.3-3.1,3.8-4.8,5.5c-0.9,0.8-1.6-0.2-2.2-0.8
			c-0.6-0.6-0.3-1.2,0.3-1.6c3-1.6,1.9-4.5,2.2-6.9c0.1-0.9-0.6-0.8-1.2-0.9c-0.9-0.2-1.4-0.9-1.5-1.6c-0.2-0.8,0.7-1,1.3-1.2
			c1.4-0.5,2.1-1.4,2-2.9c0-0.6,0.2-1.3,0.3-1.9c0.1-0.8,0.3-1.8,1.3-1.6c0.9,0.2,1.7,1,1.4,2.1c-0.3,1-0.6,1.8,0.9,2.2
			c0.8,0.2,1.1,1.1,0.4,2c-0.3,0.4-0.9,0.6-0.4,1.3C309.8,108.6,309.5,108.7,309.1,108.4z"/>
		<path style="fill-rule:evenodd;clip-rule:evenodd;fill:#020202;" d="M213.4,79.5c0.3-0.5,0.8-0.4,1.3-0.4
			c-0.3,1.5,0.7,1.8,1.8,1.7c1.1-0.1,2.2-0.2,3.2-0.5c1.1-0.3,1.8,0.4,2.4,1c0.8,0.9,0.1,1.6-0.8,1.9c-0.2,0.1-0.5-0.1-0.8-0.2
			c-4.5-0.6-4.5-0.6-4.5,3.9c0,2,0,3.8-2.4,4.7c-1.3,0.5-1.5-0.2-1.9-1c-0.3-0.7-0.7-1.5,0.7-1.5c0.8,0,0.8-0.7,0.8-1.3
			c0-0.9,0.1-1.9,0-2.8c0-0.5,0.4-1.4-0.8-1.3c-0.9,0.1-1.8,0.2-1.6,1.5c0,0.2,0.1,0.4,0.1,0.6c0.2,0.8,0.2,1.8-0.7,1.9
			c-0.8,0.1-0.9-1-0.8-1.7c0-0.8-0.1-1.2-1-1c-0.8,0.1-1.2-0.7-1.6-1.2c-0.2-0.4-0.3-0.8,0.1-1.2c1.3-0.3,2.6-0.8,3.9-1
			C212.2,81.5,213.1,80.9,213.4,79.5z"/>
		<path style="fill-rule:evenodd;clip-rule:evenodd;fill:#020202;" d="M352.5,75c-0.8,1.1-1.8,1.9-3.6,2.2c1.2-3.9,3.4-7,6.1-9.7
			c0.7-0.7,1.3-0.4,1.8,0.3c0.5,0.7,0.9,1.6,0.2,2.2c-2.6,2.2-1.6,5.3-2.1,8.1c-0.5,2.9-0.3,5.9,0,8.9c0.1,0.7,0.3,1.5,0.1,2.2
			c-0.2,0.9-1,1.6-1.8,1.6c-0.7,0-0.7-0.9-0.8-1.6c-0.4-4.4,0-8.8,0.6-13.2C353,75.4,353.3,74.9,352.5,75z"/>
		<path style="fill-rule:evenodd;clip-rule:evenodd;fill:#020202;" d="M259.1,89.3c-2.6-0.2-4.8,1.2-7.3,1.6c-0.5,0.1-1,0.2-1.5,0.2
			c-0.7,0-1-0.5-1.2-1.1c-0.2-0.8,0.5-0.9,1.1-1c0.8-0.2,1.7-0.3,2.5-0.4c0.5-0.1,0.7-0.3,0.7-0.9c-0.1-0.7-0.5-0.5-0.9-0.5
			c-2.2,0.1-4.2-2.7-3.5-4.8c0.2-0.6,0.6-1.1,1.3-0.8c2.4,1.1,3.2-0.3,3.7-2.2c2,0.4,3.8,1.3,5.6,2.4c0.1,0.1,0.1,0.3,0.1,0.4
			c-0.2,2.7-0.7,3.4-3,4.4C258.8,86.5,259.3,87.1,259.1,89.3z"/>
		<path style="fill-rule:evenodd;clip-rule:evenodd;fill:#020202;" d="M133.9,71.8c1.7-0.8,2.6-2.5,3.7-3.8c0.5-0.7,1-1.3,1.9-0.9
			c0.4,0.2,0.9,0.5,1.1,0.9c0.3,0.6-0.3,0.9-0.7,1.1c-1,0.6-2,1.2-3,1.8c-0.2,1,0.4,0.6,0.9,0.5c1.8-0.3,3.7,0.1,5.6-0.4
			c1.1-0.3,1.7,0.5,2.4,1.1c0.4,0.4,0.3,0.9-0.1,1.4c-0.7,0.9-1.4,0.2-2.2,0.2c-5.3-0.3-10.5,0.2-15.6,1.8c-0.8,0.3-1.6,0.6-2.5,0.7
			c-1.3,0.3-1.9-0.6-2.2-1.6c-0.3-1.2,0.8-1.2,1.5-1.4c2.1-0.4,4.2-1.1,6.4-1C132.1,71.5,133.1,72.2,133.9,71.8z"/>
		<path style="fill-rule:evenodd;clip-rule:evenodd;fill:#020202;" d="M309.1,108.4c0.3,0,0.7,0,1-0.1c0.8-0.3,1.6-0.6,2.4-0.8
			c2.3-0.7,2.8-1.9,1.5-3.9c-0.8-1.2-0.7-1.7,0.9-1.8c0.6-0.1,2.3,0.7,1.7-1.5c-0.3-0.9,1.1-0.9,1.6-0.4c0.8,0.8,1.5,1.4,2.8,0.8
			c0.5-0.3,1.1,0.3,1.4,0.8c0.4,0.6,0,1.1-0.4,1.2c-1.5,0.5,0.8,2.2-1.2,2.5c1.3,0.3,2.3,0.3,3.4,0c0.9-0.2,1.9,0.1,2,1.1
			c0.1,1.3-1,0.9-1.7,0.8c-3,0-5.9,0.6-8.7,1.4c-0.8,1-2.1,0.7-3.1,1.3c0,0,0.1-0.1,0.1-0.1c-0.6,0.2-1.2,0.4-1.8,0.6
			C309.3,110.6,309,109.6,309.1,108.4z"/>
		<path style="fill-rule:evenodd;clip-rule:evenodd;fill:#030303;" d="M438.4,102.3c0-1.1-1.2-2,0.1-2.6c1-0.4,1.7,0.4,2,1.2
			c0.5,1.2,1.3,1.3,2.4,1.2c1.6-0.3,3.3-0.2,4.9-0.5c1.6-0.3,2.3,1.6,2.8,2.8c0.4,1-0.9,1.3-1.7,1.5c-1,0.2-2.1,0.2-3.2,0.3
			c0.1-1.1,1.3-1.5,1.5-2.8c-2.3,0.3-4.5-0.3-6.6,0.8c-0.3,0.2-0.7,0.4-1,0.1c-1.5-1.4-3-0.1-4.5-0.1c-1.1,0-1.9,0.4-1.8,1.8
			c0.1,0.5-0.2,1.1-0.5,1.6c-0.2,0.5-0.8,0.7-1.3,0.5c-0.5-0.2-0.8-0.6-0.7-1.2c0-0.1,0-0.3,0.1-0.4c0.6-1.4,0.3-3.2,0.9-4.4
			c1-1.7,2.4,0.9,3.9,0.2C436.4,102,437.4,102.3,438.4,102.3z"/>
		<path style="fill-rule:evenodd;clip-rule:evenodd;fill:#E6E6E6;" d="M490,118.3c-0.1-2.6-1.3-4-3.5-3.9l0,0
			c0.8-0.4,1.5-0.8,2.3-1.2c0.5-0.2,0.9-0.6,0.7-1.2c-0.2-0.6-0.7-0.9-1.4-0.7c-0.7,0.2-1.4,0.4-2.1,0.6c-0.4,0.1-1,0.6-1.2-0.3
			c-0.2-0.7-0.1-1.2,0.9-1.3c0.9-0.1,1.8-0.5,2.7-0.8c0.6-0.2,1.2-0.3,1-1.1c-0.2-0.6-0.7-0.9-1.4-0.8c-0.5,0.1-1,0.5-1.4,0.5
			c-0.6,0-1.4,0.8-1.7-0.1c-0.4-1,0.6-1,1.3-1.2c1.2-0.3,2.4-0.4,3.3-1.4c0.2,0.2,0.3,0.4,0.5,0.6c-0.2,1.7,0.8,2.5,2.7,2.1
			c0.5-0.1,1.2-1,1.6,0c0.3,0.9-0.7,0.8-1.2,1.1c-0.5,0.2-1.3,0-1.3,0.8c0,0.8,0.6,1.3,1.4,1.5c0.4,0.1,1-0.5,1.2,0.4
			c0.1,0.8-0.6,0.7-1,0.9c-0.5,0.3-1.5-0.1-1.3,1c0.1,0.8,0.6,1.3,1.4,1.3c0.4,0,0.9-0.1,0.9,0.6c0,0.5-0.5,0.4-0.8,0.5
			c-0.6,0.1-1.3,0.3-1.9,0.3c-1.2,0.1-1.5,0.7-1.2,1.7C490.3,118.3,490.1,118.3,490,118.3z"/>
		<path style="fill-rule:evenodd;clip-rule:evenodd;fill:#040404;" d="M288.7,107.5c-1.7-0.9-2.8-3.8-2-5.3c0.2-0.4,0.7-0.9,1-0.7
			c1.7,1,3.1-0.2,4.5-0.6c1.9-0.5,3.7-0.3,5.6-0.4c1-0.1,1.4,0.4,1.4,1.4c0,2.4-1.2,3.3-3.6,3.4c-2,0.1-3.9,0.8-5.9,1.2
			c-1.2-0.5-0.6-1.2-0.3-1.9C288.6,105.5,289.4,106.7,288.7,107.5z"/>
		<path style="fill-rule:evenodd;clip-rule:evenodd;fill:#020202;" d="M401.3,90.4c1.1-1.8,2.6-2.9,3.2-4.4
			c-0.1-0.5-0.4-0.4-0.7-0.3c-1.2,0.3-2.7,0.3-2.9-1c-0.3-1.6,1.5-1,2.4-1.5c0.8-0.5,2.1-0.1,2.2-1.7c0-0.7,0-1.8,1-1.9
			c1.3,0,1,1.3,1.3,2.2c0.6-0.2,1.2-0.4,1.8-0.5c0-0.8-1.4-0.8-0.9-1.8c0.1-0.2,0.6-0.4,0.9-0.4c0.8,0.1,1.1,0.6,1.6,1.3
			c1.6,2.3,0,2.9-1.5,3.5c-1.8,0.6-3,1.3-3.5,3.4C405.6,89.3,403.5,89.8,401.3,90.4z"/>
		<path style="fill-rule:evenodd;clip-rule:evenodd;fill:#030303;" d="M413.4,108.8c0,0.3,0,0.6,0,1c-1.7,1.6-2.6,3.7-4,5.6
			c-1.4,2-3.2,3.6-5.6,4.5c1-1.7,2.1-3.3,3.1-5c0.7-1.2,1.4-2.4,2-3.6c0.2-0.4,0.7-0.9,0.1-1.3c-0.4-0.3-0.7,0.3-1.1,0.4
			c-0.8,0.4-1.6,1-2.5,1.3c-1.2,0.4-1.7-0.6-2-1.5c-0.4-1.1,0.5-1.3,1.4-1.4c1.8-0.1,3.6-0.4,5.3-1.1
			C411.6,107,412.4,108.2,413.4,108.8z"/>
		<path style="fill-rule:evenodd;clip-rule:evenodd;fill:#020202;" d="M137,88.5c2.6,0.6,3.1-0.5,3-2.2c-0.1-3.3,0.1-6.6-0.3-9.9
			c-0.1-0.7-0.7-1.7,0.5-1.9c1-0.2,2,0.6,2.1,1.5c0.1,4.4,0.8,8.9,0,13.4c-0.3,1.7-1.9,2.2-3.1,2.3C137.9,91.6,138.1,89.8,137,88.5z
			"/>
		<path style="fill-rule:evenodd;clip-rule:evenodd;fill:#040404;" d="M362,77c-0.8-0.2-1.7-0.4-1.7-1.3c0-1.1,1.1-0.9,1.6-1
			c2.6-0.5,4.5-1.5,4.7-4.6c0.1-1.3,0.1-2.1-1.5-1.3c-0.9,0.4-1.9,0.7-2.8,1c-0.9,0.3-1.5-0.2-1.7-1.1c-0.2-1,0.5-1.3,1.2-1.4
			c2-0.3,4-0.5,6-0.6c1.3-0.1,1.8,0.9,1.6,2c-0.5,3.3-1.4,6.4-5.1,7.6C363.5,76.8,362.8,77.2,362,77z"/>
		<path style="fill-rule:evenodd;clip-rule:evenodd;fill:#030303;" d="M439.7,74.5c-0.3,0.1-0.5,0.3-0.8,0.4c-1-1-2,0-2.9,0.2
			c-1.3,0.2-2.5,0.7-3.7,1.2c-1.1,0.5-2,0.1-2.9-0.4c-0.5-0.3-1-0.7-1-1.3c0-0.8,0.8-0.7,1.3-0.9c3.6-1.4,7.5-1.9,11.3-2.7
			c0.7-0.2,1.4-0.2,2.1,0.2c0.6,0.4,1.1,0.8,1,1.5c-0.1,0.9-0.8,0.8-1.5,0.9C441.6,73.8,440.5,73.6,439.7,74.5z"/>
		<path style="fill-rule:evenodd;clip-rule:evenodd;fill:#020202;" d="M457.6,102.8c0.1-1.2-0.2-2.7,2.1-1.8c1.1,0.4,2.5,0,3.8-0.3
			c1.7-0.4,2.3,0.4,2.1,2.1c-0.4,3.4-2.8,4.5-5.5,5.5c-0.6,0.2-0.9-0.3-1.2-0.7C458,106.1,457.6,104.5,457.6,102.8z"/>
		<path style="fill-rule:evenodd;clip-rule:evenodd;fill:#030303;" d="M469.5,100.5c0.9-0.2,1.8-0.2,2.6-0.6
			c0.7-0.3,1.2-0.3,1.7,0.2c0.6,0.6,0.7,1.2,0.3,2c-0.2,0.5-0.4,1.1-0.7,1.6c-0.4,0.8-0.6,1.4,0.6,1.7c0.6,0.1,1.1,0.8,1.2,1.4
			c0.1,0.6,0,1.2-0.6,1.5c-0.6,0.3-1-0.1-1.2-0.6c-0.9-1.9-2.1-2.6-4-1.3c-0.1,0.1-0.3,0.1-0.4,0.1c-1.5-1.1-1.5-2.8-1.5-4.5
			C467.6,100.9,467.8,99.7,469.5,100.5z"/>
		<path style="fill-rule:evenodd;clip-rule:evenodd;fill:#030303;" d="M310.2,75.5c0-3.1,1-5.5,2.2-7.9c0.4-0.9,1-0.6,1.6-0.5
			c0.7,0.1,1.2,0.6,1,1.4c-0.1,0.5-0.4,1-0.6,1.7c1.5-0.2,2.7-0.5,3.7-1.3c0.9-0.6,1.6-0.4,2,0.4c0.5,0.9,0,1.5-0.9,1.8
			c-1.8,0.5-3.5,1.3-5.6,1.4C312.6,72.6,311.6,74.3,310.2,75.5z"/>
		<path style="fill-rule:evenodd;clip-rule:evenodd;fill:#060606;" d="M36.8,62.3c-1.2-2.2-3.1-2.7-5.4-2.2
			c-1.7,0.3-3.4,0.1-3.6-2.1c-0.2-2.4,1.9-2,3.2-2.1c1.8-0.2,3.4-0.2,3.2-2.8c-0.1-1,0.5-2.2,1.7-2.2c1.4-0.1,2.5,0.7,3.2,1.8
			c0.5,0.8,0.5,2.1,2,1.6c3.2-1,1.8,0.9,1.4,2.2c-0.9,1.8-2.5,3-3.3,4.8C38.8,62.3,37.8,62.6,36.8,62.3z"/>
		<path style="fill-rule:evenodd;clip-rule:evenodd;fill:#040404;" d="M186.6,105.5c0,0.1,0,0.3-0.1,0.4c-1.7,1-2.7,2.4-3.3,4.2
			c0,0.1-0.7,0.2-0.7,0.1c-0.6-1.3-2.1-1.4-3-2.3c-0.6-0.6-1.3-2,0.5-2.2c1.4-0.2,0.9-1.2,1.2-1.9c0.2-0.7,0.3-1.6,1.2-1.6
			c0.9,0,1.6,0.6,1.6,1.4c-0.1,1.5,0.7,1.4,1.7,1.2C186,104.8,186.5,104.9,186.6,105.5z"/>
		<path style="fill-rule:evenodd;clip-rule:evenodd;fill:#050505;" d="M290.1,107.5c2.7-0.3,5.4-0.6,8.2-0.9
			c0.6-0.1,1.3-0.2,1.9,0.3c0.4,0.4,0.7,0.8,0.6,1.3c-0.1,0.5-0.6,0.6-1,0.5c-4.2-0.2-8.3,0.2-12.3,1.7c-0.7,0.3-1.6,0.3-1.8-0.6
			c-0.3-1,0.5-1.3,1.3-1.5c0.6-0.2,1.3-0.3,1.9-0.5C289.1,107.6,289.7,107.9,290.1,107.5z"/>
		<path style="fill-rule:evenodd;clip-rule:evenodd;fill:#E6E6E6;" d="M189.6,86.9c1.9-0.2,1.9-1.2,1.1-2.5c-0.7-1.1-2-1.6-3.5-2.2
			c1.8-1.1,3.6-1.3,5.3-1.4c0.6,0,0.9,0.4,0.9,1c0,0.8-0.1,1.6-0.2,2.4c-0.6,3.6-0.6,3.6-4.1,3.7C189.3,87.5,189.4,87.2,189.6,86.9z
			"/>
		<path style="fill-rule:evenodd;clip-rule:evenodd;fill:#F8F8F8;" d="M344.8,119.6c1.9-0.2,2-1.2,1.1-2.5c-0.7-1.1-2-1.6-3.5-2.2
			c1.8-1.1,3.6-1.3,5.3-1.4c0.6,0,0.9,0.4,0.9,1c0,0.8-0.1,1.6-0.2,2.4c-0.6,3.6-0.6,3.6-4.1,3.7C344.5,120.3,344.6,120,344.8,119.6
			z"/>
		<path style="fill-rule:evenodd;clip-rule:evenodd;fill:#030303;" d="M166.5,120.2c2.5,0,4.9,3.3,3.9,5.4c-0.5,1.1-1,1.5-1.9,0.3
			c-0.9-1.3-1.8-2.8-3-3.9c-0.3-0.3-0.8-0.7-0.4-1.3C165.4,120.3,166,120.3,166.5,120.2z"/>
		<path style="fill-rule:evenodd;clip-rule:evenodd;fill:#090909;" d="M317.6,84.6c1.7,0.5,2.7,1.7,3.6,3.1c0.7,1,0.2,1.9-0.3,2.8
			c-0.6,1-1.1,1-1.6,0c-0.8-1.5-1.6-3-2.5-4.5C316.1,84.9,316.8,84.8,317.6,84.6z"/>
		<path style="fill-rule:evenodd;clip-rule:evenodd;fill:#090909;" d="M203.2,125.7c0.1-0.9,1-0.6,1.4-1.1c0.4-0.5,0.8-1,0.8-1.7
			c-0.1-0.1-0.2-0.3-0.2-0.3c-1.3,0-2.4-0.3-2.4-1.9c0-1.1,0.6-1.8,1.8-1.7c1.4,0.1,1.9,1.2,2,2.4
			C206.9,123.9,205.4,125.7,203.2,125.7z"/>
		<path style="fill-rule:evenodd;clip-rule:evenodd;fill:#090909;" d="M151.3,90.6c1.4-0.9,2.7-1.4,2.7-2.8
			c-0.1-0.1-0.2-0.3-0.2-0.3c-1.3,0-2.4-0.3-2.3-1.9c0-1.1,0.6-1.8,1.8-1.7c1.4,0.1,1.9,1.2,2,2.4C155.5,88.7,154,90.6,151.3,90.6z"
			/>
		<path style="fill-rule:evenodd;clip-rule:evenodd;fill:#060606;" d="M434.8,71.4c1.2-1.3,0.2-1.8-0.3-2.3
			c-0.6-0.6-1.1-1.3-0.6-2.1c0.5-0.7,1.4-0.5,2-0.3c0.7,0.2,1.4,0.7,2.1,1.1c0.8,0.4,0.7,1.2,0.6,1.9c-0.1,0.9-0.8,0.9-1.4,1
			C436.5,70.9,435.9,71.1,434.8,71.4z"/>
		<path style="fill-rule:evenodd;clip-rule:evenodd;fill:#0B0B0B;" d="M418.5,108.8c1.4-1.5,2.7-2.9,4.1-4.4
			c0.4-0.4,0.8-0.7,1.3-0.3c0.6,0.5,1.1,1.1,1.1,2c0,0.5-0.2,1.2-0.8,1.2C422.1,107.2,420.3,108.1,418.5,108.8z"/>
		<path style="fill-rule:evenodd;clip-rule:evenodd;fill:#E6E6E6;" d="M358.6,82.4c-0.3-1.5,0.3-2.4,1.8-2.8
			c1.9-0.5,3.9-1.2,5.9-1.2c0.1,0.1,0.2,0.2,0.1,0.3c0,0.1-0.1,0.2-0.1,0.2c-1.5,1.9-3.9,1.8-6,2.3c-0.8,0.2-1.3,0.3-1.5,1.2l-0.1,0
			L358.6,82.4z"/>
		<path style="fill-rule:evenodd;clip-rule:evenodd;fill:#0B0B0B;" d="M367.1,123.9c-0.3-0.2-0.5-0.4-0.7-0.6c-1-1-2-2-3.1-2.9
			c-0.5-0.4-0.6-0.7-0.2-1.2c0.4-0.4,0.6-0.8,1.2-0.3c1.2,1.1,2.5,2.1,3.7,3.2c0.3,0.2,0.4,0.6,0.1,0.9
			C367.9,123.2,367.5,123.5,367.1,123.9z"/>
		<path style="fill-rule:evenodd;clip-rule:evenodd;fill:#0A0A0A;" d="M138,81c0,0.3,0,0.4,0,0.6c0,1,0.4,2.6-1,2.6
			c-1.2-0.1-0.9-1.7-0.9-2.8c0-0.9,0-1.9,0.1-2.8c0-0.5,0.2-1.1,0.8-1.2c0.8-0.1,0.8,0.6,1,1.1C138.3,79.4,138,80.3,138,81z"/>
		<path style="fill-rule:evenodd;clip-rule:evenodd;fill:#090909;" d="M220.2,90c-0.2-0.3-0.5-0.5-0.6-0.8c-0.5-0.9-0.9-1.9-1.4-2.9
			c-0.2-0.4-0.7-0.9-0.3-1.3c0.4-0.5,1-0.3,1.6-0.1c2,0.9,2.7,3.1,1.5,4.5C220.8,89.5,220.5,89.7,220.2,90z"/>
		<path style="fill-rule:evenodd;clip-rule:evenodd;fill:#0D0D0D;" d="M433.4,111.4c0.2-1.9,1.3-3.2,2.3-4.6
			c0.5-0.6,1.1-0.9,1.9-0.7c0.4,0.1,0.8,0.4,0.9,0.8c0.1,0.8-0.7,1-1.2,1.4C436,109.4,434.7,110.4,433.4,111.4z"/>
		<path style="fill-rule:evenodd;clip-rule:evenodd;fill:#EEEEEE;" d="M288.2,71c-0.2-1.4-0.9-1.7-2.1-1.1c-0.4,0.2-0.8,0.4-1-0.3
			c-0.1-0.5,0.2-0.7,0.6-0.9c1.1-0.5,2.7-0.3,2.9-2c0.3,0.2,0.6,0.3,0.8,0.5c-0.6,0.5-0.8,1-0.4,1.7c0.4,0.7,1.1,0.4,1.7,0.3
			c0.4-0.1,0.9-0.4,1,0.2c0.2,0.7-0.3,0.8-0.9,0.9c-0.9,0.1-1.9,0.1-2.5,0.9C288.4,71,288.3,71,288.2,71z"/>
		<path style="fill-rule:evenodd;clip-rule:evenodd;fill:#0A0A0A;" d="M307.1,71.4c-0.8-0.8-1.9-1.7-2.8-2.7c-0.3-0.3,0-0.7,0.3-0.9
			c1.3-0.8,2.1,0.2,3,0.8c0.9,0.6,1.2,1.4,0.7,2.4C308.1,71.4,307.9,71.6,307.1,71.4z"/>
		<path style="fill-rule:evenodd;clip-rule:evenodd;fill:#0B0B0B;" d="M241.2,70.4c0.1,0.8-0.6,1.6-1,1.4c-1.2-0.5-2.2-1.6-2.5-3
			c-0.1-0.5-0.1-1.1,0.6-1.1C239.2,67.6,241.2,69.5,241.2,70.4z"/>
		<path style="fill-rule:evenodd;clip-rule:evenodd;fill:#080808;" d="M364.9,70.4c0.3,0.1,0.7,0.1,0.9,0.4c0.3,0.4,0,0.9-0.4,1.1
			c-1.1,0.8-2.2,1.7-3.7,1.2c-0.5-0.2-0.8-0.9-0.6-1.3C362,70.7,363.5,70.7,364.9,70.4z"/>
		<path style="fill-rule:evenodd;clip-rule:evenodd;fill:#0A0A0A;" d="M445.6,108.1c-0.1,0.7-0.3,1.4-1,1.6c-0.5,0.1-2.6-2.5-2.4-3
			c0.1-0.7,0.7-1,1.3-0.8C444.6,106.1,445.4,106.9,445.6,108.1z"/>
		<path style="fill-rule:evenodd;clip-rule:evenodd;fill:#161616;" d="M133.9,71.8c-0.8,0.6-1.8,0.4-2.7,0.3c0.1-1-0.8-1.4-1-2.3
			c-0.3-1-0.3-2.1,0.8-2.3c0.9-0.2,1,0.9,1.2,1.7C132.5,70.3,131.8,72,133.9,71.8z"/>
		<path style="fill-rule:evenodd;clip-rule:evenodd;fill:#090909;" d="M410.3,88.5c-1-0.3-1.5-1.5-2.1-2.4c-0.3-0.3-0.3-0.9,0.2-1.1
			c0.9-0.4,1.6,0.1,2.2,0.6c0.7,0.6,0.9,1.5,0.6,2.4C411,88.3,410.8,88.5,410.3,88.5z"/>
		<path style="fill-rule:evenodd;clip-rule:evenodd;fill:#EDEDED;" d="M182.7,87.4c0-0.1-0.1-0.3-0.1-0.4c-1.1-3.2-1-3.4,2.4-4.2
			c-0.2,1.7-1.7,2.9-2,4.6l-0.2,0L182.7,87.4z"/>
		<path style="fill-rule:evenodd;clip-rule:evenodd;fill:#EDEDED;" d="M337.9,120.1c0-0.1-0.1-0.3-0.1-0.4c-1.1-3.2-1-3.4,2.4-4.2
			c-0.2,1.7-1.7,2.9-2,4.6l-0.2,0L337.9,120.1z"/>
		<path style="fill-rule:evenodd;clip-rule:evenodd;fill:#0C0C0C;" d="M405.4,71.8c-0.3,0-0.3,0.1-0.4,0.1c-1.4-0.6-2.5-1.4-2.1-3.2
			c0.1-0.4,0.4-0.9,0.9-0.7C405.6,68.8,405.3,70.4,405.4,71.8z"/>
		<path style="fill-rule:evenodd;clip-rule:evenodd;fill:#131313;" d="M151.4,116.8c0,0.4,0.9,0.2,0.6,0.8c-0.9,0.2-0.9,1.1-1.3,1.6
			c-0.3,0.4-0.4,1.2-1.2,1c-0.5-0.1-0.8-0.6-0.7-1.2c0.1-0.6-0.2-1.7,0.8-1.6C150.5,117.5,150.8,116.9,151.4,116.8z"/>
		<path style="fill-rule:evenodd;clip-rule:evenodd;fill:#E7E7E7;" d="M283.8,72.4c0.7-0.3,1.4-0.6,2.2-1c0,1.4,0,2.7,0,4
			c0,0.6-0.2,1.1-0.8,1c-0.8-0.1-0.5-0.7-0.4-1.2c0-0.5,0.3-1,0.4-1.5c0.2-1.1-0.4-1.2-1.3-1C283.8,72.6,283.8,72.5,283.8,72.4z"/>
		<path style="fill-rule:evenodd;clip-rule:evenodd;fill:#E7E7E7;" d="M391.7,109.7c1.9-0.3,3.8-0.5,5.7-0.8c0,0.2,0,0.5,0,0.7
			C395.5,109.8,393.6,111.5,391.7,109.7z"/>
		<path style="fill-rule:evenodd;clip-rule:evenodd;fill:#1A1A1A;" d="M154,112.5c0.1,0.4,0,0.7-0.4,0.9c-0.4,0-0.9,0.1-1.1-0.1
			c-0.6-0.5-1.5-0.8-1.6-1.9c0-0.5,0.3-0.9,0.7-0.9c1,0,1.3,0.9,1.5,1.7C153.3,112.7,153.7,112.6,154,112.5z"/>
		<path style="fill-rule:evenodd;clip-rule:evenodd;fill:#F0F0F0;" d="M290.1,107.5c-0.4,0.3-0.9,0.4-1.4,0.3c0-0.1,0-0.2,0-0.4
			c0.4-1.1,0.1-2.1,0-3.2c0-0.6,0.3-0.9,0.8-1.1c0.4-0.1,0.6,0.1,0.6,0.4c-0.1,0.5,0.8,1.1-0.2,1.4c-1.1,0.4-1.2,0.9-0.2,1.6
			C288.9,107.3,289.6,107.4,290.1,107.5z"/>
		<path style="fill-rule:evenodd;clip-rule:evenodd;fill:#C5C5C5;" d="M267.7,85.8c-0.4,0.2-1.4-0.4-1.2,0.6c0.1,0.7,0,0.9-0.6,1
			c-0.4,0.1-0.8,0.1-0.8-0.4c0-0.5-0.3-1.2,0.3-1.6c0.4-0.2,1-0.3,1.4-0.4C267.2,85.3,267.4,85.5,267.7,85.8z"/>
		<path style="fill-rule:evenodd;clip-rule:evenodd;fill:#D9D9D9;" d="M34.7,76.8c1.6,0.6,2.4-1.1,3.7-1.2c0.7,0,1.6-0.9,1.9,0.5
			c0.2,0.9-0.7,1.1-1.3,1.2c-1.7,0.3-3.3,0.5-5,0.8C34.2,77.7,34.5,77.2,34.7,76.8z"/>
		<path style="fill-rule:evenodd;clip-rule:evenodd;fill:#E6E6E6;" d="M288.6,81.5c0.1-0.8,0-1.5-1.1-1.3c-0.4,0.1-0.7,0-0.7-0.5
			c0-0.3-0.1-0.8,0.4-0.8c0.3-0.1,0.7-0.1,1,0.2c0.4,0.6,0.8,1.3,1.3,1.9C289.2,81.2,288.9,81.3,288.6,81.5z"/>
		<path style="fill-rule:evenodd;clip-rule:evenodd;fill:#D4D4D4;" d="M312.6,109.7c0.9-0.8,2-1.1,3.1-1.3c0.3,0.2,0.7,0.3,1,0.5
			C315.4,109.5,314.1,109.9,312.6,109.7z"/>
		<path style="fill-rule:evenodd;clip-rule:evenodd;fill:#C4C4C4;" d="M264.5,117.8c0.6,0.1,1.1,0,1.6-0.2c0.5-0.2,1.2-0.6,1.4,0.2
			c0.2,0.8-0.5,0.8-1.1,0.9c-0.3,0-0.7,0-1.1,0C265,118.3,264.7,118.1,264.5,117.8z"/>
		<path style="fill-rule:evenodd;clip-rule:evenodd;fill:#CECECE;" d="M207,82.7c0,0.4-0.1,0.8-0.1,1.2c-0.3,0.1-0.5,0.3-0.8,0.4
			c0.3-0.9,0.5-1.8,0.8-2.7C206.9,81.9,206.9,82.3,207,82.7z"/>
		<path style="fill-rule:evenodd;clip-rule:evenodd;fill:#5E5E5E;" d="M425.5,88.1c0.5,0.5,1.2,0.1,1.7,0.4
			c-0.5,0.4-1.2,0.5-1.8,0.3C424.7,88.7,425,88.3,425.5,88.1z"/>
		<path style="fill-rule:evenodd;clip-rule:evenodd;fill:#666666;" d="M330.4,122.3c0.2,0.3,0,0.8,0.5,0.9c0,0.5-0.3,1-0.6,0.7
			C329.7,123.5,330,122.8,330.4,122.3z"/>
		<path style="fill-rule:evenodd;clip-rule:evenodd;fill:#666666;" d="M175.2,89.5c0.2,0.3,0,0.8,0.5,0.9c0,0.5-0.3,1-0.6,0.7
			C174.5,90.7,174.8,90,175.2,89.5z"/>
		<path style="fill-rule:evenodd;clip-rule:evenodd;fill:#E4E4E4;" d="M288.2,71c0.1,0,0.2,0,0.3,0c0.3,1.9,1.8,0.6,2.8,1.1
			c-0.6,1.6-2.4,1.6-3.1,1.4C287,73.1,288.5,71.9,288.2,71z"/>
		<path style="fill-rule:evenodd;clip-rule:evenodd;fill:#CECECE;" d="M290.7,75c-0.5,1.5-1.6,1.1-2.5,1.2c-0.7,0.1-0.5-0.5-0.5-0.9
			c0-0.5,0.1-0.7,0.8-0.5C289.1,75,289.8,74.9,290.7,75z"/>
		<path style="fill-rule:evenodd;clip-rule:evenodd;fill:#E5E5E5;" d="M35.5,69.1c0-2.4,2.3-4.1,4.3-3.7c0.5,0.1,1,0.4,0.8,0.9
			c-0.2,0.5-0.6,1-1.1,1.2c-1.1,0.5-2.5,0.8-2.4,2.1c0.1,1.3,1.5,1.1,2.5,1.2c0.6,0.1,0.8,0.5,0.8,0.9c-0.2,0.9-1,0.9-1.6,0.9
			c-0.9,0-2.2,0.8-2.6-0.8C35.8,70.8,35.7,69.8,35.5,69.1z"/>
		<path style="fill-rule:evenodd;clip-rule:evenodd;fill:#E6E6E6;" d="M104.5,121.7c0-2.7,0-5.2,0-7.7c0-0.5,0-0.9,0.7-1.1
			c0.9-0.2,1.7-0.6,2.6-0.9c0.4-0.1,1.1-0.9,1.4,0.1c0.2,0.7,0.9,1.7-0.5,2.1c-0.8,0.3-1.6,0.6-2.4,1c-0.6,0.3-1.8,0.3-1.2,1.5
			c0.4,0.9,1.1,1.5,2.3,1.1c0.7-0.3,1.5-0.5,2.2-0.9c0.8-0.4,1.1-0.2,1.5,0.6c0.3,0.7,0.3,1.1-0.5,1.5
			C108.7,120.1,106.7,120.9,104.5,121.7z"/>
		<path style="fill-rule:evenodd;clip-rule:evenodd;fill:#E6E6E6;" d="M242.2,115.3c-3,0.2-6,0.7-9.4,0.2c1.6-1.6,3-3,4.3-4.4
			c0.6-0.6,0.9-0.1,1.2,0.2c1.3,1.1,2.6,2.3,3.9,3.4C242.3,115,242.2,115.1,242.2,115.3z"/>
		<path style="fill-rule:evenodd;clip-rule:evenodd;fill:#E6E6E6;" d="M237.1,122.1c-1.8,0.3-1.5-1.2-1.8-2.1
			c-0.4-1.1,0.3-1.3,1.3-1.4c0.7,0,1.4-0.4,2.1-0.3c0.8,0.1,2.2-1.2,2.3,0.1c0.1,1.2-0.3,2.9-2,3.4C238.4,122,237.8,122,237.1,122.1
			z"/>
		<path style="fill-rule:evenodd;clip-rule:evenodd;fill:#E6E6E6;" d="M233.2,105.4c2.8-2.5,2.8-2.5,5.5-1.8
			C236.3,107.5,237.5,107.1,233.2,105.4z"/>
		<path style="fill-rule:evenodd;clip-rule:evenodd;fill:#E6E6E6;" d="M86.6,83c0.6-0.1,1.1,0,0.9,0.7c-0.4,1.1-0.7,2.3-1.4,3.1
			c-0.8,0.9-2.4,0.9-3.4,0.5c-0.9-0.3-1-1.8-1.3-2.8c-0.1-0.4,0.2-0.6,0.6-0.7c0.7-0.1,1.4-0.3,2.1-0.4C84.9,83.3,85.7,83.2,86.6,83
			z"/>
		<path style="fill-rule:evenodd;clip-rule:evenodd;fill:#E6E6E6;" d="M470.9,117.1c0.7-0.2,1,0.1,0.8,0.8c-0.3,1,0.1,2.5-1.6,2.7
			c-1.1,0.1-0.9-0.9-1-1.5C468.9,117.6,469.8,117.2,470.9,117.1z"/>
		<path style="fill-rule:evenodd;clip-rule:evenodd;fill:#F4F4F4;" d="M462.3,117.1c0.4,0.8,0.1,1.5-0.1,2.2
			c-0.2,0.8-0.6,1.2-1.5,1.3c-0.7,0.1-0.9-0.3-0.9-0.9c0-0.7-0.4-1.6,0.7-2C461.1,117.5,461.7,117.3,462.3,117.1z"/>
		<path style="fill-rule:evenodd;clip-rule:evenodd;fill:#E9E9E9;" d="M267.5,115.3c-0.8,0.3-1.7,1.1-2.1-0.2c-0.3-1-1-2.4,0.5-3.2
			c0.4-0.2,1.1-0.4,1.4,0c0.4,0.6-0.3,0.8-0.7,1.1C264.3,114.5,267.1,114.4,267.5,115.3z"/>
		<path style="fill-rule:evenodd;clip-rule:evenodd;fill:#E6E6E6;" d="M271.8,113c-0.2-1.3-1.3-1.3-2.4-1.4c0.9-1.2,2.2-1,3.2-1.7
			C272.7,111.2,272.7,112.2,271.8,113L271.8,113z"/>
		<path style="fill-rule:evenodd;clip-rule:evenodd;fill:#E4E4E4;" d="M271.8,113c0.2,0.5-0.1,0.8-0.3,1.2c-0.4,0.5-0.8,1.1-1.5,1
			c-0.1,0-0.3-0.3-0.3-0.5c-0.1-0.8,0.7-0.7,1.2-1C271.1,113.4,271.5,113.2,271.8,113L271.8,113z"/>
		<path style="fill-rule:evenodd;clip-rule:evenodd;fill:#E6E6E6;" d="M189.4,119.3c-0.7,3.2-1.7,4-4,4.3c-1.6,0.2-1.4-1-1.8-1.8
			c-0.5-1.1,0.2-1.3,1.1-1.5C186.3,120,187.8,119.7,189.4,119.3z"/>
		<path style="fill-rule:evenodd;clip-rule:evenodd;fill:#E2E2E2;" d="M499.1,103.5c0.1,1.1-0.9,1-1.5,1.2c-0.6,0.2-0.7-0.2-0.7-0.7
			c-0.1-1.2,1-1,1.6-1.3C499.2,102.5,499.1,103.2,499.1,103.5z"/>
		<path style="fill-rule:evenodd;clip-rule:evenodd;fill:#E4E4E4;" d="M497.6,108.2c-0.4,0.1-0.6-0.1-0.6-0.4
			c-0.1-0.6,0.1-0.9,0.7-1c0.3-0.1,0.6-0.1,0.6,0.3C498.3,107.7,498,108,497.6,108.2z"/>
		<path style="fill-rule:evenodd;clip-rule:evenodd;fill:#E6E6E6;" d="M415.5,76.9c0.3-1.6,2.2-3,3.6-2.7c0.8,0.2,0.7,0.8,0.7,1.4
			c0,2.2,0,4.4,0,6.5c0,0.6,0.2,1.5-0.8,1.5c-1.1,0-2.3,0.5-3.4,0c-0.4-0.2-0.4-1.1,0.2-1.5c0.2-0.1,0.4-0.1,0.6-0.2
			c0.9-0.4,2.7-0.5,2.5-1.6c-0.3-1.5-1.7-0.5-2.7-0.3c-0.4,0.1-0.7,0.1-0.8-0.4c0-0.4,0-0.7,0.4-0.9c0.7-0.3,1.5-0.5,2.2-0.8
			c0.5-0.2,1-0.5,0.8-1.1c-0.2-0.8-0.9-0.7-1.4-0.6C416.9,76.4,416.2,76.6,415.5,76.9z"/>
		<path style="fill-rule:evenodd;clip-rule:evenodd;fill:#E6E6E6;" d="M442.5,117.5c-0.8,3.4-1.2,3.7-3.8,3.8
			c-0.9,0-1.2-0.3-1.5-1.1c-0.5-1.4-0.1-2.1,1.4-2.2C439.9,117.9,441.2,117.7,442.5,117.5z"/>
		<path style="fill-rule:evenodd;clip-rule:evenodd;fill:#E6E6E6;" d="M436.5,115.5c2.2-4.2,3.8-4.3,6.6-0.7
			c-1.2,0.1-2.3,0.2-3.4,0.3C438.7,115.2,437.7,115.3,436.5,115.5z"/>
		<path style="fill-rule:evenodd;clip-rule:evenodd;fill:#E0E0E0;" d="M522.2,107.8c-0.1,0-0.4,0.1-0.4,0c-0.5-0.8-2.3,0.8-2.1-1
			c0.1-1.4,1.6-1,2.4-1.3c0.8-0.3,1.3,0,0.8,0.9C522.6,106.9,522.4,107.4,522.2,107.8L522.2,107.8z"/>
		<path style="fill-rule:evenodd;clip-rule:evenodd;fill:#E6E6E6;" d="M319.5,112.7c-0.4,1.2-1.4,1.7-2.5,2.1
			c-1.3,0.5-1.8,0.1-1.8-1.2c-0.2-0.4-0.2-0.8,0.2-1c1.2,0.4,2.4,0.3,3.6-0.1C319.2,112.5,319.4,112.6,319.5,112.7z"/>
		<path style="fill-rule:evenodd;clip-rule:evenodd;fill:#E6E6E6;" d="M319.5,112.7c-0.2,0-0.3,0-0.5,0c-0.5-0.4-1-0.7-1.7-1
			c-0.3-0.2-0.5-0.3-0.4-0.7c0.3-0.1,0.7-0.3,1-0.3c0.8-0.1,1.8-1.1,2.3-0.4C320.9,111.1,319.9,111.9,319.5,112.7z"/>
		<path style="fill-rule:evenodd;clip-rule:evenodd;fill:#D1D1D1;" d="M317,111c0.2,0.1,0.4,0.3,0.5,0.4c-0.3,1-1.2,1.1-2,1.2
			c-0.1,0.3-0.2,0.6-0.3,0.9C314,111.5,315.4,111.2,317,111z"/>
		<path style="fill-rule:evenodd;clip-rule:evenodd;fill:#E6E6E6;" d="M227.3,74.9c0,1.3,0,2.3,0,3.4c0,0.5-0.3,0.8-0.8,0.8
			c-0.6,0.1-0.7-0.4-0.8-0.8C225.1,76.6,225.6,75.4,227.3,74.9z"/>
		<path style="fill-rule:evenodd;clip-rule:evenodd;fill:#E3E3E3;" d="M229.4,78.5c0.1-1.7,0.1-2.8,0.2-4c0.1-0.7,0.7-1,1.3-0.8
			c0.5,0.1,0.3,0.7,0.2,1.1C230.7,75.9,230.6,77.1,229.4,78.5z"/>
		<path style="fill-rule:evenodd;clip-rule:evenodd;fill:#E7E7E7;" d="M231.1,79.9c0.1,1.4-0.1,2.5-1.9,2.5
			C228.5,80.6,229.7,80.1,231.1,79.9C231.2,80,231.1,79.9,231.1,79.9z"/>
		<path style="fill-rule:evenodd;clip-rule:evenodd;fill:#E5E5E5;" d="M365.4,81.1c0.1,1.2-0.6,2-0.9,2.9c-0.7-0.4-1.2-0.9-1.6-1.7
			C363.7,81.9,364.5,81.5,365.4,81.1z"/>
		<path style="fill-rule:evenodd;clip-rule:evenodd;fill:#E6E6E6;" d="M366.3,78.9c0-0.2,0-0.3,0-0.5c0.9-0.5,1.9-0.4,2.9-0.3
			C368.7,80.2,367.3,78.6,366.3,78.9z"/>
		<path style="fill-rule:evenodd;clip-rule:evenodd;fill:#E6E6E6;" d="M486.5,114.4c0.9,2.5-1.1,2.7-2.8,3.2
			C484.5,116.4,484.4,114.5,486.5,114.4L486.5,114.4z"/>
		<path style="fill-rule:evenodd;clip-rule:evenodd;fill:#E6E6E6;" d="M296.1,111c0.1,1.9-0.6,2.8-2.3,2.9c-0.8,0.1-1.6,0.2-2.3,0.4
			c-0.7,0.1-1.3,0.3-1.4-0.7c-0.1-0.9,0.4-1.1,1.1-1.3C292.7,112,294.4,111.8,296.1,111z"/>
		<path style="fill-rule:evenodd;clip-rule:evenodd;fill:#E3E3E3;" d="M290.5,119.1c0.2-0.6-0.2-1.5,0.6-1.4
			c0.8,0.1,1.4,0.8,1.5,1.6c0.1,0.8-0.8,0.9-1.4,0.9C290.2,120.3,290.7,119.4,290.5,119.1z"/>
		<path style="fill-rule:evenodd;clip-rule:evenodd;fill:#EEEEEE;" d="M454.5,77.7c0.5-0.6,0.7-1.3,0.2-2c-0.8-1.2-1.8-0.2-2.7-0.2
			c-0.5-3.2-0.2-3.7,2.2-4.5c0.9-0.3,1.1,0,1.1,0.7c-0.1,3.3,0.5,6.6-0.4,9.9C454.1,80.3,454.3,79,454.5,77.7z"/>
		<path style="fill-rule:evenodd;clip-rule:evenodd;fill:#E6E6E6;" d="M454.5,77.7c0.8,1.2,0.2,2.6,0.4,3.9c0,0.1-0.1,0.2-0.1,0.2
			c-1,0-2.2,1.6-3,0.1c-0.9-1.9-0.1-3.3,1.9-4C454,77.8,454.2,77.8,454.5,77.7z"/>
		<path style="fill-rule:evenodd;clip-rule:evenodd;fill:#EDEDED;" d="M204.9,79.3c-0.3,1.3-0.6,2.5-0.9,3.6
			c-0.1,0.4-0.1,1.1-0.9,0.9c-0.6-0.2-1-0.7-0.9-1.3C202.4,81,202.5,79.4,204.9,79.3z"/>
		<path style="fill-rule:evenodd;clip-rule:evenodd;fill:#E6E6E6;" d="M392.2,112.8c0.8-1.3,2.2-1.3,3.3-1.6
			c0.8-0.2,0.9,0.5,0.9,1.1c0,1,0,2,0,3c0,2.4-1,3.2-3.4,3.1c-0.4,0-0.8,0.1-0.8-0.4c0-0.2,0.2-0.6,0.4-0.7c0.3-0.2,0.7-0.2,1-0.4
			c0.5-0.3,1.6-0.2,1.4-1.1c-0.2-1-1.2-0.5-1.8-0.5c-0.4,0-1,0.8-1.1-0.2c-0.1-0.6,0.4-0.7,0.8-0.8c0.3-0.1,0.7-0.2,1-0.3
			c0.5-0.2,1.3-0.3,1.1-1c-0.2-0.9-1-0.5-1.6-0.4C393.1,112.7,392.8,113.1,392.2,112.8z"/>
		<path style="fill-rule:evenodd;clip-rule:evenodd;fill:#E6E6E6;" d="M262.9,70.3c-0.4,0.9-1,1.5-2.1,1.6c-0.6,0.1-0.7-0.2-0.7-0.8
			c0-1.5,1.3-1,2-1.4C262.5,69.6,262.9,69.8,262.9,70.3z"/>
		<path style="fill-rule:evenodd;clip-rule:evenodd;fill:#E6E6E6;" d="M256.3,72.4c-0.9,0.2-1.4-0.1-1.3-0.8
			c0.2-0.9,1.1-0.8,1.7-0.9c0.8-0.2,1,0.2,1,0.9C257.7,72.8,256.6,72.1,256.3,72.4z"/>
		<path style="fill-rule:evenodd;clip-rule:evenodd;fill:#EEEEEE;" d="M131.5,81.1c0.7,1.9,0,2.6-1.5,2.8c-0.4,0-1.2,0.7-1.3-0.4
			C128.7,81.4,130.7,82.1,131.5,81.1z"/>
		<path style="fill-rule:evenodd;clip-rule:evenodd;fill:#E6E6E6;" d="M131.7,78.6c0.3,2-1.3,0.7-1.8,1.3c-0.3,0.3-0.8,0.1-0.7-0.5
			c0.2-1.1,1.1-1.6,1.9-1.8C132,77.4,131.6,78.3,131.7,78.6z"/>
		<path style="fill-rule:evenodd;clip-rule:evenodd;fill:#E6E6E6;" d="M215.6,74.5c-0.4-1.6-2.9,1.2-2.6-1.3c0.1-1.1,1.5-1,2.1-0.9
			C216.4,72.5,215.5,73.6,215.6,74.5z"/>
		<path style="fill-rule:evenodd;clip-rule:evenodd;fill:#EBEBEB;" d="M215.5,75.3c0.8,2.1-0.6,2-1.7,2.3c-0.6,0.2-0.8,0-0.8-0.6
			C213,75.3,214.8,76.1,215.5,75.3z"/>
		<path style="fill-rule:evenodd;clip-rule:evenodd;fill:#E0E0E0;" d="M267.3,81.3c-0.2,1-0.5,1.9-1.6,2.3
			C265.3,81.4,265.3,81.4,267.3,81.3z"/>
		<path style="fill-rule:evenodd;clip-rule:evenodd;fill:#DDDDDD;" d="M262.8,82.1c0.7,0.1,0.5,0.7,0.5,1.1c0.1,0.5-0.1,1-0.7,1
			c-0.8,0-0.5-0.7-0.6-1.1C261.9,82.5,262.2,82.2,262.8,82.1z"/>
		<path style="fill-rule:evenodd;clip-rule:evenodd;fill:#DBDBDB;" d="M258.8,83.6c0.8-0.2,0.9,0.2,0.9,0.8c0,0.6,0,1.2-0.8,1.2
			c-0.6,0-0.8-0.5-1-1C257.7,83.9,258.2,83.7,258.8,83.6z"/>
		<path style="fill-rule:evenodd;clip-rule:evenodd;fill:#E4E4E4;" d="M257.3,82.7c-0.3,1-0.6,1.7-1.4,1.9
			C255.4,83,255.4,83,257.3,82.7z"/>
		<path style="fill-rule:evenodd;clip-rule:evenodd;fill:#E6E6E6;" d="M315.7,104.2c1.4-0.3,2.7-0.6,4.3-0.9
			c-1.1,1.6-1.8,3.1-3.8,3.3C316.1,105.8,315.9,105,315.7,104.2z"/>
		<path style="fill-rule:evenodd;clip-rule:evenodd;fill:#EDEDED;" d="M294.5,103.8c0.6-1.1,0.7-2.4,2.4-2.4
			C297.1,104,296.9,104.3,294.5,103.8z"/>
		<path style="fill-rule:evenodd;clip-rule:evenodd;fill:#E3E3E3;" d="M292.1,105.2c-0.8-2.8-0.8-2.8,1.2-2.8
			C293,103.2,292.7,103.9,292.1,105.2z"/>
		<path style="fill-rule:evenodd;clip-rule:evenodd;fill:#F2F2F2;" d="M462.8,102.8c0,1.4-0.2,2.5-1.8,2.7c-1,0.2-0.7-0.5-0.8-0.9
			C460,102.5,461.9,103.4,462.8,102.8z"/>
		<path style="fill-rule:evenodd;clip-rule:evenodd;fill:#DEDEDE;" d="M471.6,102.2c-0.2,1-0.2,1.9-1.4,2c-0.5,0-0.7-0.4-0.7-0.9
			C469.6,102.1,470.5,102.3,471.6,102.2z"/>
		<path style="fill-rule:evenodd;clip-rule:evenodd;fill:#191919;" d="M315.5,112.7c0.3-1,1.4-0.6,2-1.2c1-0.2,1.4,0.3,1.5,1.2
			C317.9,113.3,316.7,114.5,315.5,112.7z"/>
		<path style="fill-rule:evenodd;clip-rule:evenodd;fill:#E5E5E5;" d="M48.2,67.7c0-2.4-2.3-4.1-4.2-3.7c-0.5,0.1-1,0.4-0.8,0.9
			c0.2,0.5,0.6,1,1.1,1.2c1.1,0.5,2.5,0.8,2.4,2.1c-0.1,1.3-1.5,1.1-2.5,1.2c-0.6,0.1-0.8,0.5-0.8,0.9c0.2,0.9,1,0.9,1.6,0.9
			c0.9,0,2.2,0.8,2.6-0.8C47.9,69.4,48.1,68.4,48.2,67.7z"/>
	</g>
</g>
</svg>
