<?xml version="1.0" encoding="utf-8"?>
<!-- Generator: Adobe Illustrator 18.0.0, SVG Export Plug-In . SVG Version: 6.00 Build 0)  -->
<!DOCTYPE svg PUBLIC "-//W3C//DTD SVG 1.1//EN" "http://www.w3.org/Graphics/SVG/1.1/DTD/svg11.dtd">
<svg version="1.1" id="圖層_1" xmlns="http://www.w3.org/2000/svg" xmlns:xlink="http://www.w3.org/1999/xlink" x="0px" y="0px"
	 viewBox="0 0 71.9 114.6" style="enable-background:new 0 0 71.9 114.6;" xml:space="preserve">
<g style="opacity:0.6;">
	<g>
		<g>
			<path d="M46.1,21.2c-6.9,4.9-15.3,7.2-22.3,11.8c-1.6,1.1-0.1,3.7,1.5,2.6c7-4.7,15.4-6.9,22.3-11.8
				C49.1,22.7,47.6,20.1,46.1,21.2L46.1,21.2z"/>
		</g>
	</g>
	<g>
		<g>
			<path d="M43.9,24c5.3,5.4,9.9,11.5,16.2,15.7c1.6,1.1,3.1-1.5,1.5-2.6c-6.1-4.1-10.5-10-15.6-15.2C44.7,20.5,42.6,22.6,43.9,24
				L43.9,24z"/>
		</g>
	</g>
	<g>
		<g>
			<path d="M58.6,34.7c-11-3.5-22.4-2.4-33.6-1.4c-1.9,0.2-1.9,3.2,0,3c11-0.9,22.1-2.1,32.8,1.3C59.6,38.2,60.4,35.3,58.6,34.7
				L58.6,34.7z"/>
		</g>
	</g>
	<g>
		<g>
			<path d="M37.6,34.4c-1.2,3.4-1.8,10.1,3.3,10.5c5.3,0.4,6.5-6.8,6.4-10.6c-0.1-1.9-3.1-1.9-3,0c0.1,2-0.1,4.1-1.1,5.9
				c-0.3,0.5-0.7,1-1,1.3c-0.4,0.3-0.8,0.4-1,0.4c-0.2,0-0.6-0.1-0.7-0.2c-0.4-0.3-0.5-0.6-0.7-1.1c-0.6-1.8,0-3.8,0.6-5.4
				C41.2,33.4,38.3,32.6,37.6,34.4L37.6,34.4z"/>
		</g>
	</g>
	<g>
		<g>
			<path d="M37.9,43C29,49.3,28,59.5,22.8,68.2c-1,1.7,1.6,3.2,2.6,1.5c4.9-8.1,5.8-18.2,14-24C41,44.5,39.5,41.9,37.9,43L37.9,43z"
				/>
		</g>
	</g>
	<g>
		<g>
			<path d="M41,44.6c6.3,8.2,12.1,17.7,9.4,28.4c0.5-0.4,1-0.7,1.4-1.1c-0.4,0-2.7-1.8-3.5-2.2c-2.2-1-4.5-1.3-6.9-1.6
				c-6.1-0.8-12.3,0.1-18.4,0.2c-1.9,0-1.9,3,0,3c5.2-0.1,10.4-0.5,15.7-0.4c3.1,0.1,6.2,0.6,9.1,1.9c1.5,0.7,2.3,2.1,3.9,2.1
				c0.7,0,1.3-0.5,1.4-1.1c2.9-11.6-2.9-21.8-9.7-30.7C42.4,41.6,39.8,43.1,41,44.6L41,44.6z"/>
		</g>
	</g>
	<g>
		<g>
			<path d="M34,68.5c-1.2,7.3-1,14.7-2.7,21.8c0.8-0.2,1.7-0.4,2.5-0.7c-2.3-2-6.4-2.9-7.2,1.1c-1,4.8,5.4,5,8.4,4.6
				c0.5-0.1,1-0.6,1-1c1.2-7.2-0.7-16.5,4.2-22.6c-0.8-0.2-1.7-0.4-2.5-0.7c1.2,7.7,0.1,15.5,0.4,23.3c0,0.9,0.7,1.4,1.5,1.5
				c3,0.2,9.5,2.1,9.6-3.1c0.1-4-3.4-5.6-6.9-5.8c0.5,0.5,1,1,1.5,1.5c0-6.1-0.4-12.2,0.9-18.3c0.4-1.9-2.5-2.7-2.9-0.8
				c-1.3,6.3-1,12.7-1,19.1c0,0.9,0.7,1.4,1.5,1.5c2.5,0.2,4.2,4,0.2,3.3c-1-0.2-1.9-0.3-2.9-0.4c0.5,0.5,1,1,1.5,1.5
				c-0.3-8,0.8-16.1-0.5-24.1c-0.2-1.1-1.8-1.5-2.5-0.7c-3,3.7-3.8,8.2-4.1,12.8c-0.2,2.6-0.2,5.3-0.4,7.9c-0.1,1.8-0.9,2.4-2.8,2
				c-2.1-0.4-1-2.4,0.9-0.7c0.8,0.7,2.2,0.5,2.5-0.7c1.7-7.2,1.5-14.6,2.7-21.8C37.2,67.4,34.3,66.6,34,68.5L34,68.5z"/>
		</g>
	</g>
</g>
</svg>
