<?xml version="1.0" encoding="utf-8"?>
<!-- Generator: Adobe Illustrator 18.0.0, SVG Export Plug-In . SVG Version: 6.00 Build 0)  -->
<!DOCTYPE svg PUBLIC "-//W3C//DTD SVG 1.1//EN" "http://www.w3.org/Graphics/SVG/1.1/DTD/svg11.dtd">
<svg version="1.1" id="圖層_1" xmlns="http://www.w3.org/2000/svg" xmlns:xlink="http://www.w3.org/1999/xlink" x="0px" y="0px"
	 viewBox="0 0 256 126.1" style="enable-background:new 0 0 256 126.1;" xml:space="preserve">
<path style="opacity:0.3;fill:#3C3AB3;" d="M42.6,58c0,0,4.5-31.3,23.1-5.2c0,0,6-22,25.7-21.6c19.8,0.4,25,19,25,24.6
	s-3,11.2-8.2,11.6c0,0-4.5,0.6-4.7-7.3c-0.2-7.8-3.7,0.7-2.7,3.2c1,2.4,2.1,6.2,6.4,6.7c4.3,0.6,13.2-0.4,12.7-10.6
	c-0.6-10.3-0.9-13.4-0.9-13.4s27.8-14.5,43.5,1.9c0,0,10.3,10.1,12.9,18.3c0,0,10.4,24.6,28.9,1.1c0,0,13.2-7.1,20.5,4.3l1.1,3.2
	c0,0-11.8-8.6-22.4,1.3c0,0-13.6,17.3-23.3,16.4c0,0-12.9,1.5-14.2-17.3c0,0-5.6-25.9-28-11.9c0,0-9.1,6.9-4.7,21.5
	c0,0,3.7,4.8,8.6,2.2c0,0,5.4-2.8,4.3-7.6c0,0-1.1-3.4-1.5-1.2c0,0,0.2,8.1-5.2,5.8c0,0-4.5-0.1-4.6-5c0,0,0.9-16.3,13.4-16.3
	c0,0,13.4-1.1,14.2,11.9c0,0,0.9,25.4-12.7,26.3c0,0-3.5,0.9-9.5-2.1c0,0,0.6,2.6-4.7,4.7c0,0-13.8,6.2-16-5.6l0.9-6.3
	c0,0-3,7.1-9.9,11c0,0-16.2,6.5-27.4-4.7c0,0-7.8-8.2-9-13.8c0,0-5-13.6-16.8-12.1c0,0-14.7,7.8-7.8,15.5c0,0,6,7.8,8.8,4.1
	c2.8-3.7,4.1-2.2,2.4-6.5c0,0-3.7-3.4-2.8-0.7l1.7,2.6c0,0-1.9,2.8-3,2.2c0,0-5.6,0.6-5.4-4.1c0,0-1.3-5.6,2.2-7.8
	c0,0,3.5-3.2,7.8-1.1c0,0,8.6,1.9,9.1,8.4c0,0,3.4,19.8-14.5,20.6c0,0-19.4,2.3-25.9-5.9c0,0-9.5-8.8-5.6-24.6
	C24.5,74.5,31.8,58.4,42.6,58z"/>
</svg>
