<svg xmlns="http://www.w3.org/2000/svg" xmlns:xlink="http://www.w3.org/1999/xlink" version="1.1" x="0px" y="0px" viewBox="-11 13 24 30" style="enable-background:new -11 13 24 24;" xml:space="preserve"><path d="M1,13c-6.6,0-12,5.4-12,12s5.4,12,12,12s12-5.4,12-12S7.6,13,1,13z M9.5,28H0.2v2.6c0,0.7-0.3,0.8-0.5,0.8  c-0.3,0-0.7-0.3-0.7-0.4c-0.2-0.2-6.2-4.6-6.8-5.3c-0.2-0.2-0.3-0.5-0.3-0.6c0-0.4,0.3-0.6,0.3-0.7l6.6-5.5c0.1-0.1,0.4-0.4,0.7-0.4  c0.1,0,0.5,0.1,0.5,0.7v2.8h9.3c0,0,0.1,0,0.1,0c0.1,0,0.6,0,0.6,0.9v4.3C10.1,27.9,9.7,28,9.5,28z"/></svg>