<svg xmlns="http://www.w3.org/2000/svg" xmlns:xlink="http://www.w3.org/1999/xlink" version="1.1" x="0px" y="0px" viewBox="-11 13 24 30" style="enable-background:new -11 13 24 24;" xml:space="preserve"><style type="text/css">
	.st0{fill:none;}
</style><g><path d="M-11,25c0,6.6,5.4,12,12,12s12-5.4,12-12S7.6,13,1,13S-11,18.4-11,25z M-8.1,27.3v-4.3c0-0.8,0.5-0.9,0.7-0.9   c0,0,0.1,0,0.1,0H2v-2.8c0-0.6,0.3-0.7,0.5-0.7c0.3,0,0.7,0.3,0.7,0.4l6.6,5.5c0,0,0.3,0.3,0.3,0.7c0,0.2,0,0.4-0.3,0.6   c-0.7,0.7-6.6,5.1-6.8,5.3c-0.1,0.1-0.4,0.4-0.7,0.4c-0.2,0-0.5-0.1-0.5-0.8V28h-9.2C-7.7,28-8.1,27.9-8.1,27.3z"/><path class="st0" d="M-7.5,22.1c0,0,0.1,0,0.1,0H2v-2.8c0-0.6,0.3-0.7,0.5-0.7c0.3,0,0.7,0.3,0.7,0.4l6.6,5.5c0,0,0.3,0.3,0.3,0.7   c0,0.2,0,0.4-0.3,0.6c-0.7,0.7-6.6,5.1-6.8,5.3c-0.1,0.1-0.4,0.4-0.7,0.4c-0.2,0-0.5-0.1-0.5-0.8V28h-9.2c-0.2,0-0.6-0.2-0.6-0.8   v-4.3C-8.1,22.1-7.6,22.1-7.5,22.1z"/></g></svg>