<?xml version="1.0" encoding="utf-8"?>
<!-- Generator: Adobe Illustrator 18.0.0, SVG Export Plug-In . SVG Version: 6.00 Build 0)  -->
<!DOCTYPE svg PUBLIC "-//W3C//DTD SVG 1.1//EN" "http://www.w3.org/Graphics/SVG/1.1/DTD/svg11.dtd">
<svg version="1.1" id="圖層_1" xmlns="http://www.w3.org/2000/svg" xmlns:xlink="http://www.w3.org/1999/xlink" x="0px" y="0px"
	 viewBox="0 0 1366 768" style="enable-background:new 0 0 1366 768;" xml:space="preserve">
<path style="opacity:0.2;fill:#B3B3B3;" d="M1292.509,1244.921c-6.337-15.002-31.684-102.01-31.684-102.01l-19.011-156.016
	l-47.525-240.024L1070.724,627l-87.038-117.384c0,0-96.725-74.776-106.125-78.2c-9.399-3.424-158.381-10-158.381-10l-119.802-244.6
	L173.188-72H55v1467h933.051l3.172,20.667l37.143,108.666l3.635,24.393l22.907,55.398l4.076,28.876l26.596,30.293l41.088-19.445
	l54.302-28.864l18.657-53.983l14.374-66l56-100C1270,1395,1298.845,1259.923,1292.509,1244.921z"/>
<path style="opacity:0.3;fill:#E8EAE8;" d="M517.505,313.816l113.448,244.6c0,0,141.08,6.576,149.981,10
	c8.901,3.424,100.496,78.2,100.496,78.2L963.852,764l117.012,119.871l45.005,240.024l18.002,156.016
	c0,0,24.003,87.008,30.003,102.01s6.865,234.345,6.865,234.345L2,1532V-4L517.505,313.816z"/>
<path style="fill:#CCD2CC;" d="M265.967,0l81.19,126.726l25.417,125.025c0,0,43.21,143.836,48.293,155.954
	c5.083,12.118,48.292,111.29,61.001,130.711c12.709,19.421,112.221,99.969,119.653,112.2C608.953,662.848,708.893,768,708.893,768
	s116.106,65.864,118.648,74.865c2.54,9.001,55.916,171.018,61,183.019c5.083,12.001,83.877,234.023,83.877,234.023
	s-10.167,66.006,0,90.009c10.166,24.003,55.96,165.017,55.96,165.017l2.632,21.067H0V0H265.967z"/>
<path style="opacity:0.2;fill:#CCCCCC;" d="M1199.626,1532c-9.278-32.428-23.756-88.278-23.756-88.278l-18.002-166.035
	l-45.005-255.439L995.852,894.679L913.43,769.756c0,0-91.595-79.578-100.496-83.222c-8.901-3.645-263.429-270.95-263.429-270.95
	L34,77.356V1712l1106,75.616L1199.626,1532z"/>
<path style="opacity:0.2;fill:#CCCCCC;" d="M1223.628,1608.605c-9.47-34.068-24.245-92.745-24.245-92.745l-18.372-174.437
	l-45.932-268.363l-119.422-134.025l-84.119-131.243c0,0-93.481-83.605-102.565-87.433c-9.084-3.829-268.853-284.661-268.853-284.661
	L34,80.356v1717.357l1128.774,79.442L1223.628,1608.605z"/>
</svg>
