<?xml version="1.0" encoding="utf-8"?>
<!-- Generator: Adobe Illustrator 18.0.0, SVG Export Plug-In . SVG Version: 6.00 Build 0)  -->
<!DOCTYPE svg PUBLIC "-//W3C//DTD SVG 1.1//EN" "http://www.w3.org/Graphics/SVG/1.1/DTD/svg11.dtd">
<svg version="1.1" id="圖層_1" xmlns="http://www.w3.org/2000/svg" xmlns:xlink="http://www.w3.org/1999/xlink" x="0px" y="0px"
	 viewBox="0 0 1366 768" style="enable-background:new 0 0 1366 768;" xml:space="preserve">
<path style="opacity:0.2;fill:#B3B3B3;" d="M1292.509,476.921c-6.337-15.002-31.684-102.01-31.684-102.01l-19.011-156.016
	l-47.525-240.024L1070.724-141l-87.038-117.384c0,0-96.725-74.776-106.125-78.2c-9.399-3.424-158.381-10-158.381-10l-119.802-244.6
	L173.188-840H55V627h933.051l3.172,20.667l37.143,108.666l3.635,24.393l22.907,55.398l4.076,28.876l26.596,30.293l41.088-19.445
	l54.302-28.864L1199.626,793L1214,727l56-100C1270,627,1298.845,491.923,1292.509,476.921z"/>
<path style="opacity:0.3;fill:#E8EAE8;" d="M517.505-454.184l113.448,244.6c0,0,141.08,6.576,149.981,10s100.496,78.2,100.496,78.2
	L963.852-4l117.012,119.871l45.005,240.024l18.002,156.016c0,0,24.003,87.008,30.003,102.01s6.865,234.345,6.865,234.345L2,764V-772
	L517.505-454.184z"/>
<path style="fill:#CCD2CC;" d="M265.967-768l81.19,126.726l25.417,125.025c0,0,43.21,143.836,48.293,155.954
	c5.083,12.118,48.292,111.29,61.001,130.711c12.709,19.421,112.221,99.969,119.653,112.2C608.953-105.152,708.893,0,708.893,0
	s116.106,65.864,118.648,74.865c2.54,9.001,55.916,171.018,61,183.019c5.083,12.001,83.877,234.023,83.877,234.023
	s-10.167,66.006,0,90.009c10.166,24.003,55.96,165.017,55.96,165.017L1031.01,768H0V-768H265.967z"/>
<path style="opacity:0.2;fill:#CCCCCC;" d="M1199.626,764c-9.278-32.428-23.756-88.278-23.756-88.278l-18.002-166.035
	l-45.005-255.438L995.852,126.679L913.43,1.756c0,0-91.595-79.578-100.496-83.222c-8.901-3.645-263.429-270.95-263.429-270.95
	L34-690.644V944l1106,75.616L1199.626,764z"/>
<g>
	<path style="fill:#CCD2CC;" d="M1033.71,767.096l11.624,36.328l9.573,32.7l13.889,36.423l16.783,22.746l4.017,58.388l22.016,32.696
		l-1.723,21.795l30.111,14.444V1057l-6.318,20.517l33.318,15.188V1125l-9.583,17.217l9.583,24.728l-25.933,12.568l-7.603,48.917
		c0,0-9.367,16.687-9.882,20.633s-8.526,19.258-6.021,27.352s15.48,44.438,15.48,44.438l-8.043,32.221V1393l-10.713,34.726
		l-5.723,47.676l-9.15,33.037l30.672,26.562H718l-70-720.364V767L1033.71,767.096z"/>
</g>
<rect y="767" style="fill:#CCD2CC;" width="1032" height="768"/>
<path style="opacity:0.2;fill:#CCCCCC;" d="M1223.628,840.606c-9.47-34.068-24.245-92.745-24.245-92.745l-18.372-174.437
	l-45.932-268.363l-119.422-134.025L931.538,39.792c0,0-93.481-83.605-102.565-87.433C819.889-51.47,560.12-332.302,560.12-332.302
	L34-687.644v1717.357l1128.774,79.442L1223.628,840.606z"/>
<polygon style="fill-rule:evenodd;clip-rule:evenodd;fill:#FFFFFF;" points="206.251,452.264 90.082,360.098 83.22,254.811 
	154.27,159.214 232.873,129.924 354.288,131.705 508.27,228.712 560.195,317.865 561.922,412.454 497.966,471.538 361.562,496.383 
	"/>
</svg>
