<?xml version="1.0" encoding="utf-8"?>
<!-- Generator: Adobe Illustrator 16.0.0, SVG Export Plug-In . SVG Version: 6.00 Build 0)  -->
<!DOCTYPE svg PUBLIC "-//W3C//DTD SVG 1.1//EN" "http://www.w3.org/Graphics/SVG/1.1/DTD/svg11.dtd">
<svg version="1.1" id="圖層_1" xmlns="http://www.w3.org/2000/svg" xmlns:xlink="http://www.w3.org/1999/xlink" x="0px" y="0px"
	 width="1366px" height="768px" viewBox="0 0 1366 768" style="enable-background:new 0 0 1366 768;" xml:space="preserve">
<g>
	<defs>
		<rect id="SVGID_1_" y="-772" width="1366" height="3840"/>
	</defs>
	<clipPath id="SVGID_2_">
		<use xlink:href="#SVGID_1_"  style="overflow:visible;"/>
	</clipPath>
	<g style="clip-path:url(#SVGID_2_);">
		<defs>
			<rect id="SVGID_3_" y="-772" width="1366" height="3840"/>
		</defs>
		<clipPath id="SVGID_4_">
			<use xlink:href="#SVGID_3_"  style="overflow:visible;"/>
		</clipPath>
		<g style="opacity:0.23;clip-path:url(#SVGID_4_);">
			<g>
				<defs>
					<rect id="SVGID_5_" x="43" y="-838" width="1234.74" height="1610.73"/>
				</defs>
				<clipPath id="SVGID_6_">
					<use xlink:href="#SVGID_5_"  style="overflow:visible;"/>
				</clipPath>
				<path style="clip-path:url(#SVGID_6_);fill:#B3B3B3;" d="M1277.509,478.921c-6.337-15.002-31.685-102.01-31.685-102.01
					l-19.01-156.015l-47.525-240.025L1055.724-139l-87.038-117.384c0,0-93.725-74.776-103.125-78.2
					c-9.399-3.424-158.381-10-158.381-10L587.378-589.183L158.188-838H43V766l1116,6.727
					C1159,772.727,1283.845,493.923,1277.509,478.921"/>
			</g>
		</g>
		<g style="opacity:0.3;clip-path:url(#SVGID_4_);">
			<g>
				<defs>
					<rect id="SVGID_13_" x="-10" y="-768" width="1228.95" height="1536"/>
				</defs>
				<clipPath id="SVGID_8_">
					<use xlink:href="#SVGID_13_"  style="overflow:visible;"/>
				</clipPath>
				<path style="clip-path:url(#SVGID_8_);fill:#E8EAE8;" d="M505.505-450.184l113.448,244.6c0,0,141.079,6.576,149.98,10
					s100.496,78.2,100.496,78.2L948.852,0l117.012,119.871l45.005,240.024l18.002,156.016c0,0,24.003,87.009,30.003,102.009
					c6,15.002,60.074,150.08,60.074,150.08H-10V-768L505.505-450.184z"/>
			</g>
		</g>
		<path style="clip-path:url(#SVGID_4_);fill:#CCD2CC;" d="M257.734-777l84.436,127.583l25.491,125.948
			c0,0,43.336,144.949,48.434,157.165c5.098,12.215,48.433,112.162,61.179,131.739c12.746,19.575,112.548,100.761,120.002,113.09
			C604.73-109.146,701.952-3.155,701.952-3.155s116.446,66.391,118.995,75.464c2.547,9.073,56.079,172.389,61.178,184.485
			s84.122,235.899,84.122,235.899s-10.197,66.535,0,90.73c10.195,24.195,56.123,166.34,56.123,166.34l2.64,21.236H-6V-777H257.734z"
			/>
		<g style="opacity:0.2;clip-path:url(#SVGID_4_);">
			<g>
				<defs>
					<rect id="SVGID_41_" x="22" y="-688.64" width="1162.63" height="1811.71"/>
				</defs>
				<clipPath id="SVGID_10_">
					<use xlink:href="#SVGID_41_"  style="overflow:visible;"/>
				</clipPath>
				<path style="clip-path:url(#SVGID_10_);fill:#CCCCCC;" d="M1159,1123.068L1184.626,766
					c-9.278-32.428-23.756-88.278-23.756-88.278l-18.002-166.035l-45.005-255.438L980.852,128.679L898.43,3.756
					c0,0-91.595-79.578-100.496-83.223c-8.901-3.644-260.429-270.949-260.429-270.949L22-688.644V946h933L1159,1123.068z"/>
			</g>
		</g>
		<rect x="-6" y="768" style="clip-path:url(#SVGID_4_);fill:#CCD2CC;" width="1032" height="768"/>
		<g style="opacity:0.4;clip-path:url(#SVGID_4_);">
			<g>
				<defs>
					<rect id="SVGID_135_" x="918.939" y="762" width="102.891" height="99.6"/>
				</defs>
				<clipPath id="SVGID_12_">
					<use xlink:href="#SVGID_135_"  style="overflow:visible;"/>
				</clipPath>
				<polygon style="clip-path:url(#SVGID_12_);fill-rule:evenodd;clip-rule:evenodd;fill:#FFFFFF;" points="932,771.034 
					918.939,798.133 926.842,841.018 959.982,861.601 1003.301,832.783 1021.83,794.303 983.092,762 932,762 				"/>
			</g>
		</g>
		<polygon style="clip-path:url(#SVGID_4_);fill-rule:evenodd;clip-rule:evenodd;fill:#FFFFFF;" points="185.251,432.264 
			69.082,340.098 62.22,234.811 133.27,139.214 211.873,109.924 333.288,111.705 487.27,208.712 539.195,297.865 540.922,392.454 
			476.966,451.538 340.562,476.383 		"/>
	</g>
</g>
</svg>
