<?xml version="1.0" encoding="utf-8"?>
<!-- Generator: Adobe Illustrator 16.0.0, SVG Export Plug-In . SVG Version: 6.00 Build 0)  -->
<!DOCTYPE svg PUBLIC "-//W3C//DTD SVG 1.1//EN" "http://www.w3.org/Graphics/SVG/1.1/DTD/svg11.dtd">
<svg version="1.1" id="圖層_1" xmlns="http://www.w3.org/2000/svg" xmlns:xlink="http://www.w3.org/1999/xlink" x="0px" y="0px"
	 width="1366px" height="768px" viewBox="0 0 1366 768" style="enable-background:new 0 0 1366 768;" xml:space="preserve">
<g>
	<defs>
		<rect id="SVGID_1_" y="-1536" width="1366" height="3840"/>
	</defs>
	<clipPath id="SVGID_2_">
		<use xlink:href="#SVGID_1_"  style="overflow:visible;"/>
	</clipPath>
	<g style="clip-path:url(#SVGID_2_);">
		<defs>
			<rect id="SVGID_3_" y="-1536" width="1366" height="3840"/>
		</defs>
		<clipPath id="SVGID_4_">
			<use xlink:href="#SVGID_3_"  style="overflow:visible;"/>
		</clipPath>
		<g style="opacity:0.23;clip-path:url(#SVGID_4_);">
			<g>
				<defs>
					<rect id="SVGID_5_" x="43" y="-1602" width="1234.74" height="1610.73"/>
				</defs>
				<clipPath id="SVGID_6_">
					<use xlink:href="#SVGID_5_"  style="overflow:visible;"/>
				</clipPath>
				<path style="clip-path:url(#SVGID_6_);fill:#B3B3B3;" d="M1277.509-285.079c-6.337-15.002-31.685-102.01-31.685-102.01
					l-19.01-156.015l-47.525-240.025L1055.724-903l-87.038-117.384c0,0-93.725-74.776-103.125-78.2
					c-9.399-3.424-158.381-10-158.381-10l-119.802-244.599L158.188-1602H43V2l1116,6.727
					C1159,8.727,1283.845-270.077,1277.509-285.079"/>
			</g>
		</g>
		<g style="opacity:0.3;clip-path:url(#SVGID_4_);">
			<g>
				<defs>
					<rect id="SVGID_13_" x="-10" y="-1532" width="1228.95" height="1536"/>
				</defs>
				<clipPath id="SVGID_8_">
					<use xlink:href="#SVGID_13_"  style="overflow:visible;"/>
				</clipPath>
				<path style="clip-path:url(#SVGID_8_);fill:#E8EAE8;" d="M505.505-1214.184l113.448,244.6c0,0,141.079,6.576,149.98,10
					s100.496,78.2,100.496,78.2L948.852-764l117.012,119.871l45.005,240.024l18.002,156.016c0,0,24.003,87.009,30.003,102.009
					c6,15.002,60.074,150.08,60.074,150.08H-10v-1536L505.505-1214.184z"/>
			</g>
		</g>
		<path style="clip-path:url(#SVGID_4_);fill:#CCD2CC;" d="M257.734-1541l84.436,127.583l25.491,125.948
			c0,0,43.336,144.949,48.434,157.165c5.098,12.215,48.433,112.162,61.179,131.739c12.746,19.575,112.548,100.761,120.002,113.09
			c7.454,12.328,104.676,118.319,104.676,118.319s116.446,66.391,118.995,75.464c2.547,9.073,56.079,172.389,61.178,184.485
			s84.122,235.899,84.122,235.899s-10.197,66.535,0,90.73c10.195,24.195,56.123,166.34,56.123,166.34L1025.01,7H-6v-1548H257.734z"
			/>
		<g style="opacity:0.2;clip-path:url(#SVGID_4_);">
			<g>
				<defs>
					<rect id="SVGID_41_" x="22" y="-1452.64" width="1162.63" height="1811.71"/>
				</defs>
				<clipPath id="SVGID_10_">
					<use xlink:href="#SVGID_41_"  style="overflow:visible;"/>
				</clipPath>
				<path style="clip-path:url(#SVGID_10_);fill:#CCCCCC;" d="M1159,359.068L1184.626,2c-9.278-32.428-23.756-88.278-23.756-88.278
					l-18.002-166.035l-45.005-255.438L980.852-635.321L898.43-760.244c0,0-91.595-79.578-100.496-83.223
					c-8.901-3.644-260.429-270.949-260.429-270.949L22-1452.644V182h933L1159,359.068z"/>
			</g>
		</g>
		<path style="clip-path:url(#SVGID_4_);fill:#CCD2CC;" d="M1025.71,6.096l11.624,36.232l9.573,32.616l13.889,36.328l16.783,22.687
			l4.017,58.235l22.016,32.611l-1.723,21.737L1132,260.951v34.293l-6.318,20.465L1159,330.855v32.212l-9.583,17.172l9.583,24.663
			l-25.934,12.536l-7.602,48.79c0,0-9.367,16.643-9.882,20.579c-0.515,3.936-8.526,19.207-6.021,27.28
			c2.506,8.072,15.48,44.321,15.48,44.321L1117,590.547v39.822l-10.713,34.637l-5.724,47.551l-9.149,32.951L1122.086,772H710
			L640,53.512V6L1025.71,6.096z"/>
		<rect x="-6" y="4" style="clip-path:url(#SVGID_4_);fill:#CCD2CC;" width="1032" height="768"/>
		<g style="opacity:0.4;clip-path:url(#SVGID_4_);">
			<g>
				<defs>
					<rect id="SVGID_43_" x="957.16" y="146.52" width="38.125" height="43.48"/>
				</defs>
				<clipPath id="SVGID_12_">
					<use xlink:href="#SVGID_43_"  style="overflow:visible;"/>
				</clipPath>
				<polygon style="clip-path:url(#SVGID_12_);fill-rule:evenodd;clip-rule:evenodd;fill:#FFFFFF;" points="957.16,162.986 
					962.863,176.607 966.467,190 987.051,190 995.285,171.625 991.855,153.518 985.678,146.524 				"/>
			</g>
		</g>
		<g style="opacity:0.4;clip-path:url(#SVGID_4_);">
			<g>
				<defs>
					<rect id="SVGID_45_" x="1073.74" y="463.03" width="28.82" height="28.819"/>
				</defs>
				<clipPath id="SVGID_14_">
					<use xlink:href="#SVGID_45_"  style="overflow:visible;"/>
				</clipPath>
				<polygon style="clip-path:url(#SVGID_14_);fill-rule:evenodd;clip-rule:evenodd;fill:#FFFFFF;" points="1102.562,468.519 
					1090.898,486.358 1079.918,491.848 1073.743,480.183 1081.978,463.029 				"/>
			</g>
		</g>
		<g style="opacity:0.4;clip-path:url(#SVGID_4_);">
			<g>
				<defs>
					<rect id="SVGID_47_" x="979.961" y="511.41" width="99.6" height="104.529"/>
				</defs>
				<clipPath id="SVGID_16_">
					<use xlink:href="#SVGID_47_"  style="overflow:visible;"/>
				</clipPath>
				<polygon style="clip-path:url(#SVGID_16_);fill-rule:evenodd;clip-rule:evenodd;fill:#FFFFFF;" points="1071.227,557.237 
					1057.227,530.358 1017.998,511.414 981.971,526.094 979.961,578.029 1000.8,615.942 1050.207,603.84 1079.564,563.271 				"/>
			</g>
		</g>
		<g style="opacity:0.4;clip-path:url(#SVGID_4_);">
			<g>
				<defs>
					<rect id="SVGID_49_" x="914.026" y="525.62" width="61.399" height="62.45"/>
				</defs>
				<clipPath id="SVGID_18_">
					<use xlink:href="#SVGID_49_"  style="overflow:visible;"/>
				</clipPath>
				<polygon style="clip-path:url(#SVGID_18_);fill-rule:evenodd;clip-rule:evenodd;fill:#FFFFFF;" points="968.899,533.489 
					952.136,525.616 926.069,530.958 914.026,551.442 932.312,577.393 956.211,588.072 975.426,563.881 974.632,533.34 				"/>
			</g>
		</g>
		<g style="opacity:0.4;clip-path:url(#SVGID_4_);">
			<g>
				<defs>
					<rect id="SVGID_51_" x="951.701" y="584.42" width="37.472" height="48.19"/>
				</defs>
				<clipPath id="SVGID_20_">
					<use xlink:href="#SVGID_51_"  style="overflow:visible;"/>
				</clipPath>
				<polygon style="clip-path:url(#SVGID_20_);fill-rule:evenodd;clip-rule:evenodd;fill:#FFFFFF;" points="989.173,613.854 
					978.723,594.646 972.641,584.421 965.079,587.948 956.431,599.901 951.701,619.405 963.376,627.853 981.109,632.608 				"/>
			</g>
		</g>
		<g style="opacity:0.4;clip-path:url(#SVGID_4_);">
			<g>
				<defs>
					<rect id="SVGID_53_" x="911.883" y="584.87" width="38.139" height="41.26"/>
				</defs>
				<clipPath id="SVGID_22_">
					<use xlink:href="#SVGID_53_"  style="overflow:visible;"/>
				</clipPath>
				<polygon style="clip-path:url(#SVGID_22_);fill-rule:evenodd;clip-rule:evenodd;fill:#FFFFFF;" points="950.021,592.246 
					936.277,589.339 923.95,584.868 911.883,601.544 921.308,618.527 937.672,626.134 946.799,625.115 				"/>
			</g>
		</g>
		<g style="opacity:0.4;clip-path:url(#SVGID_4_);">
			<g>
				<defs>
					<rect id="SVGID_55_" x="903.143" y="565.84" width="17.939" height="29.86"/>
				</defs>
				<clipPath id="SVGID_24_">
					<use xlink:href="#SVGID_55_"  style="overflow:visible;"/>
				</clipPath>
				<polygon style="clip-path:url(#SVGID_24_);fill-rule:evenodd;clip-rule:evenodd;fill:#FFFFFF;" points="921.082,578.559 
					912.943,565.84 905.275,576.436 903.143,591.701 908.676,595.705 				"/>
			</g>
		</g>
		<g style="opacity:0.4;clip-path:url(#SVGID_4_);">
			<g>
				<defs>
					<rect id="SVGID_57_" x="1070.54" y="523.83" width="24.13" height="32.02"/>
				</defs>
				<clipPath id="SVGID_26_">
					<use xlink:href="#SVGID_57_"  style="overflow:visible;"/>
				</clipPath>
				<polygon style="clip-path:url(#SVGID_26_);fill-rule:evenodd;clip-rule:evenodd;fill:#FFFFFF;" points="1078.151,555.852 
					1070.535,535.943 1072.525,523.83 1085.596,525.666 1094.666,542.393 				"/>
			</g>
		</g>
		<g style="opacity:0.4;clip-path:url(#SVGID_4_);">
			<g>
				<defs>
					<rect id="SVGID_59_" x="933.442" y="628.13" width="42.567" height="34.17"/>
				</defs>
				<clipPath id="SVGID_28_">
					<use xlink:href="#SVGID_59_"  style="overflow:visible;"/>
				</clipPath>
				<polygon style="clip-path:url(#SVGID_28_);fill-rule:evenodd;clip-rule:evenodd;fill:#FFFFFF;" points="976.01,639.653 
					964.556,636.181 957.045,628.34 944.562,628.133 933.442,632.124 959.622,662.302 970.691,658.273 				"/>
			</g>
		</g>
		<g style="opacity:0.4;clip-path:url(#SVGID_4_);">
			<g>
				<defs>
					<rect id="SVGID_61_" x="947.953" y="487.95" width="58.937" height="35.43"/>
				</defs>
				<clipPath id="SVGID_30_">
					<use xlink:href="#SVGID_61_"  style="overflow:visible;"/>
				</clipPath>
				<polygon style="clip-path:url(#SVGID_30_);fill-rule:evenodd;clip-rule:evenodd;fill:#FFFFFF;" points="1006.889,505.813 
					978.134,509.574 972.809,523.383 962.895,520.225 947.953,514.033 960.054,497.31 972.609,487.947 989.538,493.291 				"/>
			</g>
		</g>
		<g style="opacity:0.4;clip-path:url(#SVGID_4_);">
			<g>
				<defs>
					<rect id="SVGID_63_" x="918.996" y="489.37" width="28.455" height="34.87"/>
				</defs>
				<clipPath id="SVGID_32_">
					<use xlink:href="#SVGID_63_"  style="overflow:visible;"/>
				</clipPath>
				<polygon style="clip-path:url(#SVGID_32_);fill-rule:evenodd;clip-rule:evenodd;fill:#FFFFFF;" points="947.451,501.029 
					939.448,512.09 941.775,522.601 928.928,518.386 920.755,524.241 918.996,511.199 941.324,489.375 				"/>
			</g>
		</g>
		<g style="opacity:0.4;clip-path:url(#SVGID_4_);">
			<g>
				<defs>
					<rect id="SVGID_65_" x="992.309" y="404.18" width="61.401" height="62.45"/>
				</defs>
				<clipPath id="SVGID_34_">
					<use xlink:href="#SVGID_65_"  style="overflow:visible;"/>
				</clipPath>
				<polygon style="clip-path:url(#SVGID_34_);fill-rule:evenodd;clip-rule:evenodd;fill:#FFFFFF;" points="1047.182,412.052 
					1030.418,404.179 1004.352,409.52 992.309,430.004 1010.595,455.955 1034.493,466.634 1053.707,442.441 1052.914,411.9 				"/>
			</g>
		</g>
		<g style="opacity:0.4;clip-path:url(#SVGID_4_);">
			<g>
				<defs>
					<rect id="SVGID_67_" x="1029.98" y="462.98" width="37.479" height="48.189"/>
				</defs>
				<clipPath id="SVGID_36_">
					<use xlink:href="#SVGID_67_"  style="overflow:visible;"/>
				</clipPath>
				<polygon style="clip-path:url(#SVGID_36_);fill-rule:evenodd;clip-rule:evenodd;fill:#FFFFFF;" points="1067.455,492.415 
					1057.006,473.208 1050.923,462.983 1043.361,466.511 1034.713,478.463 1029.983,497.967 1041.658,506.414 1059.391,511.171 				
					"/>
			</g>
		</g>
		<g style="opacity:0.4;clip-path:url(#SVGID_4_);">
			<g>
				<defs>
					<rect id="SVGID_69_" x="990.166" y="463.43" width="38.134" height="41.271"/>
				</defs>
				<clipPath id="SVGID_38_">
					<use xlink:href="#SVGID_69_"  style="overflow:visible;"/>
				</clipPath>
				<polygon style="clip-path:url(#SVGID_38_);fill-rule:evenodd;clip-rule:evenodd;fill:#FFFFFF;" points="1028.305,470.809 
					1014.56,467.901 1002.232,463.43 990.166,480.105 999.59,497.09 1015.954,504.696 1025.082,503.677 				"/>
			</g>
		</g>
		<g style="opacity:0.4;clip-path:url(#SVGID_4_);">
			<g>
				<defs>
					<rect id="SVGID_71_" x="981.425" y="444.4" width="17.94" height="29.869"/>
				</defs>
				<clipPath id="SVGID_40_">
					<use xlink:href="#SVGID_71_"  style="overflow:visible;"/>
				</clipPath>
				<polygon style="clip-path:url(#SVGID_40_);fill-rule:evenodd;clip-rule:evenodd;fill:#FFFFFF;" points="999.365,457.12 
					991.227,444.401 983.557,454.997 981.425,470.264 986.959,474.267 				"/>
			</g>
		</g>
		<g style="opacity:0.4;clip-path:url(#SVGID_4_);">
			<g>
				<defs>
					<rect id="SVGID_73_" x="1026.24" y="366.51" width="58.93" height="35.43"/>
				</defs>
				<clipPath id="SVGID_42_">
					<use xlink:href="#SVGID_73_"  style="overflow:visible;"/>
				</clipPath>
				<polygon style="clip-path:url(#SVGID_42_);fill-rule:evenodd;clip-rule:evenodd;fill:#FFFFFF;" points="1085.172,384.375 
					1056.416,388.136 1051.092,401.944 1041.177,398.786 1026.234,392.596 1038.336,375.872 1050.892,366.509 1067.82,371.852 				
					"/>
			</g>
		</g>
		<g style="opacity:0.4;clip-path:url(#SVGID_4_);">
			<g>
				<defs>
					<rect id="SVGID_75_" x="997.278" y="367.939" width="28.452" height="34.86"/>
				</defs>
				<clipPath id="SVGID_44_">
					<use xlink:href="#SVGID_75_"  style="overflow:visible;"/>
				</clipPath>
				<polygon style="clip-path:url(#SVGID_44_);fill-rule:evenodd;clip-rule:evenodd;fill:#FFFFFF;" points="1025.733,379.592 
					1017.73,390.652 1020.058,401.162 1007.21,396.948 999.037,402.803 997.278,389.761 1019.606,367.938 				"/>
			</g>
		</g>
		<g style="opacity:0.4;clip-path:url(#SVGID_4_);">
			<g>
				<defs>
					<rect id="SVGID_77_" x="1058.67" y="396.73" width="59.79" height="59.3"/>
				</defs>
				<clipPath id="SVGID_46_">
					<use xlink:href="#SVGID_77_"  style="overflow:visible;"/>
				</clipPath>
				<polygon style="clip-path:url(#SVGID_46_);fill-rule:evenodd;clip-rule:evenodd;fill:#FFFFFF;" points="1115.296,434.378 
					1113.08,415.99 1094.726,396.726 1070.973,397.381 1058.671,426.648 1062.293,452.57 1092.993,456.028 1118.465,439.157 				"/>
			</g>
		</g>
		<g style="opacity:0.4;clip-path:url(#SVGID_4_);">
			<g>
				<defs>
					<rect id="SVGID_79_" x="1097.6" y="380.25" width="40.471" height="25.36"/>
				</defs>
				<clipPath id="SVGID_48_">
					<use xlink:href="#SVGID_79_"  style="overflow:visible;"/>
				</clipPath>
				<polygon style="clip-path:url(#SVGID_48_);fill-rule:evenodd;clip-rule:evenodd;fill:#FFFFFF;" points="1131.438,398.979 
					1117.817,398.061 1110.141,405.608 1106.899,392.48 1097.602,388.658 1107.725,380.25 1138.068,387.604 				"/>
			</g>
		</g>
		<g style="opacity:0.4;clip-path:url(#SVGID_4_);">
			<g>
				<defs>
					<rect id="SVGID_81_" x="984.939" y="652" width="102.891" height="99.6"/>
				</defs>
				<clipPath id="SVGID_50_">
					<use xlink:href="#SVGID_81_"  style="overflow:visible;"/>
				</clipPath>
				<polygon style="clip-path:url(#SVGID_50_);fill-rule:evenodd;clip-rule:evenodd;fill:#FFFFFF;" points="998,661.034 
					984.939,688.133 992.842,731.018 1025.982,751.601 1069.301,722.783 1087.83,684.303 1049.092,652 998,652 				"/>
			</g>
		</g>
		<g style="opacity:0.4;clip-path:url(#SVGID_4_);">
			<g>
				<defs>
					<rect id="SVGID_83_" x="1046.12" y="726.27" width="28.45" height="34.87"/>
				</defs>
				<clipPath id="SVGID_52_">
					<use xlink:href="#SVGID_83_"  style="overflow:visible;"/>
				</clipPath>
				<polygon style="clip-path:url(#SVGID_52_);fill-rule:evenodd;clip-rule:evenodd;fill:#FFFFFF;" points="1074.573,737.925 
					1066.57,748.986 1068.897,759.495 1056.051,755.281 1047.877,761.136 1046.118,748.094 1068.447,726.271 				"/>
			</g>
		</g>
		<g style="opacity:0.4;clip-path:url(#SVGID_4_);">
			<g>
				<defs>
					<rect id="SVGID_85_" x="808.309" y="670.18" width="61.399" height="62.45"/>
				</defs>
				<clipPath id="SVGID_54_">
					<use xlink:href="#SVGID_85_"  style="overflow:visible;"/>
				</clipPath>
				<polygon style="clip-path:url(#SVGID_54_);fill-rule:evenodd;clip-rule:evenodd;fill:#FFFFFF;" points="863.182,678.052 
					846.418,670.179 820.352,675.52 808.309,696.004 826.595,721.955 850.493,732.634 869.707,708.441 868.914,677.9 				"/>
			</g>
		</g>
		<g style="opacity:0.4;clip-path:url(#SVGID_4_);">
			<g>
				<defs>
					<rect id="SVGID_87_" x="797.425" y="710.4" width="17.94" height="29.869"/>
				</defs>
				<clipPath id="SVGID_56_">
					<use xlink:href="#SVGID_87_"  style="overflow:visible;"/>
				</clipPath>
				<polygon style="clip-path:url(#SVGID_56_);fill-rule:evenodd;clip-rule:evenodd;fill:#FFFFFF;" points="815.365,723.12 
					807.227,710.401 799.557,720.997 797.425,736.264 802.959,740.267 				"/>
			</g>
		</g>
		<g style="opacity:0.4;clip-path:url(#SVGID_4_);">
			<g>
				<defs>
					<rect id="SVGID_89_" x="842.235" y="632.51" width="58.937" height="35.43"/>
				</defs>
				<clipPath id="SVGID_58_">
					<use xlink:href="#SVGID_89_"  style="overflow:visible;"/>
				</clipPath>
				<polygon style="clip-path:url(#SVGID_58_);fill-rule:evenodd;clip-rule:evenodd;fill:#FFFFFF;" points="901.172,650.375 
					872.416,654.136 867.092,667.944 857.177,664.786 842.234,658.596 854.336,641.872 866.892,632.509 883.82,637.852 				"/>
			</g>
		</g>
		<g style="opacity:0.4;clip-path:url(#SVGID_4_);">
			<g>
				<defs>
					<rect id="SVGID_91_" x="813.278" y="633.939" width="28.455" height="34.86"/>
				</defs>
				<clipPath id="SVGID_60_">
					<use xlink:href="#SVGID_91_"  style="overflow:visible;"/>
				</clipPath>
				<polygon style="clip-path:url(#SVGID_60_);fill-rule:evenodd;clip-rule:evenodd;fill:#FFFFFF;" points="841.733,645.592 
					833.73,656.652 836.058,667.162 823.21,662.948 815.037,668.803 813.278,655.761 835.606,633.938 				"/>
			</g>
		</g>
		<g style="opacity:0.4;clip-path:url(#SVGID_4_);">
			<g>
				<defs>
					<rect id="SVGID_93_" x="874.671" y="662.73" width="59.794" height="59.3"/>
				</defs>
				<clipPath id="SVGID_62_">
					<use xlink:href="#SVGID_93_"  style="overflow:visible;"/>
				</clipPath>
				<polygon style="clip-path:url(#SVGID_62_);fill-rule:evenodd;clip-rule:evenodd;fill:#FFFFFF;" points="931.296,700.378 
					929.08,681.99 910.726,662.726 886.973,663.381 874.671,692.648 878.293,718.57 908.993,722.028 934.465,705.157 				"/>
			</g>
		</g>
		<g style="opacity:0.4;clip-path:url(#SVGID_4_);">
			<g>
				<defs>
					<rect id="SVGID_95_" x="936.68" y="672.3" width="39.643" height="45.601"/>
				</defs>
				<clipPath id="SVGID_64_">
					<use xlink:href="#SVGID_95_"  style="overflow:visible;"/>
				</clipPath>
				<polygon style="clip-path:url(#SVGID_64_);fill-rule:evenodd;clip-rule:evenodd;fill:#FFFFFF;" points="974.907,717.904 
					956.468,695.522 941.938,698.331 939.356,688.251 936.68,672.301 957.275,673.69 971.873,679.367 976.322,696.554 				"/>
			</g>
		</g>
		<g style="opacity:0.4;clip-path:url(#SVGID_4_);">
			<g>
				<defs>
					<rect id="SVGID_97_" x="913.602" y="646.25" width="40.467" height="25.36"/>
				</defs>
				<clipPath id="SVGID_66_">
					<use xlink:href="#SVGID_97_"  style="overflow:visible;"/>
				</clipPath>
				<polygon style="clip-path:url(#SVGID_66_);fill-rule:evenodd;clip-rule:evenodd;fill:#FFFFFF;" points="947.438,664.979 
					933.817,664.061 926.141,671.608 922.899,658.48 913.602,654.658 923.725,646.25 954.068,653.604 				"/>
			</g>
		</g>
		<g style="opacity:0.4;clip-path:url(#SVGID_4_);">
			<g>
				<defs>
					<rect id="SVGID_99_" x="877.303" y="598.9" width="50.703" height="43.1"/>
				</defs>
				<clipPath id="SVGID_68_">
					<use xlink:href="#SVGID_99_"  style="overflow:visible;"/>
				</clipPath>
				<polygon style="clip-path:url(#SVGID_68_);fill-rule:evenodd;clip-rule:evenodd;fill:#FFFFFF;" points="877.303,615.942 
					895.56,633.236 904.568,642 928.006,642 918.996,626.762 904.568,608.829 895.564,598.9 				"/>
			</g>
		</g>
		<g style="opacity:0.4;clip-path:url(#SVGID_4_);">
			<g>
				<defs>
					<rect id="SVGID_101_" x="1003.32" y="598.82" width="87.21" height="60.74"/>
				</defs>
				<clipPath id="SVGID_70_">
					<use xlink:href="#SVGID_101_"  style="overflow:visible;"/>
				</clipPath>
				<polygon style="clip-path:url(#SVGID_70_);fill-rule:evenodd;clip-rule:evenodd;fill:#FFFFFF;" points="1003.316,624.275 
					1011.506,642 1063.006,642 1081.455,659.557 1090.529,634.252 1085.172,608.672 1074.573,598.822 1058.67,608.554 
					1040.432,620.077 				"/>
			</g>
		</g>
		<g style="opacity:0.4;clip-path:url(#SVGID_4_);">
			<g>
				<defs>
					<rect id="SVGID_103_" x="1074.57" y="563.68" width="19.689" height="34.92"/>
				</defs>
				<clipPath id="SVGID_72_">
					<use xlink:href="#SVGID_103_"  style="overflow:visible;"/>
				</clipPath>
				<polygon style="clip-path:url(#SVGID_72_);fill-rule:evenodd;clip-rule:evenodd;fill:#FFFFFF;" points="1074.573,588.072 
					1092.69,598.596 1094.256,584.868 1090.529,563.679 1082.601,571.743 				"/>
			</g>
		</g>
		<g style="opacity:0.4;clip-path:url(#SVGID_4_);">
			<g>
				<defs>
					<rect id="SVGID_105_" x="993.961" y="243.41" width="99.6" height="104.529"/>
				</defs>
				<clipPath id="SVGID_74_">
					<use xlink:href="#SVGID_105_"  style="overflow:visible;"/>
				</clipPath>
				<polygon style="clip-path:url(#SVGID_74_);fill-rule:evenodd;clip-rule:evenodd;fill:#FFFFFF;" points="1085.227,289.237 
					1071.227,262.358 1031.998,243.414 995.971,258.094 993.961,310.029 1014.8,347.942 1064.207,335.84 1093.564,295.271 				"/>
			</g>
		</g>
		<g style="opacity:0.4;clip-path:url(#SVGID_4_);">
			<g>
				<defs>
					<rect id="SVGID_107_" x="928.026" y="257.62" width="61.399" height="62.45"/>
				</defs>
				<clipPath id="SVGID_76_">
					<use xlink:href="#SVGID_107_"  style="overflow:visible;"/>
				</clipPath>
				<polygon style="clip-path:url(#SVGID_76_);fill-rule:evenodd;clip-rule:evenodd;fill:#FFFFFF;" points="982.899,265.489 
					966.136,257.616 940.069,262.959 928.026,283.442 946.312,309.393 970.211,320.072 989.426,295.881 988.632,265.34 				"/>
			</g>
		</g>
		<g style="opacity:0.4;clip-path:url(#SVGID_4_);">
			<g>
				<defs>
					<rect id="SVGID_109_" x="965.701" y="316.42" width="37.469" height="48.189"/>
				</defs>
				<clipPath id="SVGID_78_">
					<use xlink:href="#SVGID_109_"  style="overflow:visible;"/>
				</clipPath>
				<polygon style="clip-path:url(#SVGID_78_);fill-rule:evenodd;clip-rule:evenodd;fill:#FFFFFF;" points="1003.173,345.854 
					992.723,326.646 986.641,316.42 979.079,319.949 970.431,331.901 965.701,351.405 977.376,359.853 995.107,364.608 				"/>
			</g>
		</g>
		<g style="opacity:0.4;clip-path:url(#SVGID_4_);">
			<g>
				<defs>
					<rect id="SVGID_111_" x="925.883" y="316.87" width="38.139" height="41.26"/>
				</defs>
				<clipPath id="SVGID_80_">
					<use xlink:href="#SVGID_111_"  style="overflow:visible;"/>
				</clipPath>
				<polygon style="clip-path:url(#SVGID_80_);fill-rule:evenodd;clip-rule:evenodd;fill:#FFFFFF;" points="964.021,324.246 
					950.277,321.339 937.95,316.868 925.883,333.544 935.308,350.527 951.672,358.135 960.799,357.115 				"/>
			</g>
		</g>
		<g style="opacity:0.4;clip-path:url(#SVGID_4_);">
			<g>
				<defs>
					<rect id="SVGID_113_" x="917.143" y="297.84" width="17.939" height="29.86"/>
				</defs>
				<clipPath id="SVGID_82_">
					<use xlink:href="#SVGID_113_"  style="overflow:visible;"/>
				</clipPath>
				<polygon style="clip-path:url(#SVGID_82_);fill-rule:evenodd;clip-rule:evenodd;fill:#FFFFFF;" points="935.082,310.559 
					926.943,297.84 919.275,308.436 917.143,323.701 922.676,327.705 				"/>
			</g>
		</g>
		<g style="opacity:0.4;clip-path:url(#SVGID_4_);">
			<g>
				<defs>
					<rect id="SVGID_115_" x="1084.54" y="255.83" width="24.13" height="32.02"/>
				</defs>
				<clipPath id="SVGID_84_">
					<use xlink:href="#SVGID_115_"  style="overflow:visible;"/>
				</clipPath>
				<polygon style="clip-path:url(#SVGID_84_);fill-rule:evenodd;clip-rule:evenodd;fill:#FFFFFF;" points="1092.151,287.852 
					1084.535,267.943 1086.525,255.83 1099.596,257.666 1108.666,274.393 				"/>
			</g>
		</g>
		<g style="opacity:0.4;clip-path:url(#SVGID_4_);">
			<g>
				<defs>
					<rect id="SVGID_117_" x="947.442" y="360.13" width="42.567" height="34.17"/>
				</defs>
				<clipPath id="SVGID_86_">
					<use xlink:href="#SVGID_117_"  style="overflow:visible;"/>
				</clipPath>
				<polygon style="clip-path:url(#SVGID_86_);fill-rule:evenodd;clip-rule:evenodd;fill:#FFFFFF;" points="990.01,371.653 
					978.556,368.181 971.045,360.34 958.562,360.133 947.442,364.125 973.622,394.302 984.691,390.273 				"/>
			</g>
		</g>
		<g style="opacity:0.4;clip-path:url(#SVGID_4_);">
			<g>
				<defs>
					<rect id="SVGID_119_" x="961.953" y="219.95" width="58.937" height="35.43"/>
				</defs>
				<clipPath id="SVGID_88_">
					<use xlink:href="#SVGID_119_"  style="overflow:visible;"/>
				</clipPath>
				<polygon style="clip-path:url(#SVGID_88_);fill-rule:evenodd;clip-rule:evenodd;fill:#FFFFFF;" points="1020.889,237.813 
					992.134,241.574 986.809,255.383 976.895,252.225 961.953,246.033 974.054,229.31 986.609,219.947 1003.538,225.291 				"/>
			</g>
		</g>
		<g style="opacity:0.4;clip-path:url(#SVGID_4_);">
			<g>
				<defs>
					<rect id="SVGID_121_" x="932.996" y="221.38" width="28.455" height="34.86"/>
				</defs>
				<clipPath id="SVGID_90_">
					<use xlink:href="#SVGID_121_"  style="overflow:visible;"/>
				</clipPath>
				<polygon style="clip-path:url(#SVGID_90_);fill-rule:evenodd;clip-rule:evenodd;fill:#FFFFFF;" points="961.451,233.029 
					953.448,244.09 955.775,254.601 942.928,250.386 934.755,256.241 932.996,243.199 955.324,221.375 				"/>
			</g>
		</g>
		<g style="opacity:0.4;clip-path:url(#SVGID_4_);">
			<g>
				<defs>
					<rect id="SVGID_123_" x="1006.31" y="136.18" width="61.4" height="62.45"/>
				</defs>
				<clipPath id="SVGID_92_">
					<use xlink:href="#SVGID_123_"  style="overflow:visible;"/>
				</clipPath>
				<polygon style="clip-path:url(#SVGID_92_);fill-rule:evenodd;clip-rule:evenodd;fill:#FFFFFF;" points="1061.182,144.052 
					1044.418,136.179 1018.352,141.52 1006.309,162.004 1024.595,187.955 1048.493,198.634 1067.707,174.441 1066.914,143.9 				"/>
			</g>
		</g>
		<g style="opacity:0.4;clip-path:url(#SVGID_4_);">
			<g>
				<defs>
					<rect id="SVGID_125_" x="1043.98" y="194.98" width="37.479" height="48.189"/>
				</defs>
				<clipPath id="SVGID_94_">
					<use xlink:href="#SVGID_125_"  style="overflow:visible;"/>
				</clipPath>
				<polygon style="clip-path:url(#SVGID_94_);fill-rule:evenodd;clip-rule:evenodd;fill:#FFFFFF;" points="1081.455,224.415 
					1071.006,205.208 1064.923,194.983 1057.361,198.512 1048.713,210.463 1043.983,229.967 1055.658,238.414 1073.391,243.171 				
					"/>
			</g>
		</g>
		<g style="opacity:0.4;clip-path:url(#SVGID_4_);">
			<g>
				<defs>
					<rect id="SVGID_127_" x="1004.17" y="195.43" width="38.13" height="41.271"/>
				</defs>
				<clipPath id="SVGID_96_">
					<use xlink:href="#SVGID_127_"  style="overflow:visible;"/>
				</clipPath>
				<polygon style="clip-path:url(#SVGID_96_);fill-rule:evenodd;clip-rule:evenodd;fill:#FFFFFF;" points="1042.305,202.809 
					1028.56,199.901 1016.232,195.43 1004.166,212.105 1013.59,229.09 1029.953,236.697 1039.082,235.677 				"/>
			</g>
		</g>
		<g style="opacity:0.4;clip-path:url(#SVGID_4_);">
			<g>
				<defs>
					<rect id="SVGID_129_" x="995.425" y="176.4" width="17.945" height="29.869"/>
				</defs>
				<clipPath id="SVGID_98_">
					<use xlink:href="#SVGID_129_"  style="overflow:visible;"/>
				</clipPath>
				<polygon style="clip-path:url(#SVGID_98_);fill-rule:evenodd;clip-rule:evenodd;fill:#FFFFFF;" points="1013.365,189.12 
					1005.227,176.401 997.557,186.997 995.425,202.264 1000.959,206.267 				"/>
			</g>
		</g>
		<g style="opacity:0.4;clip-path:url(#SVGID_4_);">
			<g>
				<defs>
					<rect id="SVGID_131_" x="1011.28" y="99.939" width="28.45" height="34.86"/>
				</defs>
				<clipPath id="SVGID_100_">
					<use xlink:href="#SVGID_131_"  style="overflow:visible;"/>
				</clipPath>
				<polygon style="clip-path:url(#SVGID_100_);fill-rule:evenodd;clip-rule:evenodd;fill:#FFFFFF;" points="1039.733,111.592 
					1031.73,122.652 1034.058,133.162 1021.21,128.948 1013.037,134.803 1011.278,121.761 1033.606,99.938 				"/>
			</g>
		</g>
		<g style="opacity:0.4;clip-path:url(#SVGID_4_);">
			<g>
				<defs>
					<rect id="SVGID_133_" x="843.804" y="76" width="102.763" height="99.88"/>
				</defs>
				<clipPath id="SVGID_102_">
					<use xlink:href="#SVGID_133_"  style="overflow:visible;"/>
				</clipPath>
				<polygon style="clip-path:url(#SVGID_102_);fill-rule:evenodd;clip-rule:evenodd;fill:#FFFFFF;" points="857,85.316 
					843.804,112.416 851.639,155.3 884.745,175.884 928.045,147.065 946.566,108.445 907.82,76 857,76 				"/>
			</g>
		</g>
		<g style="opacity:0.4;clip-path:url(#SVGID_4_);">
			<g>
				<defs>
					<rect id="SVGID_135_" x="918.939" y="-2" width="102.891" height="99.6"/>
				</defs>
				<clipPath id="SVGID_104_">
					<use xlink:href="#SVGID_135_"  style="overflow:visible;"/>
				</clipPath>
				<polygon style="clip-path:url(#SVGID_104_);fill-rule:evenodd;clip-rule:evenodd;fill:#FFFFFF;" points="932,7.034 
					918.939,34.133 926.842,77.018 959.982,97.601 1003.301,68.783 1021.83,30.303 983.092,-2 932,-2 				"/>
			</g>
		</g>
		<g style="opacity:0.4;clip-path:url(#SVGID_4_);">
			<g>
				<defs>
					<rect id="SVGID_137_" x="895.01" y="159.03" width="60.499" height="59.29"/>
				</defs>
				<clipPath id="SVGID_106_">
					<use xlink:href="#SVGID_137_"  style="overflow:visible;"/>
				</clipPath>
				<polygon style="clip-path:url(#SVGID_106_);fill-rule:evenodd;clip-rule:evenodd;fill:#FFFFFF;" points="898.492,182.138 
					901.94,200.334 921.55,218.32 945.204,216.068 955.509,186.041 950.15,160.419 919.286,159.034 895.01,177.582 				"/>
			</g>
		</g>
		<g style="opacity:0.4;clip-path:url(#SVGID_4_);">
			<g>
				<defs>
					<rect id="SVGID_139_" x="937.561" y="114.14" width="39.439" height="40.86"/>
				</defs>
				<clipPath id="SVGID_108_">
					<use xlink:href="#SVGID_139_"  style="overflow:visible;"/>
				</clipPath>
				<polygon style="clip-path:url(#SVGID_108_);fill-rule:evenodd;clip-rule:evenodd;fill:#FFFFFF;" points="951.714,118.602 
					942.278,138.328 937.562,150.096 944.852,155 959.604,155 977,145.705 977,131.295 971.046,114.14 				"/>
			</g>
		</g>
		<g style="opacity:0.4;clip-path:url(#SVGID_4_);">
			<g>
				<defs>
					<rect id="SVGID_141_" x="957.504" y="196" width="25.496" height="14"/>
				</defs>
				<clipPath id="SVGID_110_">
					<use xlink:href="#SVGID_141_"  style="overflow:visible;"/>
				</clipPath>
				<polygon style="clip-path:url(#SVGID_110_);fill-rule:evenodd;clip-rule:evenodd;fill:#FFFFFF;" points="963.036,196 
					957.504,210 970.583,210 983,201.284 983,196 				"/>
			</g>
		</g>
		<g style="opacity:0.4;clip-path:url(#SVGID_4_);">
			<g>
				<defs>
					<rect id="SVGID_143_" x="823.743" y="75.03" width="28.819" height="28.819"/>
				</defs>
				<clipPath id="SVGID_112_">
					<use xlink:href="#SVGID_143_"  style="overflow:visible;"/>
				</clipPath>
				<polygon style="clip-path:url(#SVGID_112_);fill-rule:evenodd;clip-rule:evenodd;fill:#FFFFFF;" points="852.562,80.519 
					840.898,98.358 829.918,103.848 823.743,92.183 831.978,75.029 				"/>
			</g>
		</g>
		<g style="opacity:0.4;clip-path:url(#SVGID_4_);">
			<g>
				<defs>
					<rect id="SVGID_145_" x="980.333" y="107.53" width="27.957" height="45.51"/>
				</defs>
				<clipPath id="SVGID_114_">
					<use xlink:href="#SVGID_145_"  style="overflow:visible;"/>
				</clipPath>
				<polygon style="clip-path:url(#SVGID_114_);fill-rule:evenodd;clip-rule:evenodd;fill:#FFFFFF;" points="980.333,114.14 
					984.233,125.456 982.283,136.139 989.434,146.374 999.185,153.041 1008.287,114.14 998.535,107.535 				"/>
			</g>
		</g>
		<g style="opacity:0.4;clip-path:url(#SVGID_4_);">
			<g>
				<defs>
					<rect id="SVGID_147_" x="853.8" y="167.58" width="41.21" height="44.42"/>
				</defs>
				<clipPath id="SVGID_116_">
					<use xlink:href="#SVGID_147_"  style="overflow:visible;"/>
				</clipPath>
				<polygon style="clip-path:url(#SVGID_116_);fill-rule:evenodd;clip-rule:evenodd;fill:#FFFFFF;" points="853.8,167.585 
					873.704,188.677 888.013,184.896 891.267,195.521 895.01,212 874.366,212 859.422,206.574 853.825,189.356 				"/>
			</g>
		</g>
		<g style="opacity:0.4;clip-path:url(#SVGID_4_);">
			<g>
				<defs>
					<rect id="SVGID_149_" x="820.535" y="135.83" width="24.131" height="32.02"/>
				</defs>
				<clipPath id="SVGID_118_">
					<use xlink:href="#SVGID_149_"  style="overflow:visible;"/>
				</clipPath>
				<polygon style="clip-path:url(#SVGID_118_);fill-rule:evenodd;clip-rule:evenodd;fill:#FFFFFF;" points="828.151,167.852 
					820.535,147.943 822.525,135.83 835.596,137.666 844.666,154.393 				"/>
			</g>
		</g>
		<g style="opacity:0.4;clip-path:url(#SVGID_4_);">
			<g>
				<defs>
					<rect id="SVGID_151_" x="980.118" y="72.27" width="28.452" height="34.87"/>
				</defs>
				<clipPath id="SVGID_120_">
					<use xlink:href="#SVGID_151_"  style="overflow:visible;"/>
				</clipPath>
				<polygon style="clip-path:url(#SVGID_120_);fill-rule:evenodd;clip-rule:evenodd;fill:#FFFFFF;" points="1008.573,83.925 
					1000.57,94.986 1002.897,105.495 990.051,101.281 981.877,107.136 980.118,94.094 1002.447,72.271 				"/>
			</g>
		</g>
		<g style="opacity:0.4;clip-path:url(#SVGID_4_);">
			<g>
				<defs>
					<rect id="SVGID_153_" x="742.309" y="16.18" width="61.399" height="62.45"/>
				</defs>
				<clipPath id="SVGID_122_">
					<use xlink:href="#SVGID_153_"  style="overflow:visible;"/>
				</clipPath>
				<polygon style="clip-path:url(#SVGID_122_);fill-rule:evenodd;clip-rule:evenodd;fill:#FFFFFF;" points="797.182,24.052 
					780.418,16.179 754.352,21.52 742.309,42.004 760.595,67.955 784.493,78.634 803.707,54.441 802.914,23.9 				"/>
			</g>
		</g>
		<g style="opacity:0.4;clip-path:url(#SVGID_4_);">
			<g>
				<defs>
					<rect id="SVGID_155_" x="779.983" y="74.98" width="37.472" height="48.189"/>
				</defs>
				<clipPath id="SVGID_124_">
					<use xlink:href="#SVGID_155_"  style="overflow:visible;"/>
				</clipPath>
				<polygon style="clip-path:url(#SVGID_124_);fill-rule:evenodd;clip-rule:evenodd;fill:#FFFFFF;" points="817.455,104.415 
					807.006,85.208 800.923,74.983 793.361,78.512 784.713,90.463 779.983,109.967 791.658,118.414 809.39,123.171 				"/>
			</g>
		</g>
		<g style="opacity:0.4;clip-path:url(#SVGID_4_);">
			<g>
				<defs>
					<rect id="SVGID_157_" x="740.166" y="75.43" width="38.139" height="41.271"/>
				</defs>
				<clipPath id="SVGID_126_">
					<use xlink:href="#SVGID_157_"  style="overflow:visible;"/>
				</clipPath>
				<polygon style="clip-path:url(#SVGID_126_);fill-rule:evenodd;clip-rule:evenodd;fill:#FFFFFF;" points="778.305,82.809 
					764.56,79.901 752.232,75.43 740.166,92.105 749.59,109.09 765.954,116.697 775.082,115.677 				"/>
			</g>
		</g>
		<g style="opacity:0.4;clip-path:url(#SVGID_4_);">
			<g>
				<defs>
					<rect id="SVGID_159_" x="731.425" y="56.4" width="17.94" height="29.869"/>
				</defs>
				<clipPath id="SVGID_128_">
					<use xlink:href="#SVGID_159_"  style="overflow:visible;"/>
				</clipPath>
				<polygon style="clip-path:url(#SVGID_128_);fill-rule:evenodd;clip-rule:evenodd;fill:#FFFFFF;" points="749.365,69.12 
					741.227,56.401 733.557,66.997 731.425,82.264 736.959,86.267 				"/>
			</g>
		</g>
		<g style="opacity:0.4;clip-path:url(#SVGID_4_);">
			<g>
				<defs>
					<rect id="SVGID_161_" x="808.671" y="8.73" width="59.794" height="59.3"/>
				</defs>
				<clipPath id="SVGID_130_">
					<use xlink:href="#SVGID_161_"  style="overflow:visible;"/>
				</clipPath>
				<polygon style="clip-path:url(#SVGID_130_);fill-rule:evenodd;clip-rule:evenodd;fill:#FFFFFF;" points="865.296,46.378 
					863.08,27.99 844.726,8.727 820.973,9.381 808.671,38.648 812.293,64.57 842.993,68.028 868.465,51.157 				"/>
			</g>
		</g>
		<g style="opacity:0.4;clip-path:url(#SVGID_4_);">
			<g>
				<defs>
					<rect id="SVGID_163_" x="870.68" y="18.3" width="39.643" height="45.601"/>
				</defs>
				<clipPath id="SVGID_132_">
					<use xlink:href="#SVGID_163_"  style="overflow:visible;"/>
				</clipPath>
				<polygon style="clip-path:url(#SVGID_132_);fill-rule:evenodd;clip-rule:evenodd;fill:#FFFFFF;" points="908.907,63.904 
					890.468,41.522 875.938,44.331 873.356,34.252 870.68,18.301 891.275,19.69 905.873,25.367 910.322,42.554 				"/>
			</g>
		</g>
		<g style="opacity:0.4;clip-path:url(#SVGID_4_);">
			<g>
				<defs>
					<rect id="SVGID_165_" x="1060.51" y="313.09" width="77.561" height="63.53"/>
				</defs>
				<clipPath id="SVGID_134_">
					<use xlink:href="#SVGID_165_"  style="overflow:visible;"/>
				</clipPath>
				<polygon style="clip-path:url(#SVGID_134_);fill-rule:evenodd;clip-rule:evenodd;fill:#FFFFFF;" points="1101.68,313.093 
					1079.564,337.318 1065.849,345.201 1060.506,359.838 1081.455,372.553 1090.529,376.617 1111.514,369.082 1125.504,372.553 
					1131.763,354.415 1138.068,342.688 1114.506,335.652 				"/>
			</g>
		</g>
		<g style="opacity:0.4;clip-path:url(#SVGID_4_);">
			<g>
				<defs>
					<rect id="SVGID_167_" x="909.804" y="731" width="102.767" height="99.88"/>
				</defs>
				<clipPath id="SVGID_136_">
					<use xlink:href="#SVGID_167_"  style="overflow:visible;"/>
				</clipPath>
				<polygon style="clip-path:url(#SVGID_136_);fill-rule:evenodd;clip-rule:evenodd;fill:#FFFFFF;" points="923,740.316 
					909.804,767.416 917.639,810.3 950.745,830.884 994.045,802.065 1012.566,763.445 973.82,731 923,731 				"/>
			</g>
		</g>
		<g style="opacity:0.4;clip-path:url(#SVGID_4_);">
			<g>
				<defs>
					<rect id="SVGID_169_" x="889.743" y="730.03" width="28.819" height="28.819"/>
				</defs>
				<clipPath id="SVGID_138_">
					<use xlink:href="#SVGID_169_"  style="overflow:visible;"/>
				</clipPath>
				<polygon style="clip-path:url(#SVGID_138_);fill-rule:evenodd;clip-rule:evenodd;fill:#FFFFFF;" points="918.562,735.519 
					906.898,753.358 895.918,758.848 889.743,747.183 897.978,730.029 				"/>
			</g>
		</g>
		<g style="opacity:0.4;clip-path:url(#SVGID_4_);">
			<g>
				<defs>
					<rect id="SVGID_171_" x="763.953" y="754.95" width="58.936" height="35.43"/>
				</defs>
				<clipPath id="SVGID_140_">
					<use xlink:href="#SVGID_171_"  style="overflow:visible;"/>
				</clipPath>
				<polygon style="clip-path:url(#SVGID_140_);fill-rule:evenodd;clip-rule:evenodd;fill:#FFFFFF;" points="822.889,772.813 
					794.134,776.574 788.809,790.383 778.895,787.225 763.953,781.033 776.054,764.31 788.609,754.947 805.538,760.291 				"/>
			</g>
		</g>
		<g style="opacity:0.4;clip-path:url(#SVGID_4_);">
			<g>
				<defs>
					<rect id="SVGID_173_" x="734.996" y="756.37" width="28.455" height="34.87"/>
				</defs>
				<clipPath id="SVGID_142_">
					<use xlink:href="#SVGID_173_"  style="overflow:visible;"/>
				</clipPath>
				<polygon style="clip-path:url(#SVGID_142_);fill-rule:evenodd;clip-rule:evenodd;fill:#FFFFFF;" points="763.451,768.029 
					755.448,779.09 757.775,789.601 744.928,785.386 736.755,791.241 734.996,778.199 757.324,756.375 				"/>
			</g>
		</g>
		<g style="opacity:0.4;clip-path:url(#SVGID_4_);">
			<g>
				<defs>
					<rect id="SVGID_175_" x="845.983" y="729.98" width="37.472" height="48.189"/>
				</defs>
				<clipPath id="SVGID_144_">
					<use xlink:href="#SVGID_175_"  style="overflow:visible;"/>
				</clipPath>
				<polygon style="clip-path:url(#SVGID_144_);fill-rule:evenodd;clip-rule:evenodd;fill:#FFFFFF;" points="883.455,759.415 
					873.006,740.208 866.923,729.983 859.361,733.511 850.713,745.463 845.983,764.967 857.658,773.414 875.39,778.171 				"/>
			</g>
		</g>
		<g style="opacity:0.4;clip-path:url(#SVGID_4_);">
			<g>
				<defs>
					<rect id="SVGID_177_" x="806.166" y="730.43" width="38.139" height="41.271"/>
				</defs>
				<clipPath id="SVGID_146_">
					<use xlink:href="#SVGID_177_"  style="overflow:visible;"/>
				</clipPath>
				<polygon style="clip-path:url(#SVGID_146_);fill-rule:evenodd;clip-rule:evenodd;fill:#FFFFFF;" points="844.305,737.809 
					830.56,734.901 818.232,730.43 806.166,747.105 815.59,764.09 831.954,771.696 841.082,770.677 				"/>
			</g>
		</g>
	</g>
</g>
</svg>
