<?xml version="1.0" encoding="utf-8"?>
<!-- Generator: Adobe Illustrator 16.0.0, SVG Export Plug-In . SVG Version: 6.00 Build 0)  -->
<!DOCTYPE svg PUBLIC "-//W3C//DTD SVG 1.1//EN" "http://www.w3.org/Graphics/SVG/1.1/DTD/svg11.dtd">
<svg version="1.1" id="圖層_1" xmlns="http://www.w3.org/2000/svg" xmlns:xlink="http://www.w3.org/1999/xlink" x="0px" y="0px"
	 width="1366px" height="768px" viewBox="0 0 1366 768" style="enable-background:new 0 0 1366 768;" xml:space="preserve">
<g>
	<defs>
		<rect id="SVGID_1_" y="-2304" width="1366" height="3840"/>
	</defs>
	<clipPath id="SVGID_2_">
		<use xlink:href="#SVGID_1_"  style="overflow:visible;"/>
	</clipPath>
	<g style="clip-path:url(#SVGID_2_);">
		<defs>
			<rect id="SVGID_3_" y="-2304" width="1366" height="3840"/>
		</defs>
		<clipPath id="SVGID_4_">
			<use xlink:href="#SVGID_3_"  style="overflow:visible;"/>
		</clipPath>
		<g style="opacity:0.5;clip-path:url(#SVGID_4_);">
			<g>
				<defs>
					<rect id="SVGID_15_" x="148.738" y="356.5" width="1116.222" height="321"/>
				</defs>
				<clipPath id="SVGID_6_">
					<use xlink:href="#SVGID_15_"  style="overflow:visible;"/>
				</clipPath>
				<polygon style="clip-path:url(#SVGID_6_);fill-rule:evenodd;clip-rule:evenodd;fill:#E6E6E6;" points="600.187,488.468 
					813.369,410.625 901.234,356.5 1147.5,410.625 1220.858,440.123 1264.963,462.17 1264.098,676.635 148.738,677.5 
					215.896,619.56 297.379,603.994 361.516,579.779 495.549,503.231 				"/>
			</g>
		</g>
		<g style="opacity:0.2;clip-path:url(#SVGID_4_);">
			<g>
				<defs>
					<rect id="SVGID_17_" x="843.5" y="309.97" width="553.93" height="226.03"/>
				</defs>
				<clipPath id="SVGID_8_">
					<use xlink:href="#SVGID_17_"  style="overflow:visible;"/>
				</clipPath>
				<polygon style="clip-path:url(#SVGID_8_);fill-rule:evenodd;clip-rule:evenodd;fill:#CECCCC;" points="869.066,474.703 
					1068.35,340 1130.938,340 1188.888,309.966 1232.451,339.545 1271.662,386.749 1338.885,455.816 1397.434,504.955 954.529,536 
					843.5,536 				"/>
			</g>
		</g>
		<polygon style="clip-path:url(#SVGID_4_);fill:#E6E6E6;" points="-4.375,493.045 66.571,462.233 149.97,398.688 240.347,419.201 
			334.714,456.252 556.773,484.005 681.748,526.782 771.919,505.238 952.409,446.183 1070.842,426.999 1298.903,461.846 
			1366,454.458 1366,770 -4.5,770 		"/>
		<path style="clip-path:url(#SVGID_4_);fill:#CCD2CC;" d="M1025.71-761.904l11.624,36.232l9.573,32.616l13.889,36.328
			l16.783,22.687l4.017,58.235l22.016,32.611l-1.723,21.737L1132-507.049v34.293l-6.318,20.465L1159-437.145v32.212l-9.583,17.172
			l9.583,24.663l-25.934,12.536l-7.602,48.79c0,0-9.367,16.643-9.882,20.579c-0.515,3.936-8.526,19.207-6.021,27.28
			c2.506,8.072,15.48,44.321,15.48,44.321L1117-177.453v39.822l-10.713,34.637l-5.724,47.551l-9.149,32.951L1122.086,4H710
			l-70-718.488V-762L1025.71-761.904z"/>
		<rect x="-6" y="-764" style="clip-path:url(#SVGID_4_);fill:#CCD2CC;" width="1032" height="768"/>
		<g style="opacity:0.4;clip-path:url(#SVGID_4_);">
			<g>
				<defs>
					<rect id="SVGID_167_" x="909.804" y="-37" width="102.767" height="99.88"/>
				</defs>
				<clipPath id="SVGID_10_">
					<use xlink:href="#SVGID_167_"  style="overflow:visible;"/>
				</clipPath>
				<polygon style="clip-path:url(#SVGID_10_);fill-rule:evenodd;clip-rule:evenodd;fill:#FFFFFF;" points="923,-27.684 
					909.804,-0.584 917.639,42.3 950.745,62.884 994.045,34.065 1012.566,-4.555 973.82,-37 923,-37 				"/>
			</g>
		</g>
		<g style="opacity:0.4;clip-path:url(#SVGID_4_);">
			<g>
				<defs>
					<rect id="SVGID_171_" x="763.953" y="-13.05" width="58.936" height="35.43"/>
				</defs>
				<clipPath id="SVGID_12_">
					<use xlink:href="#SVGID_171_"  style="overflow:visible;"/>
				</clipPath>
				<polygon style="clip-path:url(#SVGID_12_);fill-rule:evenodd;clip-rule:evenodd;fill:#FFFFFF;" points="822.889,4.813 
					794.134,8.574 788.809,22.383 778.895,19.225 763.953,13.033 776.054,-3.69 788.609,-13.053 805.538,-7.709 				"/>
			</g>
		</g>
		<g style="opacity:0.4;clip-path:url(#SVGID_4_);">
			<g>
				<defs>
					<rect id="SVGID_173_" x="734.996" y="-11.63" width="28.455" height="34.87"/>
				</defs>
				<clipPath id="SVGID_14_">
					<use xlink:href="#SVGID_173_"  style="overflow:visible;"/>
				</clipPath>
				<polygon style="clip-path:url(#SVGID_14_);fill-rule:evenodd;clip-rule:evenodd;fill:#FFFFFF;" points="763.451,0.029 
					755.448,11.09 757.775,21.601 744.928,17.386 736.755,23.241 734.996,10.199 757.324,-11.625 				"/>
			</g>
		</g>
		<g style="opacity:0.4;clip-path:url(#SVGID_4_);">
			<g>
				<defs>
					<rect id="SVGID_175_" x="845.983" y="-38.02" width="37.472" height="48.189"/>
				</defs>
				<clipPath id="SVGID_16_">
					<use xlink:href="#SVGID_175_"  style="overflow:visible;"/>
				</clipPath>
				<polygon style="clip-path:url(#SVGID_16_);fill-rule:evenodd;clip-rule:evenodd;fill:#FFFFFF;" points="883.455,-8.585 
					873.006,-27.792 866.923,-38.017 859.361,-34.489 850.713,-22.537 845.983,-3.033 857.658,5.414 875.39,10.171 				"/>
			</g>
		</g>
		<g style="opacity:0.4;clip-path:url(#SVGID_4_);">
			<g>
				<defs>
					<rect id="SVGID_177_" x="806.166" y="-37.57" width="38.139" height="41.271"/>
				</defs>
				<clipPath id="SVGID_18_">
					<use xlink:href="#SVGID_177_"  style="overflow:visible;"/>
				</clipPath>
				<polygon style="clip-path:url(#SVGID_18_);fill-rule:evenodd;clip-rule:evenodd;fill:#FFFFFF;" points="844.305,-30.191 
					830.56,-33.099 818.232,-37.57 806.166,-20.895 815.59,-3.91 831.954,3.696 841.082,2.677 				"/>
			</g>
		</g>
	</g>
</g>
</svg>
