<?xml version="1.0" encoding="utf-8"?>
<!-- Generator: Adobe Illustrator 16.0.0, SVG Export Plug-In . SVG Version: 6.00 Build 0)  -->
<!DOCTYPE svg PUBLIC "-//W3C//DTD SVG 1.1//EN" "http://www.w3.org/Graphics/SVG/1.1/DTD/svg11.dtd">
<svg version="1.1" id="圖層_1" xmlns="http://www.w3.org/2000/svg" xmlns:xlink="http://www.w3.org/1999/xlink" x="0px" y="0px"
	 width="1366px" height="768px" viewBox="0 0 1366 768" style="enable-background:new 0 0 1366 768;" xml:space="preserve">
<g>
	<defs>
		<rect id="SVGID_1_" y="-3069" width="1366" height="3840"/>
	</defs>
	<clipPath id="SVGID_2_">
		<use xlink:href="#SVGID_1_"  style="overflow:visible;"/>
	</clipPath>
	<g style="clip-path:url(#SVGID_2_);">
		<defs>
			<rect id="SVGID_3_" y="-3069" width="1366" height="3840"/>
		</defs>
		<clipPath id="SVGID_4_">
			<use xlink:href="#SVGID_3_"  style="overflow:visible;"/>
		</clipPath>
		<g style="opacity:0.5;clip-path:url(#SVGID_4_);">
			<g>
				<defs>
					<rect id="SVGID_7_" x="1004.92" y="314.013" width="378.58" height="467.987"/>
				</defs>
				<clipPath id="SVGID_6_">
					<use xlink:href="#SVGID_7_"  style="overflow:visible;"/>
				</clipPath>
				<polygon style="clip-path:url(#SVGID_6_);fill-rule:evenodd;clip-rule:evenodd;fill:#CECCCC;" points="1022.391,655.04 
					1158.59,376 1201.364,376 1240.971,314.013 1270.743,375.412 1297.541,473.266 1343.484,616.385 1383.498,717.936 1080.801,782 
					1004.918,782 				"/>
			</g>
		</g>
		<g style="opacity:0.4;clip-path:url(#SVGID_4_);">
			<g>
				<defs>
					<rect id="SVGID_9_" x="484.5" y="451.966" width="553.93" height="226.034"/>
				</defs>
				<clipPath id="SVGID_8_">
					<use xlink:href="#SVGID_9_"  style="overflow:visible;"/>
				</clipPath>
				<polygon style="clip-path:url(#SVGID_8_);fill-rule:evenodd;clip-rule:evenodd;fill:#CECCCC;" points="510.066,616.703 
					709.35,482 771.938,482 829.888,451.966 873.451,481.545 912.662,528.749 979.885,597.816 1038.434,646.955 595.529,678 
					484.5,678 				"/>
			</g>
		</g>
		<g style="opacity:0.5;clip-path:url(#SVGID_4_);">
			<g>
				<defs>
					<rect id="SVGID_11_" x="138.5" y="468.966" width="553.934" height="226.034"/>
				</defs>
				<clipPath id="SVGID_10_">
					<use xlink:href="#SVGID_11_"  style="overflow:visible;"/>
				</clipPath>
				<polygon style="clip-path:url(#SVGID_10_);fill-rule:evenodd;clip-rule:evenodd;fill:#CECCCC;" points="164.066,633.703 
					363.35,499 425.938,499 483.887,468.966 527.451,498.545 566.663,545.749 633.884,614.816 692.434,663.955 249.529,695 
					138.5,695 				"/>
			</g>
		</g>
		<polygon style="clip-path:url(#SVGID_4_);fill:#E6E6E6;" points="-4.375,-271.955 66.571,-302.767 149.97,-366.312 
			240.347,-345.799 334.714,-308.748 556.773,-280.995 681.748,-238.218 771.919,-259.762 952.409,-318.817 1070.842,-338.001 
			1298.903,-303.154 1366,-310.542 1366,5 -4.5,5 		"/>
		<g style="opacity:0.8;clip-path:url(#SVGID_4_);">
			<g>
				<defs>
					<rect id="SVGID_19_" x="991.434" y="122.045" width="414.996" height="734.955"/>
				</defs>
				<clipPath id="SVGID_12_">
					<use xlink:href="#SVGID_19_"  style="overflow:visible;"/>
				</clipPath>
				<polygon style="clip-path:url(#SVGID_12_);fill-rule:evenodd;clip-rule:evenodd;fill:#808080;" points="1010.588,658.045 
					1159.888,220 1206.777,220 1250.193,122.045 1282.83,218.32 1312.207,372.033 1362.568,596.979 1406.434,756.455 1074.615,857 
					991.434,857 				"/>
			</g>
		</g>
		<g style="opacity:0.4;clip-path:url(#SVGID_4_);">
			<g>
				<defs>
					<rect id="SVGID_21_" x="1258.43" y="122.42" width="86.49" height="531.58"/>
				</defs>
				<clipPath id="SVGID_14_">
					<use xlink:href="#SVGID_21_"  style="overflow:visible;"/>
				</clipPath>
				<polygon style="clip-path:url(#SVGID_14_);fill-rule:evenodd;clip-rule:evenodd;fill:#CECCCC;" points="1340.928,509.906 
					1309.813,193 1298.334,204.674 1290.994,122.42 1284.192,192.119 1278.07,303.279 1267.574,465.894 1258.434,581.244 
					1327.584,654 1344.919,654 				"/>
			</g>
		</g>
		<g style="opacity:0.4;clip-path:url(#SVGID_4_);">
			<g>
				<defs>
					<rect id="SVGID_23_" x="1181.43" y="76.42" width="86.49" height="531.58"/>
				</defs>
				<clipPath id="SVGID_16_">
					<use xlink:href="#SVGID_23_"  style="overflow:visible;"/>
				</clipPath>
				<polygon style="clip-path:url(#SVGID_16_);fill-rule:evenodd;clip-rule:evenodd;fill:#CECCCC;" points="1263.928,463.906 
					1232.813,147 1223.041,147 1213.994,76.42 1207.192,146.119 1201.07,257.279 1190.574,419.894 1181.434,535.244 1250.584,608 
					1267.919,608 				"/>
			</g>
		</g>
		<g style="opacity:0.4;clip-path:url(#SVGID_4_);">
			<g>
				<defs>
					<rect id="SVGID_25_" x="1128.939" y="76.42" width="155.98" height="531.58"/>
				</defs>
				<clipPath id="SVGID_18_">
					<use xlink:href="#SVGID_25_"  style="overflow:visible;"/>
				</clipPath>
				<polygon style="clip-path:url(#SVGID_18_);fill-rule:evenodd;clip-rule:evenodd;fill:#CECCCC;" points="1277.721,463.906 
					1221.604,147 1208.218,135.608 1187.662,76.42 1175.396,146.119 1164.354,257.279 1145.427,419.894 1128.939,535.244 
					1253.655,608 1284.919,608 				"/>
			</g>
		</g>
		<g style="opacity:0.4;clip-path:url(#SVGID_4_);">
			<g>
				<defs>
					<rect id="SVGID_27_" x="1044.82" y="73.42" width="106.1" height="531.58"/>
				</defs>
				<clipPath id="SVGID_20_">
					<use xlink:href="#SVGID_27_"  style="overflow:visible;"/>
				</clipPath>
				<polygon style="clip-path:url(#SVGID_20_);fill-rule:evenodd;clip-rule:evenodd;fill:#CECCCC;" points="1146.022,460.906 
					1107.852,144 1091.667,162.67 1084.764,73.42 1076.418,143.119 1068.908,254.279 1056.033,416.894 1044.818,532.244 
					1129.652,605 1150.918,605 				"/>
			</g>
		</g>
		<g style="opacity:0.4;clip-path:url(#SVGID_4_);">
			<g>
				<defs>
					<rect id="SVGID_29_" x="606.852" y="204.673" width="507.337" height="794.856"/>
				</defs>
				<clipPath id="SVGID_22_">
					<use xlink:href="#SVGID_29_"  style="overflow:visible;"/>
				</clipPath>
				<polygon style="clip-path:url(#SVGID_22_);fill-rule:evenodd;clip-rule:evenodd;fill:#CECCCC;" points="629.908,783.844 
					811.691,309.642 860.607,285.387 921.953,204.673 962.043,309.106 998.252,475.329 1060.254,718.315 1114.188,890.271 
					708.578,999.355 606.851,999.53 				"/>
			</g>
		</g>
		<g style="opacity:0.4;clip-path:url(#SVGID_4_);">
			<g>
				<defs>
					<rect id="SVGID_31_" x="477.5" y="451.966" width="553.93" height="226.034"/>
				</defs>
				<clipPath id="SVGID_24_">
					<use xlink:href="#SVGID_31_"  style="overflow:visible;"/>
				</clipPath>
				<polygon style="clip-path:url(#SVGID_24_);fill-rule:evenodd;clip-rule:evenodd;fill:#CECCCC;" points="503.066,616.703 
					702.35,482 764.938,482 822.888,451.966 866.451,481.545 905.662,528.749 972.885,597.816 1031.434,646.955 588.529,678 
					477.5,678 				"/>
			</g>
		</g>
		<g style="opacity:0.4;clip-path:url(#SVGID_4_);">
			<g>
				<defs>
					<rect id="SVGID_33_" x="991.5" y="101.356" width="263.52" height="573.644"/>
				</defs>
				<clipPath id="SVGID_26_">
					<use xlink:href="#SVGID_33_"  style="overflow:visible;"/>
				</clipPath>
				<polygon style="clip-path:url(#SVGID_26_);fill-rule:evenodd;clip-rule:evenodd;fill:#CECCCC;" points="1003.663,519.176 
					1098.467,177 1128.939,162.443 1155.809,101.355 1176.533,176.747 1195.186,296.73 1227.166,472.14 1255.02,596.537 
					1044.319,675 991.5,675 				"/>
			</g>
		</g>
		<g style="opacity:0.7;clip-path:url(#SVGID_4_);">
			<g>
				<defs>
					<rect id="SVGID_35_" x="898.434" y="173.077" width="244.996" height="476.923"/>
				</defs>
				<clipPath id="SVGID_28_">
					<use xlink:href="#SVGID_35_"  style="overflow:visible;"/>
				</clipPath>
				<polygon style="clip-path:url(#SVGID_28_);fill-rule:evenodd;clip-rule:evenodd;fill:#CECCCC;" points="909.741,520.457 
					997.883,236 1024.433,210.05 1051.195,173.077 1070.463,235.731 1087.806,335.464 1117.538,481.279 1143.433,584.732 
					947.541,650 898.433,650 				"/>
			</g>
		</g>
		<g style="opacity:0.5;clip-path:url(#SVGID_4_);">
			<g>
				<defs>
					<rect id="SVGID_37_" x="426.5" y="414.966" width="433.867" height="226.034"/>
				</defs>
				<clipPath id="SVGID_30_">
					<use xlink:href="#SVGID_37_"  style="overflow:visible;"/>
				</clipPath>
				<polygon style="clip-path:url(#SVGID_30_);fill-rule:evenodd;clip-rule:evenodd;fill:#CECCCC;" points="446.525,579.703 
					602.612,445 651.634,445 697.023,414.966 731.145,444.545 761.857,491.749 814.51,560.816 860.367,609.955 513.463,641 
					426.5,641 				"/>
			</g>
		</g>
		<g style="opacity:0.6;clip-path:url(#SVGID_4_);">
			<g>
				<defs>
					<rect id="SVGID_39_" x="226.5" y="341.82" width="553.934" height="319.18"/>
				</defs>
				<clipPath id="SVGID_32_">
					<use xlink:href="#SVGID_39_"  style="overflow:visible;"/>
				</clipPath>
				<polygon style="clip-path:url(#SVGID_32_);fill-rule:evenodd;clip-rule:evenodd;fill:#999999;" points="252.066,574.35 
					451.35,384 513.938,384 571.887,341.82 615.451,383.73 654.663,450.476 721.885,548.076 780.434,617.318 337.529,661 226.5,661 
									"/>
			</g>
		</g>
		<polygon style="clip-path:url(#SVGID_4_);fill-rule:evenodd;clip-rule:evenodd;fill:#CECCCC;" points="533.073,618.716 
			610.25,486.209 659.5,456.638 714.871,510.102 749.356,592.75 787.5,657 587.5,657 504.25,643.857 		"/>
		<polygon style="clip-path:url(#SVGID_4_);fill-rule:evenodd;clip-rule:evenodd;fill:#E6E6E6;" points="-6,465.671 
			134.045,449.078 268.419,478.012 436.49,537 535.535,537 647.402,561 772.536,561 875.076,575.541 928.553,542.288 
			1027.044,551.043 1072.219,605.046 1122.6,650.049 1195.773,674.525 1272.714,693 1359.013,693 1367.046,693 1367.549,772 -6,772 
			-6,503.034 		"/>
	</g>
</g>
</svg>
