<?xml version="1.0" encoding="utf-8"?>
<!-- Generator: Adobe Illustrator 18.0.0, SVG Export Plug-In . SVG Version: 6.00 Build 0)  -->
<!DOCTYPE svg PUBLIC "-//W3C//DTD SVG 1.1//EN" "http://www.w3.org/Graphics/SVG/1.1/DTD/svg11.dtd">
<svg version="1.1" id="圖層_1" xmlns="http://www.w3.org/2000/svg" xmlns:xlink="http://www.w3.org/1999/xlink" x="0px" y="0px"
	 viewBox="0 0 1366 768" style="enable-background:new 0 0 1366 768;" xml:space="preserve">
<polygon style="fill:#E6E6E6;" points="1365.375,489.045 1221.647,544.333 1151.894,576.771 1117.017,589 1048.778,766 
	1364.938,766 "/>
<path style="opacity:0.2;fill:#B3B3B3;" d="M1292.509-291.079c-6.337-15.002-31.684-102.01-31.684-102.01l-19.011-156.016
	l-47.525-240.024L1070.724-909l-87.038-117.384c0,0-96.725-74.776-106.125-78.2c-9.399-3.424-158.381-10-158.381-10l-119.802-244.6
	L173.188-1608H55v1467h933.051l3.172,20.667l37.143,108.666L1032,12.726l22.907,55.398L1058.983,97l26.596,30.293l41.088-19.445
	l54.302-28.864L1199.626,25L1214-41l56-100C1270-141,1298.845-276.077,1292.509-291.079z"/>
<path style="opacity:0.3;fill:#E8EAE8;" d="M517.505-1222.184l113.448,244.6c0,0,141.08,6.576,149.981,10
	c8.901,3.424,100.496,78.2,100.496,78.2L963.852-772l117.012,119.871l45.005,240.024l18.002,156.016
	c0,0,24.003,87.008,30.003,102.01s6.865,234.345,6.865,234.345L2-4v-1536L517.505-1222.184z"/>
<path style="fill:#CCD2CC;" d="M265.967-1536l81.19,126.726l25.417,125.025c0,0,43.21,143.836,48.293,155.954
	c5.083,12.118,48.292,111.29,61.001,130.711c12.709,19.421,112.221,99.969,119.653,112.2C608.953-873.152,708.893-768,708.893-768
	s116.106,65.864,118.648,74.865c2.54,9.001,55.916,171.018,61,183.019c5.083,12.001,83.877,234.023,83.877,234.023
	s-10.167,66.006,0,90.009c10.166,24.003,55.96,165.017,55.96,165.017L1031.01,0H0v-1536H265.967z"/>
<path style="opacity:0.2;fill:#CCCCCC;" d="M1199.626-4c-9.278-32.428-23.756-88.278-23.756-88.278l-18.002-166.035l-45.005-255.439
	L995.852-641.321L913.43-766.244c0,0-91.595-79.578-100.496-83.222c-8.901-3.645-263.429-270.95-263.429-270.95L34-1458.644V176
	l1106,75.616L1199.626-4z"/>
<g>
	<path style="fill:#CCD2CC;" d="M1033.71-0.904l11.624,36.328l9.573,32.7l13.889,36.423l16.783,22.746l4.017,58.388l22.016,32.696
		l-1.723,21.795L1140,254.616V289l-6.318,20.517L1167,324.704V357l-9.583,17.217l9.583,24.728l-25.933,12.568l-7.603,48.917
		c0,0-9.367,16.687-9.882,20.633s-8.526,19.258-6.021,27.352c2.506,8.094,15.48,44.438,15.48,44.438L1125,585.072V625
		l-10.713,34.726l-5.723,47.676l-9.15,33.037L1130.086,767H718L648,46.636V-1L1033.71-0.904z"/>
</g>
<rect y="-1" style="fill:#CCD2CC;" width="1032" height="768"/>
<path style="opacity:0.2;fill:#CCCCCC;" d="M1223.628,72.605c-9.47-34.068-24.245-92.745-24.245-92.745l-18.372-174.437
	l-45.932-268.363l-119.422-134.025l-84.119-131.243c0,0-93.481-83.605-102.565-87.433c-9.084-3.829-268.853-284.661-268.853-284.661
	L34-1455.644V261.714l1128.774,79.442L1223.628,72.605z"/>
<g>
	<polygon style="opacity:0.4;fill-rule:evenodd;clip-rule:evenodd;fill:#FFFFFF;" points="938,743.316 924.804,770.415 
		932.639,813.3 965.745,833.884 1009.045,805.065 1027.566,766.445 988.82,734 938,734 	"/>
	<polygon style="opacity:0.4;fill-rule:evenodd;clip-rule:evenodd;fill:#FFFFFF;" points="933.562,738.519 921.898,756.358 
		910.919,761.848 904.743,750.183 912.977,733.029 	"/>
	<polygon style="opacity:0.4;fill-rule:evenodd;clip-rule:evenodd;fill:#FFFFFF;" points="898.455,762.415 888.006,743.208 
		881.923,732.983 874.361,736.511 865.713,748.463 860.983,767.967 872.658,776.414 890.391,781.171 	"/>
	<polygon style="opacity:0.4;fill-rule:evenodd;clip-rule:evenodd;fill:#FFFFFF;" points="859.305,740.809 845.56,737.901 
		833.232,733.43 821.166,750.106 830.59,767.09 846.954,774.696 856.082,773.677 	"/>
	<polygon style="opacity:0.4;fill-rule:evenodd;clip-rule:evenodd;fill:#FFFFFF;" points="972.16,166.986 977.863,180.607 
		981.467,194 1002.051,194 1010.285,175.625 1006.856,157.518 1000.678,150.524 	"/>
	<polygon style="opacity:0.4;fill-rule:evenodd;clip-rule:evenodd;fill:#FFFFFF;" points="1117.562,472.519 1105.898,490.358 
		1094.919,495.848 1088.743,484.183 1096.978,467.029 	"/>
	<polygon style="opacity:0.4;fill-rule:evenodd;clip-rule:evenodd;fill:#FFFFFF;" points="1086.227,561.237 1072.227,534.358 
		1032.999,515.414 996.971,530.094 994.961,582.029 1015.8,619.942 1065.208,607.839 1094.564,567.271 	"/>
	<polygon style="opacity:0.4;fill-rule:evenodd;clip-rule:evenodd;fill:#FFFFFF;" points="983.899,537.489 967.136,529.616 
		941.069,534.958 929.026,555.442 947.312,581.393 971.211,592.072 990.426,567.88 989.632,537.339 	"/>
	<polygon style="opacity:0.4;fill-rule:evenodd;clip-rule:evenodd;fill:#FFFFFF;" points="1004.173,617.854 993.723,598.646 
		987.641,588.421 980.079,591.948 971.431,603.901 966.701,623.405 978.376,631.852 996.108,636.608 	"/>
	<polygon style="opacity:0.4;fill-rule:evenodd;clip-rule:evenodd;fill:#FFFFFF;" points="965.021,596.246 951.277,593.339 
		938.95,588.868 926.883,605.544 936.308,622.527 952.672,630.134 961.799,629.115 	"/>
	<polygon style="opacity:0.4;fill-rule:evenodd;clip-rule:evenodd;fill:#FFFFFF;" points="936.082,582.559 927.943,569.84 
		920.275,580.435 918.143,595.701 923.676,599.704 	"/>
	<polygon style="opacity:0.4;fill-rule:evenodd;clip-rule:evenodd;fill:#FFFFFF;" points="1093.151,559.852 1085.535,539.943 
		1087.525,527.831 1100.596,529.666 1109.666,546.393 	"/>
	<polygon style="opacity:0.4;fill-rule:evenodd;clip-rule:evenodd;fill:#FFFFFF;" points="991.01,643.653 979.556,640.181 
		972.045,632.339 959.561,632.132 948.442,636.124 974.622,666.302 985.691,662.273 	"/>
	<polygon style="opacity:0.4;fill-rule:evenodd;clip-rule:evenodd;fill:#FFFFFF;" points="1021.889,509.814 993.134,513.574 
		987.809,527.383 977.894,524.225 962.953,518.033 975.054,501.31 987.609,491.947 1004.538,497.29 	"/>
	<polygon style="opacity:0.4;fill-rule:evenodd;clip-rule:evenodd;fill:#FFFFFF;" points="962.451,505.029 954.448,516.09 
		956.775,526.601 943.928,522.386 935.755,528.241 933.996,515.199 956.324,493.375 	"/>
	<polygon style="opacity:0.4;fill-rule:evenodd;clip-rule:evenodd;fill:#FFFFFF;" points="1062.182,416.052 1045.418,408.179 
		1019.352,413.52 1007.309,434.004 1025.595,459.955 1049.493,470.634 1068.708,446.441 1067.914,415.9 	"/>
	<polygon style="opacity:0.4;fill-rule:evenodd;clip-rule:evenodd;fill:#FFFFFF;" points="1082.455,496.415 1072.006,477.208 
		1065.923,466.983 1058.361,470.511 1049.713,482.463 1044.983,501.967 1056.658,510.414 1074.391,515.171 	"/>
	<polygon style="opacity:0.4;fill-rule:evenodd;clip-rule:evenodd;fill:#FFFFFF;" points="1043.305,474.809 1029.56,471.901 
		1017.232,467.43 1005.166,484.105 1014.59,501.09 1030.954,508.696 1040.082,507.677 	"/>
	<polygon style="opacity:0.4;fill-rule:evenodd;clip-rule:evenodd;fill:#FFFFFF;" points="1014.365,461.12 1006.227,448.401 
		998.558,458.997 996.425,474.264 1001.959,478.266 	"/>
	<polygon style="opacity:0.4;fill-rule:evenodd;clip-rule:evenodd;fill:#FFFFFF;" points="1100.172,388.375 1071.416,392.136 
		1066.092,405.944 1056.177,402.786 1041.235,396.596 1053.336,379.872 1065.892,370.509 1082.82,375.852 	"/>
	<polygon style="opacity:0.4;fill-rule:evenodd;clip-rule:evenodd;fill:#FFFFFF;" points="1040.733,383.592 1032.73,394.651 
		1035.058,405.162 1022.211,400.948 1014.037,406.803 1012.278,393.761 1034.606,371.938 	"/>
	<polygon style="opacity:0.4;fill-rule:evenodd;clip-rule:evenodd;fill:#FFFFFF;" points="1130.296,438.378 1128.08,419.99 
		1109.726,400.726 1085.973,401.381 1073.671,430.647 1077.293,456.57 1107.993,460.028 1133.465,443.157 	"/>
	<polygon style="opacity:0.4;fill-rule:evenodd;clip-rule:evenodd;fill:#FFFFFF;" points="1146.438,402.978 1132.817,402.06 
		1125.141,409.608 1121.899,396.48 1112.602,392.658 1122.725,384.249 1153.068,391.603 	"/>
	<polygon style="opacity:0.4;fill-rule:evenodd;clip-rule:evenodd;fill:#FFFFFF;" points="1013,665.034 999.939,692.133 
		1007.842,735.018 1040.982,755.601 1084.301,726.783 1102.83,688.303 1064.092,656 1013,656 	"/>
	<polygon style="opacity:0.4;fill-rule:evenodd;clip-rule:evenodd;fill:#FFFFFF;" points="1089.573,741.925 1081.57,752.985 
		1083.897,763.495 1071.051,759.281 1062.877,765.136 1061.118,752.094 1083.447,730.271 	"/>
	<polygon style="opacity:0.4;fill-rule:evenodd;clip-rule:evenodd;fill:#FFFFFF;" points="878.182,682.052 861.418,674.179 
		835.352,679.519 823.309,700.004 841.595,725.955 865.493,736.634 884.708,712.441 883.914,681.9 	"/>
	<polygon style="opacity:0.4;fill-rule:evenodd;clip-rule:evenodd;fill:#FFFFFF;" points="830.365,727.12 822.227,714.401 
		814.558,724.997 812.425,740.264 817.959,744.266 	"/>
	<polygon style="opacity:0.4;fill-rule:evenodd;clip-rule:evenodd;fill:#FFFFFF;" points="916.172,654.375 887.416,658.136 
		882.092,671.944 872.177,668.786 857.235,662.596 869.336,645.872 881.892,636.509 898.82,641.852 	"/>
	<polygon style="opacity:0.4;fill-rule:evenodd;clip-rule:evenodd;fill:#FFFFFF;" points="856.733,649.592 848.73,660.651 
		851.058,671.162 838.211,666.948 830.037,672.803 828.278,659.761 850.606,637.938 	"/>
	<polygon style="opacity:0.4;fill-rule:evenodd;clip-rule:evenodd;fill:#FFFFFF;" points="946.296,704.378 944.08,685.99 
		925.726,666.726 901.973,667.381 889.671,696.648 893.293,722.57 923.993,726.028 949.465,709.157 	"/>
	<polygon style="opacity:0.4;fill-rule:evenodd;clip-rule:evenodd;fill:#FFFFFF;" points="989.907,721.904 971.468,699.523 
		956.938,702.331 954.356,692.251 951.68,676.3 972.275,677.69 986.873,683.367 991.322,700.554 	"/>
	<polygon style="opacity:0.4;fill-rule:evenodd;clip-rule:evenodd;fill:#FFFFFF;" points="962.438,668.979 948.817,668.06 
		941.141,675.608 937.899,662.481 928.602,658.658 938.725,650.249 969.068,657.604 	"/>
	<polygon style="opacity:0.4;fill-rule:evenodd;clip-rule:evenodd;fill:#FFFFFF;" points="892.303,619.942 910.56,637.236 
		919.568,646 943.006,646 933.996,630.762 919.568,612.829 910.564,602.9 	"/>
	<polygon style="opacity:0.4;fill-rule:evenodd;clip-rule:evenodd;fill:#FFFFFF;" points="1018.316,628.275 1026.506,646 
		1078.006,646 1096.455,663.557 1105.529,638.252 1100.172,612.672 1089.573,602.822 1073.671,612.554 1055.432,624.077 	"/>
	<polygon style="opacity:0.4;fill-rule:evenodd;clip-rule:evenodd;fill:#FFFFFF;" points="1089.573,592.072 1107.69,602.596 
		1109.256,588.868 1105.529,567.679 1097.601,575.743 	"/>
	<polygon style="opacity:0.4;fill-rule:evenodd;clip-rule:evenodd;fill:#FFFFFF;" points="1100.227,293.237 1086.227,266.358 
		1046.999,247.414 1010.971,262.094 1008.961,314.029 1029.8,351.942 1079.208,339.839 1108.564,299.271 	"/>
	<polygon style="opacity:0.4;fill-rule:evenodd;clip-rule:evenodd;fill:#FFFFFF;" points="997.899,269.489 981.136,261.616 
		955.069,266.958 943.026,287.442 961.312,313.393 985.211,324.072 1004.426,299.88 1003.632,269.339 	"/>
	<polygon style="opacity:0.4;fill-rule:evenodd;clip-rule:evenodd;fill:#FFFFFF;" points="1018.173,349.853 1007.723,330.646 
		1001.641,320.421 994.079,323.948 985.431,335.901 980.701,355.405 992.376,363.853 1010.108,368.608 	"/>
	<polygon style="opacity:0.4;fill-rule:evenodd;clip-rule:evenodd;fill:#FFFFFF;" points="979.021,328.246 965.277,325.339 
		952.95,320.868 940.883,337.544 950.308,354.527 966.672,362.134 975.799,361.115 	"/>
	<polygon style="opacity:0.4;fill-rule:evenodd;clip-rule:evenodd;fill:#FFFFFF;" points="950.082,314.559 941.943,301.84 
		934.275,312.435 932.143,327.701 937.676,331.704 	"/>
	<polygon style="opacity:0.4;fill-rule:evenodd;clip-rule:evenodd;fill:#FFFFFF;" points="1107.151,291.852 1099.535,271.943 
		1101.525,259.831 1114.596,261.666 1123.666,278.393 	"/>
	<polygon style="opacity:0.4;fill-rule:evenodd;clip-rule:evenodd;fill:#FFFFFF;" points="1005.01,375.653 993.556,372.181 
		986.045,364.339 973.561,364.132 962.442,368.124 988.622,398.302 999.691,394.273 	"/>
	<polygon style="opacity:0.4;fill-rule:evenodd;clip-rule:evenodd;fill:#FFFFFF;" points="1035.889,241.814 1007.134,245.574 
		1001.809,259.383 991.894,256.225 976.953,250.033 989.054,233.31 1001.609,223.947 1018.538,229.29 	"/>
	<polygon style="opacity:0.4;fill-rule:evenodd;clip-rule:evenodd;fill:#FFFFFF;" points="976.451,237.029 968.448,248.09 
		970.775,258.601 957.928,254.386 949.755,260.241 947.996,247.199 970.324,225.375 	"/>
	<polygon style="opacity:0.4;fill-rule:evenodd;clip-rule:evenodd;fill:#FFFFFF;" points="1076.182,148.052 1059.418,140.179 
		1033.352,145.52 1021.309,166.004 1039.595,191.955 1063.493,202.634 1082.708,178.441 1081.914,147.9 	"/>
	<polygon style="opacity:0.4;fill-rule:evenodd;clip-rule:evenodd;fill:#FFFFFF;" points="1096.455,228.415 1086.006,209.208 
		1079.923,198.983 1072.361,202.511 1063.713,214.463 1058.983,233.967 1070.658,242.414 1088.391,247.171 	"/>
	<polygon style="opacity:0.4;fill-rule:evenodd;clip-rule:evenodd;fill:#FFFFFF;" points="1057.305,206.809 1043.56,203.901 
		1031.232,199.43 1019.166,216.105 1028.59,233.09 1044.954,240.696 1054.082,239.677 	"/>
	<polygon style="opacity:0.4;fill-rule:evenodd;clip-rule:evenodd;fill:#FFFFFF;" points="1028.365,193.12 1020.227,180.401 
		1012.558,190.997 1010.425,206.264 1015.959,210.266 	"/>
	<polygon style="opacity:0.4;fill-rule:evenodd;clip-rule:evenodd;fill:#FFFFFF;" points="1054.733,115.592 1046.73,126.651 
		1049.058,137.162 1036.211,132.948 1028.037,138.803 1026.278,125.761 1048.606,103.938 	"/>
	<polygon style="opacity:0.4;fill-rule:evenodd;clip-rule:evenodd;fill:#FFFFFF;" points="872,89.316 858.804,116.415 
		866.639,159.3 899.745,179.884 943.045,151.065 961.566,112.445 922.82,80 872,80 	"/>
	<polygon style="opacity:0.4;fill-rule:evenodd;clip-rule:evenodd;fill:#FFFFFF;" points="947,11.034 933.939,38.133 
		941.842,81.018 974.982,101.601 1018.301,72.783 1036.83,34.303 998.092,2 947,2 	"/>
	<polygon style="opacity:0.4;fill-rule:evenodd;clip-rule:evenodd;fill:#FFFFFF;" points="913.492,186.138 916.94,204.334 
		936.55,222.32 960.204,220.068 970.509,190.041 965.15,164.419 934.286,163.034 910.01,181.582 	"/>
	<polygon style="opacity:0.4;fill-rule:evenodd;clip-rule:evenodd;fill:#FFFFFF;" points="966.714,122.602 957.278,142.328 
		952.561,154.096 959.852,159 974.604,159 992,149.705 992,135.295 986.046,118.14 	"/>
	<polygon style="opacity:0.4;fill-rule:evenodd;clip-rule:evenodd;fill:#FFFFFF;" points="978.036,200 972.504,214 985.583,214 
		998,205.284 998,200 	"/>
	<polygon style="opacity:0.4;fill-rule:evenodd;clip-rule:evenodd;fill:#FFFFFF;" points="867.562,84.519 855.898,102.358 
		844.919,107.848 838.743,96.183 846.977,79.029 	"/>
	<polygon style="opacity:0.4;fill-rule:evenodd;clip-rule:evenodd;fill:#FFFFFF;" points="995.333,118.14 999.233,129.456 
		997.283,140.139 1004.434,150.374 1014.185,157.041 1023.287,118.14 1013.535,111.534 	"/>
	<polygon style="opacity:0.4;fill-rule:evenodd;clip-rule:evenodd;fill:#FFFFFF;" points="868.8,171.585 888.704,192.677 
		903.013,188.895 906.267,199.521 910.01,216 889.366,216 874.422,210.574 868.825,193.355 	"/>
	<polygon style="opacity:0.4;fill-rule:evenodd;clip-rule:evenodd;fill:#FFFFFF;" points="843.151,171.852 835.535,151.943 
		837.525,139.831 850.596,141.666 859.666,158.393 	"/>
	<polygon style="opacity:0.4;fill-rule:evenodd;clip-rule:evenodd;fill:#FFFFFF;" points="1023.573,87.925 1015.57,98.985 
		1017.898,109.495 1005.051,105.281 996.877,111.136 995.118,98.094 1017.447,76.271 	"/>
	<polygon style="opacity:0.4;fill-rule:evenodd;clip-rule:evenodd;fill:#FFFFFF;" points="812.182,28.052 795.418,20.179 
		769.352,25.52 757.309,46.004 775.595,71.955 799.493,82.634 818.708,58.441 817.914,27.9 	"/>
	<polygon style="opacity:0.4;fill-rule:evenodd;clip-rule:evenodd;fill:#FFFFFF;" points="832.455,108.415 822.006,89.208 
		815.923,78.983 808.361,82.511 799.713,94.463 794.983,113.967 806.658,122.414 824.391,127.171 	"/>
	<polygon style="opacity:0.4;fill-rule:evenodd;clip-rule:evenodd;fill:#FFFFFF;" points="793.305,86.809 779.56,83.901 
		767.232,79.43 755.166,96.105 764.59,113.09 780.954,120.696 790.082,119.677 	"/>
	<polygon style="opacity:0.4;fill-rule:evenodd;clip-rule:evenodd;fill:#FFFFFF;" points="764.365,73.12 756.227,60.401 
		748.558,70.997 746.425,86.264 751.959,90.266 	"/>
	<polygon style="opacity:0.4;fill-rule:evenodd;clip-rule:evenodd;fill:#FFFFFF;" points="880.296,50.378 878.08,31.99 
		859.726,12.726 835.973,13.381 823.671,42.647 827.293,68.57 857.993,72.028 883.465,55.157 	"/>
	<polygon style="opacity:0.4;fill-rule:evenodd;clip-rule:evenodd;fill:#FFFFFF;" points="923.907,67.904 905.468,45.522 
		890.938,48.331 888.356,38.251 885.68,22.3 906.275,23.69 920.873,29.367 925.322,46.554 	"/>
	<polygon style="opacity:0.4;fill-rule:evenodd;clip-rule:evenodd;fill:#FFFFFF;" points="1116.68,317.093 1094.564,341.317 
		1080.849,349.202 1075.506,363.838 1096.455,376.553 1105.529,380.618 1126.514,373.082 1140.504,376.553 1146.763,358.415 
		1153.068,346.686 1129.506,339.652 	"/>
</g>
<polygon style="fill:#E6E6E6;" points="1365.625,489.045 1436.312,458.232 1519.406,394.688 1609.453,415.201 1703.477,452.252 
	1924.726,480.005 2049.244,522.782 2139.086,501.238 2318.918,442.183 2436.918,422.999 2664.148,457.846 2731,450.458 2731,766 
	1365.5,766 "/>
</svg>
