<?xml version="1.0" encoding="utf-8"?>
<!-- Generator: Adobe Illustrator 18.0.0, SVG Export Plug-In . SVG Version: 6.00 Build 0)  -->
<!DOCTYPE svg PUBLIC "-//W3C//DTD SVG 1.1//EN" "http://www.w3.org/Graphics/SVG/1.1/DTD/svg11.dtd">
<svg version="1.1" id="圖層_1" xmlns="http://www.w3.org/2000/svg" xmlns:xlink="http://www.w3.org/1999/xlink" x="0px" y="0px"
	 viewBox="0 0 1366 768" style="enable-background:new 0 0 1366 768;" xml:space="preserve">
<polygon style="opacity:0.5;fill-rule:evenodd;clip-rule:evenodd;fill:#E6E6E6;" points="607.187,484.468 820.369,406.625 
	908.234,352.5 1154.5,406.625 1227.858,436.123 1271.963,458.17 1271.098,672.635 155.738,673.5 222.895,615.56 304.38,599.994 
	368.516,575.779 502.55,499.231 "/>
<polygon style="opacity:0.3;fill-rule:evenodd;clip-rule:evenodd;fill:#CECCCC;" points="876.066,470.703 1075.35,336 1137.938,336 
	1195.888,305.966 1239.451,335.545 1278.662,382.749 1345.885,451.816 1404.434,500.955 961.529,532 850.5,532 "/>
<polygon style="fill:#E6E6E6;" points="-0.375,489.045 70.312,458.232 153.406,394.688 243.453,415.201 337.477,452.252 
	558.726,480.005 683.244,522.782 773.086,501.238 952.918,442.183 1070.918,422.999 1298.148,457.846 1365,450.458 1365,766 
	-0.5,766 "/>
<polygon style="fill-rule:evenodd;clip-rule:evenodd;fill:#E6E6E6;" points="1339,458.671 1478.225,442.078 1611.811,471.012 
	1778.896,530 1877.361,530 1988.573,554 2112.974,554 2214.913,568.541 2268.076,535.288 2365.99,544.043 2410.9,598.046 
	2460.986,643.049 2533.73,667.524 2610.221,686 2696.014,686 2704,686 2704.5,765 1339,765 1339,496.034 "/>
</svg>
