<?xml version="1.0" encoding="utf-8"?>
<!-- Generator: Adobe Illustrator 18.0.0, SVG Export Plug-In . SVG Version: 6.00 Build 0)  -->
<!DOCTYPE svg PUBLIC "-//W3C//DTD SVG 1.1//EN" "http://www.w3.org/Graphics/SVG/1.1/DTD/svg11.dtd">
<svg version="1.1" id="圖層_1" xmlns="http://www.w3.org/2000/svg" xmlns:xlink="http://www.w3.org/1999/xlink" x="0px" y="0px"
	 viewBox="0 0 1366 768" style="enable-background:new 0 0 1366 768;" xml:space="preserve">
<polygon style="opacity:0.3;fill-rule:evenodd;clip-rule:evenodd;fill:#CECCCC;" points="-489.934,470.703 -290.65,336 
	-228.062,336 -170.112,305.966 -126.549,335.545 -87.338,382.749 -20.115,451.816 38.434,500.955 -404.471,532 -515.5,532 "/>
<polygon style="opacity:0.8;fill-rule:evenodd;clip-rule:evenodd;fill:#808080;" points="989.588,651.045 1138.888,213 
	1185.777,213 1229.193,115.045 1261.83,211.32 1291.207,365.033 1341.569,589.979 1385.434,749.455 1053.615,850 970.434,850 "/>
<polygon style="opacity:0.4;fill-rule:evenodd;clip-rule:evenodd;fill:#CECCCC;" points="1319.928,502.906 1288.813,186 
	1277.334,197.673 1269.994,115.42 1263.192,185.119 1257.07,296.279 1246.575,458.894 1237.434,574.244 1306.584,647 1323.919,647 
	"/>
<polygon style="opacity:0.4;fill-rule:evenodd;clip-rule:evenodd;fill:#CECCCC;" points="1242.928,456.906 1211.813,140 
	1202.041,140 1192.994,69.42 1186.192,139.119 1180.07,250.279 1169.575,412.894 1160.434,528.244 1229.584,601 1246.919,601 "/>
<polygon style="opacity:0.4;fill-rule:evenodd;clip-rule:evenodd;fill:#CECCCC;" points="1256.721,456.906 1200.604,140 
	1187.218,128.608 1166.663,69.42 1154.396,139.119 1143.354,250.279 1124.427,412.894 1107.939,528.244 1232.655,601 1263.919,601 
	"/>
<polygon style="opacity:0.4;fill-rule:evenodd;clip-rule:evenodd;fill:#CECCCC;" points="1125.022,453.906 1086.852,137 
	1070.667,155.67 1063.764,66.42 1055.419,136.119 1047.908,247.279 1035.033,409.894 1023.818,525.244 1108.652,598 1129.919,598 
	"/>
<polygon style="opacity:0.4;fill-rule:evenodd;clip-rule:evenodd;fill:#CECCCC;" points="608.908,776.844 790.691,302.642 
	839.607,278.387 900.953,197.673 941.043,302.106 977.252,468.329 1039.254,711.315 1093.188,883.271 687.578,992.356 
	585.852,992.529 "/>
<polygon style="opacity:0.4;fill-rule:evenodd;clip-rule:evenodd;fill:#CECCCC;" points="482.066,609.703 681.35,475 743.938,475 
	801.888,444.966 845.451,474.545 884.662,521.749 951.885,590.816 1010.434,639.955 567.529,671 456.5,671 "/>
<polygon style="opacity:0.4;fill-rule:evenodd;clip-rule:evenodd;fill:#CECCCC;" points="982.663,512.176 1077.467,170 
	1107.939,155.444 1134.81,94.355 1155.533,169.747 1174.187,289.73 1206.166,465.14 1234.02,589.537 1023.319,668 970.5,668 "/>
<polygon style="opacity:0.7;fill-rule:evenodd;clip-rule:evenodd;fill:#CECCCC;" points="888.741,513.457 976.883,229 
	1003.434,203.05 1030.195,166.077 1049.463,228.73 1066.807,328.464 1096.538,474.279 1122.434,577.732 926.541,643 877.434,643 "/>
<polygon style="opacity:0.5;fill-rule:evenodd;clip-rule:evenodd;fill:#CECCCC;" points="425.525,572.703 581.612,438 630.635,438 
	676.023,407.966 710.144,437.545 740.857,484.749 793.51,553.816 839.367,602.955 492.464,634 405.5,634 "/>
<polygon style="opacity:0.6;fill-rule:evenodd;clip-rule:evenodd;fill:#999999;" points="231.066,567.35 430.35,377 492.938,377 
	550.888,334.82 594.451,376.73 633.662,443.476 700.885,541.076 759.434,610.318 316.529,654 205.5,654 "/>
<polygon style="fill-rule:evenodd;clip-rule:evenodd;fill:#E6E6E6;" points="-27,458.671 112.225,442.078 245.811,471.012 
	412.897,530 511.361,530 622.573,554 746.974,554 848.913,568.541 902.076,535.288 999.99,544.043 1044.9,598.046 1094.986,643.049 
	1167.73,667.524 1244.221,686 1330.014,686 1338,686 1338.5,765 -27,765 -27,496.034 "/>
</svg>
