<?xml version="1.0" encoding="utf-8"?>
<!-- Generator: Adobe Illustrator 18.0.0, SVG Export Plug-In . SVG Version: 6.00 Build 0)  -->
<!DOCTYPE svg PUBLIC "-//W3C//DTD SVG 1.1//EN" "http://www.w3.org/Graphics/SVG/1.1/DTD/svg11.dtd">
<svg version="1.1" id="圖層_1" xmlns="http://www.w3.org/2000/svg" xmlns:xlink="http://www.w3.org/1999/xlink" x="0px" y="0px"
	 viewBox="0 0 830.6 312.1" style="enable-background:new 0 0 830.6 312.1;" xml:space="preserve">
<g>
	
		<ellipse transform="matrix(1 1.010982e-03 -1.010982e-03 1 0.1241 -0.5996)" style="opacity:0.6;fill-rule:evenodd;clip-rule:evenodd;fill:#45FFD8;" cx="593.2" cy="122.5" rx="91.3" ry="19.1"/>
	<path style="fill-rule:evenodd;clip-rule:evenodd;fill:#CCCCCC;" d="M521.2,137.1l8.5,156c0,0,109,8,127.8-5.6
		c18.8-13.6,33.9-158.7,33.9-158.7s-105.2,20.7-156.5,10.5C483.5,129.1,521.2,137.1,521.2,137.1z"/>
	<polygon style="fill:#FFFFFF;" points="492.6,119.8 526.4,135.4 534.5,290.4 516.2,282.2 	"/>
	<path style="fill:none;stroke:#000000;stroke-width:5;stroke-miterlimit:10;" d="M700.9,114.5l-34.3,164.9
		c0,9.1-33.9,16.4-75.7,16.4c-41.8,0-75.7-7.3-75.7-16.4l-24.7-164.9"/>
	
		<ellipse style="fill-rule:evenodd;clip-rule:evenodd;fill:none;stroke:#000000;stroke-width:5;stroke-miterlimit:10;" cx="595.6" cy="114.5" rx="105.2" ry="25.9"/>
	<g>
		<g>
			<path style="fill-rule:evenodd;clip-rule:evenodd;fill:#F2F2F2;" d="M116.9,127.2L137,289.8c0,0,77.4,12.1,84-6.4
				c6.5-18.4,28.9-175.6,28.9-175.6s-42.1,27.2-71.6,26.4C148.7,133.5,116.9,127.2,116.9,127.2z"/>
			<g>
				<g>
					<path d="M82.3,85c8.5,66.6,25.3,131.8,34,198.4c0.2,1.2,1.6,2.2,2.6,1.1c2-2.2,2.1-4.5,2.1-7.5c0-1.9-3-1.9-3,0
						c0,2,0.2,3.7-1.3,5.3c0.9,0.4,1.7,0.7,2.6,1.1c-8.7-66.6-25.5-131.8-34-198.4C85,83.1,82,83.1,82.3,85L82.3,85z"/>
				</g>
			</g>
			<g>
				<g>
					<path d="M105.3,92.9c7.1-8.1,20.3-10.4,30.3-12.2c15.8-2.8,32.1-3.2,48-2.3c14.6,0.8,29.7,2.9,43.4,8.4
						c8.5,3.5,18.6,10.1,15.3,20.6c-0.6,1.9,2.3,2.6,2.9,0.8c7.4-24.1-35-30.1-49.8-31.8c-16.3-1.9-33-1.9-49.3-0.2
						c-12.5,1.3-26,3.4-37,9.8c-2.2,1.3-4.3,2.9-6,4.8C101.9,92.2,104,94.3,105.3,92.9L105.3,92.9z"/>
				</g>
			</g>
			<g>
				<g>
					<path d="M148,55.5c-0.2-0.8-0.7-0.5-1.3,0.9c0.2,0.1,0.5,0.3,0.7,0.4c0.3,0.2,1.2,0.9,1.2,1c0.1-0.4,0.3-0.7,0.4-1.1
						c-0.6,0.6-4.4,4.4-5.3,3.3c-1-1.3-1.6-2.7-3.1-3.5c-1.7-0.9-3.2,1.7-1.5,2.6c1.5,0.8,1.9,2.7,3.3,3.7c2.1,1.6,5.1-0.8,6.6-2
						c1.3-1.1,3.2-2.2,2.2-4.1c-0.6-1.1-1.6-1.9-2.6-2.6c-2.6-1.6-4.5,0.3-3.3,3C146.3,58.7,148.9,57.2,148,55.5L148,55.5z"/>
				</g>
			</g>
			<g>
				<g>
					<path d="M182.2,145.1c0.3,0-0.4-0.1,0.1,0c0.2,0,0.5,0.2,0.8,0.5c1.4,1.3,1.5,3.7,1.5,5.5c0.5-0.5,1-1,1.5-1.5
						c-2.1-0.1-2.9-1.1-3.7-2.9c-0.8-1.8-1.7-3.4-3.5-4.3c-1.7-0.9-3.2,1.7-1.5,2.6c1.8,0.9,2.1,2.9,3,4.5c1.1,2.2,3.3,3.1,5.7,3.2
						c0.8,0,1.5-0.7,1.5-1.5c0-3.3-1.1-8.9-5.5-8.9C180.2,142.1,180.2,145.1,182.2,145.1L182.2,145.1z"/>
				</g>
			</g>
			<g>
				<g>
					<path d="M141.9,48.6c-0.4-1.7,1.9-0.7,0-1.4c-0.7-0.3-1.4-0.6-2-0.9c-1.7-0.8-3.3-1.7-5-2.5c-4.5-2.3-9-4.3-13.8-5.9
						c-10-3.4-20.2-2.5-30.3,0c-21.9,5.3-42.6,19.1-55.9,37.3c-9.9,13.5-14.2,31-8.2,46.9c4.8,12.8,15.7,22.3,27.3,28.9
						c20.8,11.9,46,16.1,69.7,15.5c20.9-0.6,44.9-5.4,59.9-21.2c1.3-1.4-0.8-3.5-2.1-2.1c-10.1,10.6-24.6,15.7-38.7,18.3
						c-16.8,3.1-34.3,2.6-51.1-0.5c-27.6-5.1-64-20.9-64.8-53.7c-0.8-30.9,30.5-54.7,56.7-64.2c7.2-2.6,14.8-4.2,22.4-4.6
						c7.8-0.4,15.2,2.2,22.3,5.3c4.4,2,8.5,4.4,12.9,6.3c1.9,0.8,4.3,0.2,3.6-2.3C144.3,46,141.4,46.8,141.9,48.6L141.9,48.6z"/>
				</g>
			</g>
			<g>
				<path style="fill-rule:evenodd;clip-rule:evenodd;fill:#939286;" d="M36.1,81.8c11.9-6.4,17,57.6,23.8,70.4
					c-37.4,16-59.6-68.8-17-73.6"/>
				<g>
					<path d="M36.9,83.1c6.3-3,11.8,27.9,12.5,31.3c1.6,7.7,3,15.5,4.7,23.3c1.1,5.1,2.2,10.6,4.6,15.3c0.3-0.7,0.6-1.5,0.9-2.2
						C23.1,165.7,2.8,85.2,42.9,80.1c1.9-0.2,1.9-3.2,0-3c-45,5.7-22.7,93,17.4,76.5c0.9-0.4,1.4-1.3,0.9-2.2c-3-5.8-4-13-5.3-19.3
						c-1.8-8.9-3.5-17.9-5.5-26.8c-1.2-5.2-5.1-29.6-15.1-24.8C33.6,81.4,35.1,84,36.9,83.1L36.9,83.1z"/>
				</g>
			</g>
			<g>
				<g>
					<path style="fill:#45FFD8;" d="M148.2,112.3c9.1,0.2,19.3,1.7,27.9,4.6c-0.7-2.8-1.5-5.6-2.2-8.4c-6.8,6.8-17.3,7.3-26.3,6
						c-10.9-1.5-21.4-5.6-30.6-11.6c0,2.9,0,5.8,0,8.6c22-11.4,55-12,75.9,2.4c0-2.9,0-5.8,0-8.6c-11.7,7.2-25.7,8.6-39.2,7.8
						c-13.6-0.9-27.7-4.8-38.9-12.6c0,2.9,0,5.8,0,8.6c28.2-14.6,65-6,92.8,5.3c-0.4-3-0.8-6.1-1.2-9.1c-11.1,8.6-27.4,8.6-40.7,7.7
						c-15-1-31.2-4.4-44.1-12.5c0,2.9,0,5.8,0,8.6c24.9-18.8,68.8-16.3,90.6,6.4c0-2.4,0-4.7,0-7.1c-12.1,13.8-32.7,14.1-49.6,12
						c-18.2-2.2-37.6-8.8-52.3-20c0,2.9,0,5.8,0,8.6c15.1-10.4,34.8-11.6,52.5-10.4c18,1.2,37,5.7,52.6,15.2
						c-0.6-2.3-1.2-4.6-1.8-6.8c-10.1,15.6-35,15.9-51.3,14.7c-10.8-0.9-21.5-3.4-31.6-7.4c-7.7-3-16-7.6-20.9-14.5
						c-0.6,2.3-1.2,4.6-1.8,6.8c18.5-9.7,41.1-11.6,61.7-10.7c20.7,0.8,44.4,5.4,60.4,19.5c0.3-2.6,0.7-5.2,1-7.9
						c-18.3,10.2-42.5,9.6-62.7,8c-21.1-1.7-44.6-5.9-62.7-17.6c0.3,2.6,0.7,5.2,1,7.9c14.3-16.2,39.9-18.2,60-17.7
						c19.8,0.5,43.6,3.8,59.8,16.1c-0.3-2.6-0.7-5.2-1-7.9c-14.3,17.5-41.4,17.9-62,16.8c-22.4-1.3-46.2-5.9-66.8-15.2
						c0,2.9,0,5.8,0,8.6c19.5-15,46.1-18.5,70-19.1c24.4-0.6,50.7,2.1,73.3,11.9c-0.8-1.4-1.7-2.9-2.5-4.3c0,0.8,0,1.6,0,2.4
						c0.5-1.2,1-2.4,1.5-3.5c-3.7,3.8-7.9,6.3-12.5,8.8c-5.7,3-0.6,11.7,5,8.6c4.2-2.3,8.1-4.7,11.8-7.8c3.1-2.6,4.2-4.6,4.2-8.5
						c0-1.6-0.9-3.6-2.5-4.3c-24.4-10.5-52-13.7-78.4-13.3c-25.4,0.5-54.3,4.6-75,20.5c-2.6,2-3.8,6.9,0,8.6
						c22.7,10.3,48.3,15.2,73.1,16.6c22.7,1.3,52.2-0.7,67.8-19.8c2.2-2.7,1.7-5.8-1-7.9c-17.9-13.6-44.3-17-66.1-17.5
						c-22.3-0.5-50.2,2.9-65.9,20.7c-2.2,2.5-1.8,6,1,7.9c19.7,12.7,44.8,17,67.7,19c22,1.9,47.9,1.7,67.7-9.4
						c2.7-1.5,3.4-5.7,1-7.9c-17.9-15.8-42.9-21.1-66.1-22.4c-22.7-1.3-47.7,1.4-68.1,12c-2.3,1.2-3.3,4.7-1.8,6.8
						c12.9,18.4,38.9,24.6,59.9,26.7c20.6,2,48.6-0.3,61.1-19.5c1.5-2.3,0.4-5.5-1.8-6.8c-17.1-10.5-37.8-15-57.6-16.6
						c-19.3-1.5-41.3,0.5-57.6,11.8c-3.3,2.3-3.1,6.3,0,8.6c16.3,12.4,37.3,18.7,57.3,21.4c19.4,2.6,42.9,0.7,56.6-15
						c1.8-2.1,2-5,0-7.1c-24.6-25.6-74.4-29.4-102.7-8c-3,2.2-3.4,6.5,0,8.6c14.5,9.1,32.3,12.6,49.2,13.9
						c14.8,1.1,33.5,0.4,45.8-9.1c3.6-2.8,3-7.4-1.2-9.1c-30.6-12.4-69.8-20.2-100.5-4.3c-3.6,1.8-2.9,6.6,0,8.6
						c12.4,8.6,27.7,12.4,42.6,13.8c15.4,1.4,32.3-0.7,45.7-9c3.4-2.1,3.1-6.5,0-8.6c-23.8-16.4-61-15.4-86-2.4
						c-3.5,1.8-3,6.7,0,8.6c18.3,11.9,51.2,22,69,4c2.8-2.8,1.3-7.2-2.2-8.4c-9.4-3.1-20.7-4.7-30.6-5
						C141.8,102.1,141.8,112.1,148.2,112.3L148.2,112.3z"/>
				</g>
			</g>
			<path style="fill-rule:evenodd;clip-rule:evenodd;fill:none;stroke:#000000;stroke-width:3;stroke-miterlimit:10;" d="
				M249.8,92.3c0,23.4-37,42.4-82.6,42.4c-45.6,0-82.6-19-82.6-42.4c0-23.4,37-42.4,82.6-42.4C212.9,49.9,249.8,68.9,249.8,92.3z"/>
		</g>
		
			<line style="fill-rule:evenodd;clip-rule:evenodd;fill:none;stroke:#000000;stroke-width:3;stroke-miterlimit:10;" x1="250.8" y1="88.3" x2="223.2" y2="279.4"/>
		<path style="fill-rule:evenodd;clip-rule:evenodd;fill:none;stroke:#000000;stroke-width:3;stroke-miterlimit:10;" d="
			M221.6,273.3c1,1,1.6,2.1,1.6,3.3c0,7.4-23.6,13.4-52.6,13.4c-29.1,0-52.6-6-52.6-13.4c0-1.4,0.8-2.7,2.3-3.9"/>
	</g>
	
		<ellipse transform="matrix(0.9999 1.577480e-02 -1.577480e-02 0.9999 3.3428 -5.0963)" style="opacity:0.5;fill-rule:evenodd;clip-rule:evenodd;fill:#FFFFFF;" cx="324.7" cy="209.3" rx="42.3" ry="6"/>
	<ellipse style="fill:#45B8E5;" cx="350.5" cy="53" rx="44.4" ry="22.5"/>
	<path style="fill:#30111D;" d="M308.6,40.9v208c0,0,50.2,65.8,87.2,0l-0.2-205.8c0,0-11.5,20.2-46.3,20.9c0,0-27.4,2.7-37.9-18.5
		C300.8,24.2,308.6,40.9,308.6,40.9z"/>
	<path style="fill:#808080;" d="M395.4,87.4c0,0-51.8,23.2-68.6,6.3l0.8,126.4c0,0,17.8,25.2,55.9,10.2
		c14.3-5.6,12.9-15.3,12.9-15.3L395.4,87.4z"/>
	
		<ellipse style="fill-rule:evenodd;clip-rule:evenodd;fill:none;stroke:#000000;stroke-width:3;stroke-miterlimit:10;" cx="353.9" cy="40.5" rx="43.2" ry="23.4"/>
	<path style="fill:none;stroke:#000000;stroke-width:3;stroke-miterlimit:10;" d="M396.1,37.1v211.9l0-5.2c0.6,1.8,1,3.6,1,5.5
		c0,15-19.3,27.2-43.1,27.2c-23.8,0-43.1-12.2-43.1-27.2c0-1.9-0.2-3.7,0.3-5.5l-2,5.2V37.1"/>
	<ellipse style="fill:#45FFD8;" cx="415.5" cy="127.8" rx="32.1" ry="15"/>
	<path style="fill:#999999;" d="M378.6,123.7v138.9c0,0,41.1,43.9,71.6,0l-0.2-137.5c0,0-9.5,13.5-38,13.9c0,0-22.4,1.8-31.1-12.4
		C372.1,112.5,378.6,123.7,378.6,123.7z"/>
	<path style="fill:#545656;" d="M449.7,154.8c0,0-42.6,15.5-56.3,4.2l0.7,84.4c0,0,14.7,16.9,46,6.8c11.7-3.8,10.6-10.2,10.6-10.2
		L449.7,154.8z"/>
	
		<ellipse style="fill-rule:evenodd;clip-rule:evenodd;fill:none;stroke:#000000;stroke-width:3;stroke-miterlimit:10;" cx="415.7" cy="120.9" rx="35.5" ry="18.2"/>
	<path style="fill:none;stroke:#000000;stroke-width:3;stroke-miterlimit:10;" d="M450.1,121.1v141.6l0.1-3.5
		c0.5,1.2,0.8,2.4,0.8,3.7c0,10-15.8,18.2-35.4,18.2c-19.6,0-35.4-8.1-35.4-18.2c0-1.3-0.1-2.5,0.4-3.7l-1.5,3.5V121.1"/>
	
		<ellipse transform="matrix(0.9984 5.647884e-02 -5.647884e-02 0.9984 12.3184 -17.2197)" style="fill-rule:evenodd;clip-rule:evenodd;fill:#3974BC;" cx="310.8" cy="209.3" rx="79.9" ry="18"/>
	<path style="fill-rule:evenodd;clip-rule:evenodd;fill:#333333;" d="M260.4,221.1l4.3,62.1c0,0,82.9,17.1,99.8-1.9l26.1-62.2
		C390.6,219.1,298,232.6,260.4,221.1z"/>
	<g>
		<g>
			<g>
				<path d="M228.4,204.8c6.9,26,7.6,53.4,16.6,78.9c0.6,1.8,3.5,1,2.9-0.8c-9-25.5-9.7-52.9-16.6-78.9
					C230.8,202.1,227.9,202.9,228.4,204.8L228.4,204.8z"/>
			</g>
		</g>
		<g>
			<g>
				<path d="M242.7,274.3c12.5,10.2,30.5,13.4,46,15.7c18.6,2.8,38,3.5,56.6,0.3c6.5-1.2,13.4-3,18.9-6.8c2.4-1.7,3.2-4.8,4.4-7.3
					c6.3-13.4,12.6-26.9,18.9-40.3c3.6-7.8,7.3-15.5,10.9-23.3c0.8-1.7-1.8-3.3-2.6-1.5c-10.3,22-20.6,44-30.9,66.1
					c-0.5,1.1-1.1,2.2-1.6,3.4c-0.8,1.7-5.1,3.1-6.7,3.7c-7.7,3.1-16.2,4.2-24.4,4.8c-20,1.5-40.6-0.4-60.1-5.1
					c-9.4-2.3-19.7-5.4-27.4-11.6C243.3,270.9,241.2,273,242.7,274.3L242.7,274.3z"/>
			</g>
		</g>
		<g>
			<g>
				<path d="M393.6,218.8c-27.7,8-57.1,8.2-85.7,6.6c-22.3-1.3-46.2-2.7-66.9-12.1c-4.6-2.1-13.1-6.7-6.1-11.5c4.1-2.8,9.3-4,14-5.1
					c7.4-1.9,15-3,22.7-3.6c27.6-2.2,55.7,1.7,83.1,4.3c8.7,0.8,17.3,2.2,25.7,4.6c4.8,1.4,11.2,3.2,14.4,7.4
					c7.2,9.3-30,16.8-33.7,17.6c-1.9,0.4-1.1,3.3,0.8,2.9c10.5-2.2,21.8-4.5,31-10.3c3.4-2.1,7-5.8,5.4-10.1
					c-1.8-4.8-8-7.1-12.3-8.8c-9-3.4-18.8-4.9-28.3-6c-27.2-3.1-55.3-6.2-82.6-4.8c-12.4,0.6-25.5,2.4-37.1,7.1
					c-4.1,1.6-9.9,4.7-8.7,10c1.5,7,13.7,10.5,19.3,12.4c12.7,4.3,25.9,6.2,39.2,7.5c35.2,3.4,72.4,4.8,106.8-5.1
					C396.3,221.1,395.5,218.2,393.6,218.8L393.6,218.8z"/>
			</g>
		</g>
	</g>
	<line style="fill:none;stroke:#000000;stroke-width:3;stroke-miterlimit:10;" x1="439.7" y1="215.1" x2="443.1" y2="231.1"/>
	<line style="fill:none;stroke:#000000;stroke-width:3;stroke-miterlimit:10;" x1="522.7" y1="215.1" x2="520" y2="231.1"/>
	<path style="fill:none;stroke:#45FFD8;stroke-width:3;stroke-miterlimit:10;" d="M481.5,226"/>
	<ellipse style="fill-rule:evenodd;clip-rule:evenodd;fill:#45B8E5;" cx="481.2" cy="218.5" rx="34.7" ry="6"/>
	
		<ellipse style="fill-rule:evenodd;clip-rule:evenodd;fill:none;stroke:#000000;stroke-width:3;stroke-miterlimit:10;" cx="481.2" cy="213.7" rx="41.5" ry="10.7"/>
	<path style="fill-rule:evenodd;clip-rule:evenodd;fill:#847F81;" d="M461.2,238.7l3.5,44.8c0,0,31.6,3.6,41.4-4.5
		c9.9-8.1,0-0.6,0-0.6l7.6-41.9C513.7,236.6,467.9,243.4,461.2,238.7z"/>
	<path style="fill:none;stroke:#000000;stroke-width:3;stroke-miterlimit:10;" d="M518.9,229.7c0.7,0.6,1.1,1.3,1.1,1.9
		c0,4.6-17.2,8.3-38.5,8.3c-21.2,0-38.5-3.7-38.5-8.3c0-0.5,0.2-1,0.6-1.5"/>
	<path style="fill-rule:evenodd;clip-rule:evenodd;fill:none;stroke:#000000;stroke-width:3;stroke-miterlimit:10;" d="M513.7,236.6
		l-6.7,41.9c-28.5,17-53.2,0-53.2,0l-4.5-42.5"/>
	
		<line style="fill-rule:evenodd;clip-rule:evenodd;fill:none;stroke:#000000;stroke-width:3;stroke-miterlimit:10;" x1="464.7" y1="283.5" x2="461.2" y2="238.7"/>
	<path style="fill:none;stroke:#45FFD8;stroke-width:3;stroke-miterlimit:10;" d="M691.5,227"/>
	<g>
		<line style="fill:none;stroke:#000000;stroke-width:3;stroke-miterlimit:10;" x1="662.7" y1="176" x2="668.2" y2="201.7"/>
		<line style="fill:none;stroke:#000000;stroke-width:3;stroke-miterlimit:10;" x1="796.1" y1="176" x2="791.8" y2="201.7"/>
		<ellipse style="fill-rule:evenodd;clip-rule:evenodd;fill:#45B8E5;" cx="729.5" cy="181.5" rx="55.8" ry="9.6"/>
		
			<ellipse style="fill-rule:evenodd;clip-rule:evenodd;fill:none;stroke:#000000;stroke-width:3;stroke-miterlimit:10;" cx="729.4" cy="173.7" rx="66.7" ry="17.2"/>
		<path style="fill-rule:evenodd;clip-rule:evenodd;fill:#30111D;" d="M697.2,213.9l5.7,72c0,0,50.8,5.9,66.6-7.2
			c15.8-13.1,0-0.9,0-0.9l12.2-67.3C781.7,210.5,708.1,221.5,697.2,213.9z"/>
		<path style="fill:none;stroke:#000000;stroke-width:3;stroke-miterlimit:10;" d="M790.1,199.5c1.1,1,1.7,2,1.7,3.1
			c0,7.4-27.7,13.4-61.8,13.4c-34.1,0-61.8-6-61.8-13.4c0-0.8,0.3-1.6,1-2.4"/>
		<path style="fill-rule:evenodd;clip-rule:evenodd;fill:none;stroke:#000000;stroke-width:3;stroke-miterlimit:10;" d="
			M781.7,210.5L771,277.9c-45.7,27.3-85.5,0-85.5,0l-7.2-68.4"/>
	</g>
	<line style="fill:none;stroke:#000000;stroke-width:3;stroke-miterlimit:10;" x1="59.7" y1="213.3" x2="63.6" y2="231.2"/>
	<line style="fill:none;stroke:#000000;stroke-width:3;stroke-miterlimit:10;" x1="153.1" y1="213.3" x2="150.1" y2="231.2"/>
	<ellipse style="fill-rule:evenodd;clip-rule:evenodd;fill:#45B8E5;" cx="106.5" cy="217.1" rx="39.1" ry="6.7"/>
	
		<ellipse style="fill-rule:evenodd;clip-rule:evenodd;fill:none;stroke:#000000;stroke-width:3;stroke-miterlimit:10;" cx="106.4" cy="211.6" rx="46.7" ry="12.1"/>
	<path style="fill-rule:evenodd;clip-rule:evenodd;fill:#808080;" d="M83.9,239.8l4,50.4c0,0,35.5,4.1,46.6-5c11.1-9.1,0-0.7,0-0.7
		l8.5-47.1C143,237.4,91.5,245.1,83.9,239.8z"/>
	<path style="fill:none;stroke:#000000;stroke-width:3;stroke-miterlimit:10;" d="M148.9,229.7c0.8,0.7,1.2,1.4,1.2,2.2
		c0,5.2-19.4,9.4-43.3,9.4c-23.9,0-43.3-4.2-43.3-9.4c0-0.6,0.2-1.1,0.7-1.7"/>
	<path style="fill-rule:evenodd;clip-rule:evenodd;fill:none;stroke:#000000;stroke-width:3;stroke-miterlimit:10;" d="M143,237.4
		l-7.5,47.2c-32,19.1-59.8,0-59.8,0l-5-47.8"/>
</g>
</svg>
