<?xml version="1.0" encoding="utf-8"?>
<!-- Generator: Adobe Illustrator 18.0.0, SVG Export Plug-In . SVG Version: 6.00 Build 0)  -->
<!DOCTYPE svg PUBLIC "-//W3C//DTD SVG 1.1//EN" "http://www.w3.org/Graphics/SVG/1.1/DTD/svg11.dtd">
<svg version="1.1" id="圖層_1" xmlns="http://www.w3.org/2000/svg" xmlns:xlink="http://www.w3.org/1999/xlink" x="0px" y="0px"
	 viewBox="0 0 564 216" style="enable-background:new 0 0 564 216;" xml:space="preserve">
<g>
	<path style="fill-rule:evenodd;clip-rule:evenodd;" d="M293.3,130.9c0,0.6,0.1,1.1,0,1.7c-0.3,1.9,0.3,2.4,2.3,2.3
		c1.8-0.1,2.2-0.7,1.8-2.2c-0.2-0.6-0.4-1.1,0.2-1.5c0.7-0.4,1.3-0.3,2,0.1c1.6,1,1.4,2.7,1.4,4.2c0.1,1.6,0.1,3-2,3.9
		c-1.2,0.5-1.4,0.5-1.3-0.6c0.2-1.5-0.7-1.6-1.8-1.4c-3.2,0.7-6.5,0.8-9.5,2.2c-1.6,0.8-3-0.3-2.8-2.1c0.1-1.5,0.5-3,0.8-4.5
		c0.1-0.7,0.3-1.6,1.2-1.4c0.9,0.2,1.7,0.8,1.5,1.9c0,0.2-0.2,0.4-0.2,0.6c0,0.6-0.6,1.8,0.4,1.6c1-0.1,2.8,0.6,2.9-1.5
		c0.1-1.9,0-3.8,0-5.7c0-0.8-0.2-1.2-1-0.9c-0.5,0.2-1.1,0.3-1.6,0.5c-2.4,0.8-2.8,0.6-3.1-1.9c-0.2-1.4-0.2-2.9,0-4.4
		c0.1-0.8,0.4-1.8,1.6-1.5c0.9,0.2,1,1.1,0.8,1.9c0,0.2-0.2,0.4-0.1,0.6c0.1,0.9-0.9,2.2,0.4,2.6c1.7,0.5,3.4-0.9,3.5-2.4
		c0.1-1.4,0.1-2.8,0.3-4.2c0.1-0.8,0.3-1.9,1.4-1.6c0.9,0.2,1.8,0.9,1.9,2c0,0.5-0.1,1.1-0.3,1.6c-0.6,2.9-0.4,3.2,2.5,3.3
		c0.5,0,0.6-0.3,0.7-0.6c0.3-0.7,0.6-1.4,1-2.1c0.3-0.6,0.5-1.5,1.4-1.3c0.9,0.2,1.4,1.1,1.6,2c0.2,1-2.4,4.4-3.4,4.7
		c-0.7,0.2-1.3,0.4-2-0.3c-1.1-0.9-2.3-0.1-2.4,1.4C293.2,129.1,293.3,130,293.3,130.9z"/>
	<path style="fill-rule:evenodd;clip-rule:evenodd;fill:#010101;" d="M140.8,138.2c1.2-0.7,2.4-1.3,3.6-2.1c0.5-0.3,1.3-0.6,1.1-1.4
		c-0.2-0.7-0.9-1.1-1.6-1.2c-0.8-0.2-1.7-0.2-2.5-0.4c-0.7-0.2-1.5-0.7-1.3-1.4c0.2-0.9,1-0.7,1.7-0.5c0.6,0.2,1.2,0.3,2,0.1
		c-0.9-1.4-1.6-2.8-2-4.4c-0.4-1.8,0.1-2.3,1.8-1.9c0.9,0.2,1.6-0.3,2.4-0.5c0.6-0.1,1.5,0,1.5-1c0-1.2-0.9-0.4-1.4-0.6
		c-0.9-0.4-1.4-1-1.4-1.9c0-1.1,1-0.8,1.6-0.9c1-0.1,1.5-0.6,1.4-1.6c-0.1-0.6,0-1.3,0.6-1.5c0.7-0.2,1.2,0.3,1.6,0.8
		c0.4,0.5,0.4,1.2,1.4,0.7c0.6-0.3,1.3,0.2,1.6,1c0.2,0.7,0,1.2-0.7,1.5c-0.3,0.1-0.5,0.2-0.7,0.4c-0.8,0.4-2,0.6-1.6,1.8
		c0.4,1,1.4,0.2,2.1,0.1c1.2-0.3,1.9,0.2,2.6,0.8c0.8,0.7,0.2,1.5-0.1,2.3c-0.8,2-1.8,3.8-4.2,4c-1.8,0.2-1.2,1.7-1.6,2.7
		c-0.4,1.1,0.6,1.3,1.2,1.6c2.4,1.2,4.8,2.3,7.1,3.5c0.5,0.2,1.2,0.5,1.1,1.1c-0.2,0.8-1.1,0.6-1.6,0.4c-1.6-0.5-3.2,0.8-4.9-0.3
		c-1.4-0.9-2.7-2.4-4.2-2.7c-1.4-0.2-2.7,1.5-4.3,1.7c-0.4,0.1-0.8,0.1-1.3,0.1C141.3,138.8,140.8,139.1,140.8,138.2z"/>
	<path style="fill-rule:evenodd;clip-rule:evenodd;fill:#010101;" d="M215.6,125.7c1.3,0.2,2.1-0.3,2.8-1.5c1.1-2,2.7-3.8,3.4-6
		c0.2-0.6,0.3-1.3,1.1-1.3c0.6,0,1,0.5,1.3,0.9c0.4,0.7,0.2,1.3-0.6,1.6c0.2,0.1,0.3,0.2,0.4,0.2c1.1-0.2,2.2-1.3,3.2,0.1
		c0.3,0.4,0.4,0.8,0,1.1c-1.1,0.9-2.6,1.8-3.8,1.1c-2.3-1.2-2.4,1.1-3.4,1.8c-0.4,0.2,0.2,1.1,0.9,1.2c1.2,0.2,2.3,0.4,3.5,0.5
		c2,0.2,2.4,0.7,1.6,2.7c-0.1,0.4-0.3,0.8-0.5,1.2c-0.2,0.4-0.3,0.8-0.5,1.2c1.1,0,2.2,0.2,3.2-0.1c1.1-0.3,1.8,0.5,2.4,1.2
		c0.3,0.4,0.2,0.9-0.1,1.4c-0.4,0.5-0.8,0.6-1.5,0.5c-3.3-0.7-6.5-0.3-9.8,0c-0.7,0.1-1.3,0.1-1.7,1c-1.2,3.1-4,4.7-6.9,7.1
		c0.8-3.1,3.3-4.5,4.1-7c-1.2-0.3-2.1,0.4-3,0.6c-0.7,0.2-1.3,0.5-2,0.5c-1.3,0.2-1.8-0.8-2-1.7c-0.2-0.9,0.8-1,1.4-1.2
		c1.2-0.4,2.7-0.3,3.5-1.1c0.4-0.5-0.5-2.1-0.6-3.3c-0.1-1-1-2.7,1.2-2.8C214.1,125.8,214.9,125.6,215.6,125.7z"/>
	<path style="fill-rule:evenodd;clip-rule:evenodd;fill:#010101;" d="M243.3,122.6c0.9-1.5,1.7-3,2.7-4.5c0.4-0.6,0.8-1.5,1.8-0.8
		c0.7,0.5,1.1,1.4,0.6,2.2c-0.4,0.7-1.1,1.3-1.6,1.9c-0.3,0.4-0.8,0.7-0.5,1.3c0.4,0.7,0.8,0,1.3,0c1.1-0.1,2.4,0,1.4-1.9
		c-0.3-0.6,0.2-1.5,0.9-1.7c0.8-0.2,1.3,0.4,1.6,1.1c0.4,0.8,0.5,1.9,1.8,1.7c0.4,0,0.7,0.5,0.7,0.9c0,0.5-0.1,1-0.7,1.1
		c-0.3,0.1-0.7,0.3-1,0.3c-0.8,0.1-0.8,0.6-0.8,1.2c0,0.9,0.6,0.5,1,0.5c0.7,0.1,1.4,0.3,1.5,1.2c0,0.8-0.7,1-1.3,1.2
		c-0.8,0.1-1.3,0.3-1.2,1.3c0.1,1.3,0.9,0.4,1.4,0.5c0.8,0.2,1.4,0.4,1.4,1.3c0,0.8-0.6,1.2-1.2,1.2c-1.5,0-1.8,0.8-1.5,2
		c0.3,1.4,1.4,0.5,2,0.6c0.7,0.1,1.4-0.2,2,0.4c0.5,0.4,0.8,0.8,0.6,1.4c-0.1,0.7-0.7,0.7-1.3,0.8c-2.4,0.2-4.9,0.3-7.3,0.5
		c-0.8,0.1-1.7,0.1-1.6,1.4c0.1,0.9-0.8,1.5-1.5,1.5c-1,0-1-1-1-1.7c0-4.6,0-9.2,0-13.8c-0.6-0.2-0.9,0.4-1.6,0.4
		c-0.2-0.8,0.4-1.4,0.8-2C242.1,123.2,242.7,122.9,243.3,122.6z"/>
	<path style="fill-rule:evenodd;clip-rule:evenodd;fill:#010101;" d="M188.1,134.9c1.9,0.5,3.6,0.9,5.4,1.4
		c-0.7-1.7-1.4-3.1-1.8-4.5c-0.3-1-0.6-2.6,1.5-1.6c0.7,0.3,1.4,0,2-0.2c1.3-0.3,2.6-0.8,3.9-0.9c2.4-0.3,3.4,0.9,2.6,3.2
		c0,0.1-0.1,0.3-0.1,0.4c-0.8,0.8,1,2-0.3,2.5c-0.9,0.3-1.9,0-2.9,0.2c-1.1,0.2-2.3,0.2-3.4,1c3.7,1.1,7.6-0.1,11.3,1.2
		c-3.4,3.5-7.3,2-11,1.7c-1.8-0.2-3.5-0.7-5.3-1.3c-1.5-0.5-2.9-0.9-4.5-0.2c-0.8,0.4-1.9,0.5-2.2-0.8c-0.2-1.1,0.7-1.2,1.4-1.4
		c2.6-0.9,3.3-3.5,1.5-5.7c-0.5-0.6-0.9,0.1-1.3,0.1c-0.6,0.1-1.2,0-1.3-0.6c-0.2-0.6,0.4-0.8,0.8-0.9c0.4-0.1,0.8-0.3,1.2-0.4
		c0.9-0.3,1.8-1.3,2.7-0.5c0.9,0.7,0,1.7-0.2,2.5c-0.1,0.5-0.2,0.9,0.1,1.4C189.6,133,189.6,133,188.1,134.9z"/>
	<path style="fill-rule:evenodd;clip-rule:evenodd;fill:#010101;" d="M89.8,103.8c3.9,2.1,6.1,5.6,7.6,9.5c1.2,3.1-0.2,5.7-2.9,7.3
		c-3.5,2.1-3.6-2-5.5-3.4c-3.5,6.4-10.1,9-15.9,12.7c-3,2-5.4,0.7-7.3-1.9c-2.6-3.4,0.7-4.4,2.6-5.1c2.6-1,2.3-2.5,2.1-4.6
		c-1.1-12.9-0.6-25.8,0.7-38.7c0.5-4.5,1.6-7.8,7.5-7.4c3.6,0.2,7.3-1.2,10.9-2c4.9-1.1,8.9,1.8,8.3,5.7
		c-1.4,9.3-3.1,18.8-10.8,25.7c-1,1.7-2.6,3-4.4,3.8c-4.4,1.9-5.3,5.2-4,9.6c3.9-1.3,5.8-3.7,5.8-7.7
		C84.7,103.8,86.6,102.8,89.8,103.8z"/>
	<path style="fill-rule:evenodd;clip-rule:evenodd;fill:#010101;" d="M101.9,141.2c-1.4-20.6,0.5-40.4,0-60.1
		c-0.1-3.5,1.2-5.2,5.2-4.5c4.9,0.8,10.2,0.8,14.8-1.1c5.8-2.4,8,0.7,8.9,5.1c2.2,10.4,2.4,20.9,0.4,31.4c-1,5.1-8.9,11.1-13.9,10.6
		c-4.4-0.4-2.7-5.4-5.5-7.8c7.7,1.4,9.4-2.8,10.1-8.8c0.7-6.4,1.2-12.7,0.6-19c-0.2-2.4,1-6.8-3.5-6.3c-3.9,0.5-9.2,0.6-9.1,7.1
		c0.1,7.5-0.1,14.9-0.2,22.4c-0.1,5.5-0.4,11-0.5,16.5C109.1,132.2,107.3,137.1,101.9,141.2z"/>
	<path style="fill-rule:evenodd;clip-rule:evenodd;fill:#010101;" d="M273.1,132.3c2.5,0,2.7,0.8,1.5,4.7c0.8,0,1.7-0.1,2.5,0
		c0.8,0.1,1.5,0.6,1.4,1.5c-0.1,1-0.9,0.9-1.6,0.9c-5.7-0.2-11.4,0.2-17.1,0.6c-0.8,0.1-1.7,0-1.8-1c-0.1-1,0.8-1.4,1.5-1.3
		c2.4,0.2,2.4-0.8,1.6-2.6c-0.4-0.9-0.5-1.9,0.7-2.5c3.1-0.4,6.1-0.6,9.2-0.9C271.7,131.7,272.5,131.8,273.1,132.3z"/>
	<path style="fill-rule:evenodd;clip-rule:evenodd;fill:#010101;" d="M261.7,132.3c-0.4-0.8-0.3-1.5,0.6-1.8
		c0.8-0.3,1.5-0.7,1.9-1.7c-1.2,0.1-2.2,0.1-3.3,0.2c-0.7,0-1.3-0.3-1.3-1.1c-0.1-0.9,0.7-0.9,1.3-1c1.3-0.1,2.6-0.2,4-0.3
		c0.4,0,1.1,0.2,1-0.6c-0.1-0.6-0.6-0.4-1-0.4c-0.2,0-0.4,0-0.6,0c-0.8-0.1-1.9,0.3-2-0.8c-0.2-1.4,1.2-0.8,1.9-1.1
		c0.9-0.3,1.8-0.1,2.1-1.5c0.2-0.9,1.2-1.2,1.7-0.3c0.8,1.4,2,1.1,3.2,1.1c0.8,0,1.7-0.1,1.9,0.8c0.2,1.2-1,0.9-1.6,1.1
		c-0.1,0-0.3,0-0.4,0.1c-0.9,0.5-2.7-0.6-2.6,1c0,0.7,1.9,0.1,3,0.1c1,0,1.9-0.1,2.9-0.1c0.8,0,1.3,0.6,1.3,1.3
		c0.1,1-0.9,0.6-1.4,0.7c-0.8,0.1-1.5,0.1-2.3,0.1c-1.6,0.3-3.3,0.3-4.7,1.3c0.4,0.4,0.7-0.1,1,0c0.6-0.1,1.2-0.2,1.7-0.7
		c0.6-0.6,1.4-0.5,2,0.1c1.1,0.7,2.3,1.5,1.3,3.1c-3.2-0.1-6.4,0.1-9.6,0.7C262.9,132.8,262.3,132.6,261.7,132.3z"/>
	<path style="fill-rule:evenodd;clip-rule:evenodd;fill:#010101;" d="M165.2,132c-1.2,2.2-2.9,3.9-5,5.7c0.1-1.7,0.9-2.7,1.5-3.8
		c1.1-2.1,2.2-4.2,3.4-6.2c0.7-1.2,1.3-2.2-0.1-3.4c-0.5-0.4-0.8-1.7,0.4-1.7c3.2,0.1,3.5-2.4,4.4-4.4c0.4-0.9,0.7-1.8,1.8-1.3
		c1.1,0.5,1.1,1.5,0.5,2.5c-0.3,0.5-0.8,1-0.7,1.8c1.4-0.1,2.7-0.5,4-0.9c1.1-0.4,2.3-0.2,2.8,1.1c0.5,1.4-0.6,1.8-1.7,2.1
		c-0.9,0.2-1.7,0.6-2.6,0.6c-3.9,0.3-6.3,2.5-7.5,6.1c0.3,0.4,0,0.7-0.2,1C166,131.5,165.6,131.7,165.2,132z"/>
	<path style="fill-rule:evenodd;clip-rule:evenodd;fill:#010101;" d="M178.3,136.5c0.7-0.1,1.5-0.1,2,0.6c0.4,0.5,0.9,0.9,0.7,1.6
		c-0.2,0.7-0.9,0.8-1.5,0.8c-2.7,0.1-5.3,0.3-7.9,0.8c-0.9,0.2-1.7-0.1-2.2-0.9c-0.6-1-0.6-1.7,0.7-1.9c0.6-0.1,1.1-0.2,1.7-0.2
		c1.6,0,2-0.8,1.8-2.2c-0.1-0.9-0.3-1.3-1.2-1.1c-1.4,0.3-1.9-0.8-2.1-1.8c-0.3-1.4,0.9-1.4,1.7-1.5c1.5-0.1,1.6-0.9,1.6-2.1
		c0-0.7-0.3-1.7,0.8-1.8c0.9-0.1,1.5,0.6,1.9,1.4c0.2,0.5-0.2,1.5,0.9,1.2c0.9-0.2,1.5,0.2,1.7,1.1c0.2,1-0.2,1.8-1.2,2.2
		c-0.9,0.3-1.6,0.6-1.6,1.8C176.2,136.6,176.1,136.6,178.3,136.5z"/>
	<path style="fill-rule:evenodd;clip-rule:evenodd;fill:#020202;" d="M137.7,140.6c-1.3-4.9-0.4-9.5-0.1-14c-0.2,0-0.4-0.1-0.4-0.1
		c-0.8,1-2.4,2.3-2.9,1.8c-1-1,0.3-2.3,0.9-3.4c1-1.8,2.1-3.6,3.5-5.2c0.5-0.6,1.1-1.7,2.2-0.9c0.9,0.8,1.3,1.9,0.4,3
		c-0.7,0.9-1.5,1.8-2.3,2.8c0.8,0.5,1.4,1.1,1.1,2.3c-0.8,3.2-0.6,6.5-0.5,9.8C139.6,138.8,139.7,138.8,137.7,140.6z"/>
	<path style="fill-rule:evenodd;clip-rule:evenodd;fill:#020202;" d="M243.3,122.6c-0.3,0.5-0.6,0.9-0.8,1.4c-1.8,0-3.3,0.5-4.1,2.3
		c-1.8,3.8-3.7,7.6-7.3,10.7c1.1-4,3.5-7.1,4.6-10.7c-0.5-0.3-1.2-0.2-1.6-0.7c-0.8-1-1-2,0.5-2.1c3.3-0.3,3.9-2.8,4.7-5.3
		c0.3-0.9,0.5-1.7,1.6-1.3c1,0.4,1.6,1.1,0.9,2.3c-0.4,0.7-0.6,1.4-1,2.3C242,121.2,242.9,121.3,243.3,122.6z"/>
	<path style="fill-rule:evenodd;clip-rule:evenodd;fill:#020202;" d="M191.4,123.5c-0.9,0.1-1.5-0.4-1.7-1.2
		c-0.3-1.1,0.5-1.3,1.3-1.5c1.2-0.3,2.3-0.5,3.5-0.7c0.9-0.2,1.3-0.5,0.5-1.3c-0.4-0.4-0.9-0.8-0.4-1.4c0.5-0.6,1.5-0.4,1.7-0.1
		c1.6,2.2,3.7,1.8,6,1.6c0.8-0.1,1.4,0.7,1.5,1.5c0.1,0.7-0.4,1-1.1,1c-3.7,0.1-7.2,1-10.6,2C191.8,123.5,191.6,123.5,191.4,123.5z"
		/>
	<path style="fill-rule:evenodd;clip-rule:evenodd;fill:#030303;" d="M239.9,131.3c1.8,0,2.4,1.2,2.5,2.7c0.1,1.4-1,1.5-2.1,1.8
		c-1.5,0.4-2.9,1.1-4.3,1.7c-0.9,0.4-1.6,0.4-2.2-0.5c-0.7-0.9,0.2-1.1,0.6-1.7c1.3-2.1,2.6-4.3,3.9-6.4c0.4-0.6,0.5-1.9,1.6-1.2
		c0.9,0.6,1,1.6,0.2,2.5c-0.2,0.2-0.3,0.6-0.5,0.9c-0.4,1.1-1.2,1.8-1.8,2.7C238.8,133.5,238.8,133.5,239.9,131.3z"/>
	<path style="fill-rule:evenodd;clip-rule:evenodd;fill:#050505;" d="M214,125.6c-0.5-1-0.3-2.4-2-2.5c-0.6,0-0.9-1.1-0.8-1.8
		c0.1-0.7,0.8-0.7,1.3-0.8c1.5-0.1,1.1-1.4,1.4-2.2c0.2-0.5,0.4-1.1,1-1.1c0.6,0,1.3,0.3,1.3,0.8c0,2.2,1.4,1.3,2.5,1.3
		c0.3,0,0.5,0,0.9,0c-0.1,1.3-1.1,1.7-1.9,2c-1.1,0.5-2.2,1-1.7,2.5c0.2,0.7-0.6,0.9-0.8,1.3C214.8,125.6,214.6,126.1,214,125.6z"/>
	<path style="fill-rule:evenodd;clip-rule:evenodd;fill:#050505;" d="M267,118.6c0,0.9-0.4,1.5-1,1.6c-1.4,0.4-1.1,2-1.8,2.6
		c-1.2,1.1-1.1-1.8-2.5-1.3c-0.4,0.2-1,0.1-1.4,0c-0.6,0-1-0.4-1.1-1.1c0-0.7,0.5-0.8,1-0.8c1.3,0,2.1-0.4,1.9-1.9
		c-0.1-0.6,0.4-1.1,1-1.2c0.7-0.1,1.4,0.4,1.5,0.9C265,118.9,266,118.8,267,118.6z"/>
	<path style="fill-rule:evenodd;clip-rule:evenodd;fill:#050505;" d="M267.3,119.8c1.5-0.5,3.5-0.3,3.6-2.6c0-0.1,0.5-0.4,0.6-0.4
		c1.3,0.7,2.8,1.3,3.8,2.3c0.8,0.8-0.3,1.6-1.1,1.7c-1.8,0.2-3.6,0.2-5.3,1.7C270.3,120,267.8,120.8,267.3,119.8z"/>
	<path style="fill-rule:evenodd;clip-rule:evenodd;fill:#030303;" d="M166,131c0.1-0.3,0.3-0.6,0.4-0.9c1.5,0.1,1.8,1.2,1.6,2.4
		c-0.3,2.1-0.4,4.2-0.2,6.2c0.1,0.9-0.1,1.8-1.2,1.8c-1,0-1-1-1.1-1.8c0-2,0-4,0-6.1C166,132.3,165.5,131.5,166,131z"/>
	<path style="fill-rule:evenodd;clip-rule:evenodd;fill:#050505;" d="M225.7,141.3c-0.1,0-0.4,0-0.5-0.2c-1-1.6-2.1-3.1-2.9-4.8
		c-0.3-0.6,0.4-1.1,1.1-1.2c1.5-0.1,4.2,3.2,3.7,4.6C227,140.5,226.7,141.2,225.7,141.3z"/>
	<path style="fill-rule:evenodd;clip-rule:evenodd;fill:#090909;" d="M194.6,129c-0.8-0.1-1.6,0-1.8-0.9c-0.2-1,0.8-1,1.4-1.2
		c1.4-0.4,2.8-0.6,4.3-0.9c0.7-0.1,1.6-0.2,1.8,0.5c0.3,0.9-0.7,1.1-1.3,1.3C197.6,128.4,196.1,128.7,194.6,129z"/>
	<path style="fill-rule:evenodd;clip-rule:evenodd;fill:#070707;" d="M195.3,125.9c-1.1-0.1-2.1,0-2.3-0.9c-0.2-1.1,1-1,1.6-1.2
		c1.3-0.4,2.6-0.6,3.9-0.8c0.7-0.1,1.4-0.1,1.6,0.6c0.3,0.9-0.5,1.2-1.1,1.4C197.6,125.3,196.3,125.6,195.3,125.9z"/>
	<path style="fill-rule:evenodd;clip-rule:evenodd;fill:#FFFFFF;" d="M89.8,103.8c-2,0.1-5,0.5-4.2,2.8c3.2,8.5-4.2,8.4-8.3,11.6
		c-1.7-11.7-1.7-11.7,9.8-16.6C88.1,102.3,89,103.1,89.8,103.8z"/>
	<path style="fill-rule:evenodd;clip-rule:evenodd;fill:#090909;" d="M185.9,120.4c1.2-0.1,2.8,1.5,2.8,2.9c0,0.7-0.1,1.2-1,1.3
		c-0.5,0-3.3-2.5-3.3-2.9C184.7,121,185.1,120.5,185.9,120.4z"/>
	<path style="fill-rule:evenodd;clip-rule:evenodd;fill:#FFFFFF;" d="M261.7,132.3c2.1,0.1,4.1-0.8,6.2-0.9c1.8-0.1,3.5-0.3,5.2,0.5
		c0,0.1,0,0.3,0,0.4c-2.8,0.2-5.6,0.4-8.3,0.7c-1,0.1-2,0.2-3-0.3C261.7,132.6,261.7,132.4,261.7,132.3z"/>
	<path style="fill-rule:evenodd;clip-rule:evenodd;fill:#FFFFFF;" d="M266.4,129.4c1.5-1.6,3.5-1.3,5.4-1.2c0,0.2,0,0.4,0,0.6
		c-0.8,0-1.7-1-2.1,0.7c-0.1,0.6-1.1,0.2-1.7,0.3C267.5,129.9,266.7,130.5,266.4,129.4z"/>
	<path style="fill-rule:evenodd;clip-rule:evenodd;fill:#FFFFFF;" d="M239.9,131.3c0.6,2.6-1,3.1-3.2,3.5c0.9-1.6,1.8-2.8,3-3.8
		l0.2,0.1L239.9,131.3z"/>
	<path style="fill-rule:evenodd;clip-rule:evenodd;fill:#2B2B2B;" d="M140.8,138.2c0.2,0.4,0.6,0.3,1,0.5c-0.5,0.5-1.2,0.6-1.6,0.2
		C139.9,138.7,140.4,138.3,140.8,138.2z"/>
	<path style="fill-rule:evenodd;clip-rule:evenodd;fill:#FFFFFF;" d="M149.3,128.5c0-2.6,0-2.6,2.5-3.3
		C151.5,126.7,151.5,128.3,149.3,128.5z"/>
	<path style="fill-rule:evenodd;clip-rule:evenodd;fill:#FFFFFF;" d="M147.3,126.6c-0.4,1.2,0.4,2.5-1.3,2.8
		c-1.1,0.2-1.2-0.8-1.2-1.3C144.9,126.8,146.2,127,147.3,126.6z"/>
	<path style="fill-rule:evenodd;clip-rule:evenodd;fill:#FFFFFF;" d="M146.7,132c-0.1,0.2-0.1,0.6-0.5,0.5c-0.3-0.1-0.8-0.1-0.6-0.6
		c0-0.2,0.4-0.3,0.6-0.4C146.6,131.4,146.7,131.7,146.7,132z"/>
	<path style="fill-rule:evenodd;clip-rule:evenodd;fill:#FFFFFF;" d="M219,131c0.7-1.6,0.3-3.9,3-4.1c1.1-0.1,1.4,0.1,1.2,1.2
		C222.6,130.7,221.9,131.2,219,131z"/>
	<path style="fill-rule:evenodd;clip-rule:evenodd;fill:#FFFFFF;" d="M217.1,127.7c0.3,0.7,0.1,1.1-0.1,1.6
		c-0.4,0.8,0.1,2.3-1.4,2.2c-1.2-0.1-1-1.4-1.2-2.1c-0.4-1.5,1.1-1.1,1.7-1.4C216.4,127.8,216.7,127.8,217.1,127.7z"/>
	<path style="fill-rule:evenodd;clip-rule:evenodd;fill:#FFFFFF;" d="M245.9,123.6c0.9,0.7,1.1,1.7,2.2,1.5c0.5-0.1,1-0.2,1,0.6
		c0,0.6-0.1,1-0.8,1.2c-0.6,0.1-1.6-0.2-1.6,0.8c0,0.8,0.7,1.3,1.6,1.4c0.7,0.1,0.8,0.4,0.8,0.9c-0.1,0.6-0.5,0.8-1,0.9
		c-0.6,0.1-1.6-0.2-1.5,0.9c0.1,0.8,0.7,1.5,1.5,1.5c1.1,0,0.9,0.7,1,1.4c0.1,1-0.7,0.8-1.3,0.9c-1.7,0.6-2.4,0.1-2.4-1.9
		C245.5,130.6,245.6,127.3,245.9,123.6z"/>
	<path style="fill-rule:evenodd;clip-rule:evenodd;fill:#FFFFFF;" d="M199.5,131c-0.6,2.2-2.1,3.2-4,3c-0.6-0.1-0.9-0.3-1-0.8
		c-0.2-0.7,0.2-0.9,0.7-1C196.7,131.8,198.1,131.4,199.5,131z"/>
	<path style="fill-rule:evenodd;clip-rule:evenodd;fill:#FFFFFF;" d="M88.2,85c-2.5-0.2-4.5-3.1-7.3-0.9c-0.7,0.6-2.5,1.9-3.2-0.1
		c-0.5-1.4-0.5-3.1,0.8-4.3c0.6-0.5,1.5-0.7,2.4-1c2.8-0.9,6-4.2,8.2-2.4C91.6,78.4,88.5,82,88.2,85z"/>
	<path style="fill-rule:evenodd;clip-rule:evenodd;fill:#FFFFFF;" d="M77.3,98.2c-3.3-8.3,4.2-6.9,7.2-9.3c0.7-0.5,1.2-0.1,1.3,0.6
		c0.4,1.8,0.4,3.8-1.1,4.8C82.5,95.9,79.9,96.9,77.3,98.2z"/>
	<path style="fill-rule:evenodd;clip-rule:evenodd;fill:#FFFFFF;" d="M269.1,137.3c1.3-1.4,1.4-3.5,3.8-3.3
		C272.4,135.7,272,137.5,269.1,137.3z"/>
	<path style="fill-rule:evenodd;clip-rule:evenodd;fill:#FFFFFF;" d="M269,134.6c-0.1,0.4-0.1,0.8-0.3,1c-0.4,0.6-0.1,1.8-1.1,1.7
		c-0.9-0.2-0.4-1.2-0.4-1.8C267.1,134.1,268.1,134.5,269,134.6z"/>
	<path style="fill-rule:evenodd;clip-rule:evenodd;fill:#FFFFFF;" d="M265,136.6c0.3,0.7-0.1,0.9-0.6,0.8c-1-0.1-0.9-0.9-1.1-1.5
		c-0.1-0.5-0.2-1,0.6-1C265.4,134.9,264.4,136.3,265,136.6z"/>
	<path style="fill-rule:evenodd;clip-rule:evenodd;fill:#101010;" d="M336.3,119.5c-0.3,0-0.6,0-0.9-0.1c-0.7,0-1.4,0.3-2-0.4
		c1.1-1.2,2.5-1.8,4-2.4c0.8-0.3,1.6-0.3,1.8,0.6c0.2,1-0.7,1-1.3,1.3C337.4,118.9,336.3,118.2,336.3,119.5z"/>
	<path style="fill-rule:evenodd;clip-rule:evenodd;fill:#090909;" d="M424.5,119.9c0,0.7-0.2,1.3-0.9,1.2c-1.3-0.1-2.1-1-2.5-2.2
		c-0.2-0.7,0.4-0.8,0.9-0.8C423.4,118.1,424.2,118.7,424.5,119.9z"/>
	<path style="fill-rule:evenodd;clip-rule:evenodd;fill:#FFFFFF;" d="M333.4,119.1c0.6,0.5,1.5-0.5,2,0.4c-1.1,1.4,0.3,1.9,0.9,2.7
		c-1.5,1-2.3,0.5-2.8-1c-0.2-0.6-0.6-1.1-0.9-1.6C332.9,119.3,333.1,119.2,333.4,119.1z"/>
	<path style="fill-rule:evenodd;clip-rule:evenodd;" d="M373.4,123.4c1.3,0,2.6-0.7,3.7,0.2c0.6,0.5,1,1,0.8,1.8
		c-0.2,0.8-0.9,0.7-1.5,0.8c-0.2,0-0.4,0-0.6,0c-3,0.3-3.1-0.7-3.3,3.3c-0.1,2.1-1.1,2.7-2.9,3c-1.2,0.2-2.5,0-3.6,0.8
		c-0.7,0.5-1-0.3-1.1-0.8c-0.2-0.9-0.2-1.9-0.5-2.9c-0.2-0.8,0.6-2.2-1.2-2c-1.4,0.1-2.3,0.3-2.2,2.3c0.4,5.7,0.4,5.9,6.1,5.5
		c1.7-0.1,3.3-0.3,5-0.4c1.3-0.1,2.3,0.3,2.3,1.7c0.1,1.4-1.2,1.1-2,1.3c-3.4,0.8-7,0-10.4,0.7c-1.2,0.2-1.7-0.9-2.1-1.7
		c-1.2-2.1-1.6-4.4-1.8-6.8c-0.1-1,0-1.7-1.5-1.4c-1.2,0.2-2-0.7-2.2-1.8c-0.3-1.5,1.1-1.2,1.8-1.3c1.2-0.1,1.5-0.7,1.4-1.7
		c-0.1-1,0.2-1.9,0.6-2.9c0.3-0.6,0.7-1,1.5-0.8c0.8,0.2,1,0.7,1,1.4c0,0.3-0.1,0.7-0.1,1c-0.2,2.5-0.2,2.4,2.3,2.1
		c0.9-0.1,1.1-0.5,1.1-1.3c0-1,0-1.9,0.3-2.9c0.2-0.7,0.5-1.4,1.4-1.2c0.8,0.1,1.2,0.7,1.2,1.5c0,0.3-0.1,0.7-0.1,1
		c0,0.8-1,2.1,0.5,2.3c1.2,0.1,3.2,0.8,3.2-1.8c0-0.8,0.1-1.5,0.3-2.3c0.1-0.7,0-1.8,1.1-1.7c0.9,0.1,1.7,0.7,1.7,1.8
		C373.6,121.2,373.5,122.2,373.4,123.4z"/>
	<path style="fill-rule:evenodd;clip-rule:evenodd;fill:#010101;" d="M392.6,126.1c-2,0.7-3.9,1.9-6.3,1.5c0,2.3,0.1,4.5,0,6.7
		c-0.1,1.9-0.9,2.4-2.5,2c-0.4-0.3,0.3-1.4-0.8-1.3c-0.8,0.6-1.5,1.2-2.3,1.7c-0.4,0.3-1,0.2-1.4-0.2c-0.5-0.4-0.4-0.9-0.1-1.3
		c0.7-0.7,0.3-1.6,0.2-2.4c-0.4-3.6-0.2-7.3,0.3-10.9c0.1-1,0.2-3.1,2.3-1.4c0.3,0.2,1,0,1.4-0.1c2.2-0.6,2.8-0.2,3,1.9
		c0.3,2.8,0.3,2.8,3.1,2.2c0.5-0.1,1.1-0.2,1.6-0.3c0.8-0.1,1-0.6,1-1.3c0-1.1-0.8-0.7-1.3-0.7c-0.3,0-0.6,0.1-0.8,0.1
		c-0.8,0-1.5-0.3-1.6-1.2c-0.1-1,0.6-1.3,1.3-1.3c1.6,0,2.6-0.5,2.6-2.3c0-0.5,0.4-1.1,1.1-1.2c0.8-0.1,1.3,0.5,1.6,1.1
		c0.3,0.6,0.2,1.2,1.2,0.8c0.7-0.3,1.4,0,1.6,0.8c0.2,0.8-0.3,1.3-1,1.6c-0.5,0.2-1.1,0.4-1.6,0.6c-0.8,0.4-0.7,1.3-0.5,1.8
		c0.1,0.6,0.8,0.2,1.3,0.1c1.2-0.2,2.3-0.4,3.5-0.6c0.7-0.1,1.4,0,1.9,0.6c0.3,0.4,0.7,0.8,0.4,1.3c-0.2,0.4-0.7,0.4-1.1,0.4
		c-1.7,0-3.4,0.1-5,0.1C394.7,126,393.7,126.1,392.6,126.1z"/>
	<path style="fill-rule:evenodd;clip-rule:evenodd;fill:#010101;" d="M332.2,139.2c-0.6,1.2-1.5,1.4-1.6,0
		c-0.4-3.8-0.5-7.6,0.7-11.3c0.2-0.7,0.6-1.2,1.6-0.8c0.8,0.3,0.9,0.2,2.1-0.2c-0.6-1.1-1.1-2.3-2.8-1.6c-0.4,0.2-0.9-0.2-0.9-0.7
		c0-1,1-1,1.6-1.5c-0.6-0.7-1.2-1.4-1.8-2.1c-0.4-0.5-0.5-1,0-1.5c0.5-0.6,1-0.3,1.5-0.1c1.2,0.4,1.3,1.8,2.4,2.6
		c0-1.1-0.9-2.2,0.4-2.8c0.3,0,0.6,0,0.8,0.3c1,0.5,0.6,1.7,1.2,2.6c0.9-1.3,1.7-2.5,2.5-3.6c0.4-0.5,1.1-1.1,1.7-0.3
		c0.7,0.7,0.2,1.3-0.4,1.8c-0.6,0.5-1.3,1-2.1,1.5c0.5,0.3,1.1,0.6,1.4,1c0.6,0.7,1,1.5-0.5,1.7c-0.5,0.1-1,0.2-1.4,0.5
		c-0.5,0.3-1.2,0.8-0.9,1.5c0.3,0.9,1,0.5,1.6,0.3c1.2-0.5,1.7,0.1,1.9,1.2c0.6,3.5,0.5,6.9,0.3,10.4c-0.1,1.7-1.6,1.8-2.6,2.3
		c-1,0.6-0.9-0.6-1.3-1.1c-0.4-0.4-0.9-0.8-1.4-1.2c0.3-0.4,0.7-0.5,1.1-0.5c0.9,0.1,1.2-0.4,1.2-1.2c0-1.1,0-2.2,0.1-3.1
		c-0.5,1.2-0.2,2.7-0.8,4c-0.7,0.5-1.5,0-2.2,0.3c-1.1,0.3-2.2,0.6-3.3,0.9c0.9-1.5,1.6-3,0-4.5c-0.2-0.2,0.2-0.6,0.5-0.8
		c1.2-0.4,2.4-0.6,3.6-1.2c-0.4-0.1-0.6,0.1-0.9,0.2c-0.9,0.3-1.9,1-2.7,0c-0.8-1,0.2-1.8,0.5-2.6c-0.5,0.6-0.7,1.4-0.9,2.2
		C332.4,134.2,333.2,136.8,332.2,139.2z"/>
	<path style="fill-rule:evenodd;clip-rule:evenodd;fill:#010101;" d="M311.3,123.8c0.4,0.1,0.6,0.2,0.7,0.1c4.2-0.9,5-0.3,5,4
		c0,2.2,0.2,4.3-0.3,6.5c-0.4,1.7-1.5,2.6-3,3.2c-0.4,0.2-1,0.3-1.1-0.1c-0.6-2-1.9-1-2.7-0.5c-1.3,0.8-1.7,0.3-2.1-0.8
		c-1.5-3.7-1.7-7.6-1.3-11.5c0.1-0.7,0.5-1.7,1.2-1.3c1.5,0.7,1.7-0.3,2.2-1.2c0.6-1.1,1.3-2.2,1.9-3.3c0.3-0.5,0.4-1.3,1.2-1.2
		c0.8,0.1,1.4,0.7,1.8,1.4c0.4,0.7,0,1.3-0.4,1.7C313.4,122,312.4,122.8,311.3,123.8z"/>
	<path style="fill-rule:evenodd;clip-rule:evenodd;fill:#010101;" d="M426.2,135c0.1,1.4-0.1,2.6,0.4,3.9c0.5,1.2-0.5,1.9-1.8,1.4
		c-1.2-0.5-2.4-1.2-3.3-2.2c-2.4-2.5-4.1-5.3-5.1-8.5c-0.3-1-0.6-1.7-1.8-1c-0.7,0.4-1.5,0.2-2.2-0.1c-0.8-0.3-1.2-1.1-1.3-1.8
		c-0.1-0.8,0.7-0.9,1.3-1.1c2.4-0.6,3.1-1.9,2.2-4.2c-0.4-1-0.3-2.1-0.5-3.1c-0.1-0.9-0.1-1.8,1-1.9c1-0.1,1.7,0.6,1.8,1.7
		c0.2,1.7,0.3,3.3,0.4,5.1c1,0,1.6-0.7,2.3-1.1c1.1-0.6,2.1-0.4,2.8,0.5c0.7,1,0.1,1.7-0.7,2.2c-0.4,0.2-0.7,0.5-1,0.7
		c-2.6,1.8-2.7,1.8-1.5,4.6c0.9,2.1,2,4.1,3.6,5.8c1.1,1.2,2,1.5,2.6-0.4C425.4,135.3,425.5,135.1,426.2,135z"/>
	<path style="fill-rule:evenodd;clip-rule:evenodd;fill:#010101;" d="M322.4,121.9c1,0.2,2,0,2.7-0.3c1.9-0.9,2.9,0.4,3,1.7
		c0.3,4,0.8,8-0.7,12c-1,2.9-3.4,3.4-5.8,4.1c-0.7,0.2-0.8-0.3-1-0.7c-0.3-0.7-0.6-1.4-0.9-2.1c3.3,0.1,4.5-0.9,5.3-4.3
		c0.6-2.7,0.3-5.4,0.4-8.1c0-0.4-0.1-1.1-0.6-0.7c-1.5,1-3.8,0.6-4.6,2.7c-0.3,0.7-1,0.8-1.6,0.7c-0.8-0.1-0.8-0.9-0.7-1.5
		c0.5-2.8,1.5-5.4,3-7.8c0.4-0.6,0.7-1.3,1.6-1c0.8,0.4,1.3,1.1,1.2,2C323.5,119.8,323,120.9,322.4,121.9z"/>
	<path style="fill-rule:evenodd;clip-rule:evenodd;fill:#020202;" d="M351.3,133.1c0.8,0.2,0.5,1,0.9,1.2c2.2,1.1,0.9,2.6,0.1,3.5
		c-1.4,1.6-3.4,1.7-5.4,1.3c-1.8-0.3-3.1-1.5-3.2-3.2c-0.4-5.6-0.2-11.1,1.5-16.5c0.2-0.5,0.3-1.4,1.1-1.3c0.8,0,1.4,0.5,1.9,1.2
		c0.4,0.7,0.1,1.3-0.3,1.9c-2.6,4.3-2.1,9.1-2.1,13.8c0,1,0.7,1.7,1.8,1.7c1.2,0,2.5,0.1,3-1.3C350.9,134.6,351,133.9,351.3,133.1z"
		/>
	<path style="fill-rule:evenodd;clip-rule:evenodd;fill:#020202;" d="M392.6,126.1c1-0.4,1.9-0.7,3-0.7c-0.3,1.2,0.4,1.9,1.4,2.1
		c0.5,0.1,1-0.1,1.5-0.1c0.9,0,2-0.2,2.1,1.1c0.1,1.1-0.9,1.5-1.7,1.4c-2.3-0.1-2.4,1.1-2.2,2.9c0.2,1,0.1,2.1,0,3.1
		c-0.1,2.3-1.3,3.8-3.4,4.5c-0.5,0.1-1,0.2-1-0.3c-0.2-1.2-1.3-1.5-2.1-2.3c0.1-0.1,0.2-0.3,0.3-0.3c3.2,0.4,3.2,0.4,3.3-2.8
		c0.1-4.1,0.1-4.1-3.8-3.1c-0.4,0.1-0.8,0.2-1.2,0.2c-1,0-1.4-0.7-1.5-1.5c-0.1-0.8,0.6-1,1.3-1.1c1.4-0.2,2.7-0.5,4.1-0.7
		c0.6-0.1,1.3-0.2,1.1-1.1C393.7,126.6,393.6,125.9,392.6,126.1z"/>
	<path style="fill-rule:evenodd;clip-rule:evenodd;fill:#010101;" d="M406.5,126.9c-1.1,1.9-2.3,2.8-3.8,3.3
		c-0.5-0.8-0.1-1.5,0.2-2.2c1.2-2.8,2.8-5.5,4.7-7.8c0.5-0.6,1.1-1.7,2.2-0.9c0.9,0.7,1.4,1.8,0.7,2.8c-3.3,4.1-0.8,8.8-1.5,13.2
		c-0.1,0.5,0.1,1,0,1.5c-0.2,0.7-0.8,1.3-1.4,1.4c-0.8,0-1-0.8-1-1.5C406.5,133.6,406.5,130.6,406.5,126.9z"/>
	<path style="fill-rule:evenodd;clip-rule:evenodd;fill:#090909;" d="M433.4,136.4c-0.4,0-0.9,0-1.3-0.2c-0.7-0.2-1.1-0.8-1.1-1.6
		c0-0.8,0.3-1.4,1-1.7c0.8-0.3,1.6-0.1,2,0.6c0.8,1.2,0.8,2.5,0.3,3.8c-0.5,1.3-1.4,2.2-3.2,2.2
		C431.9,138.3,433.6,138.1,433.4,136.4z"/>
	<path style="fill-rule:evenodd;clip-rule:evenodd;fill:#090909;" d="M322,130.6c-0.1,0.5-0.3,1.1-1.1,1.1c-0.7,0-3-2.2-2.9-2.9
		c0-0.8,0.5-1,1.2-1C320.7,128,322.1,129.3,322,130.6z"/>
	<path style="fill-rule:evenodd;clip-rule:evenodd;fill:#FFFFFF;" d="M333.1,133.4c-0.9,1.3,0.6,1.6,1,1.9c1.1,0.9,0.9,1.2-0.2,1.7
		c-0.6,0.3-1.3,0.5-1.4,1.4c0,0.3-0.1,0.6-0.4,0.8c0.2-2.7-0.4-5.4,0.3-8.1C332.9,131.8,333.1,132.6,333.1,133.4z"/>
	<path style="fill-rule:evenodd;clip-rule:evenodd;fill:#0A0A0A;" d="M388.6,132.5c1.2,0.3,2.5,0.6,2.5,2.2c0,0.6-0.1,1.3-0.9,1.4
		c-0.6,0.1-3-2.1-2.9-2.7C387.5,132.8,387.9,132.5,388.6,132.5z"/>
	<path style="fill-rule:evenodd;clip-rule:evenodd;fill:#FFFFFF;" d="M337.6,137.9c-0.4,0-0.8,0.1-1.2,0.1c-0.2-0.2-0.3-0.3-0.5-0.5
		c0.6-1,1.5-0.1,2.2-0.4C338.2,137.5,337.9,137.7,337.6,137.9z"/>
	<path style="fill-rule:evenodd;clip-rule:evenodd;fill:#6F6F6F;" d="M383,135c0.2-0.4,0.6-1,0.8-0.1c0.1,0.4,0,0.9-0.1,1.4
		C383,136.1,383.7,135.1,383,135z"/>
	<path style="fill-rule:evenodd;clip-rule:evenodd;fill:#FFFFFF;" d="M369.9,128c0,1.2,0.1,2.3-1.7,2.4c-1.8,0.1-1.1-1.2-1.2-2
		c-0.4-1.8,1-1.4,1.9-1.6C369.9,126.6,370,127.2,369.9,128z"/>
	<path style="fill-rule:evenodd;clip-rule:evenodd;fill:#E6E6E6;" d="M383.7,128.2c0.4,4.4,0.4,4.4-2.3,5.3
		C380.9,129.1,380.9,129.1,383.7,128.2z"/>
	<path style="fill-rule:evenodd;clip-rule:evenodd;fill:#FFFFFF;" d="M383.8,124.2c0.4,1.7,0.1,2.5-1.7,2.5c-1.2,0-0.8-0.7-0.7-1.1
		c0.2-1.3-0.3-3.1,1.8-3.2C384.9,122.4,383.2,123.9,383.8,124.2z"/>
	<path style="fill-rule:evenodd;clip-rule:evenodd;fill:#FFFFFF;" d="M333.1,133.4c-0.9-0.6-0.4-1.5-0.6-2.3
		c-0.1-1.3,0.2-2.3,1.8-2.6c0.2,0.9-0.2,1.5-0.7,2.1c-0.4,0.4-0.7,0.7-0.3,1.3c0.4,0.6,0.9,0.4,1.5,0.3c1.1-0.3,2-1.3,3.3-1
		C336.8,133,334.9,133.1,333.1,133.4z"/>
	<path style="fill-rule:evenodd;clip-rule:evenodd;fill:#FFFFFF;" d="M337.6,137.9c0.1-0.3,0.3-0.5,0.4-0.8
		c-0.7-1.9,0.3-3.6,0.7-5.4c0.2,0,0.3,0,0.5,0c0,1.7,0,3.5,0,5.2C339.3,138.2,338.4,138,337.6,137.9z"/>
	<path style="fill-rule:evenodd;clip-rule:evenodd;fill:#FFFFFF;" d="M338.5,123c-0.7,2.4-1.9,2.2-3.3,1.2
		C336.2,123.8,337.2,123.5,338.5,123z"/>
	<path style="fill-rule:evenodd;clip-rule:evenodd;fill:#FFFFFF;" d="M338.5,127.9c1.7,0,0.4,1.3,0.7,1.9c-0.4-0.4-0.7-0.8-1.1-1.1
		C337.8,128.2,338.2,128.1,338.5,127.9z"/>
	<path style="fill-rule:evenodd;clip-rule:evenodd;fill:#FFFFFF;" d="M338.5,127.9c-0.1,0.3-0.3,0.5-0.4,0.8c-0.4,0-0.8,0-1.2,0
		c-0.2,0.2-0.4,0.1-0.6-0.1C336.8,127.7,337.6,127.8,338.5,127.9z"/>
	<path style="fill-rule:evenodd;clip-rule:evenodd;fill:#FFFFFF;" d="M336.3,128.7c0.2,0,0.4,0,0.6,0.1c0.2,1-0.3,1.3-1.3,1.3
		C335.5,129.4,336,129,336.3,128.7z"/>
	<path style="fill-rule:evenodd;clip-rule:evenodd;fill:#FFFFFF;" d="M313.6,135.1c-0.8-1.6-1.6-1.3-2.5-1c-0.6,0.2-1.3,0.9-1.6-0.4
		c-0.1-0.8-0.6-1.7,0.6-2c0.4-0.1,0.8-0.3,1.2-0.5c0.9-0.4,2-0.8,1.6-2.1c-0.5-1.5-1.6-0.4-2.4-0.4c-0.4,0-0.8,0.2-1.2,0.3
		c-0.2-2,1.9-4.1,3.8-3.9c0.7,0.1,0.8,0.6,0.8,1C314.1,129.1,314.3,131.8,313.6,135.1z"/>
	<g>
		<path style="fill-rule:evenodd;clip-rule:evenodd;fill:#060606;" d="M518.4,174.3c-0.1,1.1-0.5,2.1-1.8,2.1
			c-1.3,0-1.8-1.3-1.9-2.3c-0.2-1.1,0.8-1.8,1.8-1.9C517.9,172.1,518.3,173.1,518.4,174.3z"/>
		<path style="fill-rule:evenodd;clip-rule:evenodd;fill:#060606;" d="M530.2,174.2c-0.1,1.1-0.5,2.1-1.8,2.1c-1.4,0-1.8-1.3-2-2.2
			c-0.2-1.1,0.8-1.8,1.8-1.9C529.6,172.1,530.1,173,530.2,174.2z"/>
		<path style="fill-rule:evenodd;clip-rule:evenodd;fill:#060606;" d="M541.9,174.2c-0.1,1.1-0.5,2.1-1.8,2.1c-1.4,0-1.8-1.3-2-2.2
			c-0.2-1.1,0.8-1.8,1.8-1.9C541.3,172.1,541.8,173,541.9,174.2z"/>
	</g>
	<g>
		<path style="fill-rule:evenodd;clip-rule:evenodd;fill:#030303;" d="M392.1,167.5c1.8-3.1,3.5-5.9,5.2-8.7
			c0.4-0.6,1.1-0.6,1.7-0.2c0.8,0.5,1.6,1,2.1,1.7c1.7,2.3,4.1,3.8,6.3,5.4c0.3,0.2,0.9,0.3,0.7,0.8c-0.2,0.6-0.7,0.5-1.2,0.3
			c-0.5-0.3-1-0.3-1.5,0.3c-0.5,0.7-1.1,0.4-1.6,0.1c-1.7-1-3.1-2.3-4-4.1c-1.2-2.2-1.2-2.2-2.7-0.2
			C394.2,166.6,394,166.7,392.1,167.5z"/>
		<path style="fill-rule:evenodd;clip-rule:evenodd;fill:#030303;" d="M353.6,163.2c1.1,0.2,2.1-1.8,2.7-0.1c0.5,1.3-1.2,1.4-2,1.9
			c-0.8,0.5-1.8,0.9-2.5,0.2c-0.8-0.6-0.1-1.5-0.1-2.3c0.1-0.8,1.2-1.9-0.1-2.2c-1-0.2-1.8,0.9-1.9,2.1c-0.2,1.3,0.1,2.7-0.7,3.9
			c-0.3,0.4-0.5,0.9-1.1,0.8c-0.7-0.1-0.5-0.7-0.5-1.2c-0.1-1.5-0.1-3.1-0.1-4.6c0-2.2,0.5-2.4,2.7-2.4c1,0,2-0.5,2.9-1.1
			c0.9-0.6,1.6-0.5,2.2,0.2c0.7,0.7,0.4,1.4-0.1,2.1C354.5,161.4,353.7,162.1,353.6,163.2z"/>
		<path style="fill-rule:evenodd;clip-rule:evenodd;fill:#040404;" d="M413.7,162.9c-0.6,0.5-1.1,1.1-2,1.1
			c-0.2-2.3,2.7-6.6,4.7-7.2c1.1-0.3,1.4,0.6,1.5,1.2c0.2,1.1,0.6,1.2,1.5,0.8c0.8-0.4,1.7-0.6,2.5-0.9c1.8-0.6,2.4-0.1,2.5,1.9
			c-2.3,1.8-5,1.9-7.7,2c-0.5,0-1-0.1-1.4,0.1C414.7,162.1,414.2,162.5,413.7,162.9z"/>
		<path style="fill-rule:evenodd;clip-rule:evenodd;fill:#030303;" d="M465.9,161.5c-0.1-0.3-0.1-0.5-0.2-0.6
			c-0.7-0.7-2.1-1.3-0.9-2.4c0.9-0.9,2-0.3,3,0.5c0.7,0.6,0.8,1.7,1.8,1.9c-0.9,0.8-1.3,1.9-1.9,2.9c-0.2,0.3-0.8,0.4-0.9,0.1
			c-0.6-1.9-1.5-0.5-2.2-0.1c-1,0.5-1.8,1.3-2.8,1.8c-1.3,0.6-2.4,0.3-2.9-1.1c-0.5-1.5,0.9-1.4,1.7-1.7
			C462.3,162.4,464,162,465.9,161.5z"/>
		<path style="fill-rule:evenodd;clip-rule:evenodd;fill:#040404;" d="M338.7,158.6c1.6,0.9,3,0.2,4.4-0.9c0.5-0.4,1.2-0.6,1.7-0.1
			c0.6,0.5,0.4,1.3,0.1,1.9c-0.4,0.8-1,1.4-0.7,2.5c0.3,0.8-0.7,1.1-1.3,0.7c-1.9-1.5-3-0.1-4.1,1.1c-0.6,0.6-1.3,1.9-2,1.3
			c-0.6-0.5,0.5-1.5,0.9-2.2c0.2-0.4,0.6-0.8,0.9-1.1c0.8-0.8,0.9-1.3-0.4-1.6c-0.5-0.1-1.5-0.3-1.3-1
			C337.1,158.3,338,158.8,338.7,158.6z"/>
		<path style="fill-rule:evenodd;clip-rule:evenodd;fill:#040404;" d="M438.8,161.4c-1.4,0-2.1-0.6-2.6-1.7
			c-0.4-0.9-0.2-1.4,0.9-1.5c2.1-0.3,4.1-0.7,6.2-1c1.1-0.2,2.1,0.1,2.4,1.4c0.2,1.2-0.7,1.5-1.6,1.7
			C442.2,160.7,440.4,161.1,438.8,161.4z"/>
		<path style="fill-rule:evenodd;clip-rule:evenodd;fill:#F9F9F9;" d="M414.9,161.7c0.3-0.3,0.8-0.8,1-0.7c3.1,1.4,5.8-0.6,8.6-1.2
			c0,0.2,0,0.3,0.1,0.5c-1.2,0.3-0.8,1.3-0.7,2.1c0.1,0.8,0.3,1.6,0.1,2.5c-0.1,0.7-0.7,0.6-1.1,0.6c-0.6,0-0.7-0.3-0.5-0.8
			c0.1-0.5,0.1-1,0.2-1.5c0.1-0.7-0.2-1.3-1-1.3c-0.7,0-0.7,0.7-0.8,1.2c0,0.6-0.1,1.3-0.1,1.9c0,0.6-0.3,0.8-0.9,0.9
			c-0.8,0.1-0.6-0.5-0.7-1c-0.2-0.9,0.7-2.6-0.8-2.6c-1.4,0-0.7,1.7-0.8,2.6c-0.1,0.7,0.1,1.4-1,1.4c-1.4-0.1-0.6-1-0.5-1.5
			c0.1-1,0.7-2.1-1-2.4C414.6,162.2,414.7,161.9,414.9,161.7z"/>
		<path style="fill-rule:evenodd;clip-rule:evenodd;fill:#060606;" d="M465.3,167.1c1.5-1.1,3-2.2,4.4-3.4c1.1-0.9,2.4-1.7,2.8-3.2
			c0.2-0.8,1.1-0.7,1.8-0.6c1,0.1,1.7,0.7,2,1.6c0.2,0.7-0.2,1.2-0.9,1.5c-3.3,1.3-6.5,3-9.7,4.6
			C465.5,167.4,465.4,167.3,465.3,167.1z"/>
		<path style="fill-rule:evenodd;clip-rule:evenodd;fill:#090909;" d="M448.6,161.9c1.2-2.2,2.8-3.1,4.1-4.3
			c0.7-0.7,1.3-0.1,1.6,0.6c0.5,0.9,0.5,1.8-0.6,2.2C452.2,160.9,450.6,161.3,448.6,161.9z"/>
		<path style="fill-rule:evenodd;clip-rule:evenodd;fill:#080808;" d="M391.9,159.9c-0.3,0.6-0.5,1.8-0.9,1.3
			c-0.8-0.9-2.4-1.3-2.5-2.7c-0.1-0.7,0.9-0.9,1.5-0.8C391.1,158,392.1,158.5,391.9,159.9z"/>
		<path style="fill-rule:evenodd;clip-rule:evenodd;fill:#1E1E1E;" d="M344.2,163.4c0.6,0.2,1.6,0.1,1.8,1.1c0.1,0.7-0.5,1-1.1,0.9
			c-0.7-0.1-1.6-0.3-1.7-1.3C343.1,163.4,343.7,163.4,344.2,163.4z"/>
		<path style="fill-rule:evenodd;clip-rule:evenodd;fill:#9E9E9E;" d="M414.9,161.7c0,0.2,0,0.5,0,0.7c-0.3,0.2-0.6,0.3-0.9,0.5
			c-0.1,0-0.3,0-0.4,0C414.1,162.5,414.5,162.1,414.9,161.7z"/>
		<g>
			<path style="fill-rule:evenodd;clip-rule:evenodd;" d="M491.9,181.5c-0.7-2.6-0.6-5.1-0.6-7.6c0-1.2-0.3-1.6-1.5-1.3
				c-0.6,0.1-1.3,0-1.9,0.3c-2.4,1.2-3.2-0.4-4-2.1c-1-2.3-1.4-4.7-1.4-7.1c0-1.6,0.7-2.1,2.3-1.4c2.1,1,4.2-0.2,6.1-0.7
				c0.8-0.2,0.2-2.2,0.4-3.3c0.1-0.6,0-1.3,0.8-1.6c0.7-0.2,1.4,0.1,2,0.5c0.8,0.6,0.4,1.2,0.2,1.9c-0.4,1.4-0.5,2.5,1.7,2
				c2-0.5,3.9,0.7,5.9,0.7c1.1,0,1.3,1.1,1,2.1c-0.3,1.1-0.8,2.1-1.3,3.1c-0.4,0.8-0.9,1.4-0.4,2.5c0.5,0.9-0.3,1.5-1.3,1.7
				c-1.6,0.3-3.2,0.6-4.8,0.7c-0.9,0.1-1.2,0.4-1.2,1.3c0,0.6-0.1,1.1-0.1,1.7C494.2,177.1,494.1,179.4,491.9,181.5z"/>
			<path style="fill-rule:evenodd;clip-rule:evenodd;fill:#010101;" d="M386.2,175.5c3,0.5,5.8-2.5,4.8-5.2
				c-0.4-1.3-1.7-0.4-2.3,0.1c-0.7,0.4-1,1.4-1.6,1.9c-1.6,1.2-2.7,3.9-5.5,2.5c-5.4,1.9-8.2-2.2-11.4-5.1c-2.6-2.4-2.6-2.5-5,0
				c-1,1-1.9,2.1-2.9,3.1c-1,1-2.3,1.4-3.7,2.1c-0.2-1.3,0.5-2.2,1.2-3c2.8-3.6,5.7-7.3,8.5-10.9c0.4-0.5,1-1.5,1.8-0.7
				c0.7,0.6,1.5,1.5,0.8,2.6c-0.5,0.8-1.1,1.6-1.6,2.2c3.7,3.9,8.6,6,13.4,8.3c0.5,0.2,1,0.7,1.5-0.2c1.5-2.3,3.1-4.6,4.8-7
				c-1.2,0-1.7,0.7-2.5,1c-1.1,0.4-2.2,0.1-2.7-1c-0.6-1.2,0.8-1.3,1.4-1.5c1.5-0.7,3.1-1.1,4.7-1.7c0.8-0.3,1.6-0.2,2.1,0.5
				c0.5,0.8-0.4,1.1-0.7,1.6c-0.5,0.9,0,2.3-1.2,3.1c2.8-0.2,3.4,0.5,3.2,3.1c-0.2,2.2-0.9,4.2-2.5,5.8c-1,0.9-2.2,1.5-3.4,1.2
				C386.4,177.9,386.6,176.6,386.2,175.5z"/>
			<path style="fill-rule:evenodd;clip-rule:evenodd;fill:#010101;" d="M424.6,160.3c1.6,0.7,1.4,2.1,1.3,3.4
				c-0.1,1.3,0.2,1.9,1.5,1.5c0.4-0.1,0.8-0.1,1.2-0.2c1-0.1,1.8,0.2,2.3,1.1c0.3,0.5,0.4,1.1-0.1,1.6c-0.6,0.7-1.4,0.2-2.2,0.2
				c-0.6,0-1.1-0.2-1.6-0.3c-0.7-0.1-1.7-0.3-1.6,1c0.1,0.7-0.8,1.9,0.9,1.9c0.6,0,1.1,0.4,1.1,1c0,0.7-0.5,1.2-1.2,1.3
				c-4.3,0.7-8.6,1.8-13,2c-0.6,0-1.2,0-1.3-0.8c-0.1-0.7,0.1-1.3,0.8-1.5c1.6-0.3,1.1-1.4,0.9-2.2c-0.3-1.2-1.1-0.1-1.6-0.2
				c-0.5-0.1-1.1,0.1-1.7,0c-0.9-0.1-1.7-0.5-1.7-1.5c-0.1-1,0.8-0.9,1.5-1.1c3.5-0.9,3.5-0.9,4-4.6c0.1-0.5,0.5-0.7,1-0.7
				c1.7,0.2,1.5,1.5,1.5,2.7c0.1,0.1,0.2,0,0.2-0.1c0.3-1.1-0.1-2.7,1.5-2.7c1.5,0,1.1,1.6,1.5,2.6c0.7-0.3,0.4-0.9,0.5-1.3
				c0.2-0.8,0.3-1.6,1.3-1.6c1,0,1.3,0.8,1.4,1.7c0,0.3,0,0.7,0.3,1.1c0.4-0.8,0-1.5,0.1-2.2C423.3,161.3,423.3,160.4,424.6,160.3z"
				/>
			<path style="fill-rule:evenodd;clip-rule:evenodd;fill:#010101;" d="M435.2,179.1c0-2.2,0.9-4.2,1.3-6.4c0.2-0.9,0.6-1.7-1-1.6
				c-0.9,0.1-1.6-0.8-1.7-1.8c-0.1-1.1,0.9-1.2,1.6-1.3c1.6-0.2,1.9-1,1.8-2.4c-0.1-0.8-0.4-2.2,0.7-2.3c1.3-0.1,1.5,1.2,1.5,2.3
				c0,0.4,0,0.8,0,1.2c1.7,0.1,2.2-0.6,2.1-2.1c-0.1-0.6,0-1.3,0-1.9c0-0.8,0.1-1.7,1.1-1.7c0.8,0.1,1.5,0.7,1.4,1.7
				c0,0.4,0,0.8,0,1.3c0,0.9-0.1,1.6,1.1,1.7c0.8,0.1,1.6,0.8,1.5,1.8c-0.1,0.9-0.9,1-1.6,1c-1,0.1-1,0.7-1,1.5c0,2.2,0,4.5,0,6.7
				c0,0.6,0.1,1.2-0.4,1.8c-0.4,0.4-0.7,1-1.3,0.9c-0.8-0.1-0.9-0.8-0.9-1.5c0-2.2,0.1-4.5,0-6.7c0-0.5,0.6-1.5-0.6-1.6
				c-0.9,0-1.8,0.3-1.8,1.6C438.9,174.6,437.1,176.9,435.2,179.1z"/>
			<path style="fill-rule:evenodd;clip-rule:evenodd;fill:#010101;" d="M475.2,178.8c-4.1-0.6-8-1.4-11.2-3.7
				c-1.6-1.2-3.1-2-5.2-1.7c-0.4,0.1-0.8,0-1.2-0.1c-1-0.2-1.4-1-1.4-1.8c0-0.9,0.9-0.9,1.6-1c1.6-0.1,3.3-0.2,4.7,0.6
				c4.7,3,10,3.3,15.2,3.9c1.1,0.1,3-0.2,3.1,0.9c0.1,1.3-1.8,0.9-2.8,1.2C476.8,177.4,476.4,179.1,475.2,178.8z"/>
			<path style="fill-rule:evenodd;clip-rule:evenodd;fill:#020202;" d="M340,172.1c-1.8,1.7-2.5,3.7-4.8,4.2
				c0.5-2.2,2.2-3.5,3.1-5.4c-0.5,0-0.8,0-1.1,0c-1.2,0.1-2-0.4-2.1-1.5c-0.1-1,1-0.9,1.8-1c1.7-0.4,3.8-0.1,3.5-2.9
				c0-0.4,0.4-0.9,1-0.9c0.6,0,1.3,0.3,1.3,0.8c0.1,1.5,0.8,1.4,1.9,1c0.7-0.2,1.6-0.6,1.9,0.5c0.3,1.1-0.3,1.9-1.3,2
				c-3.1,0.3-2.9,2.4-2.9,4.6c0,1.7,0.2,3.4-0.3,5c-0.2,0.6-0.3,1.3-1.1,1.3c-0.9,0-0.8-0.8-0.9-1.4
				C339.9,176.4,340,174.5,340,172.1z"/>
			<path style="fill-rule:evenodd;clip-rule:evenodd;fill:#020202;" d="M358.6,178.5c-2.7,0.8-4.9,0.7-6.7-1.3
				c-0.5-0.6-1.1-0.3-1.7,0c-1.5,0.7-3.2,1-5,1c0.7-1.5,2.3-1.6,3.4-2.1c1.4-0.6,1.5-1.1,0.6-2.2c-0.8-1-1.1-2.4-2.5-2.9
				c-0.4-0.1-0.7-0.5-0.5-1c0.2-0.4,0.4-0.8,1-1c1.9-0.6,3.8-1.2,5.6-1.9c1.6-0.7,2.1,0.1,2.1,1.4c0,1.7-0.1,3.6-0.8,5.1
				c-0.6,1.2-0.2,1.7,0.7,2.3C356,176.5,357.2,177.4,358.6,178.5z"/>
			<path style="fill-rule:evenodd;clip-rule:evenodd;fill:#040404;" d="M447.2,181.4c0.8-2.6,2.3-4.2,3.5-5.9c0.5-0.7,1-1.5,1.5-2.2
				c0.4-0.6,0.7-1.4,1.8-0.8c1,0.6,1.5,1.2,0.9,2.4c-1.1,2.2-3,3.7-5,5.2C449.1,180.5,448.4,180.8,447.2,181.4z"/>
			<path style="fill-rule:evenodd;clip-rule:evenodd;fill:#0B0B0B;" d="M347,172.4c1,0.7,1.5,1.6,0.9,2.7c-0.6,1.1-1.6,1.3-2.7,1.2
				c-1.2-0.1-1.9-0.9-2-2.1c-0.1-0.9-0.1-1.8,0-2.7c0.1-0.6,0.3-1.3,1.2-1.1c0.7,0.2,1,0.7,1.1,1.4c0,0.1-0.1,0.3-0.1,0.4
				c-0.1,0.8-0.7,1.9,0.3,2.1C346.6,174.6,346.5,173.1,347,172.4z"/>
			<path style="fill-rule:evenodd;clip-rule:evenodd;fill:#040404;" d="M401.2,177.3c-0.1,0.8-0.4,1.6-1.3,1.9
				c-0.9,0.2-1.2-0.6-1.5-1.2c-0.5-1-1-2-1.8-2.8c-0.4-0.4-0.4-0.8-0.2-1.3c0.2-0.5,0.6-0.5,1.1-0.4
				C398.8,173.5,401.2,176,401.2,177.3z"/>
			<path style="fill-rule:evenodd;clip-rule:evenodd;fill:#090909;" d="M314.5,179.6c0.2-1,1.4-0.8,1.7-1.5c0.3-0.7,1.4-1.7-0.6-1.6
				c-0.9,0-1.3-0.7-1.4-1.5c-0.1-0.8,0.3-1.4,0.9-1.7c0.7-0.3,1.4-0.3,1.9,0.3c1.1,1.2,1.1,2.5,0.5,3.9
				C317.1,178.7,316.3,179.7,314.5,179.6z"/>
			<path style="fill-rule:evenodd;clip-rule:evenodd;fill:#050505;" d="M448.8,170.3c0.9-2,2.3-3.3,3.5-4.7c0.5-0.6,1.1-1.6,2-0.6
				c0.7,0.8,0.8,1.7-0.1,2.6C452.7,168.8,451.1,169.8,448.8,170.3z"/>
			<path style="fill-rule:evenodd;clip-rule:evenodd;fill:#070707;" d="M430,178.2c0,0.8-0.2,1.6-1,1.9c-1.1,0.4-1.1-0.7-1.5-1.3
				c-0.4-0.8-0.9-1.6-1.2-2.4c-0.2-0.5-0.2-1.1,0.3-1.5c0.4-0.3,0.9-0.1,1.4,0.1C429.2,175.7,429.8,176.8,430,178.2z"/>
			<path style="fill-rule:evenodd;clip-rule:evenodd;fill:#080808;" d="M397.5,172c0.4-1.4,0.5-2.3-0.6-3c-0.9-0.6-0.4-1.3,0.5-1.4
				c1.3-0.1,2.5,0.1,3.5,1c0.5,0.4,0.5,0.9,0.4,1.5c-0.2,0.6-0.7,0.9-1.3,0.8C399,170.7,398.5,171.4,397.5,172z"/>
			<path style="fill-rule:evenodd;clip-rule:evenodd;fill:#0F0F0F;" d="M410.5,175.5c1.1,0.7,1.5,1.9,1.7,3.1
				c0.1,0.5-0.2,1.5-0.9,1.3c-1.5-0.3-1.4-1.9-1.8-3C409.3,176.3,409.9,175.9,410.5,175.5z"/>
			<path style="fill-rule:evenodd;clip-rule:evenodd;fill:#0E0E0E;" d="M423.3,177c0,0.9-0.4,1.8-0.9,1.6c-1.2-0.3-1.4-1.6-1.7-2.6
				c-0.1-0.5,0-1.3,0.7-1.3C422.8,174.8,422.9,176.2,423.3,177z"/>
			<path style="fill-rule:evenodd;clip-rule:evenodd;fill:#0F0F0F;" d="M416.2,175.1c1,0.6,1.8,1.4,1.7,2.7c0,0.6-0.3,1.4-0.9,1.1
				c-1-0.6-1.4-1.8-1.8-2.9C415.1,175.5,415.5,175.1,416.2,175.1z"/>
			<path style="fill-rule:evenodd;clip-rule:evenodd;fill:#FBFBFB;" d="M494.2,166.5c0.3-0.8-0.5-2.1,0.5-2.4
				c1.3-0.5,2.8-0.8,4.3-0.7c0.2,0,0.5,0.2,0.5,0.3c-0.2,1.7-0.6,3.3-1.7,4.6c-0.8,1-2.3,0.8-3.3,0.6
				C493.8,168.8,494.4,167.3,494.2,166.5z"/>
			<path style="fill-rule:evenodd;clip-rule:evenodd;fill:#F9F9F9;" d="M491.3,167c0,2.7-0.4,3-3.2,2.9c-2.2,0-1.4-2.2-2-3.3
				c-0.3-0.6,3.1-2.2,4.5-2C492.2,165,490.8,166.4,491.3,167z"/>
			<path style="fill-rule:evenodd;clip-rule:evenodd;fill:#ECECEC;" d="M421.8,169.7c0.1-1,0-2.1,1.3-2c1.2,0.1,0.5,1,0.6,1.6
				c0.1,1-0.3,1.7-1.4,1.6C421.3,170.8,421.8,170.1,421.8,169.7z"/>
			<path style="fill-rule:evenodd;clip-rule:evenodd;fill:#F4F4F4;" d="M418.7,170c0-0.8-0.3-1.8,1-1.8c1.2,0,0.6,1,0.6,1.5
				c0.1,0.7,0.4,1.7-1,1.7C418,171.4,418.9,170.4,418.7,170z"/>
			<path style="fill-rule:evenodd;clip-rule:evenodd;fill:#F9F9F9;" d="M415.3,170.7c-0.1-1-0.1-2,1.1-1.9c1.1,0,0.5,0.9,0.6,1.4
				c0.1,0.8,0.2,1.8-1.1,1.7C414.8,171.9,415.7,170.9,415.3,170.7z"/>
			<path style="fill-rule:evenodd;clip-rule:evenodd;fill:#F3F3F3;" d="M352.7,168.3c0.1,1.7,0,3.2-0.8,4.6
				C348.9,170.5,348.9,170.2,352.7,168.3z"/>
		</g>
	</g>
	<path style="fill-rule:evenodd;clip-rule:evenodd;fill:#040404;" d="M263.2,163c-0.6,0.5-1.1,1.1-2,1.1c-0.2-2.3,2.7-6.6,4.7-7.2
		c1.1-0.3,1.4,0.6,1.5,1.2c0.2,1,0.6,1.2,1.5,0.8c0.8-0.4,1.7-0.6,2.5-0.9c1.8-0.6,2.4-0.1,2.5,1.9c-2.3,1.8-5,1.9-7.7,2
		c-0.5,0-1-0.1-1.4,0.1C264.2,162.1,263.7,162.5,263.2,163z"/>
	<path style="fill-rule:evenodd;clip-rule:evenodd;fill:#080808;" d="M250.1,178.1c0,0.9-0.3,1.5-1,1.8c-0.9,0.3-1.1-0.4-1.4-1.1
		c-0.4-1-1.4-1.5-2.1-2.2c-0.5-0.5-0.9-1.1-0.5-1.8c0.5-0.8,1.2-0.5,1.8-0.2C248.6,175.3,250,176.3,250.1,178.1z"/>
	<path style="fill-rule:evenodd;clip-rule:evenodd;fill:#050505;" d="M157.4,178.2c0,1,0,1.8-0.9,2.1c-1.1,0.4-1.2-0.6-1.5-1.3
		c-0.4-0.9-0.9-1.7-1.4-2.6c-0.2-0.5-0.3-1.1,0.2-1.5c0.5-0.5,1-0.2,1.5,0.1C156.6,175.8,157.4,176.8,157.4,178.2z"/>
	<path style="fill-rule:evenodd;clip-rule:evenodd;fill:#050505;" d="M186.8,163.6c0.7-2.2,1.8-3.6,3.3-4.8c0.6-0.5,1.3-0.7,1.8,0
		c0.5,0.6,0.6,1.3-0.1,1.9C190.4,161.8,189.1,163.2,186.8,163.6z"/>
	<path style="fill-rule:evenodd;clip-rule:evenodd;fill:#070707;" d="M279.5,178.2c0,0.8-0.2,1.6-1.1,1.9c-1,0.3-1.1-0.5-1.4-1.1
		c-0.4-0.9-0.9-1.7-1.3-2.6c-0.2-0.5-0.2-1.1,0.3-1.5c0.5-0.3,0.9-0.1,1.4,0.2C278.7,175.8,279.3,176.8,279.5,178.2z"/>
	<path style="fill-rule:evenodd;clip-rule:evenodd;fill:#080808;" d="M139.5,175c1.2,0.7,1.5,2,2.1,3.1c0.4,0.9,0.2,1.7-0.4,2.3
		c-0.4,0.4-1,0.2-1.3-0.1c-1.1-1.2-1.5-2.6-1.6-4.2C138.3,175.6,138.8,175.2,139.5,175z"/>
	<path style="fill-rule:evenodd;clip-rule:evenodd;fill:#0F0F0F;" d="M261.8,178.6c-0.1,0.6-0.2,1.6-0.9,1.4
		c-1.6-0.2-1.4-1.8-1.9-2.9c-0.3-0.7,0.3-1.5,0.8-1.4C261.3,176,261.2,177.6,261.8,178.6z"/>
	<path style="fill-rule:evenodd;clip-rule:evenodd;fill:#111111;" d="M149.2,174.8c1.4,0.5,2,1.5,2.2,2.7c0.1,0.6-0.2,1.5-0.9,1.3
		c-1.1-0.4-1.7-1.6-2-2.7C148.4,175.4,148.8,175,149.2,174.8z"/>
	<path style="fill-rule:evenodd;clip-rule:evenodd;fill:#0A0A0A;" d="M234,174.7c0.7,0,2.6,2.6,2.5,3.3c-0.1,0.5-0.5,0.8-0.9,0.6
		c-1.4-0.6-2.2-1.7-2.5-3.1C233,175,233.4,174.7,234,174.7z"/>
	<path style="fill-rule:evenodd;clip-rule:evenodd;fill:#0E0E0E;" d="M272.8,177.1c0,0.9-0.4,1.8-0.9,1.6c-1.1-0.4-1.5-1.6-1.6-2.7
		c-0.1-0.5,0-1.3,0.7-1.2C272.3,174.9,272.4,176.2,272.8,177.1z"/>
	<path style="fill-rule:evenodd;clip-rule:evenodd;fill:#101010;" d="M146.8,177.9c-0.2,0.6-0.3,1.6-1,1.3c-1.1-0.5-1.5-1.9-2.1-3
		c-0.2-0.4,0.4-1,0.9-0.9C145.9,175.7,146.4,176.8,146.8,177.9z"/>
	<path style="fill-rule:evenodd;clip-rule:evenodd;fill:#090909;" d="M195.4,158.3c0.9,0.2,1.9,0.5,2,1.8c0.1,0.7-0.2,1.4-1.1,1.2
		c-1.1-0.3-2-1.1-2.3-2.2C193.9,158.6,194.6,158.3,195.4,158.3z"/>
	<path style="fill-rule:evenodd;clip-rule:evenodd;fill:#0F0F0F;" d="M267.4,177.4c0.1,0.9-0.3,1.7-0.6,1.6c-1.3-0.4-1.5-1.8-2-2.9
		c-0.2-0.4,0.2-1.1,0.8-0.9C266.7,175.5,267.2,176.5,267.4,177.4z"/>
	<path style="fill-rule:evenodd;clip-rule:evenodd;fill:#0C0C0C;" d="M239.2,175.7c0,0.6,0,1.2-0.7,1.1c-1.2-0.2-1.6-1.2-1.8-2.2
		c-0.1-0.5,0.2-0.8,0.7-0.7C238.5,174,239,174.7,239.2,175.7z"/>
	<path style="fill-rule:evenodd;clip-rule:evenodd;fill:#9E9E9E;" d="M264.4,161.8c0,0.2,0,0.5,0,0.7c-0.3,0.2-0.6,0.3-0.9,0.5
		c-0.1,0-0.3,0-0.4,0C263.6,162.6,264,162.2,264.4,161.8z"/>
	<path style="fill-rule:evenodd;clip-rule:evenodd;fill:#E2E2E2;" d="M123.2,161.7c0.4,0,1-0.2,0.9,0.5c-0.2,1-1.1,1-1.8,1.2
		c-0.6,0.1-0.7-0.3-0.7-0.8C121.8,161.5,122.7,161.9,123.2,161.7z"/>
	<path style="fill-rule:evenodd;clip-rule:evenodd;fill:#ECECEC;" d="M249.4,160.9c-0.6,1-1.2,1.8-1.6,2.6c-0.6,1.1-1.2,0.4-1.8,0.1
		c-1-0.6-0.1-1,0.2-1.4C246.8,161,248.1,161.3,249.4,160.9z"/>
	<path style="fill-rule:evenodd;clip-rule:evenodd;" d="M298.3,180.9c-0.5-2-0.3-3.8-0.3-5.6c0-1.2-0.4-1.4-1.5-1.1
		c-1.1,0.3-2.2,0.9-3.6-0.2c0.6,2.6-1.1,3.5-2.7,4.5c-0.9,0.6-1.2-0.1-1.5-0.8c-0.2-0.6-0.7-1.2,0.6-1.1c0.8,0.1,1-0.7,1-1.3
		c0.1-1,0-2.1,0-3.2c-1.5,0.1-2.3,0.7-2.2,2.3c0.1,1.2-0.8,2-1.6,2.9c-0.6-0.8-0.2-1.6-0.3-2.4c-0.1-0.7,0-1.4-1.1-1.4
		c-1.3,0-0.4,0.9-0.6,1.4c-0.1,0.4,0.1,1,0.1,1.5c0,0.8-0.7,1.4-1.3,1.4c-0.8,0.1-0.9-0.8-0.9-1.4c0-2.7,0-5.4,0.1-8.2
		c0-0.8,0.1-1.5,0.3-2.3c0.3-1.1,0-2.2,2.1-2.5c1.8-0.3,3.2-2.4,4.8-3.7c-0.1-0.2-0.2-0.3-0.3-0.5c-2.3,0.7-4.6,1.5-7.1,2.3
		c0.3-1.2,1.1-1.5,1.8-1.9c1.2-0.8,2.6-1.3,3.7-2.4c0.4-0.4,1.1-0.7,1.2-0.3c0.8,2.1,3.6,0.1,4.4,2.2c0.3,0.8-0.2,1.1-0.8,1.4
		c-1.4,0.7-2.8,1.5-4.3,2.4c2,0,4.6-1.2,4.6,2.6c1.2-1.9,2.2-3.5,3.2-5.2c-0.5-0.5-1.3-0.1-1.6-0.8c-0.3-0.6-0.6-1.1,0.5-1.3
		c2-0.2,4-0.6,6-0.7c1.7-0.1,2,1.3,1.9,2.6c-0.2,2.3-0.9,4.3-2.9,5.6c0.2,0.3,0.3,0.4,0.4,0.5c0.9,0.1,2.1-0.6,2.4,0.9
		c0.3,1.5-1,1.4-1.9,1.7c-0.9,0.3-0.5,1-0.5,1.6c-0.1,0.8,0.6,0.6,1,0.6c0.8,0,1.5-0.2,2.3-0.1c0.9,0.1,1.7,0.7,1.6,1.6
		c0,0.9-0.9,1.1-1.7,1c-0.3,0-0.6,0-0.8,0c-1.6-0.1-2.7,0.2-2.3,2.3C300.8,177.8,299.9,179.4,298.3,180.9z"/>
	<path style="fill-rule:evenodd;clip-rule:evenodd;" d="M121.8,165.8c-1.8,0.1-2.3-0.9-2.4-2.3c0-0.7-0.3-1.2-1.2-1
		c-0.9,0.2-1.6-0.3-2.1-1c-0.8-1.2-0.8-1.9,0.9-2c1,0,2.4,0.4,2.2-1.5c0-0.5,0-1.6,0.9-1.6c0.9,0,1.7,0.6,1.7,1.5
		c0.1,1.2,0.6,1.1,1.5,1c0.8-0.1,1.8,0.1,1.7-1.2c0-0.8,0.2-1.5,1-1.7c0.8-0.2,1.4,0.5,1.6,1.1c0.3,0.9,0.9,0.9,1.6,1.1
		c0.7,0.2,1.3,0.7,1.2,1.5c-0.1,0.7-0.6,1.2-1.3,1.1c-1.8-0.1-2.7,0.8-2.8,2.5c-0.1,0.7-0.6,0.8-1.1,1.1c-0.3,0.2-1.2,0-0.9,0.8
		c0.2,0.5,0.6,0.7,1.2,0.5c0.1,0,0.3,0,0.4,0c1.3,0.1,2.9-0.8,3.8,0.8c0.9,1.7-1.4,2.5-1.6,4c-0.1,0.8-1.5,0.3-2.3,0.6
		c-0.7,0.2-1.7,0.2-1.5,1.3c0.2,1.2,1.1,0.5,1.7,0.4c1.8-0.4,3.7,0,5.6-0.6c0.8-0.3,1.7,0.6,2.3,1.2c0.5,0.5,0.2,1,0,1.5
		c-0.3,0.6-0.9,0.7-1.4,0.5c-1.6-0.6-3.2-0.4-4.8-0.3c-3.1,0.1-3.1,0.1-3.5,3.1c-0.2,1.4-1.3,2.1-2,3.3c-0.7-1.5-0.5-3-0.5-4.4
		c0-1.3-0.5-1.4-1.5-1.1c-1.7,0.5-3.3,1-5,1.6c-0.9,0.3-1.6,0.4-2.3-0.4c-1.1-1.1-0.9-1.8,0.6-2.3c2.3-0.8,4.6-1.2,7-1.5
		c0.7-0.1,1.5-0.1,1.2-1.1c-0.3-0.8-1-0.3-1.3-0.1c-0.9,0.4-1.7,0.9-2.4-0.3c-0.9-1.5-1.7-3.1-1.2-4.9c0.2-0.7,0.8-0.4,1.2-0.3
		C119.2,167.1,120.4,166.5,121.8,165.8z"/>
	<path style="fill-rule:evenodd;clip-rule:evenodd;fill:#010101;" d="M147.5,162.8c-0.8-0.7,0-1.4,0.4-1.4c1.5,0,1.7-1.1,2-2.2
		c0.2-0.6,0-1.7,1-1.5c0.9,0.1,1.2,1,1.2,1.9c0,0.3-0.1,0.6-0.2,1c0.2,0,0.3,0.1,0.5,0.1c0.9-0.1,1.8-1.4,2.8-0.1
		c0.9,1.2-0.2,1.9-0.6,2.8c-0.9,1.7-1.7,3.4-1.5,5.3c0.1,1.2,0.6,2.2,2,2.2c1.4,0,2.4-0.5,2.6-2.1c0.1-0.8,0.1-1.6,0.6-2.4
		c0.4,1.3-0.2,2.6,0.9,3.8c0.6,0.7-0.2,1.6-0.9,2c-1.6,1-3.5,1.3-5.2,0.4c-1.6-0.7-1.8-2.4-1.9-3.9c-0.1-2.2,0.5-4.4,1-6.5
		c-0.9-0.1-1.1,0.4-1.3,1c-0.6,1.6-1.1,3.3-1.7,4.9c-0.1,0.4-0.4,0.7-0.1,1.2c0.6,1,1.7,2.3-0.9,1.9c-0.4-0.1-1,1.5-1.6,2.3
		c-0.3,0.5-0.6,1.1-0.8-0.1c-0.1-0.5-0.7,0-1.1,0.1c-1.6,0.4-3.2,0.8-4.9,1.2c-1,0.3-1.8,0-2-0.9c-0.2-1,0.9-0.8,1.5-1
		c0.4-0.2,1-0.2,1.4-0.2c0.6-0.1,0.8-0.4,0.8-1c0-0.7-0.5-0.4-0.8-0.6c-2.2-1.3-3.1,1.2-5.1,1.8c1.4-2.8,3.2-4.8,4.6-7.1
		c-0.6-0.4-1.1,0.1-1.5,0.4c-0.8,0.5-1.4,0.4-1.7-0.4c-0.5-1,0.2-1.4,1-1.7c0.8-0.2,1.6-0.4,2.5-0.5c0.5-0.1,1.2,0,1.2-0.9
		c0-1.1-0.7-0.4-1.2-0.5c-0.7-0.1-1.2-0.5-1.3-1.1c-0.1-0.7,0.5-0.9,1.1-0.9c1.2,0,1.4-0.8,1.5-1.8c0.1-0.6,0.2-1.3,1-1.5
		c0.8-0.1,1.1,0.5,1.3,1.1c0.1,0.6,0.2,1,1,0.8c0.7-0.1,1.2,0.3,1.2,1.1c0,0.7-0.5,1-1.1,1.1c-0.8,0.2-1.6,0.4-1.3,1.4
		c0.3,1.2,1.1,0.4,1.7,0.3C146.4,162.4,146.9,163.2,147.5,162.8c0.2,1.1-0.3,1.9-1.4,2.1c-0.1,1.2,1.8,1.1,1.2,2.3
		c-0.3,0.7-0.9,0.8-1.6,0.8c-1.5,0-2.3-0.8-2.5-2.4c-0.8,0.9-1.4,1.7-1.9,2.5c0,0.1-0.1,0.2-0.2,0.3c0.3,0,0.1-0.2,0.2-0.4
		c0.6-1.2,1.4-1.8,2.6-0.6c0.5,0.5,1.3,0.4,1.7,1.1c0.5,1-0.4,1.5-0.7,2.3c1.6-0.1,1.5-0.9,0.9-2c-0.1-0.2-0.1-0.4,0-0.5
		c0.4-0.5,1.3-0.3,1.5-1.1C147.8,165.8,148.3,164.3,147.5,162.8z"/>
	<path style="fill-rule:evenodd;clip-rule:evenodd;fill:#010101;" d="M274.1,160.4c1.6,0.7,1.4,2.1,1.3,3.4
		c-0.1,1.3,0.2,1.9,1.5,1.5c0.4-0.1,0.8-0.1,1.2-0.2c1-0.1,1.8,0.2,2.3,1.1c0.3,0.5,0.4,1.1-0.1,1.6c-0.6,0.7-1.4,0.2-2.2,0.2
		c-0.5,0-1.1-0.2-1.6-0.3c-0.7-0.1-1.7-0.3-1.6,1c0.1,0.7-0.8,1.9,0.9,1.9c0.6,0,1.1,0.4,1.1,1c0,0.7-0.5,1.2-1.2,1.3
		c-4.3,0.7-8.6,1.8-13,2c-0.6,0-1.2,0-1.3-0.8c-0.1-0.7,0.1-1.3,0.8-1.5c1.6-0.3,1.1-1.4,0.9-2.2c-0.3-1.2-1.1-0.1-1.6-0.2
		c-0.5-0.1-1.1,0.1-1.7,0c-0.9-0.1-1.7-0.5-1.7-1.5c-0.1-1,0.8-0.9,1.5-1.1c3.5-0.9,3.5-0.9,4-4.6c0.1-0.5,0.5-0.7,1-0.7
		c1.7,0.2,1.5,1.5,1.5,2.7c0.1,0.1,0.2,0,0.2-0.1c0.3-1.1-0.1-2.7,1.5-2.7c1.5,0,1.1,1.6,1.5,2.6c0.7-0.3,0.4-0.9,0.5-1.3
		c0.2-0.8,0.3-1.6,1.3-1.6c1,0,1.3,0.8,1.4,1.7c0,0.3,0,0.7,0.3,1.1c0.4-0.8,0-1.5,0.1-2.2C272.8,161.4,272.8,160.4,274.1,160.4z"/>
	<path style="fill-rule:evenodd;clip-rule:evenodd;fill:#010101;" d="M213.7,174.4c-1.9-0.3-3.5-0.7-3-3c0.2-0.8-0.6-0.9-1.1-1.3
		c-1-0.8-1.3-1.7,0.2-2c1.7-0.4,2.3-1.4,2.6-3c0.4-2.1,1-4.2,1.7-6.3c0.2-0.6,0.4-1.7,1.5-1.3c0.9,0.3,1.2,1.2,1,2.1
		c-0.5,1.8-1.1,3.6-1.6,5.4c-0.1,0.4-0.3,0.8-0.4,1.3c1.8,0,2.7-0.6,2.5-2.5c-0.1-0.6,0-1.4,0.7-1.6c0.7-0.1,1.5,0.4,1.6,1.1
		c0.2,1.1,0.8,2-0.1,3.4c-1.2,1.8-1.5,4.2-2,6.3c-0.2,0.9,1,1,1.5,1.5c0.9,0.9,2.4,1.6,1.6,3.2c-0.4,0.8-1,1.8-1.8,0.2
		c-0.3-0.6-0.9-1-1.4-1.6c-0.7-0.8-1.3-0.9-2.1,0.1c-1.1,1.4-2.9,1.8-4.9,2.6C211.3,177.2,212.8,176.2,213.7,174.4z"/>
	<path style="fill-rule:evenodd;clip-rule:evenodd;fill:#010101;" d="M201.4,170.9c0.1,3.4,0.2,6.7-1.7,9.7
		c-0.7-1.1-0.7-2.2-0.7-3.3c0-4.1,0-8.1,0-12.2c0-1,0.2-2.1-0.7-3.1c-0.7-0.8,0-1.8,1-2.1c2.2-0.7,4.5-0.8,6.8-0.8
		c1.3,0,1.7,1.2,1.7,2.3c0.1,2.2,0.1,4.5-0.1,6.7c-0.2,2.5-1.7,3.9-3.9,4.6C202.1,173.1,202.6,171.3,201.4,170.9z"/>
	<path style="fill-rule:evenodd;clip-rule:evenodd;fill:#010101;" d="M188.4,171.3c-1.3,0.8-1.9,1.8-3.2,2.3c-0.3-1,0.3-1.6,0.7-2.3
		c1.4-2.9,3.4-5.3,5.4-7.7c0.4-0.4,1-1.3,1.5-0.7c0.9,1.3,2.3,1.6,3.6,2.2c0.7,0.3,1,1,0.7,1.8c-0.3,0.9-1.1,0.7-1.8,0.5
		c-1.1-0.2-1.7-1.1-2.4-2c-0.8,1-1.5,1.9-2.2,2.7c-0.5,0.6-0.6,1.1-0.2,1.8c0.5,0.9,1,0.4,1.6,0.2c0.7-0.2,1.5-0.5,2.2-0.6
		c1.8-0.3,2.9,0.8,2.3,2.6c-0.4,1.1-0.8,2-0.7,3.2c0.1,0.9-0.7,1.1-1.3,1.5c-1.1,0.7-2.5,0.8-3.6,1.9c-0.8,0.8-1.4-0.5-1.6-1.2
		C188.8,175.5,188.3,173.6,188.4,171.3z"/>
	<path style="fill-rule:evenodd;clip-rule:evenodd;fill:#010101;" d="M242.5,163.8c1.2-1.9,2.1-3.9,3.6-5.6c0.8-0.9,1.8-1,1.8,0.3
		c0.1,1.7,0.9,1.3,1.8,1.1c0.7-0.1,1.4-0.6,2.1,0.2c0.8,1-0.1,1.5-0.4,2.2c-0.2,0.4-0.4,0.9-0.7,1.3c-1.7,3-1.7,3,1.5,4.6
		c1.4,0.7,2.8,1.5,4.2,2.3c0.2,0.1,0.4,0.4,0.4,0.5c-3.6,1.4-6.4,0.1-8.9-2.3c-0.7-0.7-1-0.1-1.5,0.2c-1.4,0.9-2.6,2.3-4.2,2.9
		c-0.9,0.3-0.5-0.3-0.4-0.6c0.3-1.5,1.6-2.4,2.3-3.6c0.2-0.3,0.4-0.6,0.3-1c-0.1-0.3-0.4-0.3-0.7-0.2c-0.6,0.2-1.3,0.8-1.8-0.1
		C241.5,165.2,241.9,164.4,242.5,163.8z"/>
	<path style="fill-rule:evenodd;clip-rule:evenodd;fill:#010101;" d="M226.5,179.1c-1.1-0.3-2.6,1.1-3.6-0.5c-1.5-2.1-2.2-4.5-2-7.1
		c0.1-0.8,0.5-1.2,1.5-0.9c2.4,0.7,4.7-0.1,6.9-0.5c1-0.2,1.7,0,2.4,0.6c0.7,0.6,0.6,1.3,0.3,2.1c-0.4,1.5-1.6,2.9-0.9,4.7
		c0.2,0.6-0.5,1.2-1.3,1.3C228.8,178.9,227.8,179,226.5,179.1z"/>
	<path style="fill-rule:evenodd;clip-rule:evenodd;fill:#020202;" d="M241.3,170.9c-0.8-0.3-1.5-0.1-2.1,0.3c-1,0.6-2,1.1-3,1.6
		c-0.7,0.3-1.3,0.4-1.9-0.2c-0.7-0.7-0.2-1.3,0.2-1.8c0.8-1.1,1.5-2.2,2.2-3.2c-0.2-0.6-0.7-0.5-1.1-0.6c-0.7-0.3-1.7-0.2-1.9-1.3
		c-0.1-1,0.8-1.1,1.3-1.6c0.7-0.7,1-1.8,1.5-2.7c0.6-1,1.2-2.1,1.8-3c0.4-0.6,0.9-1.2,1.7-0.7c0.7,0.4,0.7,1.2,0.5,1.9
		c-0.4,1.2-1.4,1.9-2,2.9c-0.5,0.8-2,1.7-1,2.5c1,0.7,1.2-1.1,1.8-1.7c0.6-0.6,1-1.7,2.1-1.4c0.9,0.3,0.7,1.2,0.7,2
		c-0.3,1.7-1.8,2.6-2.8,3.9c-0.5,0.3-0.6,0.8-0.7,1.4c0.3-0.8,0.6-1.6,1.7-1.4C242.3,169.1,242.4,169.5,241.3,170.9z"/>
	<path style="fill-rule:evenodd;clip-rule:evenodd;fill:#020202;" d="M224.4,166c1.3-0.3,2.7-0.7,4-0.9c0.9-0.2,0.7-0.6,0.5-1.2
		c-0.2-0.5,0.1-1,0.6-1.2c0.4-0.2,1-0.2,1.4,0.2c1.2,1.1,1.9,2.5,1.6,4.1c-0.2,1-0.9,2.3-2.3,1c-0.7-0.7-1.3-0.3-1.9-0.2
		c-1.9,0.4-3.8,0.8-5.7,1.3c-1,0.3-1.7,0-2.3-0.9c-0.6-1,0.2-1.3,0.7-1.9c2-2.2,3.1-4.9,4.8-7.3c0.4-0.6,0.7-1.9,1.8-1.2
		c0.9,0.6,1.5,1.7,0.6,2.9c-1.3,1.7-2.6,3.4-3.9,5.1C224.2,165.7,224.3,165.9,224.4,166z"/>
	<path style="fill-rule:evenodd;clip-rule:evenodd;fill:#040404;" d="M175.4,168.8c0,3.4,0,6.7,0,10.1c0,1.1-0.3,1.5-1.4,1.4
		c-1.4-0.1-2.8,0-4.2,0c-0.7,0-1.2,0.1-1.2-0.9c0-0.9,0.5-0.8,1.1-0.8c1.2-0.1,2.8,0.6,3.4-0.3c0.6-0.9,0.3-2.4,0.3-3.6
		c0-5.2,0-10.5,0-15.7c0-0.8-0.3-1.7,1.1-1.7c1.4,0,0.9,1,0.9,1.6C175.4,162.1,175.4,165.4,175.4,168.8z"/>
	<path style="fill-rule:evenodd;clip-rule:evenodd;fill:#F9F9F9;" d="M264.4,161.8c0.3-0.3,0.8-0.8,1-0.7c3.1,1.4,5.8-0.6,8.6-1.2
		c0,0.2,0,0.3,0.1,0.5c-1.2,0.3-0.8,1.3-0.7,2.1c0.1,0.8,0.3,1.6,0.1,2.5c-0.1,0.7-0.7,0.6-1.1,0.6c-0.6,0-0.7-0.3-0.5-0.8
		c0.1-0.5,0.1-1,0.2-1.5c0.1-0.7-0.2-1.3-0.9-1.4c-0.7,0-0.7,0.7-0.8,1.2c0,0.6-0.1,1.3-0.1,1.9c0,0.6-0.3,0.8-0.9,0.9
		c-0.8,0.1-0.6-0.5-0.7-1c-0.2-0.9,0.7-2.6-0.8-2.5c-1.4,0-0.7,1.7-0.9,2.6c-0.1,0.7,0.1,1.4-1,1.4c-1.4-0.1-0.6-1-0.5-1.5
		c0.1-1,0.7-2.1-1-2.4C264.1,162.2,264.2,162,264.4,161.8z"/>
	<path style="fill-rule:evenodd;clip-rule:evenodd;fill:#F8F8F8;" d="M241.3,170.9c1.2-1.7-0.2-2.3-1.2-3c-0.2-0.2-0.7-0.1-0.9-0.4
		c1-1.3,2-2.5,3-3.8c0.1,0,0.3,0,0.4,0c0,0.8-0.7,1.5-0.3,2.4c0.7,0.2,1.1-0.3,1.4-0.6c0.7-0.6,1.1-0.1,1.6,0.2
		c0.8,0.5,0.1,1-0.2,1.4c-1,1.3-2.1,2.6-3.1,3.8C241.7,171,241.5,170.9,241.3,170.9z"/>
	<path style="fill-rule:evenodd;clip-rule:evenodd;fill:#0D0D0D;" d="M248.2,173.5c-0.9,0-1.6-0.2-2.3-0.8c-0.5-0.4-1.2-0.7-0.9-1.4
		c0.3-0.8,1-1.1,1.9-1c0.7,0.1,1.5,0.4,2.2,0.7c0.7,0.3,1.2,0.8,1.1,1.6C249.9,173.5,249,173.4,248.2,173.5z"/>
	<path style="fill-rule:evenodd;clip-rule:evenodd;fill:#0F0F0F;" d="M242.5,174c0.1,0.8-0.1,1.2-0.8,1.1c-1.1-0.1-1.4-1-1.7-1.9
		c-0.2-0.4,0-0.9,0.6-0.8C241.7,172.5,242.4,173.2,242.5,174z"/>
	<path style="fill-rule:evenodd;clip-rule:evenodd;fill:#F7F7F7;" d="M295.1,164.7c1.2-1.5,2.4-3,3.6-4.6c0.5-0.6,1-1.2,1.7-0.8
		c0.6,0.3,0.2,1,0.1,1.5c-0.4,1.9-1.1,3.4-3.6,2.5c0.1,1,0.4,1.8,0.8,2.5c0.3,0.5,0.5,1.1-0.3,1.3c-0.7,0.2-1.1,0.2-0.9-0.9
		c0.1-0.7-0.7-1-1.5-1.1c-0.1-0.1-0.2-0.2-0.1-0.3C295,164.7,295,164.7,295.1,164.7z"/>
	<path style="fill-rule:evenodd;clip-rule:evenodd;fill:#F5F5F5;" d="M293.1,171.1c0-1.9,1.4-2.8,3.2-1.9c0.3,0.1,0.7,0.2,1,0.1
		c0.8-0.1,0.8,0.3,0.7,0.9c0,0.4,0.2,1-0.5,1.2c-1.2,0.3-2.4,0.5-3.6,0.8C292.9,172.3,293.1,171.6,293.1,171.1z"/>
	<path style="fill-rule:evenodd;clip-rule:evenodd;fill:#FFFFFF;" d="M290.4,167.8c-0.5,0.5,1.4,2.3-1,2.3c-0.4,0-0.9,0.3-1-0.3
		c-0.1-0.4-0.1-1,0.3-1.2c1.4-0.7,1.5-1.4,0.2-2.2c-0.7-0.5-0.2-1.1-0.2-1.7c0-0.5,0.6-0.5,1-0.5c0.9,0.1,0.7,0.9,0.7,1.5
		C290.4,166.3,290.4,166.9,290.4,167.8z"/>
	<path style="fill-rule:evenodd;clip-rule:evenodd;fill:#F2F2F2;" d="M284.4,168.4c0.9,0.8,2.1,0.8,1.8,2.1c-0.2,0.7-0.9,1-1.2,0.7
		C283.9,170.7,284.8,169.6,284.4,168.4z"/>
	<path style="fill-rule:evenodd;clip-rule:evenodd;fill:#FFFFFF;" d="M295.1,164.7c0,0.1,0,0.3,0,0.4c-0.5,1.2-1.1,2.3-1.8,3.7
		C292.4,166.5,294,165.7,295.1,164.7z"/>
	<path style="fill-rule:evenodd;clip-rule:evenodd;fill:#DDDDDD;" d="M285,167.5c-0.6,0-0.4-0.5-0.4-0.9c0-0.9,0.5-1.2,1.3-1.2
		c0.6,0,0.5,0.5,0.5,0.9C286.5,167.2,285.7,167.2,285,167.5z"/>
	<path style="fill-rule:evenodd;clip-rule:evenodd;fill:#FFFFFF;" d="M127.2,167.2c-0.4,1.6-1,2.5-2.3,2.5c-0.9,0-0.6-0.9-0.5-1.3
		C124.8,166.8,126.1,167.5,127.2,167.2z"/>
	<path style="fill-rule:evenodd;clip-rule:evenodd;fill:#FFFFFF;" d="M121.7,169.2c0.1,1.2-0.9,1-1.6,1.2c-0.7,0.3-1.1-0.3-1-0.9
		c0.1-1,1.2-0.8,1.8-1C121.6,168.2,121.7,168.7,121.7,169.2z"/>
	<path style="fill-rule:evenodd;clip-rule:evenodd;fill:#F3F3F3;" d="M147.5,162.8c1.2,0.5,1.2,1.4,0.8,2.4
		c-0.3,0.8-0.5,1.6-0.7,2.4c-0.2,0.9-1.3,0.3-1.6,1l0.1,0.1l-0.1,0.1c-0.1,0.1-0.3,0.1-0.4,0c-0.6-0.7-1.5-0.6-2.3-1.3
		c-1.3-1.3-1.2,0.6-1.7,1.3c-0.5,0.3-0.9,0.3-0.8-0.5c0.1-1.4,1.8-1.9,1.7-3.4c0-0.4,0.5-0.4,0.8-0.4c0.7,0,0.4,0.6,0.4,0.9
		c0.2,1.8,1.2,2.6,2.6,2c0.3-0.1,0.7-0.3,0.7-0.7c0-0.5-0.4-0.5-0.7-0.5c-0.8,0.1-1.2-0.2-1.2-1c0-0.8,0.4-1.1,1.2-1.1
		C147.5,164.3,147,163.1,147.5,162.8C147.6,162.8,147.5,162.8,147.5,162.8z"/>
	<path style="fill-rule:evenodd;clip-rule:evenodd;fill:#E4E4E4;" d="M145.7,168.8c0.1,0,0.3,0,0.4,0c0.7,0.6,1.4,1.4,0.7,2.2
		c-0.6,0.8-1.8,0.3-2.7,0.6c-0.3,0.1-0.5-0.9,0.2-1.2C145,170.1,145.7,169.8,145.7,168.8z"/>
	<path style="fill-rule:evenodd;clip-rule:evenodd;fill:#E4E4E4;" d="M146.1,168.6c0.2-0.9,1.1-0.6,1.6-1
		C147.6,168.7,146.4,167.9,146.1,168.6z"/>
	<path style="fill-rule:evenodd;clip-rule:evenodd;fill:#FFFFFF;" d="M273.2,169c-0.1,1,0,2-1.3,2c-1,0-0.7-0.6-0.6-1.1
		c0.1-0.8-0.2-1.9,1.2-2C273.7,167.7,273,168.6,273.2,169z"/>
	<path style="fill-rule:evenodd;clip-rule:evenodd;fill:#FFFFFF;" d="M268.2,170.1c0-0.8-0.3-1.8,1-1.9c1.2,0,0.6,0.9,0.7,1.5
		c0,0.7,0.4,1.7-1,1.8C267.5,171.5,268.4,170.5,268.2,170.1z"/>
	<path style="fill-rule:evenodd;clip-rule:evenodd;fill:#FFFFFF;" d="M266.5,170.3c0.1,0.9,0.1,1.7-1,1.7c-1.3,0-0.5-1-0.7-1.5
		c-0.2-0.8-0.1-1.6,1.1-1.6C267.2,168.9,266.3,169.9,266.5,170.3z"/>
	<path style="fill-rule:evenodd;clip-rule:evenodd;fill:#F1F1F1;" d="M216.1,168.2c-0.4,1.3-0.6,2.1-0.8,2.9
		c-0.2,0.6-0.2,1.5-1.3,1.1c-1-0.3-0.9-1-0.8-1.8C213.4,168.8,214.8,168.9,216.1,168.2z"/>
	<path style="fill-rule:evenodd;clip-rule:evenodd;fill:#FCFCFC;" d="M201.4,166.1c0-0.8,0-1.7,0-2.5c0-1.1,2.2-2.8,3.3-2.7
		c0.7,0.1,0.6,0.5,0.6,0.9c-0.1,2.2-0.2,4.3-0.5,6.4c-0.2,1.4-1.1,2-2.5,1.9c-1.6-0.2-0.6-1.4-0.8-2.1
		C201.2,167.4,201.4,166.8,201.4,166.1z"/>
	<path style="fill-rule:evenodd;clip-rule:evenodd;fill:#F4F4F4;" d="M190.7,174c0.2-1.6,1.4-1.8,2.6-2.1c0.8-0.2,0.7,0.5,0.6,0.9
		c-0.1,1.5-0.6,2.9-2.3,3C190.2,175.9,191.3,174.4,190.7,174z"/>
	<path style="fill-rule:evenodd;clip-rule:evenodd;fill:#F9F9F9;" d="M228.7,172.5c-0.6,3.3-1.1,3.9-3.1,4c-1.6,0.1-1.3-1.1-1.6-1.9
		c-0.4-1.1,0.5-1,1.1-1.2C226.2,173.1,227.4,172.8,228.7,172.5z"/>
	<path style="fill-rule:evenodd;clip-rule:evenodd;fill:#FFFFFF;" d="M239.2,167.6c0.3,0.1,0.6,0.3,0.9,0.4
		c-0.3,0.1-0.5,0.1-0.8,0.2c0.4,1.7-0.8,1.7-2.2,2C237.9,169.1,238.3,168.2,239.2,167.6z"/>
	<path style="fill-rule:evenodd;clip-rule:evenodd;fill:#121212;" d="M102.7,160.8c-0.3-0.3-0.6-0.6-0.9-0.9c0.9-1,1.9-2,3.2-2.7
		c0.8-0.5,1.5-0.2,1.9,0.6c0.3,0.9-0.5,0.9-1,1.2C104.7,159.7,103.1,159.2,102.7,160.8z"/>
	<path style="fill-rule:evenodd;clip-rule:evenodd;fill:#010101;" d="M93.4,164.9c1.6-1.3,2.1-3.2,3.1-4.7c-0.4-0.5-0.7-0.3-0.9-0.2
		c-0.6,0.2-1.2,0.6-1.7,0c-0.2-0.3-0.4-0.8-0.3-1.1c0.2-0.8,1-0.5,1.6-0.5c0.8,0,1.7,0,2.4-0.3c0.7-0.3,1.7-0.2,1.8,0.4
		c0.3,1.3,1.4,1.2,2.2,1.6c0.8-0.3,0.5,0.7,0.9,0.9c1.7,2.4,3,0.7,4.4-0.5c0.4-0.3,0.6-1,1.3-0.7c0.5,0.2,0.9,0.7,0.9,1.3
		c0.1,0.8-0.5,1.1-1.1,1.4c-0.8,0.4-1.5,0.7-2.3,1.1c2,1.8,4.5,2.4,6.5,3.9c0.4,0.3,1.3,0.4,1,1.1c-0.3,0.7-1,0-1.5,0.2
		c-4.3,1.1-6.5-2-9.1-4.3c-1.9,2.3-5,2.7-6.5,0.7c-2.3,2.8-4.3,5.8-8.1,7.8C89.9,169.6,92.3,167.7,93.4,164.9L93.4,164.9z"/>
	<path style="fill-rule:evenodd;clip-rule:evenodd;fill:#050505;" d="M73.2,168.9c0-3.4,0-6.7,0-10.1c0-1.1,0.3-1.5,1.4-1.4
		c1.4,0.1,2.8,0,4.2,0c0.6,0,1.2-0.1,1.2,0.9c0,0.8-0.5,0.8-1.1,0.9c-1.2,0.1-2.7-0.5-3.4,0.3c-0.8,1-0.3,2.5-0.3,3.8
		c0,5.2,0,10.3,0,15.5c0,0.7,0.4,1.7-1.1,1.7c-1.4,0-0.9-1-0.9-1.6C73.2,175.6,73.2,172.3,73.2,168.9z"/>
	<path style="fill-rule:evenodd;clip-rule:evenodd;fill:#020202;" d="M103,173c2.3,0.7,2.3,0.7,0.2,4.4c1.1,0,2.1-0.1,3,0
		c1.1,0.1,2,0.7,1.9,1.8c-0.1,1.1-1,1-1.9,1c-3.5-0.2-7-0.1-10.4,0.6c-1.2,0.2-2-0.1-2.3-1.2c-0.4-1.4,0.9-1.1,1.6-1.2
		c1-0.1,1.4-0.4,0.8-1.4c-0.4-0.7-0.6-1.6-0.4-2.4c1.2-0.4,1.8,0.2,2.3,1.1c1.1,1.9,2.3,1.9,3.5,0C101.9,174.8,101.9,173.5,103,173z
		"/>
	<path style="fill-rule:evenodd;clip-rule:evenodd;fill:#030303;" d="M96.3,173.9c-0.8-1.2-1.5-2.5-1.8-3.9
		c-0.2-1.1-0.5-2.1,1.6-1.9c1.7,0.2,3.5-0.5,5.3-1c1.4-0.4,2.7-0.2,3.5,1.1c0.8,1.2-0.5,1.8-0.9,2.7c-0.2,0.6-0.6,1.1-0.9,1.6
		c-1.5,1.5-3.7,1.5-5.5,2.1C97,174.7,96.6,174.3,96.3,173.9z"/>
	<path style="fill-rule:evenodd;clip-rule:evenodd;fill:#FFFFFF;" d="M96.3,173.9c0.6,0.5,1.1,0.3,1.8,0c1.6-0.6,3.2-1,4.9-1.4
		c0,0.2,0,0.3,0,0.5c-0.4,1-0.9,2-1.2,3c-0.5,1.6-1.7,1.8-3,1.8c-1.4,0-1.1-1.1-1.4-1.9c-0.3-0.9-0.8-1.6-1.9-1.3
		C95.7,174.4,96,174.1,96.3,173.9z"/>
	<path style="fill-rule:evenodd;clip-rule:evenodd;fill:#181818;" d="M93.5,164.9c-0.5,0.1-1,1-1.5,0.1c-0.5-0.8-1.7-1.1-1.6-2.3
		c0-0.4,0.3-0.6,0.7-0.7c0.5-0.1,1.1,0,1.5,0.5C93.2,163.2,93.4,164,93.5,164.9C93.4,164.9,93.5,164.9,93.5,164.9z"/>
	<path style="fill-rule:evenodd;clip-rule:evenodd;fill:#FFFFFF;" d="M96.8,164.2c1-1.6,1.8-2.7,2.7-4.1c0.2,1.5,1.7,1.8,2.3,3.1
		C100.2,163.5,98.8,163.8,96.8,164.2z"/>
	<path style="fill-rule:evenodd;clip-rule:evenodd;fill:#FFFFFF;" d="M102.1,168.8c-0.4,2.1-1.9,2.5-3.5,2.9c-0.7,0.2-1-0.2-1.2-0.8
		c-0.3-0.7,0.2-0.8,0.7-1C99.4,169.6,100.7,169.2,102.1,168.8z"/>
</g>
</svg>
