<?xml version="1.0" encoding="utf-8"?>
<!-- Generator: Adobe Illustrator 18.0.0, SVG Export Plug-In . SVG Version: 6.00 Build 0)  -->
<!DOCTYPE svg PUBLIC "-//W3C//DTD SVG 1.1//EN" "http://www.w3.org/Graphics/SVG/1.1/DTD/svg11.dtd">
<svg version="1.1" id="圖層_1" xmlns="http://www.w3.org/2000/svg" xmlns:xlink="http://www.w3.org/1999/xlink" x="0px" y="0px"
	 viewBox="0 0 813.345 174.172" style="enable-background:new 0 0 813.345 174.172;" xml:space="preserve">
<g>
	<path style="fill-rule:evenodd;clip-rule:evenodd;fill:#010101;" d="M217.165,64.652c0.036,0.675,0.179,1.467-0.692,1.679
		c-0.79,0.193-0.716,0.705-0.631,1.229c0.137,0.86,0.825,0.466,1.291,0.479c0.879,0.025,1.77-0.119,2.632-0.015
		c0.848,0.104,1.584,0.592,1.511,1.574c-0.074,0.994-0.841,1.086-1.66,0.957c-0.199-0.029-0.402-0.035-0.605-0.045
		c-3.107-0.146-3.256-0.138-3.09,2.877c0.103,1.885-1.026,2.932-2.048,4.282c-0.671-1.823-0.45-3.652-0.411-5.44
		c0.026-1.232-0.383-1.558-1.511-1.248c-0.843,0.23-1.702,0.396-2.554,0.598c-0.939,0.222-1.597-0.212-2.002-0.986
		c-0.402-0.764,0.115-1.115,0.782-1.279c0.463-0.115,0.382-0.462,0.427-0.784c0.082-0.608,0.168-1.364,0.897-1.401
		c1.016-0.051,0.393,0.914,0.644,1.303c0.643,0.996,1.515,0.097,2.287,0.077c0.49-0.014,1.068,0.022,1.046-0.843
		c-0.028-1.093-0.714-0.66-1.251-0.686c-0.329-0.014-0.853-0.013-0.949-0.196c-1.078-2.026-2.06-0.464-3.065,0.042
		c-1.021,0.515-2.071,0.98-3.052,1.567c-0.928,0.557-1.607,0.418-2.171-0.859c0,2.649-0.034,4.906,0.016,7.159
		c0.02,0.863,0.099,1.803-0.971,1.876c-0.974,0.069-1.097-0.987-1.113-1.64c-0.157-6.15-0.237-12.304,0.657-18.415
		c0.215-1.462,0.8-2.281,2.123-0.71c0.632,0.75,1.319,0.407,1.956,0.014c0.81-0.502,1.694-0.795,2.378-0.012
		c0.718,0.82-0.184,1.475-0.547,2.144c-0.258,0.472-0.574,0.915-0.908,1.337c-0.689,0.863-1.447,1.443,0.071,2.518
		c1.207,0.854,0.926,2.66,0.761,4.453c1.551-1.658,2.893-3.077,4.208-4.518c0.305-0.332,0.861-0.709,0.562-1.178
		c-0.202-0.314-0.785-0.429-1.22-0.54c-0.971-0.247-2.412,0.579-2.836-0.807c-0.395-1.3,1.345-1.234,1.868-2.069
		c0.417-0.67,1.077-1.216,1.705-1.724c0.838-0.675,1.707-2.597,2.648,0c0.236,0.655,1.009,0.192,1.433-0.012
		c0.896-0.434,1.571-0.231,2.127,0.498c0.585,0.771-0.11,1.239-0.502,1.737c-2.095,2.672-2.113,2.697,1.018,4.048
		c1.42,0.611,2.911,1.06,4.354,1.62c0.352,0.137,0.869,0.273,0.837,0.76c-0.036,0.57-0.635,0.297-0.913,0.459
		c-1.877,1.096-3.724,0.292-5.581,0.017c-0.405-0.395-0.97-0.488-1.44-0.763c-1.06-0.888-2.091-1.332-3.052,0.314
		c0.954-0.66,1.851-1.359,2.884-0.372C216.065,64.031,216.68,64.227,217.165,64.652z"/>
	<path style="fill-rule:evenodd;clip-rule:evenodd;fill:#010101;" d="M481.056,68.585c-0.104,1.892-0.134,3.775,0.316,5.644
		c0.139,0.582,0.202,1.356-0.537,1.561c-0.878,0.24-1.219-0.589-1.35-1.195c-0.673-3.139-0.782-6.305-0.066-9.457
		c0.263-1.152,0.829-1.928,2.292-0.994c-0.574-1.229-0.142-2.895-2.157-3.029c-0.547-0.037-0.972-0.805-0.919-1.43
		c0.066-0.771,0.811-0.488,1.285-0.58c0.53-0.102,1.069-0.165,1.605-0.216c2.118-0.202,2.125-0.204,0.939-2.054
		c-0.192-0.302-0.368-0.594-0.218-0.929c0.223-0.491,0.689-0.363,1.056-0.271c0.726,0.181,1.666,0.402,1.814,1.13
		c0.321,1.567,1.139,1.207,2.141,0.858c0.891-0.312,2.034-0.674,2.378,0.581c0.355,1.294-1.248,0.851-1.725,1.488
		c-1.122,0.584-2.236,1.182-3.494,1.447c-0.47,0.099-0.902,0.303-0.9,0.9c0,0.203,0.044,0.443,0.224,0.523
		c0.612,0.274,0.813-0.296,1.081-0.623c0.822-0.997,1.721-1.843,3.09-1.962c2.007,2.429-1.025,2.085-1.748,3.239
		c0.961,0.459,2.461-0.589,3.06,0.881c1.442,1.071,3.304,1.564,4.518,3.607c0.141-1.942,0.977-3.477-0.724-4.742
		c-0.503-0.371-0.46-0.955,0.217-1.282c0.964-0.61,1.917-1.238,2.895-1.821c0.634-0.376,1.264-0.746,2.082-0.39
		c0.661,0.289,1.252,0.644,1.346,1.37c0.097,0.781-0.666,1.09-1.178,1.16c-1.616,0.213-1.629,1.37-1.932,2.578
		c-0.977,3.902-0.838,7.301,3.219,9.514c0.762,0.416,1.384,1.26,1.629,2.233c-2.782,0.527-4.755-0.78-6.483-2.678
		c-0.366-0.401-0.73-0.824-1.376-0.503c-1.779,0.889-4.123,0.471-5.367,2.689c-0.703,1.255-1.831,1.455-2.34-0.408
		c-0.098-0.355-0.415-0.652-0.775-1.193c2.091,0.476,2.66-0.473,2.628-2.146c-0.046-2.095,0.007-4.191-0.028-6.286
		c-0.007-0.473,0.205-1.191-0.635-1.237c-0.532-0.029-1.244-0.035-1.462,0.473c-0.235,0.549,0.065,1.009,0.733,1.354
		c1.254,0.647,0.68,1.168-0.284,1.523c-0.554,0.207-1.298,0.291-1.172,1.122c0.117,0.761,0.772,0.177,1.146,0.337
		c1.742,0.742,0.566,2.073,0.376,2.952c-0.322,1.474-2.143,1.241-3.217,1.718c-0.701,0.312-0.903-1.553-1.058-2.491
		c-0.172-1.017-0.089-2.108,1.691-2.185c-0.788-0.366-1.29-0.6-1.793-0.832c-0.268-0.176-0.349-0.436-0.331-0.739
		c0.116-0.828,1.142-0.839,1.51-1.628c-0.732-0.208-1.028,0.203-1.315,0.631C481.296,67.311,481.519,68.08,481.056,68.585z"/>
	<path style="fill-rule:evenodd;clip-rule:evenodd;fill:#010101;" d="M142.371,58.088c0.666-0.074,1.365-0.043,1.993-0.239
		c2.182-0.675,3.409-0.112,3.508,2.216c0.207,4.846,0.702,9.706,0.105,14.562c-0.131,1.062-3.163,3.419-4.163,3.296
		c-0.48-0.059-0.697-0.413-0.734-0.836c-0.131-1.563-1.072-1.571-2.284-1.315c-1.185,0.251-2.418,0.284-3.601,0.546
		c-1.859,0.412-2.733-0.543-2.94-2.156c-0.589-4.573-0.664-9.168-0.046-13.742c0.143-1.06,0.211-2.651,2.149-1.924
		c0.529,0.197,0.667-0.287,0.907-0.577c0.604-0.727,1.145-1.521,1.826-2.161c0.494-0.464,0.527-1.562,1.561-1.315
		c0.707,0.17,1.14,0.717,1.315,1.411c0.267,1.034-0.493,1.417-1.216,1.807C141.007,58.871,141.782,58.121,142.371,58.088z"/>
	<path style="fill-rule:evenodd;clip-rule:evenodd;fill:#010101;" d="M392.81,65.842c3.14-0.463,6.061-0.812,8.973-1.25
		c1.814-0.271,2.606,0.152,2.374,2.019c-0.304,2.46-0.054,5.292-3.268,6.319c-0.8,0.254-1.37,0.53-1.52-0.668
		c-0.228-1.824-0.868-0.447-1.234,0.037c-0.222-0.245-0.327-0.318-0.37-0.416c-0.292-0.666,0.57-1.759-0.229-2.006
		c-1.663-0.517-0.454,1.755-1.659,1.93c-0.732-0.369-0.357-1.713-1.555-1.852c-0.351-0.039-0.603-0.788,0.123-1.025
		c0.595-0.195,0.979-0.461,0.775-1.149c-0.068-0.229-0.241-0.248-0.445-0.137c-0.566,0.314-1.568,0.278-1.61,1.007
		c-0.088,1.485,0.972,2.891,0.487,4.479c-0.015,0.047,1.011,0.502,1.582,0.624c3.203,0.685,6.467,0.41,9.707,0.527
		c0.402,0.014,0.812-0.01,1.215,0.012c0.322,0.015,0.723-0.041,0.799,0.408c0.068,0.41-0.267,0.537-0.564,0.713
		c-5.299,3.141-10.51,1.794-15.607-0.454c-1.588-0.7-3.075-0.843-4.703-0.63c-0.691,0.09-1.438,0.151-1.565-0.789
		c-0.137-0.98,0.528-1.412,1.354-1.333c2.735,0.259,3.581-1.384,4.244-3.651c0.62-2.119,1.727-4.091,2.566-6.148
		c0.286-0.702,0.741-1.393,0.078-2.236c-0.642-0.82,0.261-1.073,0.767-1.212c2.135-0.587,4.291-1.102,6.443-1.614
		c0.677-0.162,1.184,0.254,1.578,0.713c0.533,0.62-0.033,1.1-0.303,1.629c-1.6,3.165-4.236,4.885-7.646,5.574
		C393.308,65.319,393.072,65.643,392.81,65.842z"/>
	<path style="fill-rule:evenodd;clip-rule:evenodd;" d="M635.009,58.552c0.455-0.208,0.814-0.503,1.183-0.517
		c0.896-0.03,1.789,0.184,2.164,1.118c0.404,1.009-0.319,1.591-1.101,1.845c-1.804,0.586-3.03,1.435-2.27,3.637
		c0.436,0.271,0.823-0.212,1.271-0.193c0.854,0.03,1.438,0.485,1.576,1.291c0.148,0.853-0.103,1.52-1.093,1.854
		c-1.775,0.599-2.349,1.867-1.979,3.734c0.13,0.66,0.454,0.695,0.97,0.685c1.014-0.022,2.034-0.075,3.038,0.017
		c1.2,0.109,2.134,0.84,2.134,2.03c0,1.374-1.139,1.378-2.236,1.331c-3.11-0.139-6.222-0.219-9.304,0.392
		c-0.67,0.135-1.354,0.223-1.985-0.122c-0.758-0.414-1.293-1.076-1.27-1.935c0.03-0.974,0.958-0.745,1.56-0.878
		c0.721-0.16,1.459-0.264,2.195-0.349c1.854-0.214,2.426-1.124,2.039-2.993c-0.164-0.795-0.589-0.515-1.021-0.493
		c-1.202,0.056-1.963-0.583-2.156-1.694c-0.248-1.422,1.045-1.078,1.775-1.332c0.749-0.26,1.533-0.311,1.475-1.504
		c-0.048-0.971-0.764-1.023-1.197-1.499c-2.304-2.534-3.974-0.401-5.857,0.45c-0.784,0.354-1.575,0.812-2.748,0.473
		c1.201-2.331,3.454-3.575,5.071-5.377c0.542-0.601,1.186,0.105,1.435,0.619c0.626,1.281,1.503,0.649,2.404,0.51
		c1.153-0.175,0.888-1.006,0.901-1.682c0.022-1.081-0.018-2.164-0.081-3.244c-0.031-0.547-0.151-1.058,0.436-1.428
		c0.658-0.418,1.202-0.107,1.66,0.269c0.931,0.767,1.542,1.705,1.155,3.008C634.983,57.155,634.76,57.734,635.009,58.552z"/>
	<path style="fill-rule:evenodd;clip-rule:evenodd;fill:#010101;" d="M417.955,62.535c1.465-0.37,2.562-0.734,3.688-0.91
		c1.242-0.195,2.19,0.52,2.459,1.627c0.307,1.258-0.951,1.254-1.735,1.481c-1.152,0.332-2.336,0.561-3.717,0.88
		c2.015,2.75,4.311,4.848,7.017,6.492c1.443,0.877,2.855,1.788,4.145,2.883c0.276,0.238,0.457,0.49,0.411,0.857
		c-0.042,0.322-0.283,0.477-0.566,0.437c-2.786-0.419-5.798,0.036-7.962-2.559c-1.207-1.449-2.501-2.831-3.631-4.351
		c-0.438-0.59-0.918-1.152-1.404-1.755c-3.535,5.546-5.018,6.996-8.649,8.244c2.071-2.95,4.878-5.01,5.959-8.223
		c-0.433-0.521-0.933-0.136-1.359-0.252c-1.056-0.287-1.894-0.875-1.98-2.005c-0.092-1.159,1.083-0.915,1.707-1.305
		c1.123-0.699,3.189,0.092,3.339-2.181c0.079-1.212,0.759-2.443-1.296-2.767c-0.887-0.139-1.623-1.253-1.506-2.184
		c0.125-0.975,1.311-0.702,2.049-0.892c1.633-0.417,3.279-0.767,4.917-1.16c1.18-0.284,2.241-0.095,2.647,1.142
		c0.438,1.335-0.529,1.886-1.635,1.984C417.999,58.279,418.457,60.523,417.955,62.535z"/>
	<path style="fill-rule:evenodd;clip-rule:evenodd;fill:#010101;" d="M509.395,75.312c2.689-0.019,2.79-0.123,2.866-2.78
		c0.007-0.27,0.016-0.541,0.024-0.812c0.098-4.292,0.098-4.292-4.027-2.625c-0.937,0.379-1.859,0.791-2.812,1.123
		c-1.31,0.456-2.139-0.249-2.512-1.373c-0.455-1.361,0.828-1.254,1.562-1.521c2.164-0.785,4.398-1.338,6.675-1.618
		c1.218-0.147,1.097-0.87,1.126-1.702c0.048-1.204-0.7-0.845-1.336-0.755c-0.905,0.13-1.766,0.186-2.182-0.904
		c-0.368-0.972-0.402-1.738,0.913-1.882c1.12-0.122,2.202-0.191,2.697-1.564c0.167-0.458,1.028-0.744,1.577-0.162
		c0.529,0.562,1.086,0.671,1.81,0.506c0.718-0.162,1.406-0.054,1.515,0.861c0.09,0.792-0.147,1.463-0.96,1.815
		c-0.684,0.297-1.605,0.223-1.543,1.474c0.06,1.197,0.308,1.844,1.635,1.414c1.553-0.502,3.218-0.138,4.786-0.721
		c0.964-0.357,1.777,0.395,2.466,1.012c0.362,0.324,0.356,0.803,0.097,1.301c-0.363,0.697-0.913,0.705-1.545,0.599
		c-1.963-0.33-3.89-0.069-5.839,0.212c-1.005,0.146-1.357,0.421-1.286,1.474c0.113,1.685,0.071,3.382,0.051,5.073
		c-0.027,2.154-1.408,3.969-3.439,4.061C510.279,77.879,510.233,76.22,509.395,75.312z"/>
	<path style="fill-rule:evenodd;clip-rule:evenodd;fill:#010101;" d="M582.826,63.618c1.027-0.058,1.431-0.618,1.609-1.625
		c0.46-2.593,1.3-5.081,2.474-7.442c0.308-0.615,0.489-1.557,1.536-1.182c0.959,0.345,0.96,1.171,0.877,2.021
		c-0.165,1.676-1.178,2.984-1.867,4.434c-0.109,0.23-0.156,0.488-0.292,0.925c1.789-0.372,3.358-0.946,4.778-1.792
		c0.988-0.588,1.758-0.438,2.229,0.409c0.628,1.128-0.47,1.425-1.187,1.593c-1.595,0.372-2.133,1.469-2.326,2.902
		c-0.073,0.535-0.143,1.07-0.234,1.603c-0.726,4.239-0.719,4.226,3.046,6.503c0.917,0.557,1.776,1.216,2.637,1.859
		c0.264,0.199,0.482,0.522,0.302,0.874c-0.068,0.132-0.341,0.23-0.516,0.225c-2.502-0.082-5.055,0.022-6.91-2.175
		c-0.31-0.365-0.691-0.911-1.36-0.513c-2.397,1.434-5.032,1.257-7.66,1.112c-0.177-0.833,0.458-1.024,1.016-1.239
		c0.562-0.218,1.181-0.301,1.724-0.558c0.985-0.464,2.65-0.354,2.693-1.687c0.042-1.268-0.678-2.573-1.839-3.436
		c-0.64-0.474-1.384-0.887-1.412-1.838c-0.011-0.358,0.14-0.646,0.413-0.873C582.646,63.686,582.736,63.653,582.826,63.618z"/>
	<path style="fill-rule:evenodd;clip-rule:evenodd;fill:#010101;" d="M443.727,58.027c0.978,0.938,0.759,1.872,0.438,2.851
		c-0.32,0.976-0.205,1.591,1.103,1.729c1.036,0.109,2.061,0.609,3.024,1.075c1.315,0.635,1.434,1.89,0.779,2.911
		c-0.703,1.096-1.574,0.101-2.223-0.354c-0.823-0.572-1.567-1.249-2.6-1.475c0,2.702-0.011,5.359,0.008,8.018
		c0.004,0.606,0.082,1.216,0.162,1.817c0.18,1.296-0.811,2.033-1.665,2.165c-1.108,0.168-1.211-1.067-1.2-1.899
		c0.07-4.997-0.251-10.009,0.345-14.985c0.183-1.529-0.214-1.779-1.534-1.269c-1.131,0.437-2.299,0.776-3.43,1.212
		c-0.83,0.322-1.588,0.255-2.299-0.25c-0.667-0.472-1.41-1.002-1.299-1.905c0.125-0.997,1.085-1.126,1.867-1.255
		c3.206-0.525,6.453-0.6,9.693-0.723c1.688-0.063,3.375-0.11,5.064-0.131c0.855-0.011,1.599,0.333,2.066,1.053
		c0.274,0.421,0.145,0.912-0.21,1.299c-0.709,0.774-1.421,0.391-2.204,0.076C447.704,57.229,445.79,57.619,443.727,58.027z"/>
	<path style="fill-rule:evenodd;clip-rule:evenodd;fill:#010101;" d="M258.961,76.455c-0.932-2.244-0.835-4.178-0.838-6.097
		c-0.002-1.013,0.006-2.028-0.003-3.042c-0.022-2.606-0.034-2.633-2.636-1.99c-0.705,0.175-1.403,0.488-2.022,0.87
		c-1.142,0.704-2.202,0.506-3.231-0.146c-0.643-0.405-1.222-0.999-1.174-1.79c0.058-0.969,1.023-1,1.683-1.117
		c1.992-0.353,4.002-0.635,6.016-0.834c1.019-0.103,1.429-0.497,1.376-1.523c-0.064-1.349,0.009-2.707-0.064-4.057
		c-0.057-0.939-0.443-2.133,0.967-2.17c1.258-0.033,1.989,0.971,2.285,2.182c0.045,0.184-0.06,0.396-0.085,0.599
		c-0.591,4.465,0.716,5.578,5.118,4.06c1.763-0.609,2.289,0.596,3.045,1.513c0.314,0.383,0.248,1.033-0.24,1.471
		c-0.469,0.417-0.985,0.541-1.456,0.109c-1.894-1.74-4.017-0.347-6.026-0.469c-0.784-0.047-0.73,0.626-0.736,1.17
		c-0.015,1.76-0.033,3.518-0.04,5.277C260.89,72.549,259.797,74.234,258.961,76.455z"/>
	<path style="fill-rule:evenodd;clip-rule:evenodd;fill:#010101;" d="M562.124,64.015c-1.37,2.746-2.849,5.404-5.708,6.928
		c-0.58-0.882,0.076-1.527,0.442-2.21c0.602-1.127,1.372-2.158,1.899-3.334c-2.284-0.731-2.579-0.549-2.619,1.714
		c-0.029,1.681,0.067,3.37-0.451,5.006c-0.323,1.392-1.057,2.812-2.357,3.032c-1.065,0.182-0.993-1.698-2.046-2.293
		c2.337-0.619,2.503-1.071,2.171-5.766c-0.938,0.746-1.759,1.381-2.559,2.043c-0.463,0.381-0.887,1.002-1.512,0.309
		c-0.562-0.621-0.674-1.387-0.027-1.99c0.786-0.735,1.607-1.485,2.544-1.994c1.535-0.836,2.042-2.004,1.601-3.74
		c-0.492-0.434-1.046,0.256-1.621,0.067c-1.008-0.327-1.619-1.042-1.828-1.994c-0.266-1.215,0.868-0.985,1.479-1.13
		c1.602-0.377,2.52-1.148,2.085-2.936c-0.031-0.127-0.004-0.268-0.006-0.404c-0.008-0.914-0.232-2.197,1.033-2.176
		c1.046,0.019,1.737,1.203,1.629,2.225c-0.095,0.865,0.012,1.178,0.757,1.648c1.026,0.648,0.905,1.65-0.093,2.296
		c-1.179,0.765-1.336,1.728-0.908,3.044c0.632-0.304,1.224-0.586,1.965-0.941c-0.437,1.638,0.539,1.608,1.466,1.279
		c0.927-0.328,1.762-0.641,2.624,0.063C562.783,63.102,562.784,63.131,562.124,64.015z"/>
	<path style="fill-rule:evenodd;clip-rule:evenodd;fill:#010101;" d="M562.124,64.015c-0.144-0.414,0.476-0.851-0.04-1.253
		c0.32-0.828-0.619-1.101-0.756-1.719c-0.111-0.51-0.299-1.106,0.158-1.503c0.584-0.508,1.088-0.237,1.451,0.369
		c0.338,0.173,0.633,0.384,0.65,0.815c1.552,2.099,1.552,2.101,3.522,0.107c0.426-0.432,0.871-0.85,1.263-1.313
		c0.494-0.587,0.951-0.728,1.46-0.038c0.436,0.591,0.415,1.147-0.216,1.56c-1.186,0.772-2.396,1.507-3.71,2.327
		c2.019,2.028,4.651,3.217,6.543,5.306c0.473,0.522,1.093,0.411,1.578-0.173c0.379-0.456,0.803-0.875,1.548-1.678
		c-0.285,1.796-0.39,3.144-0.738,4.425c-0.281,1.034-1.235,0.713-1.496,0.124c-0.72-1.623-1.768-1.859-3.446-1.733
		c-1.117,0.085-2.122-1.065-3.01-1.902c-0.54-0.507-1.024-1.07-1.757-1.842c-0.38,1.87,0.199,3.791-1.366,5.022
		c0.087,1.037,0.748,0.49,1.227,0.445c0.945,0.001,1.908-0.11,2.827,0.037c0.899,0.143,1.724,0.693,1.673,1.729
		c-0.057,1.119-0.977,1.052-1.823,1.039c-2.695-0.045-5.4-0.222-8.062,0.428c-0.922,0.224-1.57-0.176-2.049-0.922
		c-0.523-0.814-0.454-1.385,0.648-1.547c0.864-0.124,1.722-0.297,2.654-0.459c-0.075-0.684-1.406-1.793,0.58-1.705
		c0.463,0.021,0.814-0.764,0.839-1.282C562.354,67.125,563.4,65.523,562.124,64.015z"/>
	<path style="fill-rule:evenodd;clip-rule:evenodd;fill:#010101;" d="M464.813,62.021c2.704-1.016,5.577-1.494,8.248-2.639
		c0.903-0.389,1.807-0.007,2.154,0.938c0.388,1.059-0.481,1.521-1.277,1.667c-1.59,0.293-2.007,1.254-2.012,2.711
		c-0.003,1.006,0.02,2.156-0.438,2.982c-1.063,1.91-0.051,2.821,1.352,3.715c1.536,0.976,3.07,1.959,4.58,2.975
		c0.311,0.209,0.704,0.553,0.549,0.975c-0.186,0.506-0.706,0.13-1.031,0.219c-3.051,0.854-5.109-0.82-7.074-2.713
		c-0.519-0.5-0.867-0.368-1.381-0.014c-2.821,1.943-5.964,2.253-9.411,1.775c0.747-0.903,1.767-0.809,2.598-1.115
		c1.325-0.484,2.725-0.788,4.007-1.358c0.872-0.388,2.101-0.865,2.018-1.971c-0.083-1.124-0.812-2.111-2.095-2.472
		c-0.756-0.211-1.466-0.697-1.146-1.592c0.3-0.834,1.029-0.984,1.834-0.523c0.29,0.168,0.636,0.248,0.914,0.431
		c0.61,0.4,1.196,0.843,1.834,1.295c0.46-0.538,0.483-1.198,0.586-1.833c0.217-1.359,0.176-2.256-1.682-1.527
		c-1.732,0.68-2.633-0.396-3.064-1.978L464.813,62.021z"/>
	<path style="fill-rule:evenodd;clip-rule:evenodd;fill:#010101;" d="M234.173,61.502c2.743-1.109,5.702-1.533,8.421-2.74
		c0.746-0.33,1.664,0.062,2.006,0.94c0.416,1.071-0.409,1.553-1.208,1.702c-1.564,0.291-2.056,1.197-2.06,2.675
		c-0.003,1.007,0.018,2.153-0.431,2.986c-1.078,1.999,0.028,2.931,1.472,3.846c1.424,0.902,2.849,1.805,4.26,2.733
		c0.388,0.254,0.882,0.637,0.75,1.094c-0.189,0.652-0.825,0.107-1.193,0.221c-3.015,0.929-4.958-0.855-6.895-2.646
		c-0.497-0.46-0.835-0.447-1.38-0.066c-2.811,1.968-5.961,2.271-9.43,1.809c0.73-0.918,1.734-0.857,2.558-1.104
		c1.549-0.464,3.149-0.788,4.539-1.652c0.658-0.407,1.635-0.794,1.54-1.668c-0.109-0.994-0.695-1.9-1.712-2.363
		c-0.307-0.139-0.66-0.195-0.936-0.375c-0.539-0.352-0.958-0.826-0.556-1.51c0.354-0.601,0.893-0.756,1.57-0.474
		c1.066,0.44,2.057,0.988,2.888,1.956c0.47-0.664,0.559-1.298,0.646-1.935c0.179-1.309,0.244-2.315-1.662-1.551
		c-1.746,0.7-2.619-0.426-3.119-1.945L234.173,61.502z"/>
	<path style="fill-rule:evenodd;clip-rule:evenodd;fill:#010101;" d="M231.593,65.939c1.171,0.137,1.761,0.877,2.05,1.945
		c0.193,0.709-0.157,1.465-0.685,1.497c-2.561,0.153-4.327,2.075-6.618,2.826c-1.05,0.344-1.765,0.263-2.199-0.638
		c-0.622-1.291,0.726-1.137,1.303-1.485c0.51-0.31,1.1-0.512,1.678-0.685c0.926-0.277,0.84-0.994,0.661-1.626
		c-0.259-0.915-0.914-0.361-1.26-0.114c-0.895,0.639-1.188,0.008-1.525-0.598c-1.208-2.17-1.206-4.521-0.912-6.875
		c0.106-0.846,0.548-1.486,1.689-1.014c1.514,0.626,2.45,0.159,2.433-1.632c-0.004-0.336,0.01-0.69,0.115-1.001
		c0.184-0.543-0.373-1.568,0.759-1.512c0.927,0.049,1.491,0.743,1.379,1.672c-0.212,1.699,0.249,2.028,2.039,1.822
		c2.076-0.242,1.793,1.581,1.673,2.979c0,0,0.065-0.067,0.066-0.067c-0.91,0.756-1.44,1.906-1.509,2.908
		c-0.067,0.957-0.631,1.164-1.083,1.638c-0.443,0.362-0.948,0.667-1.221,1.284C231.146,67.059,231.064,66.229,231.593,65.939z"/>
	<path style="fill-rule:evenodd;clip-rule:evenodd;fill:#010101;" d="M464.875,61.968c-0.963,0.737-1.452,1.921-1.543,2.923
		c-0.084,0.948-0.62,1.182-1.085,1.652c-0.445,0.362-0.95,0.668-1.222,1.285c0.72-0.206,0.64-1.035,1.168-1.324
		c1.174,0.135,1.766,0.881,2.052,1.954c0.19,0.71-0.165,1.456-0.7,1.497c-2.626,0.199-4.454,2.16-6.818,2.92
		c-0.992,0.319-1.631,0.018-2.011-0.781c-0.557-1.166,0.638-1.086,1.184-1.399c0.522-0.298,1.112-0.496,1.694-0.664
		c0.982-0.287,1.037-1.032,0.771-1.753c-0.314-0.857-0.948-0.261-1.305-0.02c-0.795,0.539-1.088,0.038-1.401-0.522
		c-1.245-2.238-1.296-4.66-0.943-7.096c0.132-0.923,0.675-1.289,1.767-0.855c1.349,0.534,2.245,0.114,2.363-1.608
		c0.06-0.862-0.466-2.433,0.784-2.526c1.552-0.113,1.54,1.413,1.441,2.578c-0.073,0.836,0.191,1.039,0.997,0.994
		c2.778-0.154,2.922,0.02,2.742,2.801C464.813,62.021,464.875,61.968,464.875,61.968z"/>
	<path style="fill-rule:evenodd;clip-rule:evenodd;fill:#010101;" d="M158.446,71.473c-1.067,1.516-1.948,2.766-3.019,4.286
		c-0.139-1.726,0.476-2.911,0.992-4.102c1.184-2.721,2.42-5.423,3.033-8.345c0.252-1.197,0.829-1.707,2.101-1.979
		c1.617-0.349,3.21-0.052,4.801-0.159c1.358-0.09,1.185,1.39,0.999,2.514c-0.627,3.83-3.705,4.607-6.717,5.474
		c-0.469,0.136-1.263-0.094-1.087,0.739c0.141,0.658,0.8,0.588,1.359,0.443c1.172-0.304,2.331-0.729,3.521-0.867
		c1.758-0.201,2.462,0.658,2.25,2.413c-0.109,0.9-0.675,1.694-0.232,2.741c0.327,0.771-0.373,1.139-1.203,1.061
		c-1.012-0.094-2.114-0.215-2.99,0.271c-1.928,1.072-2.434-0.16-2.902-1.578C159.059,73.492,158.792,72.588,158.446,71.473z"/>
	<path style="fill-rule:evenodd;clip-rule:evenodd;fill:#020202;" d="M368.227,63.719c0.569-0.254,1.091-0.49,1.604-0.721
		c0.334,0.505,0.197,0.99-0.097,1.192c-2.183,1.505-1.684,3.755-1.711,5.867c-0.017,1.22,0.025,2.44-0.074,3.65
		c-0.078,0.926-0.103,1.942-0.936,2.591c-0.479,0.374-0.716,1.526-1.473,0.983c-0.645-0.464-0.927-1.436-1.347-2.192
		c-0.035-0.062,0.057-0.271,0.14-0.31c2.915-1.373,0.573-3.869,1.109-5.874c-0.809,0.66-1.626,1.308-2.415,1.987
		c-0.51,0.441-0.977,1.093-1.664,0.305c-0.594-0.682-0.799-1.469-0.018-2.141c1.073-0.923,2.224-1.757,3.317-2.659
		c0.497-0.411,1.207-0.692,1.147-1.54c-0.052-0.725,0.354-1.752-1.164-1.242c-0.959,0.32-1.646-0.405-2.18-1.145
		c-0.627-0.865-0.792-1.66,0.591-1.857c2.401-0.342,3.026-1.716,2.634-3.971c-0.166-0.953-0.526-2.328,1-2.666
		c0.927-0.205,1.977,1.596,1.697,2.979c-0.136,0.67-0.365,0.901,0.602,1.101c1.71,0.358,1.909,1.56,0.552,2.701
		C368.66,61.498,367.595,62.076,368.227,63.719z"/>
	<path style="fill-rule:evenodd;clip-rule:evenodd;fill:#010101;" d="M373.228,74.605c2.381,0.581,2.92-0.643,2.912-2.5
		c-0.013-3.039,0.016-6.08,0.03-9.119c0.001-1.117-0.279-1.742-1.534-1.021c-0.4,0.229-0.889,0.363-1.35,0.403
		c-1.195,0.103-1.668-0.814-1.957-1.7c-0.336-1.029,0.566-1.26,1.277-1.408c2.771-0.576,5.552-1.092,8.328-1.641
		c0.717-0.142,1.315,0.25,1.947,0.432c0.744,0.215,0.744,0.901,0.64,1.519c-0.112,0.661-0.658,0.866-1.216,0.761
		c-1.24-0.234-2.661-0.224-3.505,0.455c-0.913,0.729,0.067,2.109,0.056,3.222c-0.023,2.969,0.171,5.939,0.177,8.911
		c0.004,2.311-1.453,4.254-3.628,4.377C374.128,77.367,373.858,75.792,373.228,74.605z"/>
	<path style="fill-rule:evenodd;clip-rule:evenodd;fill:#010101;" d="M300.057,68.409c-0.68,0.72-1.35,1.45-2.044,2.156
		c-0.53,0.54-1.126,0.833-1.676,0.05c-0.45-0.641-0.739-1.33,0.105-1.934c0.988-0.704,1.943-1.464,2.969-2.11
		c0.779-0.492,1.017-1.107,1.022-2.008c0.007-1.048-0.047-1.618-1.393-1.302c-1.037,0.244-1.753-0.571-2.219-1.442
		c-0.449-0.844-0.416-1.568,0.755-1.757c2.21-0.352,3.312-1.421,2.709-3.831c-0.195-0.783-0.316-2.053,0.893-2.074
		c1.157-0.021,1.684,1.155,1.607,2.186c-0.068,0.922-0.11,1.424,0.868,1.951c0.814,0.438,1.214,1.468,0.166,2.328
		c-0.312,0.258-0.606,0.539-0.924,0.789c-0.664,0.521-0.534,1.286-0.347,1.864c0.258,0.792,0.864-0.661,1.316,0.19
		c-1.467,1.306-1.45,3.074-1.285,4.946c0.137,1.539,0.072,3.102,0.019,4.651c-0.032,0.896-0.448,1.647-1.098,2.321
		c-0.89,0.921-1.495,1.091-1.979-0.33c-0.164-0.478-0.558-0.876-0.872-1.351c3.157-0.924,1.042-3.445,1.844-5.073
		C300.35,68.557,300.203,68.482,300.057,68.409z"/>
	<path style="fill-rule:evenodd;clip-rule:evenodd;fill:#020202;" d="M604.766,61.513c-2.546,2.62-4.628,5.729-8.216,7.71
		c0.826-2.439,2.298-4.193,3.771-5.879c1.553-1.776,3.305-3.389,5.045-4.991c0.714-0.658,1.369-1.825,2.715-0.774
		c0.42,0.328,0.862-0.538,0.812-0.726c-0.406-1.574,1.306-2.037,1.602-3.217c0.114-0.457,0.468-1.205,0.812-0.949
		c1.279,0.944,2.795,0.99,4.201,1.439c0.399,0.127,0.427,0.681,0.26,1.079c-0.31,0.744-1.083,0.97-1.691,0.88
		c-2.37-0.346-3.898,1.019-5.433,2.422c3.585,2.117,7.164,4.23,10.963,6.473c-2.65,0.879-4.852,0.839-6.903-0.869
		c-1.453-1.207-3.011-2.285-4.541-3.398c-0.871-0.631-1.778-1.013-2.659,0.014C605.43,61.15,605.163,61.393,604.766,61.513z"/>
	<path style="fill-rule:evenodd;clip-rule:evenodd;fill:#010101;" d="M579.273,73.738c-0.449,0.727-1.239,1.012-1.906,1.453
		c-0.708,0.469-1.228,0.148-1.29-0.588c-0.038-0.44-1.102-1.336,0.392-1.416c0.971-0.053,0.949-0.9,0.971-1.508
		c0.092-2.965,0.088-5.932,0.155-8.898c0.015-0.721-0.21-0.937-0.923-0.786c-0.381,0.078-0.807,0.006-1.204-0.057
		c-0.932-0.146-1.389-0.918-1.583-1.653c-0.275-1.04,0.785-1.188,1.413-1.325c2.251-0.49,3.131-1.767,2.633-4.018
		c-0.137-0.62-0.179-1.323,0.685-1.366c0.725-0.035,1.617,0.629,1.484,1.094c-0.624,2.24,1.392,2.301,2.389,3.193l-0.059-0.072
		c-0.074,1.629-1.603,1.965-2.526,2.837c-0.069,0.252-0.145,0.509-0.076,0.771c0.069,0.274,0.101,0.556,0.175,0.828
		c0.043-0.262,0.146-0.5,0.313-0.707c0.562-0.842,1.351-0.54,1.957-0.219c0.956,0.508,0.655,1.472,0.554,2.317l0.049-0.054
		c-0.154,0.131-0.346,0.202-0.52,0.299c-0.675,0.369-1.771,0.216-1.949,1.19c-0.194,1.054,0.905,1.173,1.518,1.613
		c0.816,0.585,1.478,1.287,1.143,2.343c-0.344,1.067-1.197,1.09-2.144,0.773c-0.935-0.312-0.812,0.449-0.793,0.926
		C580.184,71.828,579.906,72.826,579.273,73.738z"/>
	<path style="fill-rule:evenodd;clip-rule:evenodd;fill:#010101;" d="M313.433,67.242c3.149-0.098,4.125,1.258,2.814,3.937
		c-0.352,0.719-0.653,1.278-0.094,2.172c0.585,0.936,0.146,1.818-1.131,1.954c-2.128,0.229-4.257,0.456-6.387,0.676
		c-0.757,0.078-1.09-0.519-1.335-1.028c-1.104-2.306-2.186-4.633-1.628-7.312c0.197-0.5,0.607-0.833,1.085-0.624
		c1.515,0.655,3.02,0.119,4.527,0.078C311.997,67.167,312.682,67.666,313.433,67.242z"/>
	<path style="fill-rule:evenodd;clip-rule:evenodd;fill:#020202;" d="M305.314,67.217c-0.441,0.391-0.879,0.781-1.366,1.213
		c-0.012-1.465,0.398-2.309,2.123-4.713c1.018-1.417,1.983-2.873,3.101-4.5c-0.929-0.103-2.029-0.178-2.036-1.124
		c-0.008-1.017,1.107-0.879,1.845-1.091c1.985-0.571,4.022-0.26,6.027-0.338c1.239-0.049,2.045,0.564,1.994,2.121
		c-0.114,3.626-1.159,6.603-4.779,8.114c-0.29,0.263-0.579,0.528-1.021,0.341c-0.822-0.381-1.11-1.135-1.299-1.93
		c-0.2-0.836-0.027-1.355,0.992-1.564c1.679-0.344,3.014-2.463,2.702-4.069c-0.187-0.976-0.776-0.811-1.298-0.333
		c-0.85,0.775-1.363,1.833-2.096,2.7C308.67,63.855,307.771,66.279,305.314,67.217z"/>
	<path style="fill-rule:evenodd;clip-rule:evenodd;fill:#010101;" d="M169.753,73.947c3.465-0.487,3.27,0.086,3.299-3.607
		c0.038-4.784,0.235-9.576-0.164-14.355c-0.05-0.609-0.036-1.182,0.637-1.21c0.737-0.034,1.526,0.192,1.727,1.074
		c0.166,0.719,0.261,1.467,0.276,2.203c0.094,4.855,0.173,9.71,0.22,14.565c0.009,1.002,0.025,2.098-0.776,2.844
		c-0.623,0.579-1.352,1.217-2.137,1.403c-1.202,0.288-1.075-1.118-1.635-1.689C170.832,74.799,170.398,74.487,169.753,73.947z"/>
	<path style="fill-rule:evenodd;clip-rule:evenodd;fill:#030303;" d="M603.16,70.949c-1.391,1.617-2.781,3.235-4.328,5.033
		c-0.143-1.506,0.482-2.484,0.956-3.5c1.111-2.375,2.459-4.643,3.116-7.222c0.269-1.055,0.574-1.632,2.155-1.47
		c1.812,0.186,3.7-0.322,5.582,0.259c1.513,0.468,1.59,1.224,1.158,2.589c-1.196,3.772-4.444,3.447-7.337,3.889
		C604.086,70.843,603.648,70.976,603.16,70.949z"/>
	<path style="fill-rule:evenodd;clip-rule:evenodd;fill:#020202;" d="M282.398,57.619c1.301,0.553,2.57,1.496,3.261,2.721
		c2.17,3.846,5.372,6.69,8.612,9.527c0.282,0.247,0.738,0.452,0.467,0.958c-0.316,0.59-0.769,0.447-1.181,0.136
		c-0.692-0.523-1.245-0.556-1.901,0.145c-0.557,0.593-1.103,0.02-1.597-0.311c-2.281-1.523-4.17-3.451-5.387-5.902
		c-0.926-1.865-1.618-3.832-3.188-5.315c-0.369-0.35-0.644-0.876-0.292-1.46C281.447,57.695,281.893,57.777,282.398,57.619z"/>
	<path style="fill-rule:evenodd;clip-rule:evenodd;fill:#050505;" d="M185.391,65.303c0-3.181,0.048-6.361-0.025-9.539
		c-0.028-1.168,0.152-1.742,1.505-1.604c1.341,0.135,2.705,0.041,4.058,0.023c0.596-0.006,1.027,0.023,1.024,0.835
		c-0.008,0.765-0.356,0.864-0.989,0.887c-1.136,0.041-2.633-0.527-3.319,0.228c-0.891,0.977-0.3,2.578-0.312,3.903
		c-0.047,5.007-0.013,10.014-0.023,15.021c-0.002,0.692,0.269,1.507-0.993,1.515c-1.341,0.009-0.9-0.906-0.907-1.525
		C185.373,71.799,185.391,68.551,185.391,65.303z"/>
	<path style="fill-rule:evenodd;clip-rule:evenodd;fill:#040404;" d="M333.286,65.527c0,3.181-0.071,6.363,0.036,9.54
		c0.043,1.306-0.373,1.627-1.589,1.528c-1.277-0.107-2.569-0.037-3.855-0.02c-0.654,0.01-1.181,0.023-1.147-0.917
		c0.031-0.846,0.534-0.741,1.078-0.783c3.508-0.277,3.508-0.283,3.508-3.826c0-5.074-0.003-10.149,0.006-15.224
		c0.001-0.76-0.287-1.673,1.094-1.633c1.359,0.041,0.841,0.998,0.85,1.59C333.311,59.031,333.286,62.281,333.286,65.527z"/>
	<path style="fill-rule:evenodd;clip-rule:evenodd;fill:#030303;" d="M603.16,70.949c0.281-0.612,0.824-0.422,1.303-0.422
		c-0.042,1.423,0.991,0.75,1.518,0.673c1.661-0.247,3.273-0.817,4.971-0.821c2.188-0.009,2.802,0.954,1.978,2.938
		c-0.24,0.581-0.832,1.002-0.576,1.834c0.232,0.76-0.316,0.99-1.077,0.982c-1.805-0.016-3.632-0.152-5.374,0.553
		c-0.777,0.312-1.073-0.354-1.409-0.826C603.451,74.391,603.303,72.668,603.16,70.949z"/>
	<path style="fill-rule:evenodd;clip-rule:evenodd;fill:#FCFCFC;" d="M579.273,73.738c0.41-1.648,0.264-3.341,0.383-5.008
		c0.58-0.27,0.85,0.222,1.212,0.463c0.488,0.324,1.018,0.92,1.566,0.279c0.546-0.639,0.385-1.432-0.188-2.008
		c-0.365-0.366-0.867-0.688-1.362-0.815c-0.903-0.231-1.412-0.62-1.234-1.634c0.184-1.038,0.881-1.438,1.821-1.513
		c0.463-0.037,0.935,0.038,1.403,0.062c-0.766,0.993-0.491,1.791,0.582,2.229c1.892,0.771,1.88,2.809,2.884,4.167
		c0.387,0.526-0.332,0.743-0.705,0.951c-1.291,0.718-2.692,1.155-4.102,1.562c-0.59,0.17-1.366,0.012-1.571,0.877
		C579.733,73.479,579.502,73.607,579.273,73.738z"/>
	<path style="fill-rule:evenodd;clip-rule:evenodd;fill:#030303;" d="M163.811,56.392c-0.962,0.128-1.304,0.959-1.814,1.468
		c0.001,0.447,0.262,0.351,0.423,0.386c0.792,0.167,1.646,0.251,1.826,1.272c0.081,0.45-0.149,0.79-0.55,0.983
		c-0.807,0.385-1.526,0.044-1.99-0.535c-0.801-0.999-1.048-0.18-1.421,0.316c-1.693,2.246-3.12,4.726-5.824,6.558
		c0.453-2.606,1.731-4.496,2.924-6.375c1.118-1.759,2.456-3.382,3.761-5.016c0.433-0.542,0.814-1.463,1.695-1.206
		c1.063,0.311,0.96,1.325,0.93,2.214L163.811,56.392z"/>
	<path style="fill-rule:evenodd;clip-rule:evenodd;fill:#FCFCFC;" d="M305.314,67.217c2.352-2.349,4.192-5.098,6.1-7.791
		c0.592-0.836,1.315-1.609,2.293-1.154c0.992,0.462,0.483,1.584,0.338,2.374c-0.559,3.048-1.213,3.634-3.859,3.632
		c0.177,1.065,0.488,2.032,1.222,2.835c0.114,0.122,0.137,0.223,0.071,0.306c-0.057,0.073-0.111,0.107-0.164,0.107
		c-1.867,0.76-3.76,0.16-5.642,0.114C305.555,67.498,305.435,67.357,305.314,67.217z"/>
	<path style="fill-rule:evenodd;clip-rule:evenodd;fill:#030303;" d="M511.31,58.043c-0.696,0.066-1.324-0.062-1.91-0.475
		c-0.683-0.482-0.951-1.197-0.875-1.919c0.084-0.793,0.934-0.689,1.478-0.742c2.01-0.196,4.013-0.338,5.966-0.96
		c0.938-0.299,1.755,0.164,2.078,1.119c0.366,1.069-0.473,1.395-1.247,1.695C515.03,57.449,513.159,57.708,511.31,58.043z"/>
	<path style="fill-rule:evenodd;clip-rule:evenodd;fill:#040404;" d="M270.514,70.894c1.52-3.658,4.066-6.121,6.133-8.905
		c0.379-0.508,0.967-0.407,1.382,0.106c0.646,0.797,0.977,1.636,0.192,2.539C276.125,67.049,274.329,69.822,270.514,70.894z"/>
	<path style="fill-rule:evenodd;clip-rule:evenodd;fill:#040404;" d="M563.588,60.725c-0.217-0.273-0.435-0.545-0.65-0.815
		c1.289-1.165,2.077-2.657,3.049-4.516c-1.377,0.394-2.209,1.01-3.025,1.636c-0.68,0.518-1.391,0.832-2.239,0.491
		c-0.691-0.279-1.482-0.573-1.436-1.468c0.051-0.949,0.987-0.791,1.567-0.875c1.658-0.234,3.306-0.526,4.994-0.604
		c1.145-0.053,1.782,0.479,2.363,1.214c0.738,0.934,0.682,1.708-0.617,2.125C565.973,58.432,564.649,59.396,563.588,60.725z"/>
	<path style="fill-rule:evenodd;clip-rule:evenodd;fill:#030303;" d="M603.342,53.03c0.593,0.116,1.194,0.384,1.377,0.986
		c0.19,0.618,0.527,0.643,1.031,0.614c0.363-0.021,0.87-0.298,1.057,0.208c0.201,0.542-0.273,0.839-0.649,1.125
		c-0.108,0.079-0.227,0.204-0.342,0.205c-1.81,0.007-0.797,2.358-1.857,2.464c-0.935,0.093-1.222-2.025-2.859-1.384
		c-0.655,0.256-1.295-0.261-1.416-1.067c-0.159-1.062,0.693-1.014,1.31-1.047c0.812-0.04,1.433-0.105,1.419-1.164
		C602.402,53.482,602.767,53.116,603.342,53.03z"/>
	<path style="fill-rule:evenodd;clip-rule:evenodd;fill:#090909;" d="M387.049,71.22c0.084-1.01,0.147-1.783-0.34-2.486
		c-0.484-0.696-0.35-1.547-0.384-2.349c-0.311-0.385-0.586-0.108-0.86,0.027c-0.655,0.323-0.993,0.007-1.23-0.58
		c-0.243-0.592-0.148-1.038,0.472-1.314c0.245-0.108,0.479-0.322,0.722-0.332c1.059-0.039,1.766-1.752,3.018-0.683
		c1.33,1.137-0.259,1.835-0.479,2.744c-0.193,0.805-0.141,1.597,0.22,2.36C388.732,69.767,388.159,70.461,387.049,71.22z"/>
	<path style="fill-rule:evenodd;clip-rule:evenodd;fill:#080808;" d="M489.861,64.1c0.768-2.717,1.76-5.349,3.135-7.815
		c0.271-0.483,0.436-1.502,1.408-0.866c0.711,0.465,0.908,1.167,0.428,1.922c-0.861,1.36-1.621,2.765-2.1,4.31
		c-0.134,1.349-0.76,2.425-1.923,3.105C490.225,65.096,489.542,65.234,489.861,64.1z"/>
	<path style="fill-rule:evenodd;clip-rule:evenodd;fill:#F8F8F8;" d="M489.861,64.1c0.111,0.71,0.477,0.786,0.891,0.268
		c0.697-0.877,1.324-1.81,1.98-2.718c0.167,0.011,0.333,0.021,0.5,0.031c-0.665,0.61-0.339,1.315,0.261,1.382
		c1.647,0.181,1.14,1.203,1.037,2.128c-0.122,1.119-0.226,2.24-0.374,3.715c-1.495-1.685-2.318-3.659-4.618-3.701
		c-0.111-0.001-0.211-0.722-0.316-1.106C489.434,64.098,489.646,64.1,489.861,64.1z"/>
	<path style="fill-rule:evenodd;clip-rule:evenodd;fill:#F0F0F0;" d="M555.688,72.118c0.037-2.087,0.005-4.181,0.143-6.261
		c0.064-0.947-0.115-2.632,1.795-1.287c0.693,0.487,1.277-0.492,2.108-0.412c-0.631,2.539-2.565,4.381-3.317,6.784
		C556.173,71.333,555.93,71.726,555.688,72.118z"/>
	<path style="fill-rule:evenodd;clip-rule:evenodd;fill:#0B0B0B;" d="M169.182,64.018c-0.067-0.866-0.14-1.735-0.194-2.602
		c-0.042-0.637,0.27-1.011,0.899-1.114c0.566-0.093,0.946,0.161,0.982,0.718c0.141,2.195,0.551,4.41-0.195,6.567
		c-0.133,0.386-0.332,1.032-0.924,0.832c-0.268-0.091-0.521-0.632-0.542-0.981C169.14,66.301,169.182,65.158,169.182,64.018z"/>
	<path style="fill-rule:evenodd;clip-rule:evenodd;fill:#090909;" d="M340.768,76.709c0.265-1.1,1.27-0.881,1.553-1.5
		c0.313-0.678,1.731-1.651-0.458-1.727c-0.867-0.03-1.278-0.703-1.364-1.511c-0.07-0.651,0.224-1.212,0.772-1.556
		c0.625-0.395,1.309-0.389,1.876,0.121c1.172,1.054,1.145,2.377,0.697,3.728C343.379,75.668,342.499,76.57,340.768,76.709z"/>
	<path style="fill-rule:evenodd;clip-rule:evenodd;fill:#090909;" d="M529.117,75.135c1.438-0.84,2.556-1.293,2.609-2.644
		c-0.074-0.093-0.15-0.265-0.219-0.261c-1.221,0.025-2.218-0.31-2.211-1.73c0.005-0.984,0.582-1.703,1.66-1.638
		c1.34,0.081,1.765,1.08,1.898,2.234C533.116,73.399,531.738,75.128,529.117,75.135z"/>
	<path style="fill-rule:evenodd;clip-rule:evenodd;fill:#060606;" d="M396.521,56.822c-1.628,0.162-1.867-0.708-2.004-1.476
		c-0.179-1.017,0.659-0.938,1.332-1.015c0.669-0.076,1.325-0.246,1.992-0.339c0.601-0.085,1.293-0.21,1.503,0.587
		c0.188,0.719-0.058,1.393-0.786,1.668C397.748,56.556,396.882,56.725,396.521,56.822z"/>
	<path style="fill-rule:evenodd;clip-rule:evenodd;fill:#F2F2F2;" d="M487.91,59.978c-1.288,0.433-2.001,1.515-2.829,2.479
		c-0.413,0.479-0.586,1.376-1.421,1.229c-0.968-0.171-0.212-1.164-0.622-1.673c-0.196-0.239-0.245-0.601-0.39-0.98
		c1.788-0.455,3.525-0.897,5.262-1.341C487.914,59.787,487.914,59.883,487.91,59.978z"/>
	<path style="fill-rule:evenodd;clip-rule:evenodd;fill:#0C0C0C;" d="M163.77,56.456c1.221-0.741,2.339-0.391,3.265,0.481
		c0.739,0.693,0.762,1.592-0.086,2.266c-0.811,0.641-1.37,0.077-1.801-0.586c-0.47-0.729-0.89-1.49-1.335-2.231
		C163.811,56.392,163.77,56.456,163.77,56.456z"/>
	<path style="fill-rule:evenodd;clip-rule:evenodd;fill:#0B0B0B;" d="M241.006,56.627c0.096,0.967-0.187,1.318-0.592,1.609
		c-0.578,0.411-0.835-0.016-1.123-0.407c-0.117-0.161-0.266-0.304-0.412-0.443c-0.695-0.675-1.346-1.388-1.044-2.461
		c0.146-0.514,0.636-0.522,0.989-0.292C239.766,55.244,240.867,55.743,241.006,56.627z"/>
	<path style="fill-rule:evenodd;clip-rule:evenodd;fill:#0B0B0B;" d="M469.062,55.087c0.784-0.018,2.582,1.773,2.592,2.562
		c0.006,0.717-0.616,1.462-0.985,1.262c-1.091-0.599-2.082-1.472-2.286-2.846C468.312,55.595,468.362,55.08,469.062,55.087z"/>
	<path style="fill-rule:evenodd;clip-rule:evenodd;fill:#0A0A0A;" d="M388.869,58.984c-0.134,0.682-0.215,1.288-0.996,1.06
		c-1.163-0.342-2.896-0.164-2.957-1.819c-0.04-1.077,1.283-0.533,2-0.614C387.996,57.49,388.704,57.973,388.869,58.984z"/>
	<path style="fill-rule:evenodd;clip-rule:evenodd;fill:#141414;" d="M574.751,63.188c0.741,0.14,1.452,0.566,1.581,1.569
		c0.07,0.532-0.24,0.978-0.81,0.862c-0.868-0.178-1.682-0.572-1.815-1.578C573.638,63.523,573.983,63.177,574.751,63.188z"/>
	<path style="fill-rule:evenodd;clip-rule:evenodd;fill:#191919;" d="M604.766,61.513c0.126-0.376,0.359-0.648,0.737-0.788
		c0.333,0.813,1.181,0.318,1.732,0.677c0.542,0.352,1.131,0.636,0.824,1.354c-0.323,0.753-1.019,0.417-1.583,0.294
		C605.623,62.863,605.438,61.914,604.766,61.513z"/>
	<path style="fill-rule:evenodd;clip-rule:evenodd;fill:#121212;" d="M582.488,57.863c0.018-0.579-0.318-1.221,0.191-1.709
		c0.286-0.273,0.646-0.036,0.896,0.163c0.667,0.536,1.231,1.216,0.549,2.022c-0.854,1.005-1.143-0.298-1.694-0.547L582.488,57.863z"
		/>
	<path style="fill-rule:evenodd;clip-rule:evenodd;fill:#BEBEBE;" d="M580.315,61.52c0.116,0.699,0.366,1.437-0.602,1.985
		c-0.142-1.044-0.309-1.972,0.189-2.877C580.04,60.925,580.178,61.222,580.315,61.52z"/>
	<path style="fill-rule:evenodd;clip-rule:evenodd;fill:#727272;" d="M142.371,58.088c-0.559,0.122-1.112,0.264-1.676,0.355
		c-0.24,0.039-0.58-0.013-0.496-0.354c0.043-0.178,0.359-0.288,0.553-0.43C141.129,58.412,141.888,57.732,142.371,58.088z"/>
	<path style="fill-rule:evenodd;clip-rule:evenodd;fill:#CACACA;" d="M481.714,67.729c0.054,0.269,0.109,0.537,0.163,0.805
		c-0.272,0.018-0.547,0.035-0.821,0.052c-0.11-0.755-0.108-1.495,0.266-2.189C481.902,66.707,481.649,67.266,481.714,67.729z"/>
	<path style="fill-rule:evenodd;clip-rule:evenodd;fill:#8E8E8E;" d="M217.165,64.652c-0.503-0.408-1.32-0.034-1.723-0.691
		c0.022-0.25,0.255-0.289,0.411-0.406c0.555,0.166,1.25,0.148,1.267,0.994L217.165,64.652z"/>
	<path style="fill-rule:evenodd;clip-rule:evenodd;fill:#AEAEAE;" d="M311.314,67.525c0.031-0.138,0.061-0.276,0.093-0.413
		c0.272-0.071,0.544-0.142,0.816-0.213c0.402,0.114,0.806,0.229,1.209,0.343C312.752,67.535,312.049,67.637,311.314,67.525z"/>
	<path style="fill-rule:evenodd;clip-rule:evenodd;fill:#6E6E6E;" d="M564.99,71.361c-0.423,0.108-0.841,0.245-1.271,0.306
		c-0.198,0.028-0.573,0.162-0.596-0.205c-0.021-0.374,0.306-0.502,0.64-0.546C563.992,71.556,564.628,71.086,564.99,71.361z"/>
	<path style="fill-rule:evenodd;clip-rule:evenodd;fill:#F7F7F7;" d="M203.331,62.336c0.993-0.256,1.97-0.533,1.977,0.931
		c0.005,1.298,0.1,2.659-1.5,3.158c-0.613,0.191-1.046-0.051-1.02-0.813c0.071-2.226,0.016-4.453,0.314-6.678
		c0.166-1.243,1.148-1.121,2.093-1.523C204.955,59.207,204.064,60.604,203.331,62.336z"/>
	<path style="fill-rule:evenodd;clip-rule:evenodd;fill:#EBEBEB;" d="M215.854,63.555c-0.138,0.136-0.274,0.271-0.411,0.406
		c-0.702-0.379-1.358-0.93-2,0.177c-0.422,0.726-1.245,0.615-1.995,0.554C213.484,61.635,213.499,61.632,215.854,63.555z"/>
	<path style="fill-rule:evenodd;clip-rule:evenodd;fill:#EFEFEF;" d="M214.855,57.151c-0.985,1.756-0.985,1.756-3.295,0.995
		C212.871,56.808,212.871,56.808,214.855,57.151z"/>
	<path style="fill-rule:evenodd;clip-rule:evenodd;fill:#F9F9F9;" d="M489.528,73.173c0-1.86,0.02-3.461-0.008-5.062
		c-0.019-1.049,0.54-0.998,1.096-0.523c1.104,0.946,1.382,2.428,2.121,3.62c0.27,0.436-0.356,0.654-0.681,0.82
		C491.295,72.414,490.501,72.737,489.528,73.173z"/>
	<path style="fill-rule:evenodd;clip-rule:evenodd;fill:#E6E6E6;" d="M481.714,67.729c-0.132-0.444-0.261-0.889-0.393-1.333
		c0.015-0.897,0.859-0.69,1.33-0.954c0.302-0.168,0.883-0.367,1.047,0.104c0.158,0.454,0.233,1.086-0.377,1.407
		C482.796,67.231,482.25,67.472,481.714,67.729z"/>
	<path style="fill-rule:evenodd;clip-rule:evenodd;fill:#E0E0E0;" d="M485.098,71.38c0.053,0.776-0.455,1.054-1.131,1.062
		c-0.59,0.007-0.547-0.506-0.533-0.888c0.022-0.681,0.555-0.876,1.102-0.964C485.151,70.49,485.163,70.909,485.098,71.38z"/>
	<path style="fill-rule:evenodd;clip-rule:evenodd;fill:#FDFDFD;" d="M143.707,75.561c-0.145-2.147-1.447-2.354-3.099-2.034
		c-0.862,0.167-1.742,0.245-2.612,0.362c-0.714,0.098-1.454,0.417-1.537-0.845c-0.064-0.982-0.126-1.618,1.158-1.764
		c1.329-0.147,2.624-0.61,3.936-0.931c0.682-0.164,1.493-0.36,1.16-1.26c-0.305-0.828-0.873-1.479-2.034-1.012
		c-0.991,0.4-2.068,0.616-3.126,0.816c-0.48,0.09-1.352,0.564-1.277-0.555c0.042-0.683-0.558-1.68,0.765-1.938
		c1.32-0.259,2.623-0.62,3.932-0.941c0.663-0.161,1.514-0.331,1.152-1.231c-0.282-0.703-0.828-1.406-1.9-0.973
		c-0.745,0.302-1.552,0.479-2.349,0.609c-0.533,0.087-1.434,0.818-1.513-0.359c-0.053-0.805-0.415-1.927,0.994-2.293
		c1.958-0.509,3.88-1.156,5.812-1.764c0.574-0.18,1.186-0.277,1.247,0.492c0.398,5.05,0.849,10.104-0.124,15.142
		C144.264,75.229,144,75.328,143.707,75.561z"/>
	<path style="fill-rule:evenodd;clip-rule:evenodd;fill:#EDEDED;" d="M401.737,67.461c-0.142,0.796-0.266,1.664-0.46,2.516
		c-0.129,0.574-0.494,0.961-1.146,0.919c-0.395-0.024-0.888,0.024-1.075-0.379c-0.263-0.564,0.021-1.08,0.5-1.39
		c0.618-0.4,0.966-0.836,0.247-1.365c-0.643-0.475-0.678-1.111-0.285-1.543c0.365-0.404,1.073-0.631,1.68-0.412
		C401.971,66.086,401.648,66.824,401.737,67.461z"/>
	<path style="fill-rule:evenodd;clip-rule:evenodd;fill:#F2F2F2;" d="M399.286,58.932c-0.516,2.76-2.602,3.309-4.731,4.033
		C395.576,60.006,395.576,60.006,399.286,58.932z"/>
	<path style="fill-rule:evenodd;clip-rule:evenodd;fill:#E6E6E6;" d="M391.35,69.545c0.133,0.176,0.224,0.254,0.256,0.35
		c0.275,0.875,0.541,1.752,0.824,2.681c-0.91,0.206-1.565-0.403-2.447-0.476C390.455,71.219,390.89,70.407,391.35,69.545z"/>
	<path style="fill-rule:evenodd;clip-rule:evenodd;fill:#E6E6E6;" d="M398.141,67.259c-0.07,0.89-0.667,0.872-1.193,0.932
		c-0.499,0.055-0.491-0.312-0.49-0.653c0.002-0.738,0.596-0.837,1.103-0.936C398.209,66.477,398.053,67.037,398.141,67.259z"/>
	<path style="fill-rule:evenodd;clip-rule:evenodd;fill:#F1F1F1;" d="M588.424,62.576c0.361,1.67-0.132,3.043-0.528,4.475
		c-0.499-1.17-2.273-1.635-1.69-3.32C586.596,62.598,587.657,63.02,588.424,62.576z"/>
	<path style="fill-rule:evenodd;clip-rule:evenodd;fill:#F2F2F2;" d="M228.033,61.207c0,1.149,0,2.149-0.002,3.147
		c-0.002,0.456-0.186,0.75-0.674,0.838c-0.302,0.054-0.479-0.05-0.656-0.287C225.905,63.842,226.566,61.731,228.033,61.207z"/>
	<path style="fill-rule:evenodd;clip-rule:evenodd;fill:#E3E3E3;" d="M229.944,64.447c0.078-1.363,0.122-2.428,0.205-3.49
		c0.053-0.681,0.6-0.969,1.126-0.846c0.684,0.158,0.33,0.743,0.199,1.154C231.146,62.291,231.081,63.45,229.944,64.447z"/>
	<path style="fill-rule:evenodd;clip-rule:evenodd;fill:#E7E7E7;" d="M231.593,65.939c0.118,1.307-0.169,2.314-1.773,2.352
		c-0.642-1.746,0.426-2.158,1.829-2.309L231.593,65.939z"/>
	<path style="fill-rule:evenodd;clip-rule:evenodd;fill:#F2F2F2;" d="M458.633,61.856c0,1.015,0.003,2.013-0.002,3.011
		c-0.003,0.432-0.119,0.778-0.623,0.879c-0.293,0.059-0.49-0.001-0.684-0.232C456.428,64.443,457.178,62.234,458.633,61.856z"/>
	<path style="fill-rule:evenodd;clip-rule:evenodd;fill:#E3E3E3;" d="M460.562,64.694c0.055-0.997,0.124-1.991,0.16-2.989
		c0.027-0.777,0.531-1.161,1.166-1.025c0.664,0.143,0.305,0.745,0.184,1.162C461.784,62.844,461.606,63.895,460.562,64.694z"/>
	<path style="fill-rule:evenodd;clip-rule:evenodd;fill:#E7E7E7;" d="M462.193,66.504c0.103,1.297-0.129,2.342-1.778,2.342
		c-0.638-1.738,0.429-2.15,1.832-2.301L462.193,66.504z"/>
	<path style="fill-rule:evenodd;clip-rule:evenodd;fill:#EDEDED;" d="M160.291,67.368c0.09-1.243,1.069-1.15,1.787-1.372
		c0.652-0.203,1.507-0.361,1.245-1.214c-0.241-0.791-1.006-0.298-1.567-0.192c-0.18,0.034-0.373,0.006-0.571,0.006
		c0.359-1.033,3.08-2.551,3.928-2.196c0.53,0.22,0.376,0.642,0.187,0.999C164.234,65.416,163.349,67.66,160.291,67.368z"/>
	<path style="fill-rule:evenodd;clip-rule:evenodd;fill:#F1F1F1;" d="M164.632,71.207c-0.186,1.764-0.799,2.82-2.451,2.92
		c-0.509,0.029-1.09,0.24-1.204-0.607c-0.085-0.632-0.182-1.208,0.613-1.438C162.537,71.811,163.484,71.537,164.632,71.207z"/>
	<path style="fill-rule:evenodd;clip-rule:evenodd;fill:#F7F7F7;" d="M313.506,69.455c-0.184,2.465-1.067,3.742-3.475,3.757
		c-1.076,0.006-1.195-0.532-1.453-1.207c-0.292-0.771-0.111-1.284,0.739-1.492C310.664,70.183,312.006,69.837,313.506,69.455z"/>
	<path style="fill-rule:evenodd;clip-rule:evenodd;fill:#EFEFEF;" d="M604.174,66.16c1.732-0.9,3.447-1.089,5.107-1.414
		c0.506-0.098,0.605,0.242,0.562,0.759c-0.15,1.812-4.033,4.162-5.639,3.378c-0.342-0.167-0.25-0.42-0.226-0.669
		c0.038-0.373,0.262-0.349,0.557-0.276c1.056,0.259,1.976-0.157,2.876-0.629c0.422-0.223,0.922-0.482,0.758-1.031
		c-0.194-0.662-0.769-0.277-1.196-0.267C606.129,66.029,605.361,66.744,604.174,66.16z"/>
	<path style="fill-rule:evenodd;clip-rule:evenodd;fill:#F6F6F6;" d="M610.959,72.052c-0.75,2.18-2.629,3.165-4.473,2.636
		c-0.526-0.15-0.557-0.524-0.656-0.887c-0.186-0.666,0.303-0.775,0.784-0.881c0.261-0.056,0.517-0.147,0.78-0.199
		C608.502,72.508,609.61,72.306,610.959,72.052z"/>
</g>
<g>
	<path style="fill-rule:evenodd;clip-rule:evenodd;fill:#010101;" d="M353.918,27.178c0.666-0.074,1.365-0.046,1.995-0.24
		c2.181-0.676,3.407-0.113,3.506,2.215c0.208,4.848,0.703,9.707,0.107,14.562c-0.13,1.063-3.164,3.419-4.163,3.296
		c-0.483-0.058-0.699-0.413-0.735-0.836c-0.13-1.563-1.072-1.571-2.283-1.316c-1.188,0.252-2.419,0.286-3.603,0.548
		c-1.857,0.411-2.733-0.544-2.939-2.158c-0.587-4.573-0.662-9.165-0.046-13.741c0.142-1.059,0.211-2.653,2.15-1.924
		c0.528,0.198,0.666-0.288,0.906-0.576c0.603-0.728,1.145-1.521,1.827-2.162c0.492-0.464,0.526-1.563,1.562-1.314
		c0.706,0.17,1.138,0.719,1.314,1.41c0.265,1.035-0.495,1.418-1.219,1.808C352.555,27.96,353.331,27.208,353.918,27.178z"/>
	<path style="fill-rule:evenodd;clip-rule:evenodd;" d="M92.562,31.577c3.25-0.735,6.57-0.114,9.825-0.65
		c1.373-0.227,2.516,0.172,2.518,1.806c0.005,2.915-0.224,5.812-1.587,8.48c-0.404,0.787-0.816,1.635-1.821,1.735
		c-3.001,0.298-3.556,1.261-3.793-2.636c2.602,0.333,2.982,0.083,3.65-2.47c0.152-0.585,0.262-1.187,0.336-1.788
		c0.445-3.665,1.033-4.146-3.266-2.891c-1.1,0.32-1.317,0.772-1.371,1.791c-0.131,2.502,0.255,5.176-2.091,7.309
		c-0.458-2.779,0.028-5.447-0.238-8.067c-1.964-0.156-2.622,0.724-2.164,2.536c0.049,0.195,0.055,0.402,0.089,0.601
		c0.174,0.994,0.043,2.327-0.866,2.392c-1.128,0.08-1.014-1.31-1.066-2.211c-0.046-0.799-0.009-1.604-0.009-2.52
		c-0.703,0.156-1.235,0.24-1.746,0.392c-2.153,0.649-2.341,0.996-1.543,3.159c0.457,1.234,1.033,2.953-0.251,3.41
		c-1.37,0.489-1.612-1.432-2.009-2.484c-0.758-2.004-0.646-4.128-0.512-6.221c0.064-1.004,0.562-1.652,1.537-0.748
		c1.467,1.368,2.705,0.285,3.578-0.547c1.186-1.132,2.062-2.625,2.679-4.24c-0.958-0.387-1.694,0.046-2.466,0.203
		c-1.432,0.291-2.232-0.541-2.491-1.752c-0.307-1.43,1.05-1.193,1.772-1.301c3.339-0.49,6.695-0.878,10.046-1.273
		c1.315-0.157,2.163,0.635,2.332,1.768c0.222,1.493-1.115,1.186-1.981,1.278c-0.873,0.096-1.764,0.038-2.632,0.161
		c-0.936,0.133-2.134-0.287-1.887,1.68C95.298,29.781,93.53,30.457,92.562,31.577z"/>
	<path style="fill-rule:evenodd;clip-rule:evenodd;" d="M139.869,32.678c-1.243,0.391-2.278,0.549-3.145,1.021
		c-1.459,0.794-1.895,0.108-2.233-1.161c-0.463-1.742-0.349-3.502-0.227-5.248c0.051-0.702,0.452-1.612,1.356-1.488
		c1.041,0.142,1.084,1.04,0.89,1.912c-0.029,0.133-0.09,0.268-0.081,0.397c0.062,0.927-1.099,2.283,0.404,2.687
		c1.83,0.489,3.282-0.829,3.376-2.592c0.066-1.213,0.088-2.436,0.266-3.634c0.121-0.819,0.223-2.062,1.449-1.718
		c0.977,0.275,1.988,0.983,1.737,2.371c-0.157,0.864-0.425,1.715-0.481,2.584c-0.031,0.461-0.46,1.594,0.52,1.289
		c1.008-0.316,2.167,1.354,2.926-0.309c0.28-0.611,0.546-1.229,0.824-1.84c0.279-0.61,0.531-1.445,1.365-1.204
		c0.891,0.257,1.389,1.1,1.506,1.993c0.121,0.924-2.228,4.172-3.169,4.457c-0.705,0.214-1.333,0.54-2.14-0.224
		c-0.921-0.872-2.231-0.096-2.262,1.202c-0.035,1.421,0.15,2.865-0.045,4.262c-0.301,2.148,0.526,2.52,2.521,2.39
		c1.631-0.106,1.755-0.763,1.49-1.978c-0.125-0.57-0.568-1.186,0.201-1.595c0.735-0.388,1.444-0.2,2.08,0.29
		c1.916,1.476,1.498,6.246-0.653,7.428c-0.338,0.185-0.396,0.785-1.024,0.57c-0.023-0.021-0.205-0.12-0.199-0.2
		c0.186-2.345-1.121-2.35-2.849-1.913c-2.727,0.687-5.601,0.682-8.196,2.013c-1.376,0.704-2.8-0.345-2.67-1.9
		c0.125-1.536,0.51-3.055,0.814-4.575c0.134-0.66,0.34-1.509,1.201-1.274c0.824,0.227,1.563,0.769,1.458,1.896
		c-0.228,2.462-0.171,2.468,2.037,1.913c0.748-0.188,0.978-0.523,0.964-1.252C139.847,37.153,139.869,35.059,139.869,32.678z"/>
	<path style="fill-rule:evenodd;clip-rule:evenodd;fill:#010101;" d="M228.911,34.85c0.972-0.496,1.607-0.881,2.288-1.147
		c0.446-0.176,0.901-0.829,1.434-0.238c0.514,0.568,0.157,1.175-0.165,1.676c-0.935,1.441-2.308,2.45-3.601,3.538
		c-1.485,1.255-2.946,2.37-5.091,1.38c-0.902-0.417-1.915-0.468-2.806,0.372c-0.486,0.46-1.151,0.077-1.729-0.111
		c-2.774-0.907-4.972-2.668-6.998-4.694c-3.189-3.189-3.195-3.185-6.273,0.064c-2.787,2.94-2.787,2.94-5.602,4.145
		c-0.23-1.156,0.48-1.952,1.062-2.709c2.758-3.587,5.564-7.139,8.385-10.682c0.432-0.542,0.966-1.395,1.784-0.57
		c0.643,0.649,1.386,1.435,0.719,2.486c-0.501,0.791-1.101,1.52-1.593,2.19c3.561,3.124,7.508,5.646,12.023,7.278
		c1.668,0.603,3.644-0.398,3.653-2.203c0.014-2.232-0.023-4.465-0.018-6.697c0.001-0.88-0.013-1.996,1.188-1.918
		c1.08,0.069,1.783,0.834,1.68,2.108C229.105,30.937,229.031,32.76,228.911,34.85z"/>
	<path style="fill-rule:evenodd;clip-rule:evenodd;fill:#010101;" d="M175.445,39.885c0.082,0.41,0.095,0.775,0.228,1.092
		c1.036,2.486,0.536,3.373-2.157,3.696c-1.75,0.208-3.648,0.571-4.843-1.15c-1.487-2.138-0.621-4.348,0.363-6.955
		c-3.5,2.31-4.775,6.315-8.492,8.424c0.824-2.256,1.819-3.929,3.061-5.457c0.594-0.735,1.13-1.244,0.306-2.324
		c-0.886-1.162-0.501-2.741-0.551-4.152c-0.091-2.57-0.142-5.144,0.454-7.671c0.215-0.914,0.207-1.647,1.797-1.199
		c1.541,0.437,3.421,0.506,5.1-0.376c1.373-0.719,1.907,0.406,1.963,1.416c0.167,3.035,0.178,6.08,0.203,9.121
		c0.011,1.06-0.352,2.057-1.309,2.605c-1.867,1.072-1.668,2.858-1.693,4.565c-0.018,1.108,0.88,1.376,1.683,1.311
		c1.129-0.094,2.531,0.293,3.158-1.199C174.94,41.096,174.681,40.384,175.445,39.885z"/>
	<path style="fill-rule:evenodd;clip-rule:evenodd;fill:#010101;" d="M378.73,30.666c1.361,0.17,1.578,1.381,2.278,2.213
		c0.472,0.562,1.733-0.996,2.884-0.601c0.73,0.253,1.41,0.541,1.451,1.464c0.039,0.854-0.598,1.17-1.225,1.416
		c-1.001,0.393-2.016,0.781-3.059,1.031c-1.106,0.267-1.811,0.787-1.853,2.164c0.968-0.107,1.933-0.283,2.902-0.311
		c2.427-0.073,3.505,1.659,2.467,3.82c-0.329,0.686-0.968,1.236-0.689,2.202c0.314,1.091-0.368,1.529-1.417,1.72
		c-1.914,0.349-3.914,0.142-5.761,0.904c-0.467,0.191-0.796-0.107-1.034-0.429c-1.348-1.816-2.353-3.785-2.314-6.11
		c0.015-0.951,0.383-1.559,1.555-1.061c0.908,0.391,1.616,0.085,1.7-1.009c0.111-1.441-0.919-0.513-1.388-0.583
		c-1.353-0.202-1.94-1.086-2.31-2.246c-0.028-1.151,0.897-1.244,1.656-1.388c1.301-0.248,2.257-0.724,2.52-2.202
		C377.231,30.888,377.774,30.321,378.73,30.666z"/>
	<path style="fill-rule:evenodd;clip-rule:evenodd;fill:#010101;" d="M303.977,31.141c2.706-1.018,5.579-1.497,8.25-2.642
		c0.904-0.388,1.806-0.005,2.151,0.939c0.389,1.058-0.48,1.519-1.277,1.667c-1.588,0.292-2.006,1.252-2.011,2.711
		c-0.003,1.002,0.019,2.156-0.44,2.982c-1.061,1.91-0.05,2.82,1.356,3.714c1.535,0.976,3.068,1.958,4.579,2.974
		c0.312,0.21,0.703,0.553,0.549,0.976c-0.187,0.505-0.705,0.13-1.031,0.22c-3.052,0.853-5.109-0.82-7.074-2.715
		c-0.52-0.498-0.867-0.366-1.381-0.012c-2.821,1.943-5.965,2.252-9.414,1.773c0.75-0.902,1.767-0.809,2.6-1.113
		c1.325-0.484,2.724-0.789,4.007-1.36c0.871-0.387,2.099-0.863,2.019-1.97c-0.082-1.121-0.811-2.111-2.098-2.471
		c-0.752-0.211-1.464-0.697-1.145-1.592c0.299-0.834,1.029-0.986,1.835-0.523c0.288,0.168,0.634,0.245,0.911,0.429
		c0.613,0.399,1.199,0.842,1.837,1.296c0.458-0.538,0.484-1.199,0.584-1.832c0.217-1.356,0.181-2.259-1.68-1.53
		c-1.733,0.681-2.634-0.392-3.064-1.975L303.977,31.141z"/>
	<path style="fill-rule:evenodd;clip-rule:evenodd;fill:#010101;" d="M304.041,31.087c-0.965,0.735-1.453,1.921-1.544,2.921
		c-0.086,0.947-0.62,1.182-1.087,1.654c-0.443,0.362-0.946,0.667-1.221,1.286c0.72-0.208,0.641-1.038,1.168-1.327
		c1.043,0.162,1.673,0.754,1.997,1.765c0.258,0.794-0.028,1.633-0.651,1.682c-2.484,0.198-4.239,1.981-6.45,2.759
		c-1.083,0.383-1.908,0.438-2.367-0.621c-0.559-1.287,0.791-1.107,1.378-1.455c0.572-0.34,1.235-0.533,1.858-0.793
		c0.812-0.34,0.539-1.048,0.404-1.566c-0.198-0.765-0.827-0.335-1.128-0.116c-0.768,0.562-1.182,0.321-1.582-0.419
		c-1.225-2.252-1.291-4.665-0.938-7.1c0.135-0.924,0.68-1.282,1.77-0.852c1.35,0.534,2.242,0.107,2.362-1.61
		c0.06-0.864-0.469-2.433,0.785-2.524c1.549-0.112,1.538,1.413,1.438,2.58c-0.073,0.836,0.197,1.035,1.001,0.992
		c2.774-0.155,2.917,0.018,2.741,2.801L304.041,31.087z"/>
	<path style="fill-rule:evenodd;clip-rule:evenodd;fill:#010101;" d="M239.141,36.275c-2.133,2.962-4.583,4.924-8.406,5.129
		c2.102-2.061,4.321-3.624,5.858-5.85c0.539-0.781,1.403-1.444,0.402-2.576c-0.447-0.506-0.062-1.381,0.679-1.288
		c1.628,0.202,1.867-0.997,2.313-1.994c0.545-1.227,0.965-2.51,1.521-3.733c0.298-0.656,0.383-1.888,1.504-1.41
		c1.042,0.443,1.639,1.375,1.017,2.654c-0.853,1.752-1.599,3.562-2.509,5.284c-0.474,0.896-0.385,1.515,0.168,2.348
		c1.499,2.257,3.876,3.522,5.777,5.315c0.317,0.301,0.98,0.408,0.615,1.027c-0.23,0.395-0.714,0.39-1.09,0.165
		c-0.719-0.431-1.3-0.524-1.928,0.229c-0.531,0.639-1.102,0.129-1.596-0.213C241.653,40.113,240.199,38.545,239.141,36.275z"/>
	<path style="fill-rule:evenodd;clip-rule:evenodd;fill:#010101;" d="M372.639,35.254c-1.455,3.288-2.604,6.752-5.352,9.502
		c-0.526-1.042,0.023-1.872,0.298-2.702c1.888-5.694,4.494-11.102,6.621-16.704c0.204-0.538,0.419-0.947,1.029-1.109
		c1.896-0.502,3.798-0.961,5.782-0.807c1.191,0.092,2.045,0.758,2.488,1.81c0.438,1.039-0.657,1.487-1.035,2.222
		c-0.822,1.603-2.605,2.033-3.72,3.257C375.66,30.812,373.911,32.709,372.639,35.254z"/>
	<path style="fill-rule:evenodd;clip-rule:evenodd;fill:#010101;" d="M159.574,37.002c0.859-0.455,1.613-0.854,2.392-1.268
		c0.541,1.092,0.299,1.904-0.501,2.605c-1.568,1.37-3.095,2.792-4.711,4.104c-0.877,0.709-1.463-0.048-2.012-0.667
		c-0.557-0.63-0.847-1.255,0.009-1.861c0.66-0.466,1.3-0.986,2.019-1.335c1.033-0.502,0.6-1.381,0.678-2.127
		c0.094-0.863-0.6-0.673-1.09-0.791c-0.84-0.198-1.571-0.715-1.668-1.547c-0.09-0.747,0.754-1.019,1.324-1.353
		c1.932-1.134,1.93-1.995,0.017-3.259c-0.613-0.406-1.296-0.851-1.169-1.74c0.116-0.82,0.662-1.263,1.469-1.468
		c1.174-0.294,2.337-0.643,3.495-0.997c0.763-0.235,1.488-0.338,1.92,0.516c0.402,0.8,0.314,1.603-0.344,2.225
		c-0.483,0.455-1.057,0.826-1.623,1.181c-0.607,0.38-0.355,0.954-0.398,1.459c-0.045,0.496,0.277,0.534,0.648,0.448
		c0.759-0.18,1.416,0.012,1.619,0.785c0.207,0.787-0.262,1.456-0.855,1.92C159.791,34.615,158.9,35.393,159.574,37.002z"/>
	<path style="fill-rule:evenodd;clip-rule:evenodd;fill:#010101;" d="M277.428,45.08c1.055,0.119,1.445,0.18,1.836,0.205
		c1.251,0.078,1.463-0.805,1.445-1.725c-0.022-1.29-0.999-0.564-1.486-0.512c-0.855,0.093-1.685,0.436-2.531,0.652
		c-0.941,0.242-1.699-0.156-1.926-1.015c-0.279-1.057,0.803-0.841,1.344-1.055c1.462-0.579,3.139-0.433,4.658-1.188
		c-0.602-0.769-1.211-0.27-1.743-0.278c-0.621-0.011-1.142-0.203-1.245-0.79c-0.135-0.773,0.583-0.732,1.073-0.834
		c0.517-0.108,1.055-0.141,1.349-0.698c-0.85-0.667-2.738,0.948-2.752-0.922c-0.007-1.116,1.769-0.571,2.674-1.011
		c1.022-0.496,2.173-0.725,3.204-1.21c0.701-0.331,1.209-0.249,1.515,0.384c0.365,0.765-0.373,0.785-0.813,1.051
		c-0.566,0.343-1.553,0.188-1.611,1.196c0.379,0.45,0.771,0.171,1.134,0.083c0.634-0.15,1.089,0.045,1.23,0.683
		c0.131,0.589-0.364,0.767-0.771,1.031c-0.383,0.247-1.349-0.105-1.096,0.768c0.197,0.685,0.94,0.226,1.419,0.228
		c0.942,0.003,1.884-0.164,2.825-0.173c0.794-0.008,1.577,0.306,1.647,1.167c0.085,1.046-0.78,1.06-1.554,1.043
		c-0.475-0.01-0.947,0.004-1.418,0.001c-1.538-0.006-2.929-0.03-2.835,2.251c0.086,2.036-1.756,2.66-3.25,3.037
		C278.3,47.813,278.373,46.209,277.428,45.08z"/>
	<path style="fill-rule:evenodd;clip-rule:evenodd;fill:#010101;" d="M63.574,19.895c1.791-0.207,2.354-1.332,2.328-2.992
		c-0.037-1.986-0.055-3.975,0.041-5.958c0.041-0.877-0.479-2.254,0.996-2.394c1.558-0.148,2.477,1.033,2.754,2.362
		c0.215,1.029-0.104,2.178-0.252,3.265c-0.168,1.236,0.014,1.864,1.52,2.239c2.83,0.708,3.291,2.934,0.762,4.601
		c-2.946,1.946-1.662,3.08-0.003,4.87c2.45,2.641,5.657,4.177,8.43,6.33c0.592,0.459,1.577,0.77,1.2,1.709
		c-0.426,1.054-1.338,0.107-1.972,0.232c-6.047,1.195-8.759-3.009-11.56-7.234c-2.196,2.716-3.369,6.527-7.771,6.131
		c-0.489-1.305,0.359-2.131,1.062-3.01c2.105-2.216,3.357-4.548,1.509-7.616C62.035,21.458,61.985,20.26,63.574,19.895z"/>
	<path style="fill-rule:evenodd;clip-rule:evenodd;fill:#020202;" d="M200.268,32.494c-0.186,0.762-0.907,1.553-1.656,1.035
		c-3.441-2.376-7.058-1.041-10.566-0.599c-2.298,0.288-4.727,0.212-6.861,1.503c-0.791,0.477-1.708,0.07-2.473-0.446
		c-0.652-0.438-1.199-1.003-1.069-1.815c0.134-0.836,0.998-0.872,1.608-0.932c5.167-0.494,10.298-1.497,15.525-1.188
		c0.812,0.047,1.576,0.042,2.38-0.253C198.414,29.337,200.361,30.979,200.268,32.494z"/>
	<path style="fill-rule:evenodd;clip-rule:evenodd;fill:#010101;" d="M61.407,30.342c-0.454,0.903-0.906,1.809-1.359,2.713
		c-0.897,0.367-2.018,0.51-2.65,1.146c-2.151,2.162-3.191,1.002-4.059-1.116c-0.52-0.876-0.114-1.549,0.665-1.8
		c1.963-0.629,2.564-2.113,2.762-3.932c0.436-1.186,0.427-2.402,0.22-3.629c-0.025-0.555,0.104-1.104,0.104-1.649
		c0-0.811,0.433-2.038-1.012-1.912c-1.144,0.101-2.174,0.669-1.715,2.206c0.287,0.964,0.594,1.934-0.293,2.775
		c-1.379-0.222-2.757-0.435-4.135-0.667c-1.498-0.252-1.273-1.349-0.979-2.296c1.393-4.466,3.6-8.518,6.364-12.283
		c0.62-0.843,1.366-1.24,2.227-0.564c0.906,0.713,1.447,1.713,0.97,2.925c-0.507,1.288-1.093,2.549-1.988,4.614
		c2.517-1.713,4.376-2.219,5.662,0.268c0.356,2.344,0.254,4.725,0.741,7.074C63.382,26.4,62.805,28.52,61.407,30.342z"/>
	<path style="fill-rule:evenodd;clip-rule:evenodd;fill:#020202;" d="M277.832,27.754c2.24,0.146,2.863-0.988,2.468-3.023
		c-0.132-0.679-0.005-1.533,0.836-1.551c0.904-0.016,1.378,0.735,1.432,1.632c0.042,0.737-0.562,1.523,0.187,2.201
		c0.248,0.078,0.348,0.359,0.594,0.441c2.344-0.166,4.684,0.325,7.052-0.244c1.502-0.363,1.845,1.186,2.065,2.233
		c0.299,1.413-0.845,1.265-1.718,1.151c-0.976-0.132-1.937,0.519-3.079-0.021c0.578-0.535,1.076-0.997,1.876-1.738
		c-2.776-0.016-5.126-0.166-7.539,0.272c-2.086,0.377-4.247,0.335-6.339,0.844c-1.162,0.285-2.056,0.639-1.84,2.085
		c0.072,0.485-0.087,0.937-0.425,1.311c-0.308,0.343-0.528,0.948-1.022,0.876c-0.582-0.087-0.797-0.696-0.888-1.241
		c-0.23-1.37,0.229-2.685,0.365-4.026c0.036-0.368,0.258-0.719,0.641-0.603c1.586,0.478,3.004-0.616,4.547-0.437
		C277.273,27.697,277.536,27.641,277.832,27.754z"/>
	<path style="fill-rule:evenodd;clip-rule:evenodd;fill:#050505;" d="M255.154,34.933c0-3.246,0.045-6.495-0.025-9.741
		c-0.023-1.07,0.29-1.412,1.352-1.342c1.349,0.088,2.706,0.027,4.058,0.019c0.625-0.003,1.208-0.093,1.176,0.885
		c-0.025,0.806-0.459,0.797-1.04,0.83c-1.133,0.067-2.616-0.524-3.309,0.261c-0.813,0.918-0.267,2.457-0.274,3.721
		c-0.039,5.008-0.006,10.016-0.026,15.022c-0.003,0.719,0.385,1.687-1.04,1.662c-1.37-0.026-0.839-0.984-0.848-1.573
		C255.131,41.429,255.154,38.182,255.154,34.933z"/>
	<path style="fill-rule:evenodd;clip-rule:evenodd;fill:#040404;" d="M332.356,35.252c0,3.181-0.044,6.361,0.023,9.54
		c0.024,1.095-0.206,1.579-1.417,1.485c-1.411-0.107-2.838-0.035-4.261-0.021c-0.532,0.005-0.884-0.08-0.894-0.754
		c-0.013-0.681,0.192-0.934,0.908-0.959c1.191-0.041,2.913,0.58,3.443-0.301c0.603-1.002,0.219-2.612,0.222-3.959
		c0.012-4.938,0.005-9.879,0.005-14.818c0-0.8-0.197-1.658,1.141-1.586c1.355,0.075,0.795,1.047,0.804,1.629
		C332.384,28.756,332.356,32.004,332.356,35.252z"/>
	<path style="fill-rule:evenodd;clip-rule:evenodd;fill:#050505;" d="M279.124,30.605c1.3-0.199,2.653-0.313,3.952-0.645
		c0.757-0.192,1.263-0.201,1.739,0.466c0.467,0.653,0.252,1.14-0.026,1.833c-1.007,2.504-3.488,2.468-5.369,2.728
		c-1.375,0.189-1.756-1.88-1.917-3.297C277.356,30.424,277.939,30.076,279.124,30.605z"/>
	<path style="fill-rule:evenodd;clip-rule:evenodd;fill:#090909;" d="M110.597,44.232c1.019-0.623,2.029-1.166,2.144-2.465
		c-0.079-0.105-0.147-0.282-0.217-0.282c-1.206,0.016-2.223-0.292-2.224-1.718c-0.003-0.983,0.565-1.722,1.642-1.652
		c1.454,0.095,1.839,1.186,1.925,2.418C114.025,42.798,112.729,44.352,110.597,44.232z"/>
	<path style="fill-rule:evenodd;clip-rule:evenodd;fill:#090909;" d="M392.084,45.557c0.199-0.864,1.295-0.648,1.601-1.355
		c0.304-0.702,1.339-1.583-0.538-1.594c-0.87-0.008-1.303-0.681-1.395-1.481c-0.086-0.729,0.251-1.347,0.908-1.674
		c0.659-0.331,1.349-0.248,1.864,0.309c1.041,1.126,1.023,2.428,0.499,3.775C394.398,45.141,393.743,45.595,392.084,45.557z"/>
	<path style="fill-rule:evenodd;clip-rule:evenodd;fill:#F6F6F6;" d="M372.639,35.254c0.222-0.621,0.412-1.253,0.665-1.858
		c0.855-2.034,3.03-3.097,5.446-2.679c0.001,0.005-0.023-0.062-0.022-0.057c-0.981,0.008-1.312,0.715-1.23,1.464
		c0.171,1.544-0.693,1.841-1.935,2.119c-0.897,0.199-2.087-0.144-2.644,1.009l-0.138,0.004L372.639,35.254z"/>
	<path style="fill-rule:evenodd;clip-rule:evenodd;fill:#070707;" d="M80.396,41.758c-0.399,1.16-0.511,2.809-1.887,3.188
		c-1.1,0.304-1.317-1.204-1.823-1.99c-0.893-1.39-1.786-2.782-2.607-4.212c-0.291-0.508-0.994-1.118-0.257-1.721
		c0.387-0.314,1.008-0.488,1.519-0.479C77.208,36.586,80.413,39.896,80.396,41.758z"/>
	<path style="fill-rule:evenodd;clip-rule:evenodd;fill:#F4F4F4;" d="M54.07,25.145c-0.026-0.651,0.113-1.365-0.111-1.943
		c-0.977-2.55,0.24-4.278,3.016-4.357c1.029-0.029,1.035,0.538,1.058,1.178c0.052,1.298,0.122,2.611-0.695,3.754
		c-0.017,0.461-0.226,0.832-0.513,1.174c-0.742,0.701-1.449,1.504-2.647,1.109C54.143,25.754,54.105,25.447,54.07,25.145z"/>
	<path style="fill-rule:evenodd;clip-rule:evenodd;fill:#080808;" d="M232.874,26.998c0.007-0.744,0.028-1.648,0.886-1.767
		c0.799-0.11,0.921,0.798,1.145,1.411c0.045,0.124,0.064,0.259,0.094,0.39c0.171,0.805,0.92,1.582,0.227,2.429
		c-0.256,0.313-0.725,0.283-1.121,0.115C233.427,29.293,232.868,28.121,232.874,26.998z"/>
	<path style="fill-rule:evenodd;clip-rule:evenodd;fill:#0A0A0A;" d="M47.417,39.102c0.137-0.643-0.435-1.77,0.801-2.048
		c0.913-0.205,1.282,0.66,1.709,1.282c0.485,0.7,0.947,1.414,1.47,2.096c0.905,1.178,0.499,3.01-0.354,3.734
		c-1.302,1.102-1.985-0.654-2.655-1.512C47.626,41.687,47.363,40.488,47.417,39.102z"/>
	<path style="fill-rule:evenodd;clip-rule:evenodd;fill:#0B0B0B;" d="M308.397,24.219c0.709,0.021,2.453,1.805,2.423,2.598
		c-0.029,0.701-0.649,1.441-1.031,1.204c-1.039-0.653-2.098-1.476-2.245-2.887C307.492,24.635,307.588,24.162,308.397,24.219z"/>
	<path style="fill-rule:evenodd;clip-rule:evenodd;fill:#101010;" d="M54.177,26.059c0.846-0.566,1.69-1.133,2.536-1.697
		c0.247,0.221,0.41,0.492,0.497,0.809c-0.664,2.977-2.667,4.932-5.04,6.607c-0.826,0.652-1.637,1.244-2.437-0.056
		c-0.559-0.914-0.37-1.652,0.421-2.308C51.498,28.301,52.836,27.176,54.177,26.059z"/>
	<path style="fill-rule:evenodd;clip-rule:evenodd;fill:#070707;" d="M68.898,40.08c-0.208,1.06-0.428,2.589-1.521,2.169
		c-2.068-0.8-2.969-3.027-4.104-4.813c-0.442-0.693,0.456-1.48,1.355-1.257C66.752,36.709,68.395,37.852,68.898,40.08z"/>
	<path style="fill-rule:evenodd;clip-rule:evenodd;fill:#F2F2F2;" d="M61.407,30.342c1.009-4.356,0.51-8.801,0.785-13.201
		c0.932,0.682,0.123,2.234,1.382,2.754c-0.971,0.728-0.987,1.416-0.279,2.475C65.393,25.518,64.723,28.094,61.407,30.342z"/>
	<path style="fill-rule:evenodd;clip-rule:evenodd;fill:#F2F2F2;" d="M52.17,31.777c1.565-2.166,3.131-4.333,4.694-6.5
		c1.52,0.191,0.679,1.166,0.621,1.881c-0.305,2.359,0.184,5.35-3.81,4.838c-0.066-0.01-0.223,0.709-0.337,1.089
		C52.948,32.648,52.558,32.213,52.17,31.777z"/>
	<path style="fill-rule:evenodd;clip-rule:evenodd;fill:#0B0B0B;" d="M283.97,25.84c0.443-0.492,0.865-1.006,1.337-1.469
		c0.383-0.378,0.599-1.22,1.384-0.733c0.513,0.316,0.929,0.837,0.854,1.488c-0.09,0.769-0.71,0.811-1.35,0.849
		c-0.451,0.029-0.891,0.232-1.336,0.358C284.332,26.584,283.941,26.588,283.97,25.84z"/>
	<path style="fill-rule:evenodd;clip-rule:evenodd;fill:#0D0D0D;" d="M60.164,40.965c0.094,0.823-0.025,1.41-0.896,1.517
		c-1.359,0.16-3.501-2.718-3.477-4.626c0.009-0.725,0.102-1.311,1.015-1.279C57.84,36.611,60.137,39.685,60.164,40.965z"/>
	<path style="fill-rule:evenodd;clip-rule:evenodd;fill:#141414;" d="M76.687,12.854c-0.073,1.028-0.51,2.167-1.396,1.937
		c-1.602-0.416-2.514-1.991-3.222-3.362c-0.472-0.921,0.575-1.657,1.527-1.478C75.193,10.258,76.268,11.305,76.687,12.854z"/>
	<path style="fill-rule:evenodd;clip-rule:evenodd;fill:#0F0F0F;" d="M277.832,27.754c-0.262,0.055-0.523,0.109-0.787,0.161
		c-0.417-0.812-0.883-1.606-1.238-2.447c-0.197-0.47-0.391-1.109,0.338-1.35c0.508-0.167,0.809,0.199,1.118,0.608
		C277.969,25.66,278.087,26.661,277.832,27.754z"/>
	<path style="fill-rule:evenodd;clip-rule:evenodd;fill:#282828;" d="M283.97,25.84c0.157,0.414,0.544,0.416,0.89,0.493
		c-0.503,0.373-1.008,0.748-1.512,1.122c-0.199-0.146-0.396-0.294-0.594-0.441C283.16,26.622,283.564,26.231,283.97,25.84z"/>
	<path style="fill-rule:evenodd;clip-rule:evenodd;fill:#727272;" d="M353.918,27.178c-0.557,0.119-1.112,0.262-1.674,0.353
		c-0.242,0.038-0.582-0.013-0.498-0.353c0.045-0.179,0.359-0.289,0.551-0.43C352.677,27.5,353.434,26.82,353.918,27.178z"/>
	<path style="fill-rule:evenodd;clip-rule:evenodd;fill:#FDFDFD;" d="M355.276,44.533c-0.178-2.158-1.597-2.24-3.271-1.9
		c-0.729,0.148-1.47,0.247-2.21,0.318c-0.79,0.074-1.641,0.548-1.838-0.963c-0.188-1.454,0.608-1.495,1.548-1.694
		c1.253-0.271,2.49-0.611,3.74-0.892c0.761-0.171,1.37-0.527,0.977-1.366c-0.303-0.643-0.805-1.259-1.756-0.96
		c-1.094,0.344-2.195,0.67-3.317,0.891c-0.459,0.091-1.331,0.636-1.327-0.486c0.003-0.756-0.525-1.802,0.91-2.038
		c1.326-0.219,2.624-0.613,3.934-0.928c0.62-0.148,1.311-0.38,1.031-1.152c-0.246-0.68-0.773-1.323-1.69-1.107
		c-0.852,0.201-1.678,0.512-2.533,0.692c-0.549,0.114-1.432,0.731-1.556-0.303c-0.097-0.794-0.425-1.941,0.937-2.321
		c1.948-0.545,3.882-1.154,5.81-1.771c0.686-0.22,1.266-0.249,1.334,0.624c0.378,4.854,0.682,9.71-0.004,14.563
		C355.947,44.072,355.81,44.395,355.276,44.533z"/>
	<path style="fill-rule:evenodd;clip-rule:evenodd;fill:#F9F9F9;" d="M165.679,31.781c-0.185-0.774-0.564-1.524,0.63-1.754
		c0.932-0.18,2.526-0.045,2.205-1.367c-0.296-1.217-1.737-0.384-2.801-0.281c-0.209-0.746-0.217-1.742,0.383-1.936
		c1.185-0.383,2.356-1.127,3.683-0.854c0.474,0.098,0.378,0.679,0.385,1.054c0.051,2.434,0.099,4.871,0.081,7.306
		c-0.008,0.869-0.18,1.562-1.428,0.993c-0.502-0.228-1.291,0.197-1.954,0.306c-0.517,0.084-1.093,0.314-1.267-0.518
		c-0.142-0.69-0.059-1.209,0.758-1.347c0.399-0.067,0.822-0.091,1.191-0.245c0.585-0.242,1.545-0.376,1.275-1.247
		c-0.221-0.726-1.064-0.707-1.763-0.521C166.607,31.49,166.162,31.637,165.679,31.781z"/>
	<path style="fill-rule:evenodd;clip-rule:evenodd;fill:#F4F4F4;" d="M381.547,40.299c-0.49,2.127-1.174,3.595-3.496,3.607
		c-0.812,0.005-1.191-0.076-1.436-0.885c-0.262-0.869,0.084-1.225,0.829-1.449C378.716,41.186,379.984,40.785,381.547,40.299z"/>
	<path style="fill-rule:evenodd;clip-rule:evenodd;fill:#F2F2F2;" d="M297.796,30.89c0,1.155,0,2.154,0,3.155
		c0,0.461-0.197,0.745-0.68,0.83c-0.302,0.053-0.477-0.055-0.655-0.296C295.669,33.502,296.332,31.41,297.796,30.89z"/>
	<path style="fill-rule:evenodd;clip-rule:evenodd;fill:#E3E3E3;" d="M299.729,33.768c0.061-1.062,0.09-2.13,0.194-3.19
		c0.067-0.676,0.652-0.907,1.176-0.781c0.488,0.118,0.306,0.637,0.191,1.018C300.975,31.87,300.745,32.965,299.729,33.768z"/>
	<path style="fill-rule:evenodd;clip-rule:evenodd;fill:#E7E7E7;" d="M301.357,35.621c0.104,1.299-0.132,2.343-1.778,2.344
		c-0.638-1.74,0.43-2.152,1.833-2.301L301.357,35.621z"/>
	<path style="fill-rule:evenodd;clip-rule:evenodd;fill:#F0F0F0;" d="M375.439,28.691c0.886-2.445,1.258-2.696,5.112-3.606
		C379.916,27.184,379.916,27.184,375.439,28.691z"/>
	<path style="fill-rule:evenodd;clip-rule:evenodd;fill:#6C6C6C;" d="M57.485,27.158c-0.298-0.597,0.136-1.435-0.621-1.881
		c-0.051-0.305-0.099-0.611-0.151-0.916c0.015-0.402,0.218-0.6,0.624-0.586C58.633,24.848,58.088,26.002,57.485,27.158z"/>
	<path style="fill-rule:evenodd;clip-rule:evenodd;fill:#EDEDED;" d="M282.753,31.657c-0.167,0.325-0.24,0.511-0.351,0.673
		c-0.537,0.812-1.355,1.003-2.246,0.898c-0.148-0.016-0.404-0.439-0.357-0.604c0.284-1.025,1.325-0.61,1.983-0.95
		C281.987,31.567,282.294,31.657,282.753,31.657z"/>
</g>
<g>
	<path style="fill-rule:evenodd;clip-rule:evenodd;fill:#010101;" d="M652.873,137.288c4.233,0.854,5.27-0.526,4.808-6.138
		c-3.897,0.606-7.792,1.219-11.69,1.812c-0.435,0.066-0.904,0.102-1.329,0.015c-0.499-0.1-1.171-0.232-1.196-0.847
		c-0.022-0.584,0.616-0.874,1.089-0.977c1.83-0.396,3.677-0.953,5.526-0.975c2.562-0.029,3.208-1.582,3.802-3.832
		c-3.028,0.799-5.618,2.422-8.662,1.896c-0.271-0.047-0.714,0.672-1.014,1.081c-1.287,1.755-2.557,3.52-3.812,5.296
		c-0.628,0.886-1.393,1.538-2.773,1.755c1.427-4.78,4.477-8.453,7.094-12.377c-0.15-0.109-0.242-0.228-0.35-0.245
		c-1.027-0.164-2.691,0.562-2.837-0.9c-0.122-1.219,1.603-1.566,2.605-1.633c3.181-0.205,5.114-2.09,6.826-4.445
		c0.393-0.541,0.858-1.062,1.388-1.459c0.66-0.497,1.462-0.527,2.021,0.141c0.578,0.689,0.108,1.23-0.47,1.695
		c-0.987,0.797-1.953,1.615-2.78,2.891c0.773,0,1.456,0.167,1.994-0.04c0.785-0.302,1.48-0.816,2.225-0.022
		c0.809,0.859,1.012,1.979,0.477,2.919c-0.667,1.175-0.506,1.722,0.525,2.638c1.305,1.156,0.419,2.616-0.301,3.865
		c0.525,0.607,1.207,0.369,1.677,0.225c2.266-0.698,2.823,0.508,2.865,2.393c0.037,1.732-0.024,3.447-0.535,5.128
		c-0.689,2.251-2.281,3.222-4.538,3.312c-0.909,0.038-1.593-0.103-1.761-1.232C653.652,138.601,653.218,138.023,652.873,137.288z"/>
	<path style="fill-rule:evenodd;clip-rule:evenodd;fill:#010101;" d="M623.021,127.29c-2.491,1.513-3.328,3.966-2.431,6.351
		c0.413,1.099,1.312,1.423,2.277,1.575c2.533,0.401,5.079,0.344,7.629,0.061c2.523-0.277,4.045-1.607,4.406-4.316
		c0.594,1.173,0.328,2.217,1.16,3.217c0.729,0.879,0.135,2.391-1.023,3.273c-1.391,1.062-3.025,1.299-4.671,1.383
		c-2.172,0.109-4.362,0.222-6.527,0.066c-3.49-0.25-5.427-2.268-5.854-5.715c-0.185-1.5,0.333-3.168-1.085-4.392
		c-0.282-0.243-0.222-0.841,0.184-0.946c1.284-0.338,1.04-1.48,1.371-2.333c0.461-1.194,1.268-1.431,2.245-0.601
		c0.339,0.287,0.057,1.328,1.086,0.706c0.754-0.458,1.665-0.601,1.703-1.804c0.041-1.345,0.273-2.686,0.441-4.025
		c0.084-0.709-0.028-1.746,0.998-1.665c0.99,0.081,1.821,0.721,1.84,1.921c0.015,0.891,0.004,1.783,0.004,2.659
		c0.745,0.366,1.109-0.282,1.603-0.542c1.051-0.552,1.877,0.009,2.702,0.531c0.834,0.532,0.536,1.258,0.356,2.008
		c-0.577,2.384-0.676,4.972-3.028,6.531c-0.633,0.42-1.408,1.055-1.992,0.367c-0.507-0.598-0.409-1.369,0.513-2.033
		c0.988-0.712,1.118-2.074,1.216-3.271c0.052-0.667,0.549-1.782-0.395-1.902c-0.9-0.112-1.824,0.55-1.966,1.739
		c-0.151,1.264-0.326,2.528-0.524,3.785c-0.16,1.021-0.175,2.438-1.588,2.27c-1.215-0.143-0.51-1.458-0.623-2.24
		C622.932,129.15,623.021,128.319,623.021,127.29z"/>
	<path style="fill-rule:evenodd;clip-rule:evenodd;fill:#010101;" d="M599.199,118.762c1.933,0.716,0.923,3.031,2.226,4.092
		c0.196,0.106,0.438,0.166,0.484,0.442c0.235,1.46,1.472,1.037,2.099,0.789c1.963-0.773,2.432,0.392,2.727,1.839
		c0.196,0.953,0.252,1.935,0.349,2.906c0.126,1.237-0.021,2.635,1.906,2.564c0.479-0.018,0.832,0.384,0.798,0.89
		c-0.029,0.454-0.238,0.952-0.775,0.955c-2.143,0.007-1.664,1.587-1.812,2.854c-0.134,1.147,0.018,2.334-1.062,3.282
		c-2.359,2.07-3.161,0.085-4.344-1.679c2.801,0.586,2.297-1.306,2.346-2.82c0.023-0.676-0.225-0.959-0.926-0.862
		c-0.894,0.125-1.79,0.215-2.69,0.282c-2.281,0.168-4.32,0.491-3.699,3.672c0.128,0.65-0.248,1.759-1.051,1.743
		c-0.755-0.015-1.067-1.02-1.058-1.775c0.017-1.349,0.031-2.382-1.703-2.925c-0.96-0.299-1.067-1.848,0.381-2.049
		c1.381-0.189,1.219-0.943,1.282-1.837c0.094-1.271,0.17-2.56,0.445-3.798c0.327-1.475,0.493-3.274,2.914-2.436
		c0.405,0.143,1.411,0.047,1.512-0.6c0.108-0.714,0.684-1.548-0.19-2.283c-1.018-0.852-1.283-1.961-0.71-3.211
		C598.818,118.635,599.004,118.63,599.199,118.762z"/>
	<path style="fill-rule:evenodd;clip-rule:evenodd;fill:#010101;" d="M468.165,124.161c1.417-2.167,2.518-4.573,4.556-6.277
		c0.729-0.611,1.445-1.891,2.58-0.843c1.17,1.079,0.205,2.016-0.562,2.863c-0.399,0.44-0.808,0.874-1.232,1.329
		c0.846,0.593,1.858,0.87,2.315,1.815c0.368,0.768,0.657,1.614-0.149,2.258c-0.797,0.638-1.491,0.195-2.209-0.347
		c-0.692-0.522-0.883-2.095-2.031-1.524c-1.227,0.609-1.158,1.947-1.14,3.289c0.017,1.228,0.364,1.209,1.251,0.97
		c1.112-0.301,2.68-1.029,2.995,0.577c0.281,1.441-1.57,1.184-2.502,1.648c-0.682,0.341-2.147-0.354-1.919,1.168
		c0.242,1.599-1.125,3.673,1.28,4.709c2.431,1.046,4.843,2.14,7.584,3.355c-5.975,1.969-10.084-0.646-13.811-4.191
		c-1.416-1.346-2.504-2.17-3.807,0.037c-0.421,0.715-1.248,1.045-2.066,1.255c-0.429-2.455,1.995-7.452,4.09-8.434
		c1.211-0.567,2.025,0.02,2.21,1.585c0.098,0.828-0.423,1.836,0.842,2.481c0.628-1.37,0.248-2.779,0.332-4.126
		C466.855,126.399,466.816,125.02,468.165,124.161z"/>
	<path style="fill-rule:evenodd;clip-rule:evenodd;fill:#010101;" d="M530.9,134.676c-0.041-1.391,0.68-2.287,1.354-3.157
		c3.034-3.915,6.095-7.811,9.182-11.687c0.472-0.595,1.04-1.589,1.974-0.703c0.737,0.699,1.565,1.575,0.859,2.748
		c-0.538,0.893-1.22,1.697-1.713,2.371c3.982,4.218,9.257,6.417,14.372,8.883c0.525,0.252,1.304,0.398,1.121,1.164
		c-0.24,0.996-1.014,0.544-1.656,0.423c-0.361-0.068-0.804-0.138-1.112,0.003c-4.02,1.84-6.521-1.068-9.253-3.026
		c-1.513-1.084-2.772-2.523-4.139-3.811c-1.008-0.949-1.657-1.051-2.811,0.169C536.705,130.559,534.81,133.752,530.9,134.676z"/>
	<path style="fill-rule:evenodd;clip-rule:evenodd;fill:#010101;" d="M487.23,123.059c0.273,0.063,0.348,0.106,0.4,0.088
		c1.419-0.511,3.296-1.723,3.933,0.438c0.495,1.678-1.772,1.826-2.923,2.479c-1.08,0.616-1.853,4.819-0.936,5.644
		c0.344,0.311,0.689,0.089,1.026-0.032c0.58-0.206,1.23-0.44,1.559,0.282c0.303,0.663,0.075,1.347-0.424,1.87
		c-2.212,2.324-5.06,3.689-7.858,5.109c-1.233,0.625-1.916-0.24-2.506-1.208c-0.673-1.099,0.055-1.468,0.867-1.801
		c0.88-0.357,0.522-0.901,0.261-1.454c-0.78-1.652-1.129-3.416-1.215-5.221c-0.036-0.758-0.281-1.879,0.934-1.905
		c1.074-0.024,1.432,0.819,1.505,1.858c0.08,1.115,0.242,2.246,0.56,3.314c0.182,0.605,0.066,1.736,1.177,1.58
		c1.018-0.145,1.057-0.967,1.032-1.886c-0.089-3.456-0.105-6.911-0.084-10.365c0.008-1.271,0.198-2.542,0.305-3.813
		c0.08-0.971,0.586-1.64,1.575-1.461c1.045,0.19,1.707,0.824,1.46,2.095C487.594,120.129,487.439,121.611,487.23,123.059z"/>
	<path style="fill-rule:evenodd;clip-rule:evenodd;fill:#010101;" d="M584.116,135.842c-0.007-3.214,1.565-5.023,2.665-7.005
		c0.553-0.998,0.849-1.624-0.631-1.932c-0.836-0.172-1.573-0.805-1.561-1.694c0.012-0.971,0.966-1.274,1.742-1.506
		c1.965-0.59,3.193-1.574,2.207-3.939c-1.018,0.102-2.088,1.299-3.6,0.283c2.037-2.176,4.554-3.417,7.075-4.615
		c1.083-0.514,1.411,0.529,1.712,1.249c0.327,0.784-0.058,1.262-0.875,1.466c-0.648,0.162-1.688,0.004-1.29,1.25
		c0.256,0.808-0.56,1.842,1.181,2.314c1.795,0.487,0.989,1.983,0.021,3c-0.599,0.627-1.519,0.939-1.547,2.061
		c-0.022,0.953-0.147,1.771,1.115,2.051c0.817,0.183,1.593,0.655,1.382,1.725c-0.17,0.861-0.886,0.964-1.586,0.874
		c-1.074-0.139-1.015,0.538-1.009,1.246c0.013,1.578,0.015,3.158-0.002,4.736c-0.009,0.746,0.039,1.505-0.368,2.194
		c-0.268,0.455-0.516,1.071-1.07,1.035c-0.732-0.045-0.825-0.788-0.84-1.353c-0.062-2.255-0.06-4.511-0.081-6.765
		c-0.002-0.342,0-0.684-0.525-1.348C586.987,132.583,585.742,133.996,584.116,135.842z"/>
	<path style="fill-rule:evenodd;clip-rule:evenodd;fill:#010101;" d="M576.203,137.738c3.505,0.702,3.53,0.699,3.581-2.658
		c0.038-2.472,0.008-4.944,0.008-7.405c-0.164-0.075-0.3-0.198-0.394-0.173c-4.152,1.135-3.975,1.125-4.223-3.062
		c-0.133-2.252,1.137-4.533-0.156-6.743c-0.037-0.064,0.089-0.285,0.192-0.356c1.674-1.137,3.603-0.817,5.438-0.839
		c1.369-0.017,1.652,1.275,1.729,2.262c0.471,6.056,0.966,12.118,0.14,18.187c-0.126,0.917-0.331,1.813-1.079,2.387
		c-1.143,0.878-2.355,2.606-3.484-0.113C577.729,138.683,576.967,138.363,576.203,137.738z"/>
	<path style="fill-rule:evenodd;clip-rule:evenodd;fill:#010101;" d="M497.279,123.444c0.897-0.105,1.464-0.731,2.175-1.041
		c0.726-0.315,1.481-0.201,1.936,0.59c0.421,0.731,0.466,1.443-0.332,1.952c-0.94,0.601-1.859,1.475-2.888,1.652
		c-2.101,0.368-2.234,1.782-2.304,3.373c-0.029,0.6-0.053,1.199-0.059,1.799c-0.039,3.818,1.678,5.062,5.378,4.033
		c2.021-0.562,1.194-2.535,2.083-3.73c0.748,1.033,0.842,2.328,1.438,3.427c0.728,1.343,0.131,2.691-1.335,3.327
		c-2.123,0.923-4.415,1.053-6.615,0.547c-1.953-0.446-2.887-2.159-3.154-4.008c-0.667-4.566-0.309-9.12,0.716-13.606
		c0.256-1.113,0.567-2.762,2.126-2.35c1.68,0.444,1.494,1.98,0.944,3.363C497.311,122.964,497.318,123.19,497.279,123.444z"/>
	<path style="fill-rule:evenodd;clip-rule:evenodd;fill:#020202;" d="M574.304,120.4c0.134,1.688-0.781,3.541-0.661,5.607
		c0.071,1.241-1.505,2.17-2.72,2.78c-1.323,0.666-1.699,1.617-1.604,3.049c0.143,2.173,0.068,4.36,0.097,6.54
		c0.011,0.791-0.132,1.753-0.888,1.869c-1.041,0.158-1.294-0.981-1.35-1.714c-0.502-6.838-0.517-13.671,0.51-20.471
		c0.092-0.606,0.216-1.349,1.322-0.795c0.669,0.334,1.629,0.208,2.439,0.12C573.941,117.121,574.397,117.52,574.304,120.4z"/>
	<path style="fill-rule:evenodd;clip-rule:evenodd;fill:#010101;" d="M562.167,124.818c-1.058,1.631-1.904,2.75-3.701,2.864
		c0.668-4.755,2.794-8.656,6.154-11.924c0.312-0.303,0.801-0.753,1.359-0.19c0.57,0.576,0.836,1.261,0.707,2.04
		c-0.215,1.303-1.083,2.274-1.823,3.296c-0.556,0.767-1.352,1.383-0.384,2.469c0.298,0.336,0.087,1.149,0.064,1.741
		c-0.146,3.897-0.25,7.794,0.044,11.689c0.032,0.444,0.048,0.905-0.038,1.338c-0.161,0.821-0.443,1.811-1.432,1.69
		c-0.811-0.097-0.934-1.088-0.937-1.827C562.152,133.809,562.167,129.609,562.167,124.818z"/>
	<path style="fill-rule:evenodd;clip-rule:evenodd;fill:#020202;" d="M613.539,125.349c-1.16,1.384-1.945,2.827-3.687,3.081
		c-0.494-0.842,0.009-1.653,0.276-2.329c1.262-3.209,2.93-6.218,5.059-8.944c0.38-0.486,0.78-1.32,1.576-0.9
		c0.807,0.427,1.361,1.177,1.289,2.194c-0.016,0.216-0.077,0.476-0.212,0.63c-1.982,2.244-2.312,4.927-2.344,7.797
		c-0.033,2.993-0.302,5.984-0.11,8.983c0.027,0.448,0.058,0.897,0.061,1.348c0.006,1.009-0.758,1.609-1.504,1.645
		c-0.816,0.038-0.746-0.934-0.793-1.579C612.875,133.395,613.046,129.527,613.539,125.349z"/>
	<path style="fill-rule:evenodd;clip-rule:evenodd;fill:#010101;" d="M459.202,137.992c-0.067,0.133-0.157,0.258-0.198,0.396
		c-0.259,0.85-0.422,2.109-1.467,1.945c-1.103-0.173-0.979-1.475-0.995-2.414c-0.028-1.776-0.009-3.555-0.009-5.527
		c-1.275,0.633-1.731,2.128-3.432,2.088c0.609-4.506,3.002-7.872,6.195-10.781c0.782-0.713,1.348-0.183,1.814,0.494
		c0.601,1.015,0.513,2.023-0.112,2.97C458.783,130.512,459.302,134.301,459.202,137.992z"/>
	<path style="fill-rule:evenodd;clip-rule:evenodd;fill:#FCFCFC;" d="M459.202,137.992c-0.398-3.934-1.472-7.955,1.435-11.475
		c0.576-0.698,0.576-1.498,0.475-2.324c0.251,0.148,0.502,0.297,0.753,0.445c0.332,0.377,0.681,0.909,1.166,0.226
		c0.819-1.149,1.759-1.426,2.992-0.645c0.605,0.383,1.259-0.464,1.901-0.013c0.079-0.018,0.159-0.031,0.241-0.046
		c-1.245,2.001-0.667,4.231-0.787,6.371c-0.051,0.866-0.009,1.734-0.009,3.052c-1.511-1.25-3.64-1.537-2.22-3.955
		c0.297-0.506,0.14-1.191-0.456-1.59c-0.712-0.477-1.148,0.114-1.52,0.51c-2.042,2.183-3.271,4.79-3.876,7.704
		C459.266,136.834,459.234,137.413,459.202,137.992z"/>
	<path style="fill-rule:evenodd;clip-rule:evenodd;fill:#040404;" d="M467.924,124.207c-1.284,1.551-2.369,0.662-3.393-0.357
		c-0.741,0.876-1.026,2.254-2.409,2.087c-0.777-0.096-0.022-0.88-0.257-1.298c0.763-2.104,1.538-4.203,2.682-6.137
		c0.347-0.588,0.521-1.665,1.465-1.307c0.922,0.349,1.405,1.528,0.868,2.256C465.317,121.562,466.702,122.822,467.924,124.207z"/>
	<path style="fill-rule:evenodd;clip-rule:evenodd;fill:#050505;" d="M454.56,125.076c0.02-3.781,2.281-6.088,4.933-8.131
		c0.434-0.336,1.036-0.432,1.366,0.154c0.315,0.562,0.91,1.244,0.377,1.856C459.253,121.232,457.364,123.631,454.56,125.076z"/>
	<path style="fill-rule:evenodd;clip-rule:evenodd;fill:#090909;" d="M512.1,136.55c-0.476-0.057-1.004-0.041-1.475-0.196
		c-0.79-0.262-1.195-0.901-1.198-1.723c-0.002-0.814,0.38-1.472,1.147-1.775c0.765-0.303,1.524-0.139,2.051,0.501
		c1.004,1.222,1.023,2.607,0.479,4.026c-0.562,1.465-1.435,2.535-3.534,2.529C510.546,138.648,512.355,138.355,512.1,136.55z"/>
	<path style="fill-rule:evenodd;clip-rule:evenodd;fill:#080808;" d="M601.909,123.296c-0.162-0.147-0.325-0.294-0.484-0.442
		c1.164-1.604,2.27-3.258,3.521-4.789c0.637-0.777,1.598-1.758,2.596-0.6c0.952,1.108-0.025,1.884-0.915,2.512
		C605.059,121.088,603.482,122.189,601.909,123.296z"/>
	<path style="fill-rule:evenodd;clip-rule:evenodd;fill:#0D0D0D;" d="M595.101,118.463c1.366,0.243,1.628,1.209,1.955,2.13
		c0.366,1.02,1.183,1.978,0.538,3.142c-0.273,0.492-0.735,0.447-1.12,0.075c-1.206-1.169-2.081-2.531-2.232-4.242
		C594.182,118.875,594.557,118.455,595.101,118.463z"/>
	<path style="fill-rule:evenodd;clip-rule:evenodd;fill:#080808;" d="M644.885,137.494c-0.125,0.623-0.127,1.685-1.121,1.477
		c-1.916-0.402-1.795-2.393-2.41-3.75c-0.287-0.627,0.228-1.34,0.992-1.489C643.119,133.579,644.853,136.144,644.885,137.494z"/>
	<path style="fill-rule:evenodd;clip-rule:evenodd;fill:#0B0B0B;" d="M599.199,118.762c-0.185,0.012-0.369,0.024-0.554,0.037
		c-0.554-0.021-1.35-0.27-0.626-0.788c1.424-1.015,2.923-2.028,4.719-2.364c0.844-0.16,1.56,0.079,1.7,0.965
		c0.134,0.844-0.638,1.025-1.275,1.248C601.873,118.309,600.412,117.988,599.199,118.762z"/>
	<path style="fill-rule:evenodd;clip-rule:evenodd;fill:#060606;" d="M644.928,116.053c1.406,0.278,2.118,1.402,2.536,2.674
		c0.234,0.708-0.261,1.471-1.046,1.316c-1.385-0.271-2.382-1.209-2.702-2.616C643.55,116.697,644.04,116.188,644.928,116.053z"/>
	<path style="fill-rule:evenodd;clip-rule:evenodd;fill:#141414;" d="M651.996,134.663c-0.094,0.714-0.358,1.64-1.026,1.511
		c-0.755-0.147-1.15-1.09-1.292-1.926c-0.107-0.643,0.058-1.363,0.796-1.322C651.432,132.977,651.689,133.902,651.996,134.663z"/>
	<path style="fill-rule:evenodd;clip-rule:evenodd;fill:#0C0C0C;" d="M648.387,135.66c-0.077,0.743-0.226,1.76-0.93,1.553
		c-0.915-0.271-1.093-1.492-1.41-2.366c-0.185-0.508,0.236-1.173,0.81-1.085C647.874,133.918,648.161,134.841,648.387,135.66z"/>
	<path style="fill-rule:evenodd;clip-rule:evenodd;fill:#141414;" d="M653.934,132.464c0.808,0.233,1.248,0.797,1.314,1.614
		c0.046,0.586,0.097,1.435-0.715,1.353c-1.023-0.104-0.854-1.263-1.17-1.963C653.191,133.084,653.296,132.553,653.934,132.464z"/>
	<path style="fill-rule:evenodd;clip-rule:evenodd;fill:#F7F7F7;" d="M646.479,126.102c1.534-2.079,2.535-4.239,5.232-4.755
		c1.335-0.255,1.242,0.108,0.911,1.063c-0.661,1.909-1.519,3.533-3.936,3.459C648.039,125.85,647.386,126.001,646.479,126.102z"/>
	<path style="fill-rule:evenodd;clip-rule:evenodd;fill:#ECECEC;" d="M601.643,131.689c-0.168-1.021,0.543-1.369,1.202-1.916
		c0.808-0.67,1.733-1.801-0.404-1.953c-1.093-0.079-0.658-0.707-0.646-1.233c0.027-1.145,1.008-0.935,1.658-1.1
		c0.962-0.243,0.633,0.57,0.656,0.991c0.053,0.975-0.055,1.963,0.06,2.926C604.417,131.445,603.596,132.17,601.643,131.689z"/>
	<path style="fill-rule:evenodd;clip-rule:evenodd;fill:#F4F4F4;" d="M597.338,129.146c-0.027,0.828,0.226,1.471,1.115,1.699
		c0.509,0.133,1.44-0.092,1.131,0.877c-0.365,1.148-1.525,0.563-2.308,0.735c-0.744,0.165-0.714-0.548-0.635-1.089
		c0.108-0.74,0.228-1.475,0.345-2.215C597.099,129.012,597.217,129.01,597.338,129.146z"/>
	<path style="fill-rule:evenodd;clip-rule:evenodd;fill:#F1F1F1;" d="M597.338,129.146c-0.117,0.004-0.236,0.008-0.352,0.008
		c-0.026-0.818,0.057-1.629,0.674-2.227c0.434-0.421,1.034-0.613,1.629-0.527c0.49,0.068,0.3,0.562,0.341,0.889
		c0.089,0.689-0.216,1.09-0.89,1.286C598.259,128.714,597.805,128.953,597.338,129.146z"/>
	<path style="fill-rule:evenodd;clip-rule:evenodd;fill:#F3F3F3;" d="M579.87,119.648c-0.108,0.862,0.36,1.852-1.077,1.769
		c-2.015-0.114-0.457-1.725-1.083-2.552c-0.586-0.771,0.805-0.859,1.242-0.869C580.297,117.963,579.592,119.164,579.87,119.648z"/>
	<path style="fill-rule:evenodd;clip-rule:evenodd;fill:#F4F4F4;" d="M579.818,123.115c-0.079,1.311,0.597,2.723-1.271,3.031
		c-0.842,0.141-0.966-0.382-1.061-1.058C577.237,123.324,578.396,123.189,579.818,123.115z"/>
	<path style="fill-rule:evenodd;clip-rule:evenodd;fill:#EBEBEB;" d="M569.583,121.744c-0.415-1.77,0.22-2.689,1.812-3.003
		c0.679-0.132,0.65,0.283,0.713,0.751C572.372,121.443,571.025,121.606,569.583,121.744z"/>
	<path style="fill-rule:evenodd;clip-rule:evenodd;fill:#F8F8F8;" d="M569.402,126.825c-0.189-1.804-0.615-3.542,2.114-3.288
		C571.943,125.25,571.684,126.585,569.402,126.825z"/>
	<g>
		<path style="fill-rule:evenodd;clip-rule:evenodd;fill:#010101;" d="M725.256,123.563c3.006-1.127,6.197-1.662,9.164-2.933
			c1.006-0.43,2.008-0.007,2.393,1.043c0.432,1.176-0.535,1.688-1.42,1.852c-1.764,0.326-2.229,1.393-2.234,3.012
			c-0.003,1.115,0.021,2.396-0.488,3.313c-1.179,2.121-0.056,3.134,1.506,4.125c1.706,1.085,3.408,2.179,5.088,3.306
			c0.346,0.232,0.781,0.614,0.609,1.084c-0.208,0.562-0.784,0.143-1.144,0.244c-3.391,0.945-5.679-0.912-7.861-3.016
			c-0.574-0.555-0.963-0.408-1.533-0.016c-3.136,2.158-6.626,2.504-10.459,1.973c0.834-1.002,1.965-0.897,2.889-1.236
			c1.473-0.539,3.027-0.878,4.451-1.513c0.969-0.43,2.332-0.96,2.243-2.189c-0.093-1.247-0.901-2.345-2.329-2.745
			c-0.839-0.235-1.628-0.774-1.273-1.769c0.332-0.926,1.146-1.094,2.038-0.581c0.323,0.185,0.704,0.273,1.015,0.477
			c0.68,0.445,1.33,0.936,2.039,1.44c0.509-0.6,0.537-1.334,0.65-2.037c0.24-1.51,0.197-2.506-1.867-1.697
			c-1.926,0.755-2.927-0.438-3.404-2.196L725.256,123.563z"/>
		<path style="fill-rule:evenodd;clip-rule:evenodd;fill:#010101;" d="M739.534,134.56c-0.081-1.457,0.73-2.391,1.44-3.311
			c2.982-3.86,6.005-7.691,9.05-11.504c0.471-0.588,1.017-1.612,1.966-0.761c0.759,0.68,1.59,1.562,0.912,2.734
			c-0.519,0.9-1.214,1.7-1.74,2.424c3.994,4.165,9.229,6.408,14.342,8.853c0.566,0.271,1.463,0.396,1.101,1.344
			c-0.31,0.807-0.985,0.318-1.553,0.275c-0.724-0.054-1.573-0.339-2.146,0.264c-0.83,0.874-1.625,0.441-2.471,0.161
			c-3.16-1.045-5.611-3.111-7.908-5.417c-3.221-3.233-3.274-3.264-6.318-0.047C744.309,131.585,742.597,133.785,739.534,134.56z"/>
		<path style="fill-rule:evenodd;clip-rule:evenodd;fill:#010101;" d="M725.326,123.505c-1.071,0.819-1.614,2.134-1.715,3.247
			c-0.096,1.051-0.689,1.312-1.207,1.838c-0.521,0.374-0.996,0.795-1.475,1.461c0.918-0.266,0.828-1.186,1.416-1.508
			c1.305,0.151,1.961,0.98,2.277,2.172c0.213,0.791-0.18,1.617-0.777,1.663c-2.916,0.222-4.947,2.399-7.572,3.245
			c-1.105,0.354-1.813,0.018-2.236-0.868c-0.617-1.296,0.709-1.207,1.316-1.554c0.58-0.332,1.235-0.552,1.881-0.74
			c1.092-0.318,1.154-1.146,0.858-1.947c-0.352-0.951-1.052-0.289-1.449-0.02c-0.883,0.6-1.21,0.041-1.556-0.581
			c-1.386-2.488-1.442-5.177-1.051-7.884c0.146-1.023,0.752-1.431,1.964-0.949c1.499,0.594,2.493,0.127,2.626-1.786
			c0.067-0.96-0.517-2.704,0.871-2.808c1.722-0.126,1.711,1.569,1.6,2.865c-0.081,0.928,0.213,1.151,1.109,1.104
			c3.086-0.17,3.245,0.02,3.045,3.111L725.326,123.505z"/>
		<path style="fill-rule:evenodd;clip-rule:evenodd;fill:#010101;" d="M701.224,130.363c0.429,0.499,0.806,0.341,1.144,0.229
			c0.65-0.216,1.252-0.17,1.504,0.514c0.335,0.899-0.409,1.123-1.037,1.405c-0.398,0.18-1.258-0.064-0.992,0.81
			c0.175,0.565,0.76,0.276,1.168,0.255c1.196-0.065,2.392-0.212,3.588-0.222c0.877-0.008,1.751,0.354,1.807,1.321
			c0.066,1.162-0.904,1.147-1.758,1.133c-0.525-0.009-1.05,0.015-1.574,0.002c-1.756-0.046-3.21,0.048-3.127,2.523
			c0.075,2.261-1.973,2.961-3.631,3.352c-1.516,0.356-1.678-1.251-2.127-2.524c0.816,0.059,1.481,0.245,2.079,0.119
			c0.977-0.206,1.169-1.072,1.153-1.938c-0.023-1.269-0.975-0.653-1.465-0.577c-1.102,0.171-2.162,0.578-3.259,0.796
			c-0.947,0.186-1.683-0.332-1.909-1.187c-0.271-1.026,0.746-0.878,1.311-1.1c1.695-0.667,3.64-0.48,5.348-1.389
			c-0.572-0.814-1.185-0.33-1.708-0.309c-0.755,0.032-1.454-0.097-1.591-0.884c-0.146-0.848,0.674-0.789,1.218-0.909
			c0.558-0.124,1.166-0.138,1.465-0.782c-0.958-0.703-3.011,1.058-3.056-1.035c-0.025-1.122,1.831-0.635,2.785-1.032
			c1.24-0.517,2.557-0.857,3.773-1.421c0.787-0.366,1.353-0.256,1.67,0.453c0.381,0.842-0.428,0.88-0.933,1.152
			C702.423,129.469,701.432,129.44,701.224,130.363z"/>
		<path style="fill-rule:evenodd;clip-rule:evenodd;fill:#020202;" d="M696.209,119.803c2.232,0.108,3.246-0.8,2.754-3.137
			c-0.166-0.791-0.149-1.909,0.916-1.932c1.086-0.021,1.631,0.896,1.572,2.021c-0.032,0.594-0.209,1.197-0.137,1.773
			c0.089,0.727,0.526,0.066,0.801,0.102c0.43-0.205,0.49,0.051,0.486,0.387c2.242,0.929,4.572,0.566,6.854,0.337
			c1.651-0.169,3.01,0.771,3.082,2.455c0.032,0.745-0.281,1.18-0.993,1.202c-1.392,0.045-2.79,0.014-4.429,0.014
			c0.68-0.596,1.248-1.092,1.817-1.59c-0.024-0.172-0.051-0.342-0.076-0.514c-0.914,0-1.828,0.009-2.741-0.002
			c-4.256-0.053-8.434,0.59-12.591,1.396c-1.12,0.219-1.97,0.681-1.765,2.074c0.051,0.353,0.018,0.794-0.154,1.088
			c-0.366,0.616-0.699,1.577-1.486,1.468c-0.801-0.109-1.039-1.045-0.988-1.814c0.085-1.343,0.277-2.678,0.443-4.014
			c0.049-0.407,0.297-0.782,0.727-0.65c1.754,0.531,3.324-0.688,5.033-0.484C695.589,119.742,695.88,119.676,696.209,119.803z"/>
		<path style="fill-rule:evenodd;clip-rule:evenodd;fill:#040404;" d="M782.965,128.088c0,3.532-0.08,7.068,0.038,10.597
			c0.05,1.454-0.419,1.802-1.768,1.696c-1.493-0.118-3.003-0.058-4.507-0.016c-0.77,0.021-1.062-0.23-1.041-1.025
			c0.017-0.717,0.344-0.91,0.965-0.861c0.074,0.006,0.15,0.004,0.226-0.002c3.897-0.318,3.897-0.319,3.897-4.258
			c0-5.638-0.004-11.275,0.004-16.914c0.003-0.844-0.315-1.857,1.219-1.811c1.512,0.045,0.932,1.109,0.941,1.768
			C782.992,120.869,782.965,124.479,782.965,128.088z"/>
		<path style="fill-rule:evenodd;clip-rule:evenodd;fill:#050505;" d="M671.015,127.797c0-3.607,0.044-7.218-0.025-10.823
			c-0.023-1.154,0.265-1.595,1.483-1.511c1.569,0.107,3.154,0.047,4.732,0.018c0.706-0.014,1.104,0.105,1.096,0.969
			c-0.008,0.882-0.471,0.91-1.136,0.943c-1.259,0.064-2.901-0.581-3.681,0.276c-0.922,1.013-0.305,2.726-0.316,4.129
			c-0.047,5.336,0.031,10.674-0.07,16.01c-0.016,0.845,0.994,2.566-1.096,2.483c-2.029-0.08-0.884-1.74-0.924-2.576
			C670.922,134.416,671.015,131.105,671.015,127.797z"/>
		<path style="fill-rule:evenodd;clip-rule:evenodd;fill:#050505;" d="M697.707,122.981c1.465-0.237,2.975-0.359,4.406-0.755
			c0.897-0.247,1.4-0.095,1.896,0.617c0.448,0.646,0.278,1.146,0.007,1.848c-1.117,2.877-3.959,2.863-6.125,3.15
			c-1.393,0.186-1.929-2.137-2.057-3.748C695.711,122.562,696.541,122.486,697.707,122.981z"/>
		<path style="fill-rule:evenodd;clip-rule:evenodd;fill:#0B0B0B;" d="M731.674,120.23c-0.965-0.919-2.182-1.689-2.441-3.199
			c-0.09-0.504-0.102-1.094,0.661-1.18c0.819-0.091,2.893,1.871,2.958,2.766C732.908,119.426,732.443,119.851,731.674,120.23z"/>
		<path style="fill-rule:evenodd;clip-rule:evenodd;fill:#0B0B0B;" d="M702.602,119.018c-0.161-0.129-0.323-0.258-0.486-0.387
			c0.896-0.986,1.791-1.973,2.688-2.956c0.345-0.38,0.675-0.906,1.275-0.437c0.534,0.418,1.015,0.946,0.912,1.68
			c-0.076,0.552-0.455,0.885-1.09,0.881C704.656,117.788,703.678,118.545,702.602,119.018z"/>
		<path style="fill-rule:evenodd;clip-rule:evenodd;fill:#0F0F0F;" d="M696.209,119.803c-0.292,0.061-0.582,0.119-0.875,0.18
			c-0.463-0.903-0.98-1.785-1.375-2.719c-0.22-0.524-0.435-1.232,0.375-1.5c0.564-0.188,0.898,0.223,1.242,0.676
			C696.361,117.477,696.492,118.589,696.209,119.803z"/>
		<path style="fill-rule:evenodd;clip-rule:evenodd;fill:#F2F2F2;" d="M718.389,123.279c0,1.273,0.002,2.381,0,3.492
			c-0.003,0.499-0.19,0.843-0.736,0.938c-0.334,0.06-0.536-0.041-0.736-0.306C716.029,126.246,716.762,123.873,718.389,123.279z"/>
		<path style="fill-rule:evenodd;clip-rule:evenodd;fill:#E3E3E3;" d="M720.533,126.534c0.06-1.107,0.139-2.213,0.178-3.322
			c0.031-0.863,0.592-1.29,1.297-1.139c0.738,0.159,0.338,0.829,0.203,1.29C721.891,124.477,721.693,125.645,720.533,126.534z"/>
		<path style="fill-rule:evenodd;clip-rule:evenodd;fill:#E7E7E7;" d="M722.346,128.543c0.129,1.451-0.19,2.57-1.973,2.612
			c-0.713-1.941,0.474-2.399,2.034-2.566C722.404,128.59,722.346,128.543,722.346,128.543z"/>
		<path style="fill-rule:evenodd;clip-rule:evenodd;fill:#EDEDED;" d="M701.777,123.993c-0.365,0.608-0.5,1.031-0.789,1.271
			c-0.636,0.531-1.404,0.832-2.242,0.606c-0.175-0.049-0.394-0.504-0.344-0.71c0.229-0.972,1.197-0.624,1.816-0.909
			C700.537,124.106,700.932,124.125,701.777,123.993z"/>
	</g>
</g>
</svg>
