<?xml version="1.0" encoding="utf-8"?>
<!-- Generator: Adobe Illustrator 18.0.0, SVG Export Plug-In . SVG Version: 6.00 Build 0)  -->
<!DOCTYPE svg PUBLIC "-//W3C//DTD SVG 1.1//EN" "http://www.w3.org/Graphics/SVG/1.1/DTD/svg11.dtd">
<svg version="1.1" id="圖層_1" xmlns="http://www.w3.org/2000/svg" xmlns:xlink="http://www.w3.org/1999/xlink" x="0px" y="0px"
	 viewBox="0 0 176.7 74.9" style="enable-background:new 0 0 176.7 74.9;" xml:space="preserve">
<path style="opacity:0.3;fill:#61C373;" d="M53.1,25c0,0,2.3-16.2,12-2.7c0,0,3.1-11.4,13.3-11.2c10.2,0.2,12.9,9.9,12.9,12.8
	c0,2.9-1.5,5.8-4.3,6c0,0-2.3,0.3-2.4-3.8c-0.1-4.1-1.9,0.4-1.4,1.6c0.5,1.3,1.1,3.2,3.3,3.5c2.2,0.3,6.9-0.2,6.6-5.5
	c-0.3-5.3-0.5-7-0.5-7s14.4-7.5,22.5,1c0,0,5.3,5.2,6.7,9.5c0,0,5.4,12.8,15,0.6c0,0,6.9-3.7,10.6,2.2l0.6,1.6c0,0-6.1-4.4-11.6,0.7
	c0,0-7.1,9-12.1,8.5c0,0-6.7,0.8-7.3-9c0,0-2.9-13.4-14.5-6.2c0,0-4.7,3.6-2.4,11.1c0,0,1.9,2.5,4.4,1.2c0,0,2.8-1.4,2.2-4
	c0,0-0.6-1.8-0.8-0.6c0,0,0.1,4.2-2.7,3c0,0-2.3-0.1-2.4-2.6c0,0,0.5-8.4,7-8.4c0,0,7-0.6,7.3,6.2c0,0,0.5,13.1-6.6,13.6
	c0,0-1.8,0.5-4.9-1.1c0,0,0.3,1.4-2.4,2.4c0,0-7.2,3.2-8.3-2.9l0.5-3.3c0,0-1.5,3.7-5.1,5.7c0,0-8.4,3.4-14.2-2.4
	c0,0-4.1-4.3-4.6-7.2c0,0-2.6-7.1-8.7-6.3c0,0-7.6,4.1-4.1,8c0,0,3.1,4.1,4.5,2.1c1.4-1.9,2.1-1.2,1.3-3.4c0,0-1.9-1.7-1.5-0.4
	l0.9,1.4c0,0-1,1.4-1.5,1.2c0,0-2.9,0.3-2.8-2.1c0,0-0.7-2.9,1.2-4.1c0,0,1.8-1.6,4.1-0.6c0,0,4.4,1,4.7,4.3c0,0,1.7,10.3-7.5,10.7
	c0,0-10,1.2-13.4-3.1c0,0-4.9-4.5-2.9-12.8C43.7,33.5,47.5,25.2,53.1,25z"/>
</svg>
