<?xml version="1.0" encoding="utf-8"?>
<!-- Generator: Adobe Illustrator 18.0.0, SVG Export Plug-In . SVG Version: 6.00 Build 0)  -->
<!DOCTYPE svg PUBLIC "-//W3C//DTD SVG 1.1//EN" "http://www.w3.org/Graphics/SVG/1.1/DTD/svg11.dtd">
<svg version="1.1" id="圖層_1" xmlns="http://www.w3.org/2000/svg" xmlns:xlink="http://www.w3.org/1999/xlink" x="0px" y="0px"
	 viewBox="0 0 275 25.7" style="enable-background:new 0 0 275 25.7;" xml:space="preserve">
<path style="fill:#010101;" d="M41.3,22.4c-1.1,0.9-2.2,1.6-3.7,1.8c0.3-1.5,0.5-1.9,2.6-4.1c1.2-1.3,2.3-2.5,3.4-3.7
	c-1.8-0.3-2.4,1.7-3.6,2.7c-1.1,1-1.9,2.4-3.8,2.5c0.5-2,2.3-2.9,3.5-4.6c-1.7,0.2-2.5,1.9-4.2,1.6c0.5-1.6,2-2.5,3-3.6
	c-0.7-0.4-1.5,0.4-2.2-0.3c-0.5-0.2-0.7-0.5-0.4-1c0.2-0.8,0.9-0.8,1.5-0.9c3.5-0.6,7-1,10.6-1.1c0.3,0,0.7,0,0.9,0
	c0.7,0.2,1.1,0.7,1,1.4c-0.1,0.7-0.7,0.6-1.2,0.6c-2.3-0.1-4.6,0-6.9,0.3c-0.4,0.1-1.2-0.1-1,0.7c0.1,0.6,0.7,0.3,1.1,0.3
	c1.6-0.1,3.1-0.2,4.7-0.3c1.4-0.1,1.8,1,1.8,2c0,2.5-0.7,4.8-2.2,6.7c-0.8,1.1-2.3,1.1-3.5,1.2c-1,0.1-0.8-1.2-1.2-1.9
	c2.7-0.5,3.6-2.6,4.1-4.7C44.2,19.3,43.1,21.2,41.3,22.4z"/>
<path style="fill:#010101;" d="M114,8.8c0.5-0.1,0.9-0.2,1.4-0.2c0.8,0.1,1.3,0.5,1.5,1.3c0.1,0.8-0.4,1.3-1.1,1.3
	c-1.6,0.1-1.7,1.1-1.6,2.3c0.1,2.4,0.1,4.8,0,7.3c0,1.5-2.8,3.9-4.2,3.5c-1.1-0.3-1.2-1.9-2.5-2.6c4,0.3,4,0.3,4.1-3.5
	c0-1.6,0.1-3.2,0.1-4.8c0-0.9,0-1.5-1.2-1.1c-0.6,0.2-1.3,0.2-1.9,0.2c-0.9,0-1.4-0.7-1.5-1.5c-0.1-0.8,0.7-0.9,1.3-1
	c3.2-0.7,3.2-0.7,3.1-4.1c0-0.3-0.1-0.6,0-1c0-0.6-0.4-1.5,0.4-1.7c0.9-0.2,1.4,0.6,1.5,1.4C113.7,6,113.8,7.4,114,8.8z"/>
<path style="fill:#010101;" d="M118.9,21.9c3.7-1.2,1.7-3.9,2.8-5.8c-1.3,0.2-1.9,0.9-2.6,1.4c-0.5,0.3-0.9,0.9-1.4,0.2
	c-0.5-0.6-0.9-1.4-0.1-2c0.6-0.5,1.3-1,2.1-1.4c1.4-0.6,2.1-1.5,1.5-3.3c-1.2,0.5-2.4,0.4-3.1-1c-0.4-0.8-0.5-1.5,0.7-1.6
	c2.1-0.2,3-1.3,2.5-3.5c-0.2-0.8-0.3-1.9,0.8-2c1,0,1.6,0.9,1.6,1.9c0,1,0.2,1.5,1.1,2.1c0.8,0.5,0.5,1.5-0.4,2
	c-1.4,0.8-1.5,2.1-0.7,3.2c0.7,1-0.5,1.4-0.4,2.2c0.2,1.4,0,2.8,0,4.2c0,0.6,0,1.1-0.1,1.7c-0.1,1.6-0.7,3.1-2.1,3.5
	C119.7,24.4,120.4,22,118.9,21.9z"/>
<path style="fill:#030303;" d="M58.2,11.5c0,0.6-0.6,0.2-0.8,0.5c-0.6,0.5-1.3,1.1-2,0.3c-0.8-0.9,0.3-1.3,0.7-1.9
	c0.6-0.8,2.3-1.4-0.2-2.1c-0.9-0.2-0.3-1.3,0.5-1.5c0.8-0.2,1.3-0.4,1.1-1.3c-0.1-0.4-0.3-0.6-0.6-0.4c-0.7,0.4-2-0.1-2,1.2
	c-0.1,1-0.1,1.9-0.1,2.9c0,4,0,7.9,0,11.9c0,0.3,0,0.5,0,0.8c0,0.7,0,1.6-0.8,1.7c-1,0.1-1.1-1-1.1-1.7c-0.3-3.5-0.3-7-0.2-10.5
	c0.1-2.3,0.3-4.6,0.6-6.9c0.1-0.8,0.2-1.8,1.5-0.8c0.7,0.6,1.7,0.3,2.6,0.1c1.8-0.4,2.3,0,2.5,1.8c0.1,0.6-1.2,2,0.8,1.9
	c0.2,0-0.1,0.9-0.3,1.3c-0.3,0.8-1.3,1.3-1.5,2.2C58.8,11.5,58.5,11.6,58.2,11.5z"/>
<path style="fill:#010101;" d="M123.8,22.5c-0.3-0.6,0-1.1,0.3-1.6c1.5-2.5,2.9-4.9,4.5-7.4c0.4-0.6,0.7-1.4,1.7-0.5
	c0.7,0.6,1.6-0.1,2-0.8c0.7-1.2,1.5-0.8,2.2-0.2c0.9,0.8-0.1,1.2-0.5,1.6c-1.4,1.7-2.1,3.6-2.4,5.7c-0.1,1.3,0.4,1.9,1.8,1.9
	c1.2,0,2.4,0,3.3-0.6c1-0.6,0.3-2.1,1-3.2c0.2,1.3,0.4,2.5,1.3,3.4c0.8,0.9,0,1.5-0.6,2c-1.4,1.3-4.8,1.5-6.7,0.5
	c-2.1-1-2-2.9-1.8-4.8c0.1-1.2,0.6-2.2,0.9-3.4C127.8,17,127,20.8,123.8,22.5z"/>
<path style="fill:#010101;" d="M36,13.6c0.1,0.3,0.2,0.7,0.4,1c-0.9,2-1.9,4-3.5,5.5c-0.5,0.4-1,0.8-1.5,1.2
	c-0.6,0.4-1.1,0.2-1.6-0.1c-0.6-0.4-0.5-1-0.3-1.6c0.2-0.6,0.7-1.2,1.2-1.4c1.8-0.9,1.2-2.6,1.3-4c0-0.9-0.8-0.6-1.3-0.8
	c-0.7-0.4-1.4-0.8-1.5-1.6c-0.1-0.8,0.7-1.2,1.3-1.5c1.3-0.5,1.5-1.3,1.4-2.5c-0.1-0.8-0.1-1.7-0.1-2.5c0-0.7,0.4-1.3,1.1-1.3
	c0.8-0.1,1.3,0.5,1.4,1.3c0.1,0.5-0.1,1-0.1,1.5c-0.1,0.9-0.4,1.9,1.2,1.5c0.5-0.2,1,0.3,1.1,0.9c0.2,0.9-0.1,1.8-0.8,2.2
	c-1.7,1-1.8,2.4-1.5,4.2C35.2,15.2,35.6,14.5,36,13.6z"/>
<path style="fill:#020202;" d="M72.4,19.7c1.8-2.7,3.6-5.3,5.6-8.2c-1,0-1.5,0.6-2.1,0.9c-1,0.4-2,0.2-2.5-0.7
	c-0.6-1.2,0.7-1.3,1.3-1.5c1.5-0.6,3-1.1,4.5-1.6c0.7-0.2,1.3,0,1.7,0.6c0.4,0.6-0.2,0.9-0.6,1.3c-0.8,0.8,0.1,2.2-1.2,3
	c2.5-0.3,3.2,0.3,3,2.7c-0.1,2.3-0.9,4.2-2.7,5.7c-0.8,0.7-1.9,1.1-2.8,0.7c-0.9-0.4-0.8-1.4-1.1-2.3c2.7,0.3,5-2.3,4.4-4.9
	c-0.1-0.2-0.1-0.6-0.4-0.5c-0.8,0.2-1.6,0.1-2.2,1C76.1,17.6,74.4,18.9,72.4,19.7z"/>
<path style="fill:#E64642;" d="M152.6,17.4c2.1,0.6,2.1,0.7,0.2,4.1c1,0,1.9-0.1,2.8,0c1,0.1,1.8,0.6,1.7,1.7c-0.1,1-1,0.9-1.8,0.9
	c-3.2-0.2-6.4-0.1-9.5,0.6c-1.1,0.2-1.8-0.1-2.1-1.1c-0.3-1.3,0.8-1,1.5-1.1c0.9-0.1,1.3-0.4,0.8-1.3c-0.4-0.7-0.5-1.4-0.4-2.2
	c1.1-0.4,1.8-0.1,2.2,1.1c0.2,0.6,0.4,1.3,1.2,1.3c0.8,0,1.4-0.4,1.8-1.1C151.5,19.2,151.5,17.9,152.6,17.4z"/>
<path style="fill:#030303;" d="M80.7,12.8c1.7-2.8,3.2-5.3,4.6-7.8c0.4-0.7,1-0.8,1.6-0.4C87.6,5,88.3,5.4,88.8,6
	c1.6,2.2,3.9,3.7,6,5.2c0.3,0.2,0.6,0.3,0.6,0.7c0,0.2-0.3,0.4-0.5,0.5c-3.3,0.7-5.4-0.4-7.2-3.7c-0.1-0.2-0.2-0.5-0.3-0.7
	c-0.5-1-1-0.9-1.6-0.1c-0.9,1.2-1.8,2.3-2.8,3.4C82.4,11.9,81.9,12.6,80.7,12.8z"/>
<path style="fill:#030303;" d="M128.1,11.5c-1.2,0-2-0.7-2.2-1.6c-0.2-1.3,1-0.8,1.6-1c2.1-0.6,4.3-1.1,6.4-1.7c1-0.3,2-0.4,2.4,0.8
	c0.4,1.2-0.7,1.5-1.6,1.7C132.6,10.3,130.3,10.9,128.1,11.5z"/>
<path style="fill:#090909;" d="M61.5,17.8c0.3-0.1,0.6-0.3,0.9-0.4c0.2,0.2,0.6,0.3,0.7,0.5c0.5,0.8,0.9,1,1.3,0
	c0.2-0.4,0.6-0.5,1-0.3c0.8,1.5,0.7,2.7-1.1,3.1c-0.9,0.2-1.3,0.6-1.2,1.6c0,0.6-0.3,1.1-1,1.6C61.3,21.9,61.9,19.8,61.5,17.8z"/>
<path style="fill:#040404;" d="M85.2,18.2c1.8-0.1,4.2,2.8,3.6,4.2c-0.2,0.5-0.5,0.9-1,1.1c-0.6,0.1-0.9-0.4-1.1-0.8
	c-0.6-1-1.1-2.1-1.9-3C84.3,19,84.5,18.3,85.2,18.2z"/>
<path style="fill:#090909;" d="M85.9,16.6c0.2-1.1,0.2-1.9-0.8-2.5c-0.7-0.4-0.4-1.1,0.3-1.2c1.2-0.2,2.4,0.1,3.3,0.9
	c0.4,0.4,0.5,0.9,0.3,1.4c-0.2,0.6-0.6,0.8-1.2,0.7C87,15.8,86.6,16.3,85.9,16.6z"/>
<path style="fill:#060606;" d="M129.8,3.5c0.6,0.2,1.4,0.4,2.1,0.9c0.8,0.6,1,1.4,0.4,2.3c-0.7,1-1.1,0.1-1.7-0.2
	c-0.8-0.4-1.6-0.8-2-1.7C128.2,3.9,128.4,3.3,129.8,3.5z"/>
<path style="fill:#0B0B0B;" d="M98.2,6.6c0,0.7-0.2,1.4-0.8,1.3c-1.4-0.2-1.6-1.5-1.8-2.6c-0.1-0.7,0.2-1.2,0.9-1.2
	C98.1,4.2,97.8,5.7,98.2,6.6z"/>
<path style="fill:#0A0A0A;" d="M110,16.4c0,1-0.5,1.2-1.2,1.1c-1.3-0.2-1.9-1.2-2.1-2.4c-0.1-0.6,0.5-0.8,1-0.7
	C109,14.6,109.8,15.3,110,16.4z"/>
<path style="fill:#E64642;" d="M151.2,6.3c-0.3-0.3-0.6-0.5-0.9-0.8c0.8-0.9,1.8-1.8,2.9-2.4c0.8-0.4,1.4-0.2,1.7,0.6
	c0.3,0.8-0.5,0.8-0.9,1.1C153,5.2,151.6,4.8,151.2,6.3z"/>
<path style="fill:#0A0A0A;" d="M77.7,3.8c0.8,0.2,1.7,0.6,1.8,1.6c0.1,0.6,0,1.4-0.6,1.7c-0.6,0.3-0.7-0.5-1-0.8
	C77.6,6,77.3,5.7,77,5.5c-0.5-0.2-0.7-0.5-0.6-1C76.6,3.9,77.1,3.9,77.7,3.8z"/>
<path style="fill:#E64642;" d="M142.8,10c-0.4,0-0.8,0.9-1.3,0.2c-0.5-0.7-1.5-1-1.5-2.1c0-0.4,0.2-0.6,0.6-0.7
	c0.5-0.1,1-0.1,1.4,0.4C142.5,8.4,142.7,9.2,142.8,10C142.7,10.1,142.8,10,142.8,10z"/>
<path style="fill:#0C0C0C;" d="M103.9,6.6c0.4-0.9,0.9-1.6,1.7-2.3c0.5-0.4,1.1-0.8,1.6,0c0.4,0.7,0.2,1.2-0.5,1.5
	c-0.7,0.3-1.5,0.4-1.9,1.1C104.3,7.3,104,7.3,103.9,6.6z"/>
<path style="fill:#1A1A1A;" d="M58.2,11.5c0.2-0.1,0.4-0.2,0.6-0.4c0.4-0.1,0.9-0.4,1.2,0.1c0.3,0.5,0,1-0.3,1.4
	c-0.6,0.7-1.6,0.8-1.9,1.7c-0.4-0.1-0.7-0.3-1.1-0.4C57.5,13.3,58.1,12.5,58.2,11.5z"/>
<path style="fill:#E64642;" d="M182.7,18.3c-0.6-0.7-1.5-1.5-2.4-1.3c-1.7,0.5-3.4,0.1-5.1,0.5c-0.4,0.1-1.2,0.6-1.4-0.4
	c-0.1-0.8,0.5-1.1,1.2-1.1c1.5,0,2.5-0.6,3.1-2.1c0.3-0.7,1.3-1.2,0.7-2.2c-0.6-1-1.5-0.9-2.5-0.8c-0.9,0-2.1,0.8-2.6-0.6
	c0.5-0.7,1.9-0.3,1.9-1.6c0.1-1.5,1-2.2,2.5-2.2c0.7,0,1.2-0.4,1.3-1.2c0-0.8-0.6-1.2-1.2-1.2c-0.8,0-1.1-0.4-1.3-1.1
	c-0.2-0.5-0.7-1.1-1.5-1c-0.6,0.2-0.9,0.7-0.9,1.4c0.1,1.1-0.5,1.3-1.4,1.2c-0.7,0-1.5,0.3-1.5-1c0-0.8-0.8-1.4-1.6-1.4
	c-0.8,0-0.8,1-0.8,1.5c0.1,1.4-0.8,1.3-1.7,1.4c-0.6,0.1-1.5-0.3-1.6,0.6c-0.1,0.8,0.4,1.4,1.1,1.9c0.4,0.3,0.8,0.3,1.3,0.3
	c0.6-0.1,1,0.2,1,0.8c0,1.4,0.5,2.3,2.2,2.3c-1.2,0.5-2.3,1.2-3.6,0.8c-0.4-0.1-1-0.3-1.1,0.3c-0.4,1.7,0.3,3.1,1.2,4.5
	c0.7,1.1,1.4,0.6,2.2,0.2c0.3-0.1,1-0.7,1.2,0.1c0.2,0.8-0.2,0.9-0.9,1c-2.2,0.3-4.4,0.6-6.5,1.4c-1.3,0.5-1.5,1.2-0.5,2.1
	c0.6,0.6,1.3,0.6,2.1,0.3c1.5-0.5,3-1,4.5-1.4c0.9-0.3,1.4-0.2,1.4,1c-0.1,1.3,0.1,2.5,0.2,4.1c1.6-1.4,2.4-2.8,2.1-4.6
	c-0.1-0.9,0.3-1.1,1.1-1.1c2.1-0.2,4.2-0.5,6.3,0.1c0.6,0.2,1.1,0.2,1.5-0.4C182.7,19.2,183,18.8,182.7,18.3z M171.4,14.3
	c0.1,1.1-0.9,0.9-1.4,1c-0.7,0.2-1-0.3-0.9-0.8c0.1-0.9,1.1-0.7,1.7-0.9C171.3,13.3,171.4,13.8,171.4,14.3z M171,8.9
	c-0.5,0.1-0.6-0.3-0.6-0.7c0.1-1,0.9-0.7,1.5-0.8c0.3-0.1,0.8-0.2,0.8,0.4C172.4,8.8,171.6,8.8,171,8.9z M173.8,13.7
	c0.2-1.7,1.6-0.9,2.6-1.4c-0.2,1.4-0.7,2.3-2,2.3C173.6,14.7,173.8,14.1,173.8,13.7z"/>
<path style="fill:#010101;" d="M70.4,5.2c-0.1-0.9-0.4-2.1-1.6-2c-5.4,0.3-5.6-1.1-5.9,5c0,0.6-0.2,1.3,0.2,1.9c0.3,0.4,0,0.6-0.2,1
	c-0.8,2.1-3.2,2.2-4.6,3.7c0,0-0.4-0.3-0.6-0.4c-0.2-0.5-0.6-0.7-1.1-0.4c-0.8,0.6-0.6,1.1,0.2,1.5c1,0.5,0.8,1,0.1,1.5
	c-0.4,0.3-0.8,0.6-0.6,1.2c0.2,0.7,1.1,0.5,1.6,1.1c-0.6,0-1-0.8-1.6-0.3c-0.1,0.8-0.6,1.7-0.1,2.4c0.6,0.8,1.5-0.4,2.2-0.1
	c0.2,0.9-0.7,1.6-0.5,2.6c1.8-0.9,2-2.6,2-4.1c0-1.2,0.4-1.8,1.5-2c0.4,0.2,0.8,0.2,1.2,0.1c0.9-0.3,2-0.3,2.8-0.8
	c1.1-0.8,0.9-1.3-1-2.5c0.2-0.2,0.4-0.4,0.6-0.7c0.3-0.4,0.7-0.9,0.2-1.3c-0.5-0.4-0.9,0.2-1.3,0.5c-0.1,0.1-0.3,0.3-0.4,0.4
	c-0.3,0.4-0.6,0.7-1,0.2c-0.4-0.5,0.2-0.6,0.3-0.9c1.2-2,3-2.6,5.2-2.7c0,3,0.1,6.1,0,9.1c-0.1,2.7-0.2,2.7-2.8,2.8
	c0.3,0.7,1.3,0.8,1.4,1.7c0.1,0.7,0.8,0.7,1.2,0.4c1.2-0.7,2.3-1.5,2.6-3.1C71.2,15.8,70.9,10.5,70.4,5.2z M61.4,16.5
	c-0.1-0.7-1.8-0.6-0.9-1.8c0.5-0.7,1.1-0.2,1.5,0.1C62.8,15.6,61.6,15.9,61.4,16.5z M65.3,8.9c-0.4,0.1-0.9,0.2-1.1-0.4
	c-0.2-0.6,0.3-0.7,0.7-0.9c0.5-0.2,1.3-0.2,1.2-1c-0.1-0.8-0.8-0.6-1.3-0.6c-1-0.1-0.4-0.8-0.2-1c0.6-0.5,1.4-0.8,2.1-0.6
	c0.7,0.2,0.5,0.9,0.5,1.5c0,0.3,0,0.5,0,0.9C67.7,8.5,66.5,8.7,65.3,8.9z"/>
<path style="fill:#010101;" d="M107.3,7.7c-0.6-0.2-1.3,0-1.9-0.3c-0.7-0.3-1.3-0.7-0.8-1.6c0-0.2,0-0.4,0-0.6c0-1,0.3-2.4-1.1-2.4
	c-1.1,0-0.7,1.4-0.8,2.2c-0.2,1.1,0.2,2.3-1,3.4c-0.4-1.5,0-2.8,0.2-4.1c0.1-0.6-0.1-1.2-0.7-1.4c-0.8-0.3-0.9,0.5-1,1
	c-0.2,0.7-0.4,1.5-0.3,2.3c0.4,2.1-0.6,2.8-2.5,2.7c-0.8,0-1.9-0.1-1.7,1.2c0.1,1.2,1,1.4,2,1.1c0.7-0.2,1.1-0.2,1.2,0.7
	c0.1,0.7,0.8,1.1,0.7,2c-0.6,0.1-1.2,0.1-1.7,0.2c-0.7,0.1-1.3,0.4-1.1,1.2c0.2,0.7,0.7,1,1.4,0.9c0.6-0.1,1.1-0.3,1.7-0.3
	c0.3,0,0.8-0.3,0.8,0.4c0,0.4,0,0.8-0.5,0.9c-0.4,0.1-0.9,0.1-1.3,0.2c-0.7,0.1-1.5,0.2-1.3,1.2c0.2,0.8,0.8,1,1.6,1
	c0.5,0,1.1-0.9,1.4,0.1c0.3,0.9-0.5,1-1.1,1.2c-0.4,0.1-0.7,0.2-1.1,0.4c-0.6,0.3-1.7,0.3-1.2,1.5c0.5,1,1.3,1.4,2.3,0.8
	c1.4-0.8,2.9-1.2,4.4-1.9c0.8-0.3,1.5-0.7,2.2-1.1c0.5-0.3,0.8-0.9,0.6-1.5c-0.3-0.7-0.9-0.1-1.3,0c-0.6,0.1-1.2,0.4-1.8,0.5
	c-0.3,0.1-0.7,0.4-0.9-0.2c-0.1-0.4,0-0.8,0.4-0.9c0.4-0.1,0.7-0.2,1.1-0.4c0.8-0.3,1.8-0.6,1.4-1.7c-0.4-1.1-1.3-0.3-2-0.2
	c-0.3,0-0.8,0.5-0.9-0.1c-0.2-0.5,0.1-0.9,0.6-1c0.8-0.3,1.6-0.5,2.3-0.8c0.5-0.2,0.9-0.6,0.7-1.2c-0.2-0.6-0.7-0.7-1.2-0.7
	c-0.4,0-0.8,0.4-1.3,0.1c0.9-0.7,2.1-1.3,1.1-2.7c0.8-0.1,1.4-0.2,2-0.3c0.4-0.1,0.9-0.3,1-0.8C108.3,8.1,107.9,7.9,107.3,7.7z
	 M101.8,13.1c-0.1,0.3-0.4,0.5-0.8,0.4c-0.3-0.1-0.2-0.4-0.3-0.6c-0.4-2.5-0.2-2.7,2.8-2.7C102.8,11.2,102.1,12.1,101.8,13.1z"/>
<g>
	<path style="fill:#E64642;" d="M160.8,12c-1.8-1.2-3.9-1.8-5.6-3.4c0.8-0.4,1.5-0.7,2.1-1c0.5-0.3,1.1-0.5,1-1.2
		c-0.1-0.5-0.3-1-0.8-1.2c-0.6-0.3-0.9,0.4-1.2,0.7c-1.3,1-2.5,2.6-4,0.4c-0.4-0.2-0.1-1.1-0.9-0.8c-0.7-0.4-1.7-0.3-2-1.5
		c-0.1-0.6-1-0.7-1.7-0.4c-0.5,0.2-1.1,0.3-1.6,0.4c-0.7,0-1.6-0.5-2.1,0.4c-0.2,0.4,0,0.8,0.3,1.1c0.7,0.9,1.4-0.1,2.1-0.1
		c0.1,0,0.2,0.1,0.4,0.3c-1,1.4-1.4,3.2-2.9,4.3c-1.1,2.5-3.1,4.3-4.7,6.9c3.6-1.4,5.2-4.3,7.4-6.7c1.4,1.8,4.3,1.4,6-0.7
		c2.4,2,4.3,4.9,8.1,3.9c0.5-0.1,1.3,0.6,1.5-0.1C162.3,12.4,161.3,12.3,160.8,12z M145.8,9.3c0.9-1.4,1.6-2.5,2.5-3.8
		c0.3,1.3,1.5,1.6,2.1,2.8C149,8.7,147.7,9,145.8,9.3z"/>
	<path style="fill:#E64642;" d="M143.7,10.1C143.8,10,143.8,10,143.7,10.1C143.8,10,143.8,10,143.7,10.1L143.7,10.1z"/>
</g>
<path style="fill:#010101;" d="M221.4,7.5c0.9,0.3,1.7,0.1,2.4-0.2c1.5-0.5,2.9,0.1,2.9,1.5c0.2,3.7,0.7,7.5-0.7,11.2
	c-1,2.5-3.1,2.9-5.2,3.5c-0.6,0.2-0.8-0.3-0.9-0.7c-0.3-0.6-0.5-1.3-0.8-1.9c2.9,0.1,4.1-0.8,4.8-3.7c0.6-2.5,0.3-5.1,0.4-7.6
	c0-0.4-0.1-1-0.6-0.7c-1.3,0.9-3.5,0.5-4.2,2.5c-0.2,0.7-0.9,0.8-1.4,0.7c-0.7-0.1-0.8-0.8-0.7-1.4c0.5-2.5,1.4-4.9,2.7-7.1
	c0.3-0.5,0.6-1.2,1.5-0.9c0.8,0.3,1.2,1,1.1,1.8C222.4,5.6,222.1,6.6,221.4,7.5z"/>
<path style="fill:#020202;" d="M230.4,11.4c-1,0.6-1.8,1.3-2.8,1.6c-0.5-0.5-0.1-1,0-1.4c1-2.6,2.4-5,4.2-7.2
	c0.4-0.5,0.9-1.2,1.7-0.6c0.7,0.5,1.3,1.5,0.6,2.1c-2,1.9-1.7,4.5-2,6.8c-0.4,2.5-0.3,5.1-0.2,7.6c0,0.4,0.1,0.8,0.1,1.1
	c0,0.9-0.7,1.3-1.3,1.4c-0.6,0.1-0.7-0.8-0.7-1.3c-0.1-2.5-0.1-5.1,0.2-7.6C230.3,13,230.3,12.2,230.4,11.4z"/>
<path style="fill:#070707;" d="M236.1,13.8c0.1,0.1,0.3,0.3,0.4,0.4c-0.9,0.3-1.4,0.8-1.3,1.9c0.1,1.4-0.1,2.8-0.1,4.2
	c0,0.7-0.3,1.2-1,1.2c-0.7,0-0.7-0.7-0.7-1.1c0.3-4.3,0.2-8.6,0.9-12.9c0.2-1.3,0.8-1.4,1.7-0.5c0.4,1.6,0.1,3.2,0,4.9
	C236,12.4,235.7,13.1,236.1,13.8z"/>
<path style="fill:#060606;" d="M237.5,25.1c1.5-3,4-4.7,5.2-7.5c0.3-0.6,0.8-0.5,1.3-0.1c0.5,0.5,0.7,1.2,0.4,1.8
	C242.6,21.7,240.9,24.2,237.5,25.1z"/>
<path style="fill:#E64642;" d="M203.6,22.6c0,0.7-0.1,1.5-0.9,1.7c-0.9,0.2-1-0.5-1.2-1.1c-0.4-0.8-0.9-1.6-1.2-2.3
	c-0.3-0.5-0.4-1.1,0.2-1.6c0.5-0.4,1-0.1,1.4,0.2C202.9,20.2,203.6,21.2,203.6,22.6z"/>
<path style="fill:#0D0D0D;" d="M253.6,11.4c-0.3,1,0.4,2.7-0.8,2.8c-1.1,0.1-1.1-1.6-1.3-2.6c-0.2-0.8-0.1-1.6,0-2.5
	c0.1-0.5,0.4-1,1-1c0.7,0,0.8,0.5,0.9,1.1C253.5,9.9,253.5,10.7,253.6,11.4z"/>
<path style="fill:#E64642;" d="M189.3,23.1c-0.2,0.6-0.1,1.3-0.9,1.5c-0.7,0.1-1.1-0.3-1.4-0.9c-0.4-0.9-0.7-1.8-1-2.7
	c-0.2-0.6,0.2-1.1,0.7-1.4c0.7-0.4,1,0.2,1.3,0.7C188.6,21.2,189.1,22.1,189.3,23.1z"/>
<path style="fill:#0C0C0C;" d="M238.1,19.5c0.9-2,2.6-3.1,3.8-4.4c0.4-0.4,0.9-0.9,1.4-0.2c0.4,0.6,0.5,1.1-0.1,1.7
	C241.8,17.9,240.5,19.3,238.1,19.5z"/>
<path style="fill:#0E0E0E;" d="M240,12.7c0.1-0.2,0.2-0.3,0.3-0.5c0.7-0.3,1.3-1.7,2.3-0.3l0,0c-0.1,1.9-1.9,3.5-4.4,3.7
	C238.4,14.3,239.4,13.7,240,12.7z"/>
<path style="fill:#090909;" d="M220.2,16.6c-0.7,0.1-2.8-1.9-2.8-2.6c0-0.6,0.2-1,0.9-1c1.3,0.1,2.5,0.6,2.8,2.1
	C221.2,15.9,220.9,16.4,220.2,16.6z"/>
<path style="fill:#E64642;" d="M198.1,21.7c-0.1,0.6-0.3,1.3-0.8,1.2c-1.2-0.4-1.7-1.4-1.9-2.6c-0.1-0.5,0.2-1.1,0.8-0.9
	C197.5,19.7,197.8,20.8,198.1,21.7z"/>
<path style="fill:#010101;" d="M259.9,8.1c-0.2-0.7-0.6-1.1-1.2-1C258.8,7.8,259.2,8,259.9,8.1z"/>
<path style="fill:#E64642;" d="M191.8,19.8c1.1,0.3,1.8,1.2,2,2.3c0.1,0.6-0.3,1.5-0.8,1.3c-1.1-0.4-1.4-1.7-1.9-2.7
	C190.8,20.3,191.3,19.9,191.8,19.8z"/>
<path style="fill:#010101;" d="M265.6,15.6c3.1-0.8,4.7-2.7,4.7-5.4c0-1.7-0.5-1.9-2.1-1.5c-1,0.2-2.6,0.8-3.1-0.2
	c-0.7-1.4,1.2-1.2,1.8-1.8c0.1-0.1,0.2-0.1,0.3-0.2c0.4-0.4,0.8-0.7,0.5-1.3c-0.3-0.5-0.7-0.5-1.2-0.4c-1.1,0.3-1.8,0.3-1.8-1.2
	c0-0.6-0.8-0.8-1.4-0.7c-0.6,0.1-0.5,0.7-0.4,1.1c0.3,1.3-0.3,1.8-1.6,1.9c-0.5,0-1,0.4-1.6,0.7c-0.3,0.9-0.1,1.3,0.4,1.6
	c0,0,0.1,0,0.1,0c0.5,0,1.5-0.7,1.6,0.5c0,0.1,0,0.1,0,0.2c0.1,0,0.1,0.1,0.1,0.1c-0.1,0-0.1,0-0.2,0.1c-0.1,1-1.2,0.6-1.8,0.8
	c-0.9,0.3-1.6-0.2-1.5-1.1c0-0.6,0-1.1-0.3-1.3c-0.2,0.2-0.5,0.5-0.7,0.7c-0.7,0.2-0.5-0.3-0.6-0.6c-0.1-0.8,0.1-1.6-0.1-2.5
	c-0.2-0.5-0.5-1-1.1-0.9c-0.5,0.1-0.8,0.7-0.8,1.2c-0.1,0.9-0.1,1.9-0.1,2.9c0,4.5-0.6,8.9-3.7,12.6c-0.4,0.5-0.8,1.1-0.8,2
	c2.3-0.9,3.4-2.9,4.9-4.7c0.3,0.4,0.6,0.6,0.8,0.9c0.4,0.5,0.9,1.1,1.6,0.7c0.6-0.5,0.5-1.3,0.2-1.9c-0.2-0.5-0.5-0.9-1-1.1
	c-0.8-0.3-0.9-0.8-0.7-1.6c0.2-1,0.3-2,0.4-3c0.1-1.1,0.5-1.8,1.6-2c0.2,1.3,0.3,2.7,0.6,3.9c0.3,1.2,0.4,2.8,1.5,3.4
	c1,0.5,0.5,0.6,0.1,1c-1.2,1.4-2.7,2.4-3.3,4.4c2.3-1.1,4-2.4,5.7-4.3c0.1,3.6,0,3.8-2.3,4.1c1.1,1.2,1.9,3.1,3.8,0.9
	c0.7-0.8,0.7-1.7,0.8-2.7c0.1-0.8-0.2-1.7,0.2-2.5c1.5,1.7,2.3,4.2,5.2,3.7c0.4-0.5,1.4,0.4,1.6-0.7C269.8,19.5,267.3,18,265.6,15.6
	z M261.8,14.9c-0.5-1.3,0-2.7-1.4-2.9c-0.8,0.7-0.2,1.4,0.1,2.1c0.1,0.2,0.3,0.5-0.1,0.6c-0.2,0-0.7,0-0.7-0.1c-0.1-1-0.9-2,0.3-2.9
	c0.6-0.3,1.5-0.8,1.7-0.5C262.2,12.1,261.9,13.2,261.8,14.9z M264.2,13.8c0-1.2,3.8-1.5,0.6-3.3c0.7,0,1.8-0.8,1.8,0.9
	C266.6,13.2,265.7,13.7,264.2,13.8z"/>
<g>
	<path style="fill:#E64642;" d="M194.5,8.3C194.5,8.3,194.5,8.3,194.5,8.3C194.5,8.3,194.5,8.3,194.5,8.3
		C194.5,8.3,194.5,8.3,194.5,8.3z"/>
	<path style="fill:#E64642;" d="M205.4,15.2c-0.9-0.7-0.6-1.7-0.9-2.5c-0.6,0.2-0.5,0.7-0.6,1c-0.1,1.6-1.1,2.2-2.6,2.1
		c-1.6-0.1-1.7-1.4-1.7-2.5c0-1.7,0.7-3.2,1.6-4.6c0.5-0.7,1.1-1.3,0.4-2.2c-0.7-1-1.4-0.3-2.2,0c-0.2,0.1-0.5,0.1-0.9,0.2
		c0.1-0.4,0.1-0.6,0.2-0.8c0.1-0.9-0.1-1.8-1.1-2c-1-0.1-0.8,1-1,1.6c-0.3,1-0.6,1.7-1.8,1.8c-0.4,0-1.1,0.6-0.4,1.3c0,0,0,0,0,0
		c0,0,0,0,0,0c0,0,0,0,0,0c0,0,0,0,0,0c1,0.4,1.1,1.2,0.8,2.1c-0.3,0.7-0.5,1.5-0.7,2.2c0.1,0.5-0.2,0.6-0.7,0.6
		c-0.7,0-0.6,0.5-0.5,0.9c1,0.5,0.7,1.5,0.2,1.8c-0.7,0.4-1.6,0.2-2.5,0.2c-0.1,0-0.2-0.7,0.2-1c0.4-0.2,0.9-0.5,1.3-0.7
		c0-0.5,0.1-1.2-0.6-1.1c-1,0.1-1.1-0.6-1.4-1.2c-0.3,0-0.7,0-1,0c-0.5,0.6,0,2.1-1.7,1.8c0.3-0.9,0.8-1.6,1.4-2.2
		c0.7-0.5,0.2-2.2,1.4-1.9c1,0.2,0,1.6,0.5,2.3c1,0.4,1.9,0.6,2.9,0c0-0.6-0.2-0.8-0.8-0.7c-0.7,0.1-1.1-0.2-1.1-0.9
		c0-0.6,0.2-1,0.9-0.9c1.1,0.2,0.8-0.9,1.2-1.3c0,0,0,0,0,0c-0.6,0.3-1-0.4-1.6-0.2c-0.5,0.1-1.3,0.8-1.6-0.3
		c-0.2-1,0.5-1.1,1.2-1.3c0.5-0.1,1-0.4,1-1c0-0.7-0.5-1.1-1.1-1c-0.8,0.2-0.8-0.2-0.9-0.7c-0.1-0.6-0.5-1.1-1.2-1
		c-0.7,0.1-0.8,0.8-0.9,1.3c-0.1,0.8-0.1,1.5-1.2,1.6c-0.6,0.1-1.3,0.1-1.2,0.9c0.1,0.7,0.6,1.1,1.4,1c0.4-0.1,0.9-0.3,0.9,0.5
		c0,0.6-0.4,0.7-0.9,0.8c-0.8,0.1-1.6,0.3-2.4,0.5c-0.7,0.2-1.3,0.7-0.9,1.5c0.4,0.7,0.9,0.8,1.6,0.3c0.4-0.2,0.8-0.7,1.4-0.3
		c-1.3,2.1-3,3.9-3.9,6.3c0.8-0.4,1.6-0.8,2.1-1.4c0.9-1.4,1.8,0.4,2.7,0c0.4-0.2,0.4,0.4,0.4,0.7c-0.2,1-1.2,0.7-1.8,0.9
		c-0.1,0-0.3,0-0.4,0.1c-0.5,0.2-1.4,0-1.2,0.9c0.2,0.8,0.8,1.1,1.6,0.9c1.5-0.4,3.1-0.8,4.6-1.2c0.3-0.1,0.9-0.2,0.9-0.2
		c0.6,1.5,0.7,0.1,1-0.1c0.6-0.5,0.4-1.9,1.6-1.7c1.3,0.2,1.1-0.4,0.9-1.2c-0.8-2.8,0.9-4.8,1.9-7.1c0-0.1,0.3,0,0.6,0
		c-0.9,2.3-1.3,4.6-1,7c0.2,1.4,0.8,2.6,2.2,2.8c1.7,0.3,3.5,0.3,4.8-1.2C205.3,16,205.7,15.4,205.4,15.2z"/>
</g>
<path style="fill:#010101;" d="M216.4,11.2c-0.1-1.4-1.1-2.3-2.6-2.3c-0.7,0-1.4,0.4-2.2,0.6c-0.1-0.2-0.2-0.3-0.3-0.5
	c0.9-0.8,2-1.6,2.8-2.6c0.9-1,0.1-1.8-0.7-2.3c-0.9-0.6-1.3-0.1-1.7,0.8c-0.5,1.2-1.2,2.2-1.8,3.3c-0.4,0.7-0.6,1.5-1.8,0.9
	c-0.9-0.4-1.2,0.5-1.3,1.2c-0.4,3.6-0.2,7.1,1.2,10.5c0.4,0.8,0.7,1.4,1.8,0.7c0.8-0.6,2-1.4,2.6,0.4c0.1,0.4,0.6,0.2,1,0
	c1.4-0.6,2.3-1.4,2.6-3C216.7,16.4,216.6,13.8,216.4,11.2z M213.3,19.5c-0.7-1.1-1.5-1-2.3-0.6c-0.5,0.3-1.1,0.6-1.3-0.3
	c-0.1-0.7-0.6-1.5,0.5-1.9c0.6-0.2,1.2-0.5,1.7-0.7c0.8-0.3,1.1-0.9,0.8-1.7c-0.3-0.9-1-0.5-1.6-0.4c-0.6,0.1-1.1,0.3-1.8,0.5
	c-0.1-1.9,1.8-3.7,3.5-3.5c0.6,0.1,0.7,0.5,0.8,0.9C213.8,14.1,214,16.7,213.3,19.5z"/>
<g>
	<path style="fill:#010101;" d="M249.9,12.2c-1-0.7-2.1-1.4-3.3-1.9C243.1,9,243.1,9,245,5.9c0.1-0.2,0.2-0.3,0.3-0.5
		c0.3-0.6,0.7-1.3,0-1.9c-0.6-0.5-1.2-0.5-1.9,0c-0.8,0.6-1.8,1.1-2.3-0.5c-0.3-1-1-0.9-1.5-0.1c-0.5,0.9-0.9,1.8-1.4,2.7
		c-0.3,0.6-0.5,1.4-1.4,1.2c-1,1.2-0.9,1.8,0.5,2.3c1.7,0.6,1.7,0.7,0.5,2.1c-0.7,0.8-2,1.2-2.1,2.6c0.1,0.3,0.2,0.5,0.6,0.3
		c1.3-0.3,2.2-1.3,3.6-1.5c0.3,0,0.5-0.2,0.6-0.4c0,0,0.1-0.1,0.1-0.1c-0.1,0.1-0.3,0.1-0.5,0c0.2-0.9,0.9-1.3,1.6-1.4
		c0.5-0.1,0.8,0.5,0.7,1.1c0.2-0.1,0.4-0.2,0.5-0.1c1.9,1.3,3.9,2,6.3,1.5c0.3-0.1,0.8,0.2,1-0.2C250.6,12.6,250.2,12.4,249.9,12.2z
		 M238.3,7.1c0.4-1.6,1.6-1.6,3.1-1.7C240.9,7.1,240.2,8.1,238.3,7.1z"/>
	<path style="fill:#010101;" d="M241.9,11.6c0.1,0,0.3,0.1,0.5,0.2c0.1,0,0.2,0.1,0.2,0.1c0,0,0,0,0,0
		C242.3,11.6,242.1,11.6,241.9,11.6z"/>
</g>
<path style="fill:#020202;" d="M46.3,7.2c0-0.7,0-1.2,0-1.7c-0.1-1.9-0.7-2.1-2.6-1.9c-1.2,0.1-2.5,0.9-3.6-0.1
	c-0.4-0.4-0.7,0-0.9,0.3c-0.8,2.4-0.8,4.7-0.1,7.1c0.2,0.7,0.6,0.9,1.4,0.3c0.8-0.5,2.5-0.9,2.8-0.6c1.2,1.6,1.7,0,2.2-0.4
	C46.5,9.4,46.3,8.1,46.3,7.2z M42.8,9.1c-1-0.3-1.9,0.1-2.8,0.3c-0.3,0.1-0.5-0.2-0.5-0.4c0-0.2,0.1-0.5,0.2-0.7
	c0.1-0.1,0.4,0,0.5-0.1c0.7-0.3,2-0.1,1.8-1.2c-0.2-0.9-1.2-0.6-2-0.4c-0.2,0.1-0.5,0.2-0.6-0.2c-0.1-0.4-0.1-0.8,0.4-0.9
	c0.8-0.2,1.7-0.7,2.4-0.5c1.3,0.2,0.2,1.5,0.7,2.1C43,7.7,42.9,8.4,42.8,9.1z"/>
<path style="fill:#020202;" d="M16.3,11.6c0.7-0.2,2.1,0.2,3.4-0.6c0.8-0.5,2.9,1.1,2.8,2.1c-0.1,0.8-0.7,1.5-1.4,1.1
	c-2.6-1.6-5.2-0.5-7.7,0.1c-2.6,0.6-5.4,0.9-7.7,2.4c-0.7,0.5-1.5,0.2-2.2-0.2c-0.6-0.3-1-0.7-1-1.3c0-0.8,0.7-0.9,1.3-1
	C7.6,13.3,11.6,12.3,16.3,11.6z"/>
<path style="fill:#E64642;" d="M154.2,13c-0.8-1.1-1.9-1.3-3.2-1c-1.6,0.4-3.3,1.1-4.8,0.9c-1.9-0.2-1.6,0.7-1.4,1.7
	c0.2,1.3,0.9,2.5,1.6,3.6c1.4,0.8,4.4,0.2,6.1-1.3c0.3-0.5,0.6-0.9,0.8-1.5C153.7,14.7,154.9,14.1,154.2,13z M148.5,16.2
	c-0.7,0.2-0.9-0.2-1.1-0.7c-0.3-0.7,0.2-0.7,0.6-0.9c1.2-0.4,2.4-0.7,3.7-1.1C151.3,15.4,149.9,15.9,148.5,16.2z"/>
</svg>
