<?xml version="1.0" encoding="utf-8"?>
<!-- Generator: Adobe Illustrator 18.0.0, SVG Export Plug-In . SVG Version: 6.00 Build 0)  -->
<!DOCTYPE svg PUBLIC "-//W3C//DTD SVG 1.1//EN" "http://www.w3.org/Graphics/SVG/1.1/DTD/svg11.dtd">
<svg version="1.1" id="圖層_1" xmlns="http://www.w3.org/2000/svg" xmlns:xlink="http://www.w3.org/1999/xlink" x="0px" y="0px"
	 viewBox="-611.4 -160.7 628.3 385" enable-background="new -611.4 -160.7 628.3 385" xml:space="preserve">
<g>
	<g>
		<path id= "aa" fill="#010101" d="M-189.8,159.1c-6.2-8.3-12.4-16.6-20-27c-9.6,16.6-18.3,31.9-32.9,42.5c-16.8,12.1-31.2,8.9-44.2-6
			c-4.5-3.8-1.1-9.6-3.5-13.9c7.5-15.7,25.8-18.1,36.8-31.1c16.1-19,32.1-37,39.1-61.5c1.2-4.3,1.8-11.7,8.2-11.2
			c5.3,0.4,7.8,5.8,7.9,11.4c12.2,10.3,4.4,24.5,7.1,36.7c0,4.3,0,8.6,0,12.8c4.2,7.5,9.7,14.2,13.6,21.9l0.2-0.2
			c4.9,2.1,9.4,4.7,13.3,8.3c38.6,17.8,79,27.8,121.7,26.5c10.1,5.5,20.3-0.2,30.5,0.2c9.1-5.1,19.3-3.8,29-5.4
			c-8.2,53-39.1,70.1-101.5,56.6c-25.6-5.6-49.1-16-71.1-29.9C-169.5,182.4-182.7,174.1-189.8,159.1z"/>
	</g>
	<g>
		<path d="M-356.7,36.8c-8.6-2.2-13,4.9-19.3,8.3c-19,10.4-39.2,1.4-47.8-21.7c6.1,3.7,9.7,9,16.3,8.9c3.5,0,7.2,3.2,8.2-3
			c0.7-4.4,2.8-9.1-5.4-8.5c-5.1,0.4-6-4.5-6.9-8.7c-2.9-12.4-5.9-24.7-9-37.2c8.6-4.1,13.2,1.8,17.5,8.1c5.4-7.2,8.3-14.2,4.8-22.9
			c-1.1-2.8-2.8-8.9,4.3-4.1c2.1,2.1,4.2,4.2,7.3,5c19.1-9.1,28.9-5.3,36,15.2c1.9,5.4,4.2,4.4,8.1,3.7c26.6-4.9,50.2-17.4,73-30.8
			c8.9-5.3,19.9-4.3,26.7-12.5c6.7,13.8-1.2,21.3-9.8,28.5c-13.1,10.9-28.7,17.3-44.2,24c-4.4,8,1.8,16.3-0.4,24.3
			c-7.1,20.7-7,20.3,14.1,27.4c7.7,2.6,23.9,8,26,5.3c8.1-1.2,11.4,11.3,23.1,4.9c-7.2,10-4.8,22.7-18.4,24.1
			c-9.9,1-19.7,1.4-29.4-1.8c-11.9-3.9-22.7-9.9-32.2-17.9c-4.3-3.6-6.9-5.1-12.2-0.8c-8.4,6.8-17.2,7.5-23.2-3.9
			c-1.9-1.5-4-2.7-4.5-5.3c-0.2-6.7,1-11.7,9.1-13.7c6.2-1.6,8.8-6.9,6.7-13.8c-2-6.3-2.4-13-4.4-19.3c-0.7-2.4-1.5-5.3-4.3-5.6
			c-3.8-0.4-3.4,4.1-5.3,5.9c-3.1,3.8-5.4,8-5.9,13c0.2,5.2,5.4,8.4,5.6,13.5C-352.5,29.6-350.8,34.7-356.7,36.8z"/>
		<path fill="#050505" d="M-306.2-61.6c3.6,10.8-6.5,13.8-10.9,19.9c-0.4,0.6-1.3,1.4-1.8,1.3c-5.9-1.6-17.2-20.6-15.3-26.8
			c1.9-6,8.2-7.5,13.3-8.6C-309.1-78.4-305.5-71.7-306.2-61.6z"/>
		<path fill="#FFFFFF" d="M-321.9-6.1c4-0.3,8.1-0.7,12.6-1.1c1,6.6-3.3,10.9-5.6,15.7c-1.3,2.6-4.5,6.3-6.3,6
			c-3.3-0.5-3.8-4.8-4.1-8.1C-329.8,0.8-333.6-4.8-321.9-6.1z"/>
		<path fill="#FFFFFF" d="M-370,16c-3.6,6.3-0.2,13.9-7.1,18.1c-2.6,1.6-5.8,2.8-8.2,1.5c-3.5-1.8-0.4-5-0.1-7.6
			C-384.3,19.9-379.7,15.9-370,16z"/>
		<path fill="#FFFFFF" d="M-376.7-1.4c-5.3-5.9-2.4-12.9-2-19.3c0.2-3.4,4.2-7,8.1-4.8c4.9,2.7,3.9,7.3,1.1,11.5
			c-2.3,2-2.3,4.9-3.2,7.5C-373.8-4.6-374.6-2.5-376.7-1.4z"/>
		<path fill="#FFFFFF" d="M-398,10.5c-1.3-6.5-2.4-11.9-3.4-17.4c-0.5-2.8,0.6-5,3.8-4.8c2.4,0.1,3.3,2.1,3,4.4
			C-395.5-1.7-394.8,4.1-398,10.5z"/>
	</g>
	<g>
		<path fill="#010101" d="M-443.5-91.5c-5.6-9.8-14.6-7.6-23-5.9c-32,6.7-63.9,13.7-95.8,20.7c-6,1.3-14.1,5.6-17.2-0.7
			c-3.4-6.9,6.2-9.3,10.4-13.3c3.7-3.5,8.3-6,12.5-9c4.8-2.8,8.5-6.7,11.7-11.2c2.9-7.4,9.4-12.7,12-20.2c1.1-9.9-1.3-19.2-5.2-28.3
			c23.4-3.1,23.4-3.1,32.9,29.4c6.8-6.6,12.1-13.2,18.8-17.9c5-3.5,7.5-16.1,17.3-7.4c8.2,7.2,13.1,15.6,2.6,25.2
			c9.5,10.8,21.4-1.4,31.5,3.3c29.4,11,37.5,19.8,36,38.8c-1.7,22.1-24.8,50.1-45.3,55.6c-5.1,1.4-7.3,1.3-10.2-4.4
			c-6.8-13.4-9.2-25.5,2.1-37.5C-449.9-80.4-445-85.1-443.5-91.5z"/>
		<path fill="#010101" d="M-506-27.6c6.3-2.6,10.4-2.7,9.7,6.3C-497.5-5.2-511.8-2-523.6,5.4c10.7,7.4,19,1.2,27.2-0.8
			c4.9-1.2,8.3-2.4,11.1,3.3c2.9,6-0.7,8.6-4.9,10.9c-6.9,3.9-14.1,7.5-20.7,13.1c28.6,4.3,53.1-13.3,79.5-15.5
			c8,26.8-13.2,29.6-30,35.9c-5.4,2-10.9,4.2-16.5,4.8c-19.4,1.9-33.6,8-39.5,29.9c-4.3,15.7-17.8,16.4-29.7,5.3
			c-3.9-3.6,0.1-4.7,0.7-6.6c2-6.5,4.6-12.8,7.4-20.4c-19.6-7.7-44.5-7.2-55.8-33c18.2,9.9,36.5,7.9,54.5,7.6
			c3.2-0.1,7.3,0.4,7.4-4.8c0.1-5.1-3.5-5.2-7-5.2c-7.8,0.1-14.6-1.7-20.1-9.3c2.5-0.6,3.9-1,5.2-1.2c7.9-1.3,21.8,2.3,21.1-8.1
			c-0.8-11.5-12.7-0.3-19.4-2.4c-4.3-1.3-9.2-0.8-13.4-2.3c-4.9-1.8-9.4-5.3-8.5-11.5c0.8-6.1,6.6-5.7,10.9-6.5
			c17.5-3,35.9-1.4,51.9-11.1c2.3-1.4,4.2-3.6,6.2-5.5L-506-27.6z"/>
		<path fill="#030303" d="M-506-28c-4.7-9.3-9,0.2-13.2,0.7c-10.4,1.4-23,5-29.1-3.8c-6.8-9.8-3.2-23.8-0.6-35.2
			c2.1-9.4,43.9-14.8,50.3-7.3c5.1,6,5.5,13,3,21c-2.7,8.7-10.3,15.1-10.5,24.8C-506-27.6-506-28-506-28z"/>
		<path fill="#090909" d="M-603.5-100.6c8.2,6.7,19.9,4.9,19.4,17.1c-0.6,13.9-2.9,27.5-11.6,38.8c-2.5,3.2-7.3,2.7-11.2,0.5
			c-4.8-2.7-5.3-6.1-3.3-11.4C-605.4-69.1-602.6-83-603.5-100.6z"/>
		<path fill="#070707" d="M-532.9-131.2c0.9,9.3-3.1,16.3-10.1,21.9c-4.3,2.8-7.1,8.5-13.6,6.7c-5.4-5.9-15.6-7.1-17.2-16.2
			c-1-5.5,0.4-11.4,0.8-17.2c9.1,5.4,19.5-6.1,28.5,2.3C-541.4-130.4-538.4-123.9-532.9-131.2z"/>
		<path fill="#010101" d="M-435-126.9c-6.2,4.5-14.3-0.4-21.4,6.1c-5.6,5.1-11.6-0.6-10.1-9.3C-456.2-127.4-444.8-135-435-126.9z"/>
		<path fill="#FFFFFF" d="M-556.7-102.5c6.1,1,6.3-10.1,13.6-6.7c0.6,10.6-9.9,5.2-13.6,9.5C-557.2-100.6-557.2-101.6-556.7-102.5z"
			/>
		<path fill="#FFFFFF" d="M-528.3-62.3c4,1.8,4,6.1,4.4,9.6c0.4,3.6-1.7,7.1-5.8,6.1c-3.8-1-6-4.5-5.4-8.9
			C-534.6-59.3-532.2-61.4-528.3-62.3z"/>
	</g>
	<path d="M-487.4,104h-5.1v13.2h-3.3V104h-5.1v-2.8h13.5V104z"/>
	<path d="M-473.5,110.4v6.9h-3.2v-6.9c0-1.9-0.9-2.8-2.7-2.8c-1.1,0-2,0.3-2.7,0.9v8.8h-3.2v-17.2h3.2v5.4c0.9-0.6,2.1-0.9,3.3-0.9
		C-475.2,104.7-473.5,106.3-473.5,110.4z"/>
	<path d="M-468.2,112c0.3,1.6,1.6,2.8,3.5,2.8c1.3,0,2.5-0.6,3.2-1.5l2,1.7c-1.1,1.5-3.2,2.6-5.6,2.6c-3.7,0-6.3-2.8-6.3-6.4
		c0-3.6,2.6-6.4,6.3-6.4c3.8,0,6,2.8,6,6.6c0,0.3,0,0.5,0,0.7L-468.2,112L-468.2,112z M-468.2,109.9h6.1c-0.1-1.4-0.9-2.8-3-2.8
		C-466.7,107.2-467.9,108.4-468.2,109.9z"/>
	<path d="M-432.7,101.2v16.1h-3.3v-8.9l-5,7l-5-7v8.9h-3.3v-16.1h1.6l6.7,9.2l6.7-9.2H-432.7z"/>
	<path d="M-416.8,111.1c0,3.5-3,6.4-6.8,6.4c-3.7,0-6.8-2.8-6.8-6.4c0-3.6,3-6.4,6.8-6.4C-419.8,104.7-416.8,107.5-416.8,111.1z
		 M-419.9,111.1c0-2-1.6-3.6-3.6-3.6c-2,0-3.6,1.6-3.6,3.6c0,1.9,1.6,3.5,3.6,3.5C-421.5,114.6-419.9,113-419.9,111.1z"/>
	<path d="M-414.1,113.9c1.5,0.7,2.7,1,4.2,1c1.5,0,2-0.5,2-1.2c0-0.7-0.7-1-2.6-1.4c-2.7-0.6-4.6-1.5-4.6-3.8c0-2.2,1.8-3.8,4.7-3.8
		c1.9,0,3.5,0.5,4.8,1l-1,2.3c-1.2-0.5-2.6-0.8-3.8-0.8c-1.2,0-1.8,0.4-1.8,1.1c0,0.7,0.8,1,2.7,1.4c2.9,0.6,4.5,1.6,4.5,3.8
		c0,2.3-1.8,3.9-5,3.9c-2.1,0-3.5-0.3-5.4-1.2L-414.1,113.9z"/>
	<path d="M-390.2,104.9v16.4h-3.2v-4.7c-1,0.6-2.3,0.9-3.6,0.9c-3.4,0-6.2-2.6-6.2-6.4c0-3.9,2.8-6.4,6.2-6.4c1.3,0,2.6,0.4,3.6,1
		v-0.7L-390.2,104.9L-390.2,104.9z M-396.4,114.6c1.2,0,2.3-0.4,3.1-1.1v-5c-0.8-0.7-1.8-1.1-3.1-1.1c-2.1,0-3.7,1.5-3.7,3.6
		C-400.1,113.2-398.6,114.6-396.4,114.6z"/>
	<path d="M-375.7,104.9v12.4h-3.2v-0.8c-0.9,0.6-2.1,1-3.4,1c-3.6,0-5.3-1.7-5.3-5.7v-6.9h3.2v6.9c0,1.9,0.9,2.9,2.7,2.9
		c1.1,0,2.1-0.4,2.8-1v-8.7L-375.7,104.9L-375.7,104.9z"/>
	<path d="M-373,101.7c0-1,0.8-1.9,1.8-1.9s1.8,0.8,1.8,1.9s-0.8,1.8-1.8,1.8S-373,102.7-373,101.7z M-372.7,104.9h3.2v12.4h-3.2
		V104.9z"/>
	<path d="M-362.6,107.5v4.4c0,2.2,0.4,2.8,2,2.8c0.5,0,1-0.1,1.5-0.1v2.4c-0.1,0-1.1,0.5-2.9,0.5c-2.1,0-3.7-1.3-3.7-3.9v-6h-1.8
		v-2.6h1.8v-4.8h3.2v4.8h3.5v2.6L-362.6,107.5L-362.6,107.5z"/>
	<path d="M-344.6,111.1c0,3.5-3,6.4-6.8,6.4s-6.8-2.8-6.8-6.4c0-3.6,3-6.4,6.8-6.4S-344.6,107.5-344.6,111.1z M-347.7,111.1
		c0-2-1.6-3.6-3.6-3.6c-2,0-3.6,1.6-3.6,3.6c0,1.9,1.6,3.5,3.6,3.5C-349.3,114.6-347.7,113-347.7,111.1z"/>
	<path d="M-318.2,101.2v16.1h-3.3v-8.9l-5,7l-5-7v8.9h-3.3v-16.1h1.6l6.7,9.2l6.7-9.2H-318.2z"/>
	<path d="M-302.7,104.9v12.4h-3.2v-0.9c-1,0.7-2.3,1.1-3.6,1.1c-3.9,0-6.1-3.1-6.1-6.4c0-3.3,2.3-6.4,6.1-6.4c1.3,0,2.6,0.4,3.6,1
		v-0.8L-302.7,104.9L-302.7,104.9z M-305.9,108.6c-0.8-0.7-1.9-1.1-3.1-1.1c-2.3,0-3.7,1.7-3.7,3.5c0,1.9,1.4,3.6,3.7,3.6
		c1.2,0,2.3-0.4,3.1-1.1V108.6z"/>
	<path d="M-288.1,110.4v6.9h-3.2v-6.9c0-1.9-0.9-2.8-2.7-2.8c-1.1,0-2,0.4-2.7,1v8.8h-3.2v-12.4h3.2v0.8c0.9-0.6,2.1-1,3.3-1
		C-289.8,104.7-288.1,106.3-288.1,110.4z"/>
	<g>
		<g>
			<path fill="none" stroke="#000000" stroke-miterlimit="10" d="M-575.5,177.5"/>
		</g>
	</g>
	<g>
		<path fill="#FFFFFF" d="M-276.3,204.5c1.3,0.4,1.3,2.3,0.9,3.6"/>
		<g>
			<g>
				<path opacity="0.1091" enable-background="new    " d="M-276.7,202.9c1.5,1.1,1.2,2.3,0.9,3.8c0,0,0.7,0.1,0.8,0
					c0.2-0.8,0.3-1.5,0.2-2.3c0-0.9-0.5-1.1-1.1-1.5C-276.2,202.7-276.6,203-276.7,202.9z"/>
				<path opacity="0.1091" enable-background="new    " d="M-275.8,204.9c1.3,0.6,1.5,1.8,0.8,3.4c-0.1,0.5,0.1-0.2,0.1-0.3
					c-0.1,0.4,0.3-0.9,0.3-1.3c0-1.2,0.1-1.8-1-2.6C-275.5,204.3-275.9,204.9-275.8,204.9z"/>
				<path opacity="0.1091" enable-background="new    " d="M-276.7,205.2c1.3,0.9,1.2,2,0.9,3.5c0,0,0.7,0.1,0.8,0.1
					c0.3-1.5,0.5-2.6-0.9-3.5C-276.1,205.1-276.5,205.3-276.7,205.2z"/>
				<path opacity="0.1091" enable-background="new    " d="M-276.5,203.5c1.5,1.1,1.1,2.3,0.9,3.7c0,0,0.7,0.2,0.7,0.1
					c0.3-1.6,0.5-2.7-0.9-3.7C-275.9,203.5-276.3,203.7-276.5,203.5z"/>
				<path opacity="0.1091" enable-background="new    " d="M-276.5,206.5c1.3,0.9,1.2,1.9,0.8,3.3c0,0,0.7,0,0.8-0.1
					c0.3-1.4,0.5-2.5-0.8-3.3C-275.9,206.3-276.3,206.6-276.5,206.5z"/>
				<path opacity="0.1091" enable-background="new    " d="M-276.5,204.8c1.4,1,1.2,1.9,0.9,3.6c0-0.1,0.2-0.5,0.2-0.7
					c0.1-0.4,0.1-0.7,0.2-1.1c0-1.3,0-1.8-1.1-2.6C-276.2,204.1-276.6,204.7-276.5,204.8z"/>
				<path opacity="0.1091" enable-background="new    " d="M-275.3,206.3c0.4,1.1,0.3,1.8,0,2.9c0-0.2,0.6-0.2,0.7-0.3
					c0.3-1.1,0.3-1.8,0-2.9C-274.6,206-275.3,206.2-275.3,206.3z"/>
			</g>
		</g>
	</g>
</g>
</svg>
