<?xml version="1.0" encoding="utf-8"?>
<!-- Generator: Adobe Illustrator 18.0.0, SVG Export Plug-In . SVG Version: 6.00 Build 0)  -->
<!DOCTYPE svg PUBLIC "-//W3C//DTD SVG 1.1//EN" "http://www.w3.org/Graphics/SVG/1.1/DTD/svg11.dtd">
<svg version="1.1" id="圖層_1" xmlns="http://www.w3.org/2000/svg" xmlns:xlink="http://www.w3.org/1999/xlink" x="0px" y="0px"
	 viewBox="0 0 1366 768" style="enable-background:new 0 0 1366 768;" xml:space="preserve">
<path style="opacity:0.2;fill:#B3B3B3;" d="M1292.509,482.921c-6.337-15.002-31.684-102.01-31.684-102.01l-19.011-156.016
	l-47.525-240.024L1070.724-135l-87.038-117.384c0,0-96.725-74.776-106.125-78.2c-9.399-3.424-158.381-10-158.381-10l-119.802-244.6
	L173.188-834H55V633h933.051l3.172,20.667l37.143,108.666l3.635,24.393l22.907,55.398l4.076,28.876l26.596,30.293l41.088-19.445
	l54.302-28.864L1199.626,799L1214,733l56-100C1270,633,1298.845,497.923,1292.509,482.921z"/>
<path style="opacity:0.3;fill:#E8EAE8;" d="M517.505-448.184l113.448,244.6c0,0,141.08,6.576,149.981,10s100.496,78.2,100.496,78.2
	L963.852,2l117.012,119.871l45.005,240.024l18.002,156.016c0,0,24.003,87.008,30.003,102.01s6.865,234.345,6.865,234.345L2,770V-766
	L517.505-448.184z"/>
<path style="fill:#CCD2CC;" d="M265.967-783l81.19,128.511l25.417,126.755c0,0,43.21,145.806,48.293,158.089
	c5.083,12.283,48.292,112.81,61.001,132.495c12.709,19.685,112.221,101.331,119.653,113.729
	C608.953-111.023,708.893-4.439,708.893-4.439s116.106,66.76,118.648,75.884c2.54,9.123,55.916,173.342,61,185.506
	c5.083,12.164,83.877,237.204,83.877,237.204s-10.167,66.903,0,91.232c10.166,24.329,55.96,167.259,55.96,167.259L1031.01,774H0
	V-783H265.967z"/>
<path style="opacity:0.2;fill:#CCCCCC;" d="M1199.626,770c-9.278-32.428-23.756-88.278-23.756-88.278l-18.002-166.035
	l-45.005-255.439L995.852,132.679L913.43,7.756c0,0-91.595-79.578-100.496-83.222c-8.901-3.645-263.429-270.95-263.429-270.95
	L34-684.644V950l1106,75.616L1199.626,770z"/>
<path style="opacity:0.2;fill:#CCCCCC;" d="M1223.628,846.606c-9.47-34.068-24.245-92.745-24.245-92.745l-18.372-174.437
	l-45.932-268.363l-119.422-134.025L931.538,45.792c0,0-93.481-83.605-102.565-87.433C819.889-45.47,560.12-326.302,560.12-326.302
	L34-681.644v1717.357l1128.774,79.442L1223.628,846.606z"/>
<polygon style="fill-rule:evenodd;clip-rule:evenodd;fill:#FFFFFF;" points="187.251,442.264 71.082,350.098 64.22,244.811 
	135.27,149.214 213.873,119.924 335.288,121.705 489.27,218.712 541.195,307.865 542.922,402.454 478.966,461.538 342.562,486.383 
	"/>
</svg>
