<?xml version="1.0" encoding="utf-8"?>
<!-- Generator: Adobe Illustrator 18.0.0, SVG Export Plug-In . SVG Version: 6.00 Build 0)  -->
<!DOCTYPE svg PUBLIC "-//W3C//DTD SVG 1.1//EN" "http://www.w3.org/Graphics/SVG/1.1/DTD/svg11.dtd">
<svg version="1.1" id="圖層_1" xmlns="http://www.w3.org/2000/svg" xmlns:xlink="http://www.w3.org/1999/xlink" x="0px" y="0px"
	 viewBox="0 0 1366 768" style="enable-background:new 0 0 1366 768;" xml:space="preserve">
<polygon style="fill:#E6E6E6;" points="1365.375,500.045 1221.647,555.333 1151.894,587.771 1117.017,600 1048.778,777 
	1364.938,777 "/>
<path style="opacity:0.2;fill:#B3B3B3;" d="M1292.509-285.079c-6.337-15.002-31.684-102.01-31.684-102.01l-19.011-156.016
	l-47.525-240.024L1070.724-903l-87.038-117.384c0,0-96.725-74.776-106.125-78.2c-9.399-3.424-158.381-10-158.381-10l-119.802-244.6
	L173.188-1602H55v1467h933.051l3.172,20.667l37.143,108.666L1032,18.726l22.907,55.398l4.076,28.876l26.596,30.293l41.088-19.445
	l54.302-28.864L1199.626,31L1214-35l56-100C1270-135,1298.845-270.077,1292.509-285.079z"/>
<path style="opacity:0.3;fill:#E8EAE8;" d="M517.505-1216.184l113.448,244.6c0,0,141.08,6.576,149.981,10
	c8.901,3.424,100.496,78.2,100.496,78.2L963.852-766l117.012,119.871l45.005,240.024l18.002,156.016
	c0,0,24.003,87.008,30.003,102.01s6.865,234.345,6.865,234.345L2,2v-1536L517.505-1216.184z"/>
<path style="fill:#CCD2CC;" d="M265.967-1551l81.19,128.511l25.417,126.755c0,0,43.21,145.806,48.293,158.089
	c5.083,12.283,48.292,112.81,61.001,132.495c12.709,19.685,112.221,101.331,119.653,113.729
	c7.433,12.398,107.372,118.981,107.372,118.981s116.106,66.76,118.648,75.884c2.54,9.123,55.916,173.342,61,185.506
	c5.083,12.164,83.877,237.204,83.877,237.204s-10.167,66.903,0,91.232c10.166,24.329,55.96,167.259,55.96,167.259L1031.01,6H0v-1557
	H265.967z"/>
<path style="opacity:0.2;fill:#CCCCCC;" d="M1199.626,2c-9.278-32.428-23.756-88.278-23.756-88.278l-18.002-166.035l-45.005-255.439
	L995.852-635.321L913.43-760.244c0,0-91.595-79.578-100.496-83.222c-8.901-3.645-263.429-270.95-263.429-270.95L34-1452.644V182
	l1106,75.616L1199.626,2z"/>
<g>
	<path style="fill:#CCD2CC;" d="M1033.71,5.096l11.624,36.328l9.573,32.7l13.889,36.423l16.783,22.746l4.017,58.388l22.016,32.696
		l-1.723,21.795L1140,260.616V295l-6.318,20.517L1167,330.704V363l-9.583,17.217l9.583,24.728l-25.933,12.568l-7.603,48.917
		c0,0-9.367,16.687-9.882,20.633s-8.526,19.258-6.021,27.352c2.506,8.094,15.48,44.438,15.48,44.438L1125,591.072V631
		l-10.713,34.726l-5.723,47.676l-9.15,33.037L1130.086,773H718L648,52.636V5L1033.71,5.096z"/>
</g>
<rect y="5" style="fill:#CCD2CC;" width="1032" height="768"/>
<path style="opacity:0.2;fill:#CCCCCC;" d="M1223.628,78.605c-9.47-34.068-24.245-92.745-24.245-92.745l-18.372-174.437
	l-45.932-268.363l-119.422-134.025l-84.119-131.243c0,0-93.481-83.605-102.565-87.433c-9.084-3.829-268.853-284.661-268.853-284.661
	L34-1449.644V267.714l1128.774,79.442L1223.628,78.605z"/>
<g>
	<polygon style="opacity:0.4;fill-rule:evenodd;clip-rule:evenodd;fill:#FFFFFF;" points="938,749.316 924.804,776.415 
		932.639,819.3 965.745,839.884 1009.045,811.065 1027.566,772.445 988.82,740 938,740 	"/>
	<polygon style="opacity:0.4;fill-rule:evenodd;clip-rule:evenodd;fill:#FFFFFF;" points="933.562,744.519 921.898,762.358 
		910.919,767.848 904.743,756.183 912.977,739.029 	"/>
	<polygon style="opacity:0.4;fill-rule:evenodd;clip-rule:evenodd;fill:#FFFFFF;" points="898.455,768.415 888.006,749.208 
		881.923,738.983 874.361,742.511 865.713,754.463 860.983,773.967 872.658,782.414 890.391,787.171 	"/>
	<polygon style="opacity:0.4;fill-rule:evenodd;clip-rule:evenodd;fill:#FFFFFF;" points="859.305,746.809 845.56,743.901 
		833.232,739.43 821.166,756.106 830.59,773.09 846.954,780.696 856.082,779.677 	"/>
	<polygon style="opacity:0.4;fill-rule:evenodd;clip-rule:evenodd;fill:#FFFFFF;" points="972.16,172.986 977.863,186.607 
		981.467,200 1002.051,200 1010.285,181.625 1006.856,163.518 1000.678,156.524 	"/>
	<polygon style="opacity:0.4;fill-rule:evenodd;clip-rule:evenodd;fill:#FFFFFF;" points="1117.562,478.519 1105.898,496.358 
		1094.919,501.848 1088.743,490.183 1096.978,473.029 	"/>
	<polygon style="opacity:0.4;fill-rule:evenodd;clip-rule:evenodd;fill:#FFFFFF;" points="1086.227,567.237 1072.227,540.358 
		1032.999,521.414 996.971,536.094 994.961,588.029 1015.8,625.942 1065.208,613.839 1094.564,573.271 	"/>
	<polygon style="opacity:0.4;fill-rule:evenodd;clip-rule:evenodd;fill:#FFFFFF;" points="983.899,543.489 967.136,535.616 
		941.069,540.958 929.026,561.442 947.312,587.393 971.211,598.072 990.426,573.88 989.632,543.339 	"/>
	<polygon style="opacity:0.4;fill-rule:evenodd;clip-rule:evenodd;fill:#FFFFFF;" points="1004.173,623.854 993.723,604.646 
		987.641,594.421 980.079,597.948 971.431,609.901 966.701,629.405 978.376,637.852 996.108,642.608 	"/>
	<polygon style="opacity:0.4;fill-rule:evenodd;clip-rule:evenodd;fill:#FFFFFF;" points="965.021,602.246 951.277,599.339 
		938.95,594.868 926.883,611.544 936.308,628.527 952.672,636.134 961.799,635.115 	"/>
	<polygon style="opacity:0.4;fill-rule:evenodd;clip-rule:evenodd;fill:#FFFFFF;" points="936.082,588.559 927.943,575.84 
		920.275,586.435 918.143,601.701 923.676,605.704 	"/>
	<polygon style="opacity:0.4;fill-rule:evenodd;clip-rule:evenodd;fill:#FFFFFF;" points="1093.151,565.852 1085.535,545.943 
		1087.525,533.831 1100.596,535.666 1109.666,552.393 	"/>
	<polygon style="opacity:0.4;fill-rule:evenodd;clip-rule:evenodd;fill:#FFFFFF;" points="991.01,649.653 979.556,646.181 
		972.045,638.339 959.561,638.132 948.442,642.124 974.622,672.302 985.691,668.273 	"/>
	<polygon style="opacity:0.4;fill-rule:evenodd;clip-rule:evenodd;fill:#FFFFFF;" points="1021.889,515.813 993.134,519.574 
		987.809,533.383 977.894,530.225 962.953,524.033 975.054,507.31 987.609,497.947 1004.538,503.29 	"/>
	<polygon style="opacity:0.4;fill-rule:evenodd;clip-rule:evenodd;fill:#FFFFFF;" points="962.451,511.029 954.448,522.09 
		956.775,532.601 943.928,528.386 935.755,534.241 933.996,521.199 956.324,499.375 	"/>
	<polygon style="opacity:0.4;fill-rule:evenodd;clip-rule:evenodd;fill:#FFFFFF;" points="1062.182,422.052 1045.418,414.179 
		1019.352,419.52 1007.309,440.004 1025.595,465.955 1049.493,476.634 1068.708,452.441 1067.914,421.9 	"/>
	<polygon style="opacity:0.4;fill-rule:evenodd;clip-rule:evenodd;fill:#FFFFFF;" points="1082.455,502.415 1072.006,483.208 
		1065.923,472.983 1058.361,476.511 1049.713,488.463 1044.983,507.967 1056.658,516.414 1074.391,521.171 	"/>
	<polygon style="opacity:0.4;fill-rule:evenodd;clip-rule:evenodd;fill:#FFFFFF;" points="1043.305,480.809 1029.56,477.901 
		1017.232,473.43 1005.166,490.105 1014.59,507.09 1030.954,514.696 1040.082,513.677 	"/>
	<polygon style="opacity:0.4;fill-rule:evenodd;clip-rule:evenodd;fill:#FFFFFF;" points="1014.365,467.12 1006.227,454.401 
		998.558,464.997 996.425,480.264 1001.959,484.266 	"/>
	<polygon style="opacity:0.4;fill-rule:evenodd;clip-rule:evenodd;fill:#FFFFFF;" points="1100.172,394.375 1071.416,398.136 
		1066.092,411.944 1056.177,408.786 1041.235,402.596 1053.336,385.872 1065.892,376.509 1082.82,381.852 	"/>
	<polygon style="opacity:0.4;fill-rule:evenodd;clip-rule:evenodd;fill:#FFFFFF;" points="1040.733,389.592 1032.73,400.651 
		1035.058,411.162 1022.211,406.948 1014.037,412.803 1012.278,399.761 1034.606,377.938 	"/>
	<polygon style="opacity:0.4;fill-rule:evenodd;clip-rule:evenodd;fill:#FFFFFF;" points="1130.296,444.378 1128.08,425.99 
		1109.726,406.726 1085.973,407.381 1073.671,436.647 1077.293,462.57 1107.993,466.028 1133.465,449.157 	"/>
	<polygon style="opacity:0.4;fill-rule:evenodd;clip-rule:evenodd;fill:#FFFFFF;" points="1146.438,408.978 1132.817,408.06 
		1125.141,415.608 1121.899,402.48 1112.602,398.658 1122.725,390.249 1153.068,397.603 	"/>
	<polygon style="opacity:0.4;fill-rule:evenodd;clip-rule:evenodd;fill:#FFFFFF;" points="1013,671.034 999.939,698.133 
		1007.842,741.018 1040.982,761.601 1084.301,732.783 1102.83,694.303 1064.092,662 1013,662 	"/>
	<polygon style="opacity:0.4;fill-rule:evenodd;clip-rule:evenodd;fill:#FFFFFF;" points="1089.573,747.925 1081.57,758.985 
		1083.897,769.495 1071.051,765.281 1062.877,771.136 1061.118,758.094 1083.447,736.271 	"/>
	<polygon style="opacity:0.4;fill-rule:evenodd;clip-rule:evenodd;fill:#FFFFFF;" points="878.182,688.052 861.418,680.179 
		835.352,685.519 823.309,706.004 841.595,731.955 865.493,742.634 884.708,718.441 883.914,687.9 	"/>
	<polygon style="opacity:0.4;fill-rule:evenodd;clip-rule:evenodd;fill:#FFFFFF;" points="830.365,733.12 822.227,720.401 
		814.558,730.997 812.425,746.264 817.959,750.266 	"/>
	<polygon style="opacity:0.4;fill-rule:evenodd;clip-rule:evenodd;fill:#FFFFFF;" points="916.172,660.375 887.416,664.136 
		882.092,677.944 872.177,674.786 857.235,668.596 869.336,651.872 881.892,642.509 898.82,647.852 	"/>
	<polygon style="opacity:0.4;fill-rule:evenodd;clip-rule:evenodd;fill:#FFFFFF;" points="856.733,655.592 848.73,666.651 
		851.058,677.162 838.211,672.948 830.037,678.803 828.278,665.761 850.606,643.938 	"/>
	<polygon style="opacity:0.4;fill-rule:evenodd;clip-rule:evenodd;fill:#FFFFFF;" points="946.296,710.378 944.08,691.99 
		925.726,672.726 901.973,673.381 889.671,702.648 893.293,728.57 923.993,732.028 949.465,715.157 	"/>
	<polygon style="opacity:0.4;fill-rule:evenodd;clip-rule:evenodd;fill:#FFFFFF;" points="989.907,727.904 971.468,705.523 
		956.938,708.331 954.356,698.251 951.68,682.3 972.275,683.69 986.873,689.367 991.322,706.554 	"/>
	<polygon style="opacity:0.4;fill-rule:evenodd;clip-rule:evenodd;fill:#FFFFFF;" points="962.438,674.979 948.817,674.06 
		941.141,681.608 937.899,668.481 928.602,664.658 938.725,656.249 969.068,663.604 	"/>
	<polygon style="opacity:0.4;fill-rule:evenodd;clip-rule:evenodd;fill:#FFFFFF;" points="892.303,625.942 910.56,643.236 
		919.568,652 943.006,652 933.996,636.762 919.568,618.829 910.564,608.9 	"/>
	<polygon style="opacity:0.4;fill-rule:evenodd;clip-rule:evenodd;fill:#FFFFFF;" points="1018.316,634.275 1026.506,652 
		1078.006,652 1096.455,669.557 1105.529,644.252 1100.172,618.672 1089.573,608.822 1073.671,618.554 1055.432,630.077 	"/>
	<polygon style="opacity:0.4;fill-rule:evenodd;clip-rule:evenodd;fill:#FFFFFF;" points="1089.573,598.072 1107.69,608.596 
		1109.256,594.868 1105.529,573.679 1097.601,581.743 	"/>
	<polygon style="opacity:0.4;fill-rule:evenodd;clip-rule:evenodd;fill:#FFFFFF;" points="1100.227,299.237 1086.227,272.358 
		1046.999,253.414 1010.971,268.094 1008.961,320.029 1029.8,357.942 1079.208,345.839 1108.564,305.271 	"/>
	<polygon style="opacity:0.4;fill-rule:evenodd;clip-rule:evenodd;fill:#FFFFFF;" points="997.899,275.489 981.136,267.616 
		955.069,272.958 943.026,293.442 961.312,319.393 985.211,330.072 1004.426,305.88 1003.632,275.339 	"/>
	<polygon style="opacity:0.4;fill-rule:evenodd;clip-rule:evenodd;fill:#FFFFFF;" points="1018.173,355.853 1007.723,336.646 
		1001.641,326.421 994.079,329.948 985.431,341.901 980.701,361.405 992.376,369.853 1010.108,374.608 	"/>
	<polygon style="opacity:0.4;fill-rule:evenodd;clip-rule:evenodd;fill:#FFFFFF;" points="979.021,334.246 965.277,331.339 
		952.95,326.868 940.883,343.544 950.308,360.527 966.672,368.134 975.799,367.115 	"/>
	<polygon style="opacity:0.4;fill-rule:evenodd;clip-rule:evenodd;fill:#FFFFFF;" points="950.082,320.559 941.943,307.84 
		934.275,318.435 932.143,333.701 937.676,337.704 	"/>
	<polygon style="opacity:0.4;fill-rule:evenodd;clip-rule:evenodd;fill:#FFFFFF;" points="1107.151,297.852 1099.535,277.943 
		1101.525,265.831 1114.596,267.666 1123.666,284.393 	"/>
	<polygon style="opacity:0.4;fill-rule:evenodd;clip-rule:evenodd;fill:#FFFFFF;" points="1005.01,381.653 993.556,378.181 
		986.045,370.339 973.561,370.132 962.442,374.124 988.622,404.302 999.691,400.273 	"/>
	<polygon style="opacity:0.4;fill-rule:evenodd;clip-rule:evenodd;fill:#FFFFFF;" points="1035.889,247.814 1007.134,251.574 
		1001.809,265.383 991.894,262.225 976.953,256.033 989.054,239.31 1001.609,229.947 1018.538,235.29 	"/>
	<polygon style="opacity:0.4;fill-rule:evenodd;clip-rule:evenodd;fill:#FFFFFF;" points="976.451,243.029 968.448,254.09 
		970.775,264.601 957.928,260.386 949.755,266.241 947.996,253.199 970.324,231.375 	"/>
	<polygon style="opacity:0.4;fill-rule:evenodd;clip-rule:evenodd;fill:#FFFFFF;" points="1076.182,154.052 1059.418,146.179 
		1033.352,151.52 1021.309,172.004 1039.595,197.955 1063.493,208.634 1082.708,184.441 1081.914,153.9 	"/>
	<polygon style="opacity:0.4;fill-rule:evenodd;clip-rule:evenodd;fill:#FFFFFF;" points="1096.455,234.415 1086.006,215.208 
		1079.923,204.983 1072.361,208.511 1063.713,220.463 1058.983,239.967 1070.658,248.414 1088.391,253.171 	"/>
	<polygon style="opacity:0.4;fill-rule:evenodd;clip-rule:evenodd;fill:#FFFFFF;" points="1057.305,212.809 1043.56,209.901 
		1031.232,205.43 1019.166,222.105 1028.59,239.09 1044.954,246.696 1054.082,245.677 	"/>
	<polygon style="opacity:0.4;fill-rule:evenodd;clip-rule:evenodd;fill:#FFFFFF;" points="1028.365,199.12 1020.227,186.401 
		1012.558,196.997 1010.425,212.264 1015.959,216.266 	"/>
	<polygon style="opacity:0.4;fill-rule:evenodd;clip-rule:evenodd;fill:#FFFFFF;" points="1054.733,121.592 1046.73,132.651 
		1049.058,143.162 1036.211,138.948 1028.037,144.803 1026.278,131.761 1048.606,109.938 	"/>
	<polygon style="opacity:0.4;fill-rule:evenodd;clip-rule:evenodd;fill:#FFFFFF;" points="872,95.316 858.804,122.415 
		866.639,165.3 899.745,185.884 943.045,157.065 961.566,118.445 922.82,86 872,86 	"/>
	<polygon style="opacity:0.4;fill-rule:evenodd;clip-rule:evenodd;fill:#FFFFFF;" points="947,17.034 933.939,44.133 
		941.842,87.018 974.982,107.601 1018.301,78.783 1036.83,40.303 998.092,8 947,8 	"/>
	<polygon style="opacity:0.4;fill-rule:evenodd;clip-rule:evenodd;fill:#FFFFFF;" points="913.492,192.138 916.94,210.334 
		936.55,228.32 960.204,226.068 970.509,196.041 965.15,170.419 934.286,169.034 910.01,187.582 	"/>
	<polygon style="opacity:0.4;fill-rule:evenodd;clip-rule:evenodd;fill:#FFFFFF;" points="966.714,128.602 957.278,148.328 
		952.561,160.096 959.852,165 974.604,165 992,155.705 992,141.295 986.046,124.14 	"/>
	<polygon style="opacity:0.4;fill-rule:evenodd;clip-rule:evenodd;fill:#FFFFFF;" points="978.036,206 972.504,220 985.583,220 
		998,211.284 998,206 	"/>
	<polygon style="opacity:0.4;fill-rule:evenodd;clip-rule:evenodd;fill:#FFFFFF;" points="867.562,90.519 855.898,108.358 
		844.919,113.848 838.743,102.183 846.977,85.029 	"/>
	<polygon style="opacity:0.4;fill-rule:evenodd;clip-rule:evenodd;fill:#FFFFFF;" points="995.333,124.14 999.233,135.456 
		997.283,146.139 1004.434,156.374 1014.185,163.041 1023.287,124.14 1013.535,117.534 	"/>
	<polygon style="opacity:0.4;fill-rule:evenodd;clip-rule:evenodd;fill:#FFFFFF;" points="868.8,177.585 888.704,198.677 
		903.013,194.895 906.267,205.521 910.01,222 889.366,222 874.422,216.574 868.825,199.355 	"/>
	<polygon style="opacity:0.4;fill-rule:evenodd;clip-rule:evenodd;fill:#FFFFFF;" points="843.151,177.852 835.535,157.943 
		837.525,145.831 850.596,147.666 859.666,164.393 	"/>
	<polygon style="opacity:0.4;fill-rule:evenodd;clip-rule:evenodd;fill:#FFFFFF;" points="1023.573,93.925 1015.57,104.985 
		1017.898,115.495 1005.051,111.281 996.877,117.136 995.118,104.094 1017.447,82.271 	"/>
	<polygon style="opacity:0.4;fill-rule:evenodd;clip-rule:evenodd;fill:#FFFFFF;" points="812.182,34.052 795.418,26.179 
		769.352,31.52 757.309,52.004 775.595,77.955 799.493,88.634 818.708,64.441 817.914,33.9 	"/>
	<polygon style="opacity:0.4;fill-rule:evenodd;clip-rule:evenodd;fill:#FFFFFF;" points="832.455,114.415 822.006,95.208 
		815.923,84.983 808.361,88.511 799.713,100.463 794.983,119.967 806.658,128.414 824.391,133.171 	"/>
	<polygon style="opacity:0.4;fill-rule:evenodd;clip-rule:evenodd;fill:#FFFFFF;" points="793.305,92.809 779.56,89.901 
		767.232,85.43 755.166,102.105 764.59,119.09 780.954,126.696 790.082,125.677 	"/>
	<polygon style="opacity:0.4;fill-rule:evenodd;clip-rule:evenodd;fill:#FFFFFF;" points="764.365,79.12 756.227,66.401 
		748.558,76.997 746.425,92.264 751.959,96.266 	"/>
	<polygon style="opacity:0.4;fill-rule:evenodd;clip-rule:evenodd;fill:#FFFFFF;" points="880.296,56.378 878.08,37.99 
		859.726,18.726 835.973,19.381 823.671,48.647 827.293,74.57 857.993,78.028 883.465,61.157 	"/>
	<polygon style="opacity:0.4;fill-rule:evenodd;clip-rule:evenodd;fill:#FFFFFF;" points="923.907,73.904 905.468,51.522 
		890.938,54.331 888.356,44.251 885.68,28.3 906.275,29.69 920.873,35.367 925.322,52.554 	"/>
	<polygon style="opacity:0.4;fill-rule:evenodd;clip-rule:evenodd;fill:#FFFFFF;" points="1116.68,323.093 1094.564,347.317 
		1080.849,355.202 1075.506,369.838 1096.455,382.553 1105.529,386.618 1126.514,379.082 1140.504,382.553 1146.763,364.415 
		1153.068,352.686 1129.506,345.652 	"/>
</g>
<polygon style="fill:#E6E6E6;" points="1365.625,500.045 1436.312,469.232 1519.406,405.688 1609.453,426.201 1703.477,463.252 
	1924.726,491.005 2049.244,533.782 2139.086,512.238 2318.918,453.183 2436.918,433.999 2664.148,468.846 2731,461.458 2731,777 
	1365.5,777 "/>
</svg>
