<?xml version="1.0" encoding="utf-8"?>
<!-- Generator: Adobe Illustrator 18.0.0, SVG Export Plug-In . SVG Version: 6.00 Build 0)  -->
<!DOCTYPE svg PUBLIC "-//W3C//DTD SVG 1.1//EN" "http://www.w3.org/Graphics/SVG/1.1/DTD/svg11.dtd">
<svg version="1.1" id="圖層_1" xmlns="http://www.w3.org/2000/svg" xmlns:xlink="http://www.w3.org/1999/xlink" x="0px" y="0px"
	 viewBox="0 0 629.31 207.725" style="enable-background:new 0 0 629.31 207.725;" xml:space="preserve">
<path style="fill-rule:evenodd;clip-rule:evenodd;fill:#010101;" d="M288.183,40.189c-0.23-0.672-0.562-1.06-1.179-0.954
	C287.067,39.864,287.519,40.096,288.183,40.189z"/>
<path style="fill-rule:evenodd;clip-rule:evenodd;fill:#FFFFFF;" d="M47.499,39.21L20.177,86.385l6.534,30.775l20.855,39.727
	l63.059,29.009l172.634,8.829l97.092-21.248L485.109,185h50.67l40.723,2.549l11.768-20.362l-13.731-34.105L535.933,110.3
	L481.41,92.65l-59.734-21.196l-181.195-3.41l-51.115-4.841l-21.213-17.861c0,0-23.24-19.534-30.216-18.274
	c-6.977,1.262-52.058-0.059-52.058-0.059L47.499,39.21z"/>
<g>
	<path style="fill-rule:evenodd;clip-rule:evenodd;" d="M300.657,109.402c0,0.56,0.072,1.132-0.013,1.678
		c-0.293,1.882,0.34,2.428,2.323,2.312c1.785-0.104,2.192-0.687,1.754-2.208c-0.162-0.56-0.428-1.105,0.212-1.466
		c0.653-0.367,1.324-0.291,1.975,0.136c1.556,1.025,1.357,2.65,1.404,4.157c0.051,1.598,0.094,3.041-1.953,3.865
		c-1.156,0.465-1.395,0.467-1.289-0.601c0.152-1.541-0.678-1.593-1.749-1.37c-3.185,0.662-6.484,0.78-9.506,2.237
		c-1.558,0.75-2.972-0.344-2.809-2.116c0.138-1.521,0.534-3.018,0.836-4.521c0.138-0.688,0.336-1.564,1.207-1.367
		c0.865,0.196,1.67,0.778,1.548,1.921c-0.021,0.204-0.181,0.401-0.177,0.6c0.017,0.603-0.625,1.783,0.369,1.637
		c0.958-0.141,2.825,0.609,2.887-1.463c0.056-1.887-0.015-3.777,0.024-5.667c0.017-0.807-0.158-1.208-1.048-0.873
		c-0.522,0.195-1.065,0.329-1.593,0.515c-2.393,0.835-2.798,0.646-3.124-1.937c-0.183-1.446-0.167-2.939-0.037-4.394
		c0.069-0.781,0.439-1.799,1.554-1.544c0.933,0.212,0.953,1.076,0.773,1.891c-0.046,0.204-0.153,0.411-0.139,0.609
		c0.063,0.908-0.945,2.215,0.42,2.634c1.664,0.512,3.424-0.889,3.527-2.437c0.093-1.39,0.147-2.786,0.318-4.168
		c0.1-0.814,0.277-1.904,1.42-1.635c0.916,0.216,1.787,0.888,1.867,2.009c0.037,0.541-0.145,1.104-0.265,1.648
		c-0.65,2.947-0.432,3.216,2.456,3.281c0.511,0.01,0.568-0.289,0.705-0.568c0.337-0.684,0.631-1.392,0.963-2.083
		c0.294-0.616,0.527-1.495,1.391-1.29c0.947,0.226,1.448,1.115,1.592,2.025c0.158,1.012-2.37,4.449-3.416,4.717
		c-0.672,0.172-1.277,0.389-2.036-0.263c-1.084-0.932-2.337-0.129-2.369,1.369C300.64,107.583,300.657,108.493,300.657,109.402z"/>
	<path style="fill-rule:evenodd;clip-rule:evenodd;fill:#010101;" d="M148.224,116.667c1.205-0.683,2.434-1.328,3.602-2.069
		c0.486-0.31,1.295-0.605,1.063-1.354c-0.206-0.666-0.862-1.086-1.581-1.231c-0.821-0.166-1.662-0.237-2.48-0.417
		c-0.734-0.16-1.456-0.682-1.324-1.391c0.169-0.912,1.011-0.684,1.713-0.458c0.594,0.191,1.209,0.287,1.956,0.063
		c-0.899-1.373-1.634-2.791-1.995-4.358c-0.409-1.768,0.062-2.301,1.79-1.908c0.919,0.207,1.634-0.273,2.413-0.471
		c0.566-0.144,1.54,0.032,1.531-1.045c-0.012-1.21-0.943-0.4-1.408-0.604c-0.881-0.383-1.373-1.041-1.414-1.91
		c-0.049-1.106,0.961-0.799,1.56-0.881c1.017-0.141,1.501-0.57,1.373-1.645c-0.067-0.566,0.032-1.259,0.595-1.452
		c0.657-0.226,1.21,0.279,1.567,0.812c0.359,0.531,0.413,1.246,1.431,0.695c0.646-0.349,1.342,0.179,1.557,0.967
		c0.188,0.687-0.016,1.232-0.72,1.526c-0.257,0.108-0.499,0.25-0.745,0.379c-0.766,0.402-2.041,0.6-1.561,1.793
		c0.407,1.007,1.447,0.236,2.094,0.054c1.151-0.328,1.944,0.215,2.64,0.848c0.777,0.708,0.173,1.545-0.123,2.311
		c-0.769,1.986-1.771,3.757-4.17,4.004c-1.829,0.19-1.22,1.722-1.604,2.711c-0.44,1.135,0.571,1.318,1.166,1.62
		c2.36,1.199,4.77,2.297,7.148,3.464c0.477,0.234,1.241,0.46,1.094,1.096c-0.197,0.844-1.051,0.608-1.595,0.432
		c-1.599-0.515-3.191,0.758-4.882-0.281c-1.432-0.881-2.672-2.416-4.163-2.662c-1.372-0.226-2.698,1.485-4.312,1.723
		c-0.415,0.062-0.834,0.088-1.252,0.13C148.742,117.241,148.202,117.509,148.224,116.667z"/>
	<path style="fill-rule:evenodd;clip-rule:evenodd;fill:#010101;" d="M223.039,104.111c1.327,0.189,2.112-0.319,2.811-1.542
		c1.136-1.987,2.669-3.752,3.407-5.966c0.203-0.608,0.294-1.308,1.109-1.28c0.584,0.021,1.02,0.467,1.307,0.947
		c0.433,0.725,0.158,1.291-0.627,1.647c0.205,0.107,0.333,0.233,0.434,0.213c1.067-0.206,2.164-1.276,3.157,0.149
		c0.271,0.389,0.351,0.834-0.011,1.133c-1.113,0.918-2.639,1.77-3.817,1.134c-2.271-1.229-2.373,1.134-3.45,1.764
		c-0.366,0.214,0.203,1.08,0.92,1.191c1.159,0.179,2.318,0.378,3.483,0.495c2.032,0.204,2.377,0.733,1.64,2.69
		c-0.147,0.392-0.336,0.767-0.502,1.15c-0.162,0.376-0.316,0.754-0.508,1.212c1.143,0.021,2.15,0.174,3.194-0.148
		c1.085-0.332,1.797,0.488,2.424,1.189c0.335,0.375,0.199,0.936-0.094,1.375c-0.36,0.541-0.829,0.588-1.455,0.45
		c-3.252-0.722-6.521-0.317-9.779-0.024c-0.684,0.062-1.338,0.099-1.66,0.965c-1.174,3.142-4.025,4.681-6.881,7.114
		c0.767-3.09,3.293-4.476,4.058-6.981c-1.186-0.285-2.072,0.361-3.031,0.626c-0.668,0.183-1.326,0.457-2.008,0.544
		c-1.26,0.161-1.787-0.83-1.99-1.748c-0.203-0.912,0.809-0.964,1.43-1.155c1.189-0.366,2.738-0.337,3.479-1.107
		c0.435-0.453-0.543-2.116-0.615-3.253c-0.066-1.047-0.984-2.685,1.25-2.766C221.488,104.221,222.264,104.074,223.039,104.111z"/>
	<path style="fill-rule:evenodd;clip-rule:evenodd;fill:#010101;" d="M250.651,101.08c0.882-1.493,1.745-2.996,2.655-4.472
		c0.398-0.646,0.851-1.48,1.785-0.795c0.725,0.533,1.062,1.385,0.568,2.216c-0.42,0.709-1.086,1.269-1.607,1.921
		c-0.289,0.363-0.786,0.721-0.492,1.267c0.379,0.707,0.839-0.007,1.254-0.032c1.135-0.064,2.4-0.036,1.43-1.879
		c-0.297-0.566,0.211-1.478,0.889-1.695c0.753-0.242,1.27,0.396,1.567,1.059c0.374,0.836,0.479,1.861,1.833,1.726
		c0.388-0.039,0.664,0.481,0.679,0.937c0.016,0.523-0.145,0.966-0.722,1.131c-0.337,0.096-0.661,0.261-1.002,0.299
		c-0.775,0.082-0.799,0.594-0.824,1.195c-0.036,0.9,0.582,0.5,0.983,0.55c0.743,0.092,1.414,0.341,1.456,1.206
		c0.039,0.809-0.652,1.041-1.262,1.157c-0.76,0.144-1.298,0.317-1.219,1.28c0.103,1.281,0.93,0.358,1.379,0.467
		c0.757,0.181,1.381,0.438,1.415,1.271c0.031,0.763-0.605,1.191-1.228,1.181c-1.514-0.023-1.751,0.83-1.53,1.999
		c0.268,1.432,1.35,0.476,2.041,0.573c0.671,0.095,1.37-0.151,1.979,0.391c0.452,0.401,0.77,0.829,0.646,1.443
		c-0.145,0.711-0.726,0.731-1.303,0.769c-2.441,0.153-4.884,0.312-7.321,0.49c-0.84,0.062-1.663,0.08-1.561,1.376
		c0.072,0.892-0.814,1.466-1.481,1.491c-0.999,0.038-1.027-0.987-1.031-1.734c-0.026-4.612-0.013-9.224-0.013-13.846
		c-0.588-0.215-0.945,0.439-1.584,0.443c-0.188-0.85,0.436-1.391,0.77-2.029C249.519,101.629,250.144,101.392,250.651,101.08z"/>
	<path style="fill-rule:evenodd;clip-rule:evenodd;fill:#010101;" d="M195.544,113.378c1.926,0.494,3.591,0.922,5.445,1.398
		c-0.686-1.664-1.407-3.059-1.818-4.541c-0.271-0.981-0.623-2.564,1.498-1.561c0.656,0.31,1.357-0.025,2.025-0.191
		c1.281-0.319,2.551-0.751,3.854-0.932c2.415-0.335,3.401,0.914,2.629,3.172c-0.044,0.133-0.051,0.301-0.14,0.392
		c-0.761,0.78,0.987,2.02-0.347,2.524c-0.863,0.325-1.947,0.006-2.884,0.205c-1.125,0.238-2.351,0.235-3.411,1.005
		c3.686,1.089,7.573-0.075,11.257,1.248c-3.364,3.472-7.296,2.047-11.02,1.657c-1.784-0.187-3.545-0.745-5.27-1.282
		c-1.493-0.467-2.902-0.852-4.458-0.197c-0.844,0.355-1.881,0.502-2.165-0.789c-0.238-1.081,0.689-1.185,1.403-1.436
		c2.639-0.924,3.329-3.511,1.537-5.736c-0.476-0.592-0.859,0.051-1.269,0.13c-0.627,0.122-1.162,0.049-1.348-0.595
		c-0.185-0.646,0.361-0.794,0.851-0.938c0.399-0.116,0.78-0.3,1.182-0.417c0.892-0.261,1.78-1.271,2.694-0.503
		c0.873,0.73,0.002,1.676-0.162,2.521c-0.096,0.477-0.212,0.917,0.146,1.378C197.015,111.493,197.002,111.505,195.544,113.378z"/>
	<path style="fill-rule:evenodd;clip-rule:evenodd;fill:#010101;" d="M97.244,82.274c3.924,2.061,6.131,5.584,7.639,9.519
		c1.189,3.11-0.211,5.685-2.887,7.272c-3.504,2.076-3.569-1.954-5.526-3.404c-3.488,6.374-10.146,8.963-15.875,12.729
		c-2.991,1.968-5.406,0.712-7.333-1.857c-2.556-3.398,0.701-4.356,2.622-5.1c2.586-0.998,2.293-2.485,2.104-4.618
		c-1.144-12.918-0.624-25.825,0.734-38.708c0.483-4.55,1.633-7.812,7.518-7.419c3.563,0.234,7.254-1.216,10.864-2.021
		c4.94-1.106,8.895,1.753,8.314,5.712c-1.366,9.268-3.13,18.84-10.773,25.676c-1.04,1.746-2.591,3.013-4.371,3.791
		c-4.436,1.934-5.297,5.166-4.013,9.636c3.935-1.285,5.828-3.674,5.811-7.706C92.056,82.261,94.008,81.214,97.244,82.274z"/>
	<path style="fill-rule:evenodd;clip-rule:evenodd;fill:#010101;" d="M109.296,119.626c-1.402-20.609,0.537-40.364-0.031-60.114
		c-0.1-3.473,1.202-5.167,5.249-4.477c4.939,0.843,10.205,0.774,14.782-1.124c5.796-2.399,7.977,0.69,8.897,5.056
		c2.185,10.375,2.397,20.915,0.415,31.36c-0.971,5.104-8.923,11.115-13.874,10.621c-4.383-0.438-2.681-5.369-5.521-7.774
		c7.72,1.361,9.417-2.767,10.085-8.796c0.708-6.364,1.197-12.699,0.565-19.046c-0.244-2.446,0.999-6.85-3.471-6.297
		c-3.946,0.489-9.169,0.636-9.102,7.112c0.077,7.461-0.099,14.927-0.239,22.387c-0.104,5.491-0.39,10.975-0.479,16.463
		C116.482,110.695,114.655,115.516,109.296,119.626z"/>
	<path style="fill-rule:evenodd;clip-rule:evenodd;fill:#010101;" d="M280.471,110.801c2.472-0.012,2.731,0.764,1.507,4.698
		c0.85,0,1.676-0.085,2.478,0.023c0.82,0.109,1.475,0.616,1.412,1.529c-0.069,0.969-0.897,0.916-1.589,0.892
		c-5.729-0.209-11.432,0.216-17.136,0.636c-0.83,0.061-1.651,0.008-1.786-0.963c-0.143-1.015,0.757-1.394,1.494-1.334
		c2.399,0.195,2.372-0.839,1.605-2.607c-0.376-0.868-0.522-1.946,0.674-2.525c3.061-0.393,6.144-0.558,9.207-0.939
		C279.084,110.117,279.869,110.211,280.471,110.801z"/>
	<path style="fill-rule:evenodd;clip-rule:evenodd;fill:#010101;" d="M269.143,110.771c-0.423-0.829-0.316-1.459,0.636-1.82
		c0.79-0.299,1.471-0.741,1.873-1.698c-1.159,0.064-2.227,0.136-3.298,0.181c-0.728,0.027-1.259-0.347-1.336-1.051
		c-0.097-0.889,0.664-0.944,1.28-1.002c1.318-0.12,2.644-0.167,3.96-0.302c0.406-0.042,1.118,0.167,1.032-0.637
		c-0.065-0.624-0.626-0.351-0.992-0.396c-0.204-0.026-0.419,0.033-0.625,0.014c-0.777-0.072-1.91,0.328-2.047-0.847
		c-0.159-1.367,1.197-0.829,1.852-1.06c0.865-0.303,1.837-0.094,2.096-1.451c0.174-0.91,1.176-1.223,1.691-0.309
		c0.815,1.441,1.991,1.111,3.191,1.052c0.763-0.039,1.728-0.11,1.879,0.841c0.188,1.176-0.974,0.878-1.617,1.117
		c-0.13,0.049-0.288,0.03-0.406,0.094c-0.89,0.477-2.707-0.551-2.647,1.012c0.027,0.717,1.926,0.137,2.973,0.145
		c0.974,0.008,1.948-0.125,2.921-0.113c0.83,0.01,1.312,0.628,1.348,1.34c0.054,1.031-0.855,0.638-1.393,0.691
		c-0.76,0.077-1.527,0.066-2.292,0.092c-1.62,0.293-3.318,0.295-4.721,1.295c0.363,0.438,0.685-0.092,1.019-0.037
		c0.604-0.14,1.193-0.225,1.688-0.719c0.648-0.645,1.377-0.547,2.017,0.105c1.102,0.748,2.265,1.47,1.261,3.078
		c-3.217-0.133-6.4,0.098-9.558,0.746C270.328,111.254,269.696,111.095,269.143,110.771z"/>
	<path style="fill-rule:evenodd;clip-rule:evenodd;fill:#010101;" d="M172.639,110.408c-1.204,2.151-2.911,3.851-4.977,5.685
		c0.094-1.654,0.888-2.683,1.476-3.78c1.116-2.089,2.227-4.182,3.42-6.228c0.697-1.195,1.317-2.209-0.124-3.385
		c-0.523-0.428-0.809-1.701,0.441-1.661c3.155,0.099,3.516-2.443,4.428-4.416c0.418-0.902,0.651-1.846,1.848-1.251
		c1.09,0.542,1.133,1.461,0.468,2.456c-0.338,0.507-0.789,0.991-0.721,1.773c1.397-0.077,2.696-0.456,4.004-0.914
		c1.148-0.403,2.296-0.239,2.752,1.077c0.492,1.42-0.593,1.811-1.657,2.1c-0.875,0.237-1.748,0.562-2.638,0.643
		c-3.898,0.347-6.29,2.48-7.495,6.104c0.265,0.381,0.034,0.681-0.159,0.988C173.433,109.979,173.024,110.178,172.639,110.408z"/>
	<path style="fill-rule:evenodd;clip-rule:evenodd;fill:#010101;" d="M185.673,114.962c0.715-0.116,1.468-0.092,2.037,0.581
		c0.4,0.475,0.95,0.935,0.729,1.633c-0.226,0.722-0.898,0.761-1.549,0.776c-2.654,0.062-5.297,0.28-7.908,0.763
		c-0.926,0.171-1.666-0.058-2.181-0.85c-0.617-0.951-0.643-1.724,0.718-1.947c0.552-0.089,1.111-0.183,1.666-0.171
		c1.586,0.03,1.955-0.756,1.798-2.222c-0.098-0.908-0.296-1.252-1.228-1.063c-1.417,0.286-1.863-0.77-2.09-1.79
		c-0.311-1.392,0.938-1.447,1.746-1.477c1.521-0.053,1.598-0.916,1.584-2.08c-0.009-0.675-0.318-1.723,0.834-1.791
		c0.902-0.055,1.517,0.566,1.907,1.395c0.213,0.451-0.236,1.463,0.925,1.176c0.941-0.231,1.55,0.231,1.703,1.079
		c0.176,0.978-0.222,1.829-1.23,2.161c-0.93,0.306-1.568,0.629-1.553,1.835C183.608,115.044,183.524,115.048,185.673,114.962z"/>
	<path style="fill-rule:evenodd;clip-rule:evenodd;fill:#020202;" d="M145.085,119.021c-1.309-4.909-0.443-9.454-0.115-13.971
		c-0.198-0.041-0.398-0.131-0.438-0.083c-0.816,0.977-2.407,2.349-2.918,1.843c-0.967-0.958,0.298-2.348,0.88-3.449
		c0.977-1.85,2.102-3.632,3.508-5.189c0.537-0.596,1.124-1.737,2.181-0.871c0.946,0.775,1.267,1.869,0.448,2.973
		c-0.705,0.949-1.497,1.835-2.28,2.78c0.826,0.515,1.415,1.145,1.109,2.321c-0.84,3.222-0.553,6.521-0.493,9.794
		C147.004,117.241,147.057,117.241,145.085,119.021z"/>
	<path style="fill-rule:evenodd;clip-rule:evenodd;fill:#020202;" d="M250.651,101.08c-0.284,0.451-0.566,0.903-0.85,1.354
		c-1.825-0.036-3.28,0.542-4.119,2.31c-1.812,3.814-3.742,7.555-7.271,10.675c1.096-4.003,3.475-7.051,4.562-10.68
		c-0.475-0.339-1.175-0.157-1.609-0.714c-0.751-0.957-1.025-1.965,0.469-2.115c3.295-0.329,3.941-2.826,4.672-5.277
		c0.272-0.915,0.538-1.708,1.64-1.281c1.014,0.394,1.587,1.124,0.931,2.312c-0.368,0.664-0.619,1.391-1.022,2.319
		C249.355,99.646,250.312,99.786,250.651,101.08z"/>
	<path style="fill-rule:evenodd;clip-rule:evenodd;fill:#020202;" d="M198.785,101.972c-0.913,0.085-1.514-0.389-1.742-1.194
		c-0.303-1.067,0.54-1.282,1.312-1.457c1.153-0.263,2.306-0.525,3.468-0.743c0.939-0.174,1.329-0.502,0.525-1.336
		c-0.382-0.395-0.95-0.795-0.423-1.395c0.503-0.568,1.466-0.416,1.724-0.068c1.612,2.157,3.736,1.838,5.962,1.585
		c0.808-0.092,1.375,0.708,1.506,1.499c0.108,0.671-0.428,0.975-1.064,0.992c-3.658,0.109-7.157,1.045-10.645,2.035
		C199.206,101.945,198.993,101.945,198.785,101.972z"/>
	<path style="fill-rule:evenodd;clip-rule:evenodd;fill:#030303;" d="M247.273,109.785c1.811-0.005,2.385,1.249,2.537,2.707
		c0.148,1.419-1.013,1.488-2.051,1.789c-1.457,0.422-2.855,1.059-4.252,1.669c-0.883,0.385-1.588,0.354-2.195-0.465
		c-0.658-0.887,0.244-1.148,0.582-1.688c1.329-2.112,2.556-4.288,3.903-6.387c0.365-0.568,0.482-1.943,1.63-1.219
		c0.922,0.581,1.037,1.576,0.159,2.486c-0.219,0.227-0.315,0.569-0.469,0.86c-0.354,1.074-1.208,1.809-1.846,2.708
		C246.228,111.985,246.228,111.985,247.273,109.785z"/>
	<path style="fill-rule:evenodd;clip-rule:evenodd;fill:#050505;" d="M221.385,104.024c-0.459-0.988-0.281-2.384-2.008-2.511
		c-0.561-0.042-0.906-1.078-0.84-1.768c0.063-0.659,0.759-0.716,1.312-0.753c1.481-0.098,1.063-1.379,1.381-2.194
		c0.204-0.525,0.354-1.089,1.04-1.142c0.628-0.047,1.311,0.347,1.314,0.816c0.018,2.152,1.434,1.289,2.475,1.263
		c0.272-0.005,0.545,0,0.933,0c-0.132,1.259-1.147,1.655-1.915,2.028c-1.128,0.549-2.161,0.951-1.742,2.511
		c0.189,0.696-0.579,0.86-0.822,1.324C222.242,104.02,222.012,104.548,221.385,104.024z"/>
	<path style="fill-rule:evenodd;clip-rule:evenodd;fill:#050505;" d="M274.414,97.009c-0.012,0.854-0.362,1.461-0.969,1.621
		c-1.449,0.385-1.138,1.966-1.825,2.585c-1.216,1.094-1.055-1.794-2.464-1.271c-0.43,0.158-0.96,0.082-1.439,0.046
		c-0.642-0.049-1.034-0.443-1.054-1.082c-0.02-0.668,0.545-0.772,1.022-0.781c1.288-0.027,2.072-0.424,1.917-1.931
		c-0.059-0.562,0.371-1.123,0.977-1.19c0.662-0.074,1.424,0.356,1.525,0.895C272.39,97.384,273.377,97.233,274.414,97.009z"/>
	<path style="fill-rule:evenodd;clip-rule:evenodd;fill:#050505;" d="M274.699,98.289c1.457-0.526,3.488-0.317,3.636-2.626
		c0.009-0.148,0.518-0.443,0.636-0.379c1.31,0.705,2.807,1.258,3.807,2.285c0.774,0.795-0.321,1.6-1.114,1.694
		c-1.804,0.216-3.632,0.204-5.271,1.712C277.737,98.493,275.216,99.237,274.699,98.289z"/>
	<path style="fill-rule:evenodd;clip-rule:evenodd;fill:#030303;" d="M173.425,109.471c0.146-0.287,0.292-0.573,0.438-0.859
		c1.514,0.14,1.78,1.159,1.607,2.39c-0.294,2.08-0.408,4.15-0.205,6.248c0.084,0.861-0.119,1.85-1.209,1.825
		c-0.97-0.021-1.047-1.038-1.062-1.759c-0.046-2.02,0.024-4.039,0.05-6.06C173.409,110.712,172.893,109.979,173.425,109.471z"/>
	<path style="fill-rule:evenodd;clip-rule:evenodd;fill:#050505;" d="M233.124,119.79c-0.086-0.027-0.369-0.027-0.453-0.157
		c-1.012-1.563-2.092-3.097-2.934-4.75c-0.307-0.601,0.371-1.11,1.113-1.163c1.545-0.109,4.251,3.158,3.743,4.595
		C234.371,118.95,234.07,119.645,233.124,119.79z"/>
	<path style="fill-rule:evenodd;clip-rule:evenodd;fill:#090909;" d="M201.974,107.455c-0.753-0.067-1.563-0.048-1.764-0.882
		c-0.248-1.038,0.824-1,1.37-1.154c1.399-0.398,2.847-0.638,4.284-0.895c0.69-0.122,1.597-0.207,1.841,0.55
		c0.286,0.885-0.689,1.143-1.287,1.319C204.96,106.828,203.458,107.111,201.974,107.455z"/>
	<path style="fill-rule:evenodd;clip-rule:evenodd;fill:#070707;" d="M202.653,104.317c-1.118-0.08-2.11,0.014-2.268-0.91
		c-0.185-1.078,0.964-1.031,1.608-1.223c1.264-0.373,2.578-0.57,3.87-0.844c0.664-0.141,1.364-0.096,1.598,0.597
		c0.291,0.874-0.461,1.226-1.117,1.422C205.018,103.754,203.666,104.059,202.653,104.317z"/>
	<path style="fill-rule:evenodd;clip-rule:evenodd;fill:#FFFFFF;" d="M97.244,82.274c-1.992,0.134-5.029,0.529-4.184,2.8
		c3.18,8.544-4.236,8.385-8.262,11.593c-1.657-11.708-1.657-11.708,9.847-16.611C95.511,80.796,96.377,81.535,97.244,82.274z"/>
	<path style="fill-rule:evenodd;clip-rule:evenodd;fill:#090909;" d="M193.311,98.907c1.24-0.057,2.778,1.529,2.811,2.88
		c0.017,0.697-0.147,1.247-0.96,1.306c-0.454,0.033-3.328-2.511-3.252-2.888C192.059,99.452,192.512,98.98,193.311,98.907z"/>
	<path style="fill-rule:evenodd;clip-rule:evenodd;fill:#FFFFFF;" d="M269.143,110.771c2.118,0.139,4.084-0.783,6.18-0.878
		c1.757-0.081,3.499-0.315,5.161,0.493c0.018,0.139,0.013,0.277-0.013,0.415c-2.775,0.215-5.554,0.396-8.325,0.665
		c-1.045,0.103-2.049,0.173-3.015-0.316C269.121,111.022,269.125,110.896,269.143,110.771z"/>
	<path style="fill-rule:evenodd;clip-rule:evenodd;fill:#FFFFFF;" d="M273.782,107.864c1.542-1.625,3.521-1.271,5.438-1.201
		c0.001,0.216,0.001,0.43,0.003,0.645c-0.75,0.003-1.727-0.951-2.073,0.687c-0.121,0.573-1.1,0.211-1.677,0.332
		C274.858,108.364,274.084,108.977,273.782,107.864z"/>
	<path style="fill-rule:evenodd;clip-rule:evenodd;fill:#FFFFFF;" d="M247.273,109.785c0.633,2.571-1.037,3.095-3.203,3.513
		c0.883-1.569,1.814-2.784,3.048-3.759l0.15,0.079L247.273,109.785z"/>
	<path style="fill-rule:evenodd;clip-rule:evenodd;fill:#2B2B2B;" d="M148.224,116.667c0.192,0.419,0.633,0.344,0.963,0.487
		c-0.49,0.47-1.18,0.571-1.604,0.198C147.304,117.108,147.794,116.726,148.224,116.667z"/>
	<path style="fill-rule:evenodd;clip-rule:evenodd;fill:#FFFFFF;" d="M156.707,106.96c-0.005-2.633-0.005-2.633,2.457-3.333
		C158.902,105.185,158.85,106.716,156.707,106.96z"/>
	<path style="fill-rule:evenodd;clip-rule:evenodd;fill:#FFFFFF;" d="M154.741,105.061c-0.413,1.175,0.412,2.496-1.338,2.819
		c-1.1,0.203-1.239-0.756-1.208-1.256C152.283,105.251,153.555,105.49,154.741,105.061z"/>
	<path style="fill-rule:evenodd;clip-rule:evenodd;fill:#FFFFFF;" d="M154.121,110.414c-0.057,0.249-0.076,0.573-0.453,0.458
		c-0.279-0.084-0.764-0.067-0.625-0.553c0.049-0.172,0.391-0.307,0.623-0.369C154.031,109.851,154.097,110.131,154.121,110.414z"/>
	<path style="fill-rule:evenodd;clip-rule:evenodd;fill:#FFFFFF;" d="M226.354,109.435c0.73-1.58,0.283-3.863,2.961-4.073
		c1.052-0.082,1.404,0.144,1.177,1.223C229.957,109.116,229.299,109.609,226.354,109.435z"/>
	<path style="fill-rule:evenodd;clip-rule:evenodd;fill:#FFFFFF;" d="M224.49,106.185c0.27,0.681,0.082,1.143-0.111,1.574
		c-0.357,0.801,0.088,2.271-1.354,2.191c-1.156-0.063-0.97-1.371-1.175-2.148c-0.396-1.506,1.056-1.071,1.748-1.419
		C223.837,106.263,224.135,106.259,224.49,106.185z"/>
	<path style="fill-rule:evenodd;clip-rule:evenodd;fill:#FFFFFF;" d="M253.287,102.102c0.888,0.678,1.137,1.677,2.181,1.54
		c0.468-0.062,1.009-0.156,1.019,0.626c0.008,0.625-0.132,1.015-0.843,1.2c-0.575,0.148-1.636-0.22-1.583,0.848
		c0.041,0.821,0.748,1.342,1.574,1.426c0.65,0.066,0.836,0.354,0.785,0.94c-0.054,0.616-0.456,0.759-0.983,0.861
		c-0.599,0.115-1.605-0.233-1.508,0.894c0.071,0.825,0.694,1.451,1.521,1.475c1.1,0.032,0.944,0.735,1.014,1.413
		c0.107,1.049-0.719,0.767-1.254,0.938c-1.747,0.565-2.428,0.065-2.371-1.877C252.938,109.05,252.961,105.716,253.287,102.102z"/>
	<path style="fill-rule:evenodd;clip-rule:evenodd;fill:#FFFFFF;" d="M206.937,109.497c-0.621,2.202-2.079,3.219-3.961,3.013
		c-0.59-0.065-0.857-0.298-1.002-0.845c-0.17-0.655,0.183-0.876,0.708-1.018C204.068,110.276,205.453,109.898,206.937,109.497z"/>
	<path style="fill-rule:evenodd;clip-rule:evenodd;fill:#FFFFFF;" d="M95.625,63.487c-2.5-0.196-4.527-3.101-7.294-0.869
		c-0.72,0.578-2.45,1.852-3.176-0.097c-0.518-1.379-0.483-3.124,0.776-4.284c0.595-0.547,1.542-0.736,2.357-1.006
		c2.798-0.933,5.98-4.24,8.215-2.41C98.972,56.844,95.871,60.414,95.625,63.487z"/>
	<path style="fill-rule:evenodd;clip-rule:evenodd;fill:#FFFFFF;" d="M84.724,76.693c-3.314-8.329,4.156-6.877,7.205-9.315
		c0.666-0.535,1.194-0.098,1.334,0.553c0.373,1.762,0.408,3.781-1.082,4.816C89.925,74.319,87.302,75.368,84.724,76.693z"/>
	<path style="fill-rule:evenodd;clip-rule:evenodd;fill:#FFFFFF;" d="M276.537,115.739c1.261-1.411,1.391-3.498,3.829-3.316
		C279.747,114.166,279.392,115.985,276.537,115.739z"/>
	<path style="fill-rule:evenodd;clip-rule:evenodd;fill:#FFFFFF;" d="M276.356,113.019c-0.1,0.387-0.108,0.767-0.286,1.037
		c-0.378,0.581-0.111,1.849-1.147,1.666c-0.863-0.15-0.37-1.181-0.385-1.8C274.505,112.524,275.496,112.938,276.356,113.019z"/>
	<path style="fill-rule:evenodd;clip-rule:evenodd;fill:#FFFFFF;" d="M272.431,115.097c0.27,0.729-0.137,0.863-0.588,0.832
		c-0.964-0.066-0.896-0.896-1.059-1.541c-0.129-0.516-0.152-1.028,0.57-1.042C272.767,113.318,271.763,114.784,272.431,115.097z"/>
	<path style="fill-rule:evenodd;clip-rule:evenodd;fill:#101010;" d="M343.693,97.941c-0.303-0.022-0.603-0.044-0.903-0.065
		c-0.685-0.036-1.439,0.301-2.01-0.365c1.064-1.243,2.532-1.816,3.999-2.377c0.767-0.293,1.592-0.338,1.844,0.637
		c0.245,0.951-0.659,0.995-1.261,1.282C344.796,97.323,343.719,96.669,343.693,97.941z"/>
	<path style="fill-rule:evenodd;clip-rule:evenodd;fill:#090909;" d="M431.945,98.309c0.001,0.688-0.212,1.3-0.873,1.244
		c-1.3-0.107-2.108-0.978-2.459-2.179c-0.193-0.664,0.391-0.779,0.905-0.781C430.762,96.588,431.633,97.108,431.945,98.309z"/>
	<path style="fill-rule:evenodd;clip-rule:evenodd;fill:#FFFFFF;" d="M340.78,97.511c0.607,0.459,1.468-0.471,2.01,0.365
		c-1.101,1.352,0.341,1.904,0.94,2.697c-1.492,0.953-2.324,0.543-2.776-1.04c-0.166-0.587-0.599-1.097-0.909-1.642
		C340.289,97.765,340.534,97.639,340.78,97.511z"/>
	<path style="fill-rule:evenodd;clip-rule:evenodd;" d="M380.793,101.88c1.347,0.042,2.599-0.705,3.743,0.228
		c0.572,0.468,1.022,1.022,0.827,1.79c-0.199,0.78-0.917,0.732-1.544,0.766c-0.209,0.01-0.422-0.011-0.628,0.01
		c-3.044,0.305-3.12-0.659-3.276,3.289c-0.083,2.098-1.083,2.747-2.875,2.998c-1.21,0.171-2.474,0.041-3.605,0.767
		c-0.713,0.457-0.973-0.27-1.086-0.778c-0.213-0.949-0.246-1.941-0.488-2.883c-0.194-0.758,0.632-2.177-1.206-2.016
		c-1.43,0.127-2.346,0.318-2.215,2.278c0.386,5.735,0.406,5.868,6.134,5.485c1.67-0.111,3.34-0.261,5.01-0.385
		c1.283-0.096,2.279,0.304,2.336,1.742c0.056,1.387-1.152,1.096-1.97,1.278c-3.431,0.765-6.961,0.006-10.408,0.704
		c-1.157,0.232-1.665-0.91-2.148-1.715c-1.249-2.085-1.637-4.439-1.783-6.816c-0.063-1.025-0.03-1.717-1.468-1.432
		c-1.223,0.245-1.975-0.749-2.182-1.818c-0.291-1.477,1.105-1.232,1.848-1.328c1.172-0.149,1.471-0.656,1.385-1.749
		c-0.076-0.978,0.201-1.939,0.582-2.852c0.273-0.648,0.703-1.002,1.469-0.819c0.75,0.18,1.019,0.682,1.014,1.379
		c-0.002,0.346-0.094,0.692-0.118,1.041c-0.164,2.453-0.165,2.389,2.251,2.064c0.943-0.126,1.109-0.488,1.094-1.318
		c-0.019-0.969-0.038-1.948,0.273-2.904c0.236-0.73,0.523-1.354,1.413-1.185c0.769,0.146,1.185,0.71,1.227,1.488
		c0.02,0.342-0.111,0.688-0.12,1.032c-0.022,0.821-1.025,2.126,0.463,2.279c1.159,0.12,3.181,0.755,3.152-1.765
		c-0.01-0.761,0.146-1.532,0.309-2.28c0.148-0.685-0.004-1.785,1.077-1.666c0.894,0.101,1.722,0.737,1.739,1.809
		C381.035,99.635,380.883,100.675,380.793,101.88z"/>
	<path style="fill-rule:evenodd;clip-rule:evenodd;fill:#010101;" d="M400.019,104.56c-2.006,0.654-3.87,1.861-6.33,1.476
		c0,2.309,0.094,4.52-0.03,6.718c-0.104,1.853-0.935,2.412-2.528,2.02c-0.408-0.348,0.335-1.374-0.77-1.311
		c-0.781,0.581-1.538,1.195-2.351,1.728c-0.442,0.29-0.953,0.178-1.369-0.151c-0.492-0.393-0.435-0.872-0.053-1.271
		c0.713-0.742,0.339-1.57,0.242-2.367c-0.44-3.639-0.216-7.269,0.275-10.873c0.142-1.025,0.15-3.142,2.283-1.368
		c0.267,0.22,0.953,0.045,1.406-0.083c2.163-0.605,2.782-0.225,3.033,1.939c0.328,2.816,0.328,2.815,3.139,2.186
		c0.543-0.122,1.089-0.244,1.64-0.332c0.769-0.122,0.995-0.554,0.972-1.312c-0.037-1.148-0.801-0.653-1.339-0.665
		c-0.277-0.007-0.556,0.087-0.833,0.081c-0.837-0.021-1.547-0.271-1.643-1.242c-0.093-0.953,0.648-1.27,1.339-1.263
		c1.648,0.019,2.636-0.481,2.628-2.335c-0.002-0.51,0.423-1.083,1.055-1.167c0.824-0.109,1.315,0.485,1.623,1.103
		c0.275,0.555,0.234,1.228,1.213,0.84c0.726-0.286,1.404,0.003,1.62,0.845c0.216,0.837-0.319,1.313-0.979,1.635
		c-0.5,0.242-1.058,0.366-1.562,0.6c-0.849,0.391-0.663,1.256-0.532,1.836c0.141,0.613,0.826,0.204,1.262,0.133
		c1.17-0.191,2.329-0.439,3.496-0.64c0.728-0.126,1.424-0.026,1.871,0.634c0.263,0.387,0.652,0.803,0.379,1.327
		c-0.223,0.427-0.692,0.431-1.109,0.442c-1.675,0.045-3.352,0.074-5.028,0.11C402.129,104.479,401.08,104.541,400.019,104.56z"/>
	<path style="fill-rule:evenodd;clip-rule:evenodd;fill:#010101;" d="M339.605,117.654c-0.581,1.181-1.478,1.427-1.648-0.021
		c-0.439-3.785-0.526-7.609,0.728-11.305c0.226-0.663,0.599-1.205,1.561-0.841c0.833,0.315,0.876,0.2,2.148-0.152
		c-0.627-1.057-1.106-2.274-2.773-1.581c-0.363,0.151-0.852-0.179-0.866-0.674c-0.027-1.036,1.026-0.972,1.633-1.491
		c-0.602-0.7-1.23-1.376-1.794-2.104c-0.36-0.465-0.462-1.014-0.044-1.529c0.469-0.578,0.986-0.299,1.496-0.064
		c1.181,0.403,1.306,1.843,2.391,2.582c0.001-1.088-0.947-2.172,0.447-2.814c0.317-0.041,0.594,0.035,0.81,0.282
		c1.039,0.504,0.645,1.686,1.189,2.608c0.882-1.266,1.659-2.471,2.538-3.596c0.421-0.539,1.053-1.092,1.749-0.346
		c0.664,0.711,0.157,1.301-0.398,1.762c-0.634,0.523-1.328,0.971-2.1,1.525c0.538,0.349,1.097,0.559,1.425,0.959
		c0.568,0.692,1.018,1.49-0.451,1.749c-0.476,0.083-0.977,0.215-1.377,0.466c-0.518,0.323-1.172,0.755-0.937,1.467
		c0.279,0.856,1.012,0.524,1.572,0.293c1.214-0.5,1.713,0.143,1.891,1.181c0.591,3.461,0.508,6.946,0.318,10.434
		c-0.092,1.687-1.608,1.768-2.632,2.328c-1.033,0.564-0.939-0.647-1.347-1.085c-0.416-0.442-0.898-0.825-1.351-1.233
		c0.266-0.398,0.677-0.451,1.101-0.472c0.898,0.067,1.223-0.401,1.243-1.249c0.024-1.093-0.013-2.186,0.085-3.097
		c-0.504,1.186-0.234,2.684-0.749,4.049c-0.676,0.549-1.476,0.023-2.186,0.258c-1.103,0.304-2.208,0.605-3.312,0.909
		c0.853-1.495,1.644-2.969-0.017-4.486c-0.185-0.166,0.168-0.608,0.457-0.819c1.188-0.372,2.443-0.552,3.612-1.206
		c-0.383-0.091-0.618,0.139-0.882,0.234c-0.904,0.334-1.892,0.975-2.695,0.014c-0.807-0.963,0.183-1.773,0.473-2.614
		c-0.535,0.613-0.717,1.405-0.894,2.203C339.79,112.667,340.554,115.209,339.605,117.654z"/>
	<path style="fill-rule:evenodd;clip-rule:evenodd;fill:#010101;" d="M318.718,102.272c0.44,0.1,0.574,0.174,0.688,0.149
		c4.24-0.899,5.039-0.286,5.018,4.046c-0.008,2.154,0.17,4.314-0.323,6.467c-0.39,1.705-1.503,2.577-2.965,3.228
		c-0.431,0.192-0.955,0.31-1.091-0.131c-0.615-1.996-1.893-0.983-2.689-0.45c-1.255,0.837-1.706,0.306-2.147-0.756
		c-1.543-3.711-1.735-7.572-1.261-11.498c0.085-0.699,0.452-1.652,1.247-1.265c1.491,0.727,1.689-0.257,2.157-1.174
		c0.568-1.116,1.27-2.162,1.864-3.267c0.287-0.536,0.352-1.329,1.179-1.218c0.801,0.106,1.351,0.696,1.763,1.37
		c0.423,0.691-0.033,1.26-0.439,1.685C320.816,100.408,319.811,101.262,318.718,102.272z"/>
	<path style="fill-rule:evenodd;clip-rule:evenodd;fill:#010101;" d="M433.554,113.465c0.142,1.353-0.055,2.645,0.418,3.94
		c0.457,1.247-0.491,1.944-1.85,1.432c-1.239-0.467-2.354-1.187-3.29-2.164c-2.354-2.458-4.061-5.304-5.122-8.525
		c-0.321-0.978-0.57-1.7-1.796-1.004c-0.72,0.409-1.522,0.202-2.23-0.089c-0.763-0.312-1.17-1.063-1.258-1.801
		c-0.095-0.791,0.706-0.943,1.308-1.084c2.385-0.559,3.051-1.902,2.176-4.212c-0.359-0.953-0.33-2.057-0.451-3.097
		c-0.104-0.881-0.061-1.847,1.035-1.942c1.016-0.088,1.712,0.62,1.826,1.65c0.184,1.659,0.268,3.33,0.4,5.077
		c1.031,0.006,1.578-0.654,2.256-1.071c1.051-0.648,2.08-0.383,2.779,0.52c0.741,0.951,0.119,1.666-0.731,2.211
		c-0.354,0.226-0.682,0.49-1.03,0.722c-2.646,1.754-2.666,1.761-1.46,4.634c0.896,2.13,2.022,4.114,3.646,5.806
		c1.139,1.184,2.008,1.525,2.568-0.426C432.825,113.774,432.941,113.521,433.554,113.465z"/>
	<path style="fill-rule:evenodd;clip-rule:evenodd;fill:#010101;" d="M329.808,100.37c1.041,0.25,1.951,0.044,2.748-0.343
		c1.908-0.925,2.935,0.444,3.024,1.705c0.285,4.008,0.774,8.046-0.659,12.026c-1.031,2.865-3.372,3.439-5.82,4.075
		c-0.692,0.181-0.834-0.345-1.028-0.746c-0.332-0.684-0.594-1.399-0.884-2.096c3.308,0.092,4.49-0.883,5.256-4.28
		c0.606-2.694,0.333-5.428,0.41-8.146c0.013-0.404-0.121-1.082-0.608-0.749c-1.475,1.013-3.817,0.555-4.599,2.736
		c-0.253,0.708-0.967,0.82-1.576,0.705c-0.801-0.148-0.841-0.855-0.712-1.502c0.547-2.757,1.485-5.37,2.983-7.761
		c0.365-0.582,0.728-1.34,1.609-0.953c0.832,0.369,1.296,1.096,1.154,2.029C330.93,98.237,330.441,99.312,329.808,100.37z"/>
	<path style="fill-rule:evenodd;clip-rule:evenodd;fill:#020202;" d="M358.657,111.514c0.754,0.188,0.458,0.958,0.9,1.184
		c2.182,1.116,0.89,2.562,0.074,3.506c-1.396,1.616-3.436,1.661-5.428,1.289c-1.763-0.329-3.064-1.456-3.179-3.179
		c-0.37-5.58-0.207-11.147,1.515-16.549c0.175-0.545,0.292-1.381,1.086-1.328c0.77,0.05,1.439,0.496,1.87,1.202
		c0.434,0.711,0.129,1.267-0.254,1.904c-2.592,4.308-2.125,9.097-2.051,13.803c0.016,0.98,0.707,1.693,1.787,1.702
		c1.168,0.008,2.455,0.134,3.02-1.268C358.281,113.078,358.427,112.318,358.657,111.514z"/>
	<path style="fill-rule:evenodd;clip-rule:evenodd;fill:#020202;" d="M400.019,104.56c0.962-0.426,1.949-0.744,3.019-0.729
		c-0.311,1.241,0.351,1.858,1.445,2.075c0.46,0.092,0.972-0.119,1.455-0.096c0.864,0.039,2.018-0.197,2.114,1.09
		c0.08,1.082-0.938,1.451-1.744,1.407c-2.28-0.126-2.422,1.101-2.156,2.865c0.154,1.024,0.075,2.092,0.037,3.138
		c-0.084,2.299-1.252,3.795-3.391,4.465c-0.451,0.141-0.969,0.176-1.041-0.305c-0.181-1.225-1.333-1.522-2.062-2.275
		c0.145-0.119,0.238-0.26,0.316-0.251c3.181,0.351,3.181,0.353,3.268-2.849c0.115-4.139,0.116-4.135-3.835-3.123
		c-0.402,0.104-0.822,0.17-1.236,0.185c-0.996,0.032-1.357-0.716-1.45-1.481c-0.101-0.813,0.628-0.958,1.263-1.066
		c1.372-0.236,2.745-0.456,4.112-0.713c0.599-0.113,1.258-0.153,1.096-1.122C401.102,105.021,401.014,104.382,400.019,104.56z"/>
	<path style="fill-rule:evenodd;clip-rule:evenodd;fill:#010101;" d="M413.913,105.407c-1.115,1.875-2.266,2.781-3.76,3.303
		c-0.474-0.788-0.129-1.516,0.158-2.176c1.217-2.828,2.774-5.467,4.736-7.841c0.513-0.622,1.072-1.715,2.176-0.865
		c0.91,0.702,1.439,1.842,0.709,2.768c-3.258,4.124-0.782,8.841-1.521,13.208c-0.08,0.474,0.08,0.993-0.026,1.454
		c-0.171,0.728-0.756,1.344-1.421,1.366c-0.844,0.032-1.033-0.82-1.039-1.527C413.898,112.099,413.913,109.101,413.913,105.407z"/>
	<path style="fill-rule:evenodd;clip-rule:evenodd;fill:#090909;" d="M440.774,114.871c-0.424-0.047-0.908-0.03-1.343-0.168
		c-0.737-0.233-1.122-0.823-1.137-1.585c-0.014-0.757,0.333-1.38,1.046-1.666c0.8-0.321,1.556-0.104,2.048,0.594
		c0.838,1.188,0.816,2.477,0.261,3.78c-0.545,1.28-1.366,2.171-3.206,2.233C439.277,116.799,441.026,116.577,440.774,114.871z"/>
	<path style="fill-rule:evenodd;clip-rule:evenodd;fill:#090909;" d="M329.431,109.052c-0.093,0.538-0.326,1.101-1.098,1.142
		c-0.729,0.038-2.954-2.187-2.933-2.896c0.023-0.824,0.51-1.03,1.249-0.967C328.106,106.458,329.503,107.744,329.431,109.052z"/>
	<path style="fill-rule:evenodd;clip-rule:evenodd;fill:#FFFFFF;" d="M340.513,111.838c-0.904,1.267,0.642,1.631,1.04,1.94
		c1.146,0.889,0.948,1.247-0.191,1.719c-0.637,0.264-1.304,0.521-1.398,1.355c0.049,0.342-0.055,0.618-0.358,0.802
		c0.225-2.7-0.411-5.433,0.3-8.115C340.275,110.261,340.539,111.011,340.513,111.838z"/>
	<path style="fill-rule:evenodd;clip-rule:evenodd;fill:#0A0A0A;" d="M395.993,111.005c1.169,0.348,2.47,0.626,2.524,2.227
		c0.021,0.589-0.079,1.297-0.912,1.391c-0.641,0.072-2.989-2.141-2.863-2.727C394.871,111.29,395.329,110.996,395.993,111.005z"/>
	<path style="fill-rule:evenodd;clip-rule:evenodd;fill:#FFFFFF;" d="M345.023,116.331c-0.414,0.042-0.827,0.083-1.241,0.123
		c-0.169-0.17-0.338-0.341-0.507-0.511c0.568-0.952,1.475-0.058,2.154-0.396C345.639,115.988,345.328,116.158,345.023,116.331z"/>
	<path style="fill-rule:evenodd;clip-rule:evenodd;fill:#6F6F6F;" d="M390.36,113.462c0.248-0.419,0.55-0.958,0.84-0.085
		c0.136,0.411-0.036,0.928-0.069,1.396C390.432,114.595,391.117,113.604,390.36,113.462z"/>
	<path style="fill-rule:evenodd;clip-rule:evenodd;fill:#FFFFFF;" d="M377.31,106.5c-0.01,1.165,0.113,2.299-1.718,2.381
		c-1.84,0.08-1.056-1.206-1.244-1.952c-0.44-1.755,0.966-1.369,1.892-1.589C377.314,105.084,377.43,105.645,377.31,106.5z"/>
	<path style="fill-rule:evenodd;clip-rule:evenodd;fill:#E6E6E6;" d="M391.113,106.693c0.44,4.36,0.44,4.36-2.293,5.334
		C388.339,107.569,388.339,107.569,391.113,106.693z"/>
	<path style="fill-rule:evenodd;clip-rule:evenodd;fill:#FFFFFF;" d="M391.234,102.673c0.366,1.727,0.117,2.512-1.73,2.464
		c-1.211-0.032-0.811-0.673-0.746-1.096c0.197-1.27-0.306-3.113,1.787-3.172C392.29,100.819,390.627,102.398,391.234,102.673z"/>
	<path style="fill-rule:evenodd;clip-rule:evenodd;fill:#FFFFFF;" d="M340.513,111.838c-0.875-0.59-0.371-1.541-0.608-2.299
		c-0.099-1.302,0.197-2.335,1.749-2.57c0.216,0.869-0.182,1.495-0.73,2.054c-0.359,0.367-0.704,0.724-0.333,1.26
		c0.401,0.578,0.905,0.414,1.479,0.252c1.066-0.297,1.955-1.279,3.335-0.968C344.167,111.437,342.29,111.53,340.513,111.838z"/>
	<path style="fill-rule:evenodd;clip-rule:evenodd;fill:#FFFFFF;" d="M345.023,116.331c0.135-0.262,0.271-0.521,0.406-0.783
		c-0.688-1.948,0.266-3.608,0.733-5.352c0.175,0.005,0.35,0.012,0.523,0.018c0,1.738,0.024,3.477-0.008,5.215
		C346.656,116.632,345.806,116.452,345.023,116.331z"/>
	<path style="fill-rule:evenodd;clip-rule:evenodd;fill:#FFFFFF;" d="M345.883,101.489c-0.688,2.377-1.855,2.184-3.327,1.196
		C343.615,102.305,344.604,101.948,345.883,101.489z"/>
	<path style="fill-rule:evenodd;clip-rule:evenodd;fill:#FFFFFF;" d="M345.88,106.368c1.711-0.017,0.37,1.254,0.656,1.906
		c-0.359-0.383-0.721-0.764-1.08-1.146C345.187,106.646,345.607,106.548,345.88,106.368z"/>
	<path style="fill-rule:evenodd;clip-rule:evenodd;fill:#FFFFFF;" d="M345.88,106.368c-0.142,0.252-0.282,0.507-0.424,0.76
		c-0.387,0.016-0.774,0.031-1.162,0.046c-0.215,0.163-0.412,0.145-0.59-0.059C344.2,106.197,345.04,106.28,345.88,106.368z"/>
	<path style="fill-rule:evenodd;clip-rule:evenodd;fill:#FFFFFF;" d="M343.705,107.115c0.195,0.021,0.392,0.039,0.59,0.059
		c0.221,1.041-0.311,1.338-1.321,1.255C342.917,107.813,343.361,107.487,343.705,107.115z"/>
	<path style="fill-rule:evenodd;clip-rule:evenodd;fill:#FFFFFF;" d="M320.952,113.603c-0.765-1.594-1.596-1.33-2.459-0.984
		c-0.597,0.238-1.348,0.857-1.569-0.369c-0.135-0.75-0.626-1.676,0.635-2.032c0.398-0.112,0.785-0.279,1.163-0.45
		c0.9-0.403,1.956-0.821,1.555-2.069c-0.497-1.548-1.597-0.393-2.431-0.357c-0.405,0.017-0.805,0.182-1.213,0.283
		c-0.198-2.032,1.929-4.113,3.849-3.854c0.658,0.089,0.757,0.565,0.794,1.04C321.485,107.513,321.646,110.217,320.952,113.603z"/>
	<g>
		<path style="fill-rule:evenodd;clip-rule:evenodd;fill:#060606;" d="M525.828,152.723c-0.105,1.114-0.499,2.112-1.803,2.085
			c-1.347-0.027-1.778-1.309-1.924-2.272c-0.16-1.061,0.785-1.794,1.844-1.859C525.256,150.595,525.71,151.535,525.828,152.723z"/>
		<path style="fill-rule:evenodd;clip-rule:evenodd;fill:#060606;" d="M537.583,152.672c-0.086,1.134-0.471,2.131-1.771,2.137
			c-1.37,0.008-1.778-1.299-1.951-2.245c-0.193-1.061,0.756-1.796,1.81-1.883C536.984,150.571,537.447,151.505,537.583,152.672z"/>
		<path style="fill-rule:evenodd;clip-rule:evenodd;fill:#060606;" d="M549.338,152.667c-0.085,1.135-0.467,2.132-1.768,2.142
			c-1.376,0.014-1.775-1.299-1.953-2.242c-0.199-1.06,0.752-1.796,1.807-1.886C548.738,150.567,549.201,151.501,549.338,152.667z"/>
	</g>
	<g>
		<path style="fill-rule:evenodd;clip-rule:evenodd;fill:#030303;" d="M399.515,145.987c1.811-3.051,3.465-5.898,5.192-8.7
			c0.384-0.622,1.135-0.556,1.698-0.195c0.754,0.484,1.609,0.955,2.114,1.653c1.679,2.318,4.075,3.761,6.291,5.427
			c0.315,0.236,0.895,0.304,0.685,0.843c-0.225,0.58-0.684,0.542-1.203,0.254c-0.517-0.287-1.05-0.338-1.464,0.264
			c-0.496,0.725-1.052,0.401-1.627,0.066c-1.722-1.001-3.11-2.316-4.045-4.096c-1.154-2.195-1.165-2.189-2.728-0.164
			C401.582,145.026,401.417,145.189,399.515,145.987z"/>
		<path style="fill-rule:evenodd;clip-rule:evenodd;fill:#030303;" d="M360.981,141.7c1.067,0.237,2.071-1.846,2.704-0.117
			c0.463,1.266-1.205,1.421-2.002,1.941c-0.759,0.496-1.749,0.894-2.541,0.247c-0.771-0.63-0.141-1.538-0.056-2.338
			c0.08-0.762,1.193-1.921-0.111-2.203c-0.974-0.212-1.759,0.872-1.916,2.077c-0.168,1.295,0.087,2.67-0.67,3.862
			c-0.261,0.414-0.524,0.915-1.095,0.827c-0.687-0.105-0.511-0.74-0.526-1.186c-0.056-1.535-0.113-3.071-0.083-4.604
			c0.047-2.238,0.459-2.434,2.699-2.4c0.958,0.014,2.014-0.519,2.866-1.057c0.899-0.566,1.556-0.484,2.216,0.208
			c0.663,0.695,0.362,1.409-0.062,2.097C361.902,139.868,361.101,140.517,360.981,141.7z"/>
		<path style="fill-rule:evenodd;clip-rule:evenodd;fill:#040404;" d="M421.081,141.381c-0.572,0.499-1.108,1.061-1.951,1.073
			c-0.176-2.299,2.681-6.639,4.737-7.248c1.12-0.332,1.423,0.572,1.546,1.22c0.197,1.051,0.586,1.206,1.49,0.817
			c0.823-0.356,1.688-0.625,2.539-0.91c1.794-0.6,2.447-0.08,2.463,1.947c-2.269,1.774-4.973,1.936-7.68,2.023
			c-0.484,0.017-0.971-0.069-1.442,0.101C422.105,140.534,421.573,140.921,421.081,141.381z"/>
		<path style="fill-rule:evenodd;clip-rule:evenodd;fill:#030303;" d="M473.247,139.943c-0.106-0.317-0.113-0.48-0.199-0.568
			c-0.666-0.686-2.122-1.254-0.932-2.403c0.93-0.899,2.031-0.27,2.963,0.516c0.685,0.576,0.791,1.651,1.762,1.943
			c-0.939,0.777-1.327,1.898-1.867,2.932c-0.182,0.348-0.777,0.389-0.88,0.092c-0.649-1.854-1.493-0.451-2.153-0.11
			c-0.98,0.507-1.826,1.282-2.814,1.769c-1.256,0.619-2.445,0.267-2.925-1.051c-0.544-1.493,0.927-1.441,1.738-1.696
			C469.659,140.825,471.419,140.424,473.247,139.943z"/>
		<path style="fill-rule:evenodd;clip-rule:evenodd;fill:#040404;" d="M346.12,137.047c1.618,0.902,3.035,0.248,4.396-0.866
			c0.497-0.408,1.227-0.561,1.744-0.119c0.614,0.527,0.426,1.302,0.091,1.926c-0.43,0.803-1.022,1.422-0.654,2.549
			c0.261,0.793-0.745,1.086-1.262,0.689c-1.938-1.485-2.993-0.126-4.147,1.101c-0.588,0.623-1.344,1.867-1.991,1.33
			c-0.647-0.536,0.511-1.491,0.925-2.234c0.232-0.418,0.56-0.801,0.903-1.142c0.818-0.807,0.906-1.319-0.419-1.615
			c-0.546-0.123-1.469-0.264-1.332-1.033C344.521,136.795,345.427,137.295,346.12,137.047z"/>
		<path style="fill-rule:evenodd;clip-rule:evenodd;fill:#040404;" d="M446.226,139.872c-1.375,0.021-2.099-0.633-2.591-1.664
			c-0.448-0.939-0.246-1.381,0.853-1.527c2.066-0.274,4.108-0.713,6.173-0.996c1.096-0.15,2.127,0.145,2.353,1.42
			c0.212,1.197-0.676,1.527-1.637,1.719C449.604,139.177,447.833,139.546,446.226,139.872z"/>
		<path style="fill-rule:evenodd;clip-rule:evenodd;fill:#F9F9F9;" d="M422.341,140.159c0.324-0.255,0.775-0.802,0.955-0.724
			c3.121,1.353,5.764-0.648,8.609-1.155c0.019,0.158,0.037,0.317,0.054,0.477c-1.192,0.349-0.831,1.286-0.741,2.07
			c0.096,0.829,0.28,1.643,0.127,2.488c-0.129,0.716-0.673,0.596-1.129,0.597c-0.562,0.003-0.656-0.332-0.547-0.836
			c0.104-0.474,0.133-0.966,0.178-1.45c0.066-0.717-0.202-1.328-0.95-1.35c-0.738-0.021-0.731,0.693-0.772,1.237
			c-0.045,0.624-0.064,1.253-0.064,1.879c0.001,0.628-0.334,0.826-0.908,0.876c-0.841,0.071-0.568-0.528-0.665-0.959
			c-0.2-0.906,0.69-2.553-0.794-2.551c-1.382,0.003-0.735,1.653-0.85,2.601c-0.082,0.686,0.12,1.449-0.99,1.383
			c-1.373-0.081-0.593-0.995-0.535-1.511c0.113-1.013,0.666-2.115-0.971-2.387C422.04,140.619,422.06,140.391,422.341,140.159z"/>
		<path style="fill-rule:evenodd;clip-rule:evenodd;fill:#060606;" d="M472.669,145.576c1.464-1.135,2.961-2.232,4.38-3.421
			c1.097-0.917,2.392-1.653,2.789-3.248c0.204-0.818,1.069-0.742,1.766-0.635c0.976,0.149,1.675,0.725,1.959,1.648
			c0.212,0.692-0.198,1.197-0.862,1.456c-3.341,1.302-6.504,2.983-9.691,4.614C472.896,145.854,472.782,145.715,472.669,145.576z"/>
		<path style="fill-rule:evenodd;clip-rule:evenodd;fill:#090909;" d="M455.956,140.333c1.193-2.184,2.805-3.09,4.121-4.271
			c0.74-0.666,1.29-0.106,1.635,0.566c0.467,0.914,0.495,1.839-0.633,2.232C459.586,139.381,458.038,139.744,455.956,140.333z"/>
		<path style="fill-rule:evenodd;clip-rule:evenodd;fill:#080808;" d="M399.325,138.374c-0.257,0.566-0.452,1.765-0.89,1.289
			c-0.832-0.9-2.373-1.312-2.474-2.719c-0.052-0.716,0.859-0.914,1.456-0.77C398.544,136.446,399.489,137.002,399.325,138.374z"/>
		<path style="fill-rule:evenodd;clip-rule:evenodd;fill:#1E1E1E;" d="M351.624,141.811c0.646,0.232,1.629,0.111,1.761,1.091
			c0.09,0.671-0.521,1.004-1.124,0.882c-0.731-0.145-1.606-0.321-1.715-1.255C350.468,141.876,351.076,141.835,351.624,141.811z"/>
		<path style="fill-rule:evenodd;clip-rule:evenodd;fill:#9E9E9E;" d="M422.341,140.159c0.002,0.229,0.005,0.458,0.006,0.686
			c-0.283,0.168-0.567,0.339-0.851,0.508c-0.139,0.009-0.277,0.019-0.414,0.028C421.501,140.974,421.921,140.566,422.341,140.159z"
			/>
		<g>
			<path style="fill-rule:evenodd;clip-rule:evenodd;" d="M499.343,159.952c-0.69-2.646-0.613-5.14-0.592-7.604
				c0.012-1.235-0.343-1.616-1.52-1.347c-0.609,0.139-1.315,0.025-1.852,0.286c-2.36,1.15-3.207-0.352-3.975-2.122
				c-0.989-2.28-1.384-4.681-1.378-7.14c0.003-1.562,0.693-2.129,2.271-1.394c2.129,0.99,4.189-0.15,6.131-0.702
				c0.766-0.217,0.243-2.168,0.43-3.314c0.097-0.601,0.023-1.338,0.796-1.56c0.718-0.205,1.375,0.06,1.963,0.488
				c0.759,0.555,0.375,1.191,0.192,1.877c-0.369,1.374-0.455,2.494,1.663,2.018c2.009-0.451,3.914,0.672,5.94,0.698
				c1.144,0.014,1.336,1.145,1.04,2.096c-0.33,1.057-0.817,2.065-1.277,3.077c-0.355,0.789-0.926,1.403-0.358,2.462
				c0.507,0.947-0.298,1.5-1.26,1.653c-1.585,0.255-3.161,0.564-4.754,0.747c-0.874,0.101-1.244,0.445-1.191,1.321
				c0.032,0.557-0.065,1.118-0.055,1.676C501.606,155.552,501.472,157.873,499.343,159.952z"/>
			<path style="fill-rule:evenodd;clip-rule:evenodd;fill:#010101;" d="M393.634,153.974c2.959,0.547,5.754-2.518,4.816-5.244
				c-0.436-1.273-1.676-0.358-2.342,0.094c-0.658,0.448-0.954,1.414-1.6,1.905c-1.622,1.232-2.668,3.853-5.478,2.487
				c-5.395,1.873-8.193-2.195-11.438-5.093c-2.646-2.361-2.58-2.459-5.016,0.02c-0.981,0.995-1.87,2.08-2.856,3.069
				c-0.998,1-2.342,1.426-3.715,2.092c-0.225-1.335,0.546-2.191,1.189-3.024c2.815-3.648,5.664-7.27,8.534-10.874
				c0.439-0.549,0.961-1.482,1.836-0.664c0.688,0.646,1.459,1.463,0.809,2.554c-0.498,0.83-1.134,1.579-1.601,2.216
				c3.707,3.912,8.606,5.966,13.362,8.255c0.513,0.247,0.985,0.674,1.53-0.169c1.498-2.318,3.115-4.56,4.816-7.02
				c-1.2-0.004-1.741,0.738-2.488,0.991c-1.143,0.387-2.204,0.086-2.679-0.963c-0.557-1.23,0.784-1.274,1.431-1.548
				c1.532-0.654,3.133-1.146,4.706-1.707c0.798-0.283,1.62-0.238,2.069,0.483c0.483,0.776-0.406,1.064-0.733,1.595
				c-0.544,0.89-0.046,2.26-1.153,3.131c2.771-0.185,3.391,0.457,3.188,3.117c-0.168,2.23-0.857,4.219-2.514,5.814
				c-0.971,0.935-2.152,1.509-3.408,1.158C393.836,156.352,393.958,155.077,393.634,153.974z"/>
			<path style="fill-rule:evenodd;clip-rule:evenodd;fill:#010101;" d="M431.959,138.757c1.605,0.688,1.423,2.082,1.273,3.397
				c-0.143,1.256,0.155,1.873,1.543,1.483c0.398-0.111,0.828-0.105,1.244-0.161c0.997-0.134,1.791,0.168,2.275,1.087
				c0.277,0.523,0.369,1.087-0.062,1.565c-0.638,0.708-1.438,0.231-2.162,0.195c-0.551-0.024-1.089-0.243-1.642-0.293
				c-0.738-0.066-1.668-0.287-1.581,0.963c0.051,0.721-0.814,1.92,0.904,1.898c0.619-0.006,1.09,0.39,1.113,1.025
				c0.027,0.745-0.534,1.164-1.179,1.264c-4.332,0.671-8.6,1.78-13.005,1.954c-0.584,0.023-1.153-0.05-1.302-0.753
				c-0.147-0.701,0.086-1.336,0.81-1.471c1.553-0.291,1.08-1.408,0.889-2.241c-0.281-1.227-1.067-0.076-1.621-0.178
				c-0.534-0.102-1.113,0.074-1.664,0.023c-0.908-0.083-1.672-0.541-1.745-1.494c-0.074-0.957,0.827-0.926,1.484-1.1
				c3.469-0.92,3.467-0.924,3.964-4.57c0.146-0.469,0.49-0.68,0.954-0.735c1.722,0.19,1.465,1.531,1.528,2.656
				c0.108,0.104,0.171,0.048,0.217-0.147c0.255-1.071-0.133-2.727,1.518-2.738c1.514-0.009,1.105,1.648,1.489,2.615
				c0.68-0.268,0.365-0.88,0.462-1.327c0.164-0.766,0.27-1.633,1.253-1.645c1.049-0.008,1.343,0.808,1.424,1.713
				c0.028,0.336-0.047,0.691,0.291,1.137c0.412-0.786,0.038-1.498,0.056-2.179C430.709,139.802,430.656,138.829,431.959,138.757z"/>
			<path style="fill-rule:evenodd;clip-rule:evenodd;fill:#010101;" d="M442.611,157.582c-0.04-2.247,0.88-4.245,1.303-6.355
				c0.18-0.899,0.583-1.68-1.027-1.562c-0.895,0.065-1.618-0.8-1.737-1.802c-0.136-1.144,0.948-1.214,1.571-1.288
				c1.559-0.188,1.918-0.971,1.803-2.396c-0.068-0.816-0.418-2.213,0.728-2.293c1.251-0.086,1.49,1.204,1.46,2.328
				c-0.009,0.409,0,0.82,0,1.218c1.657,0.127,2.211-0.627,2.054-2.092c-0.067-0.623-0.018-1.259-0.009-1.888
				c0.013-0.799,0.105-1.732,1.107-1.662c0.849,0.058,1.5,0.695,1.443,1.73c-0.022,0.419,0.016,0.84-0.007,1.258
				c-0.045,0.861-0.09,1.56,1.142,1.729c0.785,0.108,1.565,0.79,1.479,1.777c-0.079,0.892-0.896,0.96-1.604,1.011
				c-0.971,0.068-1.032,0.695-1.023,1.468c0.03,2.237-0.007,4.475,0.032,6.713c0.01,0.643,0.059,1.241-0.417,1.764
				c-0.376,0.412-0.707,0.971-1.333,0.852c-0.757-0.144-0.875-0.821-0.877-1.468c-0.003-2.238,0.061-4.477-0.007-6.713
				c-0.016-0.526,0.607-1.541-0.568-1.567c-0.938-0.023-1.801,0.339-1.812,1.564C446.281,153.03,444.472,155.315,442.611,157.582z"
				/>
			<path style="fill-rule:evenodd;clip-rule:evenodd;fill:#010101;" d="M482.599,157.241c-4.115-0.578-7.954-1.404-11.194-3.735
				c-1.61-1.158-3.146-1.978-5.159-1.669c-0.404,0.062-0.84,0.005-1.249-0.067c-1.007-0.184-1.395-1.038-1.412-1.841
				c-0.018-0.904,0.918-0.91,1.591-0.959c1.605-0.119,3.307-0.24,4.696,0.639c4.674,2.955,9.969,3.306,15.226,3.918
				c1.105,0.128,3.008-0.166,3.093,0.917c0.104,1.311-1.785,0.94-2.794,1.175C484.205,155.895,483.836,157.589,482.599,157.241z"/>
			<path style="fill-rule:evenodd;clip-rule:evenodd;fill:#020202;" d="M347.357,150.573c-1.789,1.657-2.473,3.695-4.809,4.225
				c0.473-2.209,2.205-3.488,3.066-5.443c-0.477,0-0.799-0.029-1.114,0.006c-1.171,0.128-2.037-0.424-2.096-1.521
				c-0.056-1.017,1.036-0.882,1.754-1.045c1.655-0.375,3.804-0.129,3.521-2.915c-0.046-0.445,0.391-0.903,0.997-0.857
				c0.584,0.043,1.303,0.277,1.338,0.809c0.102,1.518,0.828,1.393,1.916,1.039c0.662-0.215,1.617-0.624,1.931,0.475
				c0.301,1.055-0.285,1.894-1.313,1.983c-3.096,0.269-2.937,2.403-2.899,4.611c0.028,1.665,0.158,3.352-0.277,4.995
				c-0.164,0.617-0.306,1.294-1.139,1.256c-0.91-0.044-0.85-0.815-0.861-1.404C347.333,154.864,347.357,152.94,347.357,150.573z"/>
			<path style="fill-rule:evenodd;clip-rule:evenodd;fill:#020202;" d="M365.96,156.911c-2.676,0.791-4.897,0.72-6.67-1.335
				c-0.545-0.631-1.118-0.319-1.697-0.037c-1.533,0.745-3.168,0.998-5.034,1.011c0.742-1.494,2.253-1.64,3.397-2.13
				c1.397-0.599,1.477-1.125,0.635-2.249c-0.777-1.035-1.093-2.434-2.53-2.918c-0.405-0.139-0.695-0.496-0.454-0.998
				c0.213-0.439,0.443-0.841,0.976-1.014c1.892-0.612,3.809-1.166,5.642-1.925c1.602-0.664,2.113,0.073,2.141,1.433
				c0.036,1.748-0.078,3.557-0.842,5.122c-0.587,1.204-0.193,1.681,0.715,2.287C363.446,154.966,364.581,155.884,365.96,156.911z"/>
			<path style="fill-rule:evenodd;clip-rule:evenodd;fill:#040404;" d="M454.555,159.905c0.755-2.641,2.281-4.181,3.46-5.926
				c0.504-0.745,0.986-1.506,1.493-2.249c0.417-0.614,0.714-1.409,1.754-0.808c0.98,0.565,1.468,1.24,0.907,2.351
				c-1.132,2.237-3.046,3.74-4.991,5.19C456.527,158.948,455.746,159.261,454.555,159.905z"/>
			<path style="fill-rule:evenodd;clip-rule:evenodd;fill:#0B0B0B;" d="M354.4,150.864c0.986,0.744,1.508,1.561,0.883,2.722
				c-0.587,1.093-1.578,1.301-2.672,1.183c-1.215-0.132-1.864-0.939-1.992-2.082c-0.098-0.891-0.066-1.812,0.045-2.703
				c0.074-0.588,0.263-1.322,1.172-1.085c0.688,0.179,1.014,0.692,1.051,1.385c0.007,0.125-0.118,0.254-0.133,0.386
				c-0.086,0.756-0.747,1.896,0.275,2.127C354.044,153.026,353.867,151.586,354.4,150.864z"/>
			<path style="fill-rule:evenodd;clip-rule:evenodd;fill:#040404;" d="M408.566,155.768c-0.115,0.774-0.369,1.636-1.278,1.866
				c-0.857,0.216-1.156-0.636-1.456-1.209c-0.514-0.981-0.983-1.979-1.76-2.787c-0.381-0.4-0.438-0.845-0.223-1.332
				c0.208-0.468,0.631-0.477,1.055-0.448C406.184,151.943,408.595,154.468,408.566,155.768z"/>
			<path style="fill-rule:evenodd;clip-rule:evenodd;fill:#090909;" d="M321.933,158.009c0.24-1.021,1.372-0.799,1.684-1.531
				c0.309-0.721,1.427-1.65-0.559-1.648c-0.896,0.002-1.345-0.7-1.439-1.529c-0.085-0.754,0.263-1.39,0.941-1.729
				c0.682-0.34,1.393-0.255,1.926,0.32c1.074,1.166,1.066,2.512,0.511,3.898C324.462,157.13,323.68,158.152,321.933,158.009z"/>
			<path style="fill-rule:evenodd;clip-rule:evenodd;fill:#050505;" d="M456.228,148.721c0.926-2.008,2.301-3.299,3.458-4.729
				c0.465-0.573,1.079-1.597,1.985-0.56c0.707,0.811,0.807,1.741-0.132,2.58C460.119,147.28,458.538,148.227,456.228,148.721z"/>
			<path style="fill-rule:evenodd;clip-rule:evenodd;fill:#070707;" d="M437.383,156.611c-0.006,0.816-0.213,1.597-1.037,1.873
				c-1.122,0.38-1.141-0.675-1.46-1.308c-0.407-0.801-0.874-1.576-1.213-2.404c-0.209-0.512-0.242-1.14,0.304-1.516
				c0.446-0.308,0.915-0.133,1.36,0.138C436.554,154.133,437.217,155.212,437.383,156.611z"/>
			<path style="fill-rule:evenodd;clip-rule:evenodd;fill:#080808;" d="M404.872,150.432c0.438-1.384,0.538-2.265-0.585-2.981
				c-0.933-0.596-0.37-1.272,0.452-1.356c1.252-0.128,2.477,0.143,3.462,1.034c0.45,0.409,0.54,0.936,0.378,1.516
				c-0.182,0.645-0.661,0.947-1.253,0.785C406.427,149.184,405.938,149.842,404.872,150.432z"/>
			<path style="fill-rule:evenodd;clip-rule:evenodd;fill:#0F0F0F;" d="M417.876,153.985c1.116,0.737,1.48,1.949,1.73,3.133
				c0.105,0.513-0.174,1.519-0.908,1.348c-1.484-0.342-1.376-1.912-1.791-3.016C416.654,154.777,417.256,154.33,417.876,153.985z"/>
			<path style="fill-rule:evenodd;clip-rule:evenodd;fill:#0E0E0E;" d="M430.65,155.429c-0.024,0.865-0.359,1.77-0.9,1.617
				c-1.17-0.325-1.447-1.555-1.649-2.641c-0.099-0.529-0.03-1.332,0.7-1.26C430.188,153.288,430.249,154.617,430.65,155.429z"/>
			<path style="fill-rule:evenodd;clip-rule:evenodd;fill:#0F0F0F;" d="M423.567,153.548c1.03,0.568,1.774,1.408,1.736,2.736
				c-0.018,0.557-0.339,1.391-0.868,1.074c-1.005-0.605-1.433-1.809-1.81-2.904C422.456,153.963,422.853,153.55,423.567,153.548z"/>
			<path style="fill-rule:evenodd;clip-rule:evenodd;fill:#FBFBFB;" d="M501.612,144.908c0.265-0.81-0.476-2.065,0.548-2.439
				c1.344-0.49,2.815-0.811,4.302-0.664c0.17,0.018,0.473,0.197,0.466,0.279c-0.151,1.691-0.635,3.334-1.67,4.646
				c-0.78,0.99-2.3,0.789-3.317,0.644C501.21,147.27,501.832,145.78,501.612,144.908z"/>
			<path style="fill-rule:evenodd;clip-rule:evenodd;fill:#F9F9F9;" d="M498.655,145.488c-0.048,2.651-0.362,2.993-3.248,2.928
				c-2.214-0.05-1.402-2.159-1.969-3.309c-0.272-0.554,3.115-2.227,4.526-1.97C499.582,143.435,498.225,144.846,498.655,145.488z"/>
			<path style="fill-rule:evenodd;clip-rule:evenodd;fill:#ECECEC;" d="M429.162,148.177c0.083-1.007-0.019-2.071,1.327-1.999
				c1.238,0.068,0.491,1.03,0.562,1.568c0.13,0.967-0.293,1.651-1.386,1.577C428.716,149.259,429.196,148.532,429.162,148.177z"/>
			<path style="fill-rule:evenodd;clip-rule:evenodd;fill:#F4F4F4;" d="M426.078,148.461c0.008-0.841-0.255-1.83,1.02-1.847
				c1.248-0.018,0.603,0.962,0.641,1.486c0.052,0.729,0.386,1.729-0.991,1.743C425.394,149.859,426.332,148.868,426.078,148.461z"/>
			<path style="fill-rule:evenodd;clip-rule:evenodd;fill:#F9F9F9;" d="M422.742,149.146c-0.071-1.024-0.148-1.951,1.111-1.911
				c1.069,0.036,0.535,0.92,0.599,1.419c0.104,0.822,0.194,1.766-1.105,1.722C422.226,150.34,423.048,149.395,422.742,149.146z"/>
			<path style="fill-rule:evenodd;clip-rule:evenodd;fill:#F3F3F3;" d="M360.095,146.78c0.084,1.705-0.029,3.189-0.838,4.564
				C356.252,148.991,356.299,148.685,360.095,146.78z"/>
		</g>
	</g>
	<path style="fill-rule:evenodd;clip-rule:evenodd;fill:#040404;" d="M270.578,141.44c-0.572,0.499-1.107,1.064-1.951,1.073
		c-0.176-2.297,2.681-6.638,4.737-7.248c1.12-0.332,1.425,0.572,1.546,1.222c0.197,1.049,0.585,1.205,1.489,0.816
		c0.826-0.356,1.689-0.625,2.541-0.91c1.793-0.602,2.447-0.081,2.463,1.946c-2.271,1.775-4.972,1.939-7.681,2.025
		c-0.485,0.017-0.971-0.07-1.442,0.099C271.601,140.595,271.068,140.98,270.578,141.44z"/>
	<path style="fill-rule:evenodd;clip-rule:evenodd;fill:#080808;" d="M257.512,156.605c-0.029,0.881-0.287,1.55-1.001,1.809
		c-0.924,0.336-1.146-0.443-1.429-1.08c-0.442-0.993-1.395-1.508-2.122-2.235c-0.51-0.507-0.886-1.126-0.462-1.847
		c0.486-0.827,1.173-0.471,1.819-0.197C255.985,153.762,257.346,154.729,257.512,156.605z"/>
	<path style="fill-rule:evenodd;clip-rule:evenodd;fill:#050505;" d="M164.833,156.642c0,0.953,0.02,1.768-0.907,2.067
		c-1.125,0.362-1.154-0.614-1.474-1.261c-0.429-0.867-0.945-1.691-1.359-2.564c-0.24-0.51-0.322-1.102,0.159-1.545
		c0.502-0.461,1.044-0.242,1.523,0.072C163.999,154.214,164.801,155.283,164.833,156.642z"/>
	<path style="fill-rule:evenodd;clip-rule:evenodd;fill:#050505;" d="M194.177,142.015c0.677-2.175,1.824-3.613,3.318-4.814
		c0.625-0.501,1.267-0.668,1.824,0.029c0.488,0.61,0.555,1.316-0.094,1.866C197.816,140.289,196.499,141.664,194.177,142.015z"/>
	<path style="fill-rule:evenodd;clip-rule:evenodd;fill:#070707;" d="M286.881,156.696c-0.015,0.814-0.235,1.576-1.061,1.861
		c-0.974,0.337-1.088-0.541-1.379-1.146c-0.418-0.871-0.913-1.711-1.275-2.605c-0.206-0.509-0.237-1.137,0.33-1.501
		c0.458-0.294,0.916-0.107,1.36,0.163C286.071,154.214,286.719,155.299,286.881,156.696z"/>
	<path style="fill-rule:evenodd;clip-rule:evenodd;fill:#080808;" d="M146.9,153.469c1.188,0.664,1.504,1.997,2.084,3.145
		c0.436,0.867,0.207,1.671-0.392,2.312c-0.377,0.407-0.969,0.242-1.313-0.141c-1.06-1.172-1.458-2.648-1.585-4.163
		C145.65,154.1,146.157,153.63,146.9,153.469z"/>
	<path style="fill-rule:evenodd;clip-rule:evenodd;fill:#0F0F0F;" d="M269.152,157.067c-0.128,0.623-0.191,1.552-0.878,1.449
		c-1.566-0.232-1.398-1.85-1.854-2.924c-0.288-0.672,0.34-1.514,0.815-1.408C268.663,154.505,268.624,156.019,269.152,157.067z"/>
	<path style="fill-rule:evenodd;clip-rule:evenodd;fill:#111111;" d="M156.643,153.278c1.411,0.465,1.961,1.482,2.167,2.671
		c0.104,0.604-0.232,1.521-0.896,1.28c-1.14-0.413-1.686-1.56-1.958-2.731C155.817,153.895,156.189,153.499,156.643,153.278z"/>
	<path style="fill-rule:evenodd;clip-rule:evenodd;fill:#0A0A0A;" d="M241.369,153.144c0.721,0.05,2.604,2.594,2.473,3.328
		c-0.09,0.502-0.452,0.793-0.872,0.618c-1.365-0.565-2.181-1.658-2.476-3.085C240.376,153.43,240.788,153.139,241.369,153.144z"/>
	<path style="fill-rule:evenodd;clip-rule:evenodd;fill:#0E0E0E;" d="M280.152,155.512c-0.041,0.882-0.42,1.785-0.936,1.61
		c-1.128-0.381-1.454-1.584-1.624-2.694c-0.081-0.535,0.002-1.326,0.742-1.221C279.69,153.399,279.769,154.702,280.152,155.512z"/>
	<path style="fill-rule:evenodd;clip-rule:evenodd;fill:#101010;" d="M154.158,156.381c-0.198,0.583-0.33,1.62-0.969,1.318
		c-1.139-0.536-1.507-1.917-2.083-2.994c-0.222-0.415,0.357-0.974,0.883-0.855C153.296,154.146,153.812,155.208,154.158,156.381z"/>
	<path style="fill-rule:evenodd;clip-rule:evenodd;fill:#090909;" d="M202.763,136.801c0.905,0.201,1.916,0.521,2.028,1.819
		c0.061,0.691-0.245,1.354-1.062,1.156c-1.121-0.273-1.976-1.087-2.302-2.151C201.255,137.06,201.972,136.759,202.763,136.801z"/>
	<path style="fill-rule:evenodd;clip-rule:evenodd;fill:#0F0F0F;" d="M274.795,155.831c0.061,0.868-0.263,1.739-0.635,1.613
		c-1.274-0.435-1.545-1.809-2.036-2.898c-0.202-0.448,0.213-1.056,0.796-0.904C274.132,153.953,274.599,154.958,274.795,155.831z"/>
	<path style="fill-rule:evenodd;clip-rule:evenodd;fill:#0C0C0C;" d="M246.619,154.14c-0.016,0.579-0.014,1.18-0.693,1.088
		c-1.229-0.164-1.566-1.189-1.812-2.203c-0.125-0.517,0.204-0.77,0.699-0.706C245.924,152.46,246.441,153.189,246.619,154.14z"/>
	<path style="fill-rule:evenodd;clip-rule:evenodd;fill:#9E9E9E;" d="M271.837,140.219c0.002,0.229,0.006,0.458,0.007,0.687
		c-0.284,0.169-0.567,0.339-0.853,0.507c-0.138,0.011-0.275,0.019-0.414,0.028C270.997,141.032,271.418,140.627,271.837,140.219z"/>
	<path style="fill-rule:evenodd;clip-rule:evenodd;fill:#E2E2E2;" d="M130.615,140.145c0.43,0.017,1.019-0.218,0.908,0.491
		c-0.152,0.988-1.066,0.983-1.783,1.151c-0.583,0.136-0.721-0.315-0.683-0.765C129.15,139.946,130.073,140.332,130.615,140.145z"/>
	<path style="fill-rule:evenodd;clip-rule:evenodd;fill:#ECECEC;" d="M256.767,139.377c-0.623,1.009-1.159,1.803-1.621,2.638
		c-0.605,1.098-1.182,0.432-1.819,0.053c-1.04-0.619-0.073-0.979,0.169-1.402C254.193,139.444,255.467,139.71,256.767,139.377z"/>
	<path style="fill-rule:evenodd;clip-rule:evenodd;" d="M305.708,159.341c-0.483-2.014-0.332-3.83-0.317-5.621
		c0.009-1.244-0.395-1.37-1.468-1.076c-1.098,0.301-2.24,0.902-3.634-0.246c0.571,2.645-1.124,3.546-2.668,4.509
		c-0.911,0.568-1.212-0.122-1.456-0.85c-0.191-0.574-0.664-1.181,0.562-1.081c0.831,0.066,0.999-0.668,1.028-1.308
		c0.05-1.043,0.014-2.09,0.014-3.158c-1.487,0.06-2.285,0.672-2.185,2.274c0.076,1.218-0.76,2.033-1.646,2.919
		c-0.553-0.757-0.247-1.597-0.297-2.36c-0.051-0.738-0.024-1.384-1.074-1.354c-1.256,0.037-0.427,0.905-0.555,1.355
		c-0.125,0.441,0.058,0.965,0.053,1.453c-0.008,0.844-0.711,1.354-1.294,1.418c-0.757,0.084-0.872-0.793-0.872-1.391
		c0-2.724,0.043-5.447,0.109-8.17c0.019-0.764,0.096-1.545,0.279-2.283c0.279-1.126,0.005-2.237,2.088-2.532
		c1.754-0.251,3.243-2.365,4.851-3.654c-0.086-0.167-0.172-0.334-0.257-0.501c-2.304,0.731-4.605,1.463-7.129,2.263
		c0.261-1.238,1.108-1.471,1.752-1.9c1.215-0.809,2.627-1.324,3.652-2.409c0.391-0.414,1.078-0.67,1.244-0.26
		c0.851,2.093,3.619,0.079,4.405,2.16c0.314,0.83-0.206,1.111-0.797,1.414c-1.413,0.725-2.816,1.47-4.292,2.423
		c2.001-0.028,4.559-1.185,4.551,2.566c1.184-1.9,2.199-3.533,3.226-5.181c-0.485-0.468-1.28-0.054-1.596-0.795
		c-0.271-0.639-0.644-1.149,0.456-1.274c2.008-0.23,4.006-0.616,6.021-0.713c1.713-0.081,1.966,1.301,1.878,2.599
		c-0.154,2.268-0.863,4.33-2.903,5.637c0.233,0.27,0.31,0.443,0.411,0.459c0.872,0.138,2.127-0.568,2.42,0.871
		c0.296,1.452-1.028,1.383-1.89,1.651c-0.95,0.295-0.491,1.021-0.526,1.573c-0.05,0.796,0.574,0.606,1.029,0.595
		c0.768-0.021,1.546-0.18,2.293-0.082c0.9,0.114,1.655,0.726,1.611,1.646c-0.045,0.949-0.904,1.102-1.746,1.022
		c-0.276-0.024-0.561,0.008-0.839-0.013c-1.627-0.109-2.712,0.237-2.347,2.279C308.214,156.223,307.338,157.843,305.708,159.341z"/>
	<path style="fill-rule:evenodd;clip-rule:evenodd;" d="M129.155,144.28c-1.827,0.117-2.312-0.887-2.36-2.331
		c-0.024-0.724-0.325-1.173-1.181-1.034c-0.928,0.15-1.609-0.285-2.11-1.05c-0.762-1.164-0.781-1.913,0.921-1.999
		c0.981-0.049,2.352,0.351,2.215-1.549c-0.038-0.533-0.041-1.608,0.928-1.588c0.879,0.021,1.688,0.639,1.734,1.545
		c0.06,1.19,0.642,1.11,1.486,1.003c0.821-0.102,1.757,0.098,1.684-1.218c-0.042-0.764,0.244-1.494,0.998-1.653
		c0.765-0.159,1.403,0.507,1.597,1.116c0.277,0.879,0.941,0.896,1.563,1.109c0.718,0.249,1.294,0.657,1.178,1.499
		c-0.096,0.7-0.631,1.154-1.315,1.12c-1.819-0.086-2.688,0.802-2.837,2.533c-0.059,0.715-0.627,0.788-1.12,1.051
		c-0.314,0.167-1.185-0.035-0.852,0.807c0.204,0.516,0.634,0.711,1.196,0.54c0.131-0.039,0.278-0.049,0.416-0.035
		c1.302,0.134,2.942-0.789,3.789,0.821c0.913,1.739-1.386,2.453-1.584,3.996c-0.103,0.798-1.496,0.331-2.27,0.593
		c-0.689,0.233-1.687,0.161-1.504,1.286c0.196,1.206,1.128,0.534,1.654,0.418c1.846-0.406,3.748,0.021,5.605-0.554
		c0.824-0.255,1.656,0.576,2.305,1.208c0.503,0.486,0.227,1.029-0.042,1.539c-0.323,0.61-0.885,0.715-1.439,0.509
		c-1.568-0.588-3.18-0.366-4.772-0.315c-3.09,0.096-3.13,0.124-3.485,3.116c-0.167,1.388-1.26,2.092-2.006,3.288
		c-0.673-1.521-0.499-2.982-0.48-4.384c0.016-1.263-0.476-1.428-1.498-1.101c-1.655,0.532-3.325,1.021-4.971,1.583
		c-0.857,0.29-1.613,0.362-2.311-0.351c-1.055-1.075-0.876-1.845,0.568-2.344c2.256-0.778,4.599-1.172,6.951-1.484
		c0.735-0.098,1.525-0.094,1.192-1.125c-0.267-0.826-0.986-0.256-1.35-0.103c-0.91,0.394-1.691,0.917-2.417-0.292
		c-0.917-1.525-1.7-3.074-1.24-4.912c0.168-0.666,0.765-0.436,1.231-0.32C126.64,145.575,127.819,144.954,129.155,144.28z"/>
	<path style="fill-rule:evenodd;clip-rule:evenodd;fill:#010101;" d="M154.926,141.264c-0.756-0.741-0.005-1.365,0.422-1.376
		c1.538-0.04,1.721-1.081,2.042-2.186c0.169-0.578,0.037-1.655,0.996-1.519c0.926,0.131,1.247,1.019,1.198,1.941
		c-0.017,0.323-0.102,0.644-0.157,0.971c0.218,0.038,0.349,0.091,0.475,0.078c0.928-0.088,1.8-1.399,2.796-0.096
		c0.917,1.202-0.165,1.932-0.645,2.777c-0.944,1.666-1.694,3.382-1.493,5.348c0.123,1.2,0.575,2.18,2.03,2.187
		c1.431,0.006,2.422-0.508,2.623-2.082c0.104-0.798,0.085-1.649,0.632-2.39c0.429,1.251-0.24,2.599,0.878,3.765
		c0.631,0.656-0.208,1.588-0.932,2.01c-1.641,0.955-3.453,1.253-5.204,0.44c-1.61-0.748-1.76-2.37-1.857-3.943
		c-0.141-2.235,0.489-4.368,1.042-6.526c-0.943-0.105-1.121,0.426-1.303,0.961c-0.559,1.648-1.145,3.289-1.67,4.948
		c-0.112,0.351-0.384,0.69-0.12,1.157c0.556,0.986,1.699,2.256-0.929,1.888c-0.402-0.057-1.035,1.49-1.553,2.3
		c-0.333,0.52-0.556,1.077-0.825-0.082c-0.127-0.54-0.714-0.006-1.053,0.068c-1.631,0.359-3.251,0.773-4.86,1.217
		c-0.977,0.27-1.801,0.007-1.977-0.944c-0.191-1.034,0.916-0.802,1.492-1.018c0.449-0.169,0.961-0.16,1.442-0.24
		c0.559-0.094,0.83-0.383,0.794-1c-0.039-0.652-0.549-0.395-0.845-0.57c-2.229-1.318-3.067,1.21-5.144,1.815
		c1.365-2.795,3.197-4.816,4.643-7.08c-0.616-0.363-1.095,0.08-1.521,0.351c-0.754,0.477-1.356,0.41-1.735-0.364
		c-0.467-0.959,0.178-1.448,0.98-1.689c0.799-0.241,1.631-0.374,2.453-0.523c0.538-0.099,1.166-0.007,1.157-0.856
		c-0.013-1.105-0.749-0.447-1.17-0.477c-0.749-0.053-1.202-0.49-1.29-1.141c-0.1-0.741,0.527-0.892,1.115-0.913
		c1.214-0.044,1.394-0.84,1.475-1.828c0.051-0.611,0.231-1.328,0.974-1.462c0.786-0.144,1.146,0.497,1.292,1.108
		c0.149,0.621,0.229,0.956,1.037,0.8c0.662-0.128,1.204,0.333,1.233,1.093c0.026,0.689-0.494,0.98-1.058,1.106
		c-0.798,0.178-1.619,0.355-1.349,1.421c0.298,1.17,1.14,0.425,1.706,0.303c0.664-0.141,1.143,0.605,1.793,0.257
		c0.155,1.132-0.35,1.855-1.394,2.056c-0.085,1.162,1.774,1.062,1.156,2.316c-0.33,0.67-0.921,0.802-1.577,0.802
		c-1.475,0.001-2.259-0.828-2.466-2.37c-0.798,0.913-1.419,1.664-1.874,2.518c-0.026,0.105-0.081,0.212-0.158,0.305
		c0.268,0.018,0.126-0.244,0.231-0.352c0.625-1.183,1.405-1.791,2.552-0.613c0.491,0.506,1.345,0.403,1.697,1.094
		c0.469,0.951-0.425,1.497-0.744,2.308c1.635-0.127,1.498-0.941,0.92-1.952c-0.068-0.181-0.07-0.363-0.009-0.545
		c0.407-0.475,1.305-0.293,1.466-1.098C155.146,144.257,155.697,142.786,154.926,141.264z"/>
	<path style="fill-rule:evenodd;clip-rule:evenodd;fill:#010101;" d="M281.456,138.816c1.604,0.688,1.421,2.083,1.272,3.397
		c-0.141,1.257,0.154,1.873,1.543,1.484c0.399-0.113,0.83-0.105,1.244-0.162c0.997-0.133,1.792,0.169,2.276,1.087
		c0.276,0.525,0.366,1.089-0.064,1.566c-0.638,0.707-1.438,0.23-2.162,0.195c-0.549-0.026-1.089-0.244-1.641-0.294
		c-0.739-0.066-1.669-0.288-1.582,0.963c0.051,0.722-0.814,1.92,0.904,1.9c0.621-0.008,1.09,0.389,1.113,1.023
		c0.027,0.747-0.533,1.165-1.178,1.265c-4.333,0.671-8.6,1.78-13.006,1.953c-0.584,0.023-1.153-0.05-1.301-0.754
		c-0.147-0.7,0.086-1.334,0.81-1.47c1.553-0.291,1.079-1.407,0.888-2.242c-0.281-1.227-1.067-0.074-1.621-0.179
		c-0.533-0.099-1.113,0.076-1.664,0.026c-0.908-0.084-1.67-0.542-1.745-1.495c-0.073-0.956,0.827-0.926,1.484-1.101
		c3.47-0.918,3.469-0.924,3.964-4.569c0.147-0.468,0.492-0.681,0.955-0.735c1.722,0.191,1.465,1.531,1.527,2.656
		c0.109,0.105,0.171,0.048,0.217-0.147c0.254-1.071-0.133-2.728,1.518-2.737c1.515-0.009,1.105,1.648,1.489,2.615
		c0.68-0.27,0.365-0.881,0.461-1.328c0.164-0.766,0.27-1.633,1.253-1.643c1.048-0.01,1.345,0.807,1.424,1.712
		c0.03,0.334-0.047,0.692,0.291,1.138c0.413-0.788,0.037-1.498,0.057-2.18C280.206,139.861,280.152,138.889,281.456,138.816z"/>
	<path style="fill-rule:evenodd;clip-rule:evenodd;fill:#010101;" d="M221.06,152.878c-1.857-0.27-3.457-0.701-2.957-3.045
		c0.175-0.818-0.588-0.927-1.072-1.277c-1.045-0.751-1.301-1.699,0.197-2.021c1.742-0.373,2.289-1.354,2.578-2.967
		c0.38-2.119,1.024-4.198,1.654-6.262c0.198-0.641,0.365-1.739,1.462-1.332c0.863,0.322,1.212,1.184,0.961,2.09
		c-0.502,1.81-1.083,3.601-1.635,5.398c-0.118,0.384-0.253,0.763-0.428,1.285c1.837,0.027,2.743-0.62,2.546-2.455
		c-0.066-0.624-0.026-1.441,0.691-1.557c0.688-0.111,1.543,0.412,1.645,1.054c0.17,1.077,0.829,1.991-0.072,3.396
		c-1.151,1.793-1.484,4.151-1.965,6.312c-0.199,0.896,1.02,0.963,1.54,1.467c0.929,0.901,2.351,1.577,1.555,3.236
		c-0.404,0.842-0.953,1.802-1.803,0.211c-0.317-0.594-0.902-1.049-1.385-1.552c-0.731-0.76-1.296-0.937-2.131,0.077
		c-1.13,1.371-2.888,1.807-4.875,2.574C218.71,155.692,220.226,154.628,221.06,152.878z"/>
	<path style="fill-rule:evenodd;clip-rule:evenodd;fill:#010101;" d="M208.77,149.343c0.101,3.422,0.176,6.674-1.725,9.695
		c-0.697-1.119-0.719-2.195-0.719-3.281c-0.001-4.053,0.007-8.105-0.042-12.158c-0.012-1.049,0.194-2.078-0.696-3.091
		c-0.718-0.813-0.008-1.753,0.982-2.065c2.217-0.696,4.54-0.802,6.829-0.846c1.273-0.025,1.652,1.22,1.686,2.277
		c0.072,2.232,0.118,4.479-0.064,6.702c-0.2,2.454-1.683,3.928-3.949,4.557C209.496,151.568,209.992,149.76,208.77,149.343z"/>
	<path style="fill-rule:evenodd;clip-rule:evenodd;fill:#010101;" d="M195.79,149.752c-1.271,0.755-1.934,1.824-3.181,2.267
		c-0.312-0.951,0.341-1.583,0.667-2.269c1.363-2.867,3.355-5.298,5.439-7.655c0.392-0.442,1.027-1.29,1.49-0.667
		c0.947,1.275,2.322,1.563,3.585,2.183c0.652,0.319,1.001,1.029,0.705,1.789c-0.348,0.889-1.129,0.657-1.801,0.514
		c-1.094-0.23-1.678-1.148-2.4-2.039c-0.785,0.981-1.451,1.871-2.182,2.703c-0.523,0.594-0.609,1.093-0.197,1.828
		c0.49,0.877,1.012,0.415,1.582,0.247c0.736-0.215,1.473-0.452,2.226-0.592c1.808-0.339,2.886,0.83,2.29,2.559
		c-0.365,1.06-0.848,2.049-0.71,3.223c0.106,0.894-0.703,1.083-1.27,1.455c-1.137,0.744-2.548,0.776-3.645,1.852
		c-0.846,0.827-1.402-0.512-1.613-1.237C196.21,153.977,195.718,152.017,195.79,149.752z"/>
	<path style="fill-rule:evenodd;clip-rule:evenodd;fill:#010101;" d="M249.913,142.251c1.171-1.887,2.074-3.939,3.608-5.598
		c0.85-0.92,1.752-1.037,1.806,0.311c0.067,1.668,0.92,1.281,1.842,1.128c0.711-0.118,1.407-0.619,2.077,0.217
		c0.764,0.955-0.062,1.523-0.4,2.221c-0.212,0.439-0.414,0.883-0.658,1.304c-1.726,2.996-1.723,2.982,1.48,4.597
		c1.426,0.72,2.821,1.497,4.216,2.276c0.222,0.123,0.426,0.369,0.362,0.547c-3.552,1.395-6.394,0.13-8.869-2.263
		c-0.743-0.717-1.006-0.103-1.489,0.209c-1.424,0.921-2.558,2.275-4.205,2.859c-0.863,0.306-0.467-0.288-0.418-0.622
		c0.322-1.504,1.614-2.384,2.334-3.631c0.174-0.303,0.407-0.603,0.275-0.966c-0.116-0.316-0.416-0.318-0.698-0.24
		c-0.626,0.173-1.33,0.808-1.828-0.101C248.879,143.64,249.275,142.889,249.913,142.251z"/>
	<path style="fill-rule:evenodd;clip-rule:evenodd;fill:#010101;" d="M233.93,157.528c-1.061-0.255-2.583,1.061-3.649-0.457
		c-1.479-2.105-2.185-4.484-1.969-7.067c0.064-0.788,0.546-1.211,1.47-0.943c2.351,0.681,4.649-0.07,6.916-0.501
		c1.049-0.199,1.748,0.025,2.443,0.602c0.692,0.572,0.554,1.34,0.34,2.116c-0.425,1.538-1.569,2.896-0.897,4.721
		c0.237,0.646-0.478,1.233-1.307,1.287C236.235,157.352,235.194,157.436,233.93,157.528z"/>
	<path style="fill-rule:evenodd;clip-rule:evenodd;fill:#020202;" d="M248.685,149.383c-0.785-0.331-1.451-0.065-2.14,0.337
		c-0.962,0.561-1.964,1.057-2.956,1.562c-0.683,0.348-1.344,0.354-1.917-0.237c-0.672-0.693-0.212-1.253,0.199-1.836
		c0.759-1.079,1.499-2.172,2.222-3.221c-0.205-0.61-0.715-0.455-1.065-0.592c-0.74-0.288-1.735-0.166-1.886-1.318
		c-0.137-1.049,0.807-1.062,1.294-1.554c0.695-0.702,0.971-1.809,1.476-2.712c0.578-1.031,1.184-2.052,1.834-3.039
		c0.383-0.578,0.885-1.218,1.685-0.699c0.682,0.441,0.683,1.214,0.451,1.898c-0.39,1.15-1.418,1.888-2.015,2.9
		c-0.473,0.801-2.011,1.727-0.958,2.485c1.028,0.743,1.187-1.07,1.797-1.684c0.621-0.626,1.027-1.715,2.104-1.412
		c0.904,0.256,0.745,1.219,0.717,1.986c-0.309,1.737-1.827,2.624-2.761,3.925c-0.453,0.324-0.632,0.808-0.729,1.375
		c0.275-0.822,0.572-1.608,1.665-1.362C249.69,147.52,249.818,147.938,248.685,149.383z"/>
	<path style="fill-rule:evenodd;clip-rule:evenodd;fill:#020202;" d="M231.789,144.444c1.345-0.319,2.683-0.666,4.036-0.945
		c0.867-0.181,0.705-0.608,0.458-1.209c-0.216-0.528,0.118-0.975,0.563-1.206c0.45-0.232,0.984-0.181,1.373,0.179
		c1.19,1.102,1.948,2.509,1.625,4.092c-0.201,0.979-0.921,2.339-2.304,0.992c-0.69-0.671-1.313-0.292-1.926-0.176
		c-1.915,0.366-3.819,0.803-5.71,1.283c-1.045,0.264-1.725-0.025-2.271-0.945c-0.598-1.007,0.239-1.317,0.734-1.859
		c1.998-2.18,3.139-4.924,4.787-7.334c0.429-0.627,0.697-1.906,1.759-1.209c0.931,0.612,1.489,1.682,0.552,2.87
		c-1.332,1.685-2.636,3.394-3.949,5.091C231.607,144.193,231.697,144.318,231.789,144.444z"/>
	<path style="fill-rule:evenodd;clip-rule:evenodd;fill:#040404;" d="M182.792,147.23c0,3.356-0.049,6.714,0.027,10.068
		c0.024,1.118-0.305,1.457-1.404,1.385c-1.394-0.094-2.796-0.033-4.193-0.02c-0.658,0.007-1.237,0.069-1.207-0.928
		c0.03-0.857,0.52-0.791,1.096-0.831c1.167-0.08,2.797,0.557,3.379-0.283c0.599-0.864,0.256-2.403,0.26-3.647
		c0.016-5.244,0-10.488,0.015-15.732c0.002-0.768-0.334-1.734,1.108-1.705c1.396,0.028,0.892,1.002,0.898,1.627
		C182.815,140.517,182.792,143.874,182.792,147.23z"/>
	<path style="fill-rule:evenodd;clip-rule:evenodd;fill:#F9F9F9;" d="M271.837,140.219c0.324-0.255,0.775-0.802,0.955-0.724
		c3.121,1.354,5.765-0.648,8.61-1.155c0.018,0.159,0.036,0.318,0.054,0.477c-1.192,0.349-0.83,1.286-0.74,2.07
		c0.094,0.831,0.278,1.643,0.125,2.489c-0.129,0.715-0.673,0.594-1.129,0.596c-0.562,0.004-0.658-0.33-0.546-0.834
		c0.103-0.475,0.134-0.967,0.177-1.451c0.066-0.719-0.202-1.329-0.949-1.351c-0.738-0.021-0.732,0.693-0.772,1.238
		c-0.046,0.624-0.065,1.251-0.064,1.878c0.001,0.627-0.335,0.827-0.909,0.876c-0.841,0.071-0.569-0.528-0.665-0.959
		c-0.2-0.907,0.69-2.553-0.792-2.55c-1.384,0.002-0.737,1.653-0.852,2.6c-0.081,0.686,0.12,1.449-0.99,1.384
		c-1.373-0.082-0.593-0.996-0.535-1.512c0.114-1.013,0.666-2.113-0.97-2.386C271.537,140.679,271.556,140.45,271.837,140.219z"/>
	<path style="fill-rule:evenodd;clip-rule:evenodd;fill:#F8F8F8;" d="M248.685,149.383c1.185-1.655-0.172-2.259-1.235-2.981
		c-0.243-0.247-0.677-0.051-0.886-0.379c0.988-1.258,1.976-2.518,2.963-3.775c0.129-0.003,0.257-0.002,0.386,0.003
		c0.027,0.818-0.681,1.535-0.341,2.418c0.656,0.207,1.052-0.312,1.405-0.634c0.69-0.628,1.148-0.118,1.618,0.205
		c0.768,0.524,0.113,0.968-0.191,1.353c-1.024,1.298-2.091,2.564-3.141,3.844C249.071,149.417,248.877,149.399,248.685,149.383z"/>
	<path style="fill-rule:evenodd;clip-rule:evenodd;fill:#0D0D0D;" d="M255.643,151.919c-0.857-0.006-1.645-0.245-2.334-0.75
		c-0.489-0.359-1.195-0.723-0.941-1.436c0.277-0.782,1.033-1.141,1.855-1c0.74,0.129,1.478,0.372,2.169,0.674
		c0.656,0.285,1.241,0.797,1.086,1.591C257.285,151.993,256.4,151.894,255.643,151.919z"/>
	<path style="fill-rule:evenodd;clip-rule:evenodd;fill:#0F0F0F;" d="M249.931,152.473c0.092,0.835-0.133,1.181-0.775,1.106
		c-1.088-0.127-1.392-1.017-1.691-1.852c-0.158-0.44,0.044-0.896,0.578-0.841C249.113,150.998,249.78,151.62,249.931,152.473z"/>
	<path style="fill-rule:evenodd;clip-rule:evenodd;fill:#F7F7F7;" d="M302.457,143.11c1.189-1.535,2.407-3.049,3.551-4.617
		c0.455-0.625,1.001-1.152,1.701-0.814c0.554,0.269,0.226,1.028,0.126,1.533c-0.377,1.89-1.075,3.439-3.564,2.527
		c0.145,1.018,0.383,1.777,0.842,2.477c0.33,0.504,0.513,1.082-0.271,1.325c-0.685,0.212-1.135,0.234-0.917-0.857
		c0.145-0.72-0.745-1.041-1.471-1.143c-0.135-0.098-0.179-0.191-0.133-0.289C302.367,143.159,302.412,143.11,302.457,143.11z"/>
	<path style="fill-rule:evenodd;clip-rule:evenodd;fill:#F5F5F5;" d="M300.463,149.562c-0.044-1.912,1.425-2.794,3.186-1.941
		c0.292,0.142,0.675,0.192,0.999,0.148c0.75-0.102,0.794,0.347,0.738,0.864c-0.046,0.429,0.239,1.013-0.491,1.166
		c-1.214,0.256-2.425,0.52-3.638,0.779C300.297,150.784,300.512,150.069,300.463,149.562z"/>
	<path style="fill-rule:evenodd;clip-rule:evenodd;fill:#FFFFFF;" d="M297.798,146.23c-0.488,0.528,1.365,2.319-1.008,2.307
		c-0.36-0.002-0.877,0.335-1.014-0.312c-0.086-0.405-0.132-0.972,0.26-1.157c1.426-0.68,1.455-1.367,0.16-2.212
		c-0.729-0.476-0.208-1.145-0.168-1.7c0.039-0.502,0.604-0.55,1.01-0.509c0.946,0.094,0.697,0.892,0.748,1.462
		C297.842,144.731,297.798,145.364,297.798,146.23z"/>
	<path style="fill-rule:evenodd;clip-rule:evenodd;fill:#F2F2F2;" d="M291.803,146.866c0.912,0.755,2.126,0.752,1.837,2.127
		c-0.156,0.746-0.878,0.962-1.25,0.748C291.304,149.114,292.197,148.023,291.803,146.866z"/>
	<path style="fill-rule:evenodd;clip-rule:evenodd;fill:#FFFFFF;" d="M302.457,143.11c-0.001,0.145-0.003,0.287-0.003,0.432
		c-0.545,1.163-1.089,2.326-1.755,3.747C299.779,144.942,301.443,144.186,302.457,143.11z"/>
	<path style="fill-rule:evenodd;clip-rule:evenodd;fill:#DDDDDD;" d="M292.374,145.911c-0.606,0.008-0.373-0.51-0.386-0.852
		c-0.031-0.859,0.475-1.215,1.262-1.242c0.644-0.022,0.494,0.48,0.524,0.853C293.851,145.63,293.064,145.665,292.374,145.911z"/>
	<path style="fill-rule:evenodd;clip-rule:evenodd;fill:#FFFFFF;" d="M134.618,145.617c-0.418,1.561-0.994,2.51-2.341,2.459
		c-0.877-0.031-0.634-0.904-0.512-1.309C132.205,145.302,133.501,145.931,134.618,145.617z"/>
	<path style="fill-rule:evenodd;clip-rule:evenodd;fill:#FFFFFF;" d="M129.091,147.699c0.124,1.234-0.934,0.95-1.558,1.161
		c-0.739,0.252-1.105-0.291-1.029-0.879c0.13-1.006,1.179-0.755,1.813-1.044C128.994,146.63,129.128,147.142,129.091,147.699z"/>
	<path style="fill-rule:evenodd;clip-rule:evenodd;fill:#F3F3F3;" d="M154.926,141.264c1.25,0.451,1.161,1.366,0.833,2.374
		c-0.256,0.796-0.492,1.598-0.738,2.398c-0.169,0.874-1.278,0.297-1.556,1.007l0.071,0.113l-0.066,0.116
		c-0.137,0.136-0.279,0.147-0.424,0.014c-0.57-0.713-1.533-0.593-2.281-1.324c-1.289-1.262-1.227,0.644-1.654,1.316
		c-0.541,0.305-0.869,0.252-0.787-0.477c0.077-1.36,1.832-1.886,1.674-3.405c-0.039-0.353,0.525-0.401,0.847-0.393
		c0.675,0.017,0.39,0.577,0.427,0.915c0.192,1.757,1.25,2.564,2.643,1.977c0.314-0.132,0.666-0.285,0.668-0.7
		c0.003-0.493-0.385-0.525-0.726-0.479c-0.777,0.108-1.204-0.171-1.229-0.979c-0.021-0.802,0.378-1.128,1.161-1.051
		c1.089,0.109,0.601-1.088,1.167-1.419C154.958,141.268,154.926,141.264,154.926,141.264z"/>
	<path style="fill-rule:evenodd;clip-rule:evenodd;fill:#E4E4E4;" d="M153.046,147.285c0.141-0.004,0.283-0.009,0.424-0.014
		c0.732,0.599,1.38,1.355,0.684,2.235c-0.62,0.787-1.776,0.275-2.675,0.566c-0.298,0.096-0.452-0.936,0.199-1.22
		C152.416,148.533,153.113,148.269,153.046,147.285z"/>
	<path style="fill-rule:evenodd;clip-rule:evenodd;fill:#E4E4E4;" d="M153.465,147.042c0.186-0.851,1.101-0.574,1.556-1.007
		C155.038,147.197,153.791,146.406,153.465,147.042z"/>
	<path style="fill-rule:evenodd;clip-rule:evenodd;fill:#FFFFFF;" d="M280.593,147.411c-0.052,0.963,0.041,1.95-1.311,1.972
		c-0.972,0.017-0.721-0.647-0.629-1.146c0.147-0.803-0.196-1.89,1.212-2.008C281.118,146.125,280.403,147.036,280.593,147.411z"/>
	<path style="fill-rule:evenodd;clip-rule:evenodd;fill:#FFFFFF;" d="M275.574,148.527c0.018-0.831-0.272-1.828,1.01-1.852
		c1.238-0.023,0.624,0.949,0.652,1.475c0.04,0.725,0.402,1.729-0.98,1.754C274.904,149.929,275.818,148.94,275.574,148.527z"/>
	<path style="fill-rule:evenodd;clip-rule:evenodd;fill:#FFFFFF;" d="M273.94,148.749c0.123,0.947,0.069,1.701-1.044,1.675
		c-1.266-0.028-0.549-1.007-0.654-1.54c-0.156-0.795-0.066-1.612,1.053-1.585C274.587,147.328,273.687,148.365,273.94,148.749z"/>
	<path style="fill-rule:evenodd;clip-rule:evenodd;fill:#F1F1F1;" d="M223.48,146.64c-0.36,1.293-0.566,2.1-0.814,2.894
		c-0.193,0.62-0.193,1.462-1.287,1.13c-1.016-0.311-0.936-1.016-0.833-1.83C220.751,147.231,222.161,147.403,223.48,146.64z"/>
	<path style="fill-rule:evenodd;clip-rule:evenodd;fill:#FCFCFC;" d="M208.75,144.589c0-0.834-0.028-1.672,0.007-2.504
		c0.048-1.115,2.193-2.834,3.308-2.734c0.652,0.059,0.573,0.527,0.55,0.9c-0.129,2.153-0.211,4.313-0.483,6.448
		c-0.171,1.354-1.103,2.028-2.534,1.864c-1.578-0.182-0.636-1.384-0.815-2.105C208.634,145.87,208.75,145.216,208.75,144.589z"/>
	<path style="fill-rule:evenodd;clip-rule:evenodd;fill:#F4F4F4;" d="M198.09,152.412c0.167-1.622,1.448-1.788,2.55-2.084
		c0.845-0.226,0.657,0.475,0.625,0.917c-0.107,1.49-0.558,2.911-2.269,3.016C197.634,154.344,198.683,152.896,198.09,152.412z"/>
	<path style="fill-rule:evenodd;clip-rule:evenodd;fill:#F9F9F9;" d="M236.132,150.954c-0.57,3.336-1.109,3.866-3.141,3.998
		c-1.58,0.102-1.321-1.053-1.613-1.895c-0.397-1.147,0.469-1.031,1.121-1.184C233.638,151.607,234.768,151.302,236.132,150.954z"/>
	<path style="fill-rule:evenodd;clip-rule:evenodd;fill:#FFFFFF;" d="M246.564,146.023c0.296,0.126,0.59,0.252,0.886,0.379
		c-0.269,0.053-0.534,0.106-0.802,0.159c0.445,1.682-0.821,1.706-2.182,2.007C245.259,147.593,245.682,146.642,246.564,146.023z"/>
	<path style="fill-rule:evenodd;clip-rule:evenodd;fill:#121212;" d="M110.055,139.273c-0.311-0.288-0.624-0.575-0.936-0.862
		c0.923-1.037,1.946-1.961,3.155-2.653c0.839-0.481,1.535-0.191,1.858,0.637c0.349,0.893-0.516,0.91-1.039,1.183
		C112.066,138.114,110.485,137.67,110.055,139.273z"/>
	<path style="fill-rule:evenodd;clip-rule:evenodd;fill:#010101;" d="M100.837,143.382c1.568-1.301,2.137-3.194,3.129-4.714
		c-0.443-0.53-0.697-0.338-0.94-0.23c-0.572,0.249-1.181,0.649-1.684-0.027c-0.227-0.306-0.425-0.814-0.332-1.145
		c0.233-0.838,1.006-0.542,1.595-0.532c0.84,0.014,1.653,0.037,2.449-0.35c0.692-0.337,1.703-0.223,1.845,0.409
		c0.302,1.341,1.41,1.194,2.219,1.617c0.842-0.289,0.525,0.682,0.936,0.862c1.735,2.386,3.048,0.684,4.429-0.454
		c0.398-0.331,0.649-1.032,1.345-0.726c0.532,0.233,0.855,0.712,0.915,1.309c0.08,0.781-0.481,1.086-1.066,1.361
		c-0.749,0.354-1.497,0.708-2.341,1.107c1.958,1.84,4.488,2.423,6.487,3.882c0.406,0.296,1.252,0.429,0.958,1.145
		c-0.293,0.71-1.003,0.034-1.462,0.155c-4.251,1.117-6.484-1.95-9.09-4.273c-1.886,2.311-5.029,2.73-6.539,0.721
		c-2.251,2.786-4.312,5.756-8.131,7.764c1.72-3.167,4.147-5.145,5.327-7.934L100.837,143.382z"/>
	<path style="fill-rule:evenodd;clip-rule:evenodd;fill:#050505;" d="M80.626,147.355c0-3.357,0.046-6.715-0.025-10.068
		c-0.024-1.106,0.299-1.459,1.397-1.387c1.392,0.092,2.794,0.028,4.193,0.02c0.645-0.004,1.247-0.096,1.213,0.914
		c-0.027,0.834-0.476,0.824-1.075,0.857c-1.17,0.069-2.703-0.542-3.419,0.269c-0.84,0.951-0.273,2.541-0.283,3.849
		c-0.038,5.173-0.007,10.347-0.028,15.52c-0.002,0.743,0.399,1.745-1.072,1.718c-1.416-0.025-0.869-1.018-0.877-1.625
		C80.601,154.065,80.626,150.709,80.626,147.355z"/>
	<path style="fill-rule:evenodd;clip-rule:evenodd;fill:#020202;" d="M110.434,151.436c2.322,0.668,2.326,0.722,0.188,4.435
		c1.069,0,2.057-0.069,3.03,0.019c1.062,0.096,1.965,0.651,1.857,1.815c-0.101,1.09-1.047,1.03-1.948,0.98
		c-3.485-0.203-6.964-0.084-10.392,0.633c-1.171,0.245-2.022-0.138-2.309-1.191c-0.374-1.377,0.896-1.124,1.611-1.233
		c0.951-0.147,1.415-0.383,0.828-1.416c-0.418-0.735-0.599-1.56-0.435-2.423c1.178-0.436,1.793,0.18,2.335,1.139
		c1.069,1.895,2.337,1.858,3.498,0.007C109.277,153.277,109.285,151.995,110.434,151.436z"/>
	<path style="fill-rule:evenodd;clip-rule:evenodd;fill:#030303;" d="M103.698,152.362c-0.79-1.223-1.542-2.48-1.797-3.931
		c-0.197-1.126-0.491-2.104,1.552-1.868c1.693,0.195,3.515-0.549,5.252-0.982c1.426-0.356,2.671-0.203,3.516,1.054
		c0.793,1.181-0.525,1.847-0.874,2.745c-0.22,0.568-0.613,1.069-0.93,1.6c-1.526,1.522-3.652,1.468-5.528,2.059
		C104.396,153.193,103.993,152.775,103.698,152.362z"/>
	<path style="fill-rule:evenodd;clip-rule:evenodd;fill:#FFFFFF;" d="M103.698,152.362c0.612,0.465,1.138,0.311,1.845,0.041
		c1.576-0.602,3.244-0.963,4.874-1.423c0.006,0.152,0.011,0.304,0.018,0.456c-0.424,1.003-0.946,1.977-1.246,3.014
		c-0.465,1.612-1.688,1.771-3.028,1.811c-1.357,0.043-1.109-1.145-1.38-1.885c-0.341-0.932-0.763-1.621-1.914-1.322
		C103.144,152.824,103.42,152.593,103.698,152.362z"/>
	<path style="fill-rule:evenodd;clip-rule:evenodd;fill:#181818;" d="M100.887,143.329c-0.501,0.079-0.958,1.038-1.508,0.113
		c-0.472-0.796-1.68-1.09-1.56-2.276c0.038-0.386,0.306-0.638,0.666-0.681c0.544-0.062,1.066-0.05,1.488,0.455
		c0.599,0.722,0.809,1.549,0.859,2.444C100.837,143.382,100.887,143.329,100.887,143.329z"/>
	<path style="fill-rule:evenodd;clip-rule:evenodd;fill:#FFFFFF;" d="M104.205,142.636c1.038-1.584,1.786-2.727,2.715-4.143
		c0.241,1.512,1.678,1.819,2.275,3.116C107.627,141.931,106.186,142.227,104.205,142.636z"/>
	<path style="fill-rule:evenodd;clip-rule:evenodd;fill:#FFFFFF;" d="M109.448,147.259c-0.391,2.072-1.899,2.55-3.493,2.938
		c-0.733,0.177-0.995-0.247-1.219-0.81c-0.291-0.73,0.242-0.812,0.713-0.952C106.766,148.045,108.083,147.658,109.448,147.259z"/>
</g>
</svg>
