<?xml version="1.0" encoding="utf-8"?>
<!-- Generator: Adobe Illustrator 18.0.0, SVG Export Plug-In . SVG Version: 6.00 Build 0)  -->
<!DOCTYPE svg PUBLIC "-//W3C//DTD SVG 1.1//EN" "http://www.w3.org/Graphics/SVG/1.1/DTD/svg11.dtd">
<svg version="1.1" id="圖層_1" xmlns="http://www.w3.org/2000/svg" xmlns:xlink="http://www.w3.org/1999/xlink" x="0px" y="0px"
	 viewBox="0 0 1366 768" style="enable-background:new 0 0 1366 768;" xml:space="preserve">
<polygon style="opacity:0.5;fill-rule:evenodd;clip-rule:evenodd;fill:#E6E6E6;" points="607.187,490.468 820.369,412.625 
	908.234,358.5 1154.5,412.625 1227.858,442.123 1271.963,464.17 1271.098,678.635 155.738,679.5 222.895,621.56 304.38,605.994 
	368.516,581.779 502.55,505.231 "/>
<polygon style="opacity:0.3;fill-rule:evenodd;clip-rule:evenodd;fill:#CECCCC;" points="876.066,476.703 1075.35,342 1137.938,342 
	1195.888,311.966 1239.451,341.545 1278.662,388.749 1345.885,457.816 1404.434,506.955 961.529,538 850.5,538 "/>
<polygon style="fill:#E6E6E6;" points="-0.375,500.045 70.312,469.232 153.406,405.688 243.453,426.201 337.477,463.252 
	558.726,491.005 683.244,533.782 773.086,512.238 952.918,453.183 1070.918,433.999 1298.148,468.846 1365,461.458 1365,777 
	-0.5,777 "/>
<polygon style="fill-rule:evenodd;clip-rule:evenodd;fill:#E6E6E6;" points="1339,464.671 1481.553,448.078 1618.333,477.012 
	1789.414,536 1890.234,536 2004.104,560 2131.479,560 2235.856,574.541 2290.29,541.288 2390.545,550.043 2436.53,604.046 
	2487.813,649.049 2562.296,673.524 2640.615,692 2728.46,692 2736.637,692 2737.149,771 1339,771 1339,502.034 "/>
</svg>
