<?xml version="1.0" encoding="utf-8"?>
<!-- Generator: Adobe Illustrator 18.0.0, SVG Export Plug-In . SVG Version: 6.00 Build 0)  -->
<!DOCTYPE svg PUBLIC "-//W3C//DTD SVG 1.1//EN" "http://www.w3.org/Graphics/SVG/1.1/DTD/svg11.dtd">
<svg version="1.1" id="圖層_1" xmlns="http://www.w3.org/2000/svg" xmlns:xlink="http://www.w3.org/1999/xlink" x="0px" y="0px"
	 viewBox="0 0 759.49 129.568" style="enable-background:new 0 0 759.49 129.568;" xml:space="preserve">
<g>
	<g>
		<path style="fill-rule:evenodd;clip-rule:evenodd;fill:#010101;" d="M192.843,77.054c0.036,0.675,0.179,1.467-0.692,1.679
			c-0.79,0.193-0.716,0.705-0.631,1.229c0.137,0.86,0.825,0.466,1.291,0.479c0.879,0.025,1.77-0.119,2.632-0.015
			c0.848,0.103,1.584,0.592,1.511,1.574c-0.074,0.994-0.841,1.086-1.66,0.957c-0.199-0.029-0.402-0.035-0.605-0.045
			c-3.107-0.146-3.256-0.138-3.09,2.877c0.103,1.885-1.026,2.932-2.048,4.282c-0.671-1.823-0.45-3.652-0.411-5.44
			c0.026-1.232-0.383-1.558-1.511-1.248c-0.843,0.231-1.702,0.396-2.554,0.598c-0.939,0.222-1.597-0.212-2.002-0.986
			c-0.402-0.764,0.115-1.115,0.782-1.279c0.463-0.115,0.382-0.462,0.427-0.784c0.082-0.608,0.168-1.364,0.897-1.401
			c1.016-0.051,0.393,0.914,0.644,1.303c0.643,0.996,1.515,0.097,2.287,0.077c0.49-0.014,1.068,0.022,1.046-0.843
			c-0.028-1.093-0.714-0.66-1.251-0.686c-0.329-0.014-0.853-0.013-0.949-0.196c-1.078-2.026-2.06-0.464-3.065,0.042
			c-1.021,0.515-2.071,0.98-3.052,1.567c-0.928,0.557-1.606,0.418-2.171-0.859c0,2.649-0.034,4.906,0.016,7.159
			c0.021,0.863,0.099,1.803-0.971,1.876c-0.974,0.069-1.097-0.987-1.113-1.64c-0.157-6.15-0.237-12.304,0.657-18.415
			c0.215-1.462,0.8-2.281,2.123-0.71c0.632,0.75,1.319,0.407,1.956,0.014c0.809-0.502,1.694-0.795,2.378-0.012
			c0.718,0.82-0.184,1.475-0.547,2.144c-0.258,0.472-0.574,0.915-0.908,1.337c-0.689,0.863-1.447,1.443,0.071,2.518
			c1.207,0.854,0.926,2.66,0.761,4.453c1.551-1.658,2.893-3.077,4.208-4.518c0.305-0.332,0.861-0.709,0.562-1.178
			c-0.202-0.314-0.785-0.429-1.22-0.54c-0.971-0.247-2.412,0.579-2.836-0.807c-0.395-1.3,1.345-1.234,1.868-2.069
			c0.417-0.67,1.077-1.216,1.705-1.724c0.838-0.675,1.707-2.597,2.647,0c0.236,0.655,1.009,0.192,1.434-0.012
			c0.895-0.434,1.571-0.231,2.127,0.498c0.585,0.771-0.11,1.239-0.502,1.737c-2.095,2.672-2.113,2.697,1.018,4.048
			c1.42,0.611,2.911,1.06,4.354,1.62c0.352,0.137,0.869,0.274,0.837,0.76c-0.036,0.57-0.635,0.297-0.913,0.459
			c-1.877,1.096-3.724,0.292-5.581,0.018c-0.405-0.395-0.97-0.488-1.441-0.763c-1.059-0.888-2.091-1.332-3.052,0.313
			c0.954-0.66,1.851-1.359,2.884-0.372C191.743,76.433,192.357,76.629,192.843,77.054z"/>
		<path style="fill-rule:evenodd;clip-rule:evenodd;fill:#010101;" d="M456.733,80.987c-0.105,1.892-0.134,3.775,0.316,5.644
			c0.139,0.582,0.202,1.356-0.537,1.561c-0.878,0.24-1.219-0.589-1.35-1.195c-0.673-3.139-0.782-6.305-0.066-9.457
			c0.263-1.152,0.829-1.928,2.292-0.994c-0.574-1.229-0.142-2.895-2.157-3.029c-0.547-0.037-0.972-0.805-0.919-1.43
			c0.066-0.771,0.811-0.488,1.285-0.58c0.53-0.102,1.069-0.165,1.605-0.216c2.118-0.202,2.125-0.204,0.939-2.054
			c-0.192-0.302-0.368-0.594-0.218-0.929c0.223-0.491,0.688-0.363,1.056-0.271c0.726,0.181,1.666,0.402,1.815,1.13
			c0.321,1.567,1.139,1.207,2.141,0.858c0.891-0.312,2.034-0.674,2.378,0.581c0.355,1.294-1.248,0.851-1.725,1.488
			c-1.122,0.584-2.236,1.182-3.494,1.447c-0.47,0.099-0.902,0.303-0.9,0.9c0,0.203,0.044,0.443,0.224,0.523
			c0.612,0.275,0.814-0.296,1.081-0.623c0.822-0.997,1.721-1.843,3.09-1.962c2.007,2.429-1.025,2.085-1.748,3.239
			c0.961,0.459,2.461-0.589,3.06,0.881c1.442,1.071,3.304,1.564,4.518,3.607c0.141-1.942,0.978-3.477-0.724-4.742
			c-0.503-0.371-0.46-0.955,0.217-1.282c0.964-0.61,1.917-1.238,2.895-1.821c0.634-0.376,1.264-0.746,2.082-0.39
			c0.661,0.289,1.252,0.644,1.346,1.37c0.097,0.781-0.666,1.09-1.178,1.16c-1.616,0.213-1.629,1.37-1.932,2.578
			c-0.977,3.902-0.838,7.301,3.219,9.514c0.762,0.416,1.384,1.26,1.629,2.233c-2.782,0.527-4.755-0.78-6.483-2.678
			c-0.366-0.401-0.729-0.824-1.376-0.503c-1.779,0.889-4.123,0.471-5.367,2.689c-0.703,1.255-1.831,1.455-2.34-0.408
			c-0.098-0.355-0.415-0.652-0.775-1.193c2.091,0.476,2.66-0.473,2.628-2.146c-0.046-2.095,0.007-4.191-0.028-6.286
			c-0.007-0.473,0.205-1.191-0.635-1.237c-0.532-0.029-1.244-0.035-1.462,0.473c-0.235,0.549,0.065,1.009,0.733,1.354
			c1.254,0.647,0.68,1.168-0.284,1.523c-0.554,0.207-1.298,0.291-1.172,1.122c0.117,0.761,0.773,0.177,1.146,0.337
			c1.742,0.742,0.566,2.073,0.376,2.952c-0.322,1.474-2.143,1.241-3.217,1.718c-0.701,0.312-0.903-1.553-1.058-2.491
			c-0.172-1.017-0.089-2.108,1.691-2.185c-0.788-0.366-1.29-0.6-1.793-0.832c-0.269-0.176-0.349-0.436-0.331-0.739
			c0.116-0.828,1.142-0.839,1.51-1.628c-0.731-0.208-1.028,0.203-1.314,0.631C456.974,79.713,457.196,80.482,456.733,80.987z"/>
		<path style="fill-rule:evenodd;clip-rule:evenodd;fill:#010101;" d="M118.049,70.49c0.666-0.074,1.365-0.043,1.993-0.239
			c2.182-0.675,3.409-0.112,3.508,2.216c0.207,4.846,0.702,9.706,0.105,14.562c-0.131,1.062-3.163,3.419-4.163,3.296
			c-0.48-0.059-0.697-0.413-0.734-0.836c-0.131-1.564-1.072-1.571-2.284-1.315c-1.185,0.251-2.418,0.284-3.601,0.546
			c-1.859,0.412-2.733-0.543-2.94-2.156c-0.589-4.573-0.664-9.168-0.046-13.742c0.144-1.06,0.211-2.651,2.149-1.924
			c0.529,0.197,0.667-0.287,0.907-0.577c0.604-0.726,1.145-1.521,1.826-2.161c0.494-0.464,0.527-1.562,1.561-1.314
			c0.707,0.17,1.14,0.717,1.315,1.411c0.267,1.034-0.493,1.417-1.216,1.807C116.685,71.273,117.46,70.523,118.049,70.49z"/>
		<path style="fill-rule:evenodd;clip-rule:evenodd;fill:#010101;" d="M368.488,78.244c3.14-0.463,6.061-0.812,8.973-1.25
			c1.814-0.271,2.606,0.152,2.374,2.019c-0.304,2.46-0.054,5.292-3.268,6.319c-0.8,0.254-1.37,0.53-1.52-0.668
			c-0.228-1.824-0.868-0.447-1.234,0.037c-0.222-0.245-0.327-0.318-0.37-0.416c-0.292-0.666,0.57-1.759-0.229-2.006
			c-1.663-0.517-0.454,1.755-1.659,1.93c-0.732-0.369-0.357-1.713-1.555-1.852c-0.351-0.039-0.603-0.788,0.123-1.025
			c0.595-0.195,0.98-0.461,0.775-1.149c-0.068-0.229-0.241-0.248-0.445-0.137c-0.566,0.314-1.568,0.278-1.61,1.007
			c-0.088,1.485,0.972,2.891,0.487,4.479c-0.015,0.047,1.011,0.502,1.582,0.624c3.203,0.684,6.467,0.41,9.707,0.527
			c0.402,0.014,0.811-0.01,1.215,0.012c0.322,0.015,0.723-0.041,0.799,0.408c0.068,0.41-0.267,0.537-0.564,0.713
			c-5.299,3.141-10.51,1.794-15.607-0.454c-1.588-0.7-3.075-0.843-4.703-0.63c-0.691,0.09-1.438,0.151-1.565-0.789
			c-0.137-0.98,0.528-1.412,1.354-1.333c2.735,0.259,3.581-1.384,4.244-3.651c0.62-2.119,1.727-4.091,2.566-6.148
			c0.286-0.702,0.741-1.393,0.078-2.236c-0.643-0.82,0.261-1.073,0.767-1.212c2.135-0.587,4.291-1.102,6.443-1.614
			c0.677-0.162,1.184,0.254,1.578,0.713c0.533,0.62-0.033,1.1-0.303,1.629c-1.6,3.165-4.236,4.885-7.646,5.574
			C368.985,77.721,368.75,78.045,368.488,78.244z"/>
		<path style="fill-rule:evenodd;clip-rule:evenodd;" d="M610.686,70.954c0.455-0.208,0.814-0.503,1.183-0.517
			c0.896-0.03,1.789,0.184,2.164,1.118c0.404,1.009-0.319,1.591-1.101,1.845c-1.804,0.586-3.03,1.435-2.269,3.637
			c0.435,0.271,0.823-0.212,1.271-0.193c0.854,0.03,1.438,0.485,1.576,1.291c0.148,0.852-0.103,1.519-1.093,1.854
			c-1.774,0.599-2.349,1.867-1.979,3.734c0.13,0.66,0.454,0.695,0.97,0.685c1.014-0.022,2.034-0.075,3.038,0.017
			c1.2,0.109,2.134,0.84,2.134,2.03c0,1.374-1.139,1.378-2.236,1.331c-3.11-0.139-6.222-0.219-9.304,0.392
			c-0.67,0.135-1.353,0.223-1.985-0.122c-0.758-0.414-1.293-1.076-1.27-1.935c0.03-0.974,0.958-0.745,1.56-0.878
			c0.721-0.16,1.459-0.264,2.195-0.349c1.854-0.214,2.426-1.124,2.039-2.993c-0.164-0.795-0.589-0.515-1.021-0.493
			c-1.202,0.056-1.963-0.583-2.156-1.694c-0.248-1.422,1.045-1.078,1.775-1.332c0.749-0.26,1.533-0.311,1.475-1.504
			c-0.048-0.971-0.764-1.023-1.197-1.499c-2.304-2.534-3.974-0.401-5.856,0.45c-0.784,0.354-1.575,0.812-2.748,0.473
			c1.201-2.331,3.454-3.575,5.071-5.377c0.542-0.601,1.186,0.105,1.436,0.619c0.626,1.281,1.503,0.648,2.404,0.51
			c1.153-0.175,0.888-1.006,0.901-1.682c0.022-1.081-0.018-2.164-0.081-3.244c-0.031-0.547-0.151-1.058,0.437-1.428
			c0.658-0.418,1.202-0.107,1.66,0.27c0.931,0.767,1.542,1.705,1.155,3.008C610.661,69.557,610.438,70.136,610.686,70.954z"/>
		<path style="fill-rule:evenodd;clip-rule:evenodd;fill:#010101;" d="M393.633,74.937c1.465-0.37,2.562-0.734,3.688-0.91
			c1.242-0.195,2.191,0.52,2.459,1.627c0.307,1.258-0.951,1.254-1.735,1.481c-1.152,0.332-2.336,0.561-3.717,0.88
			c2.015,2.75,4.311,4.848,7.017,6.492c1.443,0.877,2.855,1.788,4.145,2.883c0.276,0.238,0.457,0.49,0.411,0.857
			c-0.042,0.322-0.283,0.477-0.566,0.437c-2.786-0.419-5.798,0.036-7.962-2.559c-1.207-1.449-2.501-2.831-3.631-4.351
			c-0.438-0.59-0.918-1.152-1.404-1.755c-3.535,5.546-5.018,6.996-8.65,8.244c2.071-2.95,4.878-5.01,5.959-8.223
			c-0.433-0.521-0.933-0.136-1.359-0.252c-1.056-0.287-1.894-0.875-1.979-2.005c-0.092-1.159,1.083-0.915,1.707-1.305
			c1.123-0.699,3.188,0.092,3.339-2.181c0.079-1.212,0.759-2.443-1.296-2.767c-0.887-0.139-1.623-1.253-1.506-2.184
			c0.125-0.975,1.311-0.702,2.049-0.892c1.633-0.417,3.279-0.767,4.917-1.16c1.18-0.284,2.241-0.095,2.647,1.142
			c0.438,1.335-0.529,1.886-1.635,1.984C393.677,70.681,394.135,72.925,393.633,74.937z"/>
		<path style="fill-rule:evenodd;clip-rule:evenodd;fill:#010101;" d="M485.073,87.714c2.688-0.019,2.79-0.123,2.866-2.78
			c0.007-0.27,0.016-0.541,0.023-0.812c0.098-4.292,0.098-4.292-4.027-2.625c-0.938,0.379-1.859,0.791-2.812,1.123
			c-1.31,0.456-2.139-0.249-2.512-1.373c-0.455-1.361,0.828-1.254,1.562-1.521c2.164-0.785,4.398-1.338,6.675-1.618
			c1.218-0.147,1.097-0.87,1.126-1.702c0.048-1.204-0.7-0.845-1.336-0.755c-0.905,0.13-1.766,0.186-2.182-0.904
			c-0.368-0.972-0.402-1.738,0.913-1.882c1.12-0.122,2.202-0.191,2.697-1.564c0.167-0.458,1.028-0.744,1.577-0.162
			c0.529,0.562,1.086,0.671,1.81,0.506c0.718-0.162,1.406-0.054,1.515,0.861c0.09,0.792-0.146,1.463-0.96,1.815
			c-0.684,0.297-1.604,0.223-1.543,1.474c0.061,1.197,0.308,1.844,1.635,1.414c1.553-0.502,3.218-0.138,4.786-0.721
			c0.964-0.357,1.777,0.394,2.466,1.012c0.362,0.324,0.356,0.803,0.097,1.301c-0.363,0.697-0.913,0.705-1.545,0.599
			c-1.963-0.33-3.89-0.069-5.839,0.212c-1.005,0.146-1.357,0.421-1.286,1.474c0.113,1.685,0.071,3.382,0.051,5.073
			c-0.027,2.154-1.408,3.969-3.439,4.061C485.957,90.281,485.911,88.622,485.073,87.714z"/>
		<path style="fill-rule:evenodd;clip-rule:evenodd;fill:#010101;" d="M558.504,76.02c1.027-0.058,1.431-0.618,1.609-1.625
			c0.46-2.593,1.3-5.081,2.474-7.442c0.308-0.615,0.489-1.557,1.536-1.182c0.959,0.345,0.96,1.171,0.877,2.021
			c-0.165,1.676-1.178,2.984-1.867,4.434c-0.109,0.23-0.156,0.488-0.292,0.925c1.789-0.372,3.358-0.946,4.778-1.792
			c0.988-0.588,1.758-0.438,2.229,0.409c0.628,1.128-0.47,1.425-1.186,1.593c-1.595,0.372-2.133,1.469-2.326,2.902
			c-0.073,0.535-0.143,1.07-0.234,1.604c-0.726,4.239-0.719,4.226,3.046,6.503c0.917,0.557,1.776,1.216,2.637,1.859
			c0.264,0.199,0.481,0.522,0.302,0.874c-0.068,0.132-0.341,0.23-0.516,0.225c-2.502-0.082-5.055,0.022-6.91-2.175
			c-0.311-0.365-0.691-0.911-1.36-0.513c-2.397,1.434-5.032,1.257-7.66,1.112c-0.177-0.833,0.458-1.024,1.016-1.239
			c0.562-0.218,1.181-0.301,1.724-0.558c0.985-0.464,2.65-0.354,2.693-1.687c0.042-1.268-0.678-2.573-1.839-3.436
			c-0.64-0.474-1.384-0.887-1.412-1.838c-0.011-0.357,0.14-0.646,0.413-0.873C558.324,76.088,558.414,76.055,558.504,76.02z"/>
		<path style="fill-rule:evenodd;clip-rule:evenodd;fill:#010101;" d="M419.404,70.429c0.978,0.938,0.759,1.872,0.438,2.851
			c-0.32,0.976-0.205,1.591,1.103,1.729c1.036,0.109,2.061,0.609,3.024,1.075c1.314,0.635,1.434,1.89,0.779,2.911
			c-0.703,1.096-1.574,0.102-2.223-0.354c-0.823-0.572-1.567-1.249-2.6-1.475c0,2.702-0.011,5.359,0.008,8.018
			c0.004,0.606,0.082,1.216,0.162,1.817c0.18,1.296-0.811,2.033-1.665,2.165c-1.108,0.168-1.211-1.067-1.2-1.899
			c0.07-4.997-0.251-10.009,0.345-14.985c0.183-1.529-0.214-1.779-1.534-1.269c-1.131,0.437-2.299,0.776-3.43,1.212
			c-0.83,0.322-1.588,0.255-2.299-0.25c-0.667-0.472-1.41-1.002-1.299-1.905c0.125-0.997,1.085-1.126,1.867-1.255
			c3.206-0.525,6.453-0.6,9.693-0.723c1.688-0.063,3.375-0.11,5.065-0.131c0.854-0.011,1.599,0.333,2.065,1.053
			c0.274,0.421,0.145,0.912-0.21,1.299c-0.709,0.774-1.421,0.391-2.204,0.076C423.382,69.631,421.468,70.021,419.404,70.429z"/>
		<path style="fill-rule:evenodd;clip-rule:evenodd;fill:#010101;" d="M234.639,88.857c-0.932-2.244-0.835-4.178-0.838-6.097
			c-0.002-1.013,0.006-2.028-0.003-3.042c-0.023-2.607-0.034-2.633-2.636-1.99c-0.705,0.175-1.403,0.488-2.022,0.87
			c-1.142,0.704-2.202,0.506-3.232-0.146c-0.643-0.405-1.222-0.999-1.174-1.79c0.058-0.969,1.023-1,1.683-1.117
			c1.992-0.353,4.002-0.635,6.016-0.834c1.019-0.103,1.429-0.497,1.376-1.523c-0.064-1.349,0.009-2.707-0.064-4.057
			c-0.057-0.939-0.443-2.133,0.967-2.17c1.258-0.033,1.989,0.971,2.285,2.182c0.045,0.184-0.06,0.396-0.085,0.599
			c-0.591,4.465,0.716,5.578,5.118,4.061c1.763-0.609,2.289,0.596,3.045,1.513c0.314,0.383,0.248,1.033-0.24,1.471
			c-0.469,0.417-0.985,0.541-1.456,0.109c-1.894-1.74-4.017-0.347-6.026-0.469c-0.784-0.047-0.73,0.626-0.736,1.17
			c-0.015,1.76-0.033,3.518-0.04,5.277C236.567,84.951,235.475,86.636,234.639,88.857z"/>
		<path style="fill-rule:evenodd;clip-rule:evenodd;fill:#010101;" d="M537.802,76.417c-1.37,2.746-2.849,5.404-5.708,6.928
			c-0.58-0.882,0.076-1.527,0.442-2.21c0.602-1.127,1.372-2.158,1.9-3.334c-2.284-0.732-2.579-0.549-2.619,1.714
			c-0.029,1.681,0.067,3.37-0.451,5.006c-0.323,1.392-1.057,2.812-2.357,3.032c-1.065,0.182-0.993-1.698-2.046-2.293
			c2.337-0.619,2.503-1.071,2.171-5.766c-0.938,0.746-1.759,1.381-2.559,2.043c-0.463,0.381-0.887,1.002-1.512,0.309
			c-0.562-0.621-0.674-1.387-0.027-1.99c0.786-0.735,1.607-1.485,2.544-1.994c1.535-0.836,2.042-2.004,1.601-3.74
			c-0.492-0.434-1.046,0.256-1.621,0.067c-1.008-0.327-1.619-1.042-1.828-1.994c-0.266-1.215,0.868-0.985,1.48-1.13
			c1.601-0.377,2.519-1.148,2.085-2.936c-0.031-0.127-0.004-0.268-0.006-0.404c-0.008-0.914-0.232-2.197,1.033-2.176
			c1.046,0.019,1.737,1.203,1.629,2.225c-0.095,0.865,0.012,1.178,0.757,1.648c1.026,0.648,0.905,1.65-0.093,2.296
			c-1.179,0.765-1.336,1.727-0.908,3.044c0.632-0.304,1.224-0.586,1.965-0.94c-0.436,1.638,0.539,1.607,1.466,1.279
			c0.927-0.328,1.762-0.641,2.624,0.063C538.461,75.504,538.462,75.533,537.802,76.417z"/>
		<path style="fill-rule:evenodd;clip-rule:evenodd;fill:#010101;" d="M537.802,76.417c-0.145-0.414,0.476-0.851-0.04-1.253
			c0.32-0.828-0.619-1.101-0.756-1.719c-0.111-0.51-0.299-1.106,0.158-1.503c0.584-0.508,1.088-0.237,1.451,0.369
			c0.338,0.173,0.633,0.384,0.65,0.815c1.552,2.099,1.552,2.101,3.523,0.107c0.426-0.432,0.871-0.85,1.263-1.313
			c0.494-0.587,0.951-0.728,1.46-0.038c0.436,0.591,0.415,1.148-0.216,1.56c-1.185,0.772-2.396,1.507-3.71,2.327
			c2.018,2.028,4.651,3.217,6.543,5.306c0.473,0.522,1.093,0.411,1.578-0.173c0.379-0.456,0.803-0.875,1.548-1.678
			c-0.285,1.796-0.39,3.145-0.738,4.425c-0.281,1.034-1.235,0.713-1.496,0.124c-0.72-1.623-1.767-1.859-3.446-1.733
			c-1.117,0.085-2.122-1.065-3.01-1.902c-0.54-0.507-1.024-1.07-1.757-1.842c-0.38,1.87,0.199,3.791-1.366,5.022
			c0.087,1.037,0.748,0.49,1.228,0.445c0.945,0.001,1.908-0.11,2.827,0.037c0.899,0.143,1.724,0.693,1.673,1.728
			c-0.057,1.119-0.977,1.052-1.823,1.039c-2.695-0.045-5.4-0.222-8.061,0.428c-0.922,0.224-1.57-0.176-2.049-0.922
			c-0.523-0.814-0.454-1.385,0.648-1.547c0.864-0.124,1.722-0.297,2.654-0.459c-0.075-0.684-1.406-1.793,0.58-1.705
			c0.463,0.021,0.814-0.764,0.839-1.282C538.032,79.527,539.078,77.925,537.802,76.417z"/>
		<path style="fill-rule:evenodd;clip-rule:evenodd;fill:#010101;" d="M440.491,74.423c2.704-1.016,5.577-1.494,8.248-2.639
			c0.903-0.389,1.807-0.007,2.154,0.938c0.388,1.059-0.482,1.521-1.277,1.667c-1.59,0.293-2.007,1.254-2.012,2.711
			c-0.003,1.006,0.02,2.156-0.438,2.982c-1.063,1.91-0.051,2.821,1.353,3.715c1.536,0.976,3.07,1.959,4.58,2.975
			c0.312,0.209,0.704,0.553,0.549,0.975c-0.186,0.506-0.706,0.13-1.031,0.219c-3.051,0.854-5.109-0.82-7.074-2.713
			c-0.518-0.5-0.867-0.368-1.381-0.014c-2.821,1.943-5.964,2.253-9.411,1.775c0.747-0.903,1.767-0.809,2.598-1.115
			c1.325-0.484,2.725-0.788,4.007-1.358c0.872-0.388,2.101-0.865,2.018-1.971c-0.083-1.124-0.812-2.111-2.095-2.472
			c-0.756-0.211-1.466-0.697-1.146-1.592c0.3-0.834,1.029-0.984,1.834-0.523c0.29,0.168,0.636,0.248,0.914,0.431
			c0.61,0.399,1.196,0.843,1.834,1.295c0.46-0.538,0.483-1.198,0.586-1.833c0.217-1.359,0.176-2.256-1.682-1.527
			c-1.732,0.68-2.633-0.396-3.064-1.978L440.491,74.423z"/>
		<path style="fill-rule:evenodd;clip-rule:evenodd;fill:#010101;" d="M209.851,73.904c2.743-1.109,5.702-1.533,8.421-2.74
			c0.746-0.33,1.664,0.062,2.006,0.94c0.416,1.071-0.409,1.553-1.208,1.702c-1.564,0.291-2.056,1.197-2.061,2.675
			c-0.003,1.007,0.019,2.153-0.431,2.986c-1.078,1.999,0.028,2.931,1.472,3.846c1.424,0.902,2.849,1.805,4.26,2.733
			c0.388,0.254,0.882,0.637,0.75,1.094c-0.189,0.652-0.825,0.107-1.193,0.221c-3.015,0.929-4.958-0.855-6.895-2.646
			c-0.497-0.46-0.835-0.447-1.38-0.066c-2.811,1.968-5.961,2.271-9.43,1.809c0.729-0.918,1.734-0.856,2.558-1.104
			c1.549-0.464,3.149-0.788,4.539-1.652c0.658-0.407,1.635-0.794,1.54-1.668c-0.109-0.994-0.695-1.9-1.712-2.363
			c-0.307-0.139-0.66-0.195-0.936-0.375c-0.539-0.352-0.958-0.826-0.556-1.51c0.355-0.601,0.893-0.756,1.57-0.474
			c1.066,0.44,2.057,0.988,2.888,1.956c0.47-0.664,0.559-1.298,0.645-1.936c0.179-1.309,0.244-2.314-1.662-1.551
			c-1.746,0.7-2.619-0.426-3.119-1.945L209.851,73.904z"/>
		<path style="fill-rule:evenodd;clip-rule:evenodd;fill:#010101;" d="M207.27,78.341c1.171,0.137,1.761,0.877,2.05,1.945
			c0.193,0.709-0.157,1.465-0.685,1.497c-2.562,0.153-4.327,2.075-6.618,2.826c-1.05,0.344-1.765,0.263-2.199-0.638
			c-0.622-1.291,0.726-1.137,1.303-1.485c0.51-0.31,1.1-0.512,1.678-0.685c0.926-0.277,0.84-0.994,0.661-1.626
			c-0.259-0.915-0.914-0.361-1.26-0.114c-0.895,0.639-1.189,0.008-1.525-0.598c-1.208-2.17-1.206-4.521-0.912-6.875
			c0.106-0.846,0.548-1.486,1.689-1.014c1.514,0.626,2.45,0.159,2.433-1.632c-0.004-0.336,0.01-0.69,0.115-1.001
			c0.185-0.543-0.373-1.568,0.759-1.512c0.927,0.049,1.491,0.743,1.379,1.672c-0.212,1.699,0.249,2.028,2.039,1.822
			c2.076-0.242,1.793,1.581,1.673,2.979c0,0,0.066-0.067,0.066-0.067c-0.91,0.756-1.439,1.906-1.509,2.908
			c-0.067,0.957-0.631,1.164-1.083,1.638c-0.443,0.362-0.948,0.667-1.221,1.284C206.824,79.461,206.742,78.631,207.27,78.341z"/>
		<path style="fill-rule:evenodd;clip-rule:evenodd;fill:#010101;" d="M440.553,74.37c-0.963,0.737-1.452,1.921-1.543,2.923
			c-0.084,0.948-0.62,1.182-1.085,1.652c-0.445,0.362-0.95,0.668-1.222,1.285c0.72-0.206,0.64-1.035,1.168-1.324
			c1.174,0.135,1.766,0.881,2.052,1.954c0.19,0.71-0.165,1.456-0.7,1.497c-2.626,0.199-4.454,2.16-6.818,2.92
			c-0.992,0.319-1.631,0.018-2.011-0.781c-0.557-1.166,0.638-1.086,1.184-1.398c0.522-0.298,1.112-0.496,1.694-0.664
			c0.981-0.287,1.037-1.032,0.772-1.753c-0.315-0.857-0.948-0.261-1.305-0.02c-0.795,0.539-1.088,0.038-1.401-0.522
			c-1.245-2.238-1.296-4.66-0.943-7.096c0.132-0.923,0.675-1.289,1.767-0.855c1.349,0.534,2.245,0.114,2.363-1.608
			c0.061-0.862-0.466-2.433,0.784-2.526c1.552-0.113,1.54,1.413,1.441,2.578c-0.073,0.836,0.191,1.039,0.997,0.994
			c2.778-0.154,2.922,0.02,2.742,2.801C440.491,74.423,440.553,74.37,440.553,74.37z"/>
		<path style="fill-rule:evenodd;clip-rule:evenodd;fill:#010101;" d="M134.124,83.875c-1.067,1.516-1.948,2.766-3.019,4.286
			c-0.139-1.726,0.476-2.911,0.992-4.102c1.184-2.721,2.42-5.423,3.033-8.345c0.252-1.197,0.829-1.707,2.101-1.979
			c1.617-0.349,3.21-0.052,4.801-0.159c1.358-0.09,1.185,1.39,0.999,2.514c-0.627,3.83-3.705,4.608-6.717,5.474
			c-0.469,0.136-1.263-0.094-1.087,0.739c0.141,0.658,0.8,0.588,1.359,0.443c1.172-0.304,2.331-0.729,3.521-0.867
			c1.758-0.201,2.462,0.658,2.25,2.413c-0.109,0.9-0.675,1.694-0.231,2.741c0.327,0.771-0.373,1.139-1.203,1.061
			c-1.012-0.094-2.114-0.215-2.99,0.271c-1.928,1.072-2.434-0.16-2.902-1.578C134.736,85.894,134.47,84.99,134.124,83.875z"/>
		<path style="fill-rule:evenodd;clip-rule:evenodd;fill:#020202;" d="M343.904,76.121c0.569-0.254,1.091-0.49,1.604-0.721
			c0.334,0.505,0.197,0.99-0.097,1.192c-2.183,1.505-1.684,3.755-1.711,5.867c-0.017,1.22,0.025,2.44-0.074,3.65
			c-0.078,0.926-0.104,1.942-0.937,2.591c-0.479,0.374-0.716,1.526-1.473,0.982c-0.645-0.464-0.927-1.436-1.347-2.192
			c-0.035-0.062,0.057-0.271,0.14-0.31c2.915-1.373,0.573-3.869,1.109-5.874c-0.809,0.66-1.626,1.308-2.415,1.987
			c-0.51,0.441-0.977,1.093-1.664,0.305c-0.594-0.682-0.799-1.469-0.018-2.141c1.073-0.923,2.224-1.757,3.317-2.659
			c0.497-0.411,1.207-0.692,1.147-1.54c-0.052-0.725,0.354-1.752-1.164-1.242c-0.959,0.32-1.646-0.405-2.18-1.145
			c-0.627-0.865-0.792-1.66,0.591-1.857c2.401-0.342,3.026-1.716,2.634-3.971c-0.166-0.953-0.526-2.328,1-2.666
			c0.927-0.205,1.977,1.596,1.697,2.979c-0.136,0.67-0.365,0.901,0.603,1.102c1.71,0.357,1.909,1.56,0.552,2.701
			C344.338,73.9,343.272,74.478,343.904,76.121z"/>
		<path style="fill-rule:evenodd;clip-rule:evenodd;fill:#010101;" d="M348.906,87.007c2.381,0.581,2.92-0.643,2.912-2.5
			c-0.013-3.039,0.016-6.08,0.03-9.119c0.001-1.117-0.279-1.742-1.534-1.021c-0.4,0.229-0.889,0.363-1.35,0.403
			c-1.195,0.103-1.668-0.814-1.957-1.7c-0.336-1.029,0.566-1.26,1.277-1.408c2.772-0.576,5.552-1.092,8.328-1.641
			c0.717-0.142,1.315,0.25,1.947,0.432c0.744,0.215,0.744,0.901,0.64,1.519c-0.112,0.661-0.658,0.866-1.216,0.761
			c-1.24-0.234-2.661-0.224-3.505,0.455c-0.913,0.729,0.067,2.109,0.056,3.222c-0.023,2.969,0.171,5.939,0.177,8.911
			c0.004,2.311-1.453,4.254-3.628,4.377C349.806,89.769,349.536,88.194,348.906,87.007z"/>
		<path style="fill-rule:evenodd;clip-rule:evenodd;fill:#010101;" d="M275.734,80.811c-0.68,0.72-1.351,1.45-2.044,2.156
			c-0.53,0.54-1.126,0.833-1.676,0.05c-0.45-0.641-0.739-1.33,0.105-1.935c0.988-0.704,1.943-1.464,2.969-2.11
			c0.779-0.492,1.017-1.107,1.022-2.008c0.007-1.048-0.047-1.618-1.393-1.302c-1.037,0.244-1.753-0.571-2.219-1.442
			c-0.449-0.844-0.416-1.568,0.755-1.757c2.21-0.352,3.312-1.421,2.709-3.831c-0.195-0.783-0.316-2.053,0.893-2.074
			c1.157-0.021,1.684,1.155,1.607,2.186c-0.068,0.922-0.11,1.424,0.868,1.951c0.814,0.438,1.214,1.468,0.166,2.328
			c-0.312,0.258-0.607,0.539-0.924,0.789c-0.664,0.521-0.534,1.286-0.347,1.864c0.258,0.792,0.864-0.661,1.316,0.19
			c-1.467,1.306-1.45,3.074-1.285,4.946c0.137,1.539,0.072,3.102,0.019,4.651c-0.032,0.896-0.448,1.647-1.098,2.321
			c-0.89,0.921-1.495,1.091-1.978-0.33c-0.164-0.478-0.558-0.876-0.872-1.351c3.157-0.924,1.042-3.445,1.844-5.073
			C276.027,80.959,275.881,80.884,275.734,80.811z"/>
		<path style="fill-rule:evenodd;clip-rule:evenodd;fill:#020202;" d="M580.443,73.915c-2.546,2.62-4.628,5.729-8.216,7.71
			c0.826-2.439,2.298-4.193,3.771-5.879c1.553-1.776,3.305-3.389,5.045-4.991c0.714-0.658,1.369-1.825,2.715-0.774
			c0.42,0.328,0.862-0.538,0.812-0.727c-0.406-1.574,1.306-2.037,1.602-3.217c0.114-0.457,0.468-1.205,0.812-0.949
			c1.279,0.944,2.795,0.99,4.201,1.439c0.399,0.127,0.427,0.681,0.26,1.079c-0.31,0.744-1.083,0.97-1.691,0.88
			c-2.37-0.346-3.898,1.019-5.433,2.422c3.585,2.117,7.164,4.23,10.963,6.473c-2.65,0.879-4.852,0.839-6.903-0.869
			c-1.453-1.207-3.011-2.285-4.541-3.398c-0.871-0.631-1.778-1.013-2.659,0.014C581.107,73.552,580.841,73.795,580.443,73.915z"/>
		<path style="fill-rule:evenodd;clip-rule:evenodd;fill:#010101;" d="M554.951,86.14c-0.449,0.727-1.239,1.012-1.906,1.453
			c-0.708,0.469-1.227,0.148-1.29-0.588c-0.038-0.44-1.102-1.336,0.392-1.416c0.971-0.053,0.949-0.9,0.971-1.508
			c0.092-2.965,0.088-5.932,0.155-8.897c0.015-0.721-0.21-0.937-0.923-0.786c-0.381,0.078-0.807,0.006-1.204-0.057
			c-0.932-0.146-1.389-0.918-1.583-1.653c-0.275-1.04,0.785-1.188,1.413-1.325c2.251-0.49,3.131-1.768,2.633-4.019
			c-0.137-0.62-0.179-1.323,0.685-1.366c0.725-0.035,1.617,0.629,1.484,1.094c-0.624,2.24,1.392,2.301,2.389,3.193l-0.059-0.072
			c-0.074,1.629-1.602,1.965-2.526,2.837c-0.069,0.252-0.145,0.509-0.076,0.771c0.069,0.273,0.101,0.556,0.175,0.828
			c0.043-0.262,0.146-0.5,0.313-0.707c0.562-0.842,1.351-0.54,1.957-0.219c0.956,0.508,0.655,1.472,0.554,2.317l0.049-0.054
			c-0.154,0.131-0.346,0.202-0.52,0.299c-0.675,0.369-1.772,0.216-1.949,1.19c-0.194,1.054,0.905,1.173,1.518,1.613
			c0.816,0.585,1.478,1.287,1.143,2.343c-0.344,1.067-1.197,1.09-2.144,0.773c-0.935-0.312-0.812,0.449-0.793,0.926
			C555.861,84.23,555.584,85.228,554.951,86.14z"/>
		<path style="fill-rule:evenodd;clip-rule:evenodd;fill:#010101;" d="M289.11,79.644c3.149-0.098,4.125,1.258,2.813,3.937
			c-0.352,0.719-0.653,1.278-0.094,2.172c0.585,0.936,0.147,1.818-1.131,1.954c-2.128,0.229-4.257,0.456-6.387,0.676
			c-0.757,0.078-1.09-0.518-1.335-1.028c-1.105-2.306-2.187-4.633-1.628-7.312c0.197-0.5,0.607-0.833,1.085-0.624
			c1.515,0.655,3.02,0.119,4.527,0.078C287.675,79.569,288.359,80.068,289.11,79.644z"/>
		<path style="fill-rule:evenodd;clip-rule:evenodd;fill:#020202;" d="M280.992,79.619c-0.441,0.391-0.879,0.781-1.366,1.213
			c-0.012-1.465,0.397-2.309,2.123-4.713c1.019-1.417,1.983-2.873,3.102-4.5c-0.929-0.103-2.029-0.178-2.036-1.124
			c-0.008-1.017,1.107-0.879,1.845-1.091c1.985-0.571,4.022-0.26,6.027-0.338c1.239-0.049,2.045,0.564,1.994,2.121
			c-0.114,3.626-1.159,6.603-4.779,8.114c-0.29,0.263-0.579,0.528-1.021,0.341c-0.822-0.381-1.11-1.135-1.299-1.93
			c-0.2-0.836-0.027-1.355,0.992-1.564c1.679-0.344,3.014-2.463,2.702-4.069c-0.186-0.976-0.776-0.811-1.298-0.333
			c-0.85,0.775-1.363,1.833-2.096,2.7C284.348,76.257,283.449,78.681,280.992,79.619z"/>
		<path style="fill-rule:evenodd;clip-rule:evenodd;fill:#010101;" d="M145.431,86.349c3.465-0.487,3.271,0.086,3.299-3.606
			c0.038-4.784,0.235-9.576-0.164-14.355c-0.05-0.609-0.036-1.182,0.637-1.21c0.737-0.034,1.526,0.192,1.727,1.074
			c0.166,0.719,0.261,1.467,0.276,2.203c0.094,4.855,0.173,9.71,0.22,14.564c0.009,1.002,0.025,2.098-0.776,2.844
			c-0.623,0.579-1.352,1.217-2.137,1.403c-1.202,0.288-1.075-1.118-1.635-1.688C146.51,87.201,146.076,86.889,145.431,86.349z"/>
		<path style="fill-rule:evenodd;clip-rule:evenodd;fill:#030303;" d="M578.838,83.351c-1.391,1.617-2.781,3.235-4.328,5.033
			c-0.144-1.506,0.482-2.484,0.956-3.5c1.111-2.375,2.459-4.643,3.116-7.222c0.27-1.055,0.574-1.632,2.155-1.47
			c1.811,0.186,3.7-0.322,5.582,0.259c1.513,0.468,1.59,1.224,1.158,2.589c-1.196,3.772-4.444,3.447-7.337,3.889
			C579.764,83.245,579.326,83.378,578.838,83.351z"/>
		<path style="fill-rule:evenodd;clip-rule:evenodd;fill:#020202;" d="M258.076,70.021c1.301,0.553,2.57,1.496,3.261,2.721
			c2.17,3.846,5.372,6.69,8.612,9.527c0.282,0.247,0.738,0.452,0.467,0.958c-0.315,0.59-0.769,0.447-1.181,0.136
			c-0.692-0.524-1.245-0.556-1.901,0.144c-0.557,0.593-1.104,0.02-1.597-0.31c-2.281-1.524-4.17-3.451-5.387-5.902
			c-0.926-1.865-1.618-3.832-3.189-5.314c-0.369-0.35-0.643-0.876-0.292-1.46C257.125,70.097,257.57,70.179,258.076,70.021z"/>
		<path style="fill-rule:evenodd;clip-rule:evenodd;fill:#050505;" d="M161.068,77.705c0-3.181,0.048-6.361-0.025-9.539
			c-0.028-1.168,0.152-1.742,1.505-1.604c1.341,0.135,2.705,0.041,4.058,0.023c0.596-0.006,1.027,0.023,1.023,0.835
			c-0.008,0.765-0.355,0.864-0.989,0.887c-1.136,0.041-2.633-0.527-3.319,0.228c-0.891,0.977-0.3,2.578-0.312,3.903
			c-0.047,5.007-0.013,10.014-0.023,15.021c-0.002,0.692,0.269,1.507-0.993,1.515c-1.341,0.009-0.9-0.906-0.907-1.525
			C161.051,84.201,161.068,80.953,161.068,77.705z"/>
		<path style="fill-rule:evenodd;clip-rule:evenodd;fill:#040404;" d="M308.964,77.929c0,3.181-0.071,6.363,0.036,9.54
			c0.043,1.306-0.373,1.627-1.589,1.528c-1.277-0.107-2.569-0.037-3.855-0.02c-0.654,0.01-1.181,0.023-1.147-0.917
			c0.031-0.846,0.534-0.741,1.078-0.783c3.508-0.277,3.508-0.283,3.508-3.826c0-5.074-0.003-10.149,0.006-15.224
			c0.001-0.76-0.287-1.673,1.094-1.633c1.359,0.041,0.841,0.998,0.85,1.59C308.989,71.433,308.964,74.683,308.964,77.929z"/>
		<path style="fill-rule:evenodd;clip-rule:evenodd;fill:#030303;" d="M578.838,83.351c0.281-0.612,0.824-0.422,1.303-0.422
			c-0.042,1.423,0.991,0.75,1.519,0.673c1.661-0.247,3.273-0.817,4.971-0.821c2.188-0.009,2.802,0.954,1.977,2.938
			c-0.24,0.581-0.832,1.002-0.576,1.834c0.232,0.76-0.316,0.99-1.077,0.982c-1.805-0.016-3.632-0.152-5.374,0.553
			c-0.777,0.312-1.073-0.354-1.409-0.826C579.129,86.793,578.98,85.07,578.838,83.351z"/>
		<path style="fill-rule:evenodd;clip-rule:evenodd;fill:#FCFCFC;" d="M554.951,86.14c0.41-1.648,0.264-3.341,0.383-5.008
			c0.58-0.269,0.85,0.222,1.212,0.463c0.488,0.324,1.019,0.92,1.566,0.279c0.546-0.639,0.385-1.432-0.188-2.008
			c-0.365-0.366-0.867-0.688-1.362-0.815c-0.903-0.232-1.412-0.62-1.234-1.634c0.184-1.038,0.881-1.438,1.821-1.513
			c0.463-0.037,0.936,0.038,1.403,0.061c-0.766,0.993-0.491,1.791,0.582,2.229c1.892,0.771,1.88,2.809,2.884,4.167
			c0.387,0.526-0.332,0.743-0.705,0.951c-1.291,0.718-2.692,1.155-4.102,1.562c-0.59,0.17-1.366,0.012-1.571,0.877
			C555.411,85.881,555.18,86.009,554.951,86.14z"/>
		<path style="fill-rule:evenodd;clip-rule:evenodd;fill:#030303;" d="M139.488,68.794c-0.962,0.128-1.304,0.959-1.814,1.468
			c0.001,0.447,0.262,0.352,0.423,0.386c0.792,0.167,1.646,0.251,1.826,1.271c0.081,0.45-0.149,0.79-0.55,0.983
			c-0.807,0.385-1.526,0.044-1.99-0.535c-0.801-0.999-1.048-0.18-1.421,0.316c-1.693,2.246-3.12,4.727-5.824,6.558
			c0.453-2.606,1.732-4.496,2.924-6.375c1.118-1.759,2.456-3.382,3.761-5.016c0.433-0.542,0.814-1.463,1.695-1.206
			c1.062,0.311,0.96,1.325,0.93,2.214L139.488,68.794z"/>
		<path style="fill-rule:evenodd;clip-rule:evenodd;fill:#FCFCFC;" d="M280.992,79.619c2.352-2.349,4.192-5.098,6.1-7.791
			c0.592-0.836,1.315-1.609,2.293-1.154c0.992,0.462,0.483,1.584,0.338,2.374c-0.559,3.048-1.213,3.634-3.859,3.632
			c0.177,1.065,0.488,2.032,1.222,2.835c0.114,0.122,0.137,0.223,0.071,0.306c-0.057,0.073-0.111,0.107-0.164,0.107
			c-1.867,0.76-3.76,0.16-5.643,0.114C281.232,79.9,281.112,79.759,280.992,79.619z"/>
		<path style="fill-rule:evenodd;clip-rule:evenodd;fill:#030303;" d="M486.988,70.445c-0.696,0.066-1.324-0.062-1.91-0.475
			c-0.683-0.481-0.951-1.197-0.875-1.919c0.084-0.793,0.934-0.69,1.479-0.742c2.01-0.196,4.013-0.338,5.966-0.96
			c0.938-0.299,1.755,0.164,2.078,1.119c0.366,1.069-0.473,1.395-1.247,1.695C490.708,69.851,488.837,70.11,486.988,70.445z"/>
		<path style="fill-rule:evenodd;clip-rule:evenodd;fill:#040404;" d="M246.191,83.296c1.52-3.658,4.066-6.121,6.133-8.905
			c0.379-0.508,0.967-0.407,1.382,0.106c0.646,0.797,0.977,1.636,0.192,2.539C251.803,79.451,250.007,82.224,246.191,83.296z"/>
		<path style="fill-rule:evenodd;clip-rule:evenodd;fill:#040404;" d="M539.266,73.127c-0.217-0.272-0.435-0.545-0.65-0.815
			c1.289-1.165,2.077-2.657,3.049-4.516c-1.377,0.394-2.209,1.01-3.025,1.636c-0.68,0.518-1.391,0.832-2.239,0.491
			c-0.691-0.279-1.481-0.573-1.436-1.468c0.051-0.949,0.987-0.791,1.567-0.875c1.658-0.234,3.306-0.526,4.994-0.604
			c1.144-0.053,1.782,0.479,2.363,1.214c0.738,0.934,0.682,1.708-0.617,2.125C541.65,70.834,540.327,71.798,539.266,73.127z"/>
		<path style="fill-rule:evenodd;clip-rule:evenodd;fill:#030303;" d="M579.019,65.432c0.593,0.116,1.194,0.384,1.377,0.986
			c0.19,0.618,0.527,0.643,1.031,0.614c0.363-0.021,0.87-0.298,1.057,0.208c0.201,0.542-0.273,0.839-0.649,1.125
			c-0.108,0.079-0.228,0.204-0.342,0.205c-1.81,0.007-0.797,2.357-1.857,2.464c-0.935,0.093-1.222-2.025-2.859-1.384
			c-0.655,0.256-1.295-0.261-1.416-1.067c-0.159-1.062,0.693-1.014,1.309-1.047c0.812-0.04,1.433-0.105,1.419-1.164
			C578.08,65.884,578.444,65.518,579.019,65.432z"/>
		<path style="fill-rule:evenodd;clip-rule:evenodd;fill:#090909;" d="M362.727,83.622c0.084-1.01,0.146-1.783-0.34-2.486
			c-0.484-0.696-0.35-1.547-0.384-2.349c-0.311-0.385-0.586-0.107-0.86,0.027c-0.655,0.323-0.993,0.007-1.23-0.58
			c-0.243-0.592-0.147-1.038,0.472-1.314c0.245-0.108,0.479-0.322,0.722-0.332c1.059-0.039,1.766-1.752,3.018-0.683
			c1.33,1.137-0.259,1.835-0.479,2.744c-0.193,0.805-0.141,1.597,0.22,2.36C364.41,82.169,363.837,82.863,362.727,83.622z"/>
		<path style="fill-rule:evenodd;clip-rule:evenodd;fill:#080808;" d="M465.539,76.502c0.768-2.717,1.76-5.349,3.135-7.815
			c0.271-0.483,0.437-1.502,1.408-0.866c0.711,0.465,0.908,1.167,0.428,1.922c-0.861,1.36-1.621,2.765-2.1,4.31
			c-0.134,1.349-0.76,2.425-1.923,3.105C465.902,77.498,465.22,77.636,465.539,76.502z"/>
		<path style="fill-rule:evenodd;clip-rule:evenodd;fill:#F8F8F8;" d="M465.539,76.502c0.111,0.71,0.477,0.786,0.891,0.268
			c0.697-0.877,1.324-1.81,1.98-2.718c0.167,0.011,0.333,0.021,0.5,0.031c-0.665,0.61-0.339,1.315,0.261,1.382
			c1.647,0.181,1.14,1.203,1.037,2.128c-0.122,1.119-0.226,2.24-0.374,3.715c-1.495-1.685-2.318-3.659-4.618-3.701
			c-0.111-0.001-0.211-0.722-0.316-1.106C465.111,76.5,465.324,76.502,465.539,76.502z"/>
		<path style="fill-rule:evenodd;clip-rule:evenodd;fill:#F0F0F0;" d="M531.365,84.52c0.037-2.087,0.005-4.181,0.143-6.261
			c0.064-0.947-0.115-2.632,1.795-1.287c0.693,0.487,1.277-0.492,2.108-0.412c-0.631,2.539-2.565,4.381-3.317,6.784
			C531.851,83.735,531.607,84.128,531.365,84.52z"/>
		<path style="fill-rule:evenodd;clip-rule:evenodd;fill:#0B0B0B;" d="M144.859,76.42c-0.067-0.866-0.14-1.735-0.194-2.602
			c-0.042-0.637,0.27-1.011,0.899-1.114c0.566-0.093,0.946,0.161,0.982,0.718c0.141,2.195,0.551,4.41-0.195,6.567
			c-0.133,0.386-0.332,1.032-0.924,0.832c-0.268-0.091-0.521-0.632-0.542-0.981C144.817,78.703,144.859,77.56,144.859,76.42z"/>
		<path style="fill-rule:evenodd;clip-rule:evenodd;fill:#090909;" d="M316.445,89.111c0.265-1.1,1.27-0.881,1.553-1.5
			c0.313-0.678,1.731-1.651-0.458-1.726c-0.867-0.03-1.278-0.703-1.364-1.511c-0.07-0.651,0.224-1.212,0.772-1.556
			c0.625-0.395,1.309-0.389,1.876,0.121c1.172,1.054,1.145,2.377,0.697,3.728C319.057,88.07,318.177,88.972,316.445,89.111z"/>
		<path style="fill-rule:evenodd;clip-rule:evenodd;fill:#090909;" d="M504.795,87.537c1.438-0.84,2.556-1.293,2.609-2.644
			c-0.074-0.093-0.15-0.265-0.219-0.261c-1.221,0.025-2.218-0.31-2.211-1.73c0.005-0.984,0.582-1.703,1.66-1.638
			c1.34,0.081,1.765,1.08,1.897,2.234C508.794,85.801,507.416,87.53,504.795,87.537z"/>
		<path style="fill-rule:evenodd;clip-rule:evenodd;fill:#060606;" d="M372.199,69.224c-1.628,0.162-1.867-0.708-2.004-1.476
			c-0.179-1.017,0.659-0.938,1.332-1.015c0.669-0.076,1.325-0.246,1.992-0.339c0.601-0.085,1.293-0.21,1.503,0.587
			c0.188,0.719-0.058,1.393-0.786,1.668C373.426,68.958,372.56,69.127,372.199,69.224z"/>
		<path style="fill-rule:evenodd;clip-rule:evenodd;fill:#F2F2F2;" d="M463.588,72.38c-1.288,0.433-2.001,1.515-2.829,2.479
			c-0.413,0.479-0.586,1.376-1.421,1.229c-0.968-0.171-0.212-1.164-0.622-1.673c-0.196-0.239-0.245-0.601-0.39-0.98
			c1.788-0.455,3.525-0.897,5.262-1.341C463.592,72.189,463.592,72.285,463.588,72.38z"/>
		<path style="fill-rule:evenodd;clip-rule:evenodd;fill:#0C0C0C;" d="M139.447,68.858c1.221-0.741,2.339-0.391,3.265,0.481
			c0.739,0.693,0.762,1.592-0.086,2.266c-0.811,0.641-1.37,0.077-1.801-0.586c-0.47-0.729-0.89-1.49-1.335-2.231
			C139.488,68.794,139.447,68.858,139.447,68.858z"/>
		<path style="fill-rule:evenodd;clip-rule:evenodd;fill:#0B0B0B;" d="M216.684,69.029c0.096,0.967-0.187,1.318-0.592,1.609
			c-0.578,0.411-0.835-0.016-1.123-0.407c-0.117-0.161-0.266-0.304-0.412-0.443c-0.695-0.675-1.346-1.388-1.044-2.461
			c0.146-0.514,0.636-0.522,0.989-0.292C215.443,67.646,216.545,68.145,216.684,69.029z"/>
		<path style="fill-rule:evenodd;clip-rule:evenodd;fill:#0B0B0B;" d="M444.74,67.489c0.784-0.018,2.582,1.772,2.592,2.562
			c0.006,0.717-0.616,1.462-0.985,1.262c-1.091-0.599-2.082-1.472-2.286-2.846C443.99,67.997,444.04,67.482,444.74,67.489z"/>
		<path style="fill-rule:evenodd;clip-rule:evenodd;fill:#0A0A0A;" d="M364.547,71.386c-0.134,0.682-0.215,1.288-0.996,1.061
			c-1.163-0.342-2.896-0.164-2.957-1.819c-0.04-1.077,1.283-0.533,2-0.614C363.674,69.892,364.382,70.375,364.547,71.386z"/>
		<path style="fill-rule:evenodd;clip-rule:evenodd;fill:#141414;" d="M550.429,75.589c0.741,0.14,1.452,0.567,1.581,1.569
			c0.07,0.532-0.24,0.978-0.81,0.862c-0.868-0.178-1.682-0.572-1.815-1.578C549.315,75.925,549.661,75.579,550.429,75.589z"/>
		<path style="fill-rule:evenodd;clip-rule:evenodd;fill:#191919;" d="M580.443,73.915c0.126-0.376,0.359-0.648,0.737-0.788
			c0.333,0.813,1.181,0.318,1.731,0.677c0.542,0.353,1.131,0.636,0.824,1.354c-0.323,0.753-1.018,0.417-1.583,0.294
			C581.301,75.265,581.115,74.316,580.443,73.915z"/>
		<path style="fill-rule:evenodd;clip-rule:evenodd;fill:#121212;" d="M558.166,70.265c0.018-0.579-0.318-1.221,0.191-1.709
			c0.286-0.273,0.646-0.036,0.896,0.163c0.667,0.536,1.232,1.216,0.549,2.022c-0.854,1.005-1.143-0.298-1.694-0.547L558.166,70.265z
			"/>
		<path style="fill-rule:evenodd;clip-rule:evenodd;fill:#BEBEBE;" d="M555.993,73.922c0.116,0.699,0.366,1.437-0.602,1.985
			c-0.142-1.044-0.309-1.972,0.189-2.877C555.718,73.327,555.855,73.624,555.993,73.922z"/>
		<path style="fill-rule:evenodd;clip-rule:evenodd;fill:#727272;" d="M118.049,70.49c-0.559,0.122-1.112,0.264-1.676,0.354
			c-0.24,0.039-0.58-0.013-0.496-0.354c0.043-0.178,0.359-0.288,0.553-0.43C116.807,70.814,117.565,70.134,118.049,70.49z"/>
		<path style="fill-rule:evenodd;clip-rule:evenodd;fill:#CACACA;" d="M457.392,80.131c0.054,0.269,0.109,0.537,0.163,0.805
			c-0.272,0.018-0.547,0.035-0.821,0.052c-0.11-0.755-0.108-1.495,0.266-2.189C457.58,79.109,457.327,79.668,457.392,80.131z"/>
		<path style="fill-rule:evenodd;clip-rule:evenodd;fill:#8E8E8E;" d="M192.843,77.054c-0.503-0.408-1.32-0.034-1.723-0.691
			c0.023-0.25,0.255-0.289,0.411-0.406c0.555,0.166,1.25,0.148,1.267,0.994L192.843,77.054z"/>
		<path style="fill-rule:evenodd;clip-rule:evenodd;fill:#AEAEAE;" d="M286.992,79.927c0.031-0.138,0.061-0.276,0.093-0.413
			c0.272-0.071,0.544-0.142,0.816-0.213c0.402,0.114,0.806,0.229,1.209,0.343C288.43,79.937,287.727,80.039,286.992,79.927z"/>
		<path style="fill-rule:evenodd;clip-rule:evenodd;fill:#6E6E6E;" d="M540.668,83.763c-0.423,0.107-0.841,0.245-1.272,0.306
			c-0.198,0.028-0.573,0.162-0.596-0.205c-0.021-0.374,0.306-0.502,0.64-0.546C539.67,83.958,540.306,83.488,540.668,83.763z"/>
		<path style="fill-rule:evenodd;clip-rule:evenodd;fill:#F7F7F7;" d="M179.009,74.738c0.993-0.256,1.97-0.533,1.978,0.931
			c0.005,1.298,0.1,2.659-1.5,3.158c-0.613,0.191-1.046-0.051-1.02-0.813c0.071-2.227,0.016-4.453,0.314-6.678
			c0.166-1.243,1.148-1.121,2.093-1.522C180.633,71.609,179.742,73.006,179.009,74.738z"/>
		<path style="fill-rule:evenodd;clip-rule:evenodd;fill:#EBEBEB;" d="M191.531,75.957c-0.138,0.136-0.274,0.271-0.411,0.406
			c-0.702-0.379-1.358-0.93-2,0.177c-0.422,0.726-1.245,0.615-1.995,0.554C189.162,74.037,189.177,74.034,191.531,75.957z"/>
		<path style="fill-rule:evenodd;clip-rule:evenodd;fill:#EFEFEF;" d="M190.533,69.553c-0.985,1.756-0.985,1.756-3.295,0.995
			C188.549,69.21,188.549,69.21,190.533,69.553z"/>
		<path style="fill-rule:evenodd;clip-rule:evenodd;fill:#F9F9F9;" d="M465.206,85.575c0-1.86,0.021-3.461-0.008-5.062
			c-0.019-1.049,0.54-0.998,1.096-0.523c1.103,0.946,1.382,2.428,2.121,3.62c0.27,0.436-0.355,0.654-0.681,0.82
			C466.973,84.816,466.179,85.139,465.206,85.575z"/>
		<path style="fill-rule:evenodd;clip-rule:evenodd;fill:#E6E6E6;" d="M457.392,80.131c-0.132-0.444-0.261-0.889-0.393-1.333
			c0.015-0.897,0.859-0.69,1.33-0.954c0.302-0.168,0.883-0.367,1.047,0.104c0.158,0.454,0.232,1.086-0.377,1.407
			C458.474,79.633,457.928,79.874,457.392,80.131z"/>
		<path style="fill-rule:evenodd;clip-rule:evenodd;fill:#E0E0E0;" d="M460.775,83.782c0.053,0.776-0.455,1.054-1.131,1.062
			c-0.59,0.007-0.547-0.506-0.533-0.888c0.022-0.681,0.555-0.876,1.102-0.964C460.829,82.892,460.841,83.311,460.775,83.782z"/>
		<path style="fill-rule:evenodd;clip-rule:evenodd;fill:#FDFDFD;" d="M119.385,87.963c-0.145-2.147-1.447-2.354-3.099-2.034
			c-0.862,0.167-1.742,0.245-2.612,0.362c-0.714,0.098-1.454,0.417-1.537-0.845c-0.064-0.982-0.126-1.618,1.158-1.764
			c1.329-0.147,2.624-0.61,3.936-0.931c0.682-0.164,1.493-0.36,1.16-1.26c-0.305-0.828-0.873-1.479-2.034-1.012
			c-0.991,0.4-2.068,0.616-3.126,0.816c-0.48,0.09-1.352,0.564-1.277-0.555c0.042-0.683-0.558-1.68,0.765-1.938
			c1.32-0.259,2.623-0.62,3.932-0.941c0.663-0.161,1.514-0.331,1.152-1.231c-0.282-0.703-0.828-1.406-1.9-0.973
			c-0.745,0.302-1.552,0.479-2.349,0.609c-0.533,0.087-1.434,0.818-1.513-0.359c-0.053-0.805-0.415-1.927,0.994-2.293
			c1.958-0.509,3.88-1.156,5.812-1.764c0.574-0.18,1.186-0.277,1.247,0.492c0.397,5.05,0.849,10.104-0.124,15.142
			C119.941,87.631,119.678,87.73,119.385,87.963z"/>
		<path style="fill-rule:evenodd;clip-rule:evenodd;fill:#EDEDED;" d="M377.415,79.863c-0.142,0.796-0.266,1.664-0.46,2.516
			c-0.129,0.574-0.494,0.961-1.146,0.919c-0.395-0.024-0.888,0.024-1.075-0.379c-0.263-0.564,0.02-1.08,0.5-1.39
			c0.618-0.4,0.966-0.836,0.247-1.365c-0.643-0.475-0.678-1.111-0.285-1.543c0.365-0.404,1.073-0.631,1.68-0.412
			C377.648,78.488,377.326,79.226,377.415,79.863z"/>
		<path style="fill-rule:evenodd;clip-rule:evenodd;fill:#F2F2F2;" d="M374.964,71.334c-0.516,2.76-2.602,3.309-4.732,4.033
			C371.254,72.408,371.254,72.408,374.964,71.334z"/>
		<path style="fill-rule:evenodd;clip-rule:evenodd;fill:#E6E6E6;" d="M367.027,81.947c0.133,0.176,0.224,0.254,0.256,0.35
			c0.275,0.875,0.541,1.752,0.824,2.681c-0.91,0.206-1.565-0.403-2.447-0.476C366.133,83.621,366.567,82.809,367.027,81.947z"/>
		<path style="fill-rule:evenodd;clip-rule:evenodd;fill:#E6E6E6;" d="M373.818,79.661c-0.07,0.89-0.667,0.872-1.193,0.932
			c-0.499,0.055-0.491-0.312-0.49-0.653c0.002-0.738,0.596-0.837,1.102-0.936C373.887,78.879,373.73,79.439,373.818,79.661z"/>
		<path style="fill-rule:evenodd;clip-rule:evenodd;fill:#F1F1F1;" d="M564.102,74.978c0.361,1.67-0.132,3.043-0.528,4.475
			c-0.499-1.17-2.273-1.635-1.69-3.32C562.273,75,563.335,75.422,564.102,74.978z"/>
		<path style="fill-rule:evenodd;clip-rule:evenodd;fill:#F2F2F2;" d="M203.711,73.609c0,1.149,0,2.149-0.002,3.147
			c-0.002,0.456-0.187,0.75-0.674,0.838c-0.302,0.054-0.479-0.05-0.656-0.287C201.583,76.244,202.244,74.133,203.711,73.609z"/>
		<path style="fill-rule:evenodd;clip-rule:evenodd;fill:#E3E3E3;" d="M205.622,76.849c0.078-1.363,0.122-2.428,0.205-3.49
			c0.053-0.681,0.6-0.969,1.126-0.846c0.684,0.158,0.33,0.743,0.199,1.154C206.824,74.693,206.759,75.852,205.622,76.849z"/>
		<path style="fill-rule:evenodd;clip-rule:evenodd;fill:#E7E7E7;" d="M207.27,78.341c0.118,1.307-0.169,2.315-1.773,2.352
			c-0.642-1.746,0.426-2.158,1.829-2.309L207.27,78.341z"/>
		<path style="fill-rule:evenodd;clip-rule:evenodd;fill:#F2F2F2;" d="M434.311,74.258c0,1.015,0.003,2.013-0.002,3.011
			c-0.003,0.432-0.119,0.778-0.623,0.879c-0.293,0.059-0.49-0.001-0.684-0.232C432.105,76.845,432.855,74.636,434.311,74.258z"/>
		<path style="fill-rule:evenodd;clip-rule:evenodd;fill:#E3E3E3;" d="M436.24,77.096c0.055-0.997,0.124-1.991,0.16-2.989
			c0.027-0.777,0.531-1.161,1.166-1.025c0.664,0.143,0.305,0.745,0.184,1.162C437.462,75.246,437.284,76.297,436.24,77.096z"/>
		<path style="fill-rule:evenodd;clip-rule:evenodd;fill:#E7E7E7;" d="M437.871,78.906c0.103,1.297-0.129,2.342-1.778,2.342
			c-0.638-1.738,0.429-2.15,1.832-2.301L437.871,78.906z"/>
		<path style="fill-rule:evenodd;clip-rule:evenodd;fill:#EDEDED;" d="M135.969,79.77c0.09-1.243,1.069-1.15,1.787-1.372
			c0.652-0.203,1.507-0.361,1.245-1.214c-0.241-0.791-1.006-0.298-1.567-0.192c-0.18,0.034-0.373,0.006-0.571,0.006
			c0.359-1.033,3.08-2.551,3.928-2.196c0.53,0.22,0.376,0.642,0.188,0.999C139.912,77.818,139.026,80.062,135.969,79.77z"/>
		<path style="fill-rule:evenodd;clip-rule:evenodd;fill:#F1F1F1;" d="M140.31,83.609c-0.187,1.764-0.799,2.82-2.451,2.92
			c-0.509,0.029-1.09,0.24-1.204-0.607c-0.085-0.632-0.182-1.208,0.613-1.438C138.215,84.213,139.162,83.939,140.31,83.609z"/>
		<path style="fill-rule:evenodd;clip-rule:evenodd;fill:#F7F7F7;" d="M289.184,81.857c-0.184,2.465-1.067,3.742-3.475,3.757
			c-1.076,0.006-1.195-0.532-1.453-1.207c-0.292-0.771-0.111-1.284,0.739-1.492C286.342,82.585,287.684,82.239,289.184,81.857z"/>
		<path style="fill-rule:evenodd;clip-rule:evenodd;fill:#EFEFEF;" d="M579.852,78.562c1.732-0.899,3.447-1.089,5.107-1.414
			c0.506-0.098,0.606,0.242,0.562,0.759c-0.15,1.812-4.033,4.162-5.639,3.378c-0.342-0.167-0.25-0.42-0.226-0.669
			c0.038-0.373,0.262-0.349,0.557-0.276c1.056,0.259,1.976-0.157,2.876-0.629c0.422-0.223,0.922-0.482,0.758-1.031
			c-0.194-0.662-0.77-0.277-1.196-0.267C581.807,78.431,581.039,79.146,579.852,78.562z"/>
		<path style="fill-rule:evenodd;clip-rule:evenodd;fill:#F6F6F6;" d="M586.637,84.454c-0.75,2.18-2.629,3.165-4.473,2.636
			c-0.526-0.15-0.557-0.524-0.656-0.887c-0.186-0.666,0.303-0.775,0.784-0.881c0.261-0.056,0.517-0.148,0.78-0.199
			C584.18,84.91,585.288,84.708,586.637,84.454z"/>
	</g>
	<g>
		<path style="fill-rule:evenodd;clip-rule:evenodd;fill:#010101;" d="M329.596,39.58c0.666-0.074,1.365-0.046,1.995-0.24
			c2.181-0.676,3.407-0.113,3.506,2.215c0.208,4.848,0.703,9.707,0.106,14.562c-0.13,1.063-3.164,3.419-4.163,3.296
			c-0.483-0.058-0.699-0.413-0.735-0.836c-0.13-1.563-1.072-1.571-2.283-1.316c-1.187,0.252-2.419,0.286-3.602,0.548
			c-1.858,0.411-2.733-0.544-2.94-2.158c-0.587-4.573-0.662-9.165-0.046-13.741c0.143-1.059,0.211-2.653,2.15-1.924
			c0.528,0.198,0.666-0.288,0.906-0.576c0.603-0.727,1.145-1.521,1.827-2.162c0.492-0.464,0.526-1.563,1.561-1.315
			c0.706,0.17,1.138,0.719,1.315,1.41c0.265,1.035-0.495,1.418-1.219,1.808C328.232,40.362,329.009,39.61,329.596,39.58z"/>
		<path style="fill-rule:evenodd;clip-rule:evenodd;" d="M68.239,43.979c3.25-0.735,6.57-0.114,9.825-0.65
			c1.373-0.227,2.516,0.172,2.518,1.806c0.005,2.915-0.224,5.812-1.587,8.48c-0.404,0.787-0.816,1.635-1.821,1.735
			c-3.001,0.298-3.556,1.261-3.793-2.636c2.602,0.333,2.981,0.083,3.65-2.47c0.152-0.585,0.262-1.187,0.336-1.788
			c0.445-3.665,1.033-4.146-3.266-2.891c-1.1,0.32-1.317,0.773-1.371,1.791c-0.131,2.502,0.255,5.176-2.091,7.309
			c-0.458-2.779,0.028-5.447-0.238-8.067c-1.964-0.156-2.622,0.724-2.164,2.536c0.049,0.195,0.055,0.402,0.089,0.601
			c0.174,0.994,0.043,2.327-0.866,2.392c-1.128,0.08-1.014-1.31-1.066-2.211c-0.046-0.799-0.009-1.604-0.009-2.52
			c-0.703,0.156-1.235,0.24-1.746,0.392c-2.153,0.649-2.341,0.996-1.543,3.159c0.457,1.234,1.033,2.953-0.251,3.41
			c-1.37,0.489-1.612-1.432-2.009-2.484c-0.758-2.004-0.647-4.128-0.512-6.221c0.065-1.004,0.562-1.652,1.537-0.748
			c1.467,1.368,2.705,0.285,3.578-0.547c1.186-1.132,2.062-2.625,2.679-4.24c-0.958-0.387-1.694,0.046-2.466,0.203
			c-1.432,0.291-2.233-0.541-2.491-1.752c-0.307-1.43,1.05-1.193,1.772-1.301c3.339-0.49,6.695-0.878,10.046-1.274
			c1.315-0.157,2.163,0.635,2.332,1.768c0.222,1.493-1.115,1.186-1.981,1.278c-0.873,0.096-1.764,0.038-2.632,0.161
			c-0.936,0.133-2.134-0.287-1.887,1.68C70.976,42.183,69.208,42.859,68.239,43.979z"/>
		<path style="fill-rule:evenodd;clip-rule:evenodd;" d="M115.547,45.08c-1.243,0.391-2.278,0.549-3.145,1.021
			c-1.459,0.794-1.895,0.108-2.233-1.161c-0.463-1.742-0.349-3.502-0.228-5.248c0.051-0.702,0.452-1.612,1.356-1.488
			c1.041,0.142,1.084,1.04,0.89,1.912c-0.029,0.133-0.09,0.269-0.081,0.397c0.062,0.927-1.099,2.283,0.404,2.687
			c1.83,0.489,3.282-0.829,3.376-2.592c0.066-1.213,0.088-2.435,0.266-3.634c0.121-0.819,0.223-2.062,1.449-1.718
			c0.977,0.275,1.988,0.983,1.737,2.371c-0.157,0.864-0.425,1.715-0.481,2.584c-0.031,0.461-0.46,1.594,0.52,1.289
			c1.008-0.316,2.167,1.354,2.926-0.309c0.28-0.611,0.546-1.228,0.824-1.84c0.279-0.61,0.531-1.445,1.365-1.204
			c0.891,0.257,1.389,1.1,1.506,1.993c0.121,0.924-2.228,4.172-3.169,4.457c-0.705,0.214-1.333,0.54-2.14-0.224
			c-0.921-0.872-2.23-0.096-2.262,1.202c-0.035,1.421,0.15,2.865-0.045,4.262c-0.301,2.148,0.526,2.519,2.521,2.39
			c1.631-0.106,1.755-0.763,1.49-1.978c-0.125-0.57-0.568-1.186,0.201-1.595c0.735-0.388,1.444-0.2,2.08,0.29
			c1.916,1.476,1.498,6.246-0.653,7.428c-0.338,0.185-0.396,0.785-1.024,0.57c-0.023-0.021-0.205-0.12-0.199-0.2
			c0.186-2.345-1.121-2.35-2.849-1.913c-2.727,0.687-5.601,0.682-8.196,2.013c-1.376,0.704-2.8-0.345-2.67-1.9
			c0.125-1.536,0.51-3.055,0.814-4.575c0.134-0.66,0.34-1.509,1.201-1.274c0.824,0.227,1.563,0.769,1.458,1.896
			c-0.228,2.462-0.171,2.468,2.037,1.913c0.748-0.188,0.978-0.523,0.964-1.252C115.524,49.555,115.547,47.461,115.547,45.08z"/>
		<path style="fill-rule:evenodd;clip-rule:evenodd;fill:#010101;" d="M204.589,47.252c0.972-0.496,1.606-0.881,2.288-1.146
			c0.446-0.176,0.901-0.829,1.434-0.238c0.514,0.568,0.157,1.175-0.165,1.676c-0.934,1.441-2.308,2.45-3.601,3.538
			c-1.485,1.255-2.946,2.37-5.091,1.38c-0.902-0.417-1.915-0.468-2.806,0.372c-0.486,0.46-1.151,0.077-1.729-0.111
			c-2.774-0.907-4.972-2.668-6.998-4.694c-3.189-3.189-3.195-3.185-6.273,0.064c-2.787,2.94-2.787,2.94-5.602,4.145
			c-0.23-1.156,0.48-1.952,1.062-2.709c2.758-3.587,5.564-7.139,8.385-10.682c0.432-0.542,0.966-1.395,1.784-0.57
			c0.643,0.648,1.386,1.435,0.719,2.486c-0.501,0.791-1.101,1.52-1.593,2.19c3.561,3.124,7.508,5.646,12.023,7.278
			c1.668,0.603,3.643-0.398,3.653-2.203c0.014-2.232-0.024-4.465-0.018-6.697c0.001-0.88-0.013-1.996,1.189-1.918
			c1.08,0.069,1.783,0.834,1.68,2.108C204.783,43.339,204.709,45.162,204.589,47.252z"/>
		<path style="fill-rule:evenodd;clip-rule:evenodd;fill:#010101;" d="M151.123,52.287c0.082,0.41,0.095,0.775,0.229,1.092
			c1.036,2.486,0.536,3.373-2.157,3.696c-1.75,0.208-3.648,0.571-4.843-1.149c-1.487-2.138-0.621-4.348,0.363-6.955
			c-3.5,2.311-4.775,6.315-8.492,8.424c0.824-2.256,1.819-3.929,3.06-5.457c0.594-0.735,1.13-1.244,0.306-2.324
			c-0.886-1.162-0.501-2.741-0.551-4.152c-0.091-2.57-0.142-5.143,0.454-7.671c0.215-0.914,0.207-1.647,1.797-1.199
			c1.541,0.437,3.421,0.506,5.1-0.376c1.373-0.719,1.907,0.406,1.963,1.416c0.167,3.035,0.178,6.08,0.203,9.121
			c0.011,1.06-0.352,2.057-1.309,2.605c-1.867,1.072-1.668,2.858-1.693,4.566c-0.018,1.108,0.88,1.376,1.683,1.311
			c1.129-0.094,2.531,0.293,3.158-1.199C150.618,53.498,150.358,52.786,151.123,52.287z"/>
		<path style="fill-rule:evenodd;clip-rule:evenodd;fill:#010101;" d="M354.408,43.068c1.361,0.17,1.578,1.381,2.278,2.213
			c0.472,0.562,1.733-0.996,2.884-0.601c0.73,0.253,1.41,0.541,1.451,1.464c0.039,0.854-0.598,1.17-1.225,1.416
			c-1.001,0.393-2.016,0.781-3.059,1.031c-1.106,0.267-1.811,0.787-1.852,2.164c0.968-0.108,1.933-0.283,2.902-0.311
			c2.427-0.073,3.505,1.659,2.467,3.82c-0.329,0.686-0.968,1.236-0.689,2.202c0.313,1.091-0.368,1.529-1.417,1.72
			c-1.914,0.349-3.914,0.142-5.761,0.904c-0.467,0.191-0.796-0.107-1.034-0.429c-1.348-1.816-2.352-3.785-2.314-6.11
			c0.015-0.951,0.383-1.559,1.555-1.061c0.908,0.391,1.616,0.085,1.7-1.009c0.111-1.44-0.919-0.513-1.388-0.583
			c-1.353-0.202-1.94-1.086-2.31-2.246c-0.028-1.151,0.898-1.244,1.656-1.388c1.301-0.248,2.257-0.724,2.52-2.202
			C352.909,43.29,353.452,42.723,354.408,43.068z"/>
		<path style="fill-rule:evenodd;clip-rule:evenodd;fill:#010101;" d="M279.655,43.543c2.706-1.018,5.579-1.497,8.25-2.642
			c0.904-0.388,1.806-0.005,2.151,0.939c0.389,1.058-0.48,1.519-1.277,1.667c-1.588,0.292-2.006,1.252-2.011,2.711
			c-0.003,1.002,0.018,2.156-0.44,2.982c-1.061,1.91-0.05,2.82,1.357,3.714c1.535,0.976,3.068,1.958,4.579,2.974
			c0.311,0.21,0.703,0.553,0.549,0.976c-0.186,0.505-0.705,0.13-1.031,0.22c-3.052,0.853-5.109-0.82-7.074-2.715
			c-0.52-0.498-0.867-0.366-1.381-0.012c-2.821,1.943-5.965,2.252-9.414,1.774c0.75-0.902,1.768-0.809,2.6-1.113
			c1.325-0.484,2.724-0.789,4.007-1.36c0.871-0.387,2.099-0.863,2.018-1.97c-0.082-1.121-0.81-2.111-2.098-2.471
			c-0.752-0.211-1.464-0.697-1.145-1.592c0.299-0.834,1.029-0.986,1.835-0.523c0.288,0.168,0.634,0.245,0.911,0.429
			c0.613,0.399,1.199,0.842,1.837,1.296c0.458-0.538,0.484-1.199,0.584-1.832c0.217-1.356,0.181-2.259-1.68-1.53
			c-1.733,0.681-2.634-0.392-3.063-1.975L279.655,43.543z"/>
		<path style="fill-rule:evenodd;clip-rule:evenodd;fill:#010101;" d="M279.719,43.489c-0.965,0.735-1.453,1.921-1.544,2.921
			c-0.086,0.947-0.62,1.182-1.087,1.654c-0.443,0.362-0.946,0.667-1.221,1.286c0.72-0.208,0.641-1.038,1.168-1.327
			c1.043,0.162,1.673,0.754,1.997,1.765c0.258,0.794-0.028,1.633-0.651,1.682c-2.484,0.198-4.239,1.981-6.45,2.759
			c-1.083,0.383-1.908,0.438-2.367-0.621c-0.56-1.287,0.791-1.107,1.378-1.455c0.572-0.34,1.235-0.533,1.858-0.793
			c0.812-0.34,0.539-1.048,0.404-1.566c-0.198-0.765-0.827-0.335-1.128-0.116c-0.768,0.562-1.182,0.321-1.582-0.419
			c-1.225-2.252-1.291-4.665-0.938-7.1c0.135-0.924,0.68-1.282,1.77-0.852c1.35,0.534,2.242,0.108,2.362-1.61
			c0.06-0.864-0.469-2.433,0.785-2.524c1.549-0.112,1.538,1.413,1.438,2.58c-0.073,0.836,0.197,1.035,1.001,0.992
			c2.774-0.155,2.917,0.018,2.741,2.801L279.719,43.489z"/>
		<path style="fill-rule:evenodd;clip-rule:evenodd;fill:#010101;" d="M214.818,48.677c-2.133,2.962-4.583,4.924-8.406,5.129
			c2.102-2.06,4.321-3.624,5.858-5.85c0.539-0.781,1.403-1.444,0.402-2.576c-0.447-0.506-0.062-1.381,0.679-1.288
			c1.628,0.202,1.867-0.997,2.312-1.994c0.545-1.226,0.965-2.51,1.521-3.733c0.298-0.656,0.383-1.888,1.504-1.41
			c1.042,0.443,1.639,1.375,1.017,2.654c-0.853,1.752-1.599,3.562-2.509,5.284c-0.474,0.896-0.385,1.515,0.168,2.348
			c1.499,2.257,3.876,3.522,5.777,5.315c0.317,0.301,0.979,0.408,0.615,1.027c-0.23,0.395-0.714,0.39-1.09,0.165
			c-0.719-0.431-1.3-0.524-1.928,0.229c-0.531,0.639-1.102,0.129-1.596-0.213C217.331,52.515,215.877,50.947,214.818,48.677z"/>
		<path style="fill-rule:evenodd;clip-rule:evenodd;fill:#010101;" d="M348.316,47.656c-1.455,3.288-2.603,6.752-5.351,9.502
			c-0.526-1.042,0.022-1.872,0.298-2.702c1.888-5.694,4.494-11.103,6.621-16.704c0.204-0.538,0.419-0.947,1.029-1.109
			c1.897-0.502,3.798-0.961,5.782-0.807c1.191,0.092,2.045,0.758,2.488,1.81c0.438,1.039-0.657,1.487-1.035,2.222
			c-0.822,1.603-2.605,2.033-3.72,3.257C351.338,43.214,349.589,45.111,348.316,47.656z"/>
		<path style="fill-rule:evenodd;clip-rule:evenodd;fill:#010101;" d="M135.252,49.404c0.859-0.455,1.613-0.854,2.392-1.268
			c0.541,1.092,0.299,1.904-0.501,2.605c-1.568,1.37-3.095,2.792-4.711,4.104c-0.877,0.709-1.463-0.048-2.012-0.667
			c-0.557-0.63-0.847-1.255,0.009-1.861c0.66-0.466,1.3-0.986,2.019-1.335c1.033-0.502,0.6-1.381,0.678-2.127
			c0.094-0.863-0.6-0.673-1.09-0.791c-0.84-0.198-1.571-0.715-1.668-1.547c-0.09-0.747,0.754-1.019,1.324-1.353
			c1.932-1.134,1.93-1.995,0.018-3.259c-0.613-0.406-1.296-0.851-1.169-1.74c0.116-0.82,0.662-1.263,1.469-1.468
			c1.174-0.294,2.337-0.642,3.495-0.997c0.763-0.235,1.488-0.338,1.92,0.516c0.402,0.8,0.314,1.604-0.344,2.225
			c-0.483,0.455-1.057,0.826-1.623,1.181c-0.607,0.38-0.354,0.954-0.398,1.459c-0.045,0.496,0.277,0.534,0.648,0.448
			c0.759-0.18,1.416,0.012,1.619,0.785c0.207,0.787-0.262,1.456-0.856,1.92C135.469,47.017,134.578,47.795,135.252,49.404z"/>
		<path style="fill-rule:evenodd;clip-rule:evenodd;fill:#010101;" d="M253.105,57.482c1.055,0.119,1.445,0.18,1.836,0.205
			c1.251,0.078,1.463-0.805,1.445-1.725c-0.022-1.29-0.999-0.565-1.486-0.512c-0.855,0.093-1.685,0.436-2.531,0.652
			c-0.941,0.242-1.699-0.156-1.926-1.015c-0.279-1.057,0.803-0.841,1.344-1.055c1.462-0.579,3.139-0.433,4.658-1.188
			c-0.601-0.769-1.211-0.27-1.743-0.278c-0.621-0.011-1.142-0.203-1.245-0.79c-0.135-0.773,0.583-0.732,1.073-0.834
			c0.517-0.108,1.055-0.141,1.349-0.698c-0.85-0.667-2.738,0.948-2.752-0.922c-0.007-1.116,1.768-0.571,2.674-1.011
			c1.021-0.496,2.173-0.725,3.204-1.21c0.701-0.331,1.209-0.249,1.515,0.384c0.365,0.765-0.373,0.785-0.813,1.051
			c-0.566,0.343-1.553,0.188-1.611,1.196c0.379,0.45,0.771,0.171,1.134,0.083c0.634-0.15,1.089,0.045,1.231,0.683
			c0.131,0.589-0.364,0.767-0.771,1.031c-0.383,0.247-1.349-0.105-1.096,0.768c0.197,0.684,0.939,0.225,1.419,0.228
			c0.942,0.003,1.884-0.164,2.825-0.173c0.794-0.008,1.577,0.306,1.647,1.167c0.085,1.046-0.78,1.06-1.554,1.043
			c-0.475-0.01-0.947,0.004-1.418,0.001c-1.538-0.006-2.929-0.03-2.835,2.251c0.086,2.036-1.756,2.66-3.25,3.037
			C253.978,60.215,254.051,58.611,253.105,57.482z"/>
		<path style="fill-rule:evenodd;clip-rule:evenodd;fill:#010101;" d="M39.252,32.297c1.791-0.207,2.354-1.332,2.328-2.992
			c-0.037-1.986-0.055-3.975,0.041-5.958c0.041-0.877-0.479-2.254,0.996-2.395c1.558-0.148,2.477,1.033,2.754,2.362
			c0.215,1.029-0.104,2.178-0.252,3.265c-0.168,1.236,0.014,1.864,1.52,2.239c2.83,0.708,3.291,2.934,0.762,4.601
			c-2.946,1.946-1.662,3.08-0.003,4.87c2.45,2.641,5.657,4.177,8.43,6.33c0.592,0.459,1.577,0.77,1.2,1.709
			c-0.426,1.054-1.338,0.107-1.972,0.232c-6.047,1.195-8.759-3.009-11.56-7.234c-2.196,2.716-3.369,6.527-7.771,6.131
			c-0.489-1.305,0.359-2.131,1.062-3.01c2.105-2.216,3.357-4.548,1.509-7.616C37.713,33.86,37.663,32.662,39.252,32.297z"/>
		<path style="fill-rule:evenodd;clip-rule:evenodd;fill:#020202;" d="M175.945,44.896c-0.186,0.762-0.907,1.553-1.656,1.035
			c-3.441-2.376-7.058-1.041-10.566-0.599c-2.298,0.288-4.727,0.212-6.861,1.503c-0.791,0.478-1.708,0.07-2.473-0.446
			c-0.652-0.438-1.199-1.003-1.069-1.815c0.134-0.836,0.998-0.872,1.608-0.932c5.167-0.494,10.298-1.497,15.525-1.188
			c0.812,0.047,1.576,0.042,2.38-0.253C174.092,41.739,176.039,43.381,175.945,44.896z"/>
		<path style="fill-rule:evenodd;clip-rule:evenodd;fill:#010101;" d="M37.085,42.744c-0.454,0.903-0.906,1.809-1.359,2.713
			c-0.897,0.367-2.019,0.51-2.65,1.146c-2.151,2.162-3.191,1.002-4.059-1.116c-0.52-0.876-0.114-1.549,0.665-1.8
			c1.963-0.629,2.564-2.113,2.762-3.932c0.436-1.186,0.427-2.402,0.22-3.629c-0.025-0.555,0.104-1.104,0.104-1.649
			c0-0.812,0.433-2.038-1.012-1.912c-1.144,0.101-2.174,0.669-1.715,2.206c0.287,0.964,0.594,1.934-0.293,2.775
			c-1.379-0.222-2.757-0.435-4.135-0.667c-1.498-0.252-1.273-1.349-0.979-2.296c1.393-4.466,3.6-8.518,6.364-12.283
			c0.62-0.843,1.366-1.24,2.228-0.565c0.906,0.713,1.447,1.713,0.97,2.925c-0.507,1.288-1.093,2.549-1.988,4.614
			c2.517-1.713,4.376-2.219,5.662,0.268c0.356,2.344,0.254,4.725,0.741,7.074C39.06,38.802,38.482,40.922,37.085,42.744z"/>
		<path style="fill-rule:evenodd;clip-rule:evenodd;fill:#020202;" d="M253.51,40.156c2.24,0.146,2.863-0.988,2.468-3.022
			c-0.132-0.679-0.005-1.533,0.836-1.551c0.904-0.016,1.378,0.735,1.432,1.632c0.042,0.737-0.562,1.523,0.187,2.201
			c0.248,0.078,0.348,0.359,0.594,0.441c2.344-0.166,4.684,0.325,7.052-0.244c1.502-0.363,1.845,1.186,2.065,2.233
			c0.299,1.413-0.845,1.265-1.718,1.151c-0.976-0.132-1.937,0.519-3.079-0.021c0.578-0.535,1.076-0.997,1.876-1.738
			c-2.776-0.016-5.126-0.166-7.539,0.271c-2.086,0.377-4.247,0.335-6.339,0.844c-1.162,0.285-2.056,0.639-1.84,2.085
			c0.072,0.485-0.087,0.937-0.425,1.311c-0.308,0.343-0.528,0.948-1.021,0.876c-0.582-0.087-0.797-0.696-0.888-1.241
			c-0.23-1.37,0.229-2.686,0.365-4.026c0.036-0.368,0.258-0.719,0.641-0.604c1.586,0.479,3.004-0.616,4.547-0.436
			C252.951,40.099,253.214,40.043,253.51,40.156z"/>
		<path style="fill-rule:evenodd;clip-rule:evenodd;fill:#050505;" d="M230.832,47.335c0-3.246,0.045-6.495-0.025-9.741
			c-0.023-1.07,0.29-1.412,1.353-1.342c1.349,0.088,2.706,0.027,4.058,0.019c0.625-0.003,1.208-0.093,1.176,0.885
			c-0.025,0.806-0.459,0.797-1.04,0.83c-1.133,0.067-2.616-0.525-3.309,0.261c-0.814,0.918-0.267,2.457-0.275,3.721
			c-0.039,5.008-0.006,10.016-0.026,15.022c-0.003,0.719,0.385,1.687-1.04,1.662c-1.37-0.026-0.839-0.984-0.848-1.573
			C230.809,53.831,230.832,50.584,230.832,47.335z"/>
		<path style="fill-rule:evenodd;clip-rule:evenodd;fill:#040404;" d="M308.034,47.654c0,3.181-0.044,6.361,0.023,9.54
			c0.024,1.095-0.206,1.579-1.417,1.485c-1.411-0.107-2.838-0.035-4.261-0.021c-0.532,0.005-0.884-0.08-0.894-0.754
			c-0.013-0.681,0.192-0.934,0.908-0.959c1.191-0.041,2.913,0.58,3.443-0.301c0.603-1.002,0.219-2.612,0.222-3.959
			c0.012-4.938,0.005-9.879,0.005-14.818c0-0.8-0.197-1.658,1.141-1.586c1.355,0.075,0.795,1.047,0.804,1.629
			C308.061,41.158,308.034,44.406,308.034,47.654z"/>
		<path style="fill-rule:evenodd;clip-rule:evenodd;fill:#050505;" d="M254.802,43.007c1.3-0.199,2.653-0.313,3.952-0.645
			c0.757-0.192,1.263-0.201,1.739,0.466c0.467,0.653,0.252,1.14-0.026,1.833c-1.007,2.504-3.488,2.468-5.369,2.727
			c-1.375,0.19-1.756-1.88-1.917-3.297C253.034,42.826,253.617,42.478,254.802,43.007z"/>
		<path style="fill-rule:evenodd;clip-rule:evenodd;fill:#090909;" d="M86.274,56.634c1.019-0.623,2.029-1.166,2.144-2.465
			c-0.079-0.105-0.147-0.282-0.217-0.282c-1.206,0.016-2.223-0.292-2.224-1.718c-0.003-0.983,0.565-1.722,1.642-1.652
			c1.454,0.095,1.839,1.186,1.925,2.418C89.703,55.2,88.406,56.754,86.274,56.634z"/>
		<path style="fill-rule:evenodd;clip-rule:evenodd;fill:#090909;" d="M367.762,57.959c0.199-0.864,1.295-0.648,1.601-1.355
			c0.304-0.702,1.339-1.583-0.538-1.594c-0.87-0.008-1.303-0.681-1.395-1.481c-0.086-0.729,0.251-1.347,0.908-1.674
			c0.659-0.331,1.349-0.248,1.864,0.309c1.041,1.126,1.023,2.428,0.499,3.775C370.076,57.543,369.421,57.997,367.762,57.959z"/>
		<path style="fill-rule:evenodd;clip-rule:evenodd;fill:#F6F6F6;" d="M348.316,47.656c0.222-0.621,0.412-1.253,0.665-1.858
			c0.855-2.034,3.03-3.097,5.446-2.679c0.001,0.005-0.022-0.062-0.022-0.057c-0.981,0.008-1.312,0.715-1.23,1.464
			c0.171,1.544-0.693,1.841-1.935,2.119c-0.897,0.199-2.087-0.144-2.644,1.009l-0.138,0.004L348.316,47.656z"/>
		<path style="fill-rule:evenodd;clip-rule:evenodd;fill:#070707;" d="M56.074,54.16c-0.399,1.16-0.511,2.809-1.887,3.188
			c-1.1,0.304-1.317-1.204-1.823-1.99c-0.893-1.39-1.786-2.782-2.607-4.212c-0.291-0.508-0.994-1.118-0.257-1.721
			c0.387-0.314,1.008-0.488,1.519-0.479C52.886,48.988,56.091,52.298,56.074,54.16z"/>
		<path style="fill-rule:evenodd;clip-rule:evenodd;fill:#F4F4F4;" d="M29.748,37.547c-0.026-0.651,0.113-1.365-0.111-1.943
			c-0.976-2.55,0.24-4.278,3.016-4.357c1.029-0.029,1.035,0.538,1.058,1.178c0.052,1.298,0.122,2.611-0.695,3.754
			c-0.017,0.461-0.226,0.832-0.513,1.174c-0.742,0.701-1.449,1.504-2.648,1.109C29.82,38.156,29.783,37.849,29.748,37.547z"/>
		<path style="fill-rule:evenodd;clip-rule:evenodd;fill:#080808;" d="M208.552,39.4c0.007-0.744,0.028-1.648,0.886-1.768
			c0.799-0.11,0.921,0.798,1.145,1.411c0.045,0.124,0.064,0.259,0.094,0.39c0.171,0.805,0.92,1.582,0.227,2.429
			c-0.256,0.313-0.725,0.283-1.121,0.115C209.104,41.695,208.546,40.523,208.552,39.4z"/>
		<path style="fill-rule:evenodd;clip-rule:evenodd;fill:#0A0A0A;" d="M23.095,51.504c0.137-0.643-0.434-1.769,0.801-2.048
			c0.913-0.205,1.282,0.66,1.709,1.282c0.485,0.7,0.947,1.414,1.47,2.096c0.905,1.178,0.499,3.01-0.354,3.734
			c-1.302,1.101-1.985-0.654-2.655-1.512C23.304,54.089,23.041,52.89,23.095,51.504z"/>
		<path style="fill-rule:evenodd;clip-rule:evenodd;fill:#0B0B0B;" d="M284.075,36.621c0.709,0.021,2.453,1.805,2.423,2.598
			c-0.029,0.701-0.649,1.441-1.031,1.204c-1.039-0.653-2.098-1.476-2.245-2.887C283.17,37.037,283.266,36.564,284.075,36.621z"/>
		<path style="fill-rule:evenodd;clip-rule:evenodd;fill:#101010;" d="M29.854,38.461c0.846-0.566,1.69-1.133,2.536-1.697
			c0.247,0.221,0.41,0.492,0.497,0.809c-0.664,2.977-2.667,4.932-5.04,6.607c-0.826,0.652-1.637,1.244-2.437-0.056
			c-0.559-0.914-0.37-1.652,0.421-2.308C27.176,40.703,28.514,39.578,29.854,38.461z"/>
		<path style="fill-rule:evenodd;clip-rule:evenodd;fill:#070707;" d="M44.576,52.482c-0.208,1.061-0.428,2.589-1.521,2.169
			c-2.068-0.8-2.969-3.027-4.104-4.813c-0.442-0.693,0.456-1.481,1.355-1.257C42.43,49.111,44.072,50.254,44.576,52.482z"/>
		<path style="fill-rule:evenodd;clip-rule:evenodd;fill:#F2F2F2;" d="M37.085,42.744c1.009-4.356,0.51-8.801,0.785-13.201
			c0.932,0.682,0.123,2.234,1.382,2.754c-0.971,0.727-0.987,1.416-0.279,2.475C41.07,37.92,40.4,40.496,37.085,42.744z"/>
		<path style="fill-rule:evenodd;clip-rule:evenodd;fill:#F2F2F2;" d="M27.848,44.179c1.565-2.166,3.131-4.333,4.694-6.5
			c1.52,0.191,0.679,1.166,0.621,1.881c-0.305,2.359,0.184,5.35-3.81,4.838c-0.066-0.01-0.223,0.709-0.337,1.089
			C28.626,45.05,28.235,44.615,27.848,44.179z"/>
		<path style="fill-rule:evenodd;clip-rule:evenodd;fill:#0B0B0B;" d="M259.647,38.242c0.443-0.492,0.865-1.006,1.337-1.469
			c0.383-0.378,0.599-1.22,1.384-0.733c0.513,0.316,0.929,0.837,0.854,1.488c-0.09,0.769-0.71,0.811-1.35,0.849
			c-0.451,0.029-0.891,0.232-1.336,0.358C260.01,38.986,259.619,38.99,259.647,38.242z"/>
		<path style="fill-rule:evenodd;clip-rule:evenodd;fill:#0D0D0D;" d="M35.842,53.367c0.094,0.823-0.025,1.41-0.896,1.517
			c-1.359,0.16-3.501-2.718-3.476-4.626c0.009-0.725,0.101-1.311,1.015-1.279C33.518,49.013,35.814,52.087,35.842,53.367z"/>
		<path style="fill-rule:evenodd;clip-rule:evenodd;fill:#141414;" d="M52.364,25.256c-0.073,1.028-0.51,2.167-1.396,1.937
			c-1.602-0.416-2.514-1.991-3.222-3.362c-0.472-0.921,0.575-1.657,1.527-1.478C50.871,22.66,51.945,23.707,52.364,25.256z"/>
		<path style="fill-rule:evenodd;clip-rule:evenodd;fill:#0F0F0F;" d="M253.51,40.156c-0.262,0.055-0.523,0.109-0.787,0.161
			c-0.417-0.812-0.883-1.607-1.238-2.447c-0.197-0.47-0.391-1.109,0.338-1.35c0.508-0.167,0.809,0.199,1.118,0.608
			C253.646,38.062,253.765,39.063,253.51,40.156z"/>
		<path style="fill-rule:evenodd;clip-rule:evenodd;fill:#282828;" d="M259.647,38.242c0.157,0.414,0.544,0.416,0.89,0.493
			c-0.503,0.373-1.008,0.748-1.512,1.122c-0.199-0.146-0.396-0.294-0.594-0.441C258.838,39.024,259.242,38.633,259.647,38.242z"/>
		<path style="fill-rule:evenodd;clip-rule:evenodd;fill:#727272;" d="M329.596,39.58c-0.557,0.119-1.112,0.262-1.674,0.353
			c-0.242,0.038-0.582-0.013-0.498-0.353c0.045-0.179,0.359-0.289,0.551-0.43C328.354,39.902,329.111,39.222,329.596,39.58z"/>
		<path style="fill-rule:evenodd;clip-rule:evenodd;fill:#FDFDFD;" d="M330.954,56.935c-0.178-2.158-1.597-2.24-3.271-1.9
			c-0.729,0.148-1.47,0.247-2.21,0.318c-0.79,0.074-1.641,0.548-1.838-0.963c-0.189-1.454,0.608-1.495,1.548-1.694
			c1.253-0.271,2.49-0.611,3.74-0.893c0.761-0.171,1.37-0.527,0.977-1.366c-0.303-0.643-0.805-1.259-1.756-0.96
			c-1.094,0.344-2.195,0.67-3.317,0.891c-0.459,0.091-1.331,0.636-1.327-0.486c0.003-0.756-0.525-1.802,0.91-2.038
			c1.326-0.219,2.624-0.613,3.934-0.928c0.62-0.148,1.311-0.38,1.031-1.152c-0.246-0.68-0.773-1.323-1.689-1.107
			c-0.853,0.201-1.678,0.512-2.533,0.692c-0.549,0.114-1.432,0.732-1.556-0.303c-0.097-0.794-0.425-1.94,0.937-2.321
			c1.948-0.545,3.882-1.154,5.811-1.771c0.686-0.22,1.266-0.249,1.334,0.624c0.378,4.853,0.682,9.71-0.004,14.563
			C331.625,56.474,331.488,56.797,330.954,56.935z"/>
		<path style="fill-rule:evenodd;clip-rule:evenodd;fill:#F9F9F9;" d="M141.356,44.183c-0.185-0.773-0.563-1.523,0.63-1.754
			c0.932-0.18,2.526-0.045,2.205-1.367c-0.296-1.217-1.737-0.384-2.801-0.281c-0.209-0.746-0.217-1.742,0.383-1.936
			c1.186-0.383,2.356-1.127,3.683-0.854c0.474,0.098,0.378,0.679,0.385,1.054c0.051,2.435,0.099,4.871,0.081,7.306
			c-0.008,0.869-0.18,1.562-1.428,0.993c-0.502-0.228-1.291,0.197-1.954,0.306c-0.517,0.084-1.093,0.314-1.267-0.518
			c-0.142-0.69-0.059-1.209,0.758-1.347c0.399-0.067,0.822-0.091,1.191-0.245c0.585-0.242,1.545-0.376,1.275-1.247
			c-0.221-0.725-1.064-0.707-1.763-0.521C142.285,43.892,141.84,44.039,141.356,44.183z"/>
		<path style="fill-rule:evenodd;clip-rule:evenodd;fill:#F4F4F4;" d="M357.225,52.701c-0.49,2.127-1.174,3.595-3.496,3.607
			c-0.812,0.005-1.191-0.076-1.435-0.885c-0.262-0.869,0.084-1.225,0.829-1.449C354.394,53.588,355.662,53.187,357.225,52.701z"/>
		<path style="fill-rule:evenodd;clip-rule:evenodd;fill:#F2F2F2;" d="M273.474,43.292c0,1.155,0,2.154,0,3.155
			c0,0.461-0.197,0.745-0.68,0.83c-0.302,0.053-0.478-0.055-0.655-0.296C271.347,45.904,272.01,43.812,273.474,43.292z"/>
		<path style="fill-rule:evenodd;clip-rule:evenodd;fill:#E3E3E3;" d="M275.407,46.17c0.062-1.062,0.09-2.13,0.194-3.189
			c0.067-0.676,0.652-0.907,1.176-0.781c0.488,0.118,0.306,0.637,0.191,1.019C276.652,44.272,276.423,45.367,275.407,46.17z"/>
		<path style="fill-rule:evenodd;clip-rule:evenodd;fill:#E7E7E7;" d="M277.035,48.023c0.104,1.299-0.132,2.343-1.778,2.344
			c-0.638-1.74,0.43-2.152,1.833-2.301L277.035,48.023z"/>
		<path style="fill-rule:evenodd;clip-rule:evenodd;fill:#F0F0F0;" d="M351.117,41.093c0.886-2.445,1.258-2.696,5.112-3.605
			C355.594,39.586,355.594,39.586,351.117,41.093z"/>
		<path style="fill-rule:evenodd;clip-rule:evenodd;fill:#6C6C6C;" d="M33.163,39.56c-0.298-0.597,0.136-1.436-0.621-1.881
			c-0.051-0.305-0.099-0.611-0.151-0.916c0.015-0.402,0.218-0.6,0.624-0.586C34.311,37.25,33.766,38.404,33.163,39.56z"/>
		<path style="fill-rule:evenodd;clip-rule:evenodd;fill:#EDEDED;" d="M258.431,44.059c-0.167,0.325-0.24,0.511-0.351,0.673
			c-0.537,0.812-1.355,1.003-2.246,0.899c-0.148-0.016-0.404-0.44-0.357-0.604c0.284-1.025,1.325-0.61,1.983-0.95
			C257.665,43.969,257.972,44.059,258.431,44.059z"/>
	</g>
</g>
</svg>
