<?xml version="1.0" encoding="utf-8"?>
<!-- Generator: Adobe Illustrator 18.0.0, SVG Export Plug-In . SVG Version: 6.00 Build 0)  -->
<!DOCTYPE svg PUBLIC "-//W3C//DTD SVG 1.1//EN" "http://www.w3.org/Graphics/SVG/1.1/DTD/svg11.dtd">
<svg version="1.1" id="圖層_1" xmlns="http://www.w3.org/2000/svg" xmlns:xlink="http://www.w3.org/1999/xlink" x="0px" y="0px"
	 viewBox="0 0 1366 768" style="enable-background:new 0 0 1366 768;" xml:space="preserve">
<polygon style="opacity:0.3;fill-rule:evenodd;clip-rule:evenodd;fill:#CECCCC;" points="-489.934,476.703 -290.65,342 
	-228.062,342 -170.112,311.966 -126.549,341.545 -87.338,388.749 -20.115,457.816 38.434,506.955 -404.471,538 -515.5,538 "/>
<polygon style="opacity:0.8;fill-rule:evenodd;clip-rule:evenodd;fill:#808080;" points="989.588,657.045 1138.888,219 
	1185.777,219 1229.193,121.045 1261.83,217.32 1291.207,371.033 1341.569,595.979 1385.434,755.455 1053.615,856 970.434,856 "/>
<polygon style="opacity:0.4;fill-rule:evenodd;clip-rule:evenodd;fill:#CECCCC;" points="1319.928,508.906 1288.813,192 
	1277.334,203.673 1269.994,121.42 1263.192,191.119 1257.07,302.279 1246.575,464.894 1237.434,580.244 1306.584,653 1323.919,653 
	"/>
<polygon style="opacity:0.4;fill-rule:evenodd;clip-rule:evenodd;fill:#CECCCC;" points="1242.928,462.906 1211.813,146 
	1202.041,146 1192.994,75.42 1186.192,145.119 1180.07,256.279 1169.575,418.894 1160.434,534.244 1229.584,607 1246.919,607 "/>
<polygon style="opacity:0.4;fill-rule:evenodd;clip-rule:evenodd;fill:#CECCCC;" points="1256.721,462.906 1200.604,146 
	1187.218,134.608 1166.663,75.42 1154.396,145.119 1143.354,256.279 1124.427,418.894 1107.939,534.244 1232.655,607 1263.919,607 
	"/>
<polygon style="opacity:0.4;fill-rule:evenodd;clip-rule:evenodd;fill:#CECCCC;" points="1125.022,459.906 1086.852,143 
	1070.667,161.67 1063.764,72.42 1055.419,142.119 1047.908,253.279 1035.033,415.894 1023.818,531.244 1108.652,604 1129.919,604 
	"/>
<polygon style="opacity:0.4;fill-rule:evenodd;clip-rule:evenodd;fill:#CECCCC;" points="608.908,782.844 790.691,308.642 
	839.607,284.387 900.953,203.673 941.043,308.106 977.252,474.329 1039.254,717.315 1093.188,889.271 687.578,998.356 
	585.852,998.529 "/>
<polygon style="opacity:0.4;fill-rule:evenodd;clip-rule:evenodd;fill:#CECCCC;" points="482.066,615.703 681.35,481 743.938,481 
	801.888,450.966 845.451,480.545 884.662,527.749 951.885,596.816 1010.434,645.955 567.529,677 456.5,677 "/>
<polygon style="opacity:0.4;fill-rule:evenodd;clip-rule:evenodd;fill:#CECCCC;" points="982.663,518.176 1077.467,176 
	1107.939,161.444 1134.81,100.355 1155.533,175.747 1174.187,295.73 1206.166,471.14 1234.02,595.537 1023.319,674 970.5,674 "/>
<polygon style="opacity:0.7;fill-rule:evenodd;clip-rule:evenodd;fill:#CECCCC;" points="888.741,519.457 976.883,235 
	1003.434,209.05 1030.195,172.077 1049.463,234.73 1066.807,334.464 1096.538,480.279 1122.434,583.732 926.541,649 877.434,649 "/>
<polygon style="opacity:0.5;fill-rule:evenodd;clip-rule:evenodd;fill:#CECCCC;" points="425.525,578.703 581.612,444 630.635,444 
	676.023,413.966 710.144,443.545 740.857,490.749 793.51,559.816 839.367,608.955 492.464,640 405.5,640 "/>
<polygon style="opacity:0.6;fill-rule:evenodd;clip-rule:evenodd;fill:#999999;" points="231.066,573.35 430.35,383 492.938,383 
	550.888,340.82 594.451,382.73 633.662,449.476 700.885,547.076 759.434,616.318 316.529,660 205.5,660 "/>
<polygon style="fill-rule:evenodd;clip-rule:evenodd;fill:#E6E6E6;" points="-27,464.671 115.553,448.078 252.333,477.012 
	423.414,536 524.234,536 638.104,560 765.479,560 869.856,574.541 924.29,541.288 1024.546,550.043 1070.53,604.046 
	1121.813,649.049 1196.296,673.524 1274.615,692 1362.46,692 1370.637,692 1371.149,771 -27,771 -27,502.034 "/>
</svg>
