<?xml version="1.0" encoding="utf-8"?>
<!-- Generator: Adobe Illustrator 16.0.0, SVG Export Plug-In . SVG Version: 6.00 Build 0)  -->
<!DOCTYPE svg PUBLIC "-//W3C//DTD SVG 1.1//EN" "http://www.w3.org/Graphics/SVG/1.1/DTD/svg11.dtd">
<svg version="1.1" id="圖層_1" xmlns="http://www.w3.org/2000/svg" xmlns:xlink="http://www.w3.org/1999/xlink" x="0px" y="0px"
	 width="1336px" height="768px" viewBox="0 0 1336 768" style="enable-background:new 0 0 1336 768;" xml:space="preserve">
<path style="fill:#CEEAE1;" d="M1291.509,1248.921c-6.337-15.002-31.684-102.01-31.684-102.01l-19.011-156.016l-47.525-240.024
	L1069.724,631l-87.038-117.384c0,0-96.725-74.776-106.125-78.2c-9.399-3.424-158.381-10-158.381-10l-119.802-244.6L172.188-68H54
	v1467h933v906h350v-906h17.947C1354.947,1399,1297.845,1263.923,1291.509,1248.921z"/>
<path style="opacity:0.7;fill:#E8EAE8;" d="M516.505,317.816l113.448,244.6c0,0,141.08,6.576,149.981,10s100.496,78.2,100.496,78.2
	L962.852,768l117.012,119.871l45.005,240.024l18.002,156.016c0,0,24.003,87.008,30.003,102.01s6.865,234.345,6.865,234.345L1,1536V0
	L516.505,317.816z"/>
<path style="fill:#CCD2CC;" d="M266.967,0l81.19,126.726l25.417,125.025c0,0,43.209,143.836,48.292,155.954
	c5.083,12.118,48.292,111.29,61.001,130.711c12.709,19.421,112.221,99.969,119.653,112.2C609.953,662.848,709.893,768,709.893,768
	s116.106,65.864,118.648,74.865c2.54,9.001,55.916,171.018,61,183.019c5.083,12.001,83.877,234.023,83.877,234.023
	s-10.167,66.006,0,90.009c10.166,24.003,55.96,165.017,55.96,165.017l2.632,21.067H1V0H266.967z"/>
<g>
	<g>
		<path style="fill:none;stroke:#000000;stroke-miterlimit:10;" d="M54.299,101.865"/>
	</g>
</g>
</svg>
