<?xml version="1.0" encoding="utf-8"?>
<!-- Generator: Adobe Illustrator 16.0.0, SVG Export Plug-In . SVG Version: 6.00 Build 0)  -->
<!DOCTYPE svg PUBLIC "-//W3C//DTD SVG 1.1//EN" "http://www.w3.org/Graphics/SVG/1.1/DTD/svg11.dtd">
<svg version="1.1" id="圖層_1" xmlns="http://www.w3.org/2000/svg" xmlns:xlink="http://www.w3.org/1999/xlink" x="0px" y="0px"
	 width="1336px" height="768px" viewBox="0 0 1336 768" style="enable-background:new 0 0 1336 768;" xml:space="preserve">
<polygon style="opacity:0.7;fill-rule:evenodd;clip-rule:evenodd;fill:#A3CCBE;" points="639.908,778.844 821.691,304.642 
	870.607,280.387 931.953,199.673 972.043,304.106 1008.252,470.329 1070.254,713.315 1124.188,885.271 718.578,994.355 
	616.852,994.529 "/>
<polygon style="fill:#E6E6E6;" points="-1335.375,491.045 -1264.688,460.232 -1181.594,396.688 -1091.547,417.201 -997.523,454.252 
	-776.274,482.005 -651.756,524.782 -561.914,503.238 -382.082,444.183 -264.082,424.999 -36.852,459.846 30,452.458 30,768 
	-1335.5,768 "/>
<polygon style="opacity:0.8;fill-rule:evenodd;clip-rule:evenodd;fill:#808080;" points="1020.588,653.045 1169.888,215 
	1216.777,215 1260.193,117.045 1292.83,213.32 1322.207,367.033 1372.569,591.979 1416.434,751.455 1084.615,852 1001.434,852 "/>
<polygon style="fill-rule:evenodd;clip-rule:evenodd;fill:#999999;" points="735.066,649.703 934.35,515 996.938,515 
	1054.888,484.966 1098.451,514.545 1137.662,561.749 1204.885,630.816 1263.434,679.955 820.529,711 709.5,711 "/>
<polygon style="opacity:0.8;fill-rule:evenodd;clip-rule:evenodd;fill:#FDF5DB;" points="1025.391,650.04 1161.59,371 1204.364,371 
	1243.971,309.013 1273.743,370.412 1300.541,468.266 1346.484,611.385 1386.499,712.937 1083.801,777 1007.918,777 "/>
<polygon style="fill-rule:evenodd;clip-rule:evenodd;fill:#CECCCC;" points="538.066,716.703 737.35,582 799.938,582 
	857.888,551.966 901.451,581.545 940.662,628.749 1007.885,697.816 1066.434,746.955 623.529,778 512.5,778 "/>
<polygon style="opacity:0.4;fill-rule:evenodd;clip-rule:evenodd;fill:#CECCCC;" points="513.066,611.703 712.35,477 774.938,477 
	832.888,446.966 876.451,476.545 915.662,523.749 982.885,592.816 1041.434,641.955 598.529,673 487.5,673 "/>
<polygon style="opacity:0.8;fill-rule:evenodd;clip-rule:evenodd;fill:#CEEAE1;" points="1013.663,591.382 1108.467,185.978 
	1138.939,168.732 1165.81,96.355 1186.533,185.678 1205.187,327.832 1237.166,535.654 1265.02,683.038 1054.319,776 1001.5,776 "/>
<polygon style="opacity:0.9;fill-rule:evenodd;clip-rule:evenodd;fill:#FDF5DB;" points="919.741,515.457 1007.883,231 
	1034.434,205.05 1061.195,168.077 1080.463,230.73 1097.807,330.464 1127.538,476.279 1133.26,664.982 957.541,645 908.434,645 "/>
<polygon style="opacity:0.5;fill-rule:evenodd;clip-rule:evenodd;fill:#CECCCC;" points="167.066,628.703 366.35,494 428.938,494 
	486.888,463.966 530.451,493.545 569.662,540.749 636.885,609.816 695.434,658.955 252.529,690 141.5,690 "/>
<polygon style="fill-rule:evenodd;clip-rule:evenodd;fill:#CEEAE1;" points="456.525,574.703 612.612,440 661.635,440 
	707.023,409.966 741.145,439.545 771.857,486.749 824.51,555.816 870.367,604.955 523.464,636 436.5,636 "/>
<polygon style="opacity:0.6;fill-rule:evenodd;clip-rule:evenodd;fill:#999999;" points="262.066,569.35 461.35,379 523.938,379 
	581.888,336.82 625.451,378.73 664.662,445.476 731.885,543.076 790.434,612.318 347.529,656 236.5,656 "/>
<polygon style="fill-rule:evenodd;clip-rule:evenodd;fill:#CEEAE1;" points="543.073,613.716 620.25,481.209 669.5,451.638 
	724.871,505.102 759.356,587.75 797.5,652 597.5,652 514.25,638.857 "/>
<polygon style="fill-rule:evenodd;clip-rule:evenodd;fill:#E6E6E6;" points="4,460.671 143.225,444.078 276.811,473.012 
	443.896,532 542.361,532 653.573,556 777.974,556 879.913,570.541 933.076,537.288 1030.99,546.043 1075.9,600.046 
	1125.986,645.049 1198.73,669.524 1275.221,688 1361.014,688 1369,688 1369.5,767 4,767 4,498.034 "/>
</svg>
