<?xml version="1.0" encoding="utf-8"?>
<!-- Generator: Adobe Illustrator 16.0.0, SVG Export Plug-In . SVG Version: 6.00 Build 0)  -->
<!DOCTYPE svg PUBLIC "-//W3C//DTD SVG 1.1//EN" "http://www.w3.org/Graphics/SVG/1.1/DTD/svg11.dtd">
<svg version="1.1" id="圖層_1" xmlns="http://www.w3.org/2000/svg" xmlns:xlink="http://www.w3.org/1999/xlink" x="0px" y="0px"
	 width="1336px" height="768px" viewBox="0 0 1336 768" style="enable-background:new 0 0 1336 768;" xml:space="preserve">
<path style="fill:#CEEAE1;" d="M1291.509,480.921c-6.337-15.002-31.684-102.01-31.684-102.01l-19.011-156.016l-47.525-240.024
	L1069.724-137l-87.038-117.384c0,0-96.725-74.776-106.125-78.2c-9.399-3.424-158.381-10-158.381-10l-119.802-244.6L172.188-836H54
	V631h933v906h350V631h17.947C1354.947,631,1297.845,495.923,1291.509,480.921z"/>
<path style="opacity:0.7;fill:#E8EAE8;" d="M516.505-450.184l113.448,244.6c0,0,141.08,6.576,149.981,10s100.496,78.2,100.496,78.2
	L962.852,0l117.012,119.871l45.005,240.024l18.002,156.016c0,0,24.003,87.008,30.003,102.01s6.865,234.345,6.865,234.345L1,768V-768
	L516.505-450.184z"/>
<path style="fill:#CCD2CC;" d="M266.967-768l81.19,126.726l25.417,125.025c0,0,43.209,143.836,48.292,155.954
	c5.083,12.118,48.292,111.29,61.001,130.711c12.709,19.421,112.221,99.969,119.653,112.2C609.953-105.152,709.893,0,709.893,0
	s116.106,65.864,118.648,74.865c2.54,9.001,55.916,171.018,61,183.019c5.083,12.001,83.877,234.023,83.877,234.023
	s-10.167,66.006,0,90.009c10.166,24.003,55.96,165.017,55.96,165.017L1032.01,768H1V-768H266.967z"/>
<path style="fill:#CCD2CC;" d="M1165,1087.704l-33.318-15.188L1138,1052v-34.384l-30.111-14.444l1.723-21.795l-22.016-32.696
	l-4.017-58.388l-16.783-22.746l-13.889-36.423l-9.573-32.7L1032,763.002V762H0v768h716h316h96.086l-30.672-26.562l9.15-33.037
	l5.723-47.676L1123,1388v-39.928l8.043-32.221c0,0-12.975-36.344-15.48-44.438s5.506-23.405,6.021-27.352s9.882-20.633,9.882-20.633
	l7.603-48.917l25.933-12.568l-9.583-24.728L1165,1120V1087.704z"/>
</svg>
