<?xml version="1.0" encoding="utf-8"?>
<!-- Generator: Adobe Illustrator 16.0.0, SVG Export Plug-In . SVG Version: 6.00 Build 0)  -->
<!DOCTYPE svg PUBLIC "-//W3C//DTD SVG 1.1//EN" "http://www.w3.org/Graphics/SVG/1.1/DTD/svg11.dtd">
<svg version="1.1" id="圖層_1" xmlns="http://www.w3.org/2000/svg" xmlns:xlink="http://www.w3.org/1999/xlink" x="0px" y="0px"
	 width="1336px" height="768px" viewBox="0 0 1336 768" style="enable-background:new 0 0 1336 768;" xml:space="preserve">
<polygon style="fill:#E6E6E6;" points="0.375,491.045 -123.125,546.333 -183.062,578.771 -213.031,591 -271.666,768 0,768 "/>
<polygon style="fill-rule:evenodd;clip-rule:evenodd;fill:#CEEAE1;" points="608.187,486.468 821.369,408.625 909.234,354.5 
	1155.5,408.625 1228.858,438.123 1272.963,460.17 1272.098,674.635 156.738,675.5 223.896,617.56 305.38,601.994 369.516,577.779 
	503.55,501.231 "/>
<polygon style="opacity:0.6;fill-rule:evenodd;clip-rule:evenodd;fill:#FDF5DB;" points="877.066,472.703 1076.35,338 1138.938,338 
	1196.888,307.966 1240.451,337.545 1279.662,384.749 1346.885,453.816 1405.434,502.955 962.529,534 851.5,534 "/>
<polygon style="fill:#E6E6E6;" points="0.625,491.045 71.312,460.232 154.406,396.688 244.453,417.201 338.477,454.252 
	559.726,482.005 684.244,524.782 774.086,503.238 953.918,444.183 1071.918,424.999 1299.148,459.846 1366,452.458 1366,768 
	0.5,768 "/>
</svg>
