<?xml version="1.0" encoding="utf-8"?>
<!-- Generator: Adobe Illustrator 18.0.0, SVG Export Plug-In . SVG Version: 6.00 Build 0)  -->
<!DOCTYPE svg PUBLIC "-//W3C//DTD SVG 1.1//EN" "http://www.w3.org/Graphics/SVG/1.1/DTD/svg11.dtd">
<svg version="1.1" id="圖層_1" xmlns="http://www.w3.org/2000/svg" xmlns:xlink="http://www.w3.org/1999/xlink" x="0px" y="0px"
	 viewBox="0 0 558 329.4" enable-background="new 0 0 558 329.4" xml:space="preserve">
<g>
	<path fill="#010101" d="M383.3,264.5c-4.8-6.5-9.6-13-15.6-21c-7.5,13-14.3,24.9-25.7,33.1c-13.1,9.5-24.3,6.9-34.5-4.7
		c-3.5-3-0.9-7.5-2.7-10.9c5.9-12.2,20.1-14.1,28.7-24.2c12.5-14.9,25-28.9,30.5-48c1-3.4,1.4-9.1,6.4-8.8c4.1,0.3,6.1,4.5,6.2,8.9
		c9.5,8.1,3.5,19.1,5.6,28.6c0,3.3,0,6.7,0,10c3.3,5.9,7.6,11.1,10.6,17.1l0.2-0.2c3.8,1.6,7.3,3.7,10.4,6.5
		c30.1,13.9,61.6,21.7,94.9,20.7c7.9,4.3,15.9-0.1,23.8,0.2c7.1-4,15-2.9,22.7-4.2c-6.4,41.3-30.5,54.7-79.1,44.1
		c-19.9-4.3-38.3-12.5-55.5-23.4C399.1,282.7,388.8,276.2,383.3,264.5z"/>
</g>
<path fill="#050505" d="M292.5,92.3c2.8,8.5-5.1,10.7-8.5,15.5c-0.3,0.5-1,1.1-1.4,1c-4.6-1.3-13.4-16.1-11.9-20.9
	c1.5-4.7,6.4-5.8,10.4-6.7C290.3,79.2,293.1,84.4,292.5,92.3z"/>
<path fill="#FFFFFF" d="M242.7,152.8c-2.8,4.9-0.2,10.8-5.6,14.1c-2.1,1.3-4.5,2.2-6.4,1.2c-2.7-1.4-0.3-3.9-0.1-5.9
	C231.6,155.9,235.2,152.8,242.7,152.8z"/>
<path d="M330.7,176.4c-1.7,2.1-14.3-2.1-20.3-4.1c-16.5-5.5-16.6-5.2-11-21.4c1.8-6.3-3.1-12.7,0.3-19c12.1-5.2,24.3-10.2,34.5-18.7
	c6.7-5.6,12.8-11.5,7.6-22.2c-5.3,6.4-13.8,5.6-20.8,9.7c-17.8,10.5-36.2,20.2-56.9,24c-3,0.6-4.9,1.4-6.3-2.9
	c-5.6-16-13.2-19-28.1-11.9c-2.4-0.6-4-2.3-5.7-3.9c-5.6-3.8-4.2,1-3.4,3.2c2.7,6.8,0.4,12.3-3.8,17.9c-3.4-4.9-6.9-9.5-13.6-6.3
	c2.4,9.7,4.8,19.3,7,29c0.8,3.3,1.4,7.1,5.4,6.8c6.4-0.4,4.7,3.2,4.2,6.6c-0.8,4.8-3.7,2.3-6.4,2.3c-5.1,0-8-4-12.7-6.9
	c6.7,18,22.4,25,37.3,16.9c4.9-2.7,8.3-8.2,15.1-6.5c4.7-1.6,3.3-5.6,3.2-8.8c-0.1-3.9-4.2-6.5-4.3-10.5c0.4-3.9,2.2-7.2,4.6-10.1
	c1.5-1.4,1.2-4.9,4.2-4.6c2.1,0.2,2.8,2.5,3.3,4.3c1.5,4.9,1.9,10.2,3.4,15.1c1.7,5.4-0.4,9.5-5.2,10.7c-6.3,1.6-7.2,5.5-7.1,10.7
	c0.4,2.1,2,3,3.5,4.1c4.7,8.9,11.6,8.4,18.1,3.1c4.1-3.4,6.2-2.2,9.5,0.6c7.4,6.3,15.8,10.9,25.1,14c7.6,2.5,15.2,2.2,22.9,1.4
	c10.6-1.1,8.8-11,14.3-18.8C339.6,185.2,337,175.5,330.7,176.4z M223.5,134.7c-0.7,4.3-0.2,8.9-2.6,13.9c-1-5.1-1.9-9.3-2.6-13.6
	c-0.4-2.2,0.5-3.9,2.9-3.7C223.1,131.4,223.8,132.9,223.5,134.7z M243.2,129.5c-1.8,1.5-1.8,3.9-2.5,5.8c-0.9,1.4-1.5,3.1-3.2,4
	c-4.1-4.6-1.9-10.1-1.5-15.1c0.2-2.6,3.2-5.5,6.4-3.7C246.1,122.6,245.3,126.2,243.2,129.5z M285.7,147c-1,2-3.5,4.9-4.9,4.7
	c-2.6-0.4-2.9-3.7-3.2-6.3c-3.5-4.5-6.5-8.8,2.6-9.8c3.1-0.3,6.3-0.5,9.9-0.8C290.9,139.9,287.5,143.3,285.7,147z"/>
<path fill="#010101" d="M136.6,118.8c4.9-2,8.1-2.1,7.6,4.9c-0.9,12.5-12.1,15.1-21.3,20.9c8.3,5.8,14.8,0.9,21.2-0.6
	c3.8-0.9,6.5-1.9,8.6,2.6c2.2,4.7-0.6,6.7-3.8,8.5c-5.4,3-11,5.8-16.1,10.2c22.3,3.4,41.4-10.4,62-12.1c6.2,20.9-10.3,23.1-23.4,28
	c-4.2,1.6-8.5,3.3-12.9,3.7c-15.1,1.5-26.2,6.2-30.8,23.3c-3.3,12.3-13.9,12.8-23.2,4.1c-3-2.8,0.1-3.7,0.5-5.2
	c1.6-5.1,3.6-10,5.8-15.9c-15.3-6-34.8-5.6-43.5-25.8c14.2,7.8,28.4,6.2,42.5,6c2.5,0,5.7,0.3,5.8-3.8c0.1-3.9-2.8-4.1-5.5-4.1
	c-6.1,0.1-11.4-1.3-15.7-7.2c1.9-0.4,3-0.8,4.1-0.9c6.2-1,17,1.8,16.4-6.4c-0.6-8.9-9.9-0.3-15.2-1.9c-3.4-1-7.2-0.6-10.4-1.8
	c-3.8-1.4-7.3-4.1-6.6-8.9c0.7-4.8,5.2-4.5,8.5-5c13.6-2.3,28-1.1,40.5-8.6c1.8-1.1,3.3-2.8,4.9-4.3L136.6,118.8z"/>
<path fill="#090909" d="M60.6,61.9c6.4,5.3,15.5,3.8,15.1,13.3c-0.5,10.8-2.3,21.4-9.1,30.3c-1.9,2.5-5.7,2.1-8.7,0.4
	c-3.8-2.1-4.1-4.8-2.6-8.9C59.1,86.5,61.3,75.7,60.6,61.9z"/>
<path fill="#070707" d="M115.6,38.1c0.7,7.2-2.4,12.7-7.9,17.1c-3.3,2.2-5.5,6.7-10.6,5.2c-4.2-4.6-12.2-5.6-13.4-12.6
	c-0.8-4.3,0.3-8.9,0.6-13.4c7.1,4.2,15.2-4.7,22.2,1.8C109,38.7,111.3,43.7,115.6,38.1z"/>
<path fill="#010101" d="M192,41.4c-4.8,3.5-11.1-0.3-16.7,4.7c-4.4,4-9-0.5-7.9-7.3C175.5,41,184.4,35.1,192,41.4z"/>
<path fill="#010101" d="M192,41.4c-7.9-3.6-17.2,5.9-24.6-2.6c8.2-7.4,4.4-14-2-19.6c-7.7-6.7-9.6,3.1-13.5,5.8
	c-5.2,3.7-9.4,8.8-14.7,14c-7.4-25.3-7.4-25.3-25.7-23c3.1,7.1,4.9,14.4,4.1,22.1c-2.1,5.9-7.1,10-9.4,15.8
	c-0.2,0.3-0.4,0.6-0.6,0.8c0.6,0,1.3,0.1,2.1,0.5c0.4,6.9-5.3,5.1-8.9,6.3c-0.6,0.4-1.1,0.8-1.7,1.1c-3.3,2.3-6.9,4.3-9.7,7
	c-3.3,3.1-10.8,5-8.1,10.4c2.5,4.9,8.7,1.6,13.4,0.5c24.9-5.5,49.8-10.9,74.8-16.1C174,63,181,61.3,185.4,69
	c-1.1,5.1-5,8.7-6.9,13.4c-8.8,9.3-6.9,18.8-1.7,29.2c2.2,4.4,3.9,4.5,7.9,3.4c16-4.2,34-26.1,35.3-43.4
	C221.2,56.8,214.9,50,192,41.4z"/>
<path fill="#030303" d="M142.4,83.1c-5-5.9-37.6-1.7-39.3,5.7c-2,8.8-4.8,19.8,0.5,27.4c4.7,6.9,14.6,4,22.7,3
	c3.3-0.4,6.6-7.8,10.3-0.6c0,0,0,0.3,0,0.2c0.1-7.5,6.1-12.6,8.2-19.3C146.7,93.2,146.4,87.7,142.4,83.1z M118.2,104
	c-3-0.8-4.7-3.5-4.2-7c0.4-2.9,2.2-4.6,5.3-5.2c3.2,1.4,3.1,4.7,3.4,7.5C123,102.1,121.3,104.9,118.2,104z"/>
<path d="M151.1,221.5h-4v10.3h-2.6v-10.3h-4v-2.2h10.5V221.5z"/>
<path d="M162,226.5v5.4h-2.5v-5.4c0-1.5-0.7-2.2-2.1-2.2c-0.9,0-1.6,0.3-2.1,0.7v6.9h-2.5v-13.4h2.5v4.2c0.7-0.4,1.6-0.7,2.6-0.7
	C160.7,222,162,223.3,162,226.5z"/>
<path d="M166.1,227.7c0.3,1.3,1.3,2.2,2.8,2.2c1,0,2-0.5,2.5-1.2l1.6,1.3c-0.9,1.2-2.5,2-4.4,2c-2.9,0-4.9-2.2-4.9-5
	c0-2.8,2-5,4.9-5c3,0,4.7,2.1,4.7,5.2c0,0.2,0,0.4,0,0.6L166.1,227.7L166.1,227.7z M166.1,226.1h4.8c-0.1-1.1-0.7-2.2-2.3-2.2
	C167.3,224,166.3,224.9,166.1,226.1z"/>
<path d="M193.8,219.3v12.5h-2.6v-6.9l-3.9,5.4l-3.9-5.4v6.9h-2.5v-12.5h1.2l5.2,7.2l5.2-7.2H193.8z"/>
<path d="M206.2,227c0,2.8-2.4,5-5.3,5c-2.9,0-5.3-2.2-5.3-5c0-2.8,2.4-5,5.3-5C203.9,222,206.2,224.2,206.2,227z M203.8,227
	c0-1.5-1.3-2.8-2.8-2.8c-1.6,0-2.8,1.2-2.8,2.8c0,1.5,1.3,2.8,2.8,2.8C202.5,229.8,203.8,228.5,203.8,227z"/>
<path d="M208.4,229.2c1.2,0.5,2.1,0.8,3.3,0.8c1.1,0,1.6-0.4,1.6-0.9c0-0.6-0.6-0.8-2-1.1c-2.1-0.5-3.6-1.1-3.6-3
	c0-1.7,1.4-2.9,3.7-2.9c1.5,0,2.7,0.4,3.8,0.8l-0.8,1.8c-0.9-0.4-2-0.6-3-0.6c-0.9,0-1.4,0.3-1.4,0.9c0,0.5,0.6,0.8,2.1,1.1
	c2.2,0.5,3.5,1.2,3.5,3c0,1.8-1.4,3-3.9,3c-1.7,0-2.8-0.2-4.2-0.9L208.4,229.2z"/>
<path d="M227,222.2v12.8h-2.5v-3.7c-0.8,0.5-1.8,0.7-2.8,0.7c-2.7,0-4.9-2-4.9-5c0-3,2.2-5,4.9-5c1,0,2,0.3,2.8,0.7v-0.6L227,222.2
	L227,222.2z M222.1,229.8c0.9,0,1.8-0.3,2.4-0.8v-3.9c-0.6-0.5-1.4-0.8-2.4-0.8c-1.7,0-2.9,1.2-2.9,2.8
	C219.2,228.6,220.4,229.8,222.1,229.8z"/>
<path d="M238.3,222.2v9.6h-2.5v-0.6c-0.7,0.5-1.6,0.8-2.6,0.8c-2.8,0-4.1-1.3-4.1-4.4v-5.4h2.5v5.4c0,1.5,0.7,2.2,2.1,2.2
	c0.9,0,1.6-0.3,2.2-0.8v-6.8L238.3,222.2L238.3,222.2z"/>
<path d="M248.5,224.2v3.4c0,1.7,0.3,2.2,1.5,2.2c0.4,0,0.8-0.1,1.1-0.1v1.8c-0.1,0-0.9,0.4-2.2,0.4c-1.6,0-2.9-1-2.9-3v-4.7h-1.4v-2
	h1.4v-3.7h2.5v3.7h2.7v2H248.5z"/>
<path d="M262.6,227c0,2.8-2.4,5-5.3,5c-2.9,0-5.3-2.2-5.3-5c0-2.8,2.4-5,5.3-5C260.2,222,262.6,224.2,262.6,227z M260.1,227
	c0-1.5-1.3-2.8-2.8-2.8c-1.6,0-2.8,1.2-2.8,2.8c0,1.5,1.3,2.8,2.8,2.8C258.9,229.8,260.1,228.5,260.1,227z"/>
<path d="M283.1,219.3v12.5h-2.6v-6.9l-3.9,5.4l-3.9-5.4v6.9h-2.5v-12.5h1.2l5.2,7.2l5.2-7.2H283.1z"/>
<path d="M295.2,222.2v9.6h-2.5v-0.7c-0.8,0.5-1.8,0.9-2.8,0.9c-3,0-4.8-2.4-4.8-5c0-2.6,1.8-5,4.8-5c1,0,2,0.3,2.8,0.8v-0.6
	L295.2,222.2L295.2,222.2z M292.7,225.1c-0.6-0.5-1.5-0.8-2.4-0.8c-1.8,0-2.9,1.3-2.9,2.8c0,1.5,1.1,2.8,2.9,2.8
	c0.9,0,1.8-0.3,2.4-0.8V225.1z"/>
<path d="M306.6,226.5v5.4h-2.5v-5.4c0-1.5-0.7-2.2-2.1-2.2c-0.9,0-1.6,0.3-2.1,0.8v6.8h-2.5v-9.6h2.5v0.6c0.7-0.5,1.6-0.8,2.6-0.8
	C305.3,222,306.6,223.3,306.6,226.5z"/>
<path d="M240.8,219.1c0-0.9,0.7-1.6,1.6-1.6s1.5,0.7,1.5,1.6s-0.7,1.6-1.5,1.6S240.8,219.9,240.8,219.1z M241,221.8h2.7v10.5H241
	V221.8z"/>
</svg>
