<?xml version="1.0" encoding="utf-8"?>
<!-- Generator: Adobe Illustrator 16.0.0, SVG Export Plug-In . SVG Version: 6.00 Build 0)  -->
<!DOCTYPE svg PUBLIC "-//W3C//DTD SVG 1.1//EN" "http://www.w3.org/Graphics/SVG/1.1/DTD/svg11.dtd">
<svg version="1.1" id="圖層_1" xmlns="http://www.w3.org/2000/svg" xmlns:xlink="http://www.w3.org/1999/xlink" x="0px" y="0px"
	 width="533.123px" height="140.13px" viewBox="0 0 533.123 140.13" style="enable-background:new 0 0 533.123 140.13;"
	 xml:space="preserve">
<polygon style="fill-rule:evenodd;clip-rule:evenodd;fill:#FFFFFF;" points="16.123,24.092 7.501,41.99 12.705,70.317 34.56,83.913 
	63.122,64.879 75.342,39.414 49.796,18.029 16.123,18.029 "/>
<path style="fill-rule:evenodd;clip-rule:evenodd;" d="M135.448,85.953c0.945-0.273,1.657-0.889,2.585-0.313
	c0.593,0.368,1.096,0.703,1.129,1.442c0.03,0.67-0.383,1.056-0.936,1.334c-0.255,0.129-0.494,0.33-0.766,0.391
	c-2.069,0.466-2.56,1.787-1.997,3.779c0.454-0.098,0.925-0.281,1.394-0.281c0.904,0.002,1.527,0.531,1.654,1.404
	c0.116,0.803,0,1.779-1.016,1.838c-2.648,0.152-2.222,2.01-2.277,3.709c-0.036,1.029,0.415,1.199,1.293,1.143
	c1.008-0.066,2.033-0.105,3.032,0.014c1.26,0.146,2.276,0.912,2.243,2.207c-0.038,1.477-1.271,1.435-2.43,1.385
	c-3.325-0.143-6.655-0.233-9.946,0.431c-0.962,0.194-1.876,0.185-2.646-0.536c-0.552-0.516-0.939-1.177-0.77-1.909
	c0.16-0.683,0.904-0.577,1.46-0.682c0.498-0.093,0.983-0.244,1.482-0.315c3.282-0.465,3.284-0.461,3.132-3.805
	c-0.624-0.033-1.303,0.068-1.873-0.132c-0.851-0.298-1.473-0.964-1.49-1.94c-0.018-1.058,0.918-0.976,1.565-1.105
	c1.221-0.242,2.203-0.536,1.957-2.162c-0.105-0.697-0.2-1.047-0.986-0.99c-0.323,0.026-0.796-0.121-0.982-0.359
	c-1.676-2.158-3.112-0.64-4.638,0.214c-1.118,0.627-2.244,1.335-3.896,1.032c1.337-2.531,3.74-3.881,5.485-5.816
	c0.499-0.558,1.171,0.047,1.396,0.542c0.659,1.456,1.651,0.896,2.717,0.679c1.376-0.279,0.871-1.304,0.916-2.049
	c0.066-1.081-0.008-2.172-0.082-3.254c-0.041-0.6-0.125-1.139,0.505-1.514c0.71-0.424,1.287-0.072,1.774,0.334
	c0.989,0.832,1.624,1.847,1.191,3.236C135.439,84.521,135.242,85.147,135.448,85.953z"/>
<path style="fill-rule:evenodd;clip-rule:evenodd;fill:#010101;" d="M297.719,63.572c1.662,0.866,2.762,0.487,3.688-0.699
	c1.178-1.515,1.789-3.312,1.355-5.074c-0.263-1.068-1.219-0.308-1.656,0.363c-1.321,2.019-2.945,3.742-4.888,5.166
	c-0.434,0.318-0.897,0.599-1.788,1.187c1.754-3.599,4.465-5.998,6.028-9.628c-1.034,0.448-1.639,0.786-2.289,0.979
	c-1.288,0.381-2.133-0.338-2.578-1.406c-0.557-1.344,0.696-1.287,1.433-1.576c1.811-0.711,3.65-1.358,5.438-2.128
	c0.928-0.4,1.614-0.152,1.989,0.632c0.338,0.707,0.145,1.452-0.741,1.741c-1.067,0.352-0.647,1.077-0.675,1.859
	c-0.055,1.609,0.861,0.337,1.243,0.483c0.797,0.304,1.174,0.732,1.19,1.574c0.027,1.364,0.002,2.721-0.566,4.494
	c1.836-1.238,4.202-0.519,4.807-2.937c0.102-0.403,0.354-0.909-0.052-1.198c-0.197-0.142-0.772-0.047-0.968,0.149
	c-0.844,0.855-1.762,0.104-2.896,0.318c0.815-1.698,1.54-3.214,2.274-4.726c0.463-0.95,1.316-0.563,1.532-0.079
	c0.918,2.035,2.122,0.936,3.282,0.438c0.462-0.198,0.873-0.631,1.335-0.682c0.765-0.085,1.365,0.434,1.676,1.084
	c0.315,0.662-0.159,1.075-0.737,1.335c-0.594,0.266-1.17,0.679-1.787,0.751c-1.836,0.215-1.022,1.511-0.938,2.346
	c0.166,1.626,1.186,0.34,1.754,0.327c1.146-0.026,2.282-0.379,3.434-0.452c1.045-0.069,1.954,0.504,2.032,1.535
	c0.07,0.954-0.878,1.178-1.717,1.26c-0.864,0.084-1.728,0.175-2.588,0.293c-2.416,0.337-4.709,0.575-5.704,3.565
	c-0.545,1.637-2.332,2.682-4.019,3.82c0.136-2.062,1.695-3.361,2.148-5.267c-1.147,0.054-2.206-0.052-2.924-1.185
	c-0.972,2.181-2.655,3.42-4.737,4.243c-1.386,0.549-2.481,0.869-2.151-1.326C298.016,64.773,297.848,64.356,297.719,63.572z"/>
<path style="fill-rule:evenodd;clip-rule:evenodd;fill:#010101;" d="M96.757,50.695c1.387-2.331,3.56-3.42,4.975-5.229
	c0.256-0.326,0.742-0.351,0.975-0.085c1.794,2.056,3.845,0.712,5.704,0.316c1.339-0.284,2.367-0.208,2.871,1.001
	c0.615,1.481-0.639,1.88-1.713,2.115c-0.864,0.189-1.21,0.616-1.271,1.465c-0.092,1.255,0.893,0.558,1.351,0.763
	c0.706,0.315,1.312,0.649,1.333,1.51c0.022,0.885-0.541,1.358-1.32,1.454c-1.974,0.233-1.453,1.753-1.34,2.823
	c0.154,1.471,1.377,0.53,2.053,0.538c1.536,0.019,3.031-0.684,4.63,0.057c1.021,0.473,1.283,1.126,1.053,2.045
	c-0.242,0.955-0.97,1.145-1.859,0.863c-0.274-0.087-0.56-0.149-0.845-0.188c-4.444-0.604-5.101-0.146-5.134,4.217
	c-0.016,2.314-0.776,4.13-2.528,5.659c-0.679-2.446-0.52-4.931-0.406-7.366c0.082-1.787-0.642-1.909-1.984-1.566
	c-1.537,0.393-3.107,0.688-4.604,1.195c-1.567,0.528-2.782,0.344-3.225-1.373c-0.492-1.911,1.287-1.537,2.2-1.828
	c1.062-0.338,2.393-0.166,1.656-1.99c-0.105-0.262,0.233-0.881,0.536-1.087c0.437-0.294,0.755,0.206,1.05,0.497
	c0.895,0.882,1.568,1.924,3.228,1.552c1.088-0.244,1.169-0.694,1.236-1.555c0.083-1.057-0.408-1.188-1.276-1.097
	c-0.918,0.1-1.439-0.565-1.912-1.212c-0.661-0.906-0.664-1.602,0.662-1.797c0.573-0.085,1.137-0.214,1.708-0.3
	c1.328-0.205,1.104-1.233,0.886-2c-0.255-0.898-3.062-1.694-3.947-1.258c-1.162,0.573-2.321,1.155-3.496,1.701
	C97.759,50.649,97.45,50.614,96.757,50.695z"/>
<path style="fill-rule:evenodd;clip-rule:evenodd;fill:#010101;" d="M460.816,66.274c2.533,0.775,2.814-0.551,2.787-2.365
	c-0.073-5.07-0.043-10.142-0.113-15.214c-0.008-0.7,0.455-1.937-0.588-1.992c-1.074-0.056-2.379,0.414-2.944,1.49
	c-0.375,0.717-0.462,1.736-0.308,2.547c0.239,1.239,1.242,0.413,1.893,0.392c0.73-0.025,1.113,0.23,1.181,0.923
	c0.097,1-0.526,1.493-1.392,1.605c-1.604,0.211-2.545,0.799-2.549,2.676c-0.002,1.256,0.425,1.266,1.364,1.112
	c0.623-0.103,1.253-0.487,1.897-0.145c0.47,0.25,0.74,0.645,0.746,1.226c0.008,0.817-0.487,1.328-1.17,1.287
	c-3.649-0.222-4.25,2.505-5.147,5.075c-0.362,1.034-0.532,2.224-1.435,3.067c-0.869-0.657-0.351-1.365-0.219-2.014
	c1.248-6.085,2.714-12.137,2.646-18.416c-0.016-1.298,0.52-1.958,2.009-1.811c1.118,0.109,2.297,0.104,3.413-0.356
	c1.645-0.679,3.5,0.257,3.583,2.064c0.266,5.853,0.819,11.708,0.364,17.571c-0.127,1.644-2.4,3.892-3.916,4.143
	C462.029,69.288,461.924,69.156,460.816,66.274z"/>
<path style="fill-rule:evenodd;clip-rule:evenodd;fill:#010101;" d="M409.444,86.779c-0.035-2.242-0.014-4.487-0.125-6.726
	c-0.055-1.074-0.578-2.464,1.117-2.377c1.226,0.065,2.204,0.974,2.122,2.517c-0.08,1.512-0.055,3.031-0.136,4.545
	c-0.047,0.921,0.345,1.544,0.868,2.298c2.576,3.728,6.446,5.944,9.817,8.743c0.399,0.334,1.209,0.495,0.841,1.256
	c-0.379,0.784-1.003,0.054-1.483,0.118c-2.548,0.339-4.715-0.326-6.439-2.241c-1.108-1.232-2.14-2.536-3.551-4.22
	c0,2.21-0.044,4.075,0.011,5.938c0.065,2.207-0.766,3.824-2.602,5.131c-1.461,1.041-2.27,1.042-2.778-0.789
	c-0.13-0.471-0.422-0.896-0.739-1.543c2.83,0.471,3.111-1.194,3.08-3.225c-0.043-2.82,0.001-5.642,0.008-8.464
	C409.195,87.424,409.195,87.102,409.444,86.779z"/>
<path style="fill-rule:evenodd;clip-rule:evenodd;fill:#010101;" d="M369.657,63.272c-0.074-1.588,0.751-2.539,1.468-3.469
	c2.825-3.665,5.699-7.294,8.588-10.912c0.453-0.566,0.947-1.597,1.869-0.866c0.824,0.654,1.646,1.566,0.905,2.794
	c-0.484,0.8-1.089,1.522-1.687,2.347c3.592,2.954,7.299,5.855,11.907,7.305c0.409,0.128,0.886,0.281,1.144,0.584
	c0.576,0.677,2.19,0.521,1.877,1.729c-0.332,1.273-1.496,0.04-2.261,0.318c-5.177,1.894-8.062-1.86-11.188-4.732
	c-3.317-3.049-3.206-3.137-6.288-0.02c-1.112,1.125-1.913,2.57-3.364,3.354C371.705,62.201,370.774,62.684,369.657,63.272z"/>
<path style="fill-rule:evenodd;clip-rule:evenodd;fill:#010101;" d="M229.98,53.139c2.893-1.084,5.965-1.602,8.819-2.826
	c0.97-0.416,1.933-0.006,2.304,1.006c0.413,1.134-0.517,1.629-1.368,1.785c-1.698,0.313-2.144,1.344-2.149,2.903
	c-0.003,1.075,0.02,2.311-0.471,3.194c-1.135,2.047-0.051,3.021,1.45,3.979c1.642,1.046,3.28,2.098,4.896,3.186
	c0.332,0.225,0.755,0.593,0.586,1.044c-0.2,0.541-0.756,0.138-1.102,0.235c-3.264,0.913-5.465-0.881-7.564-2.908
	c-0.557-0.535-0.93-0.39-1.477-0.013c-3.018,2.081-6.379,2.412-10.064,1.898c0.801-0.964,1.892-0.863,2.782-1.19
	c1.415-0.52,2.911-0.846,4.282-1.458c0.931-0.414,2.245-0.924,2.158-2.109c-0.09-1.204-0.869-2.261-2.244-2.647
	c-0.807-0.226-1.566-0.746-1.224-1.704c0.321-0.894,1.104-1.054,1.964-0.559c0.309,0.179,0.68,0.264,0.976,0.46
	c0.654,0.429,1.279,0.9,1.96,1.387c0.491-0.578,0.518-1.287,0.627-1.965c0.232-1.459,0.185-2.415-1.798-1.636
	c-1.853,0.728-2.815-0.424-3.277-2.117L229.98,53.139z"/>
<path style="fill-rule:evenodd;clip-rule:evenodd;fill:#010101;" d="M486.003,96.309c-0.573,0.42-0.906,1.307-1.946,0.481
	c-0.838-0.663-1.685,0.307-2.506,0.579c-1.018,0.34-1.996,0.811-2.975,1.261c-0.682,0.312-1.232,0.202-1.755-0.329
	c-0.658-0.669-0.156-1.116,0.194-1.684c0.485-0.784,0.845-1.648,1.315-2.596c-0.325-0.039-0.524-0.125-0.679-0.074
	c-1.123,0.373-2.435,0.89-2.881-0.695c-0.475-1.676,1.279-1.287,2.011-1.486c1.672-0.463,2.395-0.943,2.146-3.023
	c-0.369-3.06-0.219-6.223,0.64-9.254c0.245-0.867,0.398-2.383,1.854-0.715c0.699,0.801,1.842,0.288,2.651,0.008
	c1.03-0.357,1.627,0.012,1.888,0.804c0.364,1.114-0.69,1.025-1.326,1.192c-0.695,0.182-1.404,0.324-2.115,0.416
	c-0.914,0.117-1.625,0.504-1.347,1.499c0.294,1.038,1.146,0.286,1.597,0.146c1.164-0.361,2.225-0.816,2.825,0.755
	c-0.476,1.569-2.038,1.41-3.265,2.077c0,0,0.053,0.073,0.27,0.049c1.177-0.137,2.737-0.828,3.137,0.832
	c0.371,1.529-1.312,1.599-2.314,2.039c-0.459,0.202-0.971,0.274-1.471,0.598c0.807,0.344,1.465-0.146,2.159-0.159
	c0.891-0.017,1.605,0.239,1.787,1.197c0.164,0.874-0.445,1.315-1.126,1.647c-0.658,0.321-1.422,0.195-2.086,0.495
	c-0.743,0.688-1.5,1.366-1.923,2.363c1.847,0.113,1.022-2.023,2.142-2.493C485.463,92.257,486.547,93.678,486.003,96.309z"/>
<path style="fill-rule:evenodd;clip-rule:evenodd;fill:#010101;" d="M378.869,82.064c-1.114,0.197-2.179,1.272-3.558,0.211
	c1.995-1.893,4.357-3.071,6.702-4.271c1.057-0.543,1.46,0.325,1.775,0.996c0.322,0.689,0.079,1.238-0.814,1.38
	c-0.67,0.107-1.617,0.153-1.215,1.264c0.274,0.756-0.834,1.954,0.979,2.296c1.413,0.266,1.39,1.477,0.512,2.52
	c-0.322,0.381-0.781,0.641-1.127,1.006c-1.162,1.219-0.928,2.613,0.576,3.301c0.71,0.327,1.256,0.697,1.197,1.582
	c-0.07,1.03-0.781,1.125-1.548,1.01c-0.95-0.145-1.078,0.341-1.059,1.118c0.035,1.52,0.03,3.042,0,4.562
	c-0.014,0.646-0.026,1.324-0.227,1.924c-0.199,0.592-0.575,1.373-1.315,1.2c-0.52-0.123-0.672-0.885-0.676-1.476
	c-0.013-2.37-0.006-4.744-0.006-7.441c-1.808,1.142-2.957,2.587-4.605,4.195c0.309-3.467,2.588-5.436,3.613-8.011
	c-0.189-0.593-0.705-0.209-1.053-0.295c-0.983-0.241-1.879-0.754-2.018-1.728c-0.15-1.056,0.923-1.447,1.716-1.644
	C378.758,85.264,379.61,84.192,378.869,82.064z"/>
<path style="fill-rule:evenodd;clip-rule:evenodd;fill:#010101;" d="M318.988,62.88c3.059-4.104,6.996-6.798,10.242-10.546
	c-0.945-0.398-1.73-0.86-2.577-1.055c-0.952-0.217-1.528-0.836-1.398-1.625c0.167-1.025,1.197-1.28,2.075-1.028
	c1.732,0.5,3.465,1.112,4.73,2.499c3.678,4.032,7.821,7.505,12.395,10.473c0.519,0.336,1.331,0.602,0.885,1.44
	c-0.377,0.71-1.043,0.037-1.532,0.12c-5.95,1.004-8.418-3.566-11.423-7.18c-1.029-1.237-1.686-1.512-2.978-0.333
	c-2.134,1.943-4.458,3.679-6.688,5.518C321.771,61.945,320.808,62.67,318.988,62.88z"/>
<path style="fill-rule:evenodd;clip-rule:evenodd;fill:#010101;" d="M150.562,96.109c1.657-0.421,3.31-0.854,4.973-1.252
	c0.847-0.203,1.795-0.257,1.833-1.438c0.021-0.638,0.181-1.114-0.592-1.772c-1.117-0.951-1.598-0.198-2.347,0.171
	c-0.187,0.091-0.41,0.108-0.739,0.188c-0.033-1.823,1.009-3.21,1.86-4.518c0.949-1.463,2.088-0.025,2.154,0.662
	c0.117,1.236,0.54,1.159,1.371,0.876c0.749-0.255,1.534-0.429,2.245-0.763c1.206-0.565,1.801,0.17,2.178,1.051
	c0.421,0.984-0.448,1.2-1.134,1.445c-0.473,0.17-1.029,0.225-1.415,0.512c-0.733,0.549-1.05,1.479-0.825,2.273
	c0.219,0.785,0.975,0.123,1.482,0.081c1.584-0.132,3.164-0.301,4.744-0.481c1.326-0.152,2.503,0.324,2.627,1.625
	c0.144,1.509-1.165,1.445-2.314,1.45c-1.295,0.003-2.589,0.217-3.884,0.313c-2.106,0.154-3.859,0.418-4.883,2.902
	c-0.995,2.418-3.504,3.564-5.868,4.559c1.05-2.227,3.262-3.555,4.006-6.128c-1.988-0.189-4.869,2.147-5.41-1.819L150.562,96.109z"/>
<path style="fill-rule:evenodd;clip-rule:evenodd;fill:#010101;" d="M252.013,83.422c-1.093,0.308-2.128,0.969-3.576,0.205
	c2.158-1.979,4.53-3.244,7.026-4.266c0.865-0.354,1.268,0.532,1.516,1.191c0.271,0.73-0.008,1.279-0.863,1.38
	c-0.77,0.089-1.48,0.205-1.194,1.288c0.183,0.691-0.472,1.591,1,1.867c1.435,0.269,1.36,1.475,0.492,2.507
	c-0.274,0.327-0.671,0.545-0.987,0.841c-1.037,0.968-1.555,1.836,0.387,2.357c0.782,0.209,1.57,0.594,1.398,1.618
	c-0.167,0.993-0.988,0.914-1.711,0.812c-1.041-0.149-0.984,0.519-0.979,1.196c0.007,1.595,0.018,3.187-0.007,4.778
	c-0.011,0.648-0.013,1.328-0.209,1.93c-0.192,0.586-0.502,1.407-1.217,1.335c-0.741-0.074-0.812-0.912-0.818-1.547
	c-0.027-2.315-0.012-4.632-0.012-7.206c-1.832,1.012-2.886,2.626-4.497,3.995c0.054-3.04,2.229-4.854,3.106-7.319
	c-0.433-0.16-0.9-0.266-1.299-0.494c-0.623-0.357-1.348-0.762-1.328-1.578c0.018-0.887,0.865-1.057,1.521-1.314
	C251.324,86.381,252.978,85.847,252.013,83.422z"/>
<path style="fill-rule:evenodd;clip-rule:evenodd;fill:#010101;" d="M435.766,52.559c1.316,0.547,1.32,1.56,0.91,2.679
	c-0.373,1.018-0.648,2.107-1.219,3.003c-1.287,2.012-0.299,2.964,1.379,3.982c2.234,1.356,4.665,2.282,6.943,3.522
	c0.604,0.328,1.576,0.699,1.42,1.438c-0.199,0.944-1.143,0.049-1.649,0.254c-4.437,1.806-7.085-1.445-10.078-3.593
	c-0.741-0.531-1.084-0.796-1.914-0.152c-2.421,1.879-5.323,2.49-8.294,2.846c-0.613,0.043-1.349,0.625-1.728-0.388
	c2.646-1.136,5.436-1.952,7.896-3.487c0.677-0.422,1.803-0.788,1.55-1.808c-0.219-0.879-0.967-1.609-1.934-1.909
	c-0.618-0.192-1.269-0.287-1.872-0.513c-0.668-0.253-1.478-0.53-1.273-1.473c0.217-0.993,1.018-1.147,1.875-0.919
	c1.394,0.367,2.864,0.701,3.884,1.773c1.152,1.207,1.481,0.406,1.826-0.572c0.501-1.414,0.979-2.838,1.467-4.257
	C435.128,52.658,435.31,52.347,435.766,52.559z"/>
<path style="fill-rule:evenodd;clip-rule:evenodd;fill:#020202;" d="M326.441,100.285c0.486-2.244,0.972-4.488,1.46-6.746
	c-0.657-0.083-0.731,0.34-0.886,0.616c-0.287,0.519-0.219,1.414-1.219,1.116c-0.794-0.234-0.758-0.999-0.872-1.6
	c-0.142-0.743,0.156-1.078,1.01-1.267c0.867-0.192,1.868-0.687,2.38-1.371c0.685-0.917,1.87-2.134,0.371-3.31
	c-0.832-0.651-1.944-1.238-1.149-2.316c0.717-0.967,1.65,0.23,2.642,0.466c0.806-2.774,0.773-6.404,5.134-5.592
	c0.458-0.72-0.085-0.908-0.304-1.231c-0.462-0.689-0.461-1.414,0.17-1.939c0.68-0.564,1.326,0.011,1.662,0.479
	c1.46,2.052,3.342,2.135,5.501,1.439c0.789-0.256,1.608-0.123,2.134,0.631c0.484,0.698,0.592,1.367-0.491,1.602
	c-1.915,0.409-3.91,0.24-5.675,1.61c-0.631,0.489-2.131-0.427-3.395-0.084c-1.293,0.35-1.936,0.95-2.301,2.172
	c-1.262,4.211-2.637,8.389-3.855,12.612c-0.39,1.359-1.004,2.528-1.85,3.616C326.072,101.24,326.279,100.752,326.441,100.285z"/>
<path style="fill-rule:evenodd;clip-rule:evenodd;fill:#020202;" d="M171.215,67.509c0.486-2.244,0.973-4.487,1.462-6.747
	c-0.66-0.084-0.733,0.342-0.887,0.617c-0.288,0.517-0.22,1.413-1.22,1.117c-0.793-0.236-0.758-1-0.871-1.602
	c-0.141-0.744,0.155-1.078,1.009-1.266c0.868-0.191,1.868-0.688,2.38-1.372c0.686-0.917,1.872-2.136,0.373-3.31
	c-0.834-0.651-1.947-1.238-1.149-2.315c0.714-0.968,1.649,0.229,2.64,0.466c0.809-2.773,0.772-6.405,5.135-5.592
	c0.459-0.721-0.086-0.908-0.304-1.232c-0.463-0.688-0.46-1.414,0.169-1.939c0.68-0.564,1.328,0.01,1.663,0.479
	c1.46,2.051,3.341,2.132,5.501,1.438c0.789-0.253,1.609-0.122,2.133,0.632c0.485,0.698,0.594,1.369-0.492,1.602
	c-1.914,0.41-3.907,0.24-5.672,1.609c-0.633,0.491-2.131-0.426-3.396-0.082c-1.292,0.35-1.935,0.949-2.301,2.171
	c-1.261,4.212-2.638,8.39-3.854,12.613c-0.391,1.358-1.005,2.526-1.852,3.614C170.846,68.464,171.055,67.975,171.215,67.509z"/>
<path style="fill-rule:evenodd;clip-rule:evenodd;fill:#020202;" d="M519.559,101.982c-1.998,0.19-3.729,0.09-5.28,0.571
	c-1.72,0.532-2.254-0.247-2.626-1.562c-0.244-0.864-0.347-1.614-1.647-1.214c-0.919,0.283-1.479-0.613-1.604-1.395
	c-0.151-0.94,0.855-0.976,1.371-0.985c1.404-0.032,1.599-0.787,1.584-1.941c-0.011-0.707,0.195-1.432,0.384-2.129
	c0.136-0.507,0.578-1.1,1.062-0.803c1.685,1.038,3.198,0.082,4.738-0.275c0.918-0.213,1.662-0.135,1.938,0.748
	c0.33,1.049-0.614,1.102-1.307,1.256c-1.267,0.281-2.527,0.607-3.805,0.803c-0.752,0.115-1.021,0.443-0.897,1.145
	c0.16,0.912,0.781,0.368,1.172,0.312c2.072-0.294,4.133-0.651,6.2-0.965c0.703-0.106,1.441-0.345,2.112,0.079
	c0.498,0.312,0.965,0.758,0.873,1.394c-0.088,0.62-0.678,0.646-1.188,0.718c-2.646,0.364-5.291,0.721-7.927,1.139
	c-0.438,0.068-1.354-0.258-1.141,0.785c0.164,0.812,0.86,0.651,1.409,0.604c1.366-0.122,2.725-0.35,4.093-0.432
	c1.117-0.069,2.756-0.368,2.818,1.161C521.971,102.951,520.138,101.705,519.559,101.982z"/>
<path style="fill-rule:evenodd;clip-rule:evenodd;fill:#020202;" d="M147.458,94.824c1.155-0.884,1.899-2.035,2.235-3.452
	c0.205-0.263,0.049-0.68,0.377-0.891c0.316-2.135,1.655-3.99,1.661-6.221c0.002-0.812,0.779-0.7,1.315-0.81
	c0.919-0.185,1.84-0.354,2.814-0.54c-0.05-0.835-2-1.311-0.682-2.374c0.965-0.778,2.072-0.157,2.651,0.66
	c0.97,1.366,2.142,1.352,3.538,1.073c0.697-0.138,1.461-0.198,2.146-0.059c0.734,0.15,1.312,0.752,1.296,1.544
	c-0.018,0.857-0.825,1.006-1.445,0.949c-2.686-0.246-5.11,1.271-7.801,1.067c-1.151-0.088-2.038,0.513-2.366,1.769
	c-0.758,2.895-2.467,5.496-2.639,8.57c0.002-0.002,0.059-0.06,0.061-0.063c-0.949,0.487-0.881,1.552-1.209,2.347
	c-0.848,2.053-1.546,4.162-3.607,6.311c0.844-3.376,1.547-6.208,2.254-9.038C147.867,95.381,147.117,95.492,147.458,94.824z"/>
<path style="fill-rule:evenodd;clip-rule:evenodd;fill:#020202;" d="M408.837,46.915c-1.321,0.808-2.742,1.477-4.028,2.96
	c1.017-0.154,1.721-0.294,2.432-0.358c0.664-0.062,1.379-0.033,1.575,0.78c0.197,0.807-0.425,1.088-1.024,1.426
	c-1.013,0.57-2.416,0.294-3.296,1.367c0.698,0.688,1.487,0.312,2.136,0.599c0.818,0.362,1.864,0.663,1.483,1.734
	c-0.452,1.273-1.523,0.675-2.36,0.315c-0.387-0.167-0.707-0.492-1.059-0.746c-0.423,0.83-0.057,2.33-1.459,2.32
	c-1.166-0.006-0.593-1.369-1.041-2.159c-1.753,1.713-3.1,3.735-5.529,5.153c0.716-2.609,2.292-4.342,3.732-6.387
	c-0.451,0-0.704,0.006-0.959-0.002c-0.769-0.023-1.723,0.209-1.862-0.943c-0.139-1.145,0.759-1.642,1.617-1.639
	c2.747,0.008,3.586-1.312,3.226-3.896c-0.135-0.965-0.376-2.559,1.072-2.634c1.828-0.093,1.402,1.598,1.469,2.928
	c0.856-0.303,1.041-1.144,1.567-1.618c0.475-0.429,0.915-1.049,1.651-0.792c0.796,0.278,0.67,1.007,0.591,1.666L408.837,46.915z"/>
<path style="fill-rule:evenodd;clip-rule:evenodd;fill:#010101;" d="M279.308,93.27c0.937-0.058,1.408-1.084,2.358-1.009
	c0.574,1.221-0.09,2.116-0.85,2.9c-1.206,1.244-2.555,2.355-3.721,3.635c-0.775,0.85-1.295,0.645-1.939-0.056
	c-0.657-0.713-1.427-1.424-0.443-2.376c0.564-0.545,1.305-0.903,1.917-1.406c1.123-0.927,0.847-2.357-0.494-2.963
	c-0.786-0.355-1.675-0.78-1.726-1.763c-0.046-0.836,0.828-1.119,1.414-1.496c2.073-1.337,2.119-2.685,0.102-4.196
	c-1.641-1.229-1.479-2.539,0.441-3.365c0.859-0.368,1.76-0.647,2.631-0.99c0.744-0.293,1.523-0.734,2.153,0.112
	c0.635,0.85,0.514,1.815-0.03,2.641c-0.346,0.527-0.967,0.864-1.382,1.354c-0.691,0.819-1.08,1.831,0.127,2.407
	c1.909,0.914,1.255,2.148,0.36,3.088C279.204,90.863,278.953,91.916,279.308,93.27z"/>
<path style="fill-rule:evenodd;clip-rule:evenodd;fill:#020202;" d="M387.741,87.709c-0.447,0.281-0.638,0.945-1.318,0.877
	c-1.069-0.251-2.812,1.41-3.114-0.438c-0.258-1.586,1.813-1.328,2.934-1.699c0.911-0.303,1.879-0.435,2.953-0.672
	c-0.504-1.013-1.147-0.573-1.621-0.585c-0.766-0.017-1.304-0.319-1.42-1.049c-0.131-0.843,0.625-0.819,1.159-0.954
	c0.421-0.106,0.852-0.166,1.278-0.242c0.357-0.064,0.454-0.305,0.414-0.622c-0.046-0.366-0.292-0.427-0.612-0.399
	c-0.502,0.047-1.009,0.109-1.512,0.094c-0.583-0.016-0.942-0.432-1.069-0.932c-0.164-0.644,0.408-1.027,0.85-1.02
	c1.613,0.022,2.656-0.588,3.196-2.168c0.16-0.471,0.838-0.658,1.293-0.234c0.909,0.846,1.846,1.44,3.173,1.105
	c0.153-0.037,0.594,0.466,0.645,0.762c0.111,0.65-0.398,0.973-0.871,1.348c-0.6,0.477-1.697-0.104-1.99,0.985
	c0.565,0.53,1.076,0.048,1.583-0.075c0.661-0.161,1.183,0.009,1.402,0.643c0.22,0.631-0.12,1.061-0.665,1.437
	c-0.829,0.569-2.018,0.169-2.914,1.238c1.577,0.272,2.911-0.162,4.258-0.29c0.718-0.069,1.451-0.16,2.156-0.073
	c0.717,0.089,1.142,0.604,1.083,1.38c-0.062,0.812-0.702,0.825-1.277,0.83c-1.443,0.011-2.889-0.023-4.332-0.037
	C391.59,87.727,389.752,88.336,387.741,87.709z"/>
<path style="fill-rule:evenodd;clip-rule:evenodd;fill:#010101;" d="M305.177,86.412c-1.918,1.538-0.724,3.754-1.356,5.52
	c0.63,0.418,0.886-0.113,1.258-0.211c0.35-0.089,0.643-0.7,1.09-0.116c0.33,0.43,0.169,0.823-0.02,1.214
	c-1.105,2.277-3.061,3.832-4.834,5.506c-0.873,0.824-1.569-0.213-2.15-0.795c-0.628-0.633-0.315-1.211,0.35-1.572
	c2.955-1.608,1.89-4.489,2.195-6.926c0.109-0.867-0.624-0.777-1.173-0.879c-0.893-0.166-1.392-0.871-1.544-1.621
	c-0.163-0.813,0.74-1.024,1.291-1.235c1.388-0.534,2.057-1.41,1.959-2.936c-0.039-0.634,0.194-1.28,0.297-1.923
	c0.127-0.796,0.296-1.776,1.311-1.554c0.926,0.202,1.69,0.982,1.387,2.108c-0.279,1.03-0.594,1.792,0.926,2.15
	c0.788,0.185,1.092,1.121,0.427,1.959c-0.29,0.368-0.863,0.64-0.421,1.255C305.853,86.654,305.523,86.681,305.177,86.412z"/>
<path style="fill-rule:evenodd;clip-rule:evenodd;fill:#020202;" d="M209.494,57.54c0.326-0.514,0.844-0.419,1.333-0.421
	c-0.283,1.52,0.659,1.755,1.805,1.652c1.073-0.096,2.151-0.236,3.198-0.484c1.103-0.258,1.83,0.411,2.393,1.046
	c0.806,0.907,0.146,1.574-0.771,1.931c-0.219,0.086-0.539-0.118-0.817-0.155c-4.483-0.601-4.54-0.581-4.486,3.92
	c0.022,2.021-0.008,3.837-2.357,4.741c-1.252,0.484-1.546-0.212-1.912-1c-0.342-0.742-0.672-1.507,0.741-1.48
	c0.797,0.014,0.763-0.719,0.782-1.291c0.035-0.939,0.087-1.88,0.04-2.815c-0.027-0.53,0.413-1.442-0.771-1.333
	c-0.913,0.085-1.771,0.245-1.641,1.486c0.022,0.214,0.081,0.425,0.128,0.637c0.177,0.812,0.17,1.829-0.727,1.9
	c-0.848,0.068-0.881-0.99-0.844-1.706c0.042-0.796-0.113-1.179-1.043-1.039c-0.85,0.126-1.182-0.679-1.643-1.206
	c-0.219-0.428-0.252-0.838,0.104-1.215c1.3-0.337,2.584-0.77,3.904-0.979C208.273,59.51,209.177,58.916,209.494,57.54z"/>
<path style="fill-rule:evenodd;clip-rule:evenodd;fill:#020202;" d="M348.521,53.023c-0.812,1.127-1.821,1.943-3.588,2.201
	c1.249-3.943,3.407-7.002,6.077-9.738c0.68-0.697,1.274-0.424,1.763,0.314c0.47,0.711,0.858,1.641,0.198,2.192
	c-2.644,2.213-1.644,5.35-2.069,8.056c-0.456,2.905-0.343,5.91-0.04,8.871c0.073,0.719,0.259,1.466,0.135,2.153
	c-0.159,0.892-0.969,1.554-1.759,1.586c-0.684,0.029-0.741-0.911-0.797-1.562c-0.379-4.421,0.033-8.809,0.553-13.191
	C349.098,53.472,349.4,52.932,348.521,53.023z"/>
<path style="fill-rule:evenodd;clip-rule:evenodd;fill:#020202;" d="M129.99,49.789c1.729-0.786,2.564-2.451,3.685-3.82
	c0.538-0.657,0.998-1.31,1.926-0.922c0.442,0.186,0.937,0.517,1.146,0.917c0.299,0.58-0.318,0.89-0.712,1.144
	c-0.963,0.623-1.968,1.182-2.956,1.768c-0.16,0.978,0.436,0.556,0.853,0.464c1.849-0.272,3.735,0.1,5.58-0.371
	c1.054-0.269,1.738,0.487,2.391,1.125c0.414,0.405,0.259,0.939-0.075,1.378c-0.663,0.863-1.409,0.197-2.151,0.155
	c-5.285-0.31-10.486,0.195-15.558,1.794c-0.822,0.259-1.634,0.57-2.475,0.74c-1.271,0.257-1.877-0.613-2.163-1.631
	c-0.343-1.229,0.828-1.241,1.479-1.368c2.108-0.414,4.18-1.114,6.37-1.039C128.152,49.498,129.148,50.258,129.99,49.789z"/>
<path style="fill-rule:evenodd;clip-rule:evenodd;fill:#030303;" d="M434.422,80.341c0.016-1.135-1.201-2.034,0.107-2.593
	c1.007-0.431,1.688,0.381,2.013,1.192c0.489,1.218,1.315,1.347,2.424,1.165c1.627-0.266,3.276-0.191,4.932-0.486
	c1.642-0.292,2.26,1.615,2.771,2.805c0.445,1.033-0.851,1.309-1.683,1.454c-1.041,0.185-2.108,0.233-3.225,0.347
	c0.073-1.149,1.264-1.497,1.473-2.771c-2.311,0.342-4.534-0.301-6.612,0.812c-0.334,0.179-0.722,0.388-1.004,0.13
	c-1.473-1.354-3.001-0.11-4.493-0.124c-1.129-0.011-1.907,0.436-1.75,1.836c0.058,0.527-0.195,1.146-0.461,1.638
	c-0.246,0.46-0.79,0.687-1.309,0.51c-0.52-0.176-0.777-0.625-0.701-1.207c0.02-0.143,0.037-0.295,0.095-0.422
	c0.649-1.419,0.252-3.199,0.919-4.396c0.95-1.703,2.423,0.876,3.875,0.168C432.488,80.061,433.482,80.341,434.422,80.341z"/>
<path style="fill-rule:evenodd;clip-rule:evenodd;fill:#020202;" d="M397.388,68.442c1.065-1.844,2.575-2.855,3.161-4.425
	c-0.137-0.49-0.434-0.391-0.707-0.323c-1.216,0.293-2.685,0.27-2.917-1.027c-0.28-1.565,1.537-0.972,2.365-1.452
	c0.786-0.457,2.112-0.138,2.154-1.654c0.02-0.741-0.022-1.834,1.007-1.862c1.347-0.037,1.021,1.302,1.324,2.192
	c0.622-0.183,1.228-0.36,1.817-0.531c0.007-0.795-1.375-0.821-0.927-1.753c0.107-0.224,0.619-0.382,0.927-0.355
	c0.808,0.071,1.099,0.609,1.594,1.308c1.64,2.308,0.017,2.941-1.522,3.453c-1.786,0.596-3.01,1.277-3.532,3.381
	C401.644,67.353,399.597,67.867,397.388,68.442z"/>
<path style="fill-rule:evenodd;clip-rule:evenodd;fill:#030303;" d="M409.444,86.779c0.004,0.32,0.008,0.642,0.011,0.962
	c-1.686,1.6-2.621,3.731-3.955,5.58c-1.447,2.003-3.227,3.576-5.637,4.536c1.05-1.67,2.118-3.328,3.145-5.011
	c0.713-1.168,1.404-2.351,2.029-3.568c0.192-0.376,0.742-0.901,0.113-1.317c-0.434-0.287-0.733,0.256-1.088,0.44
	c-0.827,0.427-1.619,0.964-2.491,1.262c-1.247,0.425-1.687-0.614-1.971-1.479c-0.374-1.141,0.502-1.309,1.356-1.368
	c1.802-0.128,3.594-0.376,5.252-1.112C407.685,85.045,408.431,86.234,409.444,86.779z"/>
<path style="fill-rule:evenodd;clip-rule:evenodd;fill:#020202;" d="M133.061,66.497c2.603,0.623,3.062-0.462,2.996-2.235
	c-0.121-3.314,0.148-6.638-0.275-9.947c-0.09-0.697-0.672-1.729,0.546-1.938c1.05-0.181,2.038,0.631,2.067,1.516
	c0.141,4.447,0.844,8.907-0.045,13.355c-0.342,1.7-1.939,2.154-3.076,2.273C133.992,69.656,134.179,67.796,133.061,66.497z"/>
<path style="fill-rule:evenodd;clip-rule:evenodd;fill:#040404;" d="M358.017,55.055c-0.793-0.166-1.657-0.359-1.694-1.345
	c-0.04-1.068,1.06-0.922,1.614-1.03c2.618-0.518,4.526-1.546,4.67-4.611c0.06-1.316,0.114-2.061-1.497-1.259
	c-0.893,0.445-1.869,0.745-2.834,1.006c-0.931,0.251-1.537-0.206-1.746-1.137c-0.227-1.004,0.53-1.319,1.231-1.409
	c1.994-0.265,4-0.483,6.009-0.578c1.312-0.062,1.776,0.875,1.602,2.037c-0.508,3.336-1.411,6.44-5.148,7.596
	C359.584,54.865,358.9,55.263,358.017,55.055z"/>
<path style="fill-rule:evenodd;clip-rule:evenodd;fill:#030303;" d="M435.766,52.559c-0.27,0.143-0.542,0.283-0.812,0.427
	c-1.009-1.049-1.972,0.019-2.907,0.157c-1.255,0.184-2.482,0.708-3.66,1.225c-1.078,0.473-1.974,0.146-2.852-0.381
	c-0.488-0.293-0.993-0.709-0.993-1.334c-0.003-0.805,0.788-0.702,1.276-0.896c3.641-1.438,7.514-1.903,11.311-2.701
	c0.729-0.153,1.421-0.151,2.085,0.246c0.597,0.354,1.08,0.804,0.972,1.542c-0.127,0.852-0.826,0.782-1.49,0.856
	C437.68,51.813,436.551,51.624,435.766,52.559z"/>
<path style="fill-rule:evenodd;clip-rule:evenodd;fill:#030303;" d="M306.26,53.57c-0.045-3.121,1.038-5.521,2.206-7.919
	c0.429-0.884,1.038-0.573,1.629-0.479c0.734,0.121,1.179,0.595,1.04,1.366c-0.095,0.52-0.364,1.008-0.633,1.717
	c1.472-0.167,2.684-0.546,3.737-1.288c0.865-0.611,1.557-0.37,1.995,0.383c0.522,0.899,0.021,1.513-0.902,1.76
	c-1.838,0.496-3.536,1.307-5.555,1.43C308.655,50.606,307.632,52.32,306.26,53.57z"/>
<path style="fill-rule:evenodd;clip-rule:evenodd;fill:#060606;" d="M32.831,40.342c-1.226-2.202-3.082-2.65-5.441-2.176
	c-1.691,0.34-3.435,0.098-3.629-2.095c-0.212-2.392,1.861-1.96,3.19-2.08c1.832-0.163,3.436-0.156,3.18-2.776
	c-0.095-0.974,0.473-2.167,1.75-2.221c1.352-0.057,2.461,0.708,3.179,1.809c0.523,0.805,0.464,2.074,2.04,1.582
	c3.249-1.012,1.822,0.929,1.36,2.237c-0.862,1.756-2.522,2.951-3.274,4.819C34.819,40.352,33.852,40.647,32.831,40.342z"/>
<path style="fill-rule:evenodd;clip-rule:evenodd;fill:#040404;" d="M182.604,83.523c-0.044,0.135-0.05,0.34-0.142,0.393
	c-1.654,0.959-2.671,2.4-3.273,4.188c-0.039,0.121-0.715,0.189-0.741,0.13c-0.577-1.344-2.137-1.381-2.971-2.258
	c-0.598-0.629-1.274-1.98,0.515-2.195c1.382-0.166,0.924-1.187,1.174-1.898c0.23-0.67,0.321-1.568,1.198-1.604
	c0.866-0.036,1.639,0.646,1.606,1.438c-0.062,1.512,0.677,1.395,1.696,1.201C182.067,82.841,182.561,82.906,182.604,83.523z"/>
<path style="fill-rule:evenodd;clip-rule:evenodd;fill:#050505;" d="M286.175,85.571c2.718-0.293,5.434-0.604,8.155-0.866
	c0.623-0.062,1.285-0.204,1.857,0.292c0.416,0.357,0.658,0.788,0.551,1.312c-0.109,0.526-0.574,0.569-1.027,0.548
	c-4.211-0.194-8.342,0.15-12.324,1.684c-0.68,0.262-1.563,0.252-1.822-0.623c-0.305-1.029,0.527-1.326,1.332-1.529
	c0.628-0.16,1.254-0.33,1.881-0.494C285.199,85.592,285.757,85.891,286.175,85.571z"/>
<path style="fill-rule:evenodd;clip-rule:evenodd;fill:#030303;" d="M162.503,98.272c2.521,0.034,4.866,3.306,3.9,5.434
	c-0.495,1.095-1.046,1.5-1.9,0.276c-0.942-1.347-1.778-2.773-2.966-3.946c-0.308-0.308-0.823-0.733-0.412-1.296
	C161.451,98.297,162.002,98.312,162.503,98.272z"/>
<path style="fill-rule:evenodd;clip-rule:evenodd;fill:#090909;" d="M313.623,62.646c1.708,0.456,2.689,1.749,3.607,3.142
	c0.688,1.045,0.196,1.896-0.338,2.771c-0.58,0.953-1.077,1-1.629-0.05c-0.797-1.515-1.619-3.018-2.497-4.488
	C312.121,62.942,312.859,62.841,313.623,62.646z"/>
<path style="fill-rule:evenodd;clip-rule:evenodd;fill:#090909;" d="M199.203,103.732c0.052-0.89,1.016-0.641,1.395-1.129
	c0.4-0.519,0.833-0.999,0.84-1.697c-0.088-0.104-0.172-0.281-0.25-0.28c-1.312,0.037-2.365-0.339-2.354-1.857
	c0.009-1.055,0.634-1.821,1.784-1.745c1.43,0.095,1.885,1.166,2.022,2.402C202.912,101.896,201.432,103.746,199.203,103.732z"/>
<path style="fill-rule:evenodd;clip-rule:evenodd;fill:#090909;" d="M147.346,68.588c1.447-0.906,2.684-1.357,2.712-2.828
	c-0.081-0.096-0.165-0.273-0.244-0.271c-1.313,0.04-2.365-0.341-2.35-1.857c0.01-1.056,0.637-1.823,1.786-1.744
	c1.43,0.099,1.883,1.17,2.019,2.406C151.541,66.768,150.057,68.619,147.346,68.588z"/>
<path style="fill-rule:evenodd;clip-rule:evenodd;fill:#060606;" d="M430.846,49.475c1.248-1.329,0.242-1.775-0.329-2.328
	c-0.611-0.593-1.099-1.284-0.606-2.079c0.455-0.731,1.354-0.47,1.984-0.298c0.731,0.199,1.38,0.712,2.053,1.108
	c0.752,0.444,0.686,1.185,0.645,1.904c-0.051,0.892-0.755,0.896-1.381,1.036C432.59,48.959,431.98,49.156,430.846,49.475z"/>
<path style="fill-rule:evenodd;clip-rule:evenodd;fill:#0B0B0B;" d="M414.502,86.779c1.357-1.465,2.72-2.921,4.065-4.394
	c0.37-0.405,0.758-0.71,1.271-0.292c0.623,0.511,1.135,1.137,1.112,1.993c-0.013,0.505-0.199,1.151-0.768,1.151
	C418.142,85.246,416.372,86.16,414.502,86.779z"/>
<path style="fill-rule:evenodd;clip-rule:evenodd;fill:#0B0B0B;" d="M363.189,101.917c-0.251-0.23-0.465-0.418-0.672-0.612
	c-1.033-0.986-2.042-2.001-3.11-2.947c-0.461-0.409-0.647-0.709-0.151-1.209c0.357-0.36,0.646-0.831,1.215-0.348
	c1.25,1.065,2.5,2.132,3.733,3.219c0.268,0.236,0.433,0.559,0.068,0.887C363.908,101.238,363.552,101.578,363.189,101.917z"/>
<path style="fill-rule:evenodd;clip-rule:evenodd;fill:#0A0A0A;" d="M134.038,59.031c0.016,0.264,0.034,0.408,0.03,0.554
	c-0.018,1.017,0.445,2.642-0.984,2.571c-1.219-0.057-0.939-1.679-0.896-2.753c0.037-0.938-0.025-1.881,0.063-2.812
	c0.045-0.477,0.223-1.09,0.793-1.166c0.784-0.105,0.819,0.623,1.017,1.148C134.386,57.44,134.043,58.293,134.038,59.031z"/>
<path style="fill-rule:evenodd;clip-rule:evenodd;fill:#090909;" d="M216.274,68.01c-0.239-0.303-0.493-0.534-0.639-0.82
	c-0.487-0.949-0.918-1.928-1.407-2.877c-0.227-0.434-0.704-0.885-0.301-1.331c0.416-0.459,1.047-0.332,1.592-0.086
	c1.998,0.899,2.721,3.078,1.478,4.462C216.811,67.565,216.582,67.736,216.274,68.01z"/>
<path style="fill-rule:evenodd;clip-rule:evenodd;fill:#0D0D0D;" d="M429.464,89.438c0.247-1.943,1.269-3.246,2.28-4.554
	c0.489-0.63,1.111-0.911,1.909-0.657c0.43,0.137,0.843,0.397,0.876,0.848c0.061,0.799-0.687,1.004-1.189,1.385
	C432.042,87.443,430.754,88.443,429.464,89.438z"/>
<path style="fill-rule:evenodd;clip-rule:evenodd;fill:#0A0A0A;" d="M303.154,49.465c-0.804-0.756-1.852-1.688-2.823-2.693
	c-0.253-0.262-0.037-0.725,0.282-0.925c1.281-0.804,2.132,0.2,3.036,0.813c0.852,0.578,1.235,1.367,0.675,2.391
	C304.139,49.389,303.908,49.625,303.154,49.465z"/>
<path style="fill-rule:evenodd;clip-rule:evenodd;fill:#0B0B0B;" d="M237.287,48.389c0.066,0.777-0.58,1.587-0.99,1.41
	c-1.246-0.536-2.198-1.554-2.488-2.974c-0.099-0.476-0.1-1.054,0.648-1.118C235.256,45.639,237.254,47.528,237.287,48.389z"/>
<path style="fill-rule:evenodd;clip-rule:evenodd;fill:#080808;" d="M360.936,48.455c0.254,0.095,0.704,0.122,0.861,0.353
	c0.284,0.413-0.002,0.86-0.355,1.117c-1.091,0.795-2.206,1.679-3.675,1.174c-0.466-0.159-0.841-0.912-0.576-1.251
	C358.093,48.69,359.553,48.775,360.936,48.455z"/>
<path style="fill-rule:evenodd;clip-rule:evenodd;fill:#0A0A0A;" d="M441.67,86.091c-0.135,0.726-0.332,1.358-1.031,1.562
	c-0.465,0.135-2.557-2.452-2.431-3.004c0.149-0.65,0.659-0.986,1.277-0.82C440.661,84.144,441.447,84.903,441.67,86.091z"/>
<path style="fill-rule:evenodd;clip-rule:evenodd;fill:#161616;" d="M129.99,49.789c-0.82,0.643-1.758,0.353-2.661,0.333
	c0.109-0.959-0.824-1.434-1.032-2.276c-0.253-1.02-0.281-2.087,0.809-2.293c0.917-0.176,1.005,0.936,1.176,1.709
	C128.514,48.311,127.828,50.036,129.99,49.789z"/>
<path style="fill-rule:evenodd;clip-rule:evenodd;fill:#090909;" d="M406.385,66.527c-1.045-0.349-1.458-1.518-2.149-2.389
	c-0.261-0.326-0.286-0.906,0.199-1.129c0.854-0.393,1.569,0.124,2.151,0.634c0.695,0.61,0.895,1.462,0.607,2.379
	C407.1,66.323,406.898,66.505,406.385,66.527z"/>
<path style="fill-rule:evenodd;clip-rule:evenodd;fill:#010101;" d="M189.843,57.059c-1.608,0.561-3.286,0.081-4.897,0.479
	c-0.652,0.16-0.598-0.312-0.654-0.768c-0.286-2.236,1.699-1.932,2.831-2.549c0.833-0.453,1.963-0.796,1.445-1.986
	c-0.47-1.086-1.469-1.479-2.699-0.923c-1.388,0.629-2.897,0.853-4.367,1.207c-0.734,0.177-1.988-0.151-2.108,1.047
	c-0.113,1.145,0.693,1.845,1.762,2.158c0.467,0.138,1.028,0.051,0.906,0.847c-0.097,0.638,0.02,1.378-0.8,1.603
	c-0.973,0.269-2.116,0.894-2.924,0.612c-2.933-1.021-2.448,1.035-2.496,2.562c-0.043,1.366-0.034,2.76,0.481,4.07
	c0.28,0.717,0.4,1.783,1.291,1.808c1.063,0.026,0.826-1.164,1.127-1.843c-0.036-0.138-0.062-0.281-0.108-0.416
	c-1.106-3.224-1.011-3.394,2.43-4.195c-0.245,1.727-1.739,2.898-1.972,4.602c0.832-0.128,1.194-0.968,1.905-1.271
	c1.006-0.434,1.329-2.158,2.384-1.906c1.113,0.268,1.541,1.736,2.236,2.706c1.861-0.155,1.949-1.214,1.128-2.495
	c-0.712-1.11-1.954-1.593-3.476-2.169c1.816-1.093,3.571-1.31,5.337-1.438c0.619-0.044,0.897,0.436,0.878,1
	c-0.026,0.793-0.072,1.592-0.209,2.371c-0.633,3.589-0.645,3.586-4.1,3.667c0.725,0.874,0.484,2.378,1.646,2.889
	c1.123,0.493,3.993-1.003,4.553-2.257c1.011-2.267,1.651-4.627,1.609-7.138C192.952,57.479,191.6,56.446,189.843,57.059z"/>
<path style="fill-rule:evenodd;clip-rule:evenodd;fill:#010101;" d="M345.069,89.836c-1.607,0.559-3.287,0.081-4.896,0.478
	c-0.653,0.16-0.599-0.312-0.655-0.77c-0.287-2.233,1.698-1.929,2.83-2.545c0.832-0.455,1.964-0.798,1.446-1.989
	c-0.472-1.084-1.471-1.479-2.7-0.921c-1.387,0.628-2.896,0.853-4.367,1.207c-0.732,0.177-1.988-0.15-2.109,1.047
	c-0.112,1.146,0.696,1.847,1.761,2.157c0.47,0.139,1.031,0.051,0.908,0.847c-0.097,0.638,0.019,1.378-0.8,1.604
	c-0.974,0.269-2.117,0.894-2.923,0.611c-2.934-1.021-2.448,1.036-2.497,2.562c-0.042,1.37-0.032,2.762,0.48,4.071
	c0.281,0.716,0.402,1.786,1.291,1.807c1.065,0.028,0.826-1.163,1.128-1.841c-0.035-0.139-0.061-0.279-0.106-0.416
	c-1.108-3.225-1.012-3.395,2.429-4.194c-0.244,1.727-1.741,2.896-1.974,4.602c0.834-0.13,1.196-0.969,1.905-1.273
	c1.008-0.433,1.332-2.156,2.386-1.904c1.111,0.267,1.54,1.734,2.234,2.703c1.863-0.155,1.95-1.213,1.129-2.493
	c-0.712-1.111-1.955-1.594-3.477-2.168c1.818-1.095,3.572-1.312,5.337-1.439c0.619-0.045,0.898,0.436,0.88,1
	c-0.026,0.793-0.071,1.593-0.21,2.372c-0.633,3.587-0.646,3.585-4.102,3.666c0.726,0.874,0.488,2.378,1.647,2.889
	c1.123,0.493,3.994-1.004,4.554-2.258c1.011-2.266,1.652-4.626,1.609-7.138C348.178,90.255,346.826,89.223,345.069,89.836z"/>
<path style="fill-rule:evenodd;clip-rule:evenodd;fill:#0C0C0C;" d="M401.496,49.819c-0.252,0.045-0.337,0.089-0.389,0.064
	c-1.354-0.62-2.508-1.4-2.141-3.166c0.088-0.426,0.427-0.856,0.915-0.655C401.674,46.8,401.351,48.391,401.496,49.819z"/>
<path style="fill-rule:evenodd;clip-rule:evenodd;fill:#131313;" d="M147.458,94.824c-0.018,0.438,0.881,0.222,0.601,0.843
	c-0.866,0.196-0.874,1.051-1.257,1.622c-0.301,0.446-0.434,1.2-1.191,1.004c-0.529-0.135-0.771-0.626-0.667-1.195
	c0.116-0.637-0.167-1.728,0.807-1.632C146.561,95.544,146.88,94.976,147.458,94.824z"/>
<path style="fill-rule:evenodd;clip-rule:evenodd;fill:#1A1A1A;" d="M150.07,90.481c0.068,0.381-0.011,0.696-0.377,0.891
	c-0.389-0.032-0.901,0.08-1.141-0.126c-0.607-0.523-1.55-0.817-1.553-1.855c-0.002-0.499,0.34-0.905,0.732-0.896
	c1.045,0.028,1.34,0.858,1.539,1.727C149.385,90.729,149.723,90.639,150.07,90.481z"/>
<path style="fill-rule:evenodd;clip-rule:evenodd;fill:#E6E6E6;" d="M284.675,59.504c0.051-0.782-0.014-1.459-1.09-1.297
	c-0.37,0.055-0.729,0.041-0.706-0.48c0.014-0.331-0.101-0.75,0.394-0.85c0.35-0.07,0.722-0.113,0.962,0.241
	c0.432,0.643,0.843,1.298,1.264,1.949C285.224,59.211,284.949,59.357,284.675,59.504z"/>
<path style="fill-rule:evenodd;clip-rule:evenodd;fill:#D4D4D4;" d="M308.641,87.729c0.874-0.811,1.965-1.089,3.094-1.27
	c0.327,0.15,0.654,0.303,0.981,0.455C311.422,87.516,310.102,87.961,308.641,87.729z"/>
<path style="fill-rule:evenodd;clip-rule:evenodd;fill:#5E5E5E;" d="M421.536,66.149c0.483,0.541,1.191,0.079,1.728,0.388
	c-0.537,0.426-1.227,0.467-1.793,0.344C420.764,66.729,421.076,66.365,421.536,66.149z"/>
<path style="fill-rule:evenodd;clip-rule:evenodd;fill:#666666;" d="M326.441,100.285c0.18,0.29-0.027,0.776,0.467,0.903
	c0.041,0.487-0.324,1.008-0.623,0.748C325.789,101.501,326.031,100.811,326.441,100.285z"/>
<path style="fill-rule:evenodd;clip-rule:evenodd;fill:#666666;" d="M171.215,67.509c0.18,0.289-0.027,0.776,0.467,0.901
	c0.043,0.488-0.324,1.011-0.624,0.748C170.562,68.725,170.806,68.033,171.215,67.509z"/>
<path style="fill-rule:evenodd;clip-rule:evenodd;" d="M285.498,59.067c3.672,3.559,4.658,3.929,8.758,3.213
	c-1.764-2.606-5.04-3.231-7.34-5.739c1.325,0.089,2.177,0.176,3.029,0.197c0.839,0.02,1.934,0.263,1.974-1.035
	c0.032-1.071-0.704-1.675-1.771-1.848c-0.455-0.073-0.988,0.206-1.393-0.295c0.699-1.98,1.417-3.958,1.483-6.092
	c0.074-2.404-0.192-2.623-2.549-2.311c-0.71,0.096-1.444,0.012-2.168,0.01c-0.253,0.316-0.435,0.573-0.561,0.799
	c-0.053,0.271,0.005,0.561,0.205,0.864c0.444,0.675,1.138,0.404,1.749,0.319c0.386-0.053,0.873-0.443,1.045,0.184
	c0.186,0.674-0.332,0.822-0.881,0.869c-0.91,0.078-1.86,0.055-2.529,0.857c0.305,1.856,1.75,0.591,2.844,1.059
	c-0.564,1.561-2.409,1.589-3.08,1.402c-1.29-0.362,0.196-1.593-0.049-2.461c-0.188-1.352-0.914-1.665-2.117-1.129
	c-0.379,0.168-0.842,0.394-1.002-0.271c-0.13-0.522,0.184-0.671,0.627-0.898c1.053-0.54,2.723-0.261,2.899-2.05
	c-1.237-1.098-3.317,0.85-4.291-1.195c-0.176,0.104-0.38,0.176-0.522,0.312c-1.104,1.046-1.115,5.352-0.029,6.592
	c0.703-0.32,1.404-0.638,2.181-0.991c0,1.431-0.005,2.713,0.002,3.996c0.003,0.574-0.171,1.065-0.824,1.01
	c-0.823-0.07-0.473-0.742-0.429-1.169c0.048-0.497,0.271-0.974,0.353-1.471c0.18-1.085-0.399-1.247-1.279-0.999
	c-0.625,0.93-0.934,1.955-0.847,3.072c0.09,1.15-0.84,0.931-1.458,1.142c-0.8,0.272-0.718-0.329-0.87-0.804
	c-0.268-0.846-0.029-1.229,0.861-1.237c0.551-0.003,1.092-0.197,1.006-0.847c-0.109-0.838-0.803-0.852-1.488-0.861
	c-0.361-0.005-0.835,0.632-1.066-0.034c-0.255-0.741,0.414-0.729,0.887-0.879c0.672-0.214,1.604-0.403,1.333-1.339
	c-0.214-0.738-1.04-0.557-1.692-0.441c-0.362,0.062-0.872,0.43-0.992-0.297c-0.111-0.66,0.234-0.887,0.863-0.913
	c0.42-0.017,0.918-0.057,1.232-0.288c0.691-0.505,0.885-1.441,0.103-1.766c-1.222-0.508-2.524,0.223-3.767,0.459
	c-0.789,0.152-0.687,1.164-0.687,1.883c0,2.191,0.36,4.309,1.172,6.359c0.208,0.526,0.985,1.36-0.386,1.589
	c-1.115,0.185-2.33,0.521-2.157,1.904c0.159,1.281,1.481,1.22,2.663,1.228c-1.777,2.482-3.735,4.567-4.921,7.605
	c3.146-1.323,4.819-3.578,6.487-5.848c0.807-1.096,1.438-2.388,2.705-3.028c0.383-0.192,1.18-0.657,1.438,0.205
	c0.186,0.62,0.138,1.302-0.832,1.409c-0.751,0.084-1.765,0.041-1.747,1.162c0.02,1.143,0.984,1.031,1.776,1.045
	c0.427,0.008,0.889-0.076,0.886,0.592c-0.001,0.607-0.422,0.644-0.863,0.714c-0.854,0.138-1.713,0.268-2.552,0.477
	c-0.593,0.148-1.447,0.197-1.312,1.101c0.116,0.794,0.759,1.279,1.569,1.194c0.99-0.104,1.965-0.368,3.041-0.581
	c0.312,1.71-0.174,3.563,0.952,5.366c0.842-1.274,1.767-2.392,1.625-3.794c-0.228-2.249,0.835-2.641,2.744-2.513
	c0.646,0.044,2.03,0.644,1.987-0.769c-0.039-1.183-1.079-1.582-2.251-1.387c-0.427,0.072-0.86,0.11-1.293,0.13
	c-0.378,0.018-0.894,0.402-1.074-0.252c-0.136-0.499-0.138-0.968,0.523-1.22c0.454-0.171,0.831-0.547,1.242-0.832
	c0.315-0.61,0.272-1.148-0.341-1.6C284.904,58.14,284.906,58.9,285.498,59.067z M284.178,54.211
	c-0.691,0.088-0.49-0.496-0.475-0.879c0.018-0.498,0.133-0.714,0.758-0.514c0.641,0.205,1.369,0.148,2.242,0.223
	C286.251,54.581,285.066,54.097,284.178,54.211z"/>
<path style="fill-rule:evenodd;clip-rule:evenodd;fill:#010101;" d="M117.562,102.445c-0.483-0.989-0.764-2.079-1.157-3.203
	c-1.134,2.634-1.262,2.666-3.331,0.566c-0.708-0.719-1.403-1.482-1.948-2.326c-0.743-1.146-1.762-2.354-1.861-3.6
	c-0.081-0.99,1.672-1.036,2.552-1.605c0.686-0.441,0.822-1.029,0.559-1.659c-0.264-0.629-0.807-1.028-1.568-0.774
	c-0.884,0.293-1.758,0.615-2.695,0.947c-0.259-1.209-0.721-2.183,0.868-2.887c1.087-0.48,1.991-1.523,2.776-2.478
	c0.586-0.712,1.631-1.414,1.034-2.625c-0.593-1.198-1.593-1.817-2.935-1.909c-2.263-0.153-4.476,0.215-6.674,0.656
	c-0.927,0.186-2.038,0.461-1.671,1.764c0.366,1.302,1.249,1.828,2.676,1.24c1.768-0.729,3.595-1.311,5.374-1.947
	c0.283,0.534,0.061,0.821-0.093,1.142c-1.364,2.862-4.366,3.045-6.787,4.18c-1.492,0.701-2.515,0.714-2.134-1.418
	c0.051-0.283-0.006-0.583,0.031-0.869c0.165-1.204-0.05-2.413-1.438-2.396c-1.28,0.016-1.035,1.348-1.051,2.232
	c-0.081,4.493-0.16,8.986-0.146,13.482c0.004,1.107-0.229,1.74-1.4,1.957c-0.798,0.147-1.956,0.283-1.415,1.578
	c0.433,1.025,1.22,2.064,2.501,1.411c3.545-1.813,7.855-2.266,10.502-6.024c0.564,0.766,0.98,1.357,1.424,1.928
	c1.573,2.015,3.354,3.813,5.635,5.01c0.768,0.404,1.705,0.601,2.413-0.18C118.236,103.94,117.943,103.226,117.562,102.445z
	 M106.445,97.133c-1.895,1.046-3.322,1.799-6.322,2.557c0-2.664,0-5.17,0-7.673c0-0.515,0.205-0.913,0.932-1.054
	c0.902-0.172,1.845-0.644,2.737-0.9c0.442-0.127,1.162-0.932,1.408,0.059c0.169,0.682,0.913,1.691-0.466,2.144
	c-0.817,0.269-1.604,0.616-2.367,1.011c-0.607,0.316-1.832,0.285-1.207,1.52c0.442,0.874,1.151,1.513,2.272,1.103
	c0.74-0.271,1.486-0.548,2.199-0.886c0.758-0.357,1.035-0.168,1.385,0.611C107.354,96.37,107.197,96.718,106.445,97.133z"/>
<path style="fill-rule:evenodd;clip-rule:evenodd;fill:#010101;" d="M245.859,92.657c-3.078-1.411-6.111-2.888-8.898-4.856
	c-1.25-0.879-1.821-1.534-0.588-2.891c0.915-1.002,1.625-2.201,2.364-3.352c0.411-0.641,0.547-1.392-0.095-1.982
	c-0.607-0.56-1.281-0.887-2.119-0.281c-1.002,0.72-1.997,1.099-2.959-0.191c-0.416-0.562-1.22-0.665-1.769-0.209
	c-2.288,1.901-4.457,3.925-5.962,6.64c1.825-0.667,2.99,0.82,4.456,1.04c0.98,0.146,0.996,0.529,0.448,1.234
	c-1.338,1.715-2.816,3.294-4.484,4.695c-1.51,1.274-3.023,2.551-4.536,3.827c2.465-0.129,4.253-1.726,6.612-2.501
	c-0.334,2.335,0.156,4.411,0.881,6.438c0.639,1.782,1.628,2.963,3.839,2.535c1.618-0.314,3.296-0.363,4.95-0.445
	c1.038-0.051,1.457-0.643,1.4-1.52c-0.139-2.188,1.675-3.793,1.685-5.923c0.001-0.138,0.338-0.415,0.38-0.39
	c1.45,0.832,2.707-0.318,4.063-0.366c0.538-0.019,1.284,0.372,1.458-0.429C247.148,92.985,246.357,92.886,245.859,92.657z
	 M229.277,83.474c2.789-2.542,2.789-2.542,5.541-1.791C232.371,85.566,233.592,85.149,229.277,83.474z M235.078,99.853
	c-0.612,0.187-1.273,0.207-1.912,0.305c-1.752,0.254-1.488-1.216-1.779-2.126c-0.359-1.119,0.343-1.336,1.271-1.391
	c0.712-0.04,1.449-0.428,2.112-0.31c0.832,0.147,2.159-1.239,2.306,0.101C237.205,97.625,236.76,99.339,235.078,99.853z
	 M238.285,93.353c-3.014,0.158-6.01,0.682-9.379,0.241c1.579-1.593,2.969-2.96,4.317-4.369c0.556-0.583,0.871-0.123,1.229,0.186
	c1.3,1.119,2.588,2.254,3.881,3.383C238.317,92.979,238.301,93.168,238.285,93.353z"/>
<path style="fill-rule:evenodd;clip-rule:evenodd;" d="M88.117,49.576c-1.071,0.157-2.133,0.359-3.204,0.502
	c-2.632,0.35-2.655,0.336-2.235-2.178c0.285-1.71-0.921-2.56-2.108-2.792c-1.245-0.243-1.491,1.013-1.489,2.109
	c0.001,0.649-0.137,1.3-0.119,1.947c0.037,1.364-0.576,1.821-1.938,1.909c-1.861,0.12-3.709,0.522-5.554,0.858
	c-1.691,0.31-1.991,1.186-0.964,2.539c0.724,0.956,1.637,1.04,2.705,0.792c1.64-0.385,3.291-0.722,4.947-1.079
	c0.285,1.277-0.203,2.23-0.283,3.226c-0.108,1.398-1.11,2.007-2.217,1.764c-2.095-0.46-2.037,0.879-1.874,2.08
	c0.327,2.398,1.434,4.518,2.842,6.463c0.42,0.581,0.922,1.025,1.832,0.728c1.801-0.59,3.704-0.551,5.577-0.665
	c0.686-0.041,1.533-0.138,1.521-0.873c-0.036-2.11,1.201-3.775,1.728-5.678c0.269-0.966,0.38-1.868-0.475-2.584
	c-0.749-0.625-1.524-0.958-2.568-0.489c-1.14,0.511-2.389,0.297-3.611,0.222c0.896-4.703,0.896-4.706,5.415-5.276
	c0.86-0.108,1.728-0.153,2.58-0.296c0.898-0.147,2.378,0.35,2.258-1.232C90.771,50.09,89.684,49.344,88.117,49.576z M82.641,61.027
	c0.6-0.12,1.109,0.01,0.857,0.73c-0.377,1.084-0.681,2.311-1.408,3.123c-0.85,0.948-2.416,0.868-3.445,0.542
	c-0.927-0.294-0.986-1.798-1.291-2.819c-0.132-0.441,0.208-0.604,0.61-0.671c0.713-0.118,1.418-0.272,2.126-0.409
	C80.941,61.357,81.792,61.193,82.641,61.027z"/>
<path style="fill-rule:evenodd;clip-rule:evenodd;fill:#010101;" d="M269.484,99.302c-0.938,0.043-1.873,0.213-2.809,0.211
	c-0.623,0-1.59,0.612-1.803-0.438c-0.235-1.154,0.883-0.884,1.495-1.001c0.954-0.182,2.131-0.3,1.875-1.549
	c-0.233-1.14-1.389-0.628-2.216-0.623c-0.395,0.004-0.988,0.654-1.188-0.269c-0.165-0.77,0.457-0.831,0.908-0.921
	c2.787-0.564,3.758-2.727,4.354-5.097c0.641-2.537,0.092-3.078-2.457-2.798c-0.644,0.069-1.292,0.068-1.939,0.108
	c-0.332,0.021-0.737,0.233-0.841-0.319c-0.101-0.532,0.12-0.778,0.675-0.819c1.077-0.077,2.138-0.203,3.235-0.067
	c0.85,0.105,2.124,0.428,2.089-1.053c-0.026-1.115-0.961-1.533-2.021-1.463c-1.008,0.065-2.011,0.206-3.016,0.298
	c-0.397,0.035-0.914,0.252-0.984-0.433c-0.045-0.442,0.003-0.892,0.516-1.06c0.341-0.111,0.711-0.136,1.055-0.236
	c0.772-0.227,1.298-0.649,1.093-1.563c-0.199-0.881-0.849-1.166-1.635-1.044c-2.405,0.377-4.229,1.753-6.103,3.228
	c1.068,0.965,2.617-0.623,2.754,0.709c0.146,1.443-1.565,0.648-2.391,1.011c-0.194,0.086-0.434,0.071-0.631,0.151
	c-0.863,0.34-2.373,0.144-2.046,1.64c0.345,1.588,1.655,0.884,2.662,0.7c0.281-0.052,0.569-0.219,0.839-0.188
	c0.558,0.062,1.398-0.723,1.633,0.247c0.232,0.978-0.77,0.81-1.336,0.967c-0.409,0.113-0.92,0.354-1.236,0.211
	c-2.08-0.947-2.015,0.687-2.098,1.819c-0.164,2.223,0.47,4.286,1.678,6.164c0.285,0.221,0.646,0.184,0.969,0.281
	c0.089,0.026,0.183,0.03,0.275,0.035c-0.112-0.105-0.226-0.212-0.338-0.316c0.578,0.132,1.092-0.039,1.634-0.243
	c0.457-0.169,1.173-0.593,1.378,0.215c0.205,0.807-0.547,0.828-1.107,0.863c-0.347,0.021-0.699-0.022-1.051-0.037
	c-0.125-0.117-0.25-0.234-0.375-0.352c-0.172,0.125-0.388,0.184-0.529,0.352c-0.635,0.11-1.405,0.102-1.268,1.073
	c0.098,0.669,0.65,0.928,1.244,1.034c0.273,0.047,0.57-0.032,0.857-0.035c0.49-0.002,1.242-0.564,1.297,0.471
	c0.052,0.954-0.792,0.637-1.277,0.721c-0.924,0.16-1.881,0.133-2.788,0.342c-0.772,0.178-1.96,0.208-1.71,1.444
	c0.19,0.945,1.048,0.896,1.933,0.795c3.582-0.411,7.161-0.935,10.789-0.634c0.794,0.065,1.776,0.064,1.745-1.061
	C271.248,99.771,270.493,99.259,269.484,99.302z M268.699,87.938c0.099,1.262,0.067,2.271-0.816,3.046
	c0.005,0.025,0.014,0.044,0.018,0.07c-0.011,0.006-0.022,0.011-0.033,0.017c0.18,0.455-0.124,0.785-0.356,1.105
	c-0.38,0.522-0.769,1.104-1.544,0.958c-0.133-0.024-0.295-0.307-0.31-0.481c-0.066-0.834,0.723-0.747,1.169-1.025
	c0.331-0.207,0.691-0.374,1.041-0.557c-0.008-0.02-0.004-0.037-0.014-0.058c0.011-0.01,0.019-0.021,0.029-0.029
	c-0.204-1.21-1.262-1.249-2.394-1.374C266.41,88.404,267.694,88.654,268.699,87.938z M261.517,93.085
	c-0.28-1.015-1.028-2.401,0.503-3.216c0.425-0.227,1.104-0.439,1.397-0.008c0.394,0.579-0.282,0.815-0.683,1.079
	c-2.43,1.595,0.402,1.505,0.86,2.353C262.765,93.622,261.869,94.369,261.517,93.085z"/>
<path style="fill-rule:evenodd;clip-rule:evenodd;fill:#010101;" d="M193.068,90.488c-0.818-0.586-1.444-1.442-2.81-1.075
	c-1.577,0.423-3.278,0.396-4.928,0.533c-0.286,0.023-0.643,0.278-0.845-0.278c-0.748-2.06,0.343-3.988,2.514-4.431
	c0.842-0.173,1.655-0.485,2.487-0.705c0.747-0.199,1.366-0.509,1.3-1.415c-0.029-0.394-3.883-3.293-4.316-3.283
	c-0.973,0.021-1.162,0.684-1.145,1.474c0.08,3.652-3.408,5.589-4.234,8.818c-0.137,0.531-0.888,0.323-1.367,0.423
	c-2.395,0.504-4.793,1-7.181,1.534c-1.726,0.386-1.607,1.336-0.698,2.493c0.775,0.984,1.719,0.851,2.73,0.455
	c1.714-0.672,3.395-1.466,5.294-1.651c-0.377,2.5-0.564,2.856-1.741,2.439c-1.758-0.623-1.963,0.442-1.874,1.586
	c0.175,2.26,0.969,4.358,2.254,6.234c0.311,0.453,0.696,0.913,1.428,0.722c1.974-0.52,4.009-0.26,6.013-0.391
	c0.799-0.053,1.679-0.213,1.57-1.066c-0.26-2.023,0.932-3.498,1.582-5.186c0.327-0.846,0.415-1.75-0.406-2.381
	c-0.718-0.549-1.374-1.131-2.516-0.713c-1.186,0.433-2.513,0.473-3.932,0.709c0.127-2.076,1.136-2.784,2.815-2.887
	c2.229-0.133,4.453-0.539,6.669,0.076c0.672,0.187,1.106-0.067,1.418-0.65C193.412,91.385,193.539,90.825,193.068,90.488z
	 M185.432,97.34c-0.743,3.166-1.664,3.996-3.967,4.33c-1.648,0.238-1.438-1.033-1.786-1.834c-0.459-1.062,0.224-1.333,1.122-1.499
	C182.324,98.058,183.834,97.689,185.432,97.34z"/>
<g>
	<path style="fill:#010101;" d="M408.77,46.99c0.023-0.012,0.047-0.021,0.07-0.032c0-0.016-0.003-0.027-0.003-0.043L408.77,46.99z"
		/>
	<path style="fill:#010101;" d="M419.273,66.675c-0.153-0.733-0.727-1.214-1.227-1.739c-0.278-0.291-0.956-0.426-0.503-1.146
		c2.287-3.643,0.991-7.592,0.756-11.398c-0.087-1.434-0.972-3.051-3.111-1.693c-0.508,0.322-1.279,0.228-1.929,0.325
		c1.318-1.374,2.194-3.224,4.469-3.073c0.795,0.052,1.588-0.355,1.586-1.408c-0.002-1.192-0.958-1.552-1.775-1.444
		c-2.943,0.387-5.975,0.437-8.699,1.861c0.053,2.757,2.248,1.87,3.939,2.088c-0.594,0.679-0.618,1.897-1.514,1.712
		c-1.545-0.32-1.515,0.771-1.719,1.592c-0.208,0.83-0.162,1.721-0.285,2.576c-0.625,4.377,1.597,9.058-1.389,13.188
		c-0.05,0.068,0.065,0.255,0.201,0.721c1.664-1.653,3.248-3.16,4.757-4.744c0.847-0.891,1.358-1.123,2.002,0.237
		c0.581,1.226,1.466,2.308,2.231,3.443c0.385,0.569,0.824,1.04,1.603,0.604C419.365,67.981,419.41,67.326,419.273,66.675z
		 M415.832,53.533c0.012,2.176,0.005,4.351-0.018,6.524c-0.007,0.617,0.188,1.452-0.779,1.494c-1.131,0.049-2.319,0.502-3.376-0.013
		c-0.354-0.175-0.359-1.062,0.218-1.479c0.16-0.116,0.43-0.07,0.623-0.157c0.939-0.417,2.697-0.471,2.459-1.601
		c-0.312-1.476-1.736-0.51-2.698-0.254c-0.401,0.106-0.703,0.138-0.753-0.382c-0.037-0.379,0.012-0.703,0.449-0.855
		c0.748-0.261,1.493-0.534,2.224-0.84c0.481-0.201,0.96-0.521,0.809-1.121c-0.189-0.751-0.87-0.694-1.428-0.579
		c-0.656,0.134-1.283,0.403-1.984,0.632c0.306-1.634,2.249-3.048,3.556-2.745C415.946,52.347,415.829,52.982,415.832,53.533z"/>
</g>
<path style="fill-rule:evenodd;clip-rule:evenodd;fill:#010101;" d="M448.467,94.975c-3.665-2.158-7.252-4.44-10.799-6.791
	c-1.522-1.011-3.064-0.969-4.562,0.639c-2.675,2.863-5.248,5.79-7.506,8.99c-0.342,0.485-0.908,0.935-0.688,1.798
	c1.827-1.045,3.823-1.683,5.3-3.749c0.396,2.03,0.7,3.68,1.558,5.128c0.351,0.597,0.835,1.593,1.537,1.315
	c2.335-0.935,4.729-0.342,7.083-0.553c0.987-0.088,1.283-0.596,0.871-1.467c-1.02-2.158,1.318-3.05,1.752-4.664
	c0.092-0.339,0.54-0.03,0.725,0.124c1.336,1.093,2.78,1.229,4.375,0.67c0.381-0.136,0.954,0.062,1.067-0.48
	C449.283,95.45,448.854,95.2,448.467,94.975z M434.802,99.322c-0.948,0.029-1.189-0.306-1.477-1.104
	c-0.513-1.441-0.139-2.09,1.388-2.197c1.271-0.089,2.534-0.303,3.851-0.468C437.72,98.946,437.329,99.244,434.802,99.322z
	 M435.792,93.149c-1.044,0.11-2.084,0.22-3.231,0.338c2.206-4.165,3.765-4.333,6.601-0.687
	C437.973,92.924,436.883,93.036,435.792,93.149z"/>
<path style="fill-rule:evenodd;clip-rule:evenodd;fill:#010101;" d="M522.271,83.038c-0.473-0.952-1.126-1.953-2.525-1.182
	c-1.115,0.615-2.409,0.426-3.593,0.739c-0.426,0.111-0.862,0.311-0.94-0.382c-0.059-0.527-0.06-1.005,0.662-1.116
	c0.785-0.119,1.562-0.291,2.332-0.487c0.77-0.194,1.389-0.608,1.104-1.522c-0.25-0.8-0.842-1.093-1.708-0.837
	c-0.793,0.23-1.546,0.595-2.286-0.37c-1.143-1.485-1.747-0.677-2.023,0.69c-0.127,0.638-0.24,1.281-0.275,1.928
	c-0.164,3.073-0.522,3.638-3.545,3.646c-1.27,0.004-1.638,0.503-2.014,1.381c-1.426,3.313-2.889,6.611-4.246,9.951
	c-0.949,2.343-1.75,4.745-2.618,7.119c1.62-1.049,2.557-2.45,3.28-4.017c1.422-3.079,3.033-6.082,4.268-9.231
	c0.98-2.496,2.646-3.805,5.169-4.241c0.548,1.419-0.153,1.939-1.446,2.222c-0.529,0.114-1.548,0.047-1.385,0.986
	c0.143,0.82,0.857,1.295,1.752,1.355c0.38,0.026,0.962-0.521,1.113,0.063c0.893,3.433,3.199,1.559,5.05,1.419
	c0.661-0.05,0.871-0.423,0.774-1.023c-0.104-0.643-0.487-1.061-1.134-1.115c-0.259-0.021-0.528,0.215-0.805,0.271
	c-0.634,0.123-1.503,0.913-1.837-0.13c-0.3-0.939,0.867-0.824,1.342-0.952c1.301-0.351,1.8-1.04,1.493-2.329
	c-0.018,0.007-0.034,0.014-0.052,0.021c-0.008-0.008-0.009-0.023-0.016-0.032c-0.137,0.011-0.307,0.043-0.342-0.013
	c-0.521-0.785-2.279,0.755-2.135-1.042c0.113-1.393,1.572-0.967,2.417-1.33c0.816-0.35,1.252-0.026,0.779,0.916
	c-0.237,0.475-0.451,0.96-0.675,1.439c0.006,0.01,0.014,0.016,0.02,0.024c0.002,0.006,0.002,0.011,0.003,0.017
	c0.917-0.364,1.839-0.706,2.739-1.107C521.711,84.435,522.875,84.254,522.271,83.038z"/>
<g>
	<path style="fill-rule:evenodd;clip-rule:evenodd;fill:#010101;" d="M311.804,90.73c1.022,0.249,2.034,0.184,3.035-0.165
		c-0.427-0.316-0.878-0.591-1.382-0.774C313.136,90.472,312.479,90.614,311.804,90.73z"/>
	<path style="fill-rule:evenodd;clip-rule:evenodd;fill:#010101;" d="M323.439,99.127c-0.595-1.112-0.998-2.26-1.261-3.835
		c-1.386,3.975-2.108,4.645-4.554,4.573c-1.691-0.05-2.541-0.762-1.719-2.454c1.033-2.123,0.803-4.679,2.487-6.608
		c0.602-0.689,0.785-1.875,0.874-2.859c0.125-1.388-0.401-2.207-2.077-1.772c-1.459,0.377-2.981,0.505-4.475,0.743
		c-1.247,0.232-2.558,0.006-3.761,0.529c-0.078,0.074-0.16,0.146-0.24,0.217c-1.189,2.694,0.918,5.074,0.825,7.717
		c-0.021,0.592,0.194,1.104-0.254,1.677c-1.123,1.433-2.749,2.501-3.438,4.676c3.421-1.921,5.766-4.624,8.636-7.55
		c-0.345,1.873-0.692,3.123-0.782,4.393c-0.117,1.705,0.381,3.309,2.225,3.764c1.979,0.489,4.062,0.502,5.955-0.393
		C322.959,101.435,324.237,100.615,323.439,99.127z M313.096,92.888c-1.324,0.536-1.838,0.139-1.842-1.204
		c-1.229-2.121,0.217-2.404,1.783-2.605c0.331-0.117,0.656-0.309,0.996-0.338c0.814-0.068,1.782-1.064,2.311-0.396
		c0.594,0.75-0.364,1.632-0.787,2.405C315.137,91.929,314.197,92.439,313.096,92.888z"/>
</g>
<path style="fill-rule:evenodd;clip-rule:evenodd;fill:#010101;" d="M227.207,57.958c-0.01,0.009-0.084,0.039-0.084,0.048v0.023
	h0.112c-0.019,0-0.036,0.007-0.055,0.02c0.093,1.347-0.173,2.418-1.906,2.412c-0.656-1.803,0.396-2.275,1.823-2.451
	c0.027-0.02,0.049-0.049,0.08-0.065c0.03,0.004,0.056,0.011,0.086,0.015c0.492-0.486,1.043-0.75,1.133-1.745
	c0.097-1.072,0.621-2.341,1.649-3.131c0,0-0.065,0.056-0.068,0.059c0.189-2.979,0.04-3.162-2.933-2.997
	c-0.863,0.047-1.146-0.174-1.068-1.066c0.106-1.249,0.117-2.883-1.539-2.761c-1.335,0.101-0.771,1.782-0.838,2.707
	c-0.128,1.847-1.085,2.294-2.527,1.721c-1.169-0.463-1.748-0.071-1.89,0.916c-0.377,2.61-0.323,5.202,1.011,7.6
	c0.334,0.601,0.648,1.138,1.498,0.56c0.383-0.26,1.058-0.897,1.394,0.021c0.284,0.771,0.225,1.569-0.826,1.877
	c-0.622,0.182-1.253,0.393-1.809,0.711c-0.584,0.335-1.861,0.25-1.267,1.499c0.405,0.854,1.088,1.177,2.15,0.835
	c2.527-0.813,4.482-2.914,7.291-3.126c0.572-0.043,0.922-0.842,0.718-1.604C229.046,58.912,228.403,58.131,227.207,57.958z
	 M225.647,52.532c0.073-0.716,0.702-0.97,1.261-0.828c0.516,0.13,0.334,0.692,0.193,1.096c-0.386,1.109-0.478,2.347-1.695,3.716
	C225.503,54.81,225.529,53.666,225.647,52.532z M223.369,56.3c-0.003,0.509-0.275,0.775-0.773,0.849
	c-0.609,0.09-0.681-0.374-0.813-0.771c-0.587-1.752-0.087-2.932,1.589-3.489C223.371,54.155,223.374,55.229,223.369,56.3z"/>
<path style="fill-rule:evenodd;clip-rule:evenodd;fill:#010101;" d="M369.176,67.107c-1.521-0.803-2.979-1.806-4.588-2.353
	c-2.016-0.684-2.196-1.655-1.414-3.475c0.799-1.855,1.066-4.032,3.796-3.942c0.971,0.031,1.918-0.096,1.446-1.383
	c-0.377-1.028-0.915-2.467-2.358-1.836c-1.337,0.584-2.65,0.561-3.999,0.671c-1.3,0.495-2.886-0.553-4.037,0.75
	c-1.172,0.287-2.583,1.128-3.47,0.747c-1.91-0.818-1.659,0.369-1.821,1.391c-0.102,0.639-0.236,1.276-0.292,1.918
	c-0.067,0.778-0.215,1.771,0.674,2.055c0.828,0.263,1.033-0.795,1.514-1.269c-0.288-1.536,0.31-2.434,1.845-2.831
	c1.945-0.504,3.852-1.16,5.895-1.16c0.908-0.524,1.881-0.385,2.871-0.307c-0.47,2.117-1.916,0.535-2.859,0.809
	c-1.539,1.892-3.882,1.831-5.952,2.332c-0.8,0.195-1.318,0.341-1.499,1.157c0.756,1.327,2.497,1.349,3.349,2.78
	c0.847,1.43,0.429,1.859-0.774,2.271c-1.659,0.563-3.332,1.083-4.999,1.624c2.398,0.153,4.772,0.232,6.979-0.615
	c1.04-0.399,1.719-0.25,2.498,0.419c2.11,1.806,4.468,2.556,7.199,1.536c0.289-0.108,0.547-0.191,0.598-0.513
	C369.85,67.429,369.491,67.273,369.176,67.107z M360.53,62.037c-0.731-0.42-1.217-0.9-1.568-1.708
	c0.799-0.391,1.582-0.772,2.49-1.215C361.512,60.339,360.803,61.091,360.53,62.037z"/>
<path style="fill-rule:evenodd;clip-rule:evenodd;fill:#010101;" d="M498.23,84.056c1.107-0.022,1.005-0.943,0.312-1.471
	c-0.538-0.411-0.676-0.779-0.707-1.41c-0.053-1.195-0.802-1.779-1.979-1.837c-1.314-0.066-2.427-0.396-3.357-1.514
	c-0.812-0.977-1.976-1.027-2.025,0.576c-0.039,1.185-0.588,1.265-1.416,1.387c-0.611,0.09-1.503,0.074-1.501,0.869
	c0.003,0.824,0.699,1.342,1.499,1.672c0.451,0.186,1.185-0.485,1.442,0.619c-1.448,0.524-2.876,1.054-4.427,1.201
	c-0.236,1.697,0.826,2.516,2.723,2.137c0.536-0.107,1.247-0.958,1.597-0.01c0.349,0.944-0.669,0.81-1.205,1.068
	c-0.461,0.22-1.34-0.008-1.298,0.826c0.039,0.781,0.574,1.289,1.365,1.479c0.403,0.1,1.044-0.497,1.179,0.404
	c0.118,0.78-0.563,0.666-0.962,0.889c-0.483,0.27-1.496-0.137-1.349,0.954c0.105,0.793,0.56,1.335,1.435,1.33
	c0.437-0.001,0.93-0.11,0.879,0.559c-0.037,0.494-0.502,0.407-0.829,0.473c-0.638,0.128-1.272,0.308-1.915,0.344
	c-1.203,0.065-1.462,0.697-1.182,1.737c0.727,0.708,1.523,1.018,2.544,0.606c1.189-0.477,1.477,0.089,1.421,1.225
	c-0.076,1.595-0.076,3.209,0.875,5.158c0.66-1.847,1.584-3.247,1.56-4.632c-0.038-2.055,0.772-2.622,2.555-2.563
	c0.43,0.013,0.874-0.022,1.293-0.121c0.731-0.173,2.078,0.322,1.806-1.114c-0.191-1.02-1.029-1.719-2.282-1.48
	c-0.779,0.149-1.568,0.247-2.356,0.328c-0.336,0.033-0.764,0.09-0.85-0.408c-0.082-0.482,0.057-0.832,0.62-0.926
	c0.426-0.069,0.832-0.271,1.258-0.318c0.792-0.087,1.219-0.496,1.111-1.278c-0.128-0.935-0.8-1.023-1.618-0.978
	c-0.445,0.027-1.131,0.825-1.375-0.196c-0.229-0.963,0.593-1.03,1.209-1.13c1.504-0.249,2.476-0.754,2.288-2.632
	C496.5,85.197,496.844,84.085,498.23,84.056z M493.622,86.268c-0.389,0.089-0.559-0.061-0.622-0.39
	c-0.117-0.607,0.138-0.919,0.728-1.045c0.31-0.067,0.563-0.087,0.585,0.3C494.343,85.68,494.08,86.067,493.622,86.268z
	 M493.73,82.736c-0.596,0.209-0.691-0.178-0.724-0.658c-0.078-1.209,1.002-1.022,1.616-1.263c0.656-0.257,0.508,0.424,0.57,0.749
	C495.249,82.687,494.332,82.524,493.73,82.736z"/>
<path style="fill-rule:evenodd;clip-rule:evenodd;fill:#020202;" d="M292.045,96.579c0.511-0.293,0.951-0.531,1.373-0.793
	c0.555-0.344,1.541-0.253,1.351-1.356c-0.083-0.466-0.298-0.883-0.724-1c-0.736-0.203-1.312,0.284-1.645,0.821
	c-1.486,2.405-2.549,1.011-3.827-0.538c1.315-0.315,2.37-0.518,3.392-0.825c1.535-0.466,2.479-1.574,2.608-3.138
	c0.085-1.02-0.255-2.281-1.669-1.86c-2.044,0.61-4.129,0.378-6.184,0.661c-2.697,0.373-3.485,1.328-2.338,3.879
	c0.645,1.434,0.073,2.032-0.797,2.867c-1.177,1.135-2.815,1.849-3.604,3.632c0.433-0.034,0.67,0.013,0.836-0.075
	c1.258-0.659,2.5-1.345,4.127-2.227c-0.473,1.065,0.475,2.211-0.71,2.654c-1.073,0.401-1.758,0.612-0.984,1.867
	c0.753,1.222,1.622,0.895,2.573,0.303c1.371-0.852,2.387-2.091,3.513-3.203c3.858,3.081,3.858,3.081,8.473,2.258
	C296.072,98.914,293.709,98.332,292.045,96.579z M286.08,91.621c-0.104-0.883,0.367-1.117,1.076-1.276
	c1.609-0.36,3.27-0.53,4.975-1.325c0.07,1.874-0.597,2.802-2.303,2.921c-0.785,0.056-1.564,0.229-2.34,0.376
	C286.832,92.441,286.203,92.663,286.08,91.621z M287.25,98.211c-0.979,0.122-0.475-0.791-0.739-1.122
	c0.205-0.576-0.185-1.479,0.647-1.422c0.797,0.059,1.424,0.84,1.496,1.604C288.727,98.061,287.809,98.144,287.25,98.211z"/>
<path style="fill-rule:evenodd;clip-rule:evenodd;fill:#010101;" d="M454.113,49.256c-0.022-1.855-1.078-2.594-2.858-2.194
	c-1.116,0.25-2.339,0.565-3.408,0.345c-1.491-0.308-1.809,0.494-2.018,1.523c-0.839,4.148-0.709,8.342-0.261,12.506
	c0.248,2.288,0.798,2.438,2.956,1.674c0.745-0.263,1.501-1.054,2.341-0.405c1.59,1.23,2.191,1.091,2.804-0.933
	c0.7-2.322,0.291-4.735,0.449-6.894C454.118,52.863,454.135,51.06,454.113,49.256z M450.975,59.579
	c-0.034,0.063-0.066,0.179-0.102,0.181c-1.015,0.024-2.213,1.643-2.971,0.148c-0.949-1.871-0.125-3.262,1.852-3.979
	c0.264-0.096,0.541-0.145,0.812-0.216c0.515-0.605,0.701-1.255,0.219-1.965c-0.809-1.19-1.836-0.23-2.747-0.163
	c-0.455-3.245-0.161-3.715,2.182-4.549c0.872-0.31,1.12,0.02,1.106,0.672C451.258,53,451.795,56.314,450.975,59.579z"/>
<path style="fill-rule:evenodd;clip-rule:evenodd;fill:#010101;" d="M202.822,63.98c-0.412-0.466-1.477-0.672-0.69-1.646
	c0.845-0.742,0.566-1.805,0.773-2.728c0.38-2.251,0.709-4.511,1.159-6.747c0.275-1.381-0.615-1.974-1.574-2.091
	c-1.063-0.135-0.783,0.938-0.832,1.612c-0.019,0.289-0.021,0.579-0.018,0.869c0.007,0.864-0.318,1.488-1.273,1.243
	c-0.942-0.241-0.327-0.923-0.2-1.39c0.491-1.81,1.148-3.578,1.127-5.496c-0.011-0.828-0.424-1.515-1.115-1.69
	c-0.829-0.212-0.955,0.69-1.182,1.264c-0.856,2.172-1.058,4.499-1.464,6.771c-0.229,1.295-0.641,2.136-2.048,2.28
	c-0.724,0.075-1.612,0.292-1.595,1.152c0.021,0.938,0.721,1.634,1.73,1.563c1.215-0.084,0.908,0.703,0.729,1.233
	c-0.655,1.954-0.485,3.482,2.037,3.959c-0.924,1.108-1.668,2.001-2.411,2.894c1.106-0.11,2.076-0.328,2.73-0.906
	c1.795-1.583,2.782-0.527,3.695,0.949c0.253,0.41,0.28,1.092,1.001,0.793c0.48-0.197,0.754-0.655,0.869-1.175
	C204.564,65.374,203.521,64.772,202.822,63.98z M200.04,60.911c-0.125,0.44-0.123,1.128-0.876,0.911
	c-0.6-0.173-0.979-0.666-0.891-1.304c0.199-1.48,0.264-3.104,2.707-3.216C200.646,58.601,200.363,59.762,200.04,60.911z"/>
<path style="fill-rule:evenodd;clip-rule:evenodd;fill:#010101;" d="M395.147,98.969c-0.321-0.312-1.218-0.628-0.741-1.061
	c2.212-2.006,0.846-4.492,1.006-6.739c0.104-1.459-0.452-2.863-2.013-3.527c-1.886,0.189-3.751,1.924-5.658,0.067
	c0.154-0.021,0.31-0.043,0.464-0.064c-0.111-0.044-0.223-0.071-0.333-0.132c-0.725,0.032-1.161,0.45-1.449,1.073
	c-0.456,1.974-0.483,3.978-0.453,5.989c0.037,2.563,0.964,5.28-1.21,7.494c-0.033,0.035,0.1,0.237,0.274,0.618
	c1.597-1.985,4.4-2.384,5.509-5.326c0.602,1.684,1.901,2.293,2.724,3.36c0.861,1.116,1.876,2.927,3.337,1.448
	C397.959,100.802,396.081,99.875,395.147,98.969z M389.152,96.479c-0.354-0.018-0.786,0.059-0.791-0.446
	c0-0.237,0.183-0.561,0.381-0.692c0.289-0.19,0.692-0.195,1.002-0.363c0.529-0.284,1.556-0.233,1.397-1.058
	c-0.199-1.017-1.15-0.467-1.805-0.467c-0.393,0-0.952,0.764-1.128-0.2c-0.103-0.562,0.372-0.676,0.819-0.768
	c0.348-0.071,0.689-0.19,1.023-0.315c0.522-0.198,1.308-0.343,1.138-1.04c-0.207-0.868-0.99-0.508-1.607-0.415
	c-0.396,0.058-0.761,0.431-1.293,0.104c0.766-1.302,2.171-1.268,3.345-1.59c0.823-0.226,0.871,0.505,0.88,1.104
	c0.02,1.009,0.039,2.019,0.042,3.027C392.56,95.713,391.578,96.604,389.152,96.479z"/>
<path style="fill-rule:evenodd;clip-rule:evenodd;fill:#010101;" d="M259.525,52.167c-0.518-0.066-1.04-0.159-0.977,0.684
	c0.025,0.346,0.979,0.914-0.131,1.047c-0.762,0.089-1.608,0.641-2.263,0.126c-0.304-0.24-0.21-1.084-0.171-1.646
	c0.08-1.195,1.093-0.677,1.681-0.768c2.085-0.325,3.993-2.1,3.942-3.876c-0.038-1.33-0.483-2.128-2.025-1.384
	c-1.343,0.646-2.729,1.246-3.285-0.975c-0.125-0.497-0.567-0.919-1.075-0.965c-0.563-0.049-0.94,0.428-1.026,0.941
	c-0.361,2.138-2.055,1.639-3.374,1.652c-0.854,0.011-1.86-0.465-2.214,0.648c-0.564,1.776,0.464,3.194,1.349,4.61
	c0.642,1.022,1.193,0.515,1.924,0.053c0.429-0.271,1.292-0.368,1.644-0.109c0.312,0.229,0.273,1.058,0.244,1.614
	c-0.044,0.901-0.844,0.594-1.334,0.661c-0.928,0.13-1.87,0.15-2.807,0.207c-0.604,0.036-1.213,0.173-1.443,0.764
	c-0.291,0.747,0.202,1.214,0.822,1.552c4.088,0.766,8.049-0.99,12.118-0.621C262.297,54.441,261.534,52.429,259.525,52.167z
	 M258.252,47.825c0.309-0.162,0.711-0.038,0.699,0.53c-0.377,0.885-1.035,1.477-2.057,1.59c-0.558,0.06-0.695-0.211-0.686-0.765
	C256.236,47.709,257.535,48.201,258.252,47.825z M252.384,50.39c-0.939,0.193-1.41-0.09-1.276-0.831
	c0.168-0.938,1.059-0.768,1.719-0.911c0.794-0.179,0.986,0.209,0.958,0.938C253.732,50.859,252.674,50.11,252.384,50.39z"/>
<path style="fill-rule:evenodd;clip-rule:evenodd;fill:#020202;" d="M130.346,55.765c-0.088-0.883-0.72-2.184-1.462-1.744
	c-1.62,0.962-3.646-0.403-5.005,1.159c-0.042,0.049-0.039,0.138-0.055,0.209c-0.801,3.688-1.297,7.408-1.17,11.193
	c0.021,0.622,0.084,1.611,0.74,1.549c0.74-0.07,1.604-0.632,1.46-1.75c-0.046-0.358-0.054-0.725-0.04-1.084
	c0.062-1.723,1.571-1.691,2.518-1.607c0.948,0.085,0.408,1.264,0.406,1.953c0,0.485-0.294,0.85-0.871,1.076
	c-1.213,0.474,0.175,0.944,0.113,1.48c-0.062,0.531,0.226,0.971,0.952,0.703c1.415-0.521,2.631-1.14,2.642-2.965
	c0.007-1.444,0.186-2.886,0.287-4.33C130.97,59.632,130.535,57.705,130.346,55.765z M125.232,57.358
	c0.156-1.121,1.064-1.581,1.934-1.756c0.899-0.182,0.503,0.769,0.631,1.021c0.302,2.026-1.268,0.745-1.818,1.274
	C125.681,58.187,125.141,58.029,125.232,57.358z M126.138,61.876c-0.422,0.035-1.193,0.737-1.274-0.405
	c-0.146-2.059,1.889-1.299,2.735-2.374C128.295,60.978,127.634,61.746,126.138,61.876z"/>
<path style="fill-rule:evenodd;clip-rule:evenodd;fill:#010101;" d="M215.553,46.959c-0.361-0.3-0.805-0.438-0.913-1.069
	c-0.129-0.764-0.83-1.249-1.582-1.162c-0.751,0.089-0.995,0.819-0.929,1.507c0.114,1.154-0.807,0.97-1.414,1.176
	c-0.611,0.21-1.13,0.229-1.15-0.68c-0.012-0.445-0.245-0.866-0.781-0.87c-0.579-0.005-0.875,0.396-1.107,0.882
	c-0.348,0.728-0.385,1.596-1.6,1.72c-1.762,0.182-1.326,1.552-0.414,1.987c1.523,0.729,1.25,1.813,1.232,2.986
	c-0.012,0.865-0.014,1.738,0.079,2.598c0.17,1.571,0.836,2.424,2.521,1.507c0.506,0.055,0.927-0.156,1.333-0.421
	c3.212-0.241,3.321-0.438,3.446-3.589c0.066-1.706-0.717-3.729,1.54-4.867C216.283,48.427,216.163,47.465,215.553,46.959z
	 M209.863,55.631c-0.555,0.171-0.82-0.029-0.81-0.567c0.036-1.745,1.749-0.957,2.468-1.745
	C212.324,55.41,210.88,55.315,209.863,55.631z M211.699,52.489c-0.373-1.586-2.867,1.198-2.564-1.348
	c0.127-1.057,1.472-1.044,2.104-0.897C212.42,50.518,211.541,51.642,211.699,52.489z"/>
<path style="fill-rule:evenodd;clip-rule:evenodd;fill:#020202;" d="M263.775,63.795c-0.419,0.225-1.424-0.373-1.209,0.633
	c0.147,0.692,0.041,0.895-0.555,0.987c-0.352,0.056-0.779,0.132-0.797-0.396c-0.018-0.535-0.343-1.201,0.279-1.559
	c0.415-0.238,0.951-0.262,1.436-0.384c1.266-0.603,1.812-1.786,2.363-2.958c0.33-0.702,0.314-1.397-0.219-2.01
	c-0.529-0.607-1.029-0.467-1.696-0.102c-1.171,0.641-1.828-0.06-2.216-1.133c-0.651-0.366-1.225-0.249-1.72,0.293
	c-0.457,0.502-1.006,0.799-1.696,0.734c-1.667-0.154-2.348,0.703-2.354,2.271c0.324,1.939,0.462,3.971,2.507,4.929
	c-1.086,0.352-2.75,0.173-2.461,2.24c0.473,0.669,0.945,1.216,1.936,0.991c1.678-0.38,3.421-0.515,5.055-1.022
	c0.973-0.301,1.361-0.313,1.554,0.754c0.075,0.42,0.212,1.16,0.893,0.959c0.423-0.126,0.835-0.571,1.077-0.978
	C266.773,66.66,265.917,65.038,263.775,63.795z M263.321,59.283c-0.194,1.001-0.542,1.875-1.568,2.317
	C261.307,59.438,261.307,59.438,263.321,59.283z M258.637,62.257c-0.762-0.028-0.521-0.682-0.602-1.106
	c-0.118-0.616,0.259-0.879,0.826-1.01c0.719,0.099,0.463,0.697,0.513,1.131C259.436,61.815,259.312,62.285,258.637,62.257z"/>
<path style="fill-rule:evenodd;clip-rule:evenodd;fill:#020202;" d="M252.687,64.595c2.314-1.092,2.788-1.793,2.993-4.448
	c-0.042-0.135-0.042-0.338-0.136-0.395c-1.739-1.079-3.546-2.007-5.584-2.38c-0.49,1.978-1.318,3.336-3.702,2.247
	c-0.634-0.289-1.042,0.146-1.266,0.792c-0.722,2.072,1.336,4.901,3.523,4.793c0.419-0.021,0.861-0.198,0.928,0.482
	c0.051,0.533-0.15,0.791-0.68,0.867c-0.852,0.122-1.7,0.27-2.547,0.425c-0.582,0.107-1.216,0.254-1.059,1.043
	c0.116,0.582,0.51,1.073,1.162,1.107c0.494,0.027,1.002-0.072,1.496-0.164c2.451-0.457,4.709-1.784,7.298-1.623
	C255.354,65.128,254.838,64.543,252.687,64.595z M248.676,63.315c-1.145-0.028-0.784-0.682-0.904-1.106
	c-0.178-0.616,0.389-0.879,1.242-1.01c1.08,0.099,0.695,0.697,0.771,1.131C249.877,62.874,249.69,63.344,248.676,63.315z
	 M251.877,62.692c-0.443-1.618-0.443-1.618,1.43-1.922C253.01,61.724,252.727,62.426,251.877,62.692z"/>
<path style="fill-rule:evenodd;clip-rule:evenodd;fill:#020202;" d="M320.246,83.14c-1.059,0.274-2.074,0.317-3.395,0.002
	c1.981-0.251-0.317-1.981,1.164-2.47c0.44-0.145,0.795-0.655,0.415-1.246c-0.331-0.519-0.871-1.057-1.395-0.801
	c-1.245,0.611-1.909,0.007-2.751-0.771c-0.468-0.433-1.849-0.49-1.591,0.438c0.599,2.157-1.11,1.43-1.747,1.485
	c-1.604,0.139-1.686,0.616-0.861,1.843c1.347,2.005,0.826,3.244-1.486,3.897c-0.824,0.234-1.623,0.558-2.432,0.839
	c-0.332,0.02-0.66,0.037-0.991,0.056c-0.08,1.231,0.161,2.176,1.726,1.811c0.614-0.145,1.209-0.373,1.812-0.562
	c0.001,0-0.074,0.068-0.074,0.068c0.951-0.617,2.312-0.238,3.094-1.27c2.857-0.796,5.744-1.404,8.729-1.361
	c0.754,0.011,1.826,0.425,1.737-0.85C322.129,83.23,321.136,82.909,320.246,83.14z M312.301,84.628
	c-0.186-0.821-0.358-1.58-0.539-2.393c1.359-0.292,2.68-0.575,4.307-0.928C314.979,82.861,314.25,84.374,312.301,84.628z"/>
<path style="fill-rule:evenodd;clip-rule:evenodd;fill:#040404;" d="M293.804,78.555c-1.861,0.102-3.721-0.043-5.584,0.409
	c-1.45,0.353-2.835,1.548-4.514,0.561c-0.317-0.188-0.763,0.29-0.97,0.7c-0.746,1.473,0.389,4.418,2.045,5.307
	c0.428-1.066,0.064-2.134-0.012-3.195c-0.043-0.616,0.259-0.943,0.774-1.13c0.356-0.13,0.605,0.105,0.566,0.405
	c-0.063,0.479,0.765,1.09-0.181,1.442c-1.066,0.397-1.205,0.911-0.201,1.571c1.964-0.433,3.92-1.166,5.895-1.223
	c2.401-0.066,3.623-0.99,3.581-3.414C295.188,78.983,294.83,78.501,293.804,78.555z M288.188,83.258
	c-0.775-2.808-0.775-2.808,1.238-2.844C289.078,81.215,288.751,81.963,288.188,83.258z M290.546,81.866
	c0.578-1.055,0.735-2.425,2.379-2.37C293.182,82.046,292.947,82.293,290.546,81.866z"/>
<path style="fill-rule:evenodd;clip-rule:evenodd;fill:#010101;" d="M473.169,92.821c-2.208-1.685-4.512-3.239-6.84-4.886
	c0.901-0.57,2.174-0.805,1.569-2.072c-0.504-1.056-1.471-1.111-2.58-0.677c-0.943,0.368-2.075,1.218-2.754-0.575
	c-0.362-0.962-1.258-0.396-1.514,0.116c-1.053,2.115-3.049,2.206-4.947,2.461c-1.439,0.193-1.42,1.013-0.615,1.69
	c1.304,1.1,0.48,1.713-0.208,2.576c-2.263,2.848-4.479,5.732-5.89,9.593c1.865-1.075,2.771-2.633,4.174-3.842
	c0.263,1.434,0.471,2.649,1.109,3.712c0.276,0.46,0.835,1.317,1.225,0.788c1.104-1.501,2.84-1.089,4.201-1.733
	c0.48-0.229,1.119-0.471,0.896-0.998c-0.605-1.434,0.244-2.683,0.329-4.017c0.109-1.698-0.592-2.486-2.228-2.124
	c-0.838,0.188-1.623,0.611-2.921,0.389c1.163-1.272,2.019-2.472,3.126-3.35c1.295-1.024,3.035-1.787,4.531-0.948
	c1.487,0.833,2.6,2.343,3.875,3.558c-1.247,0.26-2.174,0.826-3.178,0.179c-1.027-0.662-1.638-0.022-1.827,1.002
	c-0.428,2.271-0.224,4.464,0.958,6.509c0.301,0.52,0.58,0.934,1.335,0.813c1.057-0.17,2.14-0.196,3.211-0.279
	c1.351-0.107,2.396-0.189,1.792-2.193c-0.307-1.019,0.248-2.435,0.746-3.515c0.397-0.86,1.293,0.663,1.842,0.049
	c0.684-0.768,1.772,0.691,2.062-0.33C474.914,93.781,473.791,93.297,473.169,92.821z M456.592,95.69
	c0.596-0.197,1.193-0.394,1.794-0.59c0.393,0.821,0.056,1.485-0.099,2.182c-0.183,0.828-0.634,1.229-1.473,1.305
	c-0.713,0.063-0.872-0.324-0.888-0.899C455.904,96.94,455.479,96.059,456.592,95.69z M467.734,95.84
	c-0.321,1.006,0.066,2.521-1.576,2.671c-1.078,0.097-0.883-0.932-0.992-1.547c-0.239-1.341,0.637-1.755,1.755-1.883
	C467.586,94.918,467.953,95.153,467.734,95.84z"/>
<path style="fill-rule:evenodd;clip-rule:evenodd;fill:#020202;" d="M459.521,78.655c-1.278,0.304-2.715,0.761-3.812,0.323
	c-2.323-0.928-1.979,0.584-2.085,1.807c0.057,1.727,0.404,3.336,1.339,4.77c0.272,0.417,0.554,0.966,1.167,0.744
	c2.683-0.973,5.145-2.134,5.522-5.503C461.846,79.066,461.215,78.251,459.521,78.655z M457.08,83.527
	c-0.962,0.165-0.714-0.497-0.772-0.893c-0.305-2.072,1.671-1.215,2.54-1.852C458.892,82.166,458.671,83.251,457.08,83.527z"/>
<path style="fill-rule:evenodd;clip-rule:evenodd;fill:#030303;" d="M471.312,84.86c-0.126-0.685-0.586-1.32-1.19-1.444
	c-1.267-0.261-0.986-0.906-0.635-1.68c0.238-0.526,0.441-1.068,0.687-1.588c0.355-0.748,0.25-1.389-0.347-1.971
	c-0.539-0.531-1.043-0.52-1.749-0.214c-0.778,0.335-1.674,0.391-2.557,0.574c-1.685-0.817-1.868,0.388-1.874,1.544
	c-0.01,1.65,0.006,3.352,1.528,4.495c0.071,0.055,0.283-0.005,0.382-0.076c1.879-1.31,3.117-0.682,3.987,1.255
	c0.213,0.473,0.639,0.895,1.215,0.605C471.348,86.068,471.422,85.448,471.312,84.86z M466.274,82.233
	c-0.546,0.028-0.688-0.384-0.667-0.851c0.061-1.266,0.993-1.103,2.054-1.155C467.43,81.228,467.418,82.168,466.274,82.233z"/>
<path style="fill-rule:evenodd;clip-rule:evenodd;fill:#191919;" d="M311.582,90.769c0.273-1.033,1.438-0.645,1.981-1.248
	c0.953-0.17,1.43,0.255,1.493,1.196C313.906,91.352,312.767,92.521,311.582,90.769z"/>
<path style="fill-rule:evenodd;clip-rule:evenodd;fill:#010101;" d="M50.919,53.627c-3.176,1.025-6.481,0.249-9.679,0.858
	c-0.685,0.13-1.465,0.244-1.543-0.793c-0.084-1.113,0.789-0.857,1.433-0.95c4.757-0.691,9.219-6.535,8.634-11.256
	c-0.271-2.186-1.698-2.94-3.422-2.066c-1.791,0.908-3.254,0.547-4.968,0.127c1.229-2.505,3.085-3.159,5.504-2.884
	c1.377,0.157,2.799,0.107,4.183-0.032c1.393-0.141,2.813-0.492,3.414-1.993c0.377-0.946,0.019-1.755-0.713-2.511
	c-1.222-1.26-2.37-0.965-3.729-0.238c-1.181,0.634-2.773,1.669-2.275-1.248c0.152-0.892-0.539-1.722-1.691-1.866
	c-1.316-0.165-1.845,0.464-2.19,1.653c-0.701,2.403-2.055,4.265-4.681,4.844c0.088,2.713-1.34,4.123-3.899,4.58
	c-0.884,0.158-1.8,0.261-2.459,0.989c-0.225,0.53-0.702,0.64-1.131,0.46c-3.509-1.464-4.475-0.801-4.032,2.949
	c0.436,3.691,1.274,7.285,3.07,10.59c0.866,0.758,1.735,0.222,2.614,0.047c-1.149,0.306-2.31,0.595-3.327,1.248
	c-0.564,0.16-1.061,0.203-1.643-0.141c-1.214-0.719-7.139,2.053-7.324,3.424c-0.152,1.127,0.807,2.069,1.581,1.891
	c2.75-0.634,2.477,1.299,2.801,2.863c0.284,1.367,0.602,2.732,1.021,4.06c0.318,1.004,0.812,2.11,2.13,1.838
	c1.194-0.248,1.599-1.331,1.521-2.438c-0.136-1.968-0.441-3.922-0.614-5.889c-0.084-0.95-0.782-2.271,0.807-2.575
	c1.896-0.363,3.814-1.416,5.708-0.658c0.536,0.215,0.886,1.942-0.43,2.518c-0.6,0.262-1.387,0.052-2.071,0.164
	c-1.132,0.185-2.582,0.347-2.332,1.895c0.213,1.311,1.449,1.801,2.736,1.404c2.541-0.78,5.342-0.483,7.727-1.904
	c0.805-0.479,1.549-1.012,1.888,0.582c0.196,0.92,1.076,1.672,2.143,1.184c1.107-0.509,1.289-1.562,0.946-2.693
	c-0.375-1.24-1.009-2.327-1.946-3.231c-0.765-0.639-1.534-1.274-2.646-1.021c-0.533,0.253-0.541,1.117-1.295,1.104
	c0.248-0.22,0.5-0.436,0.721-0.682c0.638-1.009,1.847-0.13,2.594-0.783c1.862-0.047,3.577-0.76,5.33-1.365
	c1.077,7.42-0.389,9.774-7.176,10.746c2.39,0.567,1.344,4.67,4.739,3.164c1.921-0.854,4.588-0.019,5.761-2.576
	c1.546-3.369,2.123-6.927,1.642-10.555C54.124,54.764,53.389,52.83,50.919,53.627z M36.647,44.327
	c-0.177,0.474-0.638,0.98-1.101,1.179c-1.066,0.46-2.5,0.777-2.429,2.088c0.069,1.299,1.529,1.069,2.513,1.197
	c0.577,0.074,0.834,0.494,0.755,0.933c-0.16,0.876-0.978,0.91-1.64,0.903c-0.917-0.006-2.16,0.793-2.581-0.785
	c-0.267-0.996-0.431-2.021-0.571-2.703c0.039-2.363,2.322-4.134,4.257-3.683C36.381,43.578,36.812,43.893,36.647,44.327z
	 M40.345,44.111c-0.459-0.198-0.92-0.705-1.096-1.178c-0.162-0.436,0.267-0.75,0.794-0.872c1.926-0.451,4.199,1.318,4.238,3.683
	c-0.142,0.682-0.303,1.706-0.568,2.703c-0.419,1.578-1.656,0.779-2.569,0.786c-0.66,0.006-1.474-0.028-1.633-0.905
	c-0.079-0.438,0.178-0.857,0.75-0.932c0.979-0.129,2.436,0.102,2.503-1.197C42.834,44.889,41.407,44.572,40.345,44.111z"/>
</svg>
