<?xml version="1.0" encoding="utf-8"?>
<!-- Generator: Adobe Illustrator 18.0.0, SVG Export Plug-In . SVG Version: 6.00 Build 0)  -->
<!DOCTYPE svg PUBLIC "-//W3C//DTD SVG 1.1//EN" "http://www.w3.org/Graphics/SVG/1.1/DTD/svg11.dtd">
<svg version="1.1" id="圖層_1" xmlns="http://www.w3.org/2000/svg" xmlns:xlink="http://www.w3.org/1999/xlink" x="0px" y="0px"
	 viewBox="0 0 362.722 49.956" style="enable-background:new 0 0 362.722 49.956;" xml:space="preserve">
<g>
	<path style="fill-rule:evenodd;clip-rule:evenodd;fill:#010101;" d="M216.229,35.029c4.232,0.854,5.27-0.526,4.808-6.138
		c-3.896,0.607-7.792,1.219-11.689,1.812c-0.436,0.066-0.904,0.102-1.329,0.015c-0.499-0.101-1.171-0.232-1.196-0.847
		c-0.022-0.584,0.616-0.874,1.089-0.977c1.83-0.396,3.677-0.953,5.526-0.975c2.562-0.029,3.208-1.582,3.802-3.832
		c-3.028,0.799-5.618,2.422-8.662,1.897c-0.271-0.047-0.714,0.672-1.014,1.081c-1.287,1.755-2.557,3.52-3.812,5.296
		c-0.628,0.886-1.393,1.538-2.773,1.755c1.427-4.78,4.477-8.453,7.094-12.377c-0.15-0.109-0.242-0.228-0.35-0.245
		c-1.027-0.164-2.691,0.562-2.837-0.9c-0.122-1.219,1.603-1.566,2.605-1.633c3.181-0.205,5.114-2.09,6.826-4.445
		c0.394-0.541,0.858-1.061,1.388-1.459c0.66-0.497,1.462-0.527,2.021,0.141c0.578,0.689,0.107,1.23-0.47,1.695
		c-0.987,0.797-1.953,1.615-2.78,2.891c0.773,0,1.456,0.167,1.994-0.04c0.785-0.302,1.48-0.816,2.225-0.022
		c0.809,0.859,1.012,1.979,0.477,2.919c-0.667,1.175-0.506,1.722,0.524,2.638c1.305,1.156,0.419,2.616-0.301,3.865
		c0.525,0.607,1.207,0.369,1.677,0.225c2.266-0.698,2.823,0.508,2.865,2.393c0.037,1.732-0.023,3.447-0.535,5.128
		c-0.689,2.251-2.281,3.222-4.538,3.312c-0.909,0.038-1.593-0.103-1.761-1.231C217.008,36.342,216.574,35.765,216.229,35.029z"/>
	<path style="fill-rule:evenodd;clip-rule:evenodd;fill:#010101;" d="M186.376,25.031c-2.491,1.513-3.328,3.966-2.431,6.351
		c0.413,1.099,1.311,1.423,2.277,1.575c2.533,0.401,5.079,0.344,7.629,0.062c2.522-0.277,4.045-1.607,4.406-4.316
		c0.594,1.173,0.328,2.217,1.16,3.217c0.729,0.879,0.135,2.391-1.023,3.273c-1.391,1.062-3.025,1.299-4.671,1.383
		c-2.172,0.109-4.362,0.222-6.527,0.066c-3.49-0.25-5.427-2.268-5.854-5.715c-0.185-1.5,0.333-3.168-1.085-4.392
		c-0.282-0.243-0.222-0.841,0.184-0.946c1.284-0.338,1.04-1.48,1.371-2.333c0.461-1.194,1.269-1.431,2.245-0.601
		c0.339,0.287,0.057,1.328,1.086,0.706c0.754-0.458,1.665-0.601,1.703-1.804c0.041-1.345,0.273-2.686,0.441-4.025
		c0.084-0.709-0.028-1.746,0.998-1.665c0.99,0.081,1.821,0.721,1.84,1.921c0.015,0.891,0.004,1.783,0.004,2.659
		c0.745,0.366,1.109-0.282,1.604-0.542c1.051-0.552,1.877,0.009,2.702,0.531c0.834,0.532,0.536,1.258,0.355,2.008
		c-0.577,2.384-0.676,4.972-3.028,6.531c-0.633,0.42-1.408,1.055-1.992,0.367c-0.507-0.598-0.409-1.369,0.513-2.033
		c0.988-0.712,1.118-2.074,1.216-3.271c0.052-0.667,0.549-1.782-0.395-1.902c-0.9-0.112-1.824,0.55-1.966,1.739
		c-0.151,1.264-0.326,2.528-0.524,3.785c-0.16,1.021-0.175,2.438-1.588,2.27c-1.215-0.144-0.51-1.458-0.623-2.24
		C186.288,26.891,186.376,26.06,186.376,25.031z"/>
	<path style="fill-rule:evenodd;clip-rule:evenodd;fill:#010101;" d="M162.555,16.503c1.933,0.716,0.923,3.031,2.226,4.092
		c0.196,0.106,0.438,0.166,0.484,0.442c0.235,1.46,1.472,1.037,2.099,0.789c1.963-0.773,2.432,0.392,2.727,1.839
		c0.196,0.953,0.252,1.934,0.349,2.906c0.126,1.237-0.02,2.635,1.906,2.565c0.479-0.018,0.832,0.384,0.798,0.89
		c-0.029,0.454-0.238,0.952-0.775,0.955c-2.144,0.007-1.664,1.587-1.812,2.854c-0.134,1.148,0.017,2.334-1.063,3.282
		c-2.359,2.07-3.161,0.085-4.344-1.679c2.801,0.586,2.297-1.306,2.346-2.82c0.023-0.676-0.225-0.959-0.926-0.862
		c-0.894,0.125-1.79,0.215-2.69,0.282c-2.281,0.168-4.32,0.491-3.699,3.672c0.128,0.65-0.248,1.759-1.051,1.743
		c-0.755-0.015-1.067-1.021-1.058-1.775c0.017-1.349,0.031-2.382-1.703-2.925c-0.96-0.299-1.067-1.848,0.381-2.049
		c1.381-0.189,1.219-0.943,1.282-1.837c0.094-1.271,0.17-2.559,0.445-3.798c0.327-1.475,0.493-3.274,2.914-2.436
		c0.405,0.143,1.411,0.047,1.512-0.6c0.108-0.714,0.684-1.548-0.19-2.283c-1.018-0.852-1.283-1.961-0.71-3.211
		C162.174,16.376,162.36,16.371,162.555,16.503z"/>
	<path style="fill-rule:evenodd;clip-rule:evenodd;fill:#010101;" d="M31.521,21.902c1.417-2.167,2.518-4.573,4.556-6.277
		c0.729-0.611,1.445-1.891,2.58-0.843c1.17,1.079,0.205,2.016-0.562,2.863c-0.399,0.441-0.808,0.874-1.231,1.329
		c0.846,0.593,1.858,0.87,2.314,1.816c0.368,0.768,0.657,1.614-0.149,2.258c-0.797,0.638-1.491,0.195-2.209-0.347
		c-0.692-0.522-0.883-2.095-2.031-1.524c-1.227,0.609-1.158,1.947-1.14,3.289c0.017,1.228,0.364,1.209,1.251,0.97
		c1.112-0.301,2.68-1.029,2.995,0.577c0.281,1.441-1.57,1.184-2.502,1.649c-0.682,0.341-2.147-0.354-1.919,1.168
		c0.242,1.599-1.125,3.673,1.28,4.709c2.431,1.046,4.843,2.14,7.584,3.355c-5.975,1.969-10.084-0.646-13.811-4.191
		c-1.416-1.346-2.504-2.17-3.807,0.037c-0.421,0.715-1.248,1.045-2.065,1.255c-0.429-2.455,1.995-7.452,4.09-8.434
		c1.211-0.567,2.025,0.02,2.21,1.585c0.098,0.828-0.423,1.836,0.842,2.482c0.628-1.37,0.248-2.779,0.332-4.126
		C30.211,24.141,30.172,22.761,31.521,21.902z"/>
	<path style="fill-rule:evenodd;clip-rule:evenodd;fill:#010101;" d="M94.256,32.417c-0.041-1.391,0.68-2.287,1.354-3.157
		c3.034-3.915,6.095-7.81,9.182-11.686c0.472-0.595,1.04-1.589,1.974-0.703c0.737,0.699,1.566,1.575,0.859,2.748
		c-0.538,0.893-1.22,1.697-1.713,2.371c3.982,4.218,9.257,6.417,14.372,8.883c0.525,0.252,1.304,0.398,1.121,1.164
		c-0.24,0.996-1.014,0.544-1.656,0.423c-0.361-0.068-0.804-0.138-1.112,0.003c-4.02,1.84-6.521-1.068-9.253-3.026
		c-1.513-1.084-2.772-2.524-4.139-3.811c-1.008-0.949-1.657-1.051-2.81,0.169C100.061,28.3,98.166,31.493,94.256,32.417z"/>
	<path style="fill-rule:evenodd;clip-rule:evenodd;fill:#010101;" d="M50.586,20.8c0.273,0.063,0.348,0.107,0.4,0.088
		c1.419-0.511,3.296-1.723,3.933,0.438c0.495,1.678-1.772,1.826-2.923,2.479c-1.08,0.616-1.853,4.819-0.937,5.645
		c0.344,0.31,0.689,0.089,1.026-0.032c0.58-0.206,1.23-0.44,1.559,0.282c0.303,0.663,0.075,1.347-0.424,1.87
		c-2.212,2.324-5.061,3.689-7.858,5.109c-1.233,0.625-1.916-0.24-2.506-1.208c-0.673-1.099,0.055-1.468,0.867-1.801
		c0.88-0.358,0.522-0.901,0.261-1.454c-0.78-1.652-1.129-3.416-1.215-5.221c-0.036-0.758-0.281-1.879,0.934-1.905
		c1.074-0.024,1.432,0.819,1.505,1.858c0.08,1.115,0.242,2.246,0.56,3.314c0.182,0.605,0.066,1.736,1.177,1.58
		c1.019-0.144,1.057-0.967,1.032-1.886c-0.089-3.456-0.105-6.911-0.084-10.365c0.008-1.271,0.198-2.542,0.305-3.813
		c0.08-0.971,0.586-1.64,1.575-1.461c1.045,0.19,1.707,0.824,1.46,2.095C50.95,17.87,50.795,19.352,50.586,20.8z"/>
	<path style="fill-rule:evenodd;clip-rule:evenodd;fill:#010101;" d="M147.472,33.583c-0.007-3.214,1.565-5.023,2.665-7.005
		c0.553-0.998,0.849-1.624-0.631-1.932c-0.836-0.172-1.573-0.805-1.561-1.694c0.012-0.971,0.966-1.274,1.742-1.506
		c1.965-0.59,3.193-1.574,2.207-3.939c-1.018,0.101-2.088,1.299-3.6,0.283c2.037-2.176,4.554-3.417,7.075-4.615
		c1.083-0.514,1.411,0.529,1.712,1.249c0.327,0.784-0.058,1.262-0.875,1.466c-0.648,0.162-1.689,0.004-1.29,1.25
		c0.256,0.808-0.561,1.842,1.181,2.314c1.795,0.487,0.989,1.983,0.021,3c-0.599,0.627-1.519,0.94-1.547,2.061
		c-0.022,0.953-0.147,1.771,1.115,2.051c0.817,0.183,1.593,0.655,1.382,1.725c-0.17,0.861-0.886,0.964-1.586,0.874
		c-1.074-0.139-1.015,0.538-1.009,1.246c0.013,1.578,0.015,3.158-0.002,4.736c-0.009,0.746,0.039,1.505-0.368,2.194
		c-0.268,0.455-0.516,1.071-1.07,1.035c-0.732-0.045-0.825-0.788-0.84-1.352c-0.062-2.255-0.06-4.511-0.081-6.765
		c-0.002-0.342,0-0.684-0.525-1.348C150.343,30.324,149.098,31.737,147.472,33.583z"/>
	<path style="fill-rule:evenodd;clip-rule:evenodd;fill:#010101;" d="M139.559,35.479c3.505,0.702,3.53,0.699,3.581-2.658
		c0.038-2.472,0.008-4.944,0.008-7.405c-0.164-0.075-0.3-0.198-0.394-0.173c-4.152,1.135-3.975,1.125-4.223-3.062
		c-0.133-2.252,1.137-4.533-0.156-6.743c-0.037-0.063,0.089-0.285,0.192-0.356c1.674-1.137,3.604-0.817,5.438-0.839
		c1.369-0.017,1.652,1.275,1.729,2.262c0.471,6.056,0.966,12.118,0.14,18.187c-0.126,0.917-0.331,1.813-1.079,2.387
		c-1.143,0.878-2.355,2.606-3.484-0.113C141.085,36.424,140.323,36.104,139.559,35.479z"/>
	<path style="fill-rule:evenodd;clip-rule:evenodd;fill:#010101;" d="M60.635,21.185c0.897-0.105,1.464-0.732,2.175-1.041
		c0.726-0.316,1.481-0.201,1.937,0.59c0.421,0.732,0.466,1.443-0.332,1.952c-0.94,0.601-1.859,1.475-2.888,1.652
		c-2.1,0.368-2.234,1.782-2.304,3.373c-0.029,0.6-0.053,1.199-0.059,1.799c-0.039,3.818,1.678,5.062,5.378,4.033
		c2.021-0.561,1.194-2.535,2.083-3.73c0.748,1.033,0.842,2.328,1.438,3.427c0.729,1.343,0.131,2.69-1.335,3.327
		c-2.123,0.923-4.415,1.053-6.615,0.547c-1.953-0.446-2.887-2.159-3.154-4.008c-0.667-4.566-0.31-9.12,0.716-13.606
		c0.256-1.113,0.567-2.762,2.126-2.35c1.68,0.444,1.494,1.981,0.944,3.363C60.667,20.705,60.674,20.932,60.635,21.185z"/>
	<path style="fill-rule:evenodd;clip-rule:evenodd;fill:#020202;" d="M137.66,18.141c0.134,1.688-0.781,3.541-0.661,5.608
		c0.071,1.241-1.505,2.17-2.72,2.78c-1.323,0.666-1.699,1.617-1.604,3.049c0.143,2.173,0.068,4.36,0.097,6.54
		c0.011,0.791-0.132,1.753-0.888,1.869c-1.041,0.158-1.294-0.981-1.35-1.714c-0.502-6.838-0.517-13.671,0.51-20.471
		c0.092-0.606,0.216-1.349,1.322-0.795c0.669,0.334,1.629,0.208,2.44,0.12C137.297,14.862,137.753,15.261,137.66,18.141z"/>
	<path style="fill-rule:evenodd;clip-rule:evenodd;fill:#010101;" d="M125.523,22.559c-1.058,1.631-1.904,2.75-3.701,2.864
		c0.668-4.755,2.794-8.656,6.154-11.924c0.312-0.303,0.801-0.753,1.359-0.19c0.57,0.576,0.836,1.261,0.707,2.04
		c-0.215,1.303-1.083,2.274-1.823,3.296c-0.556,0.767-1.352,1.383-0.384,2.469c0.298,0.336,0.087,1.149,0.064,1.741
		c-0.146,3.897-0.25,7.794,0.044,11.69c0.032,0.444,0.048,0.905-0.038,1.338c-0.161,0.821-0.443,1.811-1.432,1.69
		c-0.811-0.097-0.934-1.088-0.937-1.827C125.508,31.55,125.523,27.35,125.523,22.559z"/>
	<path style="fill-rule:evenodd;clip-rule:evenodd;fill:#020202;" d="M176.895,23.09c-1.16,1.384-1.945,2.827-3.687,3.081
		c-0.494-0.842,0.009-1.653,0.276-2.329c1.262-3.209,2.93-6.218,5.059-8.944c0.38-0.486,0.78-1.32,1.576-0.9
		c0.807,0.427,1.361,1.177,1.289,2.194c-0.016,0.216-0.077,0.476-0.212,0.63c-1.982,2.244-2.312,4.927-2.344,7.797
		c-0.033,2.993-0.302,5.984-0.11,8.983c0.027,0.448,0.058,0.897,0.061,1.348c0.006,1.009-0.758,1.609-1.504,1.645
		c-0.816,0.038-0.746-0.935-0.793-1.579C176.231,31.136,176.402,27.268,176.895,23.09z"/>
	<path style="fill-rule:evenodd;clip-rule:evenodd;fill:#010101;" d="M22.558,35.733c-0.067,0.133-0.157,0.258-0.198,0.396
		c-0.259,0.85-0.422,2.109-1.467,1.945c-1.104-0.173-0.979-1.475-0.995-2.414c-0.028-1.776-0.009-3.555-0.009-5.527
		c-1.275,0.633-1.732,2.128-3.432,2.088c0.609-4.506,3.002-7.872,6.195-10.781c0.782-0.713,1.348-0.183,1.814,0.494
		c0.601,1.015,0.513,2.023-0.112,2.97C22.139,28.253,22.658,32.042,22.558,35.733z"/>
	<path style="fill-rule:evenodd;clip-rule:evenodd;fill:#FCFCFC;" d="M22.558,35.733c-0.398-3.934-1.472-7.955,1.435-11.475
		c0.576-0.698,0.576-1.498,0.475-2.324c0.251,0.148,0.502,0.297,0.753,0.445c0.332,0.377,0.681,0.909,1.166,0.227
		c0.819-1.149,1.759-1.426,2.992-0.646c0.606,0.383,1.259-0.464,1.901-0.013c0.079-0.018,0.159-0.031,0.241-0.046
		c-1.245,2.001-0.667,4.231-0.787,6.371c-0.051,0.866-0.009,1.734-0.009,3.052c-1.511-1.25-3.64-1.537-2.22-3.955
		c0.297-0.506,0.14-1.191-0.456-1.59c-0.712-0.477-1.148,0.114-1.52,0.51c-2.042,2.183-3.271,4.79-3.876,7.704
		C22.622,34.575,22.59,35.154,22.558,35.733z"/>
	<path style="fill-rule:evenodd;clip-rule:evenodd;fill:#040404;" d="M31.28,21.948c-1.284,1.551-2.369,0.662-3.394-0.357
		c-0.741,0.876-1.026,2.254-2.409,2.087c-0.777-0.096-0.021-0.88-0.257-1.298c0.763-2.104,1.538-4.203,2.682-6.137
		c0.347-0.588,0.522-1.665,1.465-1.307c0.922,0.349,1.405,1.528,0.868,2.256C28.673,19.303,30.058,20.563,31.28,21.948z"/>
	<path style="fill-rule:evenodd;clip-rule:evenodd;fill:#050505;" d="M17.916,22.817c0.019-3.781,2.281-6.088,4.933-8.131
		c0.435-0.336,1.036-0.432,1.366,0.154c0.316,0.562,0.91,1.244,0.377,1.856C22.609,18.974,20.72,21.372,17.916,22.817z"/>
	<path style="fill-rule:evenodd;clip-rule:evenodd;fill:#090909;" d="M75.456,34.291c-0.476-0.057-1.004-0.041-1.475-0.196
		c-0.79-0.262-1.195-0.901-1.198-1.723c-0.002-0.813,0.38-1.472,1.148-1.775c0.765-0.303,1.523-0.139,2.051,0.501
		c1.004,1.222,1.023,2.607,0.479,4.026c-0.562,1.465-1.435,2.535-3.534,2.529C73.902,36.389,75.711,36.096,75.456,34.291z"/>
	<path style="fill-rule:evenodd;clip-rule:evenodd;fill:#080808;" d="M165.265,21.037c-0.162-0.147-0.325-0.294-0.484-0.442
		c1.164-1.604,2.27-3.258,3.521-4.789c0.637-0.777,1.598-1.758,2.596-0.6c0.952,1.107-0.025,1.884-0.915,2.512
		C168.414,18.829,166.838,19.931,165.265,21.037z"/>
	<path style="fill-rule:evenodd;clip-rule:evenodd;fill:#0D0D0D;" d="M158.456,16.204c1.366,0.243,1.628,1.209,1.955,2.13
		c0.366,1.02,1.183,1.978,0.538,3.142c-0.273,0.492-0.735,0.447-1.12,0.075c-1.206-1.169-2.081-2.531-2.232-4.242
		C157.538,16.616,157.913,16.196,158.456,16.204z"/>
	<path style="fill-rule:evenodd;clip-rule:evenodd;fill:#080808;" d="M208.241,35.235c-0.125,0.623-0.127,1.685-1.121,1.476
		c-1.916-0.402-1.795-2.392-2.41-3.75c-0.287-0.627,0.227-1.34,0.992-1.489C206.475,31.32,208.208,33.885,208.241,35.235z"/>
	<path style="fill-rule:evenodd;clip-rule:evenodd;fill:#0B0B0B;" d="M162.555,16.503c-0.185,0.012-0.369,0.024-0.554,0.037
		c-0.554-0.021-1.35-0.27-0.626-0.788c1.424-1.015,2.923-2.028,4.719-2.364c0.844-0.16,1.561,0.079,1.7,0.965
		c0.134,0.844-0.638,1.025-1.275,1.248C165.229,16.05,163.768,15.729,162.555,16.503z"/>
	<path style="fill-rule:evenodd;clip-rule:evenodd;fill:#060606;" d="M208.284,13.794c1.406,0.278,2.118,1.402,2.536,2.674
		c0.234,0.708-0.261,1.471-1.046,1.316c-1.385-0.271-2.382-1.209-2.702-2.616C206.906,14.438,207.396,13.929,208.284,13.794z"/>
	<path style="fill-rule:evenodd;clip-rule:evenodd;fill:#141414;" d="M215.352,32.404c-0.094,0.714-0.358,1.64-1.026,1.511
		c-0.755-0.147-1.15-1.09-1.292-1.926c-0.107-0.644,0.058-1.363,0.796-1.322C214.788,30.718,215.045,31.643,215.352,32.404z"/>
	<path style="fill-rule:evenodd;clip-rule:evenodd;fill:#0C0C0C;" d="M211.743,33.401c-0.077,0.743-0.226,1.76-0.93,1.553
		c-0.915-0.271-1.093-1.492-1.41-2.366c-0.185-0.508,0.236-1.173,0.811-1.085C211.23,31.659,211.517,32.582,211.743,33.401z"/>
	<path style="fill-rule:evenodd;clip-rule:evenodd;fill:#141414;" d="M217.289,30.205c0.808,0.233,1.248,0.797,1.314,1.614
		c0.046,0.586,0.097,1.435-0.715,1.353c-1.023-0.104-0.854-1.263-1.17-1.963C216.547,30.825,216.652,30.294,217.289,30.205z"/>
	<path style="fill-rule:evenodd;clip-rule:evenodd;fill:#F7F7F7;" d="M209.834,23.843c1.534-2.079,2.535-4.239,5.231-4.755
		c1.335-0.255,1.242,0.108,0.911,1.063c-0.661,1.909-1.52,3.533-3.937,3.459C211.395,23.591,210.742,23.742,209.834,23.843z"/>
	<path style="fill-rule:evenodd;clip-rule:evenodd;fill:#ECECEC;" d="M164.998,29.431c-0.168-1.021,0.543-1.369,1.202-1.916
		c0.808-0.67,1.733-1.801-0.404-1.953c-1.093-0.079-0.658-0.707-0.646-1.233c0.027-1.145,1.008-0.935,1.658-1.1
		c0.962-0.243,0.633,0.57,0.656,0.991c0.053,0.975-0.055,1.963,0.061,2.926C167.773,29.186,166.952,29.911,164.998,29.431z"/>
	<path style="fill-rule:evenodd;clip-rule:evenodd;fill:#F4F4F4;" d="M160.694,26.888c-0.027,0.828,0.226,1.471,1.115,1.699
		c0.509,0.133,1.44-0.092,1.131,0.877c-0.365,1.148-1.525,0.564-2.308,0.735c-0.744,0.165-0.714-0.548-0.635-1.089
		c0.108-0.74,0.229-1.476,0.345-2.215C160.455,26.753,160.573,26.751,160.694,26.888z"/>
	<path style="fill-rule:evenodd;clip-rule:evenodd;fill:#F1F1F1;" d="M160.694,26.888c-0.117,0.004-0.236,0.008-0.352,0.008
		c-0.026-0.818,0.057-1.629,0.674-2.227c0.434-0.421,1.034-0.613,1.629-0.527c0.49,0.068,0.3,0.561,0.341,0.889
		c0.089,0.69-0.216,1.09-0.89,1.286C161.615,26.455,161.161,26.694,160.694,26.888z"/>
	<path style="fill-rule:evenodd;clip-rule:evenodd;fill:#F3F3F3;" d="M143.226,17.39c-0.108,0.862,0.36,1.852-1.077,1.769
		c-2.015-0.114-0.457-1.725-1.083-2.552c-0.586-0.771,0.805-0.859,1.242-0.869C143.653,15.704,142.948,16.905,143.226,17.39z"/>
	<path style="fill-rule:evenodd;clip-rule:evenodd;fill:#F4F4F4;" d="M143.174,20.856c-0.079,1.31,0.597,2.723-1.271,3.031
		c-0.842,0.141-0.966-0.382-1.061-1.058C140.593,21.065,141.751,20.931,143.174,20.856z"/>
	<path style="fill-rule:evenodd;clip-rule:evenodd;fill:#EBEBEB;" d="M132.939,19.485c-0.415-1.77,0.22-2.69,1.812-3.003
		c0.679-0.132,0.65,0.283,0.713,0.751C135.728,19.184,134.381,19.348,132.939,19.485z"/>
	<path style="fill-rule:evenodd;clip-rule:evenodd;fill:#F8F8F8;" d="M132.758,24.566c-0.189-1.804-0.615-3.542,2.114-3.288
		C135.299,22.991,135.039,24.326,132.758,24.566z"/>
	<g>
		<path style="fill-rule:evenodd;clip-rule:evenodd;fill:#010101;" d="M288.612,21.305c3.006-1.127,6.197-1.662,9.164-2.933
			c1.006-0.43,2.008-0.007,2.393,1.043c0.432,1.176-0.535,1.688-1.42,1.851c-1.764,0.326-2.228,1.393-2.234,3.012
			c-0.003,1.115,0.021,2.396-0.488,3.313c-1.179,2.121-0.056,3.134,1.506,4.125c1.706,1.085,3.408,2.179,5.088,3.306
			c0.346,0.232,0.781,0.614,0.609,1.084c-0.208,0.562-0.784,0.143-1.145,0.244c-3.391,0.945-5.679-0.912-7.861-3.016
			c-0.574-0.555-0.963-0.408-1.533-0.016c-3.136,2.158-6.626,2.504-10.459,1.973c0.834-1.002,1.965-0.897,2.889-1.236
			c1.473-0.539,3.027-0.878,4.451-1.513c0.969-0.43,2.332-0.96,2.243-2.188c-0.093-1.247-0.901-2.345-2.329-2.745
			c-0.839-0.235-1.628-0.774-1.273-1.768c0.332-0.926,1.145-1.094,2.038-0.581c0.323,0.185,0.704,0.273,1.015,0.477
			c0.68,0.445,1.33,0.937,2.039,1.44c0.509-0.6,0.537-1.334,0.65-2.037c0.24-1.51,0.197-2.506-1.867-1.697
			c-1.926,0.755-2.927-0.438-3.404-2.196L288.612,21.305z"/>
		<path style="fill-rule:evenodd;clip-rule:evenodd;fill:#010101;" d="M302.89,32.301c-0.081-1.457,0.729-2.391,1.44-3.31
			c2.982-3.86,6.005-7.691,9.05-11.504c0.471-0.588,1.017-1.612,1.966-0.761c0.759,0.68,1.59,1.562,0.912,2.734
			c-0.52,0.9-1.214,1.7-1.74,2.424c3.994,4.165,9.229,6.408,14.342,8.854c0.566,0.271,1.463,0.396,1.1,1.344
			c-0.31,0.807-0.985,0.318-1.553,0.275c-0.724-0.054-1.573-0.339-2.145,0.264c-0.83,0.874-1.625,0.441-2.471,0.161
			c-3.16-1.045-5.611-3.111-7.908-5.417c-3.221-3.233-3.274-3.264-6.318-0.047C307.664,29.326,305.953,31.526,302.89,32.301z"/>
		<path style="fill-rule:evenodd;clip-rule:evenodd;fill:#010101;" d="M288.682,21.246c-1.071,0.819-1.614,2.134-1.715,3.247
			c-0.096,1.051-0.69,1.312-1.207,1.838c-0.521,0.374-0.996,0.795-1.475,1.461c0.918-0.266,0.828-1.186,1.416-1.508
			c1.305,0.151,1.961,0.98,2.277,2.172c0.213,0.791-0.18,1.617-0.777,1.663c-2.916,0.222-4.947,2.399-7.572,3.245
			c-1.105,0.354-1.814,0.018-2.236-0.868c-0.617-1.296,0.709-1.207,1.316-1.554c0.58-0.332,1.235-0.552,1.881-0.74
			c1.092-0.318,1.154-1.146,0.858-1.947c-0.351-0.951-1.052-0.289-1.449-0.019c-0.883,0.6-1.21,0.041-1.556-0.581
			c-1.386-2.488-1.442-5.177-1.051-7.884c0.146-1.023,0.752-1.431,1.964-0.949c1.499,0.594,2.493,0.127,2.626-1.786
			c0.067-0.96-0.518-2.704,0.871-2.808c1.722-0.126,1.711,1.569,1.6,2.865c-0.081,0.928,0.213,1.151,1.109,1.104
			c3.086-0.17,3.245,0.02,3.045,3.111L288.682,21.246z"/>
		<path style="fill-rule:evenodd;clip-rule:evenodd;fill:#010101;" d="M264.58,28.104c0.429,0.499,0.806,0.341,1.143,0.229
			c0.65-0.216,1.252-0.17,1.504,0.514c0.335,0.899-0.409,1.123-1.037,1.405c-0.398,0.18-1.258-0.065-0.992,0.81
			c0.175,0.565,0.76,0.276,1.168,0.255c1.196-0.065,2.393-0.212,3.588-0.222c0.877-0.008,1.751,0.354,1.807,1.321
			c0.066,1.162-0.904,1.147-1.758,1.133c-0.525-0.009-1.05,0.015-1.574,0.002c-1.756-0.046-3.21,0.048-3.127,2.523
			c0.075,2.261-1.973,2.961-3.631,3.352c-1.516,0.356-1.678-1.251-2.127-2.524c0.816,0.059,1.48,0.245,2.079,0.119
			c0.977-0.206,1.169-1.072,1.153-1.938c-0.023-1.269-0.975-0.653-1.465-0.577c-1.102,0.171-2.162,0.578-3.259,0.796
			c-0.947,0.187-1.683-0.332-1.909-1.187c-0.272-1.026,0.746-0.878,1.31-1.101c1.695-0.667,3.64-0.48,5.348-1.389
			c-0.572-0.813-1.186-0.33-1.708-0.309c-0.755,0.032-1.454-0.097-1.591-0.884c-0.146-0.848,0.674-0.789,1.218-0.909
			c0.558-0.124,1.166-0.138,1.465-0.782c-0.958-0.703-3.011,1.058-3.056-1.035c-0.025-1.122,1.831-0.635,2.785-1.032
			c1.24-0.517,2.557-0.858,3.773-1.421c0.787-0.366,1.353-0.256,1.67,0.453c0.381,0.842-0.428,0.88-0.934,1.152
			C265.779,27.21,264.788,27.182,264.58,28.104z"/>
		<path style="fill-rule:evenodd;clip-rule:evenodd;fill:#020202;" d="M259.565,17.544c2.233,0.107,3.246-0.8,2.754-3.137
			c-0.166-0.791-0.149-1.909,0.916-1.932c1.086-0.021,1.631,0.896,1.572,2.022c-0.032,0.594-0.209,1.197-0.137,1.773
			c0.089,0.727,0.526,0.066,0.801,0.102c0.43-0.205,0.49,0.051,0.486,0.387c2.242,0.929,4.572,0.566,6.853,0.337
			c1.651-0.169,3.01,0.771,3.082,2.455c0.032,0.745-0.281,1.18-0.993,1.202c-1.393,0.045-2.79,0.014-4.429,0.014
			c0.68-0.596,1.248-1.092,1.817-1.59c-0.024-0.172-0.051-0.342-0.076-0.514c-0.914,0-1.828,0.009-2.741-0.002
			c-4.256-0.053-8.434,0.59-12.591,1.395c-1.12,0.219-1.97,0.681-1.765,2.074c0.051,0.352,0.019,0.794-0.154,1.088
			c-0.366,0.616-0.699,1.577-1.486,1.468c-0.801-0.109-1.039-1.045-0.988-1.814c0.085-1.343,0.277-2.678,0.443-4.014
			c0.049-0.407,0.297-0.782,0.726-0.65c1.754,0.531,3.324-0.688,5.033-0.484C258.945,17.483,259.236,17.417,259.565,17.544z"/>
		<path style="fill-rule:evenodd;clip-rule:evenodd;fill:#040404;" d="M346.321,25.829c0,3.532-0.08,7.068,0.038,10.597
			c0.05,1.454-0.419,1.802-1.768,1.696c-1.493-0.118-3.003-0.058-4.507-0.016c-0.77,0.022-1.062-0.229-1.041-1.025
			c0.017-0.717,0.344-0.91,0.965-0.861c0.074,0.006,0.15,0.004,0.226-0.002c3.897-0.318,3.897-0.319,3.897-4.258
			c0-5.638-0.004-11.275,0.004-16.914c0.003-0.844-0.315-1.856,1.219-1.811c1.512,0.045,0.932,1.109,0.941,1.768
			C346.348,18.61,346.321,22.22,346.321,25.829z"/>
		<path style="fill-rule:evenodd;clip-rule:evenodd;fill:#050505;" d="M234.371,25.538c0-3.607,0.044-7.218-0.025-10.823
			c-0.023-1.154,0.265-1.595,1.483-1.511c1.569,0.108,3.154,0.047,4.732,0.018c0.706-0.014,1.104,0.106,1.096,0.969
			c-0.008,0.882-0.471,0.91-1.136,0.943c-1.259,0.064-2.901-0.581-3.681,0.276c-0.922,1.013-0.305,2.726-0.316,4.129
			c-0.047,5.336,0.031,10.674-0.07,16.01c-0.016,0.845,0.994,2.566-1.096,2.483c-2.029-0.08-0.884-1.74-0.924-2.576
			C234.278,32.157,234.371,28.846,234.371,25.538z"/>
		<path style="fill-rule:evenodd;clip-rule:evenodd;fill:#050505;" d="M261.063,20.723c1.465-0.237,2.975-0.359,4.406-0.755
			c0.896-0.247,1.4-0.095,1.895,0.617c0.448,0.646,0.278,1.146,0.007,1.848c-1.117,2.877-3.959,2.863-6.125,3.15
			c-1.394,0.186-1.929-2.137-2.057-3.748C259.067,20.303,259.897,20.227,261.063,20.723z"/>
		<path style="fill-rule:evenodd;clip-rule:evenodd;fill:#0B0B0B;" d="M295.03,17.972c-0.965-0.919-2.182-1.689-2.441-3.199
			c-0.09-0.504-0.102-1.094,0.661-1.18c0.819-0.091,2.894,1.871,2.958,2.766C296.264,17.167,295.799,17.592,295.03,17.972z"/>
		<path style="fill-rule:evenodd;clip-rule:evenodd;fill:#0B0B0B;" d="M265.957,16.759c-0.161-0.129-0.323-0.258-0.486-0.387
			c0.896-0.986,1.791-1.973,2.688-2.956c0.345-0.38,0.675-0.906,1.275-0.436c0.534,0.418,1.015,0.946,0.912,1.68
			c-0.076,0.552-0.455,0.885-1.09,0.881C268.012,15.529,267.034,16.286,265.957,16.759z"/>
		<path style="fill-rule:evenodd;clip-rule:evenodd;fill:#0F0F0F;" d="M259.565,17.544c-0.292,0.06-0.582,0.119-0.875,0.18
			c-0.463-0.903-0.98-1.785-1.375-2.719c-0.22-0.523-0.435-1.232,0.375-1.5c0.564-0.188,0.898,0.223,1.242,0.676
			C259.717,15.218,259.848,16.33,259.565,17.544z"/>
		<path style="fill-rule:evenodd;clip-rule:evenodd;fill:#F2F2F2;" d="M281.745,21.02c0,1.273,0.002,2.381,0,3.492
			c-0.003,0.499-0.189,0.843-0.736,0.938c-0.334,0.06-0.536-0.041-0.736-0.306C279.385,23.987,280.118,21.614,281.745,21.02z"/>
		<path style="fill-rule:evenodd;clip-rule:evenodd;fill:#E3E3E3;" d="M283.889,24.275c0.06-1.107,0.139-2.213,0.178-3.322
			c0.031-0.863,0.592-1.29,1.297-1.139c0.738,0.159,0.338,0.829,0.203,1.29C285.247,22.218,285.049,23.386,283.889,24.275z"/>
		<path style="fill-rule:evenodd;clip-rule:evenodd;fill:#E7E7E7;" d="M285.702,26.284c0.129,1.451-0.189,2.57-1.973,2.612
			c-0.713-1.941,0.474-2.399,2.034-2.565C285.76,26.331,285.702,26.284,285.702,26.284z"/>
		<path style="fill-rule:evenodd;clip-rule:evenodd;fill:#EDEDED;" d="M265.133,21.734c-0.365,0.608-0.5,1.031-0.789,1.272
			c-0.636,0.531-1.404,0.832-2.242,0.606c-0.175-0.049-0.395-0.504-0.344-0.71c0.229-0.972,1.197-0.624,1.816-0.909
			C263.893,21.848,264.288,21.866,265.133,21.734z"/>
	</g>
</g>
</svg>
