<?xml version="1.0" encoding="utf-8"?>
<!-- Generator: Adobe Illustrator 16.0.0, SVG Export Plug-In . SVG Version: 6.00 Build 0)  -->
<!DOCTYPE svg PUBLIC "-//W3C//DTD SVG 1.1//EN" "http://www.w3.org/Graphics/SVG/1.1/DTD/svg11.dtd">
<svg version="1.1" id="圖層_1" xmlns="http://www.w3.org/2000/svg" xmlns:xlink="http://www.w3.org/1999/xlink" x="0px" y="0px"
	 width="1336px" height="768px" viewBox="0 0 1336 768" style="enable-background:new 0 0 1336 768;" xml:space="preserve">
<polygon style="opacity:0.6;fill-rule:evenodd;clip-rule:evenodd;fill:#999999;" points="262.066,569.35 461.35,379 523.938,379 
	581.888,336.82 625.451,378.73 664.662,445.476 731.885,543.076 790.434,612.318 347.529,656 236.5,656 "/>
<polygon style="opacity:0.2;fill-rule:evenodd;clip-rule:evenodd;fill:#808080;" points="639.908,778.844 821.691,304.642 
	870.607,280.387 931.953,199.673 972.043,304.106 1008.252,470.329 1070.254,713.315 1124.188,885.271 718.578,994.355 
	616.852,994.529 "/>
<polygon style="opacity:0.2;fill-rule:evenodd;clip-rule:evenodd;fill:#808080;" points="1020.588,653.045 1169.888,215 
	1216.777,215 1260.193,117.045 1292.83,213.32 1322.207,367.033 1372.569,591.979 1416.434,751.455 1084.615,852 1001.434,852 "/>
<polygon style="opacity:0.7;fill-rule:evenodd;clip-rule:evenodd;fill:#808080;" points="1025.391,650.04 1161.59,371 1204.364,371 
	1243.971,309.013 1273.743,370.412 1300.541,468.266 1346.484,611.385 1386.499,712.937 1083.801,777 1007.918,777 "/>
<polygon style="fill-rule:evenodd;clip-rule:evenodd;fill:#B3B3B3;" points="610.066,647.084 809.35,542 871.938,542 
	929.888,518.787 973.451,541.913 1012.662,578.719 1079.885,632.531 1138.434,670.811 695.529,695 584.5,695 "/>
<polygon style="opacity:0.3;fill-rule:evenodd;clip-rule:evenodd;fill:#808080;" points="1013.663,591.382 1108.467,185.978 
	1138.939,168.732 1165.81,96.355 1186.533,185.678 1205.187,327.832 1237.166,535.654 1265.02,683.038 1054.319,776 1001.5,776 "/>
<polygon style="fill-rule:evenodd;clip-rule:evenodd;fill:#CCCCCC;" points="919.741,515.457 1007.883,231 1034.434,205.05 
	1061.195,168.077 1080.463,230.73 1097.807,330.464 1127.538,476.279 1133.26,664.982 957.541,645 908.434,645 "/>
<polygon style="fill-rule:evenodd;clip-rule:evenodd;fill:#808080;" points="456.525,574.703 612.612,440 661.635,440 
	707.023,409.966 741.145,439.545 771.857,486.749 824.51,555.816 870.367,604.955 523.464,636 436.5,636 "/>
<polygon style="fill-rule:evenodd;clip-rule:evenodd;fill:#E6E6E6;" points="-19,460.671 122.762,444.078 258.672,473.012 
	428.634,532 528.723,532 641.768,556 768.22,556 871.84,570.541 925.88,537.288 1025.408,546.043 1071.059,600.046 
	1121.971,645.049 1195.914,669.524 1273.666,688 1360.873,688 1368.992,688 1369.5,767 -19,767 -19,498.034 "/>
</svg>
