<?xml version="1.0" encoding="utf-8"?>
<!-- Generator: Adobe Illustrator 18.0.0, SVG Export Plug-In . SVG Version: 6.00 Build 0)  -->
<!DOCTYPE svg PUBLIC "-//W3C//DTD SVG 1.1//EN" "http://www.w3.org/Graphics/SVG/1.1/DTD/svg11.dtd">
<svg version="1.1" id="圖層_1" xmlns="http://www.w3.org/2000/svg" xmlns:xlink="http://www.w3.org/1999/xlink" x="0px" y="0px"
	 viewBox="0 0 330 126.1" style="enable-background:new 0 0 330 126.1;" xml:space="preserve">
<path style="opacity:0.3;fill:#613AB3;" d="M54.5,53.6c0,0,5.6-38.9,28.7-6.5c0,0,7.4-27.4,32-26.9c24.6,0.5,31.1,23.6,31.1,30.6
	s-3.7,13.9-10.2,14.4c0,0-5.6,0.7-5.8-9c-0.2-9.7-4.6,0.9-3.3,3.9c1.3,3,2.7,7.7,8,8.3c5.3,0.7,16.5-0.5,15.8-13.2
	c-0.7-12.8-1.2-16.7-1.2-16.7s34.5-18.1,54,2.3c0,0,12.8,12.5,16,22.7c0,0,13,30.6,35.9,1.4c0,0,16.5-8.8,25.5,5.3l1.4,3.9
	c0,0-14.6-10.7-27.8,1.6c0,0-16.9,21.6-29,20.4c0,0-16,1.9-17.6-21.6c0,0-7-32.2-34.8-14.8c0,0-11.4,8.6-5.8,26.7
	c0,0,4.6,6,10.7,2.8c0,0,6.7-3.5,5.3-9.5c0,0-1.4-4.3-1.9-1.5c0,0,0.3,10-6.5,7.3c0,0-5.6-0.2-5.7-6.2c0,0,1.1-20.2,16.7-20.2
	c0,0,16.7-1.4,17.6,14.8c0,0,1.1,31.5-15.8,32.7c0,0-4.4,1.2-11.8-2.6c0,0,0.7,3.2-5.8,5.8c0,0-17.2,7.7-19.9-7l1.2-7.9
	c0,0-3.7,8.8-12.3,13.7c0,0-20.2,8.1-34.1-5.8c0,0-9.7-10.2-11.1-17.2c0,0-6.3-16.9-20.9-15.1c0,0-18.3,9.7-9.7,19.2
	c0,0,7.4,9.7,10.9,5.1c3.5-4.6,5.1-2.8,3-8.1c0,0-4.6-4.2-3.5-0.9l2.1,3.2c0,0-2.3,3.5-3.7,2.8c0,0-7,0.7-6.7-5.1c0,0-1.6-7,2.8-9.7
	c0,0,4.4-3.9,9.7-1.4c0,0,10.7,2.3,11.4,10.4c0,0,4.2,24.6-18.1,25.7c0,0-24.1,2.9-32.2-7.3c0,0-11.8-10.9-7-30.6
	C32,74,41,54,54.5,53.6z"/>
</svg>
