<?xml version="1.0" encoding="utf-8"?>
<!-- Generator: Adobe Illustrator 18.0.0, SVG Export Plug-In . SVG Version: 6.00 Build 0)  -->
<!DOCTYPE svg PUBLIC "-//W3C//DTD SVG 1.1//EN" "http://www.w3.org/Graphics/SVG/1.1/DTD/svg11.dtd">
<svg version="1.1" id="圖層_1" xmlns="http://www.w3.org/2000/svg" xmlns:xlink="http://www.w3.org/1999/xlink" x="0px" y="0px"
	 viewBox="0 0 176.7 114.2" style="enable-background:new 0 0 176.7 114.2;" xml:space="preserve">
<path style="opacity:0.3;fill:#61ACB3;" d="M45,54.2c0,0,3.1-21.5,15.9-3.6c0,0,4.1-15.1,17.7-14.9C92.2,36,95.8,48.9,95.8,52.7
	c0,3.8-2.1,7.7-5.6,7.9c0,0-3.1,0.4-3.2-5c-0.1-5.4-2.5,0.5-1.8,2.2c0.7,1.7,1.5,4.2,4.4,4.6c2.9,0.4,9.1-0.3,8.7-7.3
	c-0.4-7-0.6-9.2-0.6-9.2s19.1-10,29.9,1.3c0,0,7.1,6.9,8.8,12.6c0,0,7.2,16.9,19.9,0.8c0,0,9.1-4.9,14.1,2.9l0.8,2.2
	c0,0-8.1-5.9-15.4,0.9c0,0-9.4,11.9-16,11.3c0,0-8.8,1-9.7-11.9c0,0-3.8-17.8-19.2-8.2c0,0-6.3,4.7-3.2,14.7c0,0,2.6,3.3,5.9,1.5
	c0,0,3.7-1.9,2.9-5.3c0,0-0.8-2.4-1-0.8c0,0,0.2,5.6-3.6,4c0,0-3.1-0.1-3.2-3.4c0,0,0.6-11.2,9.2-11.2c0,0,9.2-0.8,9.7,8.2
	c0,0,0.6,17.4-8.8,18.1c0,0-2.4,0.6-6.5-1.4c0,0,0.4,1.8-3.2,3.2c0,0-9.5,4.2-11-3.8l0.6-4.4c0,0-2.1,4.9-6.8,7.6
	c0,0-11.2,4.5-18.8-3.2c0,0-5.4-5.6-6.2-9.5c0,0-3.5-9.4-11.5-8.3c0,0-10.1,5.4-5.4,10.6c0,0,4.1,5.4,6,2.8c1.9-2.6,2.8-1.5,1.7-4.5
	c0,0-2.6-2.3-1.9-0.5l1.2,1.8c0,0-1.3,1.9-2.1,1.5c0,0-3.8,0.4-3.7-2.8c0,0-0.9-3.8,1.5-5.4c0,0,2.4-2.2,5.4-0.8
	c0,0,5.9,1.3,6.3,5.8c0,0,2.3,13.6-10,14.2c0,0-13.3,1.6-17.8-4.1c0,0-6.5-6-3.8-16.9C32.6,65.5,37.6,54.5,45,54.2z"/>
</svg>
