<?xml version="1.0" encoding="utf-8"?>
<!-- Generator: Adobe Illustrator 16.0.0, SVG Export Plug-In . SVG Version: 6.00 Build 0)  -->
<!DOCTYPE svg PUBLIC "-//W3C//DTD SVG 1.1//EN" "http://www.w3.org/Graphics/SVG/1.1/DTD/svg11.dtd">
<svg version="1.1" id="圖層_1" xmlns="http://www.w3.org/2000/svg" xmlns:xlink="http://www.w3.org/1999/xlink" x="0px" y="0px"
	 width="265.718px" height="208.861px" viewBox="0 0 265.718 208.861" style="enable-background:new 0 0 265.718 208.861;"
	 xml:space="preserve">
<g>
	<rect x="3.491" y="6.411" style="fill:#F2F2F2;" width="256" height="198"/>
	<path style="fill:#C1272D;" d="M259.991,204.461c-5.334,0.307-10.666,0.598-16,0.829c-5.334,0.24-10.666,0.498-16,0.685l-16,0.597
		l-16,0.488c-5.334,0.175-10.666,0.321-16,0.429l-16,0.365c-5.334,0.137-10.666,0.228-16,0.298l-16,0.239
		c-5.334,0.066-10.666,0.191-16,0.207l-16,0.112l-16,0.112c-5.334,0.054-10.666,0.036-16,0.038l-16-0.089l-16-0.237
		c-5.333-0.06-10.666-0.196-16-0.331l-16-0.415L0,207.685l0.114-3.773l0.75-24.75c0.266-8.25,0.498-16.5,0.699-24.75
		c0.098-4.125,0.237-8.25,0.291-12.375l0.211-12.375c0.16-8.25,0.223-16.5,0.252-24.75c0.051-8.25-0.019-16.5-0.047-24.75
		c-0.029-4.125-0.011-8.25-0.081-12.375L2.03,55.411c-0.078-8.25-0.29-16.5-0.445-24.75L0.979,5.911L0.908,2.98l3.083-0.081
		l32-0.836c10.666-0.307,21.334-0.486,32-0.717l32-0.442l32-0.351l32-0.302c10.666-0.084,21.334-0.208,32-0.221
		c10.666-0.059,21.334-0.019,32-0.012c10.666,0.072,21.333,0.095,32,0.226l5.727,0.069l-0.061,5.597
		c-0.088,8.25-0.15,16.5-0.291,24.75l-0.369,24.75c-0.104,8.25-0.296,16.5-0.463,24.75l-0.536,24.75l-0.649,24.75l-0.774,24.75
		l-0.911,24.75l-0.523,12.375l-0.623,12.895L259.991,204.461z M259.413,203.331l-0.57-11.795l-0.523-12.375l-0.911-24.75
		l-0.774-24.75l-0.649-24.75l-0.536-24.75c-0.167-8.25-0.359-16.5-0.463-24.75l-0.369-24.75c-0.141-8.25-0.203-16.5-0.291-24.75
		l5.666,5.666c-10.667,0.131-21.334,0.153-32,0.226c-10.666,0.007-21.334,0.047-32-0.012c-10.666-0.013-21.334-0.137-32-0.221
		l-32-0.302l-32-0.351l-32-0.442c-10.666-0.23-21.334-0.41-32-0.717l-32-0.836l3.012-3.012l-0.605,24.75
		c-0.155,8.25-0.367,16.5-0.445,24.75L5.793,67.786c-0.07,4.125-0.052,8.25-0.081,12.375c-0.028,8.25-0.098,16.5-0.047,24.75
		c0.029,8.25,0.092,16.5,0.252,24.75l0.211,12.375c0.054,4.125,0.193,8.25,0.291,12.375c0.201,8.25,0.434,16.5,0.699,24.75
		l0.75,24.75l-3.877-3.877l16-0.415c5.334-0.135,10.667-0.271,16-0.331l16-0.237l16-0.089c5.334,0.002,10.666-0.016,16,0.038
		l16,0.112l16,0.112c5.334,0.016,10.666,0.141,16,0.207l16,0.239c5.334,0.07,10.666,0.161,16,0.298l16,0.365
		c5.334,0.107,10.666,0.254,16,0.429l16,0.488l16,0.597c5.334,0.187,10.666,0.444,16,0.685
		C249.132,202.756,254.272,203.037,259.413,203.331z"/>
</g>
</svg>
