<?xml version="1.0" encoding="utf-8"?>
<!-- Generator: Adobe Illustrator 18.0.0, SVG Export Plug-In . SVG Version: 6.00 Build 0)  -->
<!DOCTYPE svg PUBLIC "-//W3C//DTD SVG 1.1//EN" "http://www.w3.org/Graphics/SVG/1.1/DTD/svg11.dtd">
<?xml-stylesheet type="text/css" href="../../css/svg.css" ?>

<svg version="1.1" id="hand" xmlns="http://www.w3.org/2000/svg" xmlns:xlink="http://www.w3.org/1999/xlink" x="0px" y="0px"
	 viewBox="-554.1 886.6 485.8 446.1" enable-background="new -554.1 886.6 485.8 446.1" xml:space="preserve" >
<g>
	<filter id="pictureFilter" >
    <feGaussianBlur stdDeviation="5" />
  </filter> 
	<path fill="none" d="M-554.1,1086.3c-7.3,17.3-15,34.6-21.2,52.3c-8.9,25.3-13.2,51.9-14,78.8c-0.3,11.4-0.6,23.1,1.3,34.3
		c2,11.7,6.4,22.9,10.3,34.2c1.3,3.7,5,6.5,6.4,10.2c3,8.1,4.6,16.8,7.8,24.9c2.6,6.4,5.7,12.5,9.4,18.1v-6.6V1086.3z"/>
	<path fill="#F5C26E" d="M-75.7,1008.1c-6.7,0.8-13.5,2.3-19.6,4.9c-12.5,5.4-25,10.9-36.7,17.9c-24.4,14.5-48.5,29.7-72.4,45.2
		c-14.5,9.4-28.3,19.9-43.2,30.5c0.7-5.1-6.9-9,0.4-14.1c9.2-6.3,18-13.2,26.8-20.1c39.8-31.3,78.8-63.6,112.2-101.9
		c6.7-7.6,11.7-16.9,16.3-26c3.1-6.1,0.2-9.4-6.8-9.3c-2.2,0-4.4,0.1-6.4,0.6c-19,4.1-36.4,12.5-53.1,21.7
		c-28,15.4-55.4,32.1-82.8,48.7c-13.5,8.2-26.3,17.5-39.5,26.3c-4.7-7.8-9.2-15.2-13.8-22.6c1.3-1.2,2.4-2.5,3.7-3.4
		c30.5-22,60.6-44.5,88.1-70.1c10.3-9.6,21.1-19.1,27-32.5c3.5-7.9,1.1-12.1-7.6-11.3c-9.2,0.9-18.8,2-27.3,5.5
		c-27,10.9-54.3,21.6-80.1,34.9c-32.7,16.9-64.2,36.2-96,54.8c-16.7,9.7-33.1,19.8-49.6,29.9c-4.6,2.8-8.9,6.2-14.1,10
		c0.6-3.1,1.1-5.1,1.4-7c2.5-19.2,4.8-38.4,7.6-57.5c3-20.6,3.4-41.1-1.6-61.3c-2.6-10.7-6.3-16-18.3-15c-4.7,0.4-9.3,2.2-14.1,2.9
		c-7.6,1-11,5.5-12.1,12.7c-0.3,2.4-1.4,4.7-2.1,7c-8.7,25.9-16.9,52-26.1,77.7c-9.8,27.2-20.4,54.2-31.1,81.1
		c-2.4,6.2-5,12.3-7.6,18.4v246.3h232.3c4.5-3.4,9-7,13.4-10.6c7.8-6.5,14.8-14.1,23.1-19.7c21.6-14.5,44.5-27.3,65.6-42.5
		c26.7-19.3,52.6-39.7,77.9-60.9c11.7-9.8,21.3-22.2,31.4-33.8c1.7-1.9,1.3-5.6,1.8-8.4c-2.9-0.2-5.7-0.4-8.6-0.4
		c-1,0-2,0.3-2.9,0.6c-9.7,4-19.5,7.6-29,12.1c-16.9,7.9-33.6,16.3-50.4,24.4c-11.2,5.4-22.6,10.6-33.2,15.5c0-8,0.4-15.8-0.1-23.4
		c-0.4-5.3,1.2-8.5,5.4-11.9c25.1-20.5,50.7-40.6,74.6-62.4c21.7-19.7,42.1-41,62-62.6c8.6-9.4,14.9-21.1,21.3-32.2
		C-66.5,1011.2-69.5,1007.3-75.7,1008.1z"/>
</g>
<script type="text/javascript" xlink:href="../../js/svg.js" ></script>
</svg>