<?xml version="1.0" encoding="utf-8"?>
<!-- Generator: Adobe Illustrator 18.0.0, SVG Export Plug-In . SVG Version: 6.00 Build 0)  -->
<!DOCTYPE svg PUBLIC "-//W3C//DTD SVG 1.1//EN" "http://www.w3.org/Graphics/SVG/1.1/DTD/svg11.dtd">
<svg version="1.1" id="圖層_1" xmlns="http://www.w3.org/2000/svg" xmlns:xlink="http://www.w3.org/1999/xlink" x="0px" y="0px"
	 viewBox="0 0 336 105" style="enable-background:new 0 0 336 105;" xml:space="preserve">
<path style="fill-rule:evenodd;clip-rule:evenodd;fill:#C1272D;" d="M207.4,75c-0.1-1.6-0.2-2.9-0.2-4.1c0-1.2-0.4-1.3-1.4-1
	c-1.5,0.5-3,0.9-4.5,1.4c-0.8,0.3-1.5,0.3-2.1-0.3c-1-1-0.8-1.7,0.5-2.1c2.1-0.7,4.3-1.1,6.5-1.4c0.7-0.1,1.2-0.2,0.9-1
	c-0.3-0.8-0.9-0.3-1.2-0.1c-0.8,0.3-1.5,0.9-2.2-0.2c-0.8-1.4-1.6-2.8-1.2-4.5c0.1-0.6,0.7-0.4,1.1-0.3c1.3,0.4,2.4-0.3,3.6-0.8
	c-1.7,0-2.2-1-2.2-2.3c0-0.6-0.4-0.9-1-0.8c-0.4,0.1-0.9,0-1.3-0.3c-0.7-0.5-1.2-1.1-1.1-1.9c0.1-0.9,1-0.6,1.6-0.6
	c0.9-0.1,1.8,0,1.7-1.4c0-0.5,0-1.5,0.8-1.5c0.8,0,1.6,0.6,1.6,1.4c0,1.3,0.8,1,1.5,1c0.9,0,1.5-0.2,1.4-1.2c0-0.6,0.3-1.2,0.9-1.4
	c0.7-0.2,1.3,0.4,1.5,1c0.3,0.7,0.5,1.1,1.3,1.1c0.6,0,1.2,0.5,1.2,1.2c0,0.8-0.6,1.2-1.3,1.2c-1.5,0-2.4,0.6-2.5,2.2
	c-0.1,1.3-1.4,0.9-1.9,1.6c0.5,1.5,1.7,0.7,2.6,0.6c1,0,1.9-0.1,2.5,0.8c0.6,0.9-0.4,1.5-0.7,2.2c-0.5,1.5-1.5,2.1-3.1,2.1
	c-0.7,0-1.3,0.3-1.2,1.1c0.2,1,0.9,0.5,1.4,0.4c1.7-0.4,3.4,0,5.1-0.5c0.9-0.3,1.8,0.5,2.4,1.3c0.3,0.4,0.1,0.9-0.2,1.2
	c-0.4,0.6-0.9,0.6-1.5,0.4c-2.1-0.6-4.2-0.2-6.3-0.1c-0.8,0.1-1.2,0.3-1.1,1.1C209.8,72.2,209,73.5,207.4,75z"/>
<path style="fill-rule:evenodd;clip-rule:evenodd;fill:#010101;" d="M97.4,67.1c-1.1,0.2-1.5,0.8-1.5,2c0,1.5-0.3,3.2-2,4.1
	c-0.3-1,0.6-1.7,0.5-2.6c-0.8-0.3-1.6,0.9-2.2,0.1c-0.5-0.7,0-1.6,0.1-2.4c0.6-0.6,1,0.3,1.6,0.3c-0.5-0.6-1.3-0.4-1.6-1.1
	c-0.2-0.6,0.2-0.9,0.6-1.2c0.7-0.5,0.9-1.1-0.1-1.5c-0.8-0.4-1-0.9-0.2-1.5c0.5-0.3,0.9-0.1,1.1,0.4c0.2,0.2,0.5,0.4,0.6,0.4
	c1.3-1.5,3.7-1.6,4.6-3.7c0.1-0.4,0.5-0.6,0.2-1c-0.4-0.6-0.3-1.2-0.2-1.9c0.3-6.1,0.5-4.7,5.9-5c1.2-0.1,1.6,1.1,1.6,2
	c0.5,5.3,0.8,10.6,0.1,15.8c-0.2,1.6-1.4,2.4-2.6,3.1c-0.4,0.3-1.1,0.3-1.2-0.4c-0.1-0.9-1.1-1-1.4-1.7c2.7-0.2,2.8-0.2,2.8-2.8
	c0.1-3.1,0-6.1,0-9.1c-2.2,0.1-4,0.8-5.2,2.7c-0.2,0.3-0.7,0.4-0.3,0.9c0.4,0.5,0.8,0.2,1-0.2c0.1-0.2,0.2-0.3,0.4-0.4
	c0.4-0.3,0.7-0.9,1.3-0.5c0.5,0.4,0.1,0.9-0.2,1.3c-0.2,0.2-0.4,0.4-0.6,0.7c2,1.2,2.1,1.7,1,2.5c-0.8,0.6-1.9,0.6-2.8,0.8
	C98.2,67.3,97.8,67.3,97.4,67.1z"/>
<path style="fill-rule:evenodd;clip-rule:evenodd;fill:#010101;" d="M143.2,57c0.6,0.1,1,0.4,0.8,1.1c-0.1,0.5-0.5,0.7-1,0.8
	c-0.6,0.1-1.3,0.2-2,0.3c0.9,1.5-0.2,2-1.1,2.7c0.5,0.3,0.9,0,1.3-0.1c0.5-0.1,1,0.1,1.2,0.7c0.2,0.6-0.2,1-0.7,1.2
	c-0.8,0.3-1.6,0.5-2.3,0.8c-0.5,0.2-0.8,0.6-0.6,1c0.2,0.6,0.6,0.1,0.9,0.1c0.7-0.1,1.6-0.9,2,0.2c0.4,1.1-0.7,1.3-1.4,1.7
	c-0.4,0.1-0.7,0.2-1.1,0.4c-0.4,0.2-0.5,0.5-0.4,0.9c0.2,0.6,0.6,0.3,0.9,0.2c0.6-0.2,1.2-0.4,1.8-0.5c0.4-0.1,1-0.7,1.3,0
	c0.2,0.6,0,1.2-0.6,1.5c-0.7,0.4-1.5,0.8-2.2,1.1c-1.5,0.6-3,1.1-4.4,1.9c-1,0.6-1.9,0.2-2.3-0.8c-0.5-1.2,0.6-1.2,1.2-1.5
	c0.3-0.2,0.7-0.3,1.1-0.4c0.6-0.2,1.4-0.4,1.1-1.2c-0.3-1-0.9-0.2-1.4-0.1c-0.8,0.1-1.4-0.2-1.6-1c-0.2-1,0.6-1.1,1.3-1.2
	c0.4-0.1,0.9-0.1,1.3-0.2c0.5-0.1,0.5-0.5,0.5-0.9c0-0.6-0.5-0.4-0.8-0.4c-0.6,0.1-1.1,0.3-1.7,0.3c-0.7,0.1-1.3-0.2-1.4-0.9
	c-0.2-0.9,0.5-1.1,1.1-1.2c0.6-0.1,1.1-0.1,1.7-0.2c0.1-0.8-0.6-1.3-0.7-2c-0.1-0.9-0.5-0.9-1.2-0.7c-1,0.3-1.9,0.1-2-1.1
	c-0.2-1.3,0.9-1.2,1.7-1.2c2,0.1,2.9-0.6,2.5-2.7c-0.1-0.7,0.1-1.5,0.3-2.3c0.1-0.5,0.2-1.3,1-1c0.6,0.2,0.8,0.8,0.7,1.4
	c-0.3,1.3-0.6,2.6-0.2,4.1c1.1-1,0.8-2.3,1-3.4c0.1-0.8-0.3-2.2,0.8-2.2c1.5,0,1.1,1.4,1.1,2.4c0,0.2,0,0.4,0,0.6
	c-0.4,0.9,0.2,1.2,0.8,1.6C141.9,57,142.6,56.8,143.2,57z"/>
<path style="fill-rule:evenodd;clip-rule:evenodd;fill:#010101;" d="M77.2,71.7c-1.1,0.9-2.2,1.6-3.7,1.8c0.3-1.5,0.5-1.9,2.6-4.1
	c1.2-1.3,2.3-2.5,3.4-3.7c-1.8-0.3-2.4,1.7-3.6,2.7c-1.1,1-1.9,2.4-3.8,2.5c0.5-2,2.3-2.9,3.5-4.6c-1.7,0.2-2.5,1.9-4.2,1.6
	c0.5-1.6,2-2.5,3-3.6c-0.7-0.4-1.5,0.4-2.2-0.3c-0.5-0.2-0.7-0.5-0.4-1c0.2-0.8,0.9-0.8,1.5-0.9c3.5-0.6,7-1,10.6-1.1
	c0.3,0,0.7,0,0.9,0c0.7,0.2,1.1,0.7,1,1.4c-0.1,0.7-0.7,0.6-1.2,0.6c-2.3-0.1-4.6,0-6.9,0.3c-0.4,0.1-1.2-0.1-1,0.7
	c0.1,0.6,0.7,0.3,1.1,0.3c1.6-0.1,3.1-0.2,4.7-0.3c1.4-0.1,1.8,1,1.8,2c0,2.5-0.7,4.8-2.2,6.7c-0.8,1.1-2.3,1.1-3.5,1.2
	c-1,0.1-0.8-1.2-1.2-1.9c2.7-0.5,3.6-2.6,4.1-4.7C80.1,68.6,79,70.5,77.2,71.7z"/>
<path style="fill-rule:evenodd;clip-rule:evenodd;fill:#C1272D;" d="M179.6,59.3c1.5-1.1,1.9-2.9,2.9-4.4c-0.2-0.2-0.3-0.3-0.4-0.3
	c-0.7,0-1.4,0.9-2.1,0.1c-0.2-0.3-0.5-0.7-0.3-1.1c0.5-0.9,1.4-0.4,2.1-0.4c0.6,0,1.1-0.1,1.6-0.4c0.6-0.3,1.5-0.2,1.7,0.4
	c0.3,1.2,1.3,1.1,2,1.5c0.8-0.3,0.5,0.6,0.9,0.8c1.6,2.2,2.8,0.6,4-0.4c0.4-0.3,0.6-0.9,1.2-0.7c0.5,0.2,0.8,0.7,0.8,1.2
	c0.1,0.7-0.4,1-1,1.2c-0.7,0.3-1.4,0.6-2.1,1c1.7,1.6,3.9,2.1,5.6,3.4c0.5,0.3,1.5,0.5,1.2,1.2c-0.3,0.7-1,0-1.5,0.1
	c-3.8,1-5.7-1.9-8.1-3.9c-1.7,2.1-4.6,2.5-6,0.7c-2.1,2.4-3.8,5.4-7.3,6.7C176.6,63.6,178.6,61.8,179.6,59.3L179.6,59.3z"/>
<path style="fill-rule:evenodd;clip-rule:evenodd;fill:#010101;" d="M149.9,58c0.5-0.1,0.9-0.2,1.4-0.2c0.8,0.1,1.3,0.5,1.5,1.3
	c0.1,0.8-0.4,1.3-1.1,1.3c-1.6,0.1-1.7,1.1-1.6,2.3c0.1,2.4,0.1,4.8,0,7.3c0,1.5-2.8,3.9-4.2,3.5c-1.1-0.3-1.2-1.9-2.5-2.6
	c4,0.3,4,0.3,4.1-3.5c0-1.6,0.1-3.2,0.1-4.8c0-0.9,0-1.5-1.2-1.1c-0.6,0.2-1.3,0.2-1.9,0.2c-0.9,0-1.4-0.7-1.5-1.5
	c-0.1-0.8,0.7-0.9,1.3-1c3.2-0.7,3.2-0.7,3.1-4.1c0-0.3-0.1-0.6,0-1c0-0.6-0.4-1.5,0.4-1.7c0.9-0.2,1.4,0.6,1.5,1.4
	C149.6,55.3,149.7,56.7,149.9,58z"/>
<path style="fill-rule:evenodd;clip-rule:evenodd;fill:#010101;" d="M154.8,71.2c3.7-1.2,1.7-3.9,2.8-5.8c-1.3,0.2-1.9,0.9-2.6,1.4
	c-0.5,0.3-0.9,0.9-1.4,0.2c-0.5-0.6-0.9-1.4-0.1-2c0.6-0.5,1.3-1,2.1-1.4c1.4-0.6,2.1-1.5,1.5-3.3c-1.2,0.5-2.4,0.4-3.1-1
	c-0.4-0.8-0.5-1.5,0.7-1.6c2.1-0.2,3-1.3,2.5-3.5c-0.2-0.8-0.3-1.9,0.8-2c1,0,1.6,0.9,1.6,1.9c0,1,0.2,1.5,1.1,2.1
	c0.8,0.5,0.5,1.5-0.4,2c-1.4,0.8-1.5,2.1-0.7,3.2c0.7,1-0.5,1.4-0.4,2.2c0.2,1.4,0,2.8,0,4.2c0,0.6,0,1.1-0.1,1.7
	c-0.1,1.6-0.7,3.1-2.1,3.5C155.6,73.6,156.3,71.3,154.8,71.2z"/>
<path style="fill-rule:evenodd;clip-rule:evenodd;fill:#030303;" d="M94.1,60.8c0,0.6-0.6,0.2-0.8,0.5c-0.6,0.5-1.3,1.1-2,0.3
	c-0.8-0.9,0.3-1.3,0.7-1.9c0.6-0.8,2.3-1.4-0.2-2.1c-0.9-0.2-0.3-1.3,0.5-1.5c0.8-0.2,1.3-0.4,1.1-1.3c-0.1-0.4-0.3-0.6-0.6-0.4
	c-0.7,0.4-2-0.1-2,1.2c-0.1,1-0.1,1.9-0.1,2.9c0,4,0,7.9,0,11.9c0,0.3,0,0.5,0,0.8c0,0.7,0,1.6-0.8,1.7c-1,0.1-1.1-1-1.1-1.7
	c-0.3-3.5-0.3-7-0.2-10.5c0.1-2.3,0.3-4.6,0.6-6.9c0.1-0.8,0.2-1.8,1.5-0.8c0.7,0.6,1.7,0.3,2.6,0.1c1.8-0.4,2.3,0,2.5,1.8
	c0.1,0.6-1.2,2,0.8,1.9c0.2,0-0.1,0.9-0.3,1.3c-0.3,0.8-1.3,1.3-1.5,2.2C94.7,60.8,94.4,60.8,94.1,60.8z"/>
<path style="fill-rule:evenodd;clip-rule:evenodd;fill:#010101;" d="M159.7,71.8c-0.3-0.6,0-1.1,0.3-1.6c1.5-2.5,3-4.9,4.5-7.3
	c0.4-0.6,0.7-1.4,1.7-0.5c0.7,0.6,1.6-0.1,2-0.8c0.7-1.2,1.5-0.8,2.2-0.2c0.9,0.8-0.1,1.2-0.5,1.6c-1.4,1.7-2.1,3.6-2.4,5.7
	c-0.1,1.3,0.4,1.9,1.8,1.9c1.2,0,2.4,0,3.3-0.6c1-0.6,0.3-2.1,1-3.2c0.2,1.3,0.4,2.5,1.3,3.4c0.8,0.9,0,1.5-0.6,2
	c-1.4,1.3-4.8,1.5-6.7,0.5c-2.1-1-2-2.9-1.8-4.8c0.1-1.2,0.5-2.2,0.9-3.4C163.7,66.3,162.9,70.1,159.7,71.8z"/>
<path style="fill-rule:evenodd;clip-rule:evenodd;fill:#010101;" d="M71.9,62.9c0.1,0.3,0.2,0.7,0.4,1c-0.9,2-1.9,4-3.5,5.5
	c-0.5,0.4-1,0.8-1.5,1.2c-0.6,0.4-1.1,0.2-1.6-0.1c-0.6-0.4-0.5-1-0.3-1.6c0.2-0.6,0.7-1.2,1.2-1.4c1.8-0.9,1.2-2.6,1.3-4
	c0-0.9-0.8-0.6-1.3-0.8c-0.7-0.4-1.4-0.8-1.5-1.6c-0.1-0.8,0.7-1.2,1.3-1.5c1.3-0.5,1.5-1.3,1.4-2.5c-0.1-0.8-0.1-1.7-0.1-2.5
	c0-0.7,0.4-1.3,1.1-1.3c0.8-0.1,1.3,0.5,1.4,1.3c0.1,0.5-0.1,1-0.1,1.5c-0.1,0.9-0.4,1.9,1.2,1.5c0.5-0.2,1,0.3,1.1,0.9
	c0.2,0.9-0.1,1.8-0.8,2.2c-1.7,1-1.8,2.4-1.5,4.2C71,64.5,71.5,63.7,71.9,62.9z"/>
<path style="fill-rule:evenodd;clip-rule:evenodd;fill:#020202;" d="M108.2,69c1.8-2.7,3.6-5.3,5.6-8.2c-1,0-1.5,0.6-2.1,0.9
	c-1,0.4-2,0.2-2.5-0.7c-0.6-1.2,0.7-1.3,1.3-1.5c1.5-0.6,3-1.1,4.5-1.6c0.7-0.2,1.3,0,1.7,0.6c0.4,0.6-0.2,0.9-0.6,1.3
	c-0.8,0.8,0.1,2.2-1.2,3c2.5-0.3,3.2,0.3,3,2.7c-0.1,2.3-0.9,4.2-2.7,5.7c-0.8,0.7-1.9,1.1-2.8,0.7c-0.9-0.4-0.8-1.4-1.1-2.3
	c2.7,0.3,5-2.3,4.4-4.9c-0.1-0.2-0.1-0.6-0.4-0.5c-0.8,0.2-1.6,0.1-2.2,1C112,66.9,110.3,68.2,108.2,69z"/>
<path style="fill-rule:evenodd;clip-rule:evenodd;fill:#020202;" d="M82.2,56.5c0,0.9,0.2,2.2-0.8,3c-0.5,0.5-1,2-2.2,0.4
	c-0.3-0.4-2,0.1-2.8,0.6c-0.8,0.5-1.2,0.3-1.4-0.3c-0.8-2.4-0.7-4.8,0.1-7.1c0.1-0.4,0.4-0.7,0.9-0.3c1.2,1,2.5,0.2,3.6,0.1
	c1.9-0.2,2.5,0.1,2.6,1.9C82.2,55.2,82.2,55.8,82.2,56.5z"/>
<path style="fill-rule:evenodd;clip-rule:evenodd;fill:#C1272D;" d="M188.4,66.7c2.1,0.6,2.1,0.7,0.2,4.1c1,0,1.9-0.1,2.8,0
	c1,0.1,1.8,0.6,1.7,1.7c-0.1,1-1,0.9-1.8,0.9c-3.2-0.2-6.4-0.1-9.5,0.6c-1.1,0.2-1.8-0.1-2.1-1.1c-0.3-1.3,0.8-1,1.5-1.1
	c0.9-0.1,1.3-0.3,0.8-1.3c-0.4-0.7-0.5-1.4-0.4-2.2c1.1-0.4,1.8-0.1,2.2,1.1c0.2,0.6,0.4,1.3,1.2,1.3c0.8,0,1.4-0.4,1.8-1.1
	C187.4,68.5,187.4,67.2,188.4,66.7z"/>
<path style="fill-rule:evenodd;clip-rule:evenodd;fill:#030303;" d="M116.6,62.1c1.7-2.8,3.2-5.3,4.6-7.8c0.4-0.7,1-0.8,1.6-0.4
	c0.7,0.4,1.4,0.7,1.8,1.3c1.6,2.2,3.9,3.7,6,5.2c0.3,0.2,0.6,0.3,0.6,0.7c0,0.2-0.3,0.4-0.5,0.5c-3.3,0.7-5.4-0.4-7.2-3.7
	c-0.1-0.2-0.2-0.5-0.3-0.7c-0.5-1-1-0.9-1.6-0.1c-0.9,1.2-1.8,2.3-2.8,3.4C118.3,61.2,117.8,61.9,116.6,62.1z"/>
<path style="fill-rule:evenodd;clip-rule:evenodd;fill:#C1272D;" d="M182.3,67.5c-0.7-1.1-1.4-2.3-1.6-3.6c-0.2-1-0.4-1.9,1.4-1.7
	c1.5,0.2,3.2-0.5,4.8-0.9c1.3-0.3,2.4-0.2,3.2,1c0.7,1.1-0.5,1.7-0.8,2.5c-0.2,0.5-0.6,1-0.8,1.5C186.6,67.7,183.7,68.3,182.3,67.5z
	"/>
<path style="fill-rule:evenodd;clip-rule:evenodd;fill:#030303;" d="M164,60.8c-1.2,0-2-0.7-2.2-1.6c-0.2-1.3,1-0.8,1.6-1
	c2.1-0.6,4.3-1.1,6.4-1.7c1-0.3,2-0.4,2.4,0.8c0.4,1.2-0.7,1.5-1.6,1.7C168.5,59.6,166.2,60.2,164,60.8z"/>
<path style="fill-rule:evenodd;clip-rule:evenodd;fill:#090909;" d="M97.4,67.1c0.3-0.1,0.6-0.3,0.9-0.4c0.2,0.2,0.6,0.3,0.7,0.5
	c0.5,0.8,0.9,1,1.3,0c0.2-0.4,0.6-0.5,1-0.3c0.8,1.5,0.7,2.7-1.1,3.1c-0.9,0.2-1.3,0.6-1.2,1.6c0,0.6-0.3,1.1-1,1.6
	C97.2,71.2,97.8,69.1,97.4,67.1z"/>
<path style="fill-rule:evenodd;clip-rule:evenodd;fill:#040404;" d="M121.1,67.5c1.8-0.1,4.2,2.8,3.6,4.2c-0.2,0.5-0.5,0.9-1,1.1
	c-0.6,0.1-0.9-0.4-1.1-0.8c-0.6-1-1.1-2.1-1.9-3C120.2,68.3,120.3,67.6,121.1,67.5z"/>
<path style="fill-rule:evenodd;clip-rule:evenodd;fill:#090909;" d="M121.7,65.9c0.2-1.1,0.2-1.9-0.8-2.5c-0.7-0.4-0.4-1.1,0.3-1.2
	c1.2-0.2,2.4,0.1,3.3,0.9c0.4,0.4,0.5,0.9,0.3,1.4c-0.2,0.6-0.6,0.8-1.2,0.7C122.9,65,122.4,65.6,121.7,65.9z"/>
<path style="fill-rule:evenodd;clip-rule:evenodd;fill:#060606;" d="M165.7,52.8c0.6,0.2,1.4,0.4,2,0.9c0.8,0.6,1,1.4,0.4,2.3
	c-0.7,1-1.1,0.1-1.7-0.2c-0.8-0.4-1.6-0.8-2-1.7C164.1,53.2,164.3,52.6,165.7,52.8z"/>
<path style="fill-rule:evenodd;clip-rule:evenodd;fill:#0B0B0B;" d="M134.1,55.9c0,0.7-0.2,1.4-0.8,1.3c-1.4-0.2-1.6-1.5-1.8-2.6
	c-0.1-0.7,0.2-1.2,0.9-1.2C134,53.5,133.7,55,134.1,55.9z"/>
<path style="fill-rule:evenodd;clip-rule:evenodd;fill:#0A0A0A;" d="M145.9,65.7c0,1-0.5,1.2-1.2,1.1c-1.3-0.2-1.9-1.2-2.1-2.4
	c-0.1-0.6,0.5-0.8,1-0.7C144.8,63.9,145.7,64.6,145.9,65.7z"/>
<path style="fill-rule:evenodd;clip-rule:evenodd;fill:#C1272D;" d="M187.1,55.6c-0.3-0.3-0.6-0.5-0.9-0.8c0.8-0.9,1.8-1.8,2.9-2.4
	c0.8-0.4,1.4-0.2,1.7,0.6c0.3,0.8-0.5,0.8-0.9,1.1C188.9,54.5,187.5,54.1,187.1,55.6z"/>
<path style="fill-rule:evenodd;clip-rule:evenodd;fill:#0A0A0A;" d="M113.6,53.1c0.8,0.2,1.7,0.6,1.8,1.6c0.1,0.6,0,1.4-0.6,1.7
	c-0.6,0.3-0.7-0.5-1-0.8c-0.3-0.2-0.6-0.5-0.9-0.7c-0.5-0.2-0.7-0.5-0.6-1C112.5,53.2,113,53.2,113.6,53.1z"/>
<path style="fill-rule:evenodd;clip-rule:evenodd;fill:#C1272D;" d="M178.6,59.3c-0.4,0-0.8,0.9-1.3,0.2c-0.5-0.7-1.5-1-1.5-2.1
	c0-0.4,0.2-0.6,0.6-0.7c0.5-0.1,1-0.1,1.4,0.4C178.4,57.7,178.6,58.5,178.6,59.3C178.6,59.3,178.6,59.3,178.6,59.3z"/>
<path style="fill-rule:evenodd;clip-rule:evenodd;fill:#0C0C0C;" d="M139.8,55.9c0.4-0.9,0.9-1.6,1.7-2.3c0.5-0.4,1.1-0.8,1.6,0
	c0.4,0.7,0.2,1.2-0.5,1.5c-0.7,0.3-1.5,0.4-1.9,1.1C140.1,56.6,139.8,56.5,139.8,55.9z"/>
<path style="fill-rule:evenodd;clip-rule:evenodd;fill:#1A1A1A;" d="M94.1,60.8c0.2-0.1,0.4-0.2,0.6-0.4c0.4-0.1,0.9-0.4,1.2,0.1
	c0.3,0.5,0,1-0.3,1.4c-0.6,0.7-1.6,0.8-1.9,1.7c-0.4-0.1-0.7-0.3-1.1-0.4C93.3,62.6,93.9,61.8,94.1,60.8z"/>
<path style="fill-rule:evenodd;clip-rule:evenodd;fill:#FFFFFF;" d="M212.3,61.6c-0.2,1.4-0.7,2.3-2,2.3c-0.7,0-0.6-0.6-0.5-1
	C209.9,61.3,211.3,62.1,212.3,61.6z"/>
<path style="fill-rule:evenodd;clip-rule:evenodd;fill:#FFFFFF;" d="M207.3,63.6c0.1,1.1-0.9,0.9-1.4,1c-0.7,0.2-1-0.3-0.9-0.8
	c0.1-0.9,1.1-0.7,1.7-0.9C207.2,62.6,207.3,63.1,207.3,63.6z"/>
<path style="fill-rule:evenodd;clip-rule:evenodd;fill:#FFFFFF;" d="M208.5,57.1c-0.2,0.9-1,0.9-1.7,1.1c-0.5,0.1-0.7-0.3-0.6-0.7
	c0.1-1,0.9-0.7,1.5-0.8C208,56.7,208.5,56.5,208.5,57.1z"/>
<path style="fill-rule:evenodd;clip-rule:evenodd;fill:#FFFFFF;" d="M103,56.2c0.6,1.6-0.6,1.8-1.9,2c-0.4,0.1-0.9,0.2-1.1-0.4
	c-0.2-0.6,0.3-0.7,0.7-0.9c0.5-0.2,1.3-0.2,1.2-1c-0.1-0.8-0.8-0.6-1.3-0.6c-1-0.1-0.4-0.8-0.2-1c0.6-0.5,1.4-0.8,2.1-0.6
	c0.7,0.2,0.5,0.9,0.5,1.5C103.1,55.5,103,55.8,103,56.2z"/>
<path style="fill-rule:evenodd;clip-rule:evenodd;fill:#FFFFFF;" d="M97.3,65.8c-0.1-0.7-1.8-0.6-0.9-1.8c0.5-0.7,1.1-0.2,1.5,0.1
	C98.7,64.9,97.5,65.2,97.3,65.8z"/>
<path style="fill-rule:evenodd;clip-rule:evenodd;fill:#FFFFFF;" d="M139.4,59.5c-0.7,1.1-1.4,1.9-1.7,3c-0.1,0.3-0.4,0.5-0.8,0.4
	c-0.3-0.1-0.2-0.4-0.3-0.6C136.2,59.7,136.4,59.5,139.4,59.5z"/>
<path style="fill-rule:evenodd;clip-rule:evenodd;fill:#FFFFFF;" d="M181.7,58.6c0.9-1.4,1.6-2.5,2.5-3.8c0.3,1.3,1.5,1.6,2.1,2.8
	C184.9,58,183.5,58.3,181.7,58.6z"/>
<path style="fill-rule:evenodd;clip-rule:evenodd;fill:#010101;" d="M295.6,55.8c0.5-0.2,1-0.6,1.6-0.7c1.3-0.1,1.9-0.6,1.6-1.9
	c-0.1-0.4-0.2-1,0.4-1.1c0.6-0.1,1.4,0.2,1.4,0.7c0,1.4,0.7,1.5,1.8,1.2c0.5-0.1,0.9-0.1,1.2,0.4c0.3,0.6-0.1,1-0.5,1.3
	c-0.1,0.1-0.2,0.1-0.3,0.2c-0.6,0.6-2.6,0.4-1.8,1.8c0.5,1,2.1,0.4,3.1,0.2c1.6-0.4,2.1-0.2,2.1,1.5c0,2.7-1.6,4.6-4.7,5.4
	c1.7,2.4,4.2,3.9,6.5,5.5c-0.1,1.1-1.1,0.2-1.6,0.7c-2.9,0.5-3.7-2-5.2-3.7c-0.4,0.8-0.1,1.7-0.2,2.5c-0.1,0.9-0.1,1.9-0.8,2.7
	c-1.9,2.2-2.8,0.3-3.8-0.9c2.3-0.3,2.4-0.5,2.3-4.1c-1.7,1.9-3.5,3.2-5.7,4.3c0.6-2,2.1-3.1,3.3-4.4c0.3-0.4,0.9-0.5-0.1-1
	c-1.1-0.6-1.3-2.1-1.5-3.4c-0.3-1.3-0.4-2.6-0.6-3.9c-1.1,0.2-1.5,0.9-1.6,2c-0.1,1-0.1,2-0.4,3c-0.2,0.8-0.1,1.3,0.7,1.6
	c0.5,0.2,0.8,0.6,1,1.1c0.2,0.7,0.4,1.5-0.2,1.9c-0.7,0.5-1.1-0.2-1.6-0.7c-0.2-0.3-0.5-0.5-0.8-0.9c-1.4,1.8-2.5,3.8-4.9,4.7
	c0-0.9,0.4-1.5,0.8-2c3.1-3.6,3.7-8,3.7-12.6c0-1,0-1.9,0.1-2.9c0-0.5,0.3-1.1,0.8-1.2c0.5-0.1,0.9,0.4,1.1,0.9
	c0.3,0.8,0.1,1.6,0.1,2.5c0,0.3-0.1,0.8,0.6,0.6c0.3-0.3,0.5-0.5,0.8-0.8c0.9-0.4,1.3,0.1,1.5,0.9c0.3,0.9,0.9,1.3,2.1,0.8
	C296.9,57.5,295,57.7,295.6,55.8z"/>
<path style="fill-rule:evenodd;clip-rule:evenodd;fill:#C1272D;" d="M230.4,57.6c-0.7-0.7,0-1.2,0.4-1.3c1.2-0.1,1.5-0.8,1.8-1.8
	c0.1-0.6,0-1.7,1-1.6c0.9,0.1,1.2,1,1.1,2c0,0.2-0.1,0.5-0.2,0.8c0.4-0.1,0.6-0.1,0.9-0.2c0.7-0.3,1.4-1,2.2,0
	c0.7,0.9,0.1,1.5-0.4,2.2c-0.9,1.4-1.6,2.9-1.6,4.6c0,1.2,0.2,2.4,1.7,2.5c1.5,0.1,2.5-0.4,2.6-2.1c0-0.3-0.1-0.8,0.6-1
	c0.2,0.9,0,1.9,0.9,2.5c0.3,0.3,0,0.9-0.3,1.2c-1.3,1.5-3.1,1.5-4.8,1.2c-1.4-0.2-2-1.4-2.2-2.8c-0.3-2.4,0.1-4.7,1-7
	c-0.3,0-0.6-0.1-0.6,0c-1,2.3-2.7,4.3-1.9,7.1c0.2,0.7,0.4,1.4-0.9,1.2c-1.2-0.2-1,1.1-1.6,1.7c-0.3,0.3-0.4,1.6-1,0.1
	c0-0.1-0.6,0.1-0.9,0.2c-1.5,0.4-3.1,0.8-4.6,1.2c-0.8,0.2-1.5-0.1-1.6-0.9c-0.2-0.9,0.7-0.7,1.2-0.9c0.1-0.1,0.3,0,0.4-0.1
	c0.7-0.2,1.6,0.2,1.8-0.9c0.1-0.3,0-0.9-0.3-0.7c-0.9,0.5-1.7-1.3-2.7,0c-0.4,0.6-1.2,1-2.1,1.4c0.9-2.3,2.6-4.2,3.9-6.3
	c-0.6-0.3-1,0.1-1.4,0.3c-0.7,0.4-1.2,0.4-1.6-0.3c-0.4-0.9,0.1-1.3,0.9-1.5c0.8-0.2,1.6-0.4,2.4-0.5c0.5-0.1,0.9-0.1,0.9-0.8
	c0-0.8-0.5-0.5-0.9-0.5c-0.8,0.1-1.3-0.3-1.4-1c-0.1-0.8,0.6-0.8,1.2-0.9c1-0.1,1.1-0.9,1.2-1.6c0.1-0.6,0.2-1.2,0.9-1.3
	c0.7-0.1,1,0.4,1.2,1c0.1,0.6,0.2,0.9,0.9,0.7c0.6-0.1,1.1,0.3,1.1,1c0,0.6-0.4,0.9-1,1c-0.7,0.2-1.5,0.3-1.2,1.3
	c0.3,1.1,1,0.4,1.6,0.3C229.4,57.2,229.8,57.9,230.4,57.6c0.2,1.1-0.5,1.6-1.3,2.1c0.2,0.8,1.6,0.9,1.1,2c-0.9,1-1.9,0.8-3,0.2
	c-0.6-0.4-0.5-1.1-0.8-1.7c-0.5,0.3-0.6,0.9-1,1.1c-0.2,0.3-0.3,0.6-0.5,0.9c0.2-0.3,0.4-0.6,0.7-0.8c0.4-0.1,0.7-0.1,1.1,0.1
	c0.5,1,2.3,0.6,2.2,2.3c-0.1,0.5-0.7,0.7-0.8,1.3c0.9-0.2,1.5-0.4,1-1.4c-0.7-1.3,1-1.1,1.1-1.9C230.5,60.4,231.2,59,230.4,57.6z"/>
<path style="fill-rule:evenodd;clip-rule:evenodd;fill:#010101;" d="M247.6,58.9c0.7-0.2,1.4-0.6,2.2-0.6c1.5-0.1,2.5,0.9,2.6,2.3
	c0.1,2.6,0.3,5.2-0.2,7.8c-0.3,1.6-1.3,2.4-2.6,3c-0.4,0.2-0.9,0.4-1,0c-0.6-1.9-1.8-1-2.6-0.4c-1.1,0.8-1.5,0.2-1.8-0.7
	c-1.4-3.4-1.6-6.9-1.2-10.5c0.1-0.7,0.4-1.7,1.3-1.2c1.2,0.6,1.4-0.1,1.8-0.9c0.6-1.1,1.3-2.2,1.8-3.3c0.4-0.9,0.8-1.4,1.7-0.8
	c0.8,0.6,1.7,1.3,0.7,2.3c-0.8,0.9-1.9,1.7-2.8,2.6C247.4,58.6,247.5,58.7,247.6,58.9z"/>
<path style="fill-rule:evenodd;clip-rule:evenodd;fill:#010101;" d="M257.3,56.8c0.9,0.3,1.7,0.1,2.4-0.2c1.5-0.5,2.9,0.1,2.9,1.5
	c0.2,3.7,0.7,7.5-0.7,11.2c-1,2.5-3.1,2.9-5.2,3.5c-0.6,0.2-0.8-0.3-0.9-0.7c-0.3-0.6-0.5-1.3-0.8-1.9c2.9,0.1,4.1-0.8,4.8-3.7
	c0.6-2.5,0.3-5.1,0.4-7.6c0-0.4-0.1-1-0.6-0.7c-1.3,0.9-3.5,0.5-4.2,2.5c-0.2,0.7-0.9,0.8-1.4,0.7c-0.7-0.1-0.8-0.8-0.7-1.4
	c0.5-2.5,1.4-4.9,2.7-7.1c0.3-0.5,0.6-1.2,1.5-0.9c0.8,0.3,1.2,1,1.1,1.8C258.3,54.9,258,55.9,257.3,56.8z"/>
<path style="fill-rule:evenodd;clip-rule:evenodd;fill:#010101;" d="M272.8,56.2c1,0.2,1.1-0.6,1.4-1.2c0.4-0.9,0.9-1.8,1.4-2.7
	c0.5-0.8,1.1-1,1.5,0.1c0.5,1.6,1.5,1.1,2.3,0.5c0.7-0.5,1.2-0.6,1.9,0c0.7,0.6,0.3,1.3,0,1.9c-0.1,0.2-0.2,0.3-0.3,0.5
	c-1.9,3.1-1.9,3.1,1.6,4.4c1.2,0.5,2.3,1.1,3.3,1.9c0.3,0.2,0.7,0.4,0.5,0.9c-0.2,0.4-0.7,0.2-1,0.2c-2.4,0.5-4.4-0.2-6.3-1.5
	c-0.1-0.1-0.4,0.1-0.5,0.1c-0.1,0-0.2-0.1-0.2-0.1c-0.8-0.6-1.2,0-1.7,0.5c-0.2,0.2-0.4,0.4-0.6,0.4c-1.3,0.2-2.3,1.2-3.6,1.5
	c-0.4,0.2-0.5-0.1-0.6-0.3c0.1-1.3,1.3-1.7,2.1-2.6c1.2-1.4,1.2-1.5-0.5-2.1C271.9,58,271.8,57.4,272.8,56.2z"/>
<path style="fill-rule:evenodd;clip-rule:evenodd;fill:#020202;" d="M266.3,60.7c-1,0.6-1.8,1.3-2.8,1.6c-0.5-0.5-0.1-1,0-1.4
	c1-2.6,2.4-5,4.2-7.2c0.4-0.5,0.9-1.2,1.7-0.6c0.7,0.5,1.3,1.5,0.6,2.1c-2,1.9-1.7,4.5-2,6.8c-0.4,2.5-0.3,5.1-0.2,7.6
	c0,0.4,0.1,0.8,0.1,1.1c0,0.9-0.7,1.3-1.3,1.4c-0.6,0.1-0.7-0.8-0.7-1.3c-0.1-2.5-0.1-5.1,0.2-7.6C266.1,62.3,266.2,61.5,266.3,60.7
	z"/>
<path style="fill-rule:evenodd;clip-rule:evenodd;fill:#070707;" d="M271.9,63.1c0.1,0.1,0.3,0.3,0.4,0.4c-0.9,0.3-1.4,0.8-1.3,1.9
	c0.1,1.4-0.1,2.8-0.1,4.2c0,0.7-0.3,1.2-1,1.2c-0.7,0-0.7-0.7-0.7-1.1c0.3-4.3,0.2-8.6,0.9-12.9c0.2-1.3,0.8-1.4,1.7-0.5
	c0.4,1.6,0.1,3.2,0,4.9C271.9,61.7,271.6,62.4,271.9,63.1z"/>
<path style="fill-rule:evenodd;clip-rule:evenodd;fill:#060606;" d="M273.4,74.4c1.5-3,4-4.7,5.2-7.5c0.3-0.6,0.8-0.5,1.3-0.1
	c0.5,0.5,0.7,1.2,0.4,1.8C278.5,71,276.8,73.5,273.4,74.4z"/>
<path style="fill-rule:evenodd;clip-rule:evenodd;fill:#F9F9F9;" d="M271.9,63.1c-1.3,0-0.7-1-0.6-1.5c0.2-1.8,0.4-3.6,0.7-5.4
	c0.3,0,0.5,0,0.8,0c-0.9,0.9-0.6,1.6,0.6,1.9c0.4,0.1,0.9,0.1,1.3,0.1c1,0.2,1.6,0.5,0.6,1.5C274.1,60.8,273,62,271.9,63.1z"/>
<path style="fill-rule:evenodd;clip-rule:evenodd;fill:#C1272D;" d="M239.4,71.9c0,0.7-0.1,1.5-0.9,1.7c-0.9,0.2-1-0.5-1.2-1.1
	c-0.4-0.8-0.8-1.6-1.2-2.3c-0.3-0.5-0.4-1.1,0.2-1.6c0.5-0.4,1-0.1,1.4,0.2C238.7,69.5,239.5,70.5,239.4,71.9z"/>
<path style="fill-rule:evenodd;clip-rule:evenodd;fill:#0D0D0D;" d="M289.5,60.7c-0.3,1,0.4,2.7-0.8,2.8c-1.1,0.1-1.1-1.6-1.3-2.6
	c-0.2-0.8-0.1-1.6,0-2.5c0.1-0.5,0.4-1,1-1c0.7,0,0.8,0.5,0.9,1.1C289.4,59.2,289.4,60,289.5,60.7z"/>
<path style="fill-rule:evenodd;clip-rule:evenodd;fill:#C1272D;" d="M225.2,72.4c-0.2,0.6-0.1,1.3-0.9,1.5c-0.7,0.1-1.1-0.3-1.4-0.9
	c-0.4-0.9-0.7-1.8-1-2.7c-0.2-0.6,0.2-1.1,0.7-1.4c0.7-0.4,1,0.2,1.3,0.7C224.5,70.5,225,71.4,225.2,72.4z"/>
<path style="fill-rule:evenodd;clip-rule:evenodd;fill:#0C0C0C;" d="M274,68.8c0.9-2,2.6-3.1,3.8-4.4c0.4-0.4,0.9-0.9,1.4-0.2
	c0.4,0.6,0.5,1.1-0.1,1.7C277.7,67.2,276.3,68.6,274,68.8z"/>
<path style="fill-rule:evenodd;clip-rule:evenodd;fill:#0E0E0E;" d="M275.9,62c0.1-0.2,0.2-0.3,0.3-0.5c0.7-0.3,1.3-1.7,2.3-0.3l0,0
	c-0.1,1.9-1.9,3.5-4.4,3.7C274.2,63.6,275.3,63,275.9,62z"/>
<path style="fill-rule:evenodd;clip-rule:evenodd;fill:#090909;" d="M256.1,65.9c-0.7,0.1-2.8-1.9-2.8-2.6c0-0.6,0.2-1,0.9-1
	c1.3,0.1,2.5,0.6,2.8,2.1C257.1,65.2,256.8,65.7,256.1,65.9z"/>
<path style="fill-rule:evenodd;clip-rule:evenodd;fill:#C1272D;" d="M234,71c-0.1,0.6-0.3,1.3-0.8,1.2c-1.2-0.4-1.7-1.4-1.9-2.6
	c-0.1-0.5,0.2-1.1,0.8-0.9C233.3,69,233.7,70.1,234,71z"/>
<path style="fill-rule:evenodd;clip-rule:evenodd;fill:#FFFFFF;" d="M294.6,55.8c-0.2,1.3,0.5,1.5,1.5,1.6c0.5,0,1.5-0.7,1.6,0.5
	c0.1,1.4-1.2,0.8-1.8,1.1c-0.9,0.3-1.6-0.2-1.5-1.1c0-1,0.1-1.7-1.2-1.4C293.6,56.3,294.1,56.1,294.6,55.8z"/>
<path style="fill-rule:evenodd;clip-rule:evenodd;fill:#C1272D;" d="M227.7,69.1c1.1,0.3,1.8,1.2,2,2.3c0.1,0.6-0.3,1.5-0.8,1.3
	c-1.1-0.4-1.4-1.7-1.9-2.7C226.7,69.5,227.1,69.2,227.7,69.1z"/>
<path style="fill-rule:evenodd;clip-rule:evenodd;fill:#FFFFFF;" d="M300.6,59.8c0.7,0,1.8-0.8,1.8,0.9c0,1.8-0.9,2.3-2.4,2.4
	C300,61.9,303.8,61.5,300.6,59.8z"/>
<path style="fill-rule:evenodd;clip-rule:evenodd;fill:#FFFFFF;" d="M295.9,60.9c0.6-0.3,1.5-0.8,1.7-0.5c0.5,0.9,0.2,2.1,0.1,3.7
	c-0.5-1.3,0-2.7-1.4-2.9C295.9,61.4,295.9,61.2,295.9,60.9z"/>
<path style="fill-rule:evenodd;clip-rule:evenodd;fill:#FFFFFF;" d="M295.9,60.9c0.2,0.1,0.3,0.2,0.5,0.4c-0.8,0.7-0.2,1.4,0.1,2.1
	c0.1,0.2,0.3,0.5-0.1,0.6c-0.2,0-0.7,0-0.7-0.1C295.5,62.8,294.7,61.7,295.9,60.9z"/>
<path style="fill-rule:evenodd;clip-rule:evenodd;fill:#FFFFFF;" d="M230.4,57.6c1.1,0.4,1.1,1.2,0.8,2.2c-0.3,0.7-0.5,1.5-0.7,2.2
	c-0.3,0-0.5-0.1-0.4-0.5c0-0.6-0.2-0.8-0.8-0.7c-0.7,0.1-1.1-0.2-1.1-0.9c0-0.6,0.2-1,0.9-0.9C230.3,59.1,229.9,58,230.4,57.6
	C230.4,57.6,230.4,57.6,230.4,57.6z"/>
<path style="fill-rule:evenodd;clip-rule:evenodd;fill:#FFFFFF;" d="M229.3,63.5c1,0.5,0.7,1.5,0.2,1.8c-0.7,0.4-1.6,0.2-2.5,0.2
	c-0.1,0-0.2-0.7,0.2-1c0.4-0.2,0.9-0.5,1.3-0.7C228.8,63.7,228.9,63.3,229.3,63.5z"/>
<path style="fill-rule:evenodd;clip-rule:evenodd;fill:#FFFFFF;" d="M229.3,63.5c-0.2,0.1-0.5,0.2-0.7,0.4c0-0.5,0.1-1.2-0.6-1.1
	c-1,0.1-1.1-0.6-1.4-1.2c0.2-0.2,0.4-0.2,0.6-0.1c1,0.4,1.9,0.7,2.9,0c0.1,0.1,0.2,0.3,0.4,0.5c0.1,0.5-0.2,0.6-0.7,0.6
	C229.1,62.6,229.2,63,229.3,63.5z"/>
<path style="fill-rule:evenodd;clip-rule:evenodd;fill:#FFFFFF;" d="M227.2,61.5c-0.2,0-0.4,0.1-0.6,0.1c-0.3,0-0.7,0-1,0
	c-0.2,0-0.3-0.3-0.3-0.4c0.7-0.5,0.2-2.2,1.4-1.9C227.6,59.5,226.7,60.8,227.2,61.5z"/>
<path style="fill-rule:evenodd;clip-rule:evenodd;fill:#FFFFFF;" d="M225.3,61.2c0.1,0.1,0.2,0.3,0.3,0.4c-0.5,0.6,0,2.1-1.7,1.8
	C224.2,62.5,224.7,61.9,225.3,61.2z"/>
<path style="fill-rule:evenodd;clip-rule:evenodd;fill:#FFFFFF;" d="M245.2,63.6c-0.1-1.9,1.8-3.7,3.5-3.5c0.6,0.1,0.7,0.5,0.8,0.9
	c0.2,2.5,0.4,5-0.3,7.8c-0.7-1.1-1.5-1-2.3-0.6c-0.5,0.3-1.1,0.6-1.3-0.3c-0.1-0.7-0.6-1.5,0.5-1.9c0.6-0.2,1.2-0.5,1.7-0.7
	c0.8-0.3,1.1-0.9,0.8-1.7c-0.3-0.9-1-0.5-1.6-0.4C246.4,63.2,245.9,63.4,245.2,63.6z"/>
<path style="fill-rule:evenodd;clip-rule:evenodd;fill:#FFFFFF;" d="M277.3,54.6c-0.5,1.7-1.3,2.8-3.1,1.7
	C274.6,54.7,275.9,54.7,277.3,54.6z"/>
<path style="fill-rule:evenodd;clip-rule:evenodd;fill:#FFFFFF;" d="M278.5,61.2c-0.9-1-1.5,0.6-2.3,0.3c0.2-0.9,0.9-1.3,1.6-1.4
	C278.3,60,278.6,60.6,278.5,61.2z"/>
<path style="fill-rule:evenodd;clip-rule:evenodd;fill:#FFFFFF;" d="M78.9,56.2c-0.1,0.8-0.1,1.4-0.2,2.1c-1-0.3-1.9,0.1-2.8,0.3
	c-0.3,0.1-0.5-0.2-0.5-0.4c0-0.2,0.1-0.5,0.2-0.7c0.1-0.1,0.4,0,0.5-0.1c0.7-0.3,2-0.1,1.8-1.2c-0.2-0.9-1.2-0.6-2-0.4
	c-0.2,0.1-0.5,0.2-0.6-0.2c-0.1-0.4-0.1-0.8,0.4-0.9c0.8-0.2,1.7-0.7,2.4-0.5C79.6,54.4,78.5,55.6,78.9,56.2z"/>
<path style="fill-rule:evenodd;clip-rule:evenodd;fill:#FFFFFF;" d="M187.5,62.9c-0.4,1.9-1.7,2.3-3.2,2.7c-0.7,0.2-0.9-0.2-1.1-0.7
	c-0.3-0.7,0.2-0.7,0.6-0.9C185.1,63.6,186.3,63.2,187.5,62.9z"/>
<path style="fill-rule:evenodd;clip-rule:evenodd;fill:#020202;" d="M52.2,60.9c0.7-0.2,2.1,0.2,3.4-0.6c0.8-0.5,2.9,1.1,2.8,2.1
	c-0.1,0.8-0.7,1.5-1.4,1.1c-2.6-1.6-5.2-0.5-7.7,0.1c-2.6,0.6-5.4,0.9-7.7,2.4c-0.7,0.5-1.5,0.2-2.2-0.2c-0.6-0.3-1-0.7-1-1.3
	c0-0.8,0.7-0.9,1.3-1C43.5,62.6,47.4,61.6,52.2,60.9z"/>
</svg>
