<?xml version="1.0" encoding="utf-8"?>
<!-- Generator: Adobe Illustrator 18.0.0, SVG Export Plug-In . SVG Version: 6.00 Build 0)  -->
<!DOCTYPE svg PUBLIC "-//W3C//DTD SVG 1.1//EN" "http://www.w3.org/Graphics/SVG/1.1/DTD/svg11.dtd">
<svg version="1.1" id="圖層_1" xmlns="http://www.w3.org/2000/svg" xmlns:xlink="http://www.w3.org/1999/xlink" x="0px" y="0px"
	 viewBox="0 0 212.1 139" style="enable-background:new 0 0 212.1 139;" xml:space="preserve">
<path style="fill:#FFFFFF;" d="M22,57.8c0,0,5.9-27.9,16.6-32.4c10.7-4.5,18.9-12.7,20.9-12.8c2.1,0,38.1,1,42.4,3
	c4.3,2.1,33.6,13.7,33.6,13.7l13.8,27.9l4.9,23.3c0,0,19.3,2.6,21.9,2.6c2.7,0,23.9,5.1,23.9,5.1s2,14.1,0,19.6
	c-2,5.5-47.1,24.5-47.1,24.5l-40.7-5.4l-33.8-5.9l-40.2-20.5l-8.8-14.7L22,67.6V57.8z"/>
<g>
	<g>
		<path style="fill-rule:evenodd;clip-rule:evenodd;fill:#010101;" d="M139.2,100.9c-1.3-1.8-2.7-3.5-4.3-5.7
			c-2.1,3.5-3.9,6.8-7.1,9c-3.6,2.6-6.7,1.9-9.5-1.3c-1-0.8-0.2-2-0.8-3c1.6-3.3,5.6-3.8,7.9-6.6c3.5-4,6.9-7.8,8.4-13
			c0.3-0.9,0.4-2.5,1.8-2.4c1.1,0.1,1.7,1.2,1.7,2.4c2.6,2.2,1,5.2,1.5,7.8c0,0.9,0,1.8,0,2.7c0.9,1.6,2.1,3,2.9,4.6l0.1,0
			c1,0.4,2,1,2.9,1.8c8.3,3.8,17,5.9,26.2,5.6c2.2,1.2,4.4,0,6.6,0c2-1.1,4.1-0.8,6.3-1.1c-1.8,11.2-8.4,14.9-21.9,12
			c-5.5-1.2-10.6-3.4-15.3-6.3C143.6,105.8,140.8,104.1,139.2,100.9z"/>
	</g>
	<g>
		<path style="fill-rule:evenodd;clip-rule:evenodd;" d="M103.3,75c-1.9-0.5-2.8,1-4.2,1.8c-4.1,2.2-8.4,0.3-10.3-4.6
			c1.3,0.8,2.1,1.9,3.5,1.9c0.8,0,1.6,0.7,1.8-0.6c0.2-0.9,0.6-1.9-1.2-1.8c-1.1,0.1-1.3-1-1.5-1.8c-0.6-2.6-1.3-5.2-1.9-7.9
			c1.8-0.9,2.8,0.4,3.8,1.7c1.2-1.5,1.8-3,1-4.9c-0.2-0.6-0.6-1.9,0.9-0.9c0.5,0.5,0.9,0.9,1.6,1.1c4.1-1.9,6.2-1.1,7.8,3.2
			c0.4,1.2,0.9,0.9,1.7,0.8c5.7-1,10.8-3.7,15.7-6.5c1.9-1.1,4.3-0.9,5.7-2.6c1.4,2.9-0.3,4.5-2.1,6c-2.8,2.3-6.2,3.7-9.5,5.1
			c-0.9,1.7,0.4,3.4-0.1,5.2c-1.5,4.4-1.5,4.3,3,5.8c1.7,0.5,5.1,1.7,5.6,1.1c1.7-0.2,2.5,2.4,5,1c-1.5,2.1-1,4.8-4,5.1
			c-2.1,0.2-4.2,0.3-6.3-0.4c-2.6-0.8-4.9-2.1-6.9-3.8c-0.9-0.8-1.5-1.1-2.6-0.2c-1.8,1.5-3.7,1.6-5-0.8c-0.4-0.3-0.9-0.6-1-1.1
			c0-1.4,0.2-2.5,2-2.9c1.3-0.3,1.9-1.5,1.4-2.9c-0.4-1.3-0.5-2.8-1-4.1c-0.2-0.5-0.3-1.1-0.9-1.2c-0.8-0.1-0.7,0.9-1.2,1.2
			c-0.7,0.8-1.2,1.7-1.3,2.8c0.1,1.1,1.2,1.8,1.2,2.9C104.2,73.5,104.6,74.5,103.3,75z"/>
		<path style="fill-rule:evenodd;clip-rule:evenodd;fill:#050505;" d="M114.2,54.1c0.8,2.3-1.4,2.9-2.3,4.2
			c-0.1,0.1-0.3,0.3-0.4,0.3c-1.3-0.3-3.7-4.4-3.3-5.7c0.4-1.3,1.8-1.6,2.9-1.8C113.5,50.5,114.3,52,114.2,54.1z"/>
		<path style="fill-rule:evenodd;clip-rule:evenodd;fill:#FFFFFF;" d="M110.8,65.9c0.9-0.1,1.7-0.1,2.7-0.2c0.2,1.4-0.7,2.3-1.2,3.3
			c-0.3,0.5-1,1.3-1.4,1.3c-0.7-0.1-0.8-1-0.9-1.7C109.1,67.3,108.3,66.2,110.8,65.9z"/>
		<path style="fill-rule:evenodd;clip-rule:evenodd;fill:#FFFFFF;" d="M100.4,70.6c-0.8,1.3,0,2.9-1.5,3.8c-0.6,0.3-1.3,0.6-1.8,0.3
			c-0.8-0.4-0.1-1.1,0-1.6C97.3,71.4,98.3,70.6,100.4,70.6z"/>
		<path style="fill-rule:evenodd;clip-rule:evenodd;fill:#FFFFFF;" d="M99,66.9c-1.1-1.3-0.5-2.7-0.4-4.1c0-0.7,0.9-1.5,1.8-1
			c1,0.6,0.8,1.6,0.2,2.4c-0.5,0.4-0.5,1-0.7,1.6C99.6,66.2,99.4,66.6,99,66.9z"/>
		<path style="fill-rule:evenodd;clip-rule:evenodd;fill:#FFFFFF;" d="M94.4,69.4c-0.3-1.4-0.5-2.5-0.7-3.7c-0.1-0.6,0.1-1.1,0.8-1
			c0.5,0,0.7,0.4,0.6,0.9C94.9,66.8,95.1,68,94.4,69.4z"/>
	</g>
	<g>
		<path style="fill-rule:evenodd;clip-rule:evenodd;fill:#010101;" d="M84.6,47.8c-1.2-2.1-3.1-1.6-4.9-1.2
			c-6.9,1.4-13.8,2.9-20.6,4.4c-1.3,0.3-3,1.2-3.7-0.1c-0.7-1.5,1.3-2,2.2-2.8c0.8-0.7,1.8-1.3,2.7-1.9c1-0.6,1.8-1.4,2.5-2.4
			c0.6-1.6,2-2.7,2.6-4.3c0.2-2.1-0.3-4.1-1.1-6c5-0.6,5-0.6,7.1,6.2c1.5-1.4,2.6-2.8,4.1-3.8c1.1-0.7,1.6-3.4,3.7-1.6
			c1.8,1.5,2.8,3.3,0.6,5.3c2,2.3,4.6-0.3,6.8,0.7c6.3,2.3,8.1,4.2,7.7,8.2c-0.4,4.7-5.3,10.6-9.7,11.8c-1.1,0.3-1.6,0.3-2.2-0.9
			c-1.5-2.8-2-5.4,0.5-7.9C83.2,50.1,84.3,49.1,84.6,47.8z"/>
		<path style="fill-rule:evenodd;clip-rule:evenodd;fill:#010101;" d="M71.1,61.3c1.4-0.6,2.2-0.6,2.1,1.3c-0.2,3.4-3.3,4.1-5.9,5.7
			c2.3,1.6,4.1,0.3,5.9-0.2c1.1-0.3,1.8-0.5,2.4,0.7c0.6,1.3-0.2,1.8-1,2.3c-1.5,0.8-3,1.6-4.5,2.8c6.2,0.9,11.4-2.8,17.1-3.3
			c1.7,5.7-2.9,6.3-6.5,7.6c-1.2,0.4-2.3,0.9-3.6,1c-4.2,0.4-7.2,1.7-8.5,6.3c-0.9,3.3-3.8,3.5-6.4,1.1c-0.8-0.8,0-1,0.1-1.4
			c0.4-1.4,1-2.7,1.6-4.3c-4.2-1.6-9.6-1.5-12-7c3.9,2.1,7.9,1.7,11.7,1.6c0.7,0,1.6,0.1,1.6-1c0-1.1-0.8-1.1-1.5-1.1
			c-1.7,0-3.1-0.4-4.3-2c0.5-0.1,0.8-0.2,1.1-0.3c1.7-0.3,4.7,0.5,4.5-1.7C65,67.1,62.4,69.5,61,69c-0.9-0.3-2-0.2-2.9-0.5
			c-1.1-0.4-2-1.1-1.8-2.4c0.2-1.3,1.4-1.2,2.3-1.4c3.8-0.6,7.7-0.3,11.2-2.3C70.3,62.1,70.7,61.6,71.1,61.3L71.1,61.3z"/>
		<path style="fill-rule:evenodd;clip-rule:evenodd;fill:#030303;" d="M71.1,61.2c-1-2-1.9,0-2.8,0.2c-2.2,0.3-5,1.1-6.3-0.8
			c-1.5-2.1-0.7-5.1-0.1-7.5c0.5-2,9.4-3.1,10.8-1.5c1.1,1.3,1.2,2.8,0.7,4.5C72.8,57.9,71.1,59.3,71.1,61.2
			C71.1,61.3,71.1,61.2,71.1,61.2z"/>
		<path style="fill-rule:evenodd;clip-rule:evenodd;fill:#090909;" d="M50.1,45.8c1.8,1.4,4.3,1,4.2,3.6c-0.1,2.9-0.6,5.8-2.5,8.2
			c-0.5,0.7-1.6,0.6-2.4,0.1c-1-0.6-1.1-1.3-0.7-2.4C49.7,52.5,50.3,49.6,50.1,45.8z"/>
		<path style="fill-rule:evenodd;clip-rule:evenodd;fill:#070707;" d="M65.3,39.4c0.2,2-0.7,3.5-2.2,4.7c-0.9,0.6-1.5,1.8-2.9,1.4
			c-1.2-1.2-3.4-1.5-3.7-3.4c-0.2-1.2,0.1-2.4,0.2-3.6c2,1.2,4.2-1.3,6.1,0.5C63.5,39.5,64.1,40.9,65.3,39.4z"/>
		<path style="fill-rule:evenodd;clip-rule:evenodd;fill:#010101;" d="M86.4,40.3c-1.3,1-3.1-0.1-4.6,1.3c-1.2,1.1-2.5-0.1-2.2-2
			C81.8,40.2,84.3,38.6,86.4,40.3z"/>
		<path style="fill-rule:evenodd;clip-rule:evenodd;fill:#FFFFFF;" d="M60.2,45.4c1.3,0.2,1.4-2.1,2.9-1.4c0.1,2.2-2.1,1.1-2.9,2
			C60.1,45.8,60.1,45.6,60.2,45.4z"/>
		<path style="fill-rule:evenodd;clip-rule:evenodd;fill:#FFFFFF;" d="M66.3,54c0.9,0.4,0.9,1.3,0.9,2c0.1,0.8-0.4,1.5-1.2,1.3
			c-0.8-0.2-1.3-1-1.2-1.9C65,54.6,65.5,54.2,66.3,54z"/>
	</g>
	<path d="M75.1,89.2H74V92h-0.7v-2.8h-1.1v-0.6h2.9V89.2z"/>
	<path d="M78.1,90.6V92h-0.7v-1.5c0-0.4-0.2-0.6-0.6-0.6c-0.2,0-0.4,0.1-0.6,0.2V92h-0.7v-3.6h0.7v1.2c0.2-0.1,0.4-0.2,0.7-0.2
		C77.8,89.4,78.1,89.7,78.1,90.6z"/>
	<path d="M79.3,90.9c0.1,0.3,0.4,0.6,0.8,0.6c0.3,0,0.5-0.1,0.7-0.3l0.4,0.4c-0.2,0.3-0.7,0.5-1.2,0.5c-0.8,0-1.4-0.6-1.4-1.4
		c0-0.8,0.6-1.4,1.4-1.4c0.8,0,1.3,0.6,1.3,1.4c0,0.1,0,0.1,0,0.2H79.3z M79.3,90.5h1.3c0-0.3-0.2-0.6-0.6-0.6
		C79.6,89.9,79.3,90.2,79.3,90.5z"/>
	<path d="M86.9,88.6V92h-0.7v-1.9l-1.1,1.5L84,90.2V92h-0.7v-3.4h0.3l1.4,2l1.4-2H86.9z"/>
	<path d="M90.3,90.7c0,0.8-0.7,1.4-1.5,1.4c-0.8,0-1.5-0.6-1.5-1.4c0-0.8,0.7-1.4,1.5-1.4C89.7,89.4,90.3,90,90.3,90.7z M89.7,90.7
		c0-0.4-0.3-0.8-0.8-0.8c-0.4,0-0.8,0.3-0.8,0.8c0,0.4,0.4,0.8,0.8,0.8C89.3,91.5,89.7,91.1,89.7,90.7z"/>
	<path d="M90.9,91.3c0.3,0.1,0.6,0.2,0.9,0.2c0.3,0,0.4-0.1,0.4-0.2c0-0.2-0.2-0.2-0.6-0.3c-0.6-0.1-1-0.3-1-0.8
		c0-0.5,0.4-0.8,1-0.8c0.4,0,0.8,0.1,1,0.2l-0.2,0.5c-0.3-0.1-0.6-0.2-0.8-0.2c-0.3,0-0.4,0.1-0.4,0.2c0,0.1,0.2,0.2,0.6,0.3
		c0.6,0.1,1,0.3,1,0.8c0,0.5-0.4,0.8-1.1,0.8c-0.5,0-0.8-0.1-1.2-0.2L90.9,91.3z"/>
	<path d="M96.1,89.4v3.5h-0.7v-1c-0.2,0.1-0.5,0.2-0.8,0.2c-0.7,0-1.3-0.5-1.3-1.4c0-0.8,0.6-1.4,1.3-1.4c0.3,0,0.6,0.1,0.8,0.2
		v-0.2H96.1z M94.7,91.5c0.3,0,0.5-0.1,0.7-0.2v-1.1C95.2,90.1,95,90,94.7,90c-0.5,0-0.8,0.3-0.8,0.8C93.9,91.2,94.3,91.5,94.7,91.5
		z"/>
	<path d="M99.2,89.4V92h-0.7v-0.2c-0.2,0.1-0.5,0.2-0.7,0.2c-0.8,0-1.1-0.4-1.1-1.2v-1.5h0.7v1.5c0,0.4,0.2,0.6,0.6,0.6
		c0.2,0,0.4-0.1,0.6-0.2v-1.8H99.2z"/>
	<path d="M99.8,88.7c0-0.2,0.2-0.4,0.4-0.4c0.2,0,0.4,0.2,0.4,0.4c0,0.2-0.2,0.4-0.4,0.4C99.9,89.1,99.8,89,99.8,88.7z M99.8,89.4
		h0.7V92h-0.7V89.4z"/>
	<path d="M102,90v0.9c0,0.5,0.1,0.6,0.4,0.6c0.1,0,0.2,0,0.3,0V92c0,0-0.2,0.1-0.6,0.1c-0.4,0-0.8-0.3-0.8-0.8V90h-0.4v-0.6h0.4v-1
		h0.7v1h0.7V90H102z"/>
	<path d="M105.9,90.7c0,0.8-0.7,1.4-1.5,1.4c-0.8,0-1.5-0.6-1.5-1.4c0-0.8,0.7-1.4,1.5-1.4C105.2,89.4,105.9,90,105.9,90.7z
		 M105.2,90.7c0-0.4-0.3-0.8-0.8-0.8c-0.4,0-0.8,0.3-0.8,0.8c0,0.4,0.4,0.8,0.8,0.8C104.9,91.5,105.2,91.1,105.2,90.7z"/>
	<path d="M111.6,88.6V92h-0.7v-1.9l-1.1,1.5l-1.1-1.5V92H108v-3.4h0.3l1.4,2l1.4-2H111.6z"/>
	<path d="M114.9,89.4V92h-0.7v-0.2c-0.2,0.1-0.5,0.2-0.8,0.2c-0.8,0-1.3-0.7-1.3-1.4c0-0.7,0.5-1.4,1.3-1.4c0.3,0,0.6,0.1,0.8,0.2
		v-0.2H114.9z M114.2,90.2c-0.2-0.1-0.4-0.2-0.7-0.2c-0.5,0-0.8,0.4-0.8,0.8c0,0.4,0.3,0.8,0.8,0.8c0.3,0,0.5-0.1,0.7-0.2V90.2z"/>
	<path d="M118,90.6V92h-0.7v-1.5c0-0.4-0.2-0.6-0.6-0.6c-0.2,0-0.4,0.1-0.6,0.2V92h-0.7v-2.6h0.7v0.2c0.2-0.1,0.4-0.2,0.7-0.2
		C117.7,89.4,118,89.7,118,90.6z"/>
	<g>
		<path style="fill:#FFFFFF;" d="M121.9,114c0.3,0.1,0.3,0.5,0.2,0.8"/>
		<g>
			<g>
				<path style="opacity:0.1091;" d="M121.4,112.4c0.3,0.2,0.3,0.4,0.2,0.7c0,0,0.7,0,0.8,0c0.1-0.3,0.1-0.5-0.2-0.7
					C122.1,112.2,121.5,112.5,121.4,112.4z"/>
				<path style="opacity:0.1091;" d="M122.4,114.5c0.1,0.3,0.1,0.5,0.2,0.8c0-0.2,0.1-0.5,0.2-0.7c0-0.6,0.1-0.3-0.2-0.8
					C122.7,113.8,122.3,114.3,122.4,114.5z"/>
				<path style="opacity:0.1091;" d="M121.5,114.7c0.3,0.2,0.3,0.5,0.2,0.8c0,0,0.8,0.1,0.8,0.1c0.1-0.3,0.1-0.6-0.2-0.8
					C122.1,114.6,121.6,114.8,121.5,114.7z"/>
				<path style="opacity:0.1091;" d="M121.7,113.1c0.3,0.2,0.3,0.4,0.2,0.7c0,0,0.7,0.1,0.7,0.1c0.1-0.3,0.1-0.5-0.2-0.7
					C122.3,113,121.8,113.2,121.7,113.1z"/>
				<path style="opacity:0.1091;" d="M121.7,116c0.3,0.2,0.3,0.5,0.2,0.8c0,0,0.7,0,0.8-0.1c0.1-0.3,0.1-0.6-0.2-0.8
					C122.4,115.8,121.8,116.1,121.7,116z"/>
				<path style="opacity:0.1091;" d="M121.7,114.3c0.3,0.2,0.3,0.4,0.2,0.8c0-0.2,0.2-0.5,0.2-0.7c0.1-0.3,0.1-0.6-0.2-0.8
					C122,113.7,121.6,114.2,121.7,114.3z"/>
				<path style="opacity:0.1091;" d="M122.4,115.6c0,0.2,0,0.3,0,0.5c0-0.1,0.7-0.2,0.7-0.3c0-0.2,0-0.3,0-0.5
					C123.1,115.4,122.4,115.5,122.4,115.6z"/>
			</g>
		</g>
	</g>
</g>
</svg>
