<?xml version="1.0" encoding="utf-8"?>
<!-- Generator: Adobe Illustrator 18.0.0, SVG Export Plug-In . SVG Version: 6.00 Build 0)  -->
<!DOCTYPE svg PUBLIC "-//W3C//DTD SVG 1.1//EN" "http://www.w3.org/Graphics/SVG/1.1/DTD/svg11.dtd">
<svg version="1.1" id="圖層_1" xmlns="http://www.w3.org/2000/svg" xmlns:xlink="http://www.w3.org/1999/xlink" x="0px" y="0px"
	 viewBox="0 0 1349 679.348" style="enable-background:new 0 0 1349 679.348;" xml:space="preserve">
<path style="opacity:0.7;fill:#33CCCC;" d="M1330.058,138.396c-18.942-4.5-23.999-6-52.498,6.583
	c-28.499,12.583-14.999,2.416-46.497,0.176c-31.498-2.24-26.999-15.759-50.998-13.072c-23.999,2.687-23.998,22.812-47.818,25.784
	c-23.82,2.973-40.677-13.472-60.366-12.892c-19.689,0.58-80.806,8.419-106.29,12.37c-25.484,3.951-24.013-15.95-53.566-12.631
	c-29.554,3.319-12.444,10.18-34.479,12.338c-22.035,2.158-48.461-8.158-79.287-12.484c-30.826-4.326-113.167,11.826-137.148,12.462
	c-23.981,0.636-27.016-12.635-47.777-12.474c-20.761,0.161-30.236,5.839-47.705,10.449c-17.469,4.61-35.029-0.111-54.24-0.002
	c-19.211,0.109-19.787-4.608-39.461-11.46c-19.674-6.852-35.823-3.648-67.652,7.061c-31.829,10.71-28.168-1.71-50.666-0.117
	c-22.499,1.593-40.498-13.593-67.497-9.202c-26.999,4.391-26.999,9.109-46.498,9.191s-32.998-0.082-55.497-9.197
	c-22.499-9.115-29.998-5.884-47.997-8.884s-31.499,16.499-50.998,17.999S0,132.396,0,132.396v32.951v537h1349v-537v-33.616
	C1349,131.732,1349,142.896,1330.058,138.396z"/>
</svg>
